<svg width="143" height="200" viewBox="0 0 143 200" fill="none" xmlns="http://www.w3.org/2000/svg">
<path d="M15.7997 200C7.34884 200.014 0.456007 193.276 0.438057 184.965L6.8533e-05 15.1463C-0.0250616 6.78158 6.86419 -0.00717435 15.3402 5.69015e-06L127.568 0.211783C136.012 0.233323 142.89 7.03279 142.89 15.3652V184.832C142.89 193.107 136.04 199.86 127.625 199.867L15.7997 200Z" fill="#C9C9C9"/>
<path d="M17.1938 199.58C8.85775 199.58 2.06543 192.82 2.06543 184.513V15.0891C2.06543 6.77462 8.85775 0.0146484 17.1938 0.0146484H127.788C136.131 0.0146484 142.913 6.77462 142.913 15.0891V184.513C142.913 192.82 136.131 199.58 127.788 199.58H17.1938Z" fill="#F1EAD8"/>
<path d="M114.645 33.7032C114.659 30.106 98.9852 14.7085 98.9852 14.7085C98.9852 14.7085 83.7096 30.5907 83.7061 33.6458C83.7025 38.8154 87.8812 43.0194 93.058 43.0266C94.8243 43.0337 96.4793 42.5419 97.8866 41.6947L92.017 51.7L106.266 51.7287L100.436 41.709C101.832 42.5419 103.48 43.0481 105.253 43.0553C110.423 43.0696 114.645 38.8872 114.645 33.7032Z" fill="#2C2C2C"/>
<path opacity="0.2" d="M114.645 33.7032C114.66 30.106 98.9857 14.7085 98.9857 14.7085C98.9857 14.7085 98.9714 14.7157 98.957 14.7372V51.718L106.266 51.7323L100.436 41.7126C101.833 42.5455 103.48 43.0517 105.254 43.0589C110.424 43.0696 114.645 38.8872 114.645 33.7032Z" fill="#616161"/>
<path d="M114.645 78.094C114.659 74.4896 98.9852 59.092 98.9852 59.092C98.9852 59.092 83.7096 74.9742 83.7061 78.0365C83.7025 83.2097 87.8812 87.4101 93.058 87.4101C94.8243 87.4173 96.4793 86.9398 97.8866 86.0782L92.017 96.0835L106.266 96.1122L100.436 86.0853C101.832 86.9397 103.48 87.4388 105.253 87.4532C110.423 87.4639 114.645 83.278 114.645 78.094Z" fill="#2C2C2C"/>
<path opacity="0.2" d="M114.645 78.094C114.66 74.4896 98.9857 59.092 98.9857 59.092C98.9857 59.092 98.9714 59.1064 98.957 59.1207V96.1087L106.266 96.1159L100.436 86.0889C101.833 86.9434 103.48 87.4424 105.254 87.4568C110.424 87.464 114.645 83.278 114.645 78.094Z" fill="#616161"/>
<path d="M30.4697 33.7032C30.4554 30.106 46.1294 14.7085 46.1294 14.7085C46.1294 14.7085 61.4049 30.5907 61.4085 33.6458C61.4157 38.8154 57.2297 43.0194 52.0565 43.0266C50.2902 43.0337 48.6352 42.5419 47.2244 41.6947L53.0976 51.7L38.8488 51.7287L44.679 41.709C43.2789 42.5419 41.6311 43.0481 39.8612 43.0553C34.6916 43.0696 30.4697 38.8872 30.4697 33.7032Z" fill="#2C2C2C"/>
<path opacity="0.2" d="M30.4697 33.7032C30.4554 30.106 46.1294 14.7085 46.1294 14.7085C46.1294 14.7085 46.1438 14.7157 46.1581 14.7372V51.718L38.8488 51.7323L44.679 41.7126C43.2789 42.5455 41.6311 43.0517 39.8612 43.0589C34.6916 43.0696 30.4697 38.8872 30.4697 33.7032Z" fill="#616161"/>
<path d="M57.0547 59.0742C57.0439 55.4698 72.718 40.0723 72.718 40.0723C72.718 40.0723 87.9899 55.9545 87.9971 59.0096C87.9971 64.1828 83.8219 68.3903 78.6451 68.3903C76.8788 68.3975 75.2202 67.9128 73.8165 67.0584L79.6898 77.0566L65.441 77.0997L71.264 67.0655C69.8711 67.9128 68.2233 68.4118 66.4462 68.4262C61.2766 68.4333 57.0547 64.2474 57.0547 59.0742Z" fill="#2C2C2C"/>
<path opacity="0.2" d="M57.0547 59.0742C57.0439 55.4699 72.718 40.0723 72.718 40.0723C72.718 40.0723 72.7287 40.0794 72.7467 40.0937V77.0817L65.4374 77.1033L71.2604 67.0692C69.8675 67.9164 68.2197 68.4154 66.4426 68.4298C61.2766 68.4334 57.0547 64.2474 57.0547 59.0742Z" fill="#616161"/>
<path d="M30.4697 78.094C30.4554 74.4896 46.1294 59.092 46.1294 59.092C46.1294 59.092 61.4049 74.9742 61.4085 78.0365C61.4157 83.2097 57.2297 87.4101 52.0565 87.4101C50.2902 87.4173 48.6352 86.9398 47.2244 86.0782L53.0976 96.0835L38.8488 96.1122L44.679 86.0853C43.2789 86.9397 41.6311 87.4388 39.8612 87.4532C34.6916 87.4639 30.4697 83.278 30.4697 78.094Z" fill="#2C2C2C"/>
<path opacity="0.2" d="M30.4697 78.094C30.4554 74.4896 46.1294 59.092 46.1294 59.092C46.1294 59.092 46.1438 59.1064 46.1581 59.1207V96.1087L38.8488 96.1159L44.679 86.0889C43.2789 86.9434 41.6311 87.4424 39.8612 87.4568C34.6916 87.464 30.4697 83.278 30.4697 78.094Z" fill="#616161"/>
<path d="M114.579 166.652C114.59 170.257 98.9159 185.654 98.9159 185.654C98.9159 185.654 83.6439 169.772 83.6367 166.717C83.6331 161.537 87.8119 157.329 92.9887 157.329C94.755 157.329 96.4136 157.807 97.8173 158.661L91.9476 148.663L106.2 148.627L100.366 158.654C101.763 157.807 103.407 157.308 105.184 157.293C110.354 157.286 114.579 161.472 114.579 166.652Z" fill="#2C2C2C"/>
<path opacity="0.2" d="M114.578 166.652C114.589 170.257 98.9151 185.654 98.9151 185.654C98.9151 185.654 98.9007 185.64 98.8936 185.626V148.638L106.203 148.623L100.369 158.65C101.766 157.803 103.41 157.304 105.187 157.29C110.353 157.286 114.578 161.472 114.578 166.652Z" fill="#616161"/>
<path d="M114.579 122.262C114.59 125.866 98.9159 141.264 98.9159 141.264C98.9159 141.264 83.6439 125.381 83.6367 122.319C83.6331 117.153 87.8119 112.953 92.9887 112.946C94.755 112.938 96.4136 113.416 97.8173 114.277L91.9476 104.265L106.2 104.243L100.366 114.263C101.763 113.416 103.407 112.917 105.184 112.91C110.354 112.903 114.579 117.081 114.579 122.262Z" fill="#2C2C2C"/>
<path opacity="0.2" d="M114.578 122.262C114.589 125.866 98.9151 141.264 98.9151 141.264C98.9151 141.264 98.9007 141.249 98.8936 141.235V104.254L106.203 104.24L100.369 114.26C101.766 113.413 103.41 112.913 105.187 112.906C110.353 112.903 114.578 117.081 114.578 122.262Z" fill="#616161"/>
<path d="M30.3994 166.652C30.3886 170.257 46.0627 185.654 46.0627 185.654C46.0627 185.654 61.3346 169.772 61.3382 166.717C61.3418 161.537 57.163 157.329 51.9862 157.329C50.2199 157.329 48.5613 157.807 47.1576 158.661L53.0273 148.663L38.7821 148.627L44.6087 158.654C43.2122 157.807 41.5644 157.308 39.7909 157.293C34.6213 157.286 30.3994 161.472 30.3994 166.652Z" fill="#2C2C2C"/>
<path opacity="0.2" d="M30.3994 166.652C30.3886 170.257 46.0627 185.654 46.0627 185.654C46.0627 185.654 46.0734 185.64 46.0842 185.626V148.638L38.7821 148.623L44.6087 158.65C43.2122 157.803 41.5644 157.304 39.7909 157.29C34.6213 157.286 30.3994 161.472 30.3994 166.652Z" fill="#616161"/>
<path d="M56.9883 140.955C56.9739 144.552 72.6479 159.95 72.6479 159.95C72.6479 159.95 87.9235 144.075 87.9271 141.012C87.9378 135.839 83.7519 131.639 78.5751 131.632C76.8124 131.624 75.1538 132.109 73.7465 132.971L79.6162 122.958L65.371 122.937L71.2012 132.956C69.8011 132.109 68.1532 131.603 66.3834 131.596C61.2101 131.581 56.9883 135.767 56.9883 140.955Z" fill="#2C2C2C"/>
<path opacity="0.2" d="M56.9883 140.955C56.9739 144.552 72.6479 159.95 72.6479 159.95C72.6479 159.95 72.6659 159.935 72.6731 159.921V122.94L65.3674 122.933L71.1976 132.953C69.7975 132.105 68.1496 131.599 66.3798 131.592C61.2101 131.581 56.9883 135.767 56.9883 140.955Z" fill="#616161"/>
<path d="M30.3994 122.262C30.3886 125.866 46.0627 141.264 46.0627 141.264C46.0627 141.264 61.3346 125.381 61.3382 122.319C61.3418 117.153 57.163 112.953 51.9862 112.946C50.2199 112.938 48.5613 113.416 47.1576 114.277L53.0273 104.265L38.7821 104.243L44.6087 114.263C43.2122 113.416 41.5644 112.917 39.7909 112.91C34.6213 112.903 30.3994 117.081 30.3994 122.262Z" fill="#2C2C2C"/>
<path opacity="0.2" d="M30.3994 122.262C30.3886 125.866 46.0627 141.264 46.0627 141.264C46.0627 141.264 46.0734 141.249 46.0842 141.235V104.254L38.7821 104.24L44.6087 114.26C43.2122 113.413 41.5644 112.913 39.7909 112.906C34.6213 112.903 30.3994 117.081 30.3994 122.262Z" fill="#616161"/>
<path d="M18.7743 40.5387C18.7815 39.5693 14.5955 35.4695 14.5955 35.4695C14.5955 35.4695 10.5244 39.7057 10.5244 40.5171C10.5244 41.9064 11.6373 43.0193 13.0123 43.0193C13.4862 43.0193 13.9242 42.8937 14.2975 42.6604L12.7359 45.3313L16.5341 45.3384L14.976 42.6604C15.3494 42.8901 15.791 43.0265 16.2649 43.0336C17.647 43.0372 18.7743 41.9136 18.7743 40.5387Z" fill="#2C2C2C"/>
<path opacity="0.2" d="M18.7739 40.5387C18.781 39.5693 14.5951 35.4695 14.5951 35.4695C14.5951 35.4695 14.5879 35.4695 14.5879 35.4767V45.3349L16.5373 45.342L14.9792 42.6639C15.3526 42.8936 15.7941 43.0301 16.268 43.0372C17.6466 43.0372 18.7739 41.9136 18.7739 40.5387Z" fill="#616161"/>
<path d="M127.793 161.415C127.789 162.377 131.968 166.477 131.968 166.477C131.968 166.477 136.046 162.248 136.046 161.429C136.046 160.047 134.93 158.927 133.551 158.927C133.077 158.92 132.64 159.052 132.266 159.286L133.835 156.615L130.033 156.608L131.588 159.286C131.218 159.056 130.78 158.92 130.306 158.92C128.917 158.912 127.793 160.036 127.793 161.415Z" fill="#2C2C2C"/>
<path opacity="0.2" d="M127.793 161.415C127.789 162.377 131.968 166.477 131.968 166.477H131.975V156.611L130.03 156.604L131.584 159.282C131.214 159.053 130.776 158.916 130.302 158.916C128.917 158.913 127.793 160.036 127.793 161.415Z" fill="#616161"/>
<path d="M7.93472 15.4152L5.67095 15.7033L5.62979 15.2917L10.2808 14.6537H11.9478V28.8949H13.553V29.2859H5.77385V28.8949H7.93472V15.4152ZM20.7724 29.4917C18.7831 29.4917 17.267 28.8194 16.2243 27.4749C15.1953 26.1303 14.6809 24.2507 14.6809 21.836C14.6809 19.4213 15.2365 17.624 16.3478 16.4441C17.4591 15.2505 18.9752 14.6537 20.8959 14.6537C22.8304 14.6537 24.3465 15.2437 25.444 16.4236C26.5554 17.6035 27.111 19.4831 27.111 22.0624C27.111 24.6417 26.5554 26.5282 25.444 27.7218C24.3327 28.9017 22.7755 29.4917 20.7724 29.4917ZM18.8997 21.301V23.1326C18.8997 24.4634 18.9066 25.4032 18.9203 25.952C18.9477 26.5008 19.0232 27.0701 19.1467 27.6601C19.2701 28.25 19.4691 28.6342 19.7435 28.8126C20.0179 28.9772 20.3403 29.0595 20.7107 29.0595C21.0811 29.0595 21.3555 29.0389 21.5339 28.9978C21.726 28.9566 21.8906 28.8743 22.0278 28.7508C22.1787 28.6136 22.3022 28.4833 22.3982 28.3598C22.4943 28.2226 22.5697 28.0168 22.6246 27.7424C22.6932 27.468 22.7481 27.2142 22.7893 26.981C22.8304 26.7477 22.8579 26.4047 22.8716 25.952C22.899 25.0739 22.9127 24.189 22.9127 23.2972V21.4862C22.9127 18.7971 22.8098 17.0615 22.604 16.2795C22.412 15.4838 21.8495 15.0859 20.9165 15.0859C19.9836 15.0859 19.4142 15.4906 19.2084 16.3001C19.0026 17.1096 18.8997 18.7765 18.8997 21.301Z" fill="#2C2C2C"/>
<path d="M133.598 184.946L135.861 184.658L135.902 185.069L131.251 185.707L129.584 185.707L129.584 171.466L127.979 171.466L127.979 171.075L135.758 171.075L135.758 171.466L133.598 171.466L133.598 184.946ZM120.76 170.869C122.749 170.869 124.265 171.541 125.308 172.886C126.337 174.231 126.851 176.11 126.851 178.525C126.851 180.939 126.296 182.737 125.184 183.917C124.073 185.11 122.557 185.707 120.636 185.707C118.702 185.707 117.186 185.117 116.088 183.937C114.977 182.757 114.421 180.878 114.421 178.298C114.421 175.719 114.977 173.833 116.088 172.639C117.199 171.459 118.757 170.869 120.76 170.869ZM122.633 179.06L122.633 177.228C122.633 175.897 122.626 174.958 122.612 174.409C122.585 173.86 122.509 173.291 122.386 172.701C122.262 172.111 122.063 171.727 121.789 171.548C121.514 171.384 121.192 171.301 120.822 171.301C120.451 171.301 120.177 171.322 119.998 171.363C119.806 171.404 119.642 171.487 119.504 171.61C119.353 171.747 119.23 171.878 119.134 172.001C119.038 172.138 118.962 172.344 118.908 172.618C118.839 172.893 118.784 173.147 118.743 173.38C118.702 173.613 118.674 173.956 118.661 174.409C118.633 175.287 118.619 176.172 118.619 177.064L118.619 178.875C118.619 181.564 118.722 183.299 118.928 184.081C119.12 184.877 119.683 185.275 120.616 185.275C121.549 185.275 122.118 184.87 122.324 184.061C122.53 183.251 122.633 181.584 122.633 179.06Z" fill="#2C2C2C"/>
</svg>
