<svg width="143" height="200" viewBox="0 0 143 200" fill="none" xmlns="http://www.w3.org/2000/svg">
<path d="M15.7997 200C7.34525 200.014 0.455983 193.269 0.430853 184.958L6.86042e-05 15.1391C-0.0250615 6.78159 6.85701 -0.00717435 15.3366 5.69015e-06L127.564 0.211837C136.008 0.233377 142.879 7.02567 142.879 15.3653V184.832C142.879 193.107 136.037 199.853 127.614 199.867L15.7997 200Z" fill="#C9C9C9"/>
<path d="M17.1941 199.58C8.85805 199.58 2.06934 192.82 2.06934 184.506V15.0891C2.06934 6.77462 8.86164 0.0146484 17.1941 0.0146484H127.785C136.135 0.0146484 142.909 6.77462 142.909 15.0891V184.506C142.909 192.82 136.135 199.58 127.785 199.58H17.1941Z" fill="#F1EAD8"/>
<path d="M106.968 26.7529C107.101 26.1211 107.198 25.4892 107.187 24.8179C107.202 20.0432 103.31 16.1803 98.5389 16.1875C93.7677 16.1947 89.9013 20.0432 89.8977 24.8179C89.8977 25.8482 90.0772 26.832 90.4183 27.7403C86.2 28.0634 82.8936 31.5815 82.8828 35.8823C82.8936 40.3914 86.5518 44.0425 91.0609 44.0425C92.2635 44.0496 96.5249 42.7177 97.4403 42.1828L91.9117 51.6713L105.396 51.6641L99.86 42.1828C100.969 42.847 105.687 44.0425 106.828 44.0425C111.614 44.0425 115.484 40.1581 115.48 35.3905C115.48 30.666 111.682 26.8319 106.968 26.7529Z" fill="#2C2C2C"/>
<path opacity="0.2" d="M106.967 26.7529C107.1 26.1211 107.197 25.4892 107.186 24.8179C107.2 20.0432 103.309 16.1803 98.5375 16.1875C98.5268 16.1875 98.5124 16.1947 98.498 16.1947V51.6749L105.394 51.6676L99.8587 42.1864C100.968 42.8506 105.685 44.0461 106.827 44.0461C111.612 44.0461 115.482 40.1617 115.479 35.3941C115.479 30.6661 111.681 26.8319 106.967 26.7529Z" fill="#616161"/>
<path d="M80.5376 51.919C80.6705 51.2871 80.7602 50.6481 80.7458 49.9839C80.7602 45.2092 76.8686 41.3392 72.1011 41.3536C67.3263 41.3536 63.4599 45.2092 63.4527 49.9839C63.4527 51.0143 63.643 51.9943 63.9733 52.9026C59.7658 53.2329 56.4522 56.7439 56.4414 61.0448C56.4486 65.5682 60.1032 69.2049 64.6195 69.2193C65.8221 69.2264 70.0907 67.8945 71.0061 67.3489L65.4703 76.8444L78.958 76.8301L73.415 67.3416C74.5243 68.0166 79.2452 69.2085 80.3904 69.2085C85.1723 69.2085 89.0424 65.3313 89.0388 60.5566C89.046 55.8321 85.2406 51.9943 80.5376 51.919Z" fill="#2C2C2C"/>
<path opacity="0.2" d="M80.5369 51.919C80.6697 51.2871 80.7595 50.6481 80.7451 49.9839C80.7595 45.2092 76.8679 41.3392 72.1003 41.3536C72.0932 41.3536 72.0788 41.3536 72.0645 41.3536V76.8337L78.9608 76.8265L73.4179 67.3381C74.5272 68.0131 79.2481 69.2049 80.3933 69.2049C85.1752 69.2049 89.0452 65.3277 89.0416 60.5529C89.0452 55.8321 85.2398 51.9943 80.5369 51.919Z" fill="#616161"/>
<path d="M106.968 70.422C107.101 69.7901 107.198 69.1583 107.187 68.4942C107.202 63.7195 103.31 59.8494 98.5389 59.8638C93.7677 59.871 89.9013 63.7195 89.8977 68.4942C89.8977 69.5245 90.0772 70.5082 90.4183 71.4201C86.2 71.7432 82.8936 75.2614 82.8828 79.5622C82.8936 84.0713 86.5518 87.7151 91.0609 87.7223C92.2635 87.7295 96.5249 86.3975 97.4403 85.8626L91.9117 95.3511L105.396 95.3367L99.86 85.8555C100.969 86.5232 105.687 87.7152 106.828 87.7152C111.614 87.7152 115.484 83.8379 115.48 79.0632C115.48 74.3423 111.682 70.5081 106.968 70.422Z" fill="#2C2C2C"/>
<path opacity="0.2" d="M106.967 70.422C107.1 69.7901 107.197 69.1583 107.186 68.4942C107.2 63.7195 103.309 59.8494 98.5375 59.8638C98.5268 59.8638 98.5124 59.8638 98.498 59.8638V95.3511L105.394 95.3367L99.8587 85.8555C100.968 86.5232 105.685 87.7152 106.827 87.7152C111.612 87.7152 115.482 83.8379 115.479 79.0632C115.479 74.3423 111.681 70.5081 106.967 70.422Z" fill="#616161"/>
<path d="M38.0806 26.7529C37.9513 26.1211 37.858 25.4892 37.8688 24.8179C37.858 20.0432 41.7424 16.1803 46.5135 16.1875C51.2882 16.1947 55.1583 20.0432 55.1583 24.8179C55.1583 25.8482 54.9788 26.832 54.6413 27.7403C58.8488 28.0634 62.1625 31.5815 62.1732 35.8823C62.166 40.3914 58.5078 44.0425 53.9951 44.0425C52.7996 44.0496 48.5239 42.7177 47.6157 42.1828L53.1479 51.6713L39.6602 51.6641L45.196 42.1828C44.0867 42.847 39.373 44.0425 38.2314 44.0425C33.4459 44.0425 29.5723 40.1581 29.583 35.3905C29.5759 30.666 33.3705 26.8319 38.0806 26.7529Z" fill="#2C2C2C"/>
<path opacity="0.2" d="M38.0803 26.7529C37.951 26.1211 37.8577 25.4892 37.8685 24.8179C37.8577 20.0432 41.7421 16.1803 46.5132 16.1875C46.524 16.1875 46.5312 16.1947 46.5455 16.1947V51.6749L39.6563 51.6676L45.1921 42.1864C44.0828 42.8506 39.3691 44.0461 38.2275 44.0461C33.442 44.0461 29.5684 40.1617 29.5791 35.3941C29.5755 30.6661 33.3702 26.8319 38.0803 26.7529Z" fill="#616161"/>
<path d="M38.0806 70.422C37.9513 69.7901 37.858 69.1583 37.8688 68.4942C37.858 63.7195 41.7424 59.8494 46.5135 59.8638C51.2882 59.871 55.1583 63.7195 55.1583 68.4942C55.1583 69.5245 54.9788 70.5082 54.6413 71.4201C58.8488 71.7432 62.1625 75.2614 62.1732 79.5622C62.166 84.0713 58.5078 87.7151 53.9951 87.7223C52.7996 87.7295 48.5239 86.3975 47.6157 85.8626L53.1479 95.3511L39.6602 95.3367L45.196 85.8555C44.0867 86.5232 39.373 87.7152 38.2314 87.7152C33.4459 87.7152 29.5723 83.8379 29.583 79.0632C29.5759 74.3423 33.3705 70.5081 38.0806 70.422Z" fill="#2C2C2C"/>
<path opacity="0.2" d="M38.0803 70.422C37.951 69.7901 37.8577 69.1583 37.8685 68.4942C37.8577 63.7195 41.7421 59.8494 46.5132 59.8638C46.524 59.8638 46.5312 59.8638 46.5455 59.8638V95.3511L39.6563 95.3367L45.1921 85.8555C44.0828 86.5232 39.3691 87.7152 38.2275 87.7152C33.442 87.7152 29.5684 83.8379 29.5791 79.0632C29.5755 74.3423 33.3702 70.5081 38.0803 70.422Z" fill="#616161"/>
<path d="M106.968 172.838C107.101 173.463 107.198 174.102 107.187 174.766C107.202 179.533 103.31 183.403 98.5389 183.396C93.7677 183.389 89.9013 179.541 89.8977 174.766C89.8977 173.728 90.0772 172.752 90.4183 171.844C86.2 171.52 82.8936 168.002 82.8828 163.709C82.8936 159.192 86.5518 155.549 91.0609 155.541C92.2635 155.534 96.5249 156.866 97.4403 157.408L91.9117 147.92H105.396L99.86 157.408C100.969 156.733 105.687 155.556 106.828 155.556C111.614 155.549 115.484 159.426 115.48 164.2C115.48 168.925 111.682 172.759 106.968 172.838Z" fill="#2C2C2C"/>
<path opacity="0.2" d="M106.967 172.838C107.1 173.463 107.197 174.102 107.186 174.766C107.2 179.533 103.309 183.403 98.5375 183.396C98.5268 183.396 98.5124 183.396 98.498 183.396V147.916H105.394L99.8587 157.404C100.968 156.73 105.685 155.552 106.827 155.552C111.612 155.545 115.482 159.422 115.479 164.197C115.479 168.925 111.681 172.759 106.967 172.838Z" fill="#616161"/>
<path d="M80.5376 147.672C80.6705 148.296 80.7602 148.928 80.7458 149.607C80.7602 154.374 76.8686 158.244 72.1011 158.237C67.3263 158.23 63.4599 154.374 63.4527 149.607C63.4527 148.569 63.643 147.593 63.9733 146.681C59.7658 146.351 56.4522 142.832 56.4414 138.546C56.4486 134.03 60.1032 130.379 64.6195 130.371C65.8221 130.371 70.0907 131.696 71.0061 132.242L65.4703 122.743L78.958 122.757L73.415 132.245C74.5243 131.571 79.2452 130.386 80.3904 130.379C85.1723 130.379 89.0424 134.256 89.0388 139.031C89.046 143.752 85.2406 147.6 80.5376 147.672Z" fill="#2C2C2C"/>
<path opacity="0.2" d="M80.5369 147.671C80.6697 148.296 80.7595 148.928 80.7451 149.606C80.7595 154.374 76.8679 158.244 72.1003 158.237C72.0932 158.237 72.0788 158.237 72.0645 158.237V122.75L78.9608 122.757L73.4179 132.245C74.5272 131.57 79.2481 130.385 80.3933 130.378C85.1752 130.378 89.0452 134.256 89.0416 139.03C89.0452 143.751 85.2398 147.6 80.5369 147.671Z" fill="#616161"/>
<path d="M106.968 129.162C107.101 129.787 107.198 130.426 107.187 131.09C107.202 135.864 103.31 139.727 98.5389 139.72C93.7677 139.72 89.9013 135.864 89.8977 131.09C89.8977 130.059 90.0772 129.076 90.4183 128.164C86.2 127.848 82.8936 124.315 82.8828 120.029C82.8936 115.513 86.5518 111.869 91.0609 111.862C92.2635 111.854 96.5249 113.186 97.4403 113.728L91.9117 104.24L105.396 104.247L99.86 113.728C100.969 113.054 105.687 111.876 106.828 111.876C111.614 111.869 115.484 115.746 115.48 120.528C115.48 125.249 111.682 129.083 106.968 129.162Z" fill="#2C2C2C"/>
<path opacity="0.2" d="M106.967 129.162C107.1 129.786 107.197 130.425 107.186 131.089C107.2 135.864 103.309 139.727 98.5375 139.72C98.5268 139.72 98.5124 139.72 98.498 139.72V104.247H105.394L99.8587 113.728C100.968 113.053 105.685 111.876 106.827 111.876C111.612 111.868 115.482 115.746 115.479 120.528C115.479 125.248 111.681 129.083 106.967 129.162Z" fill="#616161"/>
<path d="M38.0806 172.838C37.9513 173.463 37.858 174.102 37.8688 174.766C37.858 179.533 41.7424 183.403 46.5135 183.396C51.2882 183.389 55.1583 179.541 55.1583 174.766C55.1583 173.728 54.9788 172.752 54.6413 171.844C58.8488 171.52 62.1625 168.002 62.1732 163.709C62.166 159.192 58.5078 155.549 53.9951 155.541C52.7996 155.534 48.5239 156.866 47.6157 157.408L53.1479 147.92H39.6602L45.196 157.408C44.0867 156.733 39.373 155.556 38.2314 155.556C33.4459 155.549 29.5723 159.426 29.583 164.2C29.5759 168.925 33.3705 172.759 38.0806 172.838Z" fill="#2C2C2C"/>
<path opacity="0.2" d="M38.0803 172.838C37.951 173.463 37.8577 174.102 37.8685 174.766C37.8577 179.533 41.7421 183.403 46.5132 183.396C46.524 183.396 46.5312 183.396 46.5455 183.396V147.916H39.6563L45.1921 157.404C44.0828 156.73 39.3691 155.552 38.2275 155.552C33.442 155.545 29.5684 159.422 29.5791 164.197C29.5755 168.925 33.3702 172.759 38.0803 172.838Z" fill="#616161"/>
<path d="M38.0806 129.162C37.9513 129.787 37.858 130.426 37.8688 131.09C37.858 135.864 41.7424 139.727 46.5135 139.72C51.2882 139.72 55.1583 135.864 55.1583 131.09C55.1583 130.059 54.9788 129.076 54.6413 128.164C58.8488 127.848 62.1625 124.315 62.1732 120.029C62.166 115.513 58.5078 111.869 53.9951 111.862C52.7996 111.854 48.5239 113.186 47.6157 113.728L53.1479 104.24L39.6602 104.247L45.196 113.728C44.0867 113.054 39.373 111.876 38.2314 111.876C33.4459 111.869 29.5723 115.746 29.583 120.528C29.5759 125.249 33.3705 129.083 38.0806 129.162Z" fill="#2C2C2C"/>
<path opacity="0.2" d="M38.0803 129.162C37.951 129.786 37.8577 130.425 37.8685 131.089C37.8577 135.864 41.7421 139.727 46.5132 139.72C46.524 139.72 46.5312 139.72 46.5455 139.72V104.247H39.6563L45.1921 113.728C44.0828 113.053 39.3691 111.876 38.2275 111.876C33.442 111.868 29.5684 115.746 29.5791 120.528C29.5755 125.248 33.3702 129.083 38.0803 129.162Z" fill="#616161"/>
<path d="M15.5868 38.8296C15.6191 38.6824 15.6371 38.5424 15.6371 38.3809C15.6371 37.3003 14.7539 36.4099 13.6626 36.4099C12.5712 36.4099 11.6952 37.3003 11.6952 38.3809C11.6952 38.6178 11.7347 38.8439 11.8137 39.0558C10.848 39.1276 10.0905 39.9389 10.0869 40.9118C10.0869 41.9421 10.9306 42.7787 11.9573 42.7787C12.2301 42.7787 13.2031 42.4699 13.4149 42.3514L12.1512 44.5198H15.2278L13.9641 42.3514C14.2154 42.5058 15.2997 42.7787 15.5617 42.7787C16.6495 42.7787 17.529 41.8884 17.529 40.8006C17.5326 39.72 16.6638 38.8404 15.5868 38.8296Z" fill="#2C2C2C"/>
<path opacity="0.2" d="M15.5867 38.8296C15.619 38.6824 15.637 38.5424 15.637 38.3809C15.637 37.3003 14.7538 36.4099 13.6624 36.4099H13.6553V44.5162H15.2277L13.964 42.3479C14.2153 42.5023 15.2995 42.7751 15.5616 42.7751C16.6494 42.7751 17.5289 41.8847 17.5289 40.797C17.5325 39.72 16.6637 38.8404 15.5867 38.8296Z" fill="#616161"/>
<path d="M133.451 163.307C133.487 163.454 133.508 163.601 133.508 163.748C133.508 164.843 132.621 165.719 131.53 165.719C130.446 165.719 129.559 164.843 129.559 163.748C129.559 163.518 129.599 163.299 129.678 163.091C128.715 163.012 127.958 162.208 127.958 161.232C127.958 160.201 128.791 159.358 129.825 159.358C130.094 159.358 131.074 159.659 131.279 159.785L130.019 157.616H133.092L131.832 159.792C132.083 159.638 133.164 159.365 133.426 159.365C134.521 159.358 135.393 160.248 135.393 161.343C135.397 162.416 134.535 163.299 133.451 163.307Z" fill="#2C2C2C"/>
<path opacity="0.2" d="M133.451 163.307C133.487 163.454 133.508 163.601 133.508 163.748C133.508 164.843 132.622 165.719 131.53 165.719H131.52V157.62H133.092L131.832 159.795C132.083 159.641 133.164 159.368 133.426 159.368C134.521 159.361 135.393 160.251 135.393 161.346C135.397 162.416 134.535 163.299 133.451 163.307Z" fill="#616161"/>
<path d="M7.87613 15.399L5.61236 15.6872L5.5712 15.2756L10.2222 14.6376H11.8892V28.8788H13.4944V29.2698H5.71526V28.8788H7.87613V15.399ZM20.7139 29.4756C18.7245 29.4756 17.2084 28.8033 16.1657 27.4588C15.1368 26.1142 14.6223 24.2346 14.6223 21.8199C14.6223 19.4052 15.1779 17.6079 16.2892 16.428C17.4005 15.2344 18.9166 14.6376 20.8373 14.6376C22.7718 14.6376 24.2879 15.2275 25.3855 16.4074C26.4968 17.5874 27.0524 19.467 27.0524 22.0463C27.0524 24.6256 26.4968 26.5121 25.3855 27.7057C24.2741 28.8856 22.7169 29.4756 20.7139 29.4756ZM18.8411 21.2848V23.1164C18.8411 24.4473 18.848 25.3871 18.8617 25.9359C18.8891 26.4847 18.9646 27.054 19.0881 27.644C19.2115 28.2339 19.4105 28.6181 19.6849 28.7964C19.9593 28.9611 20.2817 29.0434 20.6521 29.0434C21.0226 29.0434 21.2969 29.0228 21.4753 28.9817C21.6674 28.9405 21.832 28.8582 21.9692 28.7347C22.1201 28.5975 22.2436 28.4672 22.3397 28.3437C22.4357 28.2065 22.5112 28.0007 22.566 27.7263C22.6346 27.4519 22.6895 27.1981 22.7307 26.9648C22.7718 26.7316 22.7993 26.3886 22.813 25.9359C22.8404 25.0578 22.8541 24.1729 22.8541 23.2811V21.4701C22.8541 18.781 22.7512 17.0454 22.5455 16.2634C22.3534 15.4676 21.7909 15.0698 20.8579 15.0698C19.925 15.0698 19.3556 15.4745 19.1498 16.284C18.944 17.0934 18.8411 18.7604 18.8411 21.2848Z" fill="#2C2C2C"/>
<path d="M133.54 184.93L135.804 184.641L135.845 185.053L131.194 185.691L129.527 185.691L129.527 171.45L127.922 171.45L127.922 171.059L135.701 171.059L135.701 171.45L133.54 171.45L133.54 184.93ZM120.702 170.853C122.692 170.853 124.208 171.525 125.25 172.87C126.279 174.214 126.794 176.094 126.794 178.509C126.794 180.923 126.238 182.721 125.127 183.901C124.015 185.094 122.499 185.691 120.579 185.691C118.644 185.691 117.128 185.101 116.031 183.921C114.919 182.741 114.364 180.862 114.364 178.282C114.364 175.703 114.919 173.817 116.031 172.623C117.142 171.443 118.699 170.853 120.702 170.853ZM122.575 179.044L122.575 177.212C122.575 175.881 122.568 174.942 122.554 174.393C122.527 173.844 122.451 173.275 122.328 172.685C122.204 172.095 122.006 171.711 121.731 171.532C121.457 171.368 121.134 171.285 120.764 171.285C120.393 171.285 120.119 171.306 119.941 171.347C119.749 171.388 119.584 171.47 119.447 171.594C119.296 171.731 119.172 171.861 119.076 171.985C118.98 172.122 118.905 172.328 118.85 172.602C118.781 172.877 118.727 173.131 118.685 173.364C118.644 173.597 118.617 173.94 118.603 174.393C118.576 175.271 118.562 176.156 118.562 177.048L118.562 178.859C118.562 181.548 118.665 183.283 118.871 184.065C119.063 184.861 119.625 185.259 120.558 185.259C121.491 185.259 122.06 184.854 122.266 184.045C122.472 183.235 122.575 181.568 122.575 179.044Z" fill="#2C2C2C"/>
</svg>
