<svg width="141" height="197" viewBox="0 0 141 197" fill="none" xmlns="http://www.w3.org/2000/svg">
<path d="M15.5556 196.916C7.23037 196.931 0.441643 190.289 0.427283 182.107L6.9618e-05 14.8986C-0.0250605 6.67387 6.75648 -0.0214883 15.1033 5.18283e-05L125.604 0.204707C133.919 0.226247 140.693 6.91442 140.693 15.1176V181.974C140.693 190.135 133.947 196.776 125.661 196.791L15.5556 196.916Z" fill="#C9C9C9"/>
<path d="M16.9318 196.5C8.72141 196.5 2.0332 189.84 2.0332 181.655V14.8448C2.0332 6.65593 8.72141 0 16.9318 0H125.817C134.042 0 140.716 6.65593 140.716 14.8448V181.655C140.716 189.837 134.038 196.5 125.817 196.5H16.9318Z" fill="#F1EAD8"/>
<path d="M97.7479 14.1553L112.435 32.687L97.7479 51.2402L83.0684 32.687L97.7479 14.1553Z" fill="#D66753"/>
<path opacity="0.2" d="M97.8485 14.2809L97.7479 14.1553L83.0684 32.687L97.7479 51.2402L97.8485 51.1038V14.2809Z" fill="#616161"/>
<path d="M70.5211 38.2446L85.2042 56.7726L70.5211 75.3187L55.8379 56.7726L70.5211 38.2446Z" fill="#D66753"/>
<path opacity="0.2" d="M70.6144 38.3667L70.5211 38.2446L55.8379 56.7726L70.5211 75.3187L70.6144 75.1967V38.3667Z" fill="#616161"/>
<path d="M72.2284 122.897L57.5381 141.447L72.2284 159.986L86.9116 141.447L72.2284 122.897Z" fill="#D66753"/>
<path opacity="0.2" d="M72.1367 123.026L72.2301 122.897L86.9132 141.447L72.2301 159.986L72.1367 159.864V123.026Z" fill="#616161"/>
<path d="M97.7479 57.8564L112.435 76.3882L97.7479 94.9414L83.0684 76.3882L97.7479 57.8564Z" fill="#D66753"/>
<path opacity="0.2" d="M97.8485 57.9785L97.7479 57.8564L83.0684 76.3882L97.7479 94.9414L97.8485 94.8157V57.9785Z" fill="#616161"/>
<path d="M44.9983 101.562L30.3115 120.094L44.9983 138.647L59.6851 120.094L44.9983 101.562Z" fill="#D66753"/>
<path opacity="0.2" d="M44.8994 101.688L44.9999 101.562L59.6867 120.094L44.9999 138.647L44.8994 138.528V101.688Z" fill="#616161"/>
<path d="M44.9983 145.266L30.3115 163.798L44.9983 182.344L59.6851 163.798L44.9983 145.266Z" fill="#D66753"/>
<path opacity="0.2" d="M44.8994 145.385L44.9999 145.266L59.6867 163.798L44.9999 182.344L44.8994 182.226V145.385Z" fill="#616161"/>
<path d="M45.0019 14.1553L59.6851 32.687L45.0019 51.2402L30.3115 32.687L45.0019 14.1553Z" fill="#D66753"/>
<path opacity="0.2" d="M45.0952 14.2809L45.0019 14.1553L30.3115 32.687L45.0019 51.2402L45.0952 51.1038V14.2809Z" fill="#616161"/>
<path d="M45.0019 57.8564L59.6851 76.3882L45.0019 94.9414L30.3115 76.3882L45.0019 57.8564Z" fill="#D66753"/>
<path opacity="0.2" d="M45.0952 57.9785L45.0019 57.8564L30.3115 76.3882L45.0019 94.9414L45.0952 94.8157V57.9785Z" fill="#616161"/>
<path d="M97.7479 101.562L83.0684 120.094L97.7479 138.647L112.435 120.094L97.7479 101.562Z" fill="#D66753"/>
<path opacity="0.2" d="M97.6562 101.688L97.7496 101.562L112.436 120.094L97.7496 138.647L97.6562 138.528V101.688Z" fill="#616161"/>
<path d="M97.7479 145.266L83.0684 163.798L97.7479 182.344L112.435 163.798L97.7479 145.266Z" fill="#D66753"/>
<path opacity="0.2" d="M97.6562 145.385L97.7496 145.266L112.436 163.798L97.7496 182.344L97.6562 182.226V145.385Z" fill="#616161"/>
<path d="M13.7204 44.6884L9.44824 39.2926L13.7204 33.9004L17.9997 39.2926L13.7204 44.6884Z" fill="#D66753"/>
<path opacity="0.2" d="M13.7188 33.9004L13.6865 33.9327V44.649L13.7188 44.6884L17.9981 39.2926L13.7188 33.9004Z" fill="#616161"/>
<path d="M129.94 153.653L134.216 159.052L129.94 164.444L125.668 159.052L129.94 153.653Z" fill="#D66753"/>
<path opacity="0.2" d="M129.976 153.682L129.94 153.653L125.668 159.052L129.94 164.444L129.976 164.408V153.682Z" fill="#616161"/>
<path d="M8.0441 15.579L5.78033 15.8671L5.73917 15.4555L10.3902 14.8175H12.0571V29.0587H13.6624V29.4497H5.88323V29.0587H8.0441V15.579ZM20.8818 29.6555C18.8925 29.6555 17.3764 28.9832 16.3337 27.6387C15.3047 26.2941 14.7902 24.4145 14.7902 21.9998C14.7902 19.5852 15.3459 17.7879 16.4572 16.608C17.5685 15.4143 19.0845 14.8175 21.0053 14.8175C22.9398 14.8175 24.4558 15.4075 25.5534 16.5874C26.6647 17.7673 27.2204 19.6469 27.2204 22.2262C27.2204 24.8055 26.6647 26.692 25.5534 27.8856C24.4421 29.0656 22.8849 29.6555 20.8818 29.6555ZM19.0091 21.4648V23.2964C19.0091 24.6272 19.0159 25.567 19.0296 26.1158C19.0571 26.6646 19.1325 27.234 19.256 27.8239C19.3795 28.4139 19.5784 28.798 19.8528 28.9764C20.1272 29.141 20.4497 29.2233 20.8201 29.2233C21.1905 29.2233 21.4649 29.2028 21.6433 29.1616C21.8354 29.1204 22 29.0381 22.1372 28.9146C22.2881 28.7774 22.4116 28.6471 22.5076 28.5236C22.6037 28.3864 22.6791 28.1806 22.734 27.9062C22.8026 27.6318 22.8575 27.378 22.8986 27.1448C22.9398 26.9115 22.9672 26.5685 22.981 26.1158C23.0084 25.2377 23.0221 24.3528 23.0221 23.461V21.65C23.0221 18.9609 22.9192 17.2254 22.7134 16.4433C22.5213 15.6476 21.9588 15.2497 21.0259 15.2497C20.0929 15.2497 19.5236 15.6544 19.3178 16.4639C19.112 17.2734 19.0091 18.9403 19.0091 21.4648Z" fill="#D66753"/>
<path d="M133.707 183.395L135.971 183.107L136.012 183.518L131.361 184.156L129.694 184.156L129.694 169.915L128.089 169.915L128.089 169.524L135.868 169.524L135.868 169.915L133.707 169.915L133.707 183.395ZM120.869 169.318C122.859 169.318 124.375 169.99 125.417 171.335C126.446 172.679 126.961 174.559 126.961 176.974C126.961 179.388 126.405 181.186 125.294 182.366C124.182 183.559 122.666 184.156 120.746 184.156C118.811 184.156 117.295 183.566 116.198 182.386C115.086 181.206 114.531 179.327 114.531 176.747C114.531 174.168 115.086 172.282 116.198 171.088C117.309 169.908 118.866 169.318 120.869 169.318ZM122.742 177.509L122.742 175.677C122.742 174.346 122.735 173.407 122.721 172.858C122.694 172.309 122.618 171.74 122.495 171.15C122.371 170.56 122.173 170.176 121.898 169.997C121.624 169.833 121.301 169.75 120.931 169.75C120.56 169.75 120.286 169.771 120.108 169.812C119.916 169.853 119.751 169.936 119.614 170.059C119.463 170.196 119.339 170.327 119.243 170.45C119.147 170.587 119.072 170.793 119.017 171.067C118.948 171.342 118.893 171.596 118.852 171.829C118.811 172.062 118.784 172.405 118.77 172.858C118.743 173.736 118.729 174.621 118.729 175.513L118.729 177.324C118.729 180.013 118.832 181.748 119.038 182.53C119.23 183.326 119.792 183.724 120.725 183.724C121.658 183.724 122.227 183.319 122.433 182.51C122.639 181.7 122.742 180.033 122.742 177.509Z" fill="#D66753"/>
</svg>
