<svg width="143" height="200" viewBox="0 0 143 200" fill="none" xmlns="http://www.w3.org/2000/svg">
<path d="M15.8069 199.996C7.34882 200.011 0.455989 193.258 0.438039 184.951L5.04522e-05 15.1391C-0.0214897 6.78159 6.85699 -0.00717435 15.3402 5.69015e-06L127.564 0.211837C136.008 0.233377 142.883 7.02572 142.883 15.3725V184.818C142.883 193.107 136.029 199.853 127.614 199.863L15.8069 199.996Z" fill="#C9C9C9"/>
<path d="M17.1964 199.576C8.85675 199.576 2.06445 192.802 2.06445 184.502V15.0853C2.06445 6.77804 8.85675 0.0180664 17.1964 0.0180664H127.783C136.123 0.0180664 142.908 6.77804 142.908 15.0853V184.502C142.908 192.806 136.119 199.576 127.783 199.576H17.1964Z" fill="#F1EAD8"/>
<path d="M19.6419 38.6069C19.5019 41.1091 14.4938 44.911 14.4938 44.911C14.4938 44.911 9.33496 41.0768 9.33496 38.5709C9.33496 36.8477 10.7458 35.4585 12.4619 35.4585C13.4384 35.4585 14.5082 36.3344 14.5082 36.3344C14.5082 36.3344 15.5242 35.4585 16.5258 35.4728C18.249 35.4944 19.7281 36.8801 19.6419 38.6069Z" fill="#D66753"/>
<path opacity="0.2" d="M16.5216 35.4726C15.5236 35.4582 14.504 36.3342 14.504 36.3342C14.504 36.3342 14.4896 36.3198 14.4717 36.3055V44.8964C14.4789 44.9036 14.4896 44.9107 14.4896 44.9107C14.4896 44.9107 19.4977 41.1089 19.6377 38.6066C19.7274 36.8798 18.2484 35.4941 16.5216 35.4726Z" fill="#616161"/>
<path d="M31.508 28.7203C31.885 35.8357 46.141 46.6488 46.141 46.6488C46.141 46.6488 60.817 35.7603 60.817 28.6413C60.817 23.7338 56.8033 19.7776 51.9101 19.7776C49.153 19.7776 46.0943 22.2583 46.0943 22.2583C46.0943 22.2583 43.1828 19.7776 40.3503 19.8099C35.4427 19.8781 31.2424 23.8199 31.508 28.7203Z" fill="#D66753"/>
<path opacity="0.2" d="M40.3539 19.817C43.1828 19.7811 46.0979 22.2655 46.0979 22.2655C46.0979 22.2655 46.141 22.2295 46.1948 22.1865V46.6237C46.1661 46.6453 46.141 46.6524 46.141 46.6524C46.141 46.6524 31.885 35.8393 31.508 28.7239C31.2424 23.82 35.4427 19.8781 40.3539 19.817Z" fill="#616161"/>
<path d="M57.8016 49.3481C58.1786 56.4564 72.4525 67.2623 72.4525 67.2623C72.4525 67.2623 87.1177 56.381 87.1177 49.2548C87.1177 44.3544 83.1041 40.3982 78.2109 40.3982C75.461 40.3982 72.3879 42.8789 72.3879 42.8789C72.3879 42.8789 69.4872 40.3983 66.651 40.4377C61.7578 40.4988 57.5396 44.4406 57.8016 49.3481Z" fill="#D66753"/>
<path opacity="0.2" d="M66.6546 40.4449C69.4907 40.4018 72.3915 42.8862 72.3915 42.8862C72.3915 42.8862 72.4346 42.8502 72.4956 42.8036V67.2516C72.4741 67.266 72.4525 67.2659 72.4525 67.2659C72.4525 67.2659 58.1822 56.46 57.8016 49.3518C57.5396 44.4406 61.7578 40.4987 66.6546 40.4449Z" fill="#616161"/>
<path d="M113.607 28.7203C113.23 35.8357 98.9631 46.6488 98.9631 46.6488C98.9631 46.6488 84.2979 35.7603 84.2979 28.6413C84.2979 23.7338 88.3007 19.7776 93.2047 19.7776C95.9547 19.7776 99.0169 22.2583 99.0169 22.2583C99.0169 22.2583 101.925 19.7776 104.757 19.8099C109.658 19.8781 113.869 23.8199 113.607 28.7203Z" fill="#D66753"/>
<path opacity="0.2" d="M104.759 19.817C101.922 19.7811 99.0181 22.2655 99.0181 22.2655C99.0181 22.2655 98.9715 22.2295 98.9248 22.1865V46.6237C98.9499 46.6453 98.9679 46.6524 98.9679 46.6524C98.9679 46.6524 113.235 35.8393 113.612 28.7239C113.87 23.82 109.659 19.8781 104.759 19.817Z" fill="#616161"/>
<path d="M31.508 72.6834C31.885 79.7988 46.141 90.6119 46.141 90.6119C46.141 90.6119 60.817 79.7161 60.817 72.5971C60.817 67.6968 56.8033 63.7334 51.9101 63.7334C49.153 63.7334 46.0943 66.2141 46.0943 66.2141C46.0943 66.2141 43.1828 63.7334 40.3503 63.7801C35.4427 63.8411 31.2424 67.7758 31.508 72.6834Z" fill="#D66753"/>
<path opacity="0.2" d="M40.3539 63.7871C43.1828 63.7369 46.0979 66.2212 46.0979 66.2212C46.0979 66.2212 46.141 66.1925 46.1948 66.1422V90.5794C46.1661 90.6081 46.141 90.6153 46.141 90.6153C46.141 90.6153 31.885 79.8022 31.508 72.6868C31.2424 67.7757 35.4427 63.841 40.3539 63.7871Z" fill="#616161"/>
<path d="M113.607 72.6834C113.23 79.7988 98.9631 90.6119 98.9631 90.6119C98.9631 90.6119 84.2979 79.7161 84.2979 72.5971C84.2979 67.6968 88.3007 63.7334 93.2047 63.7334C95.9547 63.7334 99.0169 66.2141 99.0169 66.2141C99.0169 66.2141 101.925 63.7334 104.757 63.7801C109.658 63.8411 113.869 67.7758 113.607 72.6834Z" fill="#D66753"/>
<path opacity="0.2" d="M104.759 63.7871C101.922 63.7369 99.0181 66.2212 99.0181 66.2212C99.0181 66.2212 98.9715 66.1925 98.9248 66.1422V90.5794C98.9499 90.6081 98.9679 90.6153 98.9679 90.6153C98.9679 90.6153 113.235 79.8022 113.612 72.6868C113.87 67.7757 109.659 63.841 104.759 63.7871Z" fill="#616161"/>
<path d="M31.508 169.571C31.885 162.466 46.141 151.657 46.141 151.657C46.141 151.657 60.817 162.545 60.817 169.671C60.817 174.572 56.8033 178.528 51.9101 178.528C49.153 178.528 46.0943 176.047 46.0943 176.047C46.0943 176.047 43.1828 178.528 40.3503 178.489C35.4427 178.42 31.2424 174.482 31.508 169.571Z" fill="#D66753"/>
<path opacity="0.2" d="M40.3539 178.485C43.1828 178.528 46.0979 176.044 46.0979 176.044C46.0979 176.044 46.141 176.073 46.1948 176.119V151.682C46.1661 151.66 46.141 151.653 46.141 151.653C46.141 151.653 31.885 162.466 31.508 169.567C31.2424 174.482 35.4427 178.42 40.3539 178.485Z" fill="#616161"/>
<path d="M57.8016 148.957C58.1786 141.842 72.4525 131.036 72.4525 131.036C72.4525 131.036 87.1177 141.924 87.1177 149.05C87.1177 153.951 83.1041 157.907 78.2109 157.907C75.461 157.907 72.3879 155.426 72.3879 155.426C72.3879 155.426 69.4872 157.907 66.651 157.875C61.7578 157.799 57.5396 153.857 57.8016 148.957Z" fill="#D66753"/>
<path opacity="0.2" d="M66.6546 157.871C69.4907 157.907 72.3915 155.423 72.3915 155.423C72.3915 155.423 72.4346 155.451 72.4956 155.502V131.064C72.4741 131.043 72.4525 131.036 72.4525 131.036C72.4525 131.036 58.1822 141.842 57.8016 148.957C57.5396 153.857 61.7578 157.799 66.6546 157.871Z" fill="#616161"/>
<path d="M113.607 169.571C113.23 162.466 98.9631 151.657 98.9631 151.657C98.9631 151.657 84.2979 162.545 84.2979 169.671C84.2979 174.572 88.3007 178.528 93.2047 178.528C95.9547 178.528 99.0169 176.047 99.0169 176.047C99.0169 176.047 101.925 178.528 104.757 178.489C109.658 178.42 113.869 174.482 113.607 169.571Z" fill="#D66753"/>
<path opacity="0.2" d="M104.759 178.485C101.922 178.528 99.0181 176.044 99.0181 176.044C99.0181 176.044 98.9715 176.073 98.9248 176.119V151.682C98.9499 151.66 98.9679 151.653 98.9679 151.653C98.9679 151.653 113.235 162.466 113.612 169.567C113.87 174.482 109.659 178.42 104.759 178.485Z" fill="#616161"/>
<path d="M31.508 125.615C31.885 118.507 46.141 107.701 46.141 107.701C46.141 107.701 60.817 118.582 60.817 125.708C60.817 130.616 56.8033 134.572 51.9101 134.572C49.153 134.572 46.0943 132.084 46.0943 132.084C46.0943 132.084 43.1828 134.572 40.3503 134.532C35.4427 134.457 31.2424 130.522 31.508 125.615Z" fill="#D66753"/>
<path opacity="0.2" d="M40.3539 134.529C43.1828 134.572 46.0979 132.08 46.0979 132.08C46.0979 132.08 46.141 132.116 46.1948 132.167V107.722C46.1661 107.708 46.141 107.701 46.141 107.701C46.141 107.701 31.885 118.507 31.508 125.615C31.2424 130.522 35.4427 134.457 40.3539 134.529Z" fill="#616161"/>
<path d="M113.607 125.615C113.23 118.507 98.9631 107.701 98.9631 107.701C98.9631 107.701 84.2979 118.582 84.2979 125.708C84.2979 130.616 88.3007 134.572 93.2047 134.572C95.9547 134.572 99.0169 132.084 99.0169 132.084C99.0169 132.084 101.925 134.572 104.757 134.532C109.658 134.457 113.869 130.522 113.607 125.615Z" fill="#D66753"/>
<path opacity="0.2" d="M104.759 134.529C101.922 134.572 99.0181 132.08 99.0181 132.08C99.0181 132.08 98.9715 132.116 98.9248 132.167V107.722C98.9499 107.708 98.9679 107.701 98.9679 107.701C98.9679 107.701 113.235 118.507 113.612 125.615C113.87 130.522 109.659 134.457 104.759 134.529Z" fill="#616161"/>
<path d="M126.717 163.148C126.85 160.596 131.969 156.711 131.969 156.711C131.969 156.711 137.232 160.61 137.232 163.184C137.232 164.936 135.793 166.347 134.037 166.347C133.054 166.347 131.952 165.464 131.952 165.464C131.952 165.464 130.91 166.347 129.898 166.34C128.135 166.311 126.62 164.897 126.717 163.148Z" fill="#D66753"/>
<path opacity="0.2" d="M129.898 166.34C130.91 166.347 131.952 165.464 131.952 165.464C131.952 165.464 131.959 165.471 131.984 165.5V156.722L131.969 156.715C131.969 156.715 126.85 160.599 126.717 163.152C126.62 164.897 128.135 166.311 129.898 166.34Z" fill="#616161"/>
<path d="M8.28629 15.3956L6.02252 15.6837L5.98136 15.2721L10.6324 14.6342H12.2993V28.8753H13.9045V29.2664H6.12541V28.8753H8.28629V15.3956ZM21.124 29.4722C19.1346 29.4722 17.6186 28.7999 16.5759 27.4553C15.5469 26.1108 15.0324 24.2312 15.0324 21.8165C15.0324 19.4018 15.5881 17.6045 16.6994 16.4246C17.8107 15.231 19.3267 14.6342 21.2475 14.6342C23.182 14.6342 24.698 15.2241 25.7956 16.404C26.9069 17.5839 27.4626 19.4635 27.4626 22.0429C27.4626 24.6222 26.9069 26.5087 25.7956 27.7023C24.6843 28.8822 23.1271 29.4722 21.124 29.4722ZM19.2513 21.2814V23.113C19.2513 24.4438 19.2581 25.3836 19.2718 25.9324C19.2993 26.4812 19.3747 27.0506 19.4982 27.6406C19.6217 28.2305 19.8206 28.6147 20.095 28.793C20.3694 28.9577 20.6918 29.04 21.0623 29.04C21.4327 29.04 21.7071 29.0194 21.8855 28.9782C22.0775 28.9371 22.2422 28.8548 22.3794 28.7313C22.5303 28.5941 22.6538 28.4637 22.7498 28.3403C22.8458 28.2031 22.9213 27.9973 22.9762 27.7229C23.0448 27.4485 23.0997 27.1947 23.1408 26.9614C23.182 26.7282 23.2094 26.3852 23.2231 25.9324C23.2506 25.0544 23.2643 24.1694 23.2643 23.2777V21.4666C23.2643 18.7776 23.1614 17.042 22.9556 16.26C22.7635 15.4642 22.201 15.0663 21.2681 15.0663C20.3351 15.0663 19.7658 15.4711 19.56 16.2806C19.3542 17.09 19.2513 18.757 19.2513 21.2814Z" fill="#D66753"/>
<path d="M133.949 184.926L136.213 184.638L136.254 185.05L131.603 185.688L129.936 185.688L129.936 171.446L128.331 171.446L128.331 171.055L136.11 171.055L136.11 171.446L133.949 171.446L133.949 184.926ZM121.111 170.85C123.101 170.85 124.617 171.522 125.659 172.866C126.688 174.211 127.203 176.091 127.203 178.505C127.203 180.92 126.647 182.717 125.536 183.897C124.425 185.091 122.909 185.688 120.988 185.688C119.053 185.688 117.537 185.098 116.44 183.918C115.328 182.738 114.773 180.858 114.773 178.279C114.773 175.7 115.328 173.813 116.44 172.619C117.551 171.44 119.108 170.85 121.111 170.85ZM122.984 179.04L122.984 177.209C122.984 175.878 122.977 174.938 122.964 174.389C122.936 173.841 122.861 173.271 122.737 172.681C122.614 172.091 122.415 171.707 122.14 171.529C121.866 171.364 121.544 171.282 121.173 171.282C120.803 171.282 120.528 171.302 120.35 171.344C120.158 171.385 119.993 171.467 119.856 171.59C119.705 171.728 119.582 171.858 119.486 171.982C119.39 172.119 119.314 172.325 119.259 172.599C119.191 172.873 119.136 173.127 119.095 173.36C119.053 173.594 119.026 173.937 119.012 174.389C118.985 175.267 118.971 176.152 118.971 177.044L118.971 178.855C118.971 181.544 119.074 183.28 119.28 184.062C119.472 184.858 120.034 185.255 120.967 185.255C121.9 185.255 122.47 184.851 122.675 184.041C122.881 183.232 122.984 181.565 122.984 179.04Z" fill="#D66753"/>
</svg>
