<svg width="223" height="324" viewBox="0 0 223 324" fill="none" xmlns="http://www.w3.org/2000/svg">
<g clip-path="url(#clip0_2009_1734)">
<path d="M222.449 314.064C222.449 319.1 218.333 323.223 213.287 323.223H9.48079C4.44759 323.223 0.333008 319.1 0.333008 314.064V9.49347C0.333008 4.45701 4.44759 0.333313 9.48079 0.333313H213.287C218.333 0.333313 222.449 4.45701 222.449 9.49347V314.064Z" fill="#F1EAD8" stroke="#2C2C2C" stroke-width="0.666667"/>
<path d="M2.35026 34.831C3.96137 34.831 4.99609 34.706 5.45443 34.456C5.92665 34.1921 6.22526 33.9213 6.35026 33.6435C6.48915 33.3657 6.55859 33.0185 6.55859 32.6018V14.6227C6.55859 13.6227 6.46832 12.9699 6.28776 12.6643C6.12109 12.3588 5.64887 12.206 4.87109 12.206H2.14193V9.91435C3.82248 9.91435 5.24609 9.47685 6.41276 8.60185C7.57943 7.72685 8.16276 6.83101 8.16276 5.91435L11.1628 5.87268L11.1419 32.6018C11.1419 33.4768 11.3294 34.0255 11.7044 34.2477C12.3294 34.6366 13.5378 34.831 15.3294 34.831V37.1227H2.35026V34.831Z" fill="#2C2C2C"/>
<path d="M38.6421 65.7946C38.1553 58.3333 23.0593 44.29 22.5725 40.7773C22.0857 44.2881 6.98974 58.3315 6.50297 65.7946C6.16303 71.0691 9.91239 73.2558 13.3218 73.2558C17.0132 73.2161 20.062 68.105 21.1122 67.1114C21.599 68.4282 17.8878 79.4002 16.7292 79.4002H28.4178C27.2592 79.4002 23.5481 68.4282 24.0348 67.1114C24.9544 68.0241 27.6497 73.1028 31.8272 73.2558C35.2347 73.254 38.982 71.0691 38.6421 65.7946Z" fill="#2C2C2C"/>
<path d="M98.8949 52.3741C98.0403 39.2742 71.5358 14.6179 70.6812 8.45062C69.8266 14.6147 43.3221 39.271 42.4675 52.3741C41.8706 61.6348 48.4535 65.474 54.4395 65.474C60.9205 65.4043 66.2733 56.4307 68.1173 54.6861C68.9719 56.998 62.4562 76.2619 60.422 76.2619H80.9439C78.9098 76.2619 72.394 56.998 73.2487 54.6861C74.8631 56.2886 79.5953 65.2054 86.93 65.474C92.9124 65.4708 99.4918 61.6348 98.8949 52.3741Z" fill="#2C2C2C"/>
<path d="M184.231 258.352C184.718 265.813 199.814 279.857 200.301 283.369C200.787 279.858 215.883 265.815 216.37 258.352C216.71 253.078 212.961 250.891 209.551 250.891C205.86 250.93 202.811 256.042 201.761 257.035C201.274 255.718 204.985 244.746 206.144 244.746H194.455C195.614 244.746 199.325 255.718 198.838 257.035C197.919 256.123 195.223 251.044 191.046 250.891C187.638 250.893 183.891 253.078 184.231 258.352Z" fill="#2C2C2C"/>
<path d="M99.3334 136.284C98.4788 123.184 71.9743 98.5279 71.1197 92.3606C70.265 98.5247 43.7606 123.181 42.906 136.284C42.3091 145.545 48.892 149.384 54.878 149.384C61.359 149.314 66.7118 140.341 68.5558 138.596C69.4104 140.908 62.8946 160.172 60.8605 160.172H81.3824C79.3482 160.172 72.8325 140.908 73.6871 138.596C75.3016 140.199 80.0338 149.115 87.3684 149.384C93.3509 149.381 99.9302 145.545 99.3334 136.284Z" fill="#2C2C2C"/>
<path d="M43.5055 273.532C44.3601 286.632 70.8645 311.289 71.7192 317.456C72.5738 311.292 99.0783 286.636 99.9329 273.532C100.53 264.272 93.9469 260.433 87.9609 260.433C81.4799 260.502 76.127 269.476 74.2831 271.221C73.4285 268.909 79.9442 249.645 81.9784 249.645H61.4564C63.4906 249.645 70.0064 268.909 69.1517 271.221C67.5373 269.618 62.805 260.701 55.4704 260.433C49.4879 260.436 42.9086 264.272 43.5055 273.532Z" fill="#2C2C2C"/>
<path d="M43.067 191.756C43.9216 204.856 70.4261 229.512 71.2807 235.679C72.1354 229.515 98.6398 204.859 99.4944 191.756C100.091 182.495 93.5084 178.656 87.5224 178.656C81.0414 178.726 75.6886 187.699 73.8446 189.444C72.99 187.132 79.5057 167.868 81.5399 167.868H61.018C63.0521 167.868 69.5679 187.132 68.7133 189.444C67.0988 187.841 62.3666 178.924 55.0319 178.656C49.0495 178.659 42.4701 182.495 43.067 191.756Z" fill="#2C2C2C"/>
<path d="M181.518 52.1235C180.663 39.0236 154.159 14.3673 153.304 8.20001C152.45 14.3641 125.945 39.0204 125.091 52.1235C124.494 61.3842 131.077 65.2234 137.063 65.2234C143.544 65.1537 148.896 56.1801 150.74 54.4354C151.595 56.7474 145.079 76.0113 143.045 76.0113H163.567C161.533 76.0113 155.017 56.7474 155.872 54.4354C157.486 56.038 162.218 64.9548 169.553 65.2234C175.535 65.2202 182.115 61.3842 181.518 52.1235Z" fill="#2C2C2C"/>
<path d="M181.956 136.033C181.102 122.934 154.597 98.2773 153.743 92.11C152.888 98.2741 126.384 122.93 125.529 136.033C124.932 145.294 131.515 149.133 137.501 149.133C143.982 149.064 149.335 140.09 151.179 138.345C152.033 140.657 145.518 159.921 143.484 159.921H164.005C161.971 159.921 155.456 140.657 156.31 138.345C157.925 139.948 162.657 148.865 169.991 149.133C175.974 149.13 182.553 145.294 181.956 136.033Z" fill="#2C2C2C"/>
<path d="M126.129 273.282C126.983 286.382 153.488 311.038 154.342 317.205C155.197 311.041 181.701 286.385 182.556 273.282C183.153 264.021 176.57 260.182 170.584 260.182C164.103 260.252 158.75 269.225 156.906 270.97C156.052 268.658 162.567 249.394 164.601 249.394H144.079C146.114 249.394 152.629 268.658 151.775 270.97C150.16 269.367 145.428 260.45 138.093 260.182C132.111 260.185 125.532 264.021 126.129 273.282Z" fill="#2C2C2C"/>
<path d="M125.69 191.505C126.545 204.605 153.049 229.261 153.904 235.429C154.758 229.265 181.263 204.608 182.117 191.505C182.714 182.245 176.131 178.405 170.145 178.405C163.664 178.475 158.312 187.449 156.468 189.193C155.613 186.881 162.129 167.617 164.163 167.617H143.641C145.675 167.617 152.191 186.881 151.336 189.193C149.722 187.591 144.99 178.674 137.655 178.405C131.673 178.409 125.093 182.245 125.69 191.505Z" fill="#2C2C2C"/>
<path d="M140.416 95.581C139.562 82.4812 113.057 57.8248 112.203 51.6575C111.348 57.8216 84.8436 82.4779 83.989 95.581C83.3921 104.842 89.975 108.681 95.961 108.681C102.442 108.611 107.795 99.6376 109.639 97.893C110.493 100.205 103.978 119.469 101.943 119.469H122.465C120.431 119.469 113.915 100.205 114.77 97.893C116.385 99.4955 121.117 108.412 128.451 108.681C134.434 108.678 141.013 104.842 140.416 95.581Z" fill="#2C2C2C"/>
<path d="M84.4273 230.701C85.282 243.801 111.786 268.457 112.641 274.624C113.496 268.46 140 243.804 140.855 230.701C141.452 221.44 134.869 217.601 128.883 217.601C122.402 217.671 117.049 226.644 115.205 228.389C114.35 226.077 120.866 206.813 122.9 206.813H102.378C104.413 206.813 110.928 226.077 110.074 228.389C108.459 226.786 103.727 217.87 96.3923 217.601C90.4098 217.604 83.8305 221.44 84.4273 230.701Z" fill="#2C2C2C"/>
<path d="M31.4629 37.9776C27.9212 37.9776 25.0046 36.554 22.7129 33.7068C20.4212 30.8457 19.2754 26.8526 19.2754 21.7276C19.2754 16.6026 20.5046 12.6026 22.9629 9.72761C25.1573 7.17205 27.9907 5.89428 31.4629 5.89428C34.9351 5.89428 37.7684 7.17205 39.9629 9.72761C42.4212 12.6026 43.6504 16.6026 43.6504 21.7276C43.6504 26.8526 42.5046 30.8457 40.2129 33.7068C37.9212 36.554 35.0046 37.9776 31.4629 37.9776ZM31.4629 35.4776C33.2268 35.4776 34.699 34.5957 35.8796 32.8318C37.3657 30.5957 38.1087 27.054 38.1087 22.2068C38.1087 17.3457 37.4907 13.8318 36.2546 11.6651C35.0184 9.48455 33.4212 8.39428 31.4629 8.39428C28.3934 8.39428 26.3587 10.7832 25.3587 15.5609C24.9976 17.2554 24.8171 19.179 24.8171 21.3318C24.8171 23.4707 24.9143 25.2484 25.1087 26.6651C25.3032 28.0679 25.5671 29.2832 25.9004 30.3109C26.4837 32.1721 27.2754 33.4984 28.2754 34.2901C29.2893 35.0818 30.3518 35.4776 31.4629 35.4776Z" fill="#2C2C2C"/>
<path d="M220.158 289.068C218.546 289.068 217.512 289.193 217.053 289.443C216.581 289.707 216.283 289.978 216.158 290.256C216.019 290.534 215.949 290.881 215.949 291.298V309.277C215.949 310.277 216.039 310.93 216.22 311.235C216.387 311.541 216.859 311.693 217.637 311.693H220.366V313.985C218.685 313.985 217.262 314.423 216.095 315.298C214.928 316.173 214.345 317.068 214.345 317.985L211.345 318.027L211.366 291.298C211.366 290.423 211.178 289.874 210.803 289.652C210.178 289.263 208.97 289.068 207.178 289.068V286.777H220.158V289.068Z" fill="#2C2C2C"/>
<path d="M191.045 285.922C194.587 285.922 197.503 287.345 199.795 290.193C202.087 293.054 203.232 297.047 203.232 302.172C203.232 307.297 202.003 311.297 199.545 314.172C197.35 316.727 194.517 318.005 191.045 318.005C187.573 318.005 184.739 316.727 182.545 314.172C180.087 311.297 178.857 307.297 178.857 302.172C178.857 297.047 180.003 293.054 182.295 290.193C184.587 287.345 187.503 285.922 191.045 285.922ZM191.045 288.422C189.281 288.422 187.809 289.304 186.628 291.068C185.142 293.304 184.399 296.845 184.399 301.693C184.399 306.554 185.017 310.068 186.253 312.234C187.489 314.415 189.087 315.505 191.045 315.505C194.114 315.505 196.149 313.116 197.149 308.339C197.51 306.644 197.691 304.72 197.691 302.568C197.691 300.429 197.594 298.651 197.399 297.234C197.205 295.832 196.941 294.616 196.607 293.589C196.024 291.727 195.232 290.401 194.232 289.609C193.219 288.818 192.156 288.422 191.045 288.422Z" fill="#2C2C2C"/>
</g>
<defs>
<clipPath id="clip0_2009_1734">
<rect width="222.783" height="323.556" fill="white"/>
</clipPath>
</defs>
</svg>
