<svg width="143" height="200" viewBox="0 0 143 200" fill="none" xmlns="http://www.w3.org/2000/svg">
<path d="M15.7968 199.993C7.34556 200.004 0.456025 193.258 0.423714 184.957L3.50533e-05 15.1325C-0.0179157 6.77104 6.86084 -0.0179152 15.3408 3.55159e-05L127.569 0.201083C136.009 0.222624 142.884 7.02595 142.884 15.3623V184.821C142.884 193.107 136.038 199.853 127.612 199.867L15.7968 199.993Z" fill="#C9C9C9"/>
<path d="M17.1975 199.569C8.8504 199.569 2.07227 192.812 2.07227 184.498V15.0749C2.07227 6.76732 8.8504 0.00708008 17.1975 0.00708008H127.785C136.125 0.00708008 142.91 6.76732 142.91 15.0749V184.498C142.91 192.812 136.125 199.569 127.785 199.569H17.1975Z" fill="#F1EAD8"/>
<path opacity="0.2" d="M18.0311 40.5219C18.0311 39.5598 13.8594 35.4526 13.8594 35.4526L13.8486 35.4634V45.3255L15.7981 45.3327L14.2435 42.6581C14.6169 42.8843 15.0584 43.0171 15.5252 43.0243C16.911 43.0171 18.0311 41.9006 18.0311 40.5219Z" fill="#616161"/>
<path d="M18.9918 38.5942C18.8661 41.1001 13.8472 44.8985 13.8472 44.8985C13.8472 44.8985 8.69531 41.0678 8.69531 38.5618C8.69531 36.8386 10.0954 35.4492 11.8295 35.4492C12.7773 35.4492 13.8615 36.3216 13.8615 36.3216C13.8615 36.3216 14.8847 35.4492 15.8827 35.4671C17.6132 35.4851 19.0887 36.8709 18.9918 38.5942Z" fill="#D66753"/>
<path opacity="0.2" d="M15.885 35.467C14.8905 35.4526 13.8637 36.3215 13.8637 36.3215C13.8637 36.3215 13.8565 36.3107 13.8242 36.2999V44.8875C13.8458 44.8947 13.8458 44.9019 13.8458 44.9019C13.8458 44.9019 18.8612 41.0999 18.9904 38.5976C19.0874 36.8708 17.6118 35.4849 15.885 35.467Z" fill="#616161"/>
<path d="M126.813 164.842C126.942 162.296 132.062 158.415 132.062 158.415C132.062 158.415 137.321 162.318 137.321 164.885C137.321 166.637 135.881 168.058 134.126 168.058C133.142 168.058 132.036 167.168 132.036 167.168C132.036 167.168 131.002 168.058 129.979 168.04C128.22 168.012 126.719 166.608 126.813 164.842Z" fill="#D66753"/>
<path opacity="0.2" d="M129.979 168.04C131.002 168.058 132.036 167.168 132.036 167.168C132.036 167.168 132.054 167.175 132.076 167.193V158.419L132.062 158.415C132.062 158.415 126.942 162.296 126.813 164.842C126.719 166.608 128.22 168.012 129.979 168.04Z" fill="#616161"/>
<path d="M30.3947 28.7139C30.7717 35.8296 45.0282 46.6395 45.0282 46.6395C45.0282 46.6395 59.7011 35.7506 59.7011 28.6242C59.7011 23.72 55.691 19.7637 50.8012 19.7637C48.0547 19.7637 44.9887 22.2481 44.9887 22.2481C44.9887 22.2481 42.0699 19.7637 39.2373 19.8068C34.3439 19.875 30.1291 23.8133 30.3947 28.7139Z" fill="#D66753"/>
<path opacity="0.2" d="M39.234 19.8104C42.0666 19.7673 44.9853 22.2517 44.9853 22.2517C44.9853 22.2517 45.0248 22.2193 45.0787 22.1727V46.6108C45.0571 46.6359 45.0249 46.6431 45.0249 46.6431C45.0249 46.6431 30.7685 35.8332 30.3915 28.7175C30.1294 23.8134 34.3442 19.875 39.234 19.8104Z" fill="#616161"/>
<path d="M112.498 28.7139C112.121 35.8296 97.8497 46.6395 97.8497 46.6395C97.8497 46.6395 83.1768 35.7506 83.1768 28.6242C83.1768 23.72 87.1834 19.7637 92.0911 19.7637C94.8447 19.7637 97.9036 22.2481 97.9036 22.2481C97.9036 22.2481 100.808 19.7637 103.648 19.8068C108.545 19.875 112.763 23.8133 112.498 28.7139Z" fill="#D66753"/>
<path opacity="0.2" d="M103.644 19.8104C100.804 19.7673 97.9 22.2517 97.9 22.2517C97.9 22.2517 97.8605 22.2193 97.8066 22.1727V46.6108C97.8318 46.6359 97.8497 46.6431 97.8497 46.6431C97.8497 46.6431 112.121 35.8332 112.498 28.7175C112.763 23.8134 108.545 19.875 103.644 19.8104Z" fill="#616161"/>
<path d="M30.3947 169.573C30.7717 162.461 45.0282 151.651 45.0282 151.651C45.0282 151.651 59.7011 162.54 59.7011 169.667C59.7011 174.567 55.691 178.524 50.8012 178.524C48.0547 178.524 44.9887 176.039 44.9887 176.039C44.9887 176.039 42.0699 178.524 39.2373 178.477C34.3439 178.42 30.1291 174.478 30.3947 169.573Z" fill="#D66753"/>
<path opacity="0.2" d="M39.234 178.481C42.0666 178.527 44.9853 176.043 44.9853 176.043C44.9853 176.043 45.0248 176.072 45.0787 176.122V151.684C45.0571 151.662 45.0249 151.651 45.0249 151.651C45.0249 151.651 30.7685 162.461 30.3915 169.573C30.1294 174.478 34.3442 178.42 39.234 178.481Z" fill="#616161"/>
<path d="M112.498 169.573C112.121 162.461 97.8497 151.651 97.8497 151.651C97.8497 151.651 83.1768 162.54 83.1768 169.667C83.1768 174.567 87.1834 178.524 92.0911 178.524C94.8447 178.524 97.9036 176.039 97.9036 176.039C97.9036 176.039 100.808 178.524 103.648 178.477C108.545 178.42 112.763 174.478 112.498 169.573Z" fill="#D66753"/>
<path opacity="0.2" d="M103.644 178.481C100.804 178.527 97.9 176.043 97.9 176.043C97.9 176.043 97.8605 176.072 97.8066 176.122V151.684C97.8318 151.662 97.8497 151.651 97.8497 151.651C97.8497 151.651 112.121 162.461 112.498 169.573C112.763 174.478 108.545 178.42 103.644 178.481Z" fill="#616161"/>
<path d="M30.3947 103.633C30.7717 96.5214 45.0282 85.7043 45.0282 85.7043C45.0282 85.7043 59.7011 96.604 59.7011 103.73C59.7011 108.624 55.691 112.584 50.8012 112.584C48.0547 112.584 44.9887 110.103 44.9887 110.103C44.9887 110.103 42.0699 112.584 39.2373 112.544C34.3439 112.48 30.1291 108.538 30.3947 103.633Z" fill="#D66753"/>
<path opacity="0.2" d="M39.234 112.541C42.0666 112.58 44.9853 110.099 44.9853 110.099C44.9853 110.099 45.0248 110.132 45.0787 110.175V85.7367C45.0571 85.7187 45.0249 85.7043 45.0249 85.7043C45.0249 85.7043 30.7685 96.5214 30.3915 103.633C30.1294 108.538 34.3442 112.48 39.234 112.541Z" fill="#616161"/>
<path d="M112.498 103.633C112.121 96.5214 97.8497 85.7043 97.8497 85.7043C97.8497 85.7043 83.1768 96.604 83.1768 103.73C83.1768 108.624 87.1834 112.584 92.0911 112.584C94.8447 112.584 97.9036 110.103 97.9036 110.103C97.9036 110.103 100.808 112.584 103.648 112.544C108.545 112.48 112.763 108.538 112.498 103.633Z" fill="#D66753"/>
<path opacity="0.2" d="M103.644 112.541C100.804 112.58 97.9 110.099 97.9 110.099C97.9 110.099 97.8605 110.132 97.8066 110.175V85.7367C97.8318 85.7187 97.8497 85.7043 97.8497 85.7043C97.8497 85.7043 112.121 96.5214 112.498 103.633C112.763 108.538 108.545 112.48 103.644 112.541Z" fill="#616161"/>
<path d="M7.93203 25.2428C7.93203 22.5947 8.522 20.5504 9.70194 19.1098C10.8956 17.6692 12.5283 16.9488 14.6001 16.9488C16.0133 16.9488 17.0972 17.237 17.8518 17.8132C18.6064 18.3757 18.9837 19.1166 18.9837 20.0359C18.9837 20.5573 18.8122 21.01 18.4692 21.3942C18.1399 21.7647 17.7009 21.9499 17.1521 21.9499C16.6033 21.9499 16.1642 21.8058 15.8349 21.5177C15.5056 21.2158 15.341 20.866 15.341 20.4681C15.341 20.0565 15.3959 19.6998 15.5056 19.3979H16.1642C16.2465 19.1784 16.2877 18.9314 16.2877 18.657C16.2877 17.7926 15.8006 17.3604 14.8265 17.3604C13.8523 17.3604 13.1389 17.8681 12.6861 18.8834C12.2333 19.885 12.0001 21.6206 11.9864 24.0903C12.6998 22.9789 13.7357 22.4232 15.094 22.4232C16.4523 22.4232 17.5225 22.7937 18.3046 23.5346C19.0866 24.2618 19.4777 25.3594 19.4777 26.8275C19.4777 28.2955 18.9632 29.4892 17.9341 30.4085C16.9051 31.3277 15.5262 31.7873 13.7975 31.7873C9.88717 31.7873 7.93203 29.6058 7.93203 25.2428ZM14.0444 23.1024C13.5779 23.1024 13.18 23.2808 12.8508 23.6375C12.5352 23.9805 12.3157 24.3921 12.1922 24.8723C12.0824 25.3388 12.0275 25.9562 12.0275 26.7246C12.0275 27.4792 12.0275 28.0074 12.0275 28.3092C12.0413 28.5974 12.0618 28.9472 12.0893 29.3589C12.1304 29.7567 12.1853 30.0517 12.2539 30.2438C12.3225 30.4222 12.4186 30.6143 12.542 30.8201C12.7616 31.1768 13.1114 31.3552 13.5917 31.3552C14.0719 31.3552 14.4286 31.266 14.6618 31.0876C14.9088 30.8955 15.0872 30.58 15.1969 30.1409C15.3616 29.4961 15.4439 28.6934 15.4439 27.733C15.4439 26.7726 15.437 26.1346 15.4233 25.819C15.4233 25.5034 15.4096 25.1742 15.3822 24.8312C15.3547 24.4744 15.3067 24.2069 15.2381 24.0285C15.1832 23.8501 15.1077 23.6786 15.0117 23.514C14.8333 23.2396 14.5109 23.1024 14.0444 23.1024Z" fill="#D66753"/>
<path d="M137.129 178.573C137.129 181.221 136.54 183.265 135.36 184.706C134.166 186.147 132.533 186.867 130.461 186.867C129.048 186.867 127.964 186.579 127.21 186.002C126.455 185.44 126.078 184.699 126.078 183.78C126.078 183.258 126.249 182.806 126.592 182.421C126.922 182.051 127.361 181.866 127.909 181.866C128.458 181.866 128.897 182.01 129.227 182.298C129.556 182.6 129.721 182.95 129.721 183.348C129.721 183.759 129.666 184.116 129.556 184.418L128.897 184.418C128.815 184.637 128.774 184.884 128.774 185.159C128.774 186.023 129.261 186.455 130.235 186.455C131.209 186.455 131.923 185.948 132.375 184.932C132.828 183.931 133.061 182.195 133.075 179.725C132.362 180.837 131.326 181.392 129.967 181.392C128.609 181.392 127.539 181.022 126.757 180.281C125.975 179.554 125.584 178.456 125.584 176.988C125.584 175.52 126.098 174.326 127.127 173.407C128.156 172.488 129.535 172.028 131.264 172.028C135.174 172.028 137.13 174.21 137.129 178.573ZM131.017 180.713C131.484 180.713 131.881 180.535 132.211 180.178C132.526 179.835 132.746 179.424 132.869 178.943C132.979 178.477 133.034 177.859 133.034 177.091C133.034 176.337 133.034 175.808 133.034 175.506C133.02 175.218 133 174.868 132.972 174.457C132.931 174.059 132.876 173.764 132.808 173.572C132.739 173.393 132.643 173.201 132.519 172.996C132.3 172.639 131.95 172.461 131.47 172.461C130.99 172.461 130.633 172.55 130.4 172.728C130.153 172.92 129.974 173.236 129.865 173.675C129.7 174.32 129.618 175.122 129.618 176.083C129.618 177.043 129.624 177.681 129.638 177.997C129.638 178.312 129.652 178.642 129.679 178.985C129.707 179.341 129.755 179.609 129.823 179.787C129.878 179.966 129.954 180.137 130.05 180.302C130.228 180.576 130.551 180.713 131.017 180.713Z" fill="#D66753"/>
</svg>
