<svg width="223" height="324" viewBox="0 0 223 324" fill="none" xmlns="http://www.w3.org/2000/svg">
<g clip-path="url(#clip0_2009_1147)">
<path d="M222.449 314.064C222.449 319.1 218.333 323.223 213.287 323.223H9.48079C4.44759 323.223 0.333008 319.1 0.333008 314.064V9.49348C0.333008 4.45703 4.44759 0.333328 9.48079 0.333328H213.287C218.333 0.333328 222.449 4.45703 222.449 9.49348V314.064Z" fill="#F1EAD8" stroke="#2C2C2C" stroke-width="0.666667"/>
<path d="M19.3538 20.8927C21.0761 18.476 23.5622 17.2677 26.8122 17.2677C27.8538 17.2677 28.9372 17.4969 30.0622 17.9552C31.2011 18.4135 32.2011 19.0524 33.0622 19.8719C34.9094 21.6496 35.833 23.9274 35.833 26.7052C35.833 29.483 34.9025 31.9135 33.0413 33.9969C31.1941 36.0663 28.7705 37.101 25.7705 37.101C21.8122 37.101 18.833 35.5316 16.833 32.3927C15.1386 29.7399 14.2913 26.4066 14.2913 22.3927C14.2913 16.9344 15.4441 12.6774 17.7497 9.62187C20.0552 6.55243 22.9511 5.0177 26.4372 5.0177C28.9094 5.0177 30.9163 5.62882 32.458 6.85104C33.9997 8.05937 34.7705 9.46215 34.7705 11.0594C34.7705 12.6427 34.1733 13.7121 32.9788 14.2677C32.6038 14.4483 32.208 14.5385 31.7913 14.5385C30.958 14.5385 30.2705 14.2608 29.7288 13.7052C29.2011 13.1496 28.9372 12.483 28.9372 11.7052C28.9372 10.5246 29.465 9.67743 30.5205 9.16354C29.9372 8.14965 28.7844 7.6427 27.0622 7.6427C24.8677 7.6427 23.0136 8.60104 21.4997 10.5177C19.9997 12.4344 19.2497 14.983 19.2497 18.1635C19.2497 18.8024 19.2844 19.7121 19.3538 20.8927ZM20.0413 26.7885C20.0413 27.8302 20.2358 28.9135 20.6247 30.0385C21.0136 31.1635 21.4372 32.0316 21.8955 32.6427C22.84 33.8788 24.0066 34.4969 25.3955 34.4969C26.8538 34.4969 28.1108 33.8163 29.1663 32.4552C30.2219 31.0802 30.7497 29.2816 30.7497 27.0594C30.7497 24.8371 30.2636 23.101 29.2913 21.851C28.3191 20.5871 27.0413 19.9552 25.458 19.9552C23.8886 19.9552 22.59 20.5802 21.5622 21.8302C20.5483 23.0663 20.0413 24.7191 20.0413 26.7885Z" fill="#2C2C2C"/>
<path d="M38.6421 65.7946C38.1553 58.3334 23.0593 44.29 22.5725 40.7773C22.0857 44.2882 6.98974 58.3315 6.50297 65.7946C6.16303 71.0691 9.91239 73.2558 13.3218 73.2558C17.0132 73.2161 20.062 68.1051 21.1122 67.1114C21.599 68.4282 17.8878 79.4003 16.7292 79.4003H28.4178C27.2592 79.4003 23.5481 68.4282 24.0348 67.1114C24.9544 68.0241 27.6497 73.1029 31.8272 73.2558C35.2347 73.254 38.982 71.0691 38.6421 65.7946Z" fill="#2C2C2C"/>
<path d="M103.162 75.8408C102.307 62.7409 75.8024 38.0846 74.9478 31.9173C74.0932 38.0813 47.5887 62.7377 46.7341 75.8408C46.1372 85.1014 52.7201 88.9406 58.7061 88.9406C65.1871 88.871 70.5399 79.8973 72.3839 78.1527C73.2385 80.4646 66.7228 99.7286 64.6886 99.7286H85.2106C83.1764 99.7286 76.6606 80.4646 77.5153 78.1527C79.1297 79.7552 83.8619 88.6721 91.1966 88.9406C97.1791 88.9374 103.758 85.1014 103.162 75.8408Z" fill="#2C2C2C"/>
<path d="M204.012 303.29C202.29 305.707 199.804 306.915 196.554 306.915C195.512 306.915 194.429 306.686 193.304 306.228C192.165 305.77 191.165 305.131 190.304 304.311C188.457 302.533 187.533 300.256 187.533 297.478C187.533 294.7 188.464 292.27 190.325 290.186C192.172 288.117 194.596 287.082 197.596 287.082C201.554 287.082 204.533 288.651 206.533 291.79C208.228 294.443 209.075 297.776 209.075 301.79C209.075 307.249 207.922 311.506 205.617 314.561C203.311 317.631 200.415 319.165 196.929 319.165C194.457 319.165 192.45 318.554 190.908 317.332C189.367 316.124 188.596 314.721 188.596 313.124C188.596 311.54 189.193 310.471 190.387 309.915C190.762 309.735 191.158 309.645 191.575 309.645C192.408 309.645 193.096 309.922 193.637 310.478C194.165 311.033 194.429 311.7 194.429 312.478C194.429 313.658 193.901 314.506 192.846 315.02C193.429 316.033 194.582 316.54 196.304 316.54C198.498 316.54 200.353 315.582 201.867 313.665C203.367 311.749 204.117 309.2 204.117 306.02C204.117 305.381 204.082 304.471 204.012 303.29ZM203.325 297.395C203.325 296.353 203.13 295.27 202.742 294.145C202.353 293.02 201.929 292.151 201.471 291.54C200.526 290.304 199.36 289.686 197.971 289.686C196.512 289.686 195.255 290.367 194.2 291.728C193.144 293.103 192.617 294.901 192.617 297.124C192.617 299.346 193.103 301.082 194.075 302.332C195.047 303.596 196.325 304.228 197.908 304.228C199.478 304.228 200.776 303.603 201.804 302.353C202.818 301.117 203.325 299.464 203.325 297.395Z" fill="#2C2C2C"/>
<path d="M184.231 258.352C184.718 265.813 199.814 279.857 200.301 283.369C200.787 279.858 215.883 265.815 216.37 258.352C216.71 253.078 212.961 250.891 209.551 250.891C205.86 250.93 202.811 256.042 201.761 257.035C201.274 255.718 204.985 244.746 206.144 244.746H194.455C195.614 244.746 199.325 255.718 198.838 257.035C197.919 256.123 195.223 251.044 191.046 250.891C187.638 250.893 183.891 253.078 184.231 258.352Z" fill="#2C2C2C"/>
<path d="M46.7945 248.342C47.6492 261.442 74.1536 286.099 75.0082 292.266C75.8629 286.102 102.367 261.445 103.222 248.342C103.819 239.082 97.236 235.242 91.2499 235.242C84.7689 235.312 79.4161 244.286 77.5722 246.03C76.7175 243.718 83.2333 224.454 85.2675 224.454H64.7455C66.7797 224.454 73.2954 243.718 72.4408 246.03C70.8263 244.428 66.0941 235.511 58.7595 235.242C52.777 235.246 46.1977 239.082 46.7945 248.342Z" fill="#2C2C2C"/>
<path d="M103.273 168.776C102.418 155.676 75.9138 131.02 75.0591 124.852C74.2045 131.016 47.7 155.673 46.8454 168.776C46.2486 178.037 52.8314 181.876 58.8174 181.876C65.2985 181.806 70.6513 172.832 72.4952 171.088C73.3499 173.4 66.8341 192.664 64.7999 192.664H85.3219C83.2877 192.664 76.7719 173.4 77.6266 171.088C79.241 172.69 83.9733 181.607 91.3079 181.876C97.2904 181.873 103.87 178.037 103.273 168.776Z" fill="#2C2C2C"/>
<path d="M176.078 75.5753C175.223 62.4754 148.718 37.8191 147.864 31.6518C147.009 37.8159 120.505 62.4722 119.65 75.5753C119.053 84.836 125.636 88.6752 131.622 88.6752C138.103 88.6055 143.456 79.6319 145.3 77.8873C146.155 80.1992 139.639 99.4631 137.605 99.4631H158.127C156.092 99.4631 149.577 80.1992 150.431 77.8873C152.046 79.4898 156.778 88.4067 164.113 88.6752C170.095 88.672 176.674 84.836 176.078 75.5753Z" fill="#2C2C2C"/>
<path d="M119.711 248.077C120.565 261.177 147.07 285.833 147.924 292C148.779 285.836 175.283 261.18 176.138 248.077C176.735 238.816 170.152 234.977 164.166 234.977C157.685 235.047 152.332 244.02 150.488 245.765C149.634 243.453 156.149 224.189 158.183 224.189H137.662C139.696 224.189 146.211 243.453 145.357 245.765C143.742 244.162 139.01 235.246 131.676 234.977C125.693 234.98 119.114 238.816 119.711 248.077Z" fill="#2C2C2C"/>
<path d="M176.189 168.51C175.334 155.411 148.83 130.754 147.975 124.587C147.121 130.751 120.616 155.407 119.761 168.51C119.165 177.771 125.747 181.61 131.733 181.61C138.214 181.541 143.567 172.567 145.411 170.822C146.266 173.134 139.75 192.398 137.716 192.398H158.238C156.204 192.398 149.688 173.134 150.543 170.822C152.157 172.425 156.889 181.342 164.224 181.61C170.206 181.607 176.786 177.771 176.189 168.51Z" fill="#2C2C2C"/>
</g>
<defs>
<clipPath id="clip0_2009_1147">
<rect width="222.783" height="323.556" fill="white"/>
</clipPath>
</defs>
</svg>
