<svg width="223" height="324" viewBox="0 0 223 324" fill="none" xmlns="http://www.w3.org/2000/svg">
<g clip-path="url(#clip0_2009_1118)">
<path d="M222.449 314.064C222.449 319.1 218.333 323.223 213.287 323.223H9.48079C4.44759 323.223 0.333008 319.1 0.333008 314.064V9.49348C0.333008 4.45703 4.44759 0.333328 9.48079 0.333328H213.287C218.333 0.333328 222.449 4.45703 222.449 9.49348V314.064Z" fill="#F1EAD8" stroke="#2C2C2C" stroke-width="0.666667"/>
<path d="M19.6585 20.8927C21.3808 18.476 23.8669 17.2677 27.1169 17.2677C28.1585 17.2677 29.2419 17.4969 30.3669 17.9552C31.5058 18.4135 32.5058 19.0524 33.3669 19.8719C35.2141 21.6496 36.1377 23.9274 36.1377 26.7052C36.1377 29.483 35.2071 31.9135 33.346 33.9969C31.4988 36.0663 29.0752 37.101 26.0752 37.101C22.1169 37.101 19.1377 35.5316 17.1377 32.3927C15.4433 29.7399 14.596 26.4066 14.596 22.3927C14.596 16.9344 15.7488 12.6774 18.0544 9.62187C20.3599 6.55243 23.2558 5.0177 26.7419 5.0177C29.2141 5.0177 31.221 5.62882 32.7627 6.85104C34.3044 8.05937 35.0752 9.46215 35.0752 11.0594C35.0752 12.6427 34.478 13.7121 33.2835 14.2677C32.9085 14.4483 32.5127 14.5385 32.096 14.5385C31.2627 14.5385 30.5752 14.2608 30.0335 13.7052C29.5058 13.1496 29.2419 12.483 29.2419 11.7052C29.2419 10.5246 29.7696 9.67743 30.8252 9.16354C30.2419 8.14965 29.0891 7.6427 27.3669 7.6427C25.1724 7.6427 23.3183 8.60104 21.8044 10.5177C20.3044 12.4344 19.5544 14.983 19.5544 18.1635C19.5544 18.8024 19.5891 19.7121 19.6585 20.8927ZM20.346 26.7885C20.346 27.8302 20.5405 28.9135 20.9294 30.0385C21.3183 31.1635 21.7419 32.0316 22.2002 32.6427C23.1446 33.8788 24.3113 34.4969 25.7002 34.4969C27.1585 34.4969 28.4155 33.8163 29.471 32.4552C30.5266 31.0802 31.0544 29.2816 31.0544 27.0594C31.0544 24.8371 30.5683 23.101 29.596 21.851C28.6238 20.5871 27.346 19.9552 25.7627 19.9552C24.1933 19.9552 22.8946 20.5802 21.8669 21.8302C20.853 23.0663 20.346 24.7191 20.346 26.7885Z" fill="#D66753"/>
<path d="M31.1096 43.0432C23.8699 43.0432 22.9032 50.3078 22.9032 50.3078C22.9032 50.3078 21.9366 43.0432 14.6969 43.0432C9.62931 43.0432 5.04395 46.3004 5.04395 52.4451C5.04395 60.5642 19.7313 68.7289 22.9032 80.651C25.9215 68.7389 40.7625 60.5642 40.7625 52.4451C40.7625 46.3004 36.1771 43.0432 31.1096 43.0432Z" fill="#D66753"/>
<path d="M203.799 301.145C202.076 303.562 199.59 304.77 196.34 304.77C195.299 304.77 194.215 304.541 193.09 304.083C191.951 303.624 190.951 302.985 190.09 302.166C188.243 300.388 187.319 298.11 187.319 295.333C187.319 292.555 188.25 290.124 190.111 288.041C191.958 285.972 194.382 284.937 197.382 284.937C201.34 284.937 204.319 286.506 206.319 289.645C208.014 292.298 208.861 295.631 208.861 299.645C208.861 305.104 207.708 309.36 205.403 312.416C203.097 315.485 200.201 317.02 196.715 317.02C194.243 317.02 192.236 316.409 190.694 315.187C189.153 313.979 188.382 312.576 188.382 310.979C188.382 309.395 188.979 308.326 190.174 307.77C190.549 307.59 190.944 307.499 191.361 307.499C192.194 307.499 192.882 307.777 193.424 308.333C193.951 308.888 194.215 309.555 194.215 310.333C194.215 311.513 193.687 312.36 192.632 312.874C193.215 313.888 194.368 314.395 196.09 314.395C198.285 314.395 200.139 313.437 201.653 311.52C203.153 309.604 203.903 307.055 203.903 303.874C203.903 303.235 203.868 302.326 203.799 301.145ZM203.111 295.249C203.111 294.208 202.917 293.124 202.528 291.999C202.139 290.874 201.715 290.006 201.257 289.395C200.312 288.159 199.146 287.541 197.757 287.541C196.299 287.541 195.042 288.222 193.986 289.583C192.93 290.958 192.403 292.756 192.403 294.979C192.403 297.201 192.889 298.937 193.861 300.187C194.833 301.451 196.111 302.083 197.694 302.083C199.264 302.083 200.562 301.458 201.59 300.208C202.604 298.972 203.111 297.319 203.111 295.249Z" fill="#D66753"/>
<path d="M192.002 278.995C199.241 278.995 200.208 271.73 200.208 271.73C200.208 271.73 201.175 278.995 208.414 278.995C213.482 278.995 218.067 275.737 218.067 269.593C218.067 261.474 203.38 253.309 200.208 241.387C197.19 253.299 182.349 261.474 182.349 269.593C182.349 275.737 186.934 278.995 192.002 278.995Z" fill="#D66753"/>
<path d="M90.5702 32.261C78.5538 32.261 76.9494 44.3188 76.9494 44.3188C76.9494 44.3188 75.345 32.261 63.3285 32.261C54.9174 32.261 47.3066 37.6674 47.3066 47.8664C47.3066 61.3424 71.6847 74.8941 76.9494 94.6823C81.9591 74.9107 106.592 61.3424 106.592 47.8664C106.592 37.6674 98.9814 32.261 90.5702 32.261Z" fill="#D66753"/>
<path d="M63.3292 287.219C75.3456 287.219 76.95 275.161 76.95 275.161C76.95 275.161 78.5544 287.219 90.5709 287.219C98.982 287.219 106.593 281.812 106.593 271.614C106.593 258.137 82.2148 244.586 76.95 224.798C71.9404 244.569 47.3073 258.137 47.3073 271.614C47.3073 281.812 54.918 287.219 63.3292 287.219Z" fill="#D66753"/>
<path d="M90.5702 127.329C78.5538 127.329 76.9494 139.386 76.9494 139.386C76.9494 139.386 75.345 127.329 63.3285 127.329C54.9174 127.329 47.3066 132.735 47.3066 142.934C47.3066 156.41 71.6847 169.962 76.9494 189.75C81.9591 169.978 106.592 156.41 106.592 142.934C106.592 132.735 98.9814 127.329 90.5702 127.329Z" fill="#D66753"/>
<path d="M159.021 31.8197C147.005 31.8197 145.401 43.8774 145.401 43.8774C145.401 43.8774 143.796 31.8197 131.78 31.8197C123.369 31.8197 115.758 37.2261 115.758 47.425C115.758 60.9011 140.136 74.4528 145.401 94.241C150.41 74.4694 175.043 60.9011 175.043 47.425C175.043 37.2261 167.433 31.8197 159.021 31.8197Z" fill="#D66753"/>
<path d="M131.779 286.778C143.796 286.778 145.4 274.72 145.4 274.72C145.4 274.72 147.005 286.778 159.021 286.778C167.432 286.778 175.043 281.371 175.043 271.172C175.043 257.696 150.665 244.144 145.4 224.356C140.391 244.128 115.757 257.696 115.757 271.172C115.757 281.371 123.368 286.778 131.779 286.778Z" fill="#D66753"/>
<path d="M159.021 126.887C147.005 126.887 145.401 138.945 145.401 138.945C145.401 138.945 143.796 126.887 131.78 126.887C123.369 126.887 115.758 132.294 115.758 142.493C115.758 155.969 140.136 169.521 145.401 189.309C150.41 169.537 175.043 155.969 175.043 142.493C175.043 132.294 167.433 126.887 159.021 126.887Z" fill="#D66753"/>
</g>
<defs>
<clipPath id="clip0_2009_1118">
<rect width="222.783" height="323.556" fill="white"/>
</clipPath>
</defs>
</svg>
