<svg width="223" height="324" viewBox="0 0 223 324" fill="none" xmlns="http://www.w3.org/2000/svg">
<g clip-path="url(#clip0_2009_1240)">
<path d="M222.449 314.064C222.449 319.1 218.333 323.223 213.287 323.223H9.48079C4.44759 323.223 0.333008 319.1 0.333008 314.064V9.49348C0.333008 4.45703 4.44759 0.333328 9.48079 0.333328H213.287C218.333 0.333328 222.449 4.45703 222.449 9.49348V314.064Z" fill="#F1EAD8" stroke="#2C2C2C" stroke-width="0.666667"/>
<path d="M18.4193 18.7594C20.1415 16.3427 22.6276 15.1344 25.8776 15.1344C26.9193 15.1344 28.0026 15.3635 29.1276 15.8219C30.2665 16.2802 31.2665 16.9191 32.1276 17.7385C33.9748 19.5163 34.8984 21.7941 34.8984 24.5719C34.8984 27.3497 33.9679 29.7802 32.1068 31.8635C30.2595 33.933 27.8359 34.9677 24.8359 34.9677C20.8776 34.9677 17.8984 33.3983 15.8984 30.2594C14.204 27.6066 13.3568 24.2733 13.3568 20.2594C13.3568 14.801 14.5095 10.5441 16.8151 7.48854C19.1207 4.4191 22.0165 2.88437 25.5026 2.88437C27.9748 2.88437 29.9818 3.49548 31.5234 4.71771C33.0651 5.92604 33.8359 7.32882 33.8359 8.92604C33.8359 10.5094 33.2387 11.5788 32.0443 12.1344C31.6693 12.3149 31.2734 12.4052 30.8568 12.4052C30.0234 12.4052 29.3359 12.1274 28.7943 11.5719C28.2665 11.0163 28.0026 10.3497 28.0026 9.57187C28.0026 8.39132 28.5304 7.5441 29.5859 7.03021C29.0026 6.01632 27.8498 5.50937 26.1276 5.50937C23.9332 5.50937 22.079 6.46771 20.5651 8.38437C19.0651 10.301 18.3151 12.8497 18.3151 16.0302C18.3151 16.6691 18.3498 17.5788 18.4193 18.7594ZM19.1068 24.6552C19.1068 25.6969 19.3012 26.7802 19.6901 27.9052C20.079 29.0302 20.5026 29.8983 20.9609 30.5094C21.9054 31.7455 23.072 32.3635 24.4609 32.3635C25.9193 32.3635 27.1762 31.683 28.2318 30.3219C29.2873 28.9469 29.8151 27.1483 29.8151 24.926C29.8151 22.7038 29.329 20.9677 28.3568 19.7177C27.3845 18.4538 26.1068 17.8219 24.5234 17.8219C22.954 17.8219 21.6554 18.4469 20.6276 19.6969C19.6137 20.933 19.1068 22.5858 19.1068 24.6552Z" fill="#D66753"/>
<path d="M204.692 305.412C202.97 307.829 200.484 309.037 197.234 309.037C196.192 309.037 195.109 308.808 193.984 308.349C192.845 307.891 191.845 307.252 190.984 306.433C189.137 304.655 188.213 302.377 188.213 299.599C188.213 296.822 189.143 294.391 191.005 292.308C192.852 290.238 195.275 289.204 198.275 289.204C202.234 289.204 205.213 290.773 207.213 293.912C208.907 296.565 209.755 299.898 209.755 303.912C209.755 309.37 208.602 313.627 206.296 316.683C203.991 319.752 201.095 321.287 197.609 321.287C195.137 321.287 193.13 320.676 191.588 319.454C190.046 318.245 189.275 316.842 189.275 315.245C189.275 313.662 189.873 312.592 191.067 312.037C191.442 311.856 191.838 311.766 192.255 311.766C193.088 311.766 193.775 312.044 194.317 312.599C194.845 313.155 195.109 313.822 195.109 314.599C195.109 315.78 194.581 316.627 193.525 317.141C194.109 318.155 195.262 318.662 196.984 318.662C199.178 318.662 201.032 317.704 202.546 315.787C204.046 313.87 204.796 311.322 204.796 308.141C204.796 307.502 204.762 306.592 204.692 305.412ZM204.005 299.516C204.005 298.474 203.81 297.391 203.421 296.266C203.032 295.141 202.609 294.273 202.15 293.662C201.206 292.426 200.039 291.808 198.65 291.808C197.192 291.808 195.935 292.488 194.88 293.849C193.824 295.224 193.296 297.023 193.296 299.245C193.296 301.467 193.782 303.204 194.755 304.454C195.727 305.717 197.005 306.349 198.588 306.349C200.157 306.349 201.456 305.724 202.484 304.474C203.498 303.238 204.005 301.586 204.005 299.516Z" fill="#D66753"/>
<path d="M29.0106 49.6764C24.8418 44.0366 22.6238 38.3049 22.6238 38.3049C22.6238 38.3049 20.4058 44.0366 16.237 49.6764C12.0662 55.3142 6.87012 58.9815 6.87012 58.9815C6.87012 58.9815 12.0662 62.6469 16.237 68.2887C20.4058 73.9265 22.6238 79.6582 22.6238 79.6582C22.6238 79.6582 24.8418 73.9265 29.0106 68.2887C33.1814 62.6469 38.3775 58.9815 38.3775 58.9815C38.3775 58.9815 33.1814 55.3142 29.0106 49.6764Z" fill="#D66753"/>
<path d="M207.215 255.366C203.046 249.726 200.828 243.995 200.828 243.995C200.828 243.995 198.61 249.726 194.441 255.366C190.27 261.004 185.074 264.671 185.074 264.671C185.074 264.671 190.27 268.337 194.441 273.978C198.61 279.616 200.828 285.348 200.828 285.348C200.828 285.348 203.046 279.616 207.215 273.978C211.385 268.337 216.582 264.671 216.582 264.671C216.582 264.671 211.385 261.004 207.215 255.366Z" fill="#D66753"/>
<path d="M158.031 239.722C150.725 229.838 146.838 219.793 146.838 219.793C146.838 219.793 142.951 229.838 135.645 239.722C128.336 249.602 119.229 256.029 119.229 256.029C119.229 256.029 128.336 262.453 135.645 272.34C142.951 282.22 146.838 292.265 146.838 292.265C146.838 292.265 150.725 282.22 158.031 272.34C165.34 262.453 174.446 256.029 174.446 256.029C174.446 256.029 165.34 249.602 158.031 239.722Z" fill="#D66753"/>
<path d="M158.031 51.452C150.725 41.5682 146.838 31.5233 146.838 31.5233C146.838 31.5233 142.951 41.5682 135.645 51.452C128.336 61.3324 119.229 67.7594 119.229 67.7594C119.229 67.7594 128.336 74.1829 135.645 84.0702C142.951 93.9506 146.838 103.995 146.838 103.995C146.838 103.995 150.725 93.9506 158.031 84.0702C165.34 74.1829 174.446 67.7594 174.446 67.7594C174.446 67.7594 165.34 61.3324 158.031 51.452Z" fill="#D66753"/>
<path d="M158.031 144.386C150.725 134.503 146.838 124.458 146.838 124.458C146.838 124.458 142.951 134.503 135.645 144.386C128.336 154.267 119.229 160.694 119.229 160.694C119.229 160.694 128.336 167.117 135.645 177.005C142.951 186.885 146.838 196.93 146.838 196.93C146.838 196.93 150.725 186.885 158.031 177.005C165.34 167.117 174.446 160.694 174.446 160.694C174.446 160.694 165.34 154.267 158.031 144.386Z" fill="#D66753"/>
<path d="M85.8775 239.879C78.5716 229.996 74.6846 219.951 74.6846 219.951C74.6846 219.951 70.7976 229.996 63.4917 239.879C56.1824 249.76 47.0762 256.187 47.0762 256.187C47.0762 256.187 56.1824 262.61 63.4917 272.498C70.7976 282.378 74.6846 292.423 74.6846 292.423C74.6846 292.423 78.5716 282.378 85.8775 272.498C93.1868 262.61 102.293 256.187 102.293 256.187C102.293 256.187 93.1868 249.76 85.8775 239.879Z" fill="#D66753"/>
<path d="M85.8775 51.6095C78.5716 41.7257 74.6846 31.6808 74.6846 31.6808C74.6846 31.6808 70.7976 41.7257 63.4917 51.6095C56.1824 61.4899 47.0762 67.9169 47.0762 67.9169C47.0762 67.9169 56.1824 74.3404 63.4917 84.2277C70.7976 94.1081 74.6846 104.153 74.6846 104.153C74.6846 104.153 78.5716 94.1081 85.8775 84.2277C93.1868 74.3404 102.293 67.9169 102.293 67.9169C102.293 67.9169 93.1868 61.4899 85.8775 51.6095Z" fill="#D66753"/>
<path d="M85.8775 144.544C78.5716 134.66 74.6846 124.615 74.6846 124.615C74.6846 124.615 70.7976 134.66 63.4917 144.544C56.1824 154.424 47.0762 160.851 47.0762 160.851C47.0762 160.851 56.1824 167.275 63.4917 177.162C70.7976 187.042 74.6846 197.087 74.6846 197.087C74.6846 197.087 78.5716 187.042 85.8775 177.162C93.1868 167.275 102.293 160.851 102.293 160.851C102.293 160.851 93.1868 154.424 85.8775 144.544Z" fill="#D66753"/>
</g>
<defs>
<clipPath id="clip0_2009_1240">
<rect width="222.783" height="323.556" fill="white"/>
</clipPath>
</defs>
</svg>
