<svg width="223" height="324" viewBox="0 0 223 324" fill="none" xmlns="http://www.w3.org/2000/svg">
<g clip-path="url(#clip0_2009_1176)">
<path d="M222.449 314.064C222.449 319.1 218.333 323.223 213.287 323.223H9.48079C4.44759 323.223 0.333008 319.1 0.333008 314.064V9.49348C0.333008 4.45703 4.44759 0.333328 9.48079 0.333328H213.287C218.333 0.333328 222.449 4.45703 222.449 9.49348V314.064Z" fill="#F1EAD8" stroke="#2C2C2C" stroke-width="0.666667"/>
<path d="M20.3311 35.6895C20.0811 35.384 19.8727 34.9743 19.7061 34.4604C19.5533 33.9465 19.4769 33.1895 19.4769 32.1895C19.4769 31.1757 19.6227 30.0159 19.9144 28.7104C20.2061 27.4048 20.6019 26.0854 21.1019 24.752C21.6019 23.4048 22.1852 22.0576 22.8519 20.7104C23.5186 19.3632 24.2199 18.0298 24.9561 16.7104C25.6922 15.377 26.4422 14.0645 27.2061 12.7729C27.9838 11.4673 28.7269 10.2034 29.4352 8.98121H21.0602C18.5463 8.98121 16.9769 9.68954 16.3519 11.1062C16.1436 11.5784 15.9838 12.134 15.8727 12.7729L15.6644 14.0854L13.0186 14.127L14.4561 4.81454H32.5186L33.6852 7.50204C29.6574 13.2382 27.0324 18.9118 25.8102 24.5229C25.3241 26.759 24.9769 28.8145 24.7686 30.6895C24.5741 32.5507 24.3866 33.8145 24.2061 34.4812C24.0255 35.134 23.7686 35.634 23.4352 35.9812C23.1019 36.3145 22.7061 36.4812 22.2477 36.4812C21.8033 36.4812 21.4352 36.4187 21.1436 36.2937C20.8519 36.1826 20.5811 35.9812 20.3311 35.6895Z" fill="#2C2C2C"/>
<path d="M27.5881 58.3196C27.5881 58.3196 32.2927 54.556 32.2927 49.3383C32.2927 46.2839 29.5809 41.2128 23.3114 41.2128C17.042 41.2128 14.3302 46.2858 14.3302 49.3383C14.3302 54.556 19.0347 58.3196 19.0347 58.3196C13.8092 54.2489 4.49316 57.0281 4.49316 65.1635C4.49316 69.2362 7.82102 73.7169 13.0466 73.7169C19.316 73.7169 22.0278 66.873 22.0278 66.873C22.0278 66.873 22.8241 74.6736 18.179 78.8493H28.4438C23.7987 74.6756 24.595 66.873 24.595 66.873C24.595 66.873 27.3068 73.7169 33.5763 73.7169C38.8038 73.7169 42.1296 69.2342 42.1296 65.1635C42.1296 57.0281 32.8136 54.2489 27.5881 58.3196Z" fill="#2C2C2C"/>
<path d="M202.568 286.997C202.818 287.303 203.027 287.712 203.193 288.226C203.346 288.74 203.423 289.497 203.423 290.497C203.423 291.511 203.277 292.671 202.985 293.976C202.693 295.282 202.298 296.601 201.798 297.935C201.298 299.282 200.714 300.629 200.048 301.976C199.381 303.324 198.679 304.657 197.943 305.976C197.207 307.31 196.457 308.622 195.693 309.914C194.916 311.219 194.173 312.483 193.464 313.705H201.839C204.353 313.705 205.923 312.997 206.548 311.58C206.756 311.108 206.916 310.553 207.027 309.914L207.235 308.601L209.881 308.56L208.443 317.872H190.381L189.214 315.185C193.242 309.449 195.867 303.775 197.089 298.164C197.575 295.928 197.923 293.872 198.131 291.997C198.325 290.136 198.513 288.872 198.693 288.205C198.874 287.553 199.131 287.053 199.464 286.705C199.798 286.372 200.193 286.205 200.652 286.205C201.096 286.205 201.464 286.268 201.756 286.393C202.048 286.504 202.318 286.705 202.568 286.997Z" fill="#2C2C2C"/>
<path d="M195.311 264.987C195.311 264.987 190.607 268.751 190.607 273.968C190.607 277.023 193.319 282.094 199.588 282.094C205.857 282.094 208.569 277.021 208.569 273.968C208.569 268.751 203.865 264.987 203.865 264.987C209.09 269.058 218.406 266.278 218.406 258.143C218.406 254.07 215.078 249.59 209.853 249.59C203.583 249.59 200.872 256.434 200.872 256.434C200.872 256.434 200.075 248.633 204.72 244.457H194.456C199.101 248.631 198.304 256.434 198.304 256.434C198.304 256.434 195.593 249.59 189.323 249.59C184.096 249.59 180.77 254.072 180.77 258.143C180.77 266.278 190.086 269.058 195.311 264.987Z" fill="#2C2C2C"/>
<path d="M83.1634 39.8666C83.1634 39.8666 91.1199 33.5014 91.1199 24.6772C91.1199 19.5114 86.5336 10.9351 75.9305 10.9351C65.3274 10.9351 60.7411 19.5147 60.7411 24.6772C60.7411 33.5014 68.6976 39.8666 68.6976 39.8666C59.86 32.9821 44.1045 37.6823 44.1045 51.4412C44.1045 58.329 49.7327 65.9069 58.5702 65.9069C69.1733 65.9069 73.7596 54.3323 73.7596 54.3323C73.7596 54.3323 75.1064 67.525 67.2504 74.5871H84.6106C76.7546 67.5284 78.1013 54.3323 78.1013 54.3323C78.1013 54.3323 82.6876 65.9069 93.2907 65.9069C102.132 65.9069 107.756 58.3257 107.756 51.4412C107.756 37.6823 92.0009 32.9821 83.1634 39.8666Z" fill="#2C2C2C"/>
<path d="M68.7575 282.992C68.7575 282.992 60.801 289.357 60.801 298.181C60.801 303.347 65.3873 311.924 75.9904 311.924C86.5935 311.924 91.1798 303.344 91.1798 298.181C91.1798 289.357 83.2233 282.992 83.2233 282.992C92.0609 289.877 107.816 285.176 107.816 271.418C107.816 264.53 102.188 256.952 93.3507 256.952C82.7476 256.952 78.1613 268.526 78.1613 268.526C78.1613 268.526 76.8145 255.334 84.6705 248.272H67.3103C75.1663 255.33 73.8196 268.526 73.8196 268.526C73.8196 268.526 69.2333 256.952 58.6302 256.952C49.7893 256.952 44.1644 264.533 44.1644 271.418C44.1644 285.176 59.92 289.877 68.7575 282.992Z" fill="#2C2C2C"/>
<path d="M83.1634 160.534C83.1634 160.534 91.1199 154.169 91.1199 145.345C91.1199 140.179 86.5336 131.603 75.9305 131.603C65.3274 131.603 60.7411 140.182 60.7411 145.345C60.7411 154.169 68.6976 160.534 68.6976 160.534C59.86 153.65 44.1045 158.35 44.1045 172.109C44.1045 178.997 49.7327 186.575 58.5702 186.575C69.1733 186.575 73.7596 175 73.7596 175C73.7596 175 75.1064 188.193 67.2504 195.255H84.6106C76.7546 188.196 78.1013 175 78.1013 175C78.1013 175 82.6876 186.575 93.2907 186.575C102.132 186.575 107.756 178.993 107.756 172.109C107.756 158.35 92.0009 153.65 83.1634 160.534Z" fill="#2C2C2C"/>
<path d="M153.544 39.635C153.544 39.635 161.501 33.2698 161.501 24.4456C161.501 19.2797 156.914 10.7035 146.311 10.7035C135.708 10.7035 131.122 19.2831 131.122 24.4456C131.122 33.2698 139.078 39.635 139.078 39.635C130.241 32.7505 114.485 37.4507 114.485 51.2096C114.485 58.0974 120.114 65.6753 128.951 65.6753C139.554 65.6753 144.14 54.1007 144.14 54.1007C144.14 54.1007 145.487 67.2934 137.631 74.3554H154.991C147.135 67.2968 148.482 54.1007 148.482 54.1007C148.482 54.1007 153.068 65.6753 163.672 65.6753C172.512 65.6753 178.137 58.094 178.137 51.2096C178.137 37.4507 162.382 32.7505 153.544 39.635Z" fill="#2C2C2C"/>
<path d="M139.137 282.76C139.137 282.76 131.181 289.126 131.181 297.95C131.181 303.116 135.767 311.692 146.37 311.692C156.973 311.692 161.56 303.112 161.56 297.95C161.56 289.126 153.603 282.76 153.603 282.76C162.441 289.645 178.196 284.945 178.196 271.186C178.196 264.298 172.568 256.72 163.731 256.72C153.127 256.72 148.541 268.295 148.541 268.295C148.541 268.295 147.194 255.102 155.05 248.04H137.69C145.546 255.099 144.199 268.295 144.199 268.295C144.199 268.295 139.613 256.72 129.01 256.72C120.169 256.72 114.544 264.301 114.544 271.186C114.544 284.945 130.3 289.645 139.137 282.76Z" fill="#2C2C2C"/>
<path d="M153.544 160.303C153.544 160.303 161.501 153.937 161.501 145.113C161.501 139.947 156.914 131.371 146.311 131.371C135.708 131.371 131.122 139.951 131.122 145.113C131.122 153.937 139.078 160.303 139.078 160.303C130.241 153.418 114.485 158.118 114.485 171.877C114.485 178.765 120.114 186.343 128.951 186.343C139.554 186.343 144.14 174.768 144.14 174.768C144.14 174.768 145.487 187.961 137.631 195.023H154.991C147.135 187.964 148.482 174.768 148.482 174.768C148.482 174.768 153.068 186.343 163.672 186.343C172.512 186.343 178.137 178.762 178.137 171.877C178.137 158.118 162.382 153.418 153.544 160.303Z" fill="#2C2C2C"/>
<path d="M117.741 100.871C117.741 100.871 125.697 94.506 125.697 85.6819C125.697 80.516 121.111 71.9397 110.508 71.9397C99.9045 71.9397 95.3183 80.5193 95.3183 85.6819C95.3183 94.506 103.275 100.871 103.275 100.871C94.4372 93.9868 78.6816 98.687 78.6816 112.446C78.6816 119.334 84.3098 126.912 93.1474 126.912C103.75 126.912 108.337 115.337 108.337 115.337C108.337 115.337 109.684 128.53 101.828 135.592H119.188C111.332 128.533 112.678 115.337 112.678 115.337C112.678 115.337 117.265 126.912 127.868 126.912C136.709 126.912 142.334 119.33 142.334 112.446C142.334 98.687 126.578 93.9868 117.741 100.871Z" fill="#2C2C2C"/>
</g>
<defs>
<clipPath id="clip0_2009_1176">
<rect width="222.783" height="323.556" fill="white"/>
</clipPath>
</defs>
</svg>
