<svg width="143" height="201" viewBox="0 0 143 201" fill="none" xmlns="http://www.w3.org/2000/svg">
<path d="M15.7964 200.068C7.34893 200.082 0.452409 193.34 0.434458 185.029L5.04267e-05 15.2035C-0.0214901 6.83862 6.86074 0.0569515 15.3405 0.0713118L127.57 0.275944C136.018 0.293894 142.889 7.10069 142.889 15.4297V184.896C142.889 193.178 136.046 199.928 127.62 199.935L15.7964 200.068Z" fill="#C9C9C9"/>
<path d="M17.1934 199.644C8.85725 199.644 2.06836 192.884 2.06836 184.573V15.1495C2.06836 6.83483 8.85725 0.074707 17.1934 0.074707H127.79C136.126 0.074707 142.911 6.83483 142.911 15.1495V184.573C142.911 192.884 136.126 199.644 127.79 199.644H17.1934Z" fill="#F1EAD8"/>
<path d="M114.609 33.768C114.627 30.1708 98.9491 14.7693 98.9491 14.7693C98.9491 14.7693 83.6768 30.6518 83.6768 33.7142C83.666 38.8839 87.8485 43.0843 93.0254 43.0915C94.7881 43.0951 96.4467 42.6104 97.8577 41.7595L91.9843 51.7651L106.237 51.7938L100.403 41.7703C101.803 42.6104 103.455 43.113 105.225 43.1238C110.387 43.1309 114.609 38.9485 114.609 33.768Z" fill="#2C2C2C"/>
<path opacity="0.2" d="M114.609 33.768C114.627 30.1708 98.949 14.7693 98.949 14.7693C98.949 14.7693 98.9346 14.7801 98.9238 14.798V51.7831L106.233 51.7974L100.399 41.7739C101.8 42.614 103.451 43.1166 105.221 43.1274C110.387 43.1309 114.609 38.9485 114.609 33.768Z" fill="#616161"/>
<path d="M114.609 102.055C114.627 98.4506 98.9491 83.0527 98.9491 83.0527C98.9491 83.0527 83.6768 98.9353 83.6768 102.001C83.666 107.175 87.8485 111.375 93.0254 111.382C94.7881 111.386 96.4467 110.905 97.8577 110.047L91.9843 120.052L106.237 120.081L100.403 110.057C101.803 110.905 103.455 111.404 105.225 111.414C110.387 111.422 114.609 107.236 114.609 102.055Z" fill="#2C2C2C"/>
<path opacity="0.2" d="M114.609 102.055C114.627 98.4506 98.949 83.0527 98.949 83.0527C98.949 83.0527 98.9346 83.0671 98.9238 83.0815V120.066L106.233 120.081L100.399 110.057C101.8 110.905 103.451 111.404 105.221 111.414C110.387 111.422 114.609 107.236 114.609 102.055Z" fill="#616161"/>
<path d="M30.4356 33.768C30.4176 30.1708 46.0955 14.7693 46.0955 14.7693C46.0955 14.7693 61.3677 30.6518 61.3713 33.7142C61.3821 38.8839 57.1996 43.0843 52.0227 43.0915C50.2528 43.0951 48.605 42.6104 47.1941 41.7595L53.0639 51.7651L38.8149 51.7938L44.6451 41.7703C43.245 42.6104 41.5971 43.113 39.8272 43.1238C34.6611 43.1309 30.4356 38.9485 30.4356 33.768Z" fill="#2C2C2C"/>
<path opacity="0.2" d="M30.4356 33.768C30.4176 30.1708 46.0955 14.7693 46.0955 14.7693C46.0955 14.7693 46.1098 14.7801 46.1242 14.798V51.7831L38.8149 51.7974L44.6451 41.7739C43.245 42.614 41.5971 43.1166 39.8272 43.1274C34.6611 43.1309 30.4356 38.9485 30.4356 33.768Z" fill="#616161"/>
<path d="M56.0742 68.5126C56.0563 64.9154 71.7378 49.5139 71.7378 49.5139C71.7378 49.5139 87.01 65.3929 87.01 68.4516C87.0208 73.6285 82.8347 77.8325 77.665 77.8361C75.8987 77.8397 74.2437 77.3586 72.8292 76.5006L78.7098 86.5061L64.4535 86.5349L70.2838 76.5114C68.8873 77.3586 67.2358 77.8612 65.4659 77.8684C60.2962 77.8792 56.0742 73.6967 56.0742 68.5126Z" fill="#2C2C2C"/>
<path opacity="0.2" d="M56.0742 68.5126C56.0563 64.9154 71.7378 49.5139 71.7378 49.5139C71.7378 49.5139 71.7522 49.5283 71.7594 49.5391V86.5205L64.4535 86.5313L70.2838 76.5078C68.8873 77.355 67.2358 77.8576 65.4659 77.8648C60.2962 77.8792 56.0742 73.6967 56.0742 68.5126Z" fill="#616161"/>
<path d="M30.4356 98.7268C30.4176 95.1295 46.0955 79.728 46.0955 79.728C46.0955 79.728 61.3677 95.6106 61.3713 98.6729C61.3821 103.839 57.1996 108.043 52.0227 108.05C50.2528 108.057 48.605 107.576 47.1941 106.718L53.0639 116.724L38.8149 116.753L44.6451 106.725C43.245 107.576 41.5971 108.079 39.8272 108.086C34.6611 108.097 30.4356 103.904 30.4356 98.7268Z" fill="#2C2C2C"/>
<path opacity="0.2" d="M30.4356 98.7268C30.4176 95.1295 46.0955 79.728 46.0955 79.728C46.0955 79.728 46.1098 79.7388 46.1242 79.7603V116.745L38.8149 116.753L44.6451 106.725C43.245 107.576 41.5971 108.079 39.8272 108.086C34.6611 108.097 30.4356 103.904 30.4356 98.7268Z" fill="#616161"/>
<path d="M114.542 166.719C114.556 170.32 98.882 185.718 98.882 185.718C98.882 185.718 83.6133 169.843 83.6025 166.777C83.599 161.6 87.7814 157.396 92.9547 157.392C94.7211 157.385 96.3761 157.87 97.787 158.728L91.9136 148.722L106.159 148.693L100.329 158.717C101.729 157.87 103.377 157.367 105.154 157.356C110.32 157.349 114.542 161.532 114.542 166.719Z" fill="#2C2C2C"/>
<path opacity="0.2" d="M114.542 166.719C114.557 170.32 98.8825 185.718 98.8825 185.718C98.8825 185.718 98.8718 185.703 98.8574 185.689V148.708L106.16 148.697L100.329 158.72C101.729 157.873 103.377 157.37 105.154 157.36C110.321 157.349 114.542 161.531 114.542 166.719Z" fill="#616161"/>
<path d="M30.3613 166.719C30.3506 170.32 46.0249 185.718 46.0249 185.718C46.0249 185.718 61.297 169.843 61.3042 166.777C61.3042 161.6 57.129 157.396 51.9521 157.392C50.1822 157.385 48.5236 157.87 47.1198 158.728L52.9932 148.722L38.737 148.693L44.5673 158.717C43.1743 157.87 41.5229 157.367 39.7494 157.356C34.5832 157.349 30.3613 161.532 30.3613 166.719Z" fill="#2C2C2C"/>
<path opacity="0.2" d="M30.3613 166.719C30.3506 170.32 46.0249 185.718 46.0249 185.718C46.0249 185.718 46.0356 185.703 46.0464 185.689V148.708L38.7405 148.697L44.5709 158.72C43.178 157.873 41.5265 157.37 39.753 157.36C34.5833 157.349 30.3613 161.531 30.3613 166.719Z" fill="#616161"/>
<path d="M18.4457 40.6031C18.4457 39.6409 14.2669 35.5303 14.2669 35.5303C14.2669 35.5303 10.1957 39.7666 10.1885 40.5815C10.1885 41.9637 11.3086 43.0838 12.6872 43.0838C13.1575 43.0838 13.5955 42.9581 13.9725 42.732L12.4001 45.3994L16.2091 45.403L14.651 42.732C15.0244 42.9581 15.4588 43.091 15.9291 43.0946C17.3221 43.0946 18.4457 41.9781 18.4457 40.6031Z" fill="#2C2C2C"/>
<path opacity="0.2" d="M18.4449 40.6031C18.4449 39.6409 14.266 35.5303 14.266 35.5303L14.2588 35.5374V45.3994L16.2118 45.403L14.6538 42.732C15.0271 42.9581 15.4615 43.091 15.9318 43.0946C17.3211 43.0946 18.4449 41.9781 18.4449 40.6031Z" fill="#616161"/>
<path d="M128.293 163.065C128.293 164.031 132.475 168.134 132.475 168.134C132.475 168.134 136.547 163.901 136.547 163.086C136.547 161.704 135.427 160.588 134.055 160.58C133.581 160.58 133.14 160.71 132.773 160.939L134.335 158.268L130.537 158.261L132.091 160.936C131.714 160.71 131.276 160.577 130.806 160.577C129.417 160.57 128.293 161.683 128.293 163.065Z" fill="#2C2C2C"/>
<path opacity="0.2" d="M128.293 163.065C128.293 164.031 132.475 168.134 132.475 168.134V168.127V158.261H130.533L132.088 160.936C131.711 160.71 131.273 160.577 130.802 160.577C129.417 160.57 128.293 161.683 128.293 163.065Z" fill="#616161"/>
<path d="M14.667 32.0666C13.9261 32.0666 13.343 31.8677 12.9177 31.4698C12.4924 31.0582 12.2797 30.5574 12.2797 29.9675C12.2797 29.3638 12.4786 28.7052 12.8765 27.9918C13.2881 27.2646 14.1731 26.1121 15.5313 24.5343L18.9271 20.6035H13.6586C12.6844 20.6035 12.0396 20.727 11.724 20.974C11.4222 21.2072 11.1821 21.7766 11.0037 22.6821H10.6744L10.9008 17.4548H20.1207V19.6774L17.8363 23.67C16.821 25.4673 16.1693 26.757 15.8812 27.539C15.6068 28.3073 15.4696 29.0414 15.4696 29.7411C15.4696 30.4408 15.6754 31.0857 16.087 31.6756L15.9429 31.9226C15.5588 32.0186 15.1335 32.0666 14.667 32.0666Z" fill="#2C2C2C"/>
<path d="M131.396 171.733C132.136 171.733 132.72 171.932 133.145 172.329C133.57 172.741 133.783 173.242 133.783 173.832C133.783 174.436 133.584 175.094 133.186 175.808C132.774 176.535 131.889 177.687 130.531 179.265L127.135 183.196L132.404 183.196C133.378 183.196 134.023 183.072 134.338 182.825C134.64 182.592 134.88 182.023 135.059 181.117L135.388 181.117L135.162 186.345L125.942 186.345L125.942 184.122L128.226 180.129C129.241 178.332 129.893 177.042 130.181 176.26C130.456 175.492 130.593 174.758 130.593 174.058C130.593 173.359 130.387 172.714 129.975 172.124L130.12 171.877C130.504 171.781 130.929 171.733 131.396 171.733Z" fill="#2C2C2C"/>
</svg>
