<svg width="223" height="324" viewBox="0 0 223 324" fill="none" xmlns="http://www.w3.org/2000/svg">
<g clip-path="url(#clip0_2009_1331)">
<path d="M222.449 314.064C222.449 319.1 218.333 323.223 213.287 323.223H9.48079C4.44759 323.223 0.333008 319.1 0.333008 314.064V9.49348C0.333008 4.45703 4.44759 0.333328 9.48079 0.333328H213.287C218.333 0.333328 222.449 4.45703 222.449 9.49348V314.064Z" fill="#F1EAD8" stroke="#2C2C2C" stroke-width="0.666667"/>
<path d="M20.9502 36.3094C20.7002 36.0038 20.4919 35.5941 20.3252 35.0802C20.1724 34.5663 20.096 33.8094 20.096 32.8094C20.096 31.7955 20.2419 30.6358 20.5335 29.3302C20.8252 28.0246 21.221 26.7052 21.721 25.3719C22.221 24.0246 22.8044 22.6774 23.471 21.3302C24.1377 19.983 24.8391 18.6496 25.5752 17.3302C26.3113 15.9969 27.0613 14.6844 27.8252 13.3927C28.603 12.0871 29.346 10.8233 30.0544 9.60104H21.6794C19.1655 9.60104 17.596 10.3094 16.971 11.726C16.7627 12.1983 16.603 12.7538 16.4919 13.3927L16.2835 14.7052L13.6377 14.7469L15.0752 5.43437H33.1377L34.3044 8.12187C30.2766 13.858 27.6516 19.5316 26.4294 25.1427C25.9433 27.3788 25.596 29.4344 25.3877 31.3094C25.1933 33.1705 25.0058 34.4344 24.8252 35.101C24.6446 35.7538 24.3877 36.2538 24.0544 36.601C23.721 36.9344 23.3252 37.101 22.8669 37.101C22.4224 37.101 22.0544 37.0385 21.7627 36.9135C21.471 36.8024 21.2002 36.601 20.9502 36.3094Z" fill="#D66753"/>
<path d="M31.1096 43.0432C23.8699 43.0432 22.9032 50.3078 22.9032 50.3078C22.9032 50.3078 21.9366 43.0432 14.6969 43.0432C9.62931 43.0432 5.04395 46.3004 5.04395 52.4451C5.04395 60.5642 19.7313 68.7289 22.9032 80.651C25.9215 68.7389 40.7625 60.5642 40.7625 52.4451C40.7625 46.3004 36.1771 43.0432 31.1096 43.0432Z" fill="#D66753"/>
<path d="M202.507 285.729C202.757 286.034 202.965 286.444 203.132 286.958C203.285 287.472 203.361 288.229 203.361 289.229C203.361 290.242 203.215 291.402 202.924 292.708C202.632 294.013 202.236 295.333 201.736 296.666C201.236 298.013 200.653 299.36 199.986 300.708C199.319 302.055 198.618 303.388 197.882 304.708C197.146 306.041 196.396 307.354 195.632 308.645C194.854 309.951 194.111 311.215 193.403 312.437H201.778C204.292 312.437 205.861 311.729 206.486 310.312C206.694 309.84 206.854 309.284 206.965 308.645L207.174 307.333L209.819 307.291L208.382 316.604H190.319L189.153 313.916C193.18 308.18 195.805 302.506 197.028 296.895C197.514 294.659 197.861 292.604 198.069 290.729C198.264 288.867 198.451 287.604 198.632 286.937C198.812 286.284 199.069 285.784 199.403 285.437C199.736 285.104 200.132 284.937 200.59 284.937C201.035 284.937 201.403 284.999 201.694 285.124C201.986 285.235 202.257 285.437 202.507 285.729Z" fill="#D66753"/>
<path d="M192.002 278.995C199.241 278.995 200.208 271.73 200.208 271.73C200.208 271.73 201.175 278.995 208.414 278.995C213.482 278.995 218.067 275.737 218.067 269.593C218.067 261.474 203.38 253.309 200.208 241.387C197.19 253.299 182.349 261.474 182.349 269.593C182.349 275.737 186.934 278.995 192.002 278.995Z" fill="#D66753"/>
<path d="M86.3036 10.9277C74.2872 10.9277 72.6828 22.9854 72.6828 22.9854C72.6828 22.9854 71.0784 10.9277 59.0619 10.9277C50.6508 10.9277 43.04 16.3341 43.04 26.533C43.04 40.0091 67.4181 53.5608 72.6828 73.349C77.6925 53.5774 102.326 40.0091 102.326 26.533C102.326 16.3341 94.7148 10.9277 86.3036 10.9277Z" fill="#D66753"/>
<path d="M59.0626 308.552C71.079 308.552 72.6834 296.495 72.6834 296.495C72.6834 296.495 74.2878 308.552 86.3043 308.552C94.7154 308.552 102.326 303.146 102.326 292.947C102.326 279.471 77.9482 265.919 72.6834 246.131C67.6738 265.903 43.0407 279.471 43.0407 292.947C43.0407 303.146 50.6514 308.552 59.0626 308.552Z" fill="#D66753"/>
<path d="M86.3036 135.862C74.2872 135.862 72.6828 147.92 72.6828 147.92C72.6828 147.92 71.0784 135.862 59.0619 135.862C50.6508 135.862 43.04 141.268 43.04 151.467C43.04 164.944 67.4181 178.495 72.6828 198.283C77.6925 178.512 102.326 164.944 102.326 151.467C102.326 141.268 94.7148 135.862 86.3036 135.862Z" fill="#D66753"/>
<path d="M163.288 10.4864C151.272 10.4864 149.667 22.5441 149.667 22.5441C149.667 22.5441 148.063 10.4864 136.046 10.4864C127.635 10.4864 120.024 15.8928 120.024 26.0917C120.024 39.5678 144.402 53.1195 149.667 72.9077C154.677 53.1361 179.31 39.5678 179.31 26.0917C179.31 15.8928 171.699 10.4864 163.288 10.4864Z" fill="#D66753"/>
<path d="M136.046 310.244C148.062 310.244 149.667 298.187 149.667 298.187C149.667 298.187 151.271 310.244 163.288 310.244C171.699 310.244 179.31 304.838 179.31 294.639C179.31 281.163 154.932 267.611 149.667 247.823C144.657 267.595 120.024 281.163 120.024 294.639C120.024 304.838 127.635 310.244 136.046 310.244Z" fill="#D66753"/>
<path d="M163.288 135.421C151.272 135.421 149.667 147.478 149.667 147.478C149.667 147.478 148.063 135.421 136.046 135.421C127.635 135.421 120.024 140.827 120.024 151.026C120.024 164.502 144.402 178.054 149.667 197.842C154.677 178.07 179.31 164.502 179.31 151.026C179.31 140.827 171.699 135.421 163.288 135.421Z" fill="#D66753"/>
<path d="M125.192 71.0628C113.176 71.0628 111.571 83.1205 111.571 83.1205C111.571 83.1205 109.967 71.0628 97.9506 71.0628C89.5395 71.0628 81.9287 76.4692 81.9287 86.6681C81.9287 100.144 106.307 113.696 111.571 133.484C116.581 113.712 141.214 100.144 141.214 86.6681C141.214 76.4692 133.603 71.0628 125.192 71.0628Z" fill="#D66753"/>
</g>
<defs>
<clipPath id="clip0_2009_1331">
<rect width="222.783" height="323.556" fill="white"/>
</clipPath>
</defs>
</svg>
