<svg width="223" height="324" viewBox="0 0 223 324" fill="none" xmlns="http://www.w3.org/2000/svg">
<g clip-path="url(#clip0_2009_1300)">
<path d="M222.449 314.064C222.449 319.1 218.333 323.223 213.287 323.223H9.48079C4.44759 323.223 0.333008 319.1 0.333008 314.064V9.49348C0.333008 4.45703 4.44759 0.333328 9.48079 0.333328H213.287C218.333 0.333328 222.449 4.45703 222.449 9.49348V314.064Z" fill="#F1EAD8" stroke="#2C2C2C" stroke-width="0.666667"/>
<path d="M20.6455 36.3094C20.3955 36.0038 20.1872 35.5941 20.0205 35.0802C19.8677 34.5663 19.7913 33.8094 19.7913 32.8094C19.7913 31.7955 19.9372 30.6358 20.2288 29.3302C20.5205 28.0246 20.9163 26.7052 21.4163 25.3719C21.9163 24.0246 22.4997 22.6774 23.1663 21.3302C23.833 19.983 24.5344 18.6496 25.2705 17.3302C26.0066 15.9969 26.7566 14.6844 27.5205 13.3927C28.2983 12.0871 29.0413 10.8233 29.7497 9.60104H21.3747C18.8608 9.60104 17.2913 10.3094 16.6663 11.726C16.458 12.1983 16.2983 12.7538 16.1872 13.3927L15.9788 14.7052L13.333 14.7469L14.7705 5.43437H32.833L33.9997 8.12187C29.9719 13.858 27.3469 19.5316 26.1247 25.1427C25.6386 27.3788 25.2913 29.4344 25.083 31.3094C24.8886 33.1705 24.7011 34.4344 24.5205 35.101C24.34 35.7538 24.083 36.2538 23.7497 36.601C23.4163 36.9344 23.0205 37.101 22.5622 37.101C22.1177 37.101 21.7497 37.0385 21.458 36.9135C21.1663 36.8024 20.8955 36.601 20.6455 36.3094Z" fill="#2C2C2C"/>
<path d="M38.6421 65.7946C38.1553 58.3334 23.0593 44.29 22.5725 40.7773C22.0857 44.2882 6.98974 58.3315 6.50297 65.7946C6.16303 71.0691 9.91239 73.2558 13.3218 73.2558C17.0132 73.2161 20.062 68.1051 21.1122 67.1114C21.599 68.4282 17.8878 79.4003 16.7292 79.4003H28.4178C27.2592 79.4003 23.5481 68.4282 24.0348 67.1114C24.9544 68.0241 27.6497 73.1029 31.8272 73.2558C35.2347 73.254 38.982 71.0691 38.6421 65.7946Z" fill="#2C2C2C"/>
<path d="M101.029 69.4408C100.174 56.3409 73.6696 31.6846 72.815 25.5173C71.9604 31.6814 45.4559 56.3377 44.6013 69.4408C44.0044 78.7014 50.5873 82.5407 56.5733 82.5407C63.0543 82.471 68.4071 73.4973 70.2511 71.7527C71.1057 74.0646 64.59 93.3286 62.5558 93.3286H83.0777C81.0436 93.3286 74.5278 74.0646 75.3824 71.7527C76.9969 73.3552 81.7291 82.2721 89.0638 82.5407C95.0462 82.5374 101.626 78.7014 101.029 69.4408Z" fill="#2C2C2C"/>
<path d="M202.721 287.874C202.971 288.179 203.179 288.589 203.346 289.103C203.498 289.617 203.575 290.374 203.575 291.374C203.575 292.388 203.429 293.547 203.137 294.853C202.846 296.158 202.45 297.478 201.95 298.811C201.45 300.158 200.867 301.506 200.2 302.853C199.533 304.2 198.832 305.533 198.096 306.853C197.36 308.186 196.61 309.499 195.846 310.79C195.068 312.096 194.325 313.36 193.617 314.582H201.992C204.505 314.582 206.075 313.874 206.7 312.457C206.908 311.985 207.068 311.429 207.179 310.79L207.387 309.478L210.033 309.436L208.596 318.749H190.533L189.367 316.061C193.394 310.325 196.019 304.651 197.242 299.04C197.728 296.804 198.075 294.749 198.283 292.874C198.478 291.013 198.665 289.749 198.846 289.082C199.026 288.429 199.283 287.929 199.617 287.582C199.95 287.249 200.346 287.082 200.804 287.082C201.248 287.082 201.617 287.145 201.908 287.27C202.2 287.381 202.471 287.582 202.721 287.874Z" fill="#2C2C2C"/>
<path d="M184.231 258.352C184.718 265.813 199.814 279.857 200.301 283.369C200.787 279.858 215.883 265.815 216.37 258.352C216.71 253.078 212.961 250.891 209.551 250.891C205.86 250.93 202.811 256.042 201.761 257.035C201.274 255.718 204.985 244.746 206.144 244.746H194.455C195.614 244.746 199.325 255.718 198.838 257.035C197.919 256.123 195.223 251.044 191.046 250.891C187.638 250.893 183.891 253.078 184.231 258.352Z" fill="#2C2C2C"/>
<path d="M44.6607 254.742C45.5154 267.842 72.0198 292.499 72.8745 298.666C73.7291 292.502 100.234 267.845 101.088 254.742C101.685 245.482 95.1022 241.642 89.1162 241.642C82.6351 241.712 77.2823 250.686 75.4384 252.43C74.5837 250.118 81.0995 230.855 83.1337 230.855H62.6117C64.6459 230.855 71.1616 250.118 70.307 252.43C68.6926 250.828 63.9603 241.911 56.6257 241.642C50.6432 241.646 44.0639 245.482 44.6607 254.742Z" fill="#2C2C2C"/>
<path d="M101.14 168.776C100.285 155.676 73.781 131.02 72.9263 124.852C72.0717 131.016 45.5672 155.673 44.7126 168.776C44.1158 178.037 50.6986 181.876 56.6846 181.876C63.1657 181.806 68.5185 172.832 70.3624 171.088C71.217 173.4 64.7013 192.664 62.6671 192.664H83.1891C81.1549 192.664 74.6391 173.4 75.4938 171.088C77.1082 172.69 81.8405 181.607 89.1751 181.876C95.1576 181.873 101.737 178.037 101.14 168.776Z" fill="#2C2C2C"/>
<path d="M178.21 69.1753C177.356 56.0755 150.851 31.4191 149.997 25.2518C149.142 31.4159 122.638 56.0722 121.783 69.1753C121.186 78.436 127.769 82.2752 133.755 82.2752C140.236 82.2055 145.589 73.2319 147.433 71.4873C148.287 73.7992 141.772 93.0632 139.737 93.0632H160.259C158.225 93.0632 151.709 73.7992 152.564 71.4873C154.179 73.0898 158.911 82.0067 166.245 82.2752C172.228 82.272 178.807 78.436 178.21 69.1753Z" fill="#2C2C2C"/>
<path d="M121.843 254.477C122.698 267.577 149.202 292.233 150.057 298.4C150.912 292.236 177.416 267.58 178.271 254.477C178.868 245.216 172.285 241.377 166.299 241.377C159.818 241.447 154.465 250.42 152.621 252.165C151.766 249.853 158.282 230.589 160.316 230.589H139.794C141.829 230.589 148.344 249.853 147.49 252.165C145.875 250.562 141.143 241.646 133.808 241.377C127.826 241.38 121.247 245.216 121.843 254.477Z" fill="#2C2C2C"/>
<path d="M178.323 168.51C177.468 155.411 150.964 130.754 150.109 124.587C149.254 130.751 122.75 155.407 121.895 168.51C121.298 177.771 127.881 181.61 133.867 181.61C140.348 181.541 145.701 172.567 147.545 170.822C148.4 173.134 141.884 192.398 139.85 192.398H160.372C158.337 192.398 151.822 173.134 152.676 170.822C154.291 172.425 159.023 181.342 166.358 181.61C172.34 181.607 178.92 177.771 178.323 168.51Z" fill="#2C2C2C"/>
<path d="M139.54 121.937C138.686 108.837 112.181 84.1805 111.327 78.0132C110.472 84.1773 83.9676 108.834 83.113 121.937C82.5161 131.197 89.099 135.037 95.085 135.037C101.566 134.967 106.919 125.993 108.763 124.249C109.617 126.561 103.102 145.825 101.067 145.825H121.589C119.555 145.825 113.04 126.561 113.894 124.249C115.509 125.851 120.241 134.768 127.575 135.037C133.558 135.033 140.137 131.197 139.54 121.937Z" fill="#2C2C2C"/>
</g>
<defs>
<clipPath id="clip0_2009_1300">
<rect width="222.783" height="323.556" fill="white"/>
</clipPath>
</defs>
</svg>
