<svg width="143" height="200" viewBox="0 0 143 200" fill="none" xmlns="http://www.w3.org/2000/svg">
<path d="M15.7967 200C7.34551 200.022 0.452431 193.268 0.43089 184.964L8.94293e-05 15.1325C-0.0286318 6.76744 6.86444 -0.0143378 15.3336 2.27647e-05L127.558 0.204576C136.013 0.226117 142.881 7.01871 142.881 15.3586V184.824C142.881 193.114 136.034 199.86 127.616 199.867L15.7967 200Z" fill="#C9C9C9"/>
<path d="M17.1976 199.58C8.85405 199.58 2.07227 192.813 2.07227 184.505V15.0822C2.07227 6.76744 8.85405 0.0144043 17.1976 0.0144043H127.785C136.121 0.0144043 142.91 6.76744 142.91 15.0822V184.505C142.91 192.813 136.121 199.58 127.785 199.58H17.1976Z" fill="#F1EAD8"/>
<path d="M106.934 26.7465C107.07 26.1146 107.16 25.4828 107.145 24.8114C107.16 20.0365 103.272 16.1736 98.5004 16.1736C93.7255 16.1808 89.8589 20.0365 89.8589 24.8114C89.8589 25.8418 90.042 26.8326 90.3723 27.7338C86.1646 28.0569 82.8509 31.5753 82.8438 35.8691C82.8473 40.3927 86.5057 44.0294 91.0221 44.0438C92.2248 44.0438 96.4935 42.719 97.409 42.1733L91.873 51.6694L105.361 51.655L99.818 42.1733C100.931 42.8519 105.648 44.0331 106.79 44.0331C111.576 44.0331 115.446 40.1557 115.439 35.3808C115.446 30.6597 111.64 26.8255 106.934 26.7465Z" fill="#2C2C2C"/>
<path opacity="0.2" d="M106.932 26.7465C107.069 26.1146 107.158 25.4828 107.144 24.8114C107.158 20.0365 103.27 16.1736 98.4988 16.1736C98.4916 16.1736 98.4773 16.1807 98.4629 16.1807V51.6621L105.36 51.655L99.8164 42.1733C100.929 42.8519 105.647 44.0331 106.788 44.0331C111.574 44.0331 115.444 40.1557 115.437 35.3808C115.444 30.6597 111.639 26.8255 106.932 26.7465Z" fill="#616161"/>
<path d="M106.934 70.4171C107.07 69.7924 107.16 69.1534 107.145 68.482C107.16 63.7143 103.272 59.8441 98.5004 59.8513C93.7255 59.8585 89.8589 63.7143 89.8589 68.482C89.8589 69.5196 90.042 70.5033 90.3723 71.408C86.1646 71.7383 82.8509 75.2566 82.8438 79.5469C82.8473 84.0704 86.5057 87.7073 91.0221 87.7217C92.2248 87.7217 96.4935 86.3969 97.409 85.8476L91.873 95.3435L105.361 95.3291L99.818 85.8405C100.931 86.519 105.648 87.7001 106.79 87.7073C111.576 87.7073 115.446 83.8299 115.439 79.0478C115.446 74.3375 111.64 70.5033 106.934 70.4171Z" fill="#2C2C2C"/>
<path opacity="0.2" d="M106.932 70.4171C107.069 69.7924 107.158 69.1534 107.144 68.482C107.158 63.7143 103.27 59.8441 98.4988 59.8513C98.4916 59.8513 98.4773 59.8513 98.4629 59.8513V95.34L105.36 95.3328L99.8164 85.844C100.929 86.5225 105.647 87.7037 106.788 87.7109C111.574 87.7109 115.444 83.8335 115.437 79.0514C115.444 74.3376 111.639 70.5033 106.932 70.4171Z" fill="#616161"/>
<path d="M38.0504 26.7465C37.9211 26.1146 37.8277 25.4828 37.8421 24.8114C37.8277 20.0365 41.7159 16.1736 46.48 16.1736C51.2549 16.1808 55.1215 20.0365 55.1287 24.8114C55.1287 25.8418 54.9492 26.8326 54.6117 27.7338C58.8122 28.0569 62.1331 31.5753 62.1402 35.8691C62.1331 40.3927 58.4747 44.0294 53.9619 44.0438C52.7592 44.0438 48.4905 42.719 47.5822 42.1733L53.1146 51.6694L39.6264 51.655L45.166 42.1733C44.0638 42.8519 39.3392 44.0331 38.2011 44.0331C33.4155 44.0331 29.5453 40.1557 29.5489 35.3808C29.5381 30.6597 33.3437 26.8255 38.0504 26.7465Z" fill="#2C2C2C"/>
<path opacity="0.2" d="M38.0504 26.7465C37.9211 26.1146 37.8277 25.4828 37.8421 24.8114C37.8277 20.0365 41.7159 16.1736 46.48 16.1736C46.4944 16.1736 46.5088 16.1807 46.5231 16.1807V51.6621L39.6264 51.655L45.166 42.1733C44.0638 42.8519 39.3392 44.0331 38.2011 44.0331C33.4155 44.0331 29.5453 40.1557 29.5489 35.3808C29.5381 30.6597 33.3437 26.8255 38.0504 26.7465Z" fill="#616161"/>
<path d="M38.0504 70.4171C37.9211 69.7924 37.8277 69.1534 37.8421 68.482C37.8277 63.7143 41.7159 59.8441 46.48 59.8513C51.2549 59.8585 55.1215 63.7143 55.1287 68.482C55.1287 69.5196 54.9492 70.5033 54.6117 71.408C58.8122 71.7383 62.1331 75.2566 62.1402 79.5469C62.1331 84.0704 58.4747 87.7073 53.9619 87.7217C52.7592 87.7217 48.4905 86.3969 47.5822 85.8476L53.1146 95.3435L39.6264 95.3291L45.166 85.8405C44.0638 86.519 39.3392 87.7001 38.2011 87.7073C33.4155 87.7073 29.5453 83.8299 29.5489 79.0478C29.5381 74.3375 33.3437 70.5033 38.0504 70.4171Z" fill="#2C2C2C"/>
<path opacity="0.2" d="M38.0504 70.4171C37.9211 69.7924 37.8277 69.1534 37.8421 68.482C37.8277 63.7143 41.7159 59.8441 46.48 59.8513C46.4944 59.8513 46.5088 59.8513 46.5231 59.8513V95.34L39.6264 95.3328L45.166 85.844C44.0638 86.5225 39.3392 87.7037 38.2011 87.7109C33.4155 87.7109 29.5453 83.8335 29.5489 79.0514C29.5381 74.3376 33.3437 70.5033 38.0504 70.4171Z" fill="#616161"/>
<path d="M106.934 172.83C107.07 173.461 107.16 174.093 107.145 174.765C107.16 179.54 103.272 183.403 98.5004 183.403C93.7255 183.388 89.8589 179.547 89.8589 174.765C89.8589 173.734 90.042 172.743 90.3723 171.842C86.1646 171.519 82.8509 168.001 82.8438 163.707C82.8473 159.191 86.5057 155.539 91.0221 155.539C92.2248 155.525 96.4935 156.864 97.409 157.406L91.873 147.91L105.361 147.925L99.818 157.406C100.931 156.731 105.648 155.547 106.79 155.547C111.576 155.539 115.446 159.424 115.439 164.199C115.446 168.923 111.64 172.751 106.934 172.83Z" fill="#2C2C2C"/>
<path opacity="0.2" d="M106.932 172.83C107.069 173.462 107.158 174.093 107.144 174.765C107.158 179.54 103.27 183.403 98.4988 183.403C98.4916 183.403 98.4773 183.395 98.4629 183.395V147.914L105.36 147.921L99.8164 157.403C100.929 156.728 105.647 155.543 106.788 155.543C111.574 155.536 115.444 159.421 115.437 164.195C115.444 168.924 111.639 172.751 106.932 172.83Z" fill="#616161"/>
<path d="M106.934 129.152C107.07 129.784 107.16 130.416 107.145 131.087C107.16 135.862 103.272 139.732 98.5004 139.725C93.7255 139.718 89.8589 135.869 89.8589 131.087C89.8589 130.057 90.042 129.066 90.3723 128.165C86.1646 127.842 82.8509 124.323 82.8438 120.029C82.8473 115.513 86.5057 111.862 91.0221 111.862C92.2248 111.855 96.4935 113.186 97.409 113.729L91.873 104.233L105.361 104.247L99.818 113.736C100.931 113.057 105.648 111.869 106.79 111.869C111.576 111.862 115.446 115.746 115.439 120.521C115.446 125.246 111.64 129.073 106.934 129.152Z" fill="#2C2C2C"/>
<path opacity="0.2" d="M106.932 129.152C107.069 129.784 107.158 130.416 107.144 131.087C107.158 135.862 103.27 139.732 98.4988 139.725C98.4916 139.725 98.4773 139.725 98.4629 139.725V104.236L105.36 104.243L99.8164 113.732C100.929 113.054 105.647 111.865 106.788 111.865C111.574 111.858 115.444 115.743 115.437 120.518C115.444 125.246 111.639 129.073 106.932 129.152Z" fill="#616161"/>
<path d="M38.0504 172.83C37.9211 173.461 37.8277 174.093 37.8421 174.765C37.8277 179.54 41.7159 183.403 46.48 183.403C51.2549 183.388 55.1215 179.547 55.1287 174.765C55.1287 173.734 54.9492 172.743 54.6117 171.842C58.8122 171.519 62.1331 168.001 62.1402 163.707C62.1331 159.191 58.4747 155.539 53.9619 155.539C52.7592 155.525 48.4905 156.864 47.5822 157.406L53.1146 147.91L39.6264 147.925L45.166 157.406C44.0638 156.731 39.3392 155.547 38.2011 155.547C33.4155 155.539 29.5453 159.424 29.5489 164.199C29.5381 168.923 33.3437 172.751 38.0504 172.83Z" fill="#2C2C2C"/>
<path opacity="0.2" d="M38.0504 172.83C37.9211 173.462 37.8277 174.093 37.8421 174.765C37.8277 179.54 41.7159 183.403 46.48 183.403C46.4944 183.403 46.5088 183.395 46.5231 183.395V147.914L39.6264 147.921L45.166 157.403C44.0638 156.728 39.3392 155.543 38.2011 155.543C33.4155 155.536 29.5453 159.421 29.5489 164.195C29.5381 168.924 33.3437 172.751 38.0504 172.83Z" fill="#616161"/>
<path d="M38.0504 129.152C37.9211 129.784 37.8277 130.416 37.8421 131.087C37.8277 135.862 41.7159 139.732 46.48 139.725C51.2549 139.718 55.1215 135.869 55.1287 131.087C55.1287 130.057 54.9492 129.066 54.6117 128.165C58.8122 127.842 62.1331 124.323 62.1402 120.029C62.1331 115.513 58.4747 111.862 53.9619 111.862C52.7592 111.855 48.4905 113.186 47.5822 113.729L53.1146 104.233L39.6264 104.247L45.166 113.736C44.0638 113.057 39.3392 111.869 38.2011 111.869C33.4155 111.862 29.5453 115.746 29.5489 120.521C29.5381 125.246 33.3437 129.073 38.0504 129.152Z" fill="#2C2C2C"/>
<path opacity="0.2" d="M38.0504 129.152C37.9211 129.784 37.8277 130.416 37.8421 131.087C37.8277 135.862 41.7159 139.732 46.48 139.725C46.4944 139.725 46.5088 139.725 46.5231 139.725V104.236L39.6264 104.243L45.166 113.732C44.0638 113.054 39.3392 111.865 38.2011 111.865C33.4155 111.858 29.5453 115.743 29.5489 120.518C29.5381 125.246 33.3437 129.073 38.0504 129.152Z" fill="#616161"/>
<path d="M15.334 38.8239C15.3699 38.6768 15.3915 38.5367 15.3915 38.3823C15.3915 37.2945 14.5048 36.4114 13.4133 36.4114C12.3255 36.4114 11.4459 37.2945 11.4388 38.3823C11.4388 38.6157 11.4818 38.8383 11.5572 39.0501C10.6022 39.1255 9.84473 39.9261 9.84473 40.9098C9.84473 41.933 10.6776 42.7695 11.7116 42.7766C11.9808 42.7766 12.961 42.4751 13.1656 42.3495L11.9054 44.5179L14.9822 44.5107L13.7185 42.3495C13.9698 42.4966 15.0469 42.7695 15.3089 42.7695C16.4003 42.7695 17.2835 41.8864 17.2835 40.7914C17.2799 39.7071 16.4111 38.8383 15.334 38.8239Z" fill="#2C2C2C"/>
<path opacity="0.2" d="M15.3348 38.8239C15.3707 38.6768 15.3923 38.5367 15.3923 38.3823C15.3923 37.2945 14.5055 36.4114 13.4141 36.4114C13.4141 36.4114 13.4105 36.4114 13.4033 36.4114V44.5107L14.9794 44.5036L13.7157 42.3422C13.967 42.4894 15.044 42.7623 15.3061 42.7623C16.3975 42.7623 17.2807 41.8791 17.2807 40.7841C17.2807 39.7071 16.4118 38.8383 15.3348 38.8239Z" fill="#616161"/>
<path d="M133.204 165.591C133.232 165.739 133.257 165.879 133.25 166.033C133.254 167.121 132.363 168.004 131.283 168.004C130.188 168.004 129.315 167.121 129.308 166.033C129.308 165.796 129.351 165.577 129.427 165.365C128.465 165.29 127.707 164.489 127.707 163.513C127.707 162.482 128.547 161.639 129.574 161.639C129.85 161.639 130.82 161.94 131.031 162.066L129.768 159.905H132.845L131.581 162.066C131.832 161.912 132.916 161.646 133.175 161.646C134.263 161.639 135.149 162.529 135.149 163.617C135.149 164.701 134.277 165.577 133.204 165.591Z" fill="#2C2C2C"/>
<path opacity="0.2" d="M133.204 165.591C133.233 165.738 133.258 165.878 133.251 166.033C133.254 167.121 132.364 168.004 131.283 168.004C131.283 168.004 131.28 168.004 131.272 168.004V159.912H132.845L131.581 162.073C131.833 161.918 132.917 161.653 133.175 161.653C134.263 161.646 135.15 162.536 135.15 163.624C135.15 164.701 134.277 165.577 133.204 165.591Z" fill="#616161"/>
<path d="M12.5877 23.5961C11.2569 23.5275 10.221 23.1982 9.48008 22.6082C8.73919 22.0045 8.36874 21.2293 8.36874 20.2826C8.36874 19.1301 8.82837 18.2177 9.74763 17.5454C10.6669 16.8731 12.0115 16.537 13.7814 16.537C15.5513 16.537 16.8891 16.8525 17.7946 17.4837C18.7001 18.1148 19.1529 18.9655 19.1529 20.0356C19.1529 21.0921 18.803 21.929 18.1033 22.5465C17.4036 23.1502 16.3951 23.5 15.078 23.5961V23.6578C18.0416 23.9048 19.5234 25.1602 19.5234 27.424C19.5234 28.7412 19.0569 29.729 18.1239 30.3876C17.2046 31.0462 15.764 31.3755 13.802 31.3755C9.91913 31.3755 7.97771 30.0652 7.97771 27.4446C7.97771 25.1259 9.51438 23.8636 12.5877 23.6578V23.5961ZM15.5925 27.424C15.5925 26.148 15.469 25.2356 15.222 24.6868C14.9751 24.138 14.4949 23.8636 13.7814 23.8636C13.0817 23.8636 12.6083 24.1449 12.3613 24.7074C12.1144 25.2562 11.9909 26.1686 11.9909 27.4446C11.9909 28.7069 12.1075 29.6056 12.3408 30.1407C12.5877 30.6757 13.0748 30.9433 13.802 30.9433C14.5292 30.9433 15.0094 30.6757 15.2426 30.1407C15.4759 29.5918 15.5925 28.6863 15.5925 27.424ZM13.802 16.9692C13.1983 16.9692 12.8073 17.2161 12.6289 17.7101C12.4643 18.1903 12.3819 18.8488 12.3819 19.6858C12.3819 20.509 12.3888 21.0647 12.4025 21.3528C12.4162 21.6272 12.4437 21.9153 12.4848 22.2172C12.5397 22.519 12.622 22.7454 12.7318 22.8963C12.965 23.2256 13.3424 23.3903 13.8637 23.3903C14.3302 23.3903 14.6801 23.2256 14.9133 22.8963C15.0917 22.6356 15.1877 22.2515 15.2015 21.7438C15.2152 21.2225 15.222 20.5433 15.222 19.7064C15.222 18.8557 15.1329 18.1903 14.9545 17.7101C14.7898 17.2161 14.4057 16.9692 13.802 16.9692Z" fill="#2C2C2C"/>
<path d="M132.263 179.968C133.594 180.036 134.63 180.366 135.371 180.956C136.111 181.559 136.482 182.334 136.482 183.281C136.482 184.434 136.022 185.346 135.103 186.018C134.184 186.691 132.839 187.027 131.069 187.027C129.299 187.027 127.962 186.711 127.056 186.08C126.15 185.449 125.698 184.598 125.698 183.528C125.698 182.472 126.048 181.635 126.747 181.017C127.447 180.414 128.455 180.064 129.773 179.968L129.773 179.906C126.809 179.659 125.327 178.404 125.327 176.14C125.327 174.823 125.794 173.835 126.727 173.176C127.646 172.518 129.087 172.188 131.049 172.188C134.931 172.188 136.873 173.499 136.873 176.119C136.873 178.438 135.336 179.7 132.263 179.906L132.263 179.968ZM129.258 176.14C129.258 177.416 129.382 178.328 129.629 178.877C129.876 179.426 130.356 179.7 131.069 179.7C131.769 179.7 132.242 179.419 132.489 178.856C132.736 178.307 132.86 177.395 132.86 176.119C132.86 174.857 132.743 173.958 132.51 173.423C132.263 172.888 131.776 172.62 131.049 172.62C130.321 172.62 129.841 172.888 129.608 173.423C129.375 173.972 129.258 174.877 129.258 176.14ZM131.049 186.595C131.652 186.595 132.043 186.348 132.222 185.854C132.386 185.373 132.469 184.715 132.469 183.878C132.469 183.055 132.462 182.499 132.448 182.211C132.434 181.937 132.407 181.648 132.366 181.347C132.311 181.045 132.229 180.818 132.119 180.667C131.886 180.338 131.508 180.173 130.987 180.173C130.52 180.173 130.171 180.338 129.937 180.667C129.759 180.928 129.663 181.312 129.649 181.82C129.635 182.341 129.629 183.02 129.629 183.857C129.629 184.708 129.718 185.373 129.896 185.854C130.061 186.348 130.445 186.595 131.049 186.595Z" fill="#2C2C2C"/>
</svg>
