<svg width="223" height="324" viewBox="0 0 223 324" fill="none" xmlns="http://www.w3.org/2000/svg">
<g clip-path="url(#clip0_2009_1598)">
<path d="M222.449 314.064C222.449 319.1 218.333 323.223 213.287 323.223H9.48079C4.44759 323.223 0.333008 319.1 0.333008 314.064V9.49348C0.333008 4.45703 4.44759 0.333328 9.48079 0.333328H213.287C218.333 0.333328 222.449 4.45703 222.449 9.49348V314.064Z" fill="#F1EAD8" stroke="#2C2C2C" stroke-width="0.666667"/>
<path d="M19.9163 20.1427C16.958 18.0455 15.4788 15.7191 15.4788 13.1635C15.4788 10.5941 16.3886 8.59409 18.208 7.16354C20.0413 5.73298 22.2011 5.0177 24.6872 5.0177C27.1872 5.0177 29.2844 5.71215 30.9788 7.10104C32.6872 8.47604 33.5413 10.3649 33.5413 12.7677C33.5413 14.2121 33.1177 15.6288 32.2705 17.0177C31.4372 18.3927 30.3261 19.4205 28.9372 20.101C30.8538 21.226 32.1802 22.233 32.9163 23.1219C33.6663 24.0108 34.208 24.8719 34.5413 25.7052C34.8747 26.5246 35.0413 27.476 35.0413 28.5594C35.0413 30.8788 34.0761 32.8858 32.1455 34.5802C30.2288 36.2608 27.6525 37.101 24.4163 37.101C21.1941 37.101 18.6386 36.351 16.7497 34.851C14.8747 33.351 13.9372 31.1774 13.9372 28.3302C13.9372 25.483 15.1663 23.1844 17.6247 21.4344C18.3469 20.9205 19.1108 20.4899 19.9163 20.1427ZM26.6663 18.8302C28.6663 17.7608 29.6663 15.7469 29.6663 12.7885C29.6663 10.2885 28.7358 8.62882 26.8747 7.80937C26.2775 7.54548 25.6316 7.41354 24.9372 7.41354C23.5483 7.41354 22.4094 7.81632 21.5205 8.62187C20.6455 9.42743 20.208 10.3649 20.208 11.4344C20.208 12.5038 20.3886 13.3719 20.7497 14.0385C21.1108 14.7052 21.6525 15.3788 22.3747 16.0594C23.1108 16.7399 24.5413 17.6635 26.6663 18.8302ZM22.1663 21.601C19.5691 22.6288 18.2705 24.9969 18.2705 28.7052C18.2705 30.2608 18.8052 31.6149 19.8747 32.7677C20.958 33.9205 22.3677 34.4969 24.1038 34.4969C25.8538 34.4969 27.2636 34.0594 28.333 33.1844C29.4163 32.3094 29.958 31.0941 29.958 29.5385C29.958 27.3996 28.2983 25.3233 24.9788 23.3094C24.0483 22.7538 23.1108 22.1844 22.1663 21.601Z" fill="#2C2C2C"/>
<path d="M38.6421 65.7946C38.1553 58.3334 23.0593 44.29 22.5725 40.7773C22.0857 44.2882 6.98974 58.3315 6.50297 65.7946C6.16303 71.0691 9.91239 73.2558 13.3218 73.2558C17.0132 73.2161 20.062 68.1051 21.1122 67.1114C21.599 68.4282 17.8878 79.4003 16.7292 79.4003H28.4178C27.2592 79.4003 23.5481 68.4282 24.0348 67.1114C24.9544 68.0241 27.6497 73.1029 31.8272 73.2558C35.2347 73.254 38.982 71.0691 38.6421 65.7946Z" fill="#2C2C2C"/>
<path d="M101.029 69.4408C100.174 56.3409 73.6696 31.6846 72.815 25.5173C71.9604 31.6814 45.4559 56.3377 44.6013 69.4408C44.0044 78.7014 50.5873 82.5407 56.5733 82.5407C63.0543 82.471 68.4071 73.4973 70.2511 71.7527C71.1057 74.0646 64.59 93.3286 62.5558 93.3286H83.0777C81.0436 93.3286 74.5278 74.0646 75.3824 71.7527C76.9969 73.3552 81.7291 82.2721 89.0638 82.5407C95.0462 82.5374 101.626 78.7014 101.029 69.4408Z" fill="#2C2C2C"/>
<path d="M203.45 304.04C206.408 306.138 207.887 308.464 207.887 311.02C207.887 313.589 206.978 315.589 205.158 317.02C203.325 318.45 201.165 319.165 198.679 319.165C196.179 319.165 194.082 318.471 192.387 317.082C190.679 315.707 189.825 313.818 189.825 311.415C189.825 309.971 190.248 308.554 191.096 307.165C191.929 305.79 193.04 304.763 194.429 304.082C192.512 302.957 191.186 301.95 190.45 301.061C189.7 300.172 189.158 299.311 188.825 298.478C188.492 297.658 188.325 296.707 188.325 295.624C188.325 293.304 189.29 291.297 191.221 289.603C193.137 287.922 195.714 287.082 198.95 287.082C202.172 287.082 204.728 287.832 206.617 289.332C208.492 290.832 209.429 293.006 209.429 295.853C209.429 298.7 208.2 300.999 205.742 302.749C205.019 303.263 204.255 303.693 203.45 304.04ZM196.7 305.353C194.7 306.422 193.7 308.436 193.7 311.395C193.7 313.895 194.63 315.554 196.492 316.374C197.089 316.638 197.735 316.77 198.429 316.77C199.818 316.77 200.957 316.367 201.846 315.561C202.721 314.756 203.158 313.818 203.158 312.749C203.158 311.679 202.978 310.811 202.617 310.145C202.255 309.478 201.714 308.804 200.992 308.124C200.255 307.443 198.825 306.52 196.7 305.353ZM201.2 302.582C203.797 301.554 205.096 299.186 205.096 295.478C205.096 293.922 204.561 292.568 203.492 291.415C202.408 290.263 200.998 289.686 199.262 289.686C197.512 289.686 196.103 290.124 195.033 290.999C193.95 291.874 193.408 293.089 193.408 294.645C193.408 296.783 195.068 298.86 198.387 300.874C199.318 301.429 200.255 301.999 201.2 302.582Z" fill="#2C2C2C"/>
<path d="M184.231 258.352C184.718 265.813 199.814 279.857 200.301 283.369C200.787 279.858 215.883 265.815 216.37 258.352C216.71 253.078 212.961 250.891 209.551 250.891C205.86 250.93 202.811 256.042 201.761 257.035C201.274 255.718 204.985 244.746 206.144 244.746H194.455C195.614 244.746 199.325 255.718 198.838 257.035C197.919 256.123 195.223 251.044 191.046 250.891C187.638 250.893 183.891 253.078 184.231 258.352Z" fill="#2C2C2C"/>
<path d="M44.6607 254.742C45.5154 267.842 72.0198 292.499 72.8745 298.666C73.7291 292.502 100.234 267.845 101.088 254.742C101.685 245.482 95.1022 241.642 89.1162 241.642C82.6351 241.712 77.2823 250.686 75.4384 252.43C74.5837 250.118 81.0995 230.855 83.1337 230.855H62.6117C64.6459 230.855 71.1616 250.118 70.307 252.43C68.6926 250.828 63.9603 241.911 56.6257 241.642C50.6432 241.646 44.0639 245.482 44.6607 254.742Z" fill="#2C2C2C"/>
<path d="M101.14 168.776C100.285 155.676 73.781 131.02 72.9263 124.852C72.0717 131.016 45.5672 155.673 44.7126 168.776C44.1158 178.037 50.6986 181.876 56.6846 181.876C63.1657 181.806 68.5185 172.832 70.3624 171.088C71.217 173.4 64.7013 192.664 62.6671 192.664H83.1891C81.1549 192.664 74.6391 173.4 75.4938 171.088C77.1082 172.69 81.8405 181.607 89.1751 181.876C95.1576 181.873 101.737 178.037 101.14 168.776Z" fill="#2C2C2C"/>
<path d="M178.21 69.1753C177.356 56.0755 150.851 31.4191 149.997 25.2518C149.142 31.4159 122.638 56.0722 121.783 69.1753C121.186 78.436 127.769 82.2752 133.755 82.2752C140.236 82.2055 145.589 73.2319 147.433 71.4873C148.287 73.7992 141.772 93.0632 139.737 93.0632H160.259C158.225 93.0632 151.709 73.7992 152.564 71.4873C154.179 73.0898 158.911 82.0067 166.245 82.2752C172.228 82.272 178.807 78.436 178.21 69.1753Z" fill="#2C2C2C"/>
<path d="M121.843 254.477C122.698 267.577 149.202 292.233 150.057 298.4C150.912 292.236 177.416 267.58 178.271 254.477C178.868 245.216 172.285 241.377 166.299 241.377C159.818 241.447 154.465 250.42 152.621 252.165C151.766 249.853 158.282 230.589 160.316 230.589H139.794C141.829 230.589 148.344 249.853 147.49 252.165C145.875 250.562 141.143 241.646 133.808 241.377C127.826 241.38 121.247 245.216 121.843 254.477Z" fill="#2C2C2C"/>
<path d="M178.323 168.51C177.468 155.411 150.964 130.754 150.109 124.587C149.254 130.751 122.75 155.407 121.895 168.51C121.298 177.771 127.881 181.61 133.867 181.61C140.348 181.541 145.701 172.567 147.545 170.822C148.4 173.134 141.884 192.398 139.85 192.398H160.372C158.337 192.398 151.822 173.134 152.676 170.822C154.291 172.425 159.023 181.342 166.358 181.61C172.34 181.607 178.92 177.771 178.323 168.51Z" fill="#2C2C2C"/>
<path d="M139.54 121.937C138.686 108.837 112.181 84.1805 111.327 78.0132C110.472 84.1773 83.9676 108.834 83.113 121.937C82.5161 131.197 89.099 135.037 95.085 135.037C101.566 134.967 106.919 125.993 108.763 124.249C109.617 126.561 103.102 145.825 101.067 145.825H121.589C119.555 145.825 113.04 126.561 113.894 124.249C115.509 125.851 120.241 134.768 127.575 135.037C133.558 135.033 140.137 131.197 139.54 121.937Z" fill="#2C2C2C"/>
<path d="M82.6744 205.718C83.529 218.818 110.033 243.474 110.888 249.642C111.743 243.478 138.247 218.821 139.102 205.718C139.699 196.458 133.116 192.618 127.13 192.618C120.649 192.688 115.296 201.662 113.452 203.406C112.597 201.094 119.113 181.83 121.147 181.83H100.625C102.66 181.83 109.175 201.094 108.321 203.406C106.706 201.804 101.974 192.887 94.6394 192.618C88.6569 192.622 82.0776 196.458 82.6744 205.718Z" fill="#2C2C2C"/>
</g>
<defs>
<clipPath id="clip0_2009_1598">
<rect width="222.783" height="323.556" fill="white"/>
</clipPath>
</defs>
</svg>
