<svg width="223" height="324" viewBox="0 0 223 324" fill="none" xmlns="http://www.w3.org/2000/svg">
<g clip-path="url(#clip0_2009_1504)">
<path d="M222.449 314.064C222.449 319.1 218.333 323.223 213.287 323.223H9.48079C4.44759 323.223 0.333008 319.1 0.333008 314.064V9.49348C0.333008 4.45703 4.44759 0.333328 9.48079 0.333328H213.287C218.333 0.333328 222.449 4.45703 222.449 9.49348V314.064Z" fill="#F1EAD8" stroke="#2C2C2C" stroke-width="0.666667"/>
<path d="M18.9818 18.0094C16.0234 15.9122 14.5443 13.5858 14.5443 11.0302C14.5443 8.46076 15.454 6.46076 17.2734 5.03021C19.1068 3.59965 21.2665 2.88437 23.7526 2.88437C26.2526 2.88437 28.3498 3.57882 30.0443 4.96771C31.7526 6.34271 32.6068 8.2316 32.6068 10.6344C32.6068 12.0788 32.1832 13.4955 31.3359 14.8844C30.5026 16.2594 29.3915 17.2872 28.0026 17.9677C29.9193 19.0927 31.2457 20.0997 31.9818 20.9885C32.7318 21.8774 33.2734 22.7385 33.6068 23.5719C33.9401 24.3913 34.1068 25.3427 34.1068 26.426C34.1068 28.7455 33.1415 30.7524 31.2109 32.4469C29.2943 34.1274 26.7179 34.9677 23.4818 34.9677C20.2595 34.9677 17.704 34.2177 15.8151 32.7177C13.9401 31.2177 13.0026 29.0441 13.0026 26.1969C13.0026 23.3497 14.2318 21.051 16.6901 19.301C17.4123 18.7872 18.1762 18.3566 18.9818 18.0094ZM25.7318 16.6969C27.7318 15.6274 28.7318 13.6135 28.7318 10.6552C28.7318 8.15521 27.8012 6.49548 25.9401 5.67604C25.3429 5.41215 24.697 5.28021 24.0026 5.28021C22.6137 5.28021 21.4748 5.68298 20.5859 6.48854C19.7109 7.2941 19.2734 8.2316 19.2734 9.30104C19.2734 10.3705 19.454 11.2385 19.8151 11.9052C20.1762 12.5719 20.7179 13.2455 21.4401 13.926C22.1762 14.6066 23.6068 15.5302 25.7318 16.6969ZM21.2318 19.4677C18.6345 20.4955 17.3359 22.8635 17.3359 26.5719C17.3359 28.1274 17.8707 29.4816 18.9401 30.6344C20.0234 31.7872 21.4332 32.3635 23.1693 32.3635C24.9193 32.3635 26.329 31.926 27.3984 31.051C28.4818 30.176 29.0234 28.9608 29.0234 27.4052C29.0234 25.2663 27.3637 23.1899 24.0443 21.176C23.1137 20.6205 22.1762 20.051 21.2318 19.4677Z" fill="#D66753"/>
<path d="M204.13 306.162C207.088 308.259 208.567 310.586 208.567 313.141C208.567 315.711 207.657 317.711 205.838 319.141C204.005 320.572 201.845 321.287 199.359 321.287C196.859 321.287 194.762 320.592 193.067 319.204C191.359 317.829 190.505 315.94 190.505 313.537C190.505 312.092 190.928 310.676 191.775 309.287C192.609 307.912 193.72 306.884 195.109 306.204C193.192 305.079 191.866 304.072 191.13 303.183C190.38 302.294 189.838 301.433 189.505 300.599C189.171 299.78 189.005 298.829 189.005 297.745C189.005 295.426 189.97 293.419 191.9 291.724C193.817 290.044 196.393 289.204 199.63 289.204C202.852 289.204 205.407 289.954 207.296 291.454C209.171 292.954 210.109 295.127 210.109 297.974C210.109 300.822 208.88 303.12 206.421 304.87C205.699 305.384 204.935 305.815 204.13 306.162ZM197.38 307.474C195.38 308.544 194.38 310.558 194.38 313.516C194.38 316.016 195.31 317.676 197.171 318.495C197.768 318.759 198.414 318.891 199.109 318.891C200.498 318.891 201.637 318.488 202.525 317.683C203.4 316.877 203.838 315.94 203.838 314.87C203.838 313.801 203.657 312.933 203.296 312.266C202.935 311.599 202.393 310.926 201.671 310.245C200.935 309.565 199.505 308.641 197.38 307.474ZM201.88 304.704C204.477 303.676 205.775 301.308 205.775 297.599C205.775 296.044 205.241 294.69 204.171 293.537C203.088 292.384 201.678 291.808 199.942 291.808C198.192 291.808 196.782 292.245 195.713 293.12C194.63 293.995 194.088 295.211 194.088 296.766C194.088 298.905 195.748 300.981 199.067 302.995C199.998 303.551 200.935 304.12 201.88 304.704Z" fill="#D66753"/>
<path d="M29.0106 49.6764C24.8418 44.0366 22.6238 38.3049 22.6238 38.3049C22.6238 38.3049 20.4058 44.0366 16.237 49.6764C12.0662 55.3142 6.87012 58.9815 6.87012 58.9815C6.87012 58.9815 12.0662 62.6469 16.237 68.2887C20.4058 73.9265 22.6238 79.6582 22.6238 79.6582C22.6238 79.6582 24.8418 73.9265 29.0106 68.2887C33.1814 62.6469 38.3775 58.9815 38.3775 58.9815C38.3775 58.9815 33.1814 55.3142 29.0106 49.6764Z" fill="#D66753"/>
<path d="M207.215 255.366C203.046 249.726 200.828 243.995 200.828 243.995C200.828 243.995 198.61 249.726 194.441 255.366C190.27 261.004 185.074 264.671 185.074 264.671C185.074 264.671 190.27 268.337 194.441 273.978C198.61 279.616 200.828 285.348 200.828 285.348C200.828 285.348 203.046 279.616 207.215 273.978C211.385 268.337 216.582 264.671 216.582 264.671C216.582 264.671 211.385 261.004 207.215 255.366Z" fill="#D66753"/>
<path d="M160.165 241.855C152.859 231.971 148.972 221.927 148.972 221.927C148.972 221.927 145.085 231.971 137.779 241.855C130.469 251.736 121.363 258.163 121.363 258.163C121.363 258.163 130.469 264.586 137.779 274.473C145.085 284.354 148.972 294.399 148.972 294.399C148.972 294.399 152.859 284.354 160.165 274.473C167.474 264.586 176.58 258.163 176.58 258.163C176.58 258.163 167.474 251.736 160.165 241.855Z" fill="#D66753"/>
<path d="M160.165 49.3187C152.859 39.4349 148.972 29.39 148.972 29.39C148.972 29.39 145.085 39.4349 137.779 49.3187C130.469 59.1991 121.363 65.6261 121.363 65.6261C121.363 65.6261 130.469 72.0496 137.779 81.9369C145.085 91.8172 148.972 101.862 148.972 101.862C148.972 101.862 152.859 91.8172 160.165 81.9369C167.474 72.0496 176.58 65.6261 176.58 65.6261C176.58 65.6261 167.474 59.1991 160.165 49.3187Z" fill="#D66753"/>
<path d="M160.165 144.386C152.859 134.503 148.972 124.458 148.972 124.458C148.972 124.458 145.085 134.503 137.779 144.386C130.469 154.267 121.363 160.694 121.363 160.694C121.363 160.694 130.469 167.117 137.779 177.005C145.085 186.885 148.972 196.93 148.972 196.93C148.972 196.93 152.859 186.885 160.165 177.005C167.474 167.117 176.58 160.694 176.58 160.694C176.58 160.694 167.474 154.267 160.165 144.386Z" fill="#D66753"/>
<path d="M83.7437 242.013C76.4378 232.129 72.5508 222.084 72.5508 222.084C72.5508 222.084 68.6638 232.129 61.3579 242.013C54.0486 251.893 44.9424 258.32 44.9424 258.32C44.9424 258.32 54.0486 264.744 61.3579 274.631C68.6638 284.511 72.5508 294.556 72.5508 294.556C72.5508 294.556 76.4378 284.511 83.7437 274.631C91.053 264.744 100.159 258.32 100.159 258.32C100.159 258.32 91.053 251.893 83.7437 242.013Z" fill="#D66753"/>
<path d="M83.7437 49.4762C76.4378 39.5924 72.5508 29.5475 72.5508 29.5475C72.5508 29.5475 68.6638 39.5924 61.3579 49.4762C54.0486 59.3566 44.9424 65.7836 44.9424 65.7836C44.9424 65.7836 54.0486 72.2071 61.3579 82.0944C68.6638 91.9747 72.5508 102.02 72.5508 102.02C72.5508 102.02 76.4378 91.9747 83.7437 82.0944C91.053 72.2071 100.159 65.7836 100.159 65.7836C100.159 65.7836 91.053 59.3566 83.7437 49.4762Z" fill="#D66753"/>
<path d="M83.7437 144.544C76.4378 134.66 72.5508 124.615 72.5508 124.615C72.5508 124.615 68.6638 134.66 61.3579 144.544C54.0486 154.424 44.9424 160.851 44.9424 160.851C44.9424 160.851 54.0486 167.275 61.3579 177.162C68.6638 187.042 72.5508 197.087 72.5508 197.087C72.5508 197.087 76.4378 187.042 83.7437 177.162C91.053 167.275 100.159 160.851 100.159 160.851C100.159 160.851 91.053 154.424 83.7437 144.544Z" fill="#D66753"/>
<path d="M122.144 97.743C114.838 87.8592 110.951 77.8143 110.951 77.8143C110.951 77.8143 107.064 87.8592 99.7583 97.743C92.449 107.623 83.3428 114.05 83.3428 114.05C83.3428 114.05 92.449 120.474 99.7583 130.361C107.064 140.242 110.951 150.286 110.951 150.286C110.951 150.286 114.838 140.242 122.144 130.361C129.453 120.474 138.56 114.05 138.56 114.05C138.56 114.05 129.453 107.623 122.144 97.743Z" fill="#D66753"/>
<path d="M122.144 192.924C114.838 183.041 110.951 172.996 110.951 172.996C110.951 172.996 107.064 183.041 99.7583 192.924C92.449 202.805 83.3428 209.232 83.3428 209.232C83.3428 209.232 92.449 215.655 99.7583 225.543C107.064 235.423 110.951 245.468 110.951 245.468C110.951 245.468 114.838 235.423 122.144 225.543C129.453 215.655 138.56 209.232 138.56 209.232C138.56 209.232 129.453 202.805 122.144 192.924Z" fill="#D66753"/>
</g>
<defs>
<clipPath id="clip0_2009_1504">
<rect width="222.783" height="323.556" fill="white"/>
</clipPath>
</defs>
</svg>
