<svg width="223" height="324" viewBox="0 0 223 324" fill="none" xmlns="http://www.w3.org/2000/svg">
<g clip-path="url(#clip0_2009_1631)">
<path d="M222.449 314.064C222.449 319.1 218.333 323.223 213.287 323.223H9.48079C4.44759 323.223 0.333008 319.1 0.333008 314.064V9.49347C0.333008 4.45701 4.44759 0.333313 9.48079 0.333313H213.287C218.333 0.333313 222.449 4.45701 222.449 9.49347V314.064Z" fill="#F1EAD8" stroke="#2C2C2C" stroke-width="0.666667"/>
<path d="M31.1096 43.0432C23.8699 43.0432 22.9032 50.3078 22.9032 50.3078C22.9032 50.3078 21.9366 43.0432 14.6969 43.0432C9.62931 43.0432 5.04395 46.3005 5.04395 52.4452C5.04395 60.5643 19.7313 68.729 22.9032 80.651C25.9215 68.739 40.7625 60.5643 40.7625 52.4452C40.7625 46.3005 36.1771 43.0432 31.1096 43.0432Z" fill="#D66753"/>
<path d="M192.002 278.995C199.241 278.995 200.208 271.73 200.208 271.73C200.208 271.73 201.175 278.995 208.414 278.995C213.482 278.995 218.067 275.737 218.067 269.593C218.067 261.474 203.38 253.309 200.208 241.387C197.19 253.299 182.349 261.474 182.349 269.593C182.349 275.737 186.934 278.995 192.002 278.995Z" fill="#D66753"/>
<path d="M86.3036 8.79437C74.2872 8.79437 72.6828 20.8521 72.6828 20.8521C72.6828 20.8521 71.0784 8.79437 59.0619 8.79437C50.6508 8.79437 43.04 14.2007 43.04 24.3997C43.04 37.8758 67.4181 51.4275 72.6828 71.2157C77.6925 51.4441 102.326 37.8758 102.326 24.3997C102.326 14.2007 94.7148 8.79437 86.3036 8.79437Z" fill="#D66753"/>
<path d="M59.0626 314.952C71.079 314.952 72.6834 302.894 72.6834 302.894C72.6834 302.894 74.2878 314.952 86.3043 314.952C94.7154 314.952 102.326 309.546 102.326 299.347C102.326 285.871 77.9482 272.319 72.6834 252.531C67.6738 272.303 43.0407 285.871 43.0407 299.347C43.0407 309.546 50.6514 314.952 59.0626 314.952Z" fill="#D66753"/>
<path d="M86.3036 95.7742C74.2872 95.7742 72.6828 107.832 72.6828 107.832C72.6828 107.832 71.0784 95.7742 59.0619 95.7742C50.6508 95.7742 43.04 101.181 43.04 111.379C43.04 124.856 67.4181 138.407 72.6828 158.195C77.6925 138.424 102.326 124.856 102.326 111.379C102.326 101.181 94.7148 95.7742 86.3036 95.7742Z" fill="#D66753"/>
<path d="M59.0626 225.019C71.079 225.019 72.6834 212.961 72.6834 212.961C72.6834 212.961 74.2878 225.019 86.3043 225.019C94.7154 225.019 102.326 219.612 102.326 209.413C102.326 195.937 77.9482 182.386 72.6834 162.597C67.6738 182.369 43.0407 195.937 43.0407 209.413C43.0407 219.612 50.6514 225.019 59.0626 225.019Z" fill="#D66753"/>
<path d="M162.942 9.59271C150.926 9.59271 149.321 21.6504 149.321 21.6504C149.321 21.6504 147.717 9.59271 135.701 9.59271C127.289 9.59271 119.679 14.9991 119.679 25.198C119.679 38.6741 144.057 52.2258 149.321 72.014C154.331 52.2424 178.964 38.6741 178.964 25.198C178.964 14.9991 171.353 9.59271 162.942 9.59271Z" fill="#D66753"/>
<path d="M135.7 315.751C147.717 315.751 149.321 303.693 149.321 303.693C149.321 303.693 150.926 315.751 162.942 315.751C171.353 315.751 178.964 310.344 178.964 300.145C178.964 286.669 154.586 273.118 149.321 253.329C144.311 273.101 119.678 286.669 119.678 300.145C119.678 310.344 127.289 315.751 135.7 315.751Z" fill="#D66753"/>
<path d="M162.942 96.5726C150.926 96.5726 149.321 108.63 149.321 108.63C149.321 108.63 147.717 96.5726 135.701 96.5726C127.289 96.5726 119.679 101.979 119.679 112.178C119.679 125.654 144.057 139.206 149.321 158.994C154.331 139.222 178.964 125.654 178.964 112.178C178.964 101.979 171.353 96.5726 162.942 96.5726Z" fill="#D66753"/>
<path d="M135.7 225.817C147.717 225.817 149.321 213.759 149.321 213.759C149.321 213.759 150.926 225.817 162.942 225.817C171.353 225.817 178.964 220.411 178.964 210.212C178.964 196.736 154.586 183.184 149.321 163.396C144.311 183.167 119.678 196.736 119.678 210.212C119.678 220.411 127.289 225.817 135.7 225.817Z" fill="#D66753"/>
<path d="M124.572 52.3954C112.556 52.3954 110.951 64.4531 110.951 64.4531C110.951 64.4531 109.347 52.3954 97.3305 52.3954C88.9194 52.3954 81.3086 57.8018 81.3086 68.0007C81.3086 81.4768 105.687 95.0285 110.951 114.817C115.961 95.0451 140.594 81.4768 140.594 68.0007C140.594 57.8018 132.983 52.3954 124.572 52.3954Z" fill="#D66753"/>
<path d="M30.5332 21.2467C28.7415 23.6495 26.3596 24.8509 23.3874 24.8509C20.8318 24.8509 18.6374 23.9759 16.804 22.2259C14.9707 20.462 14.054 18.1911 14.054 15.4134C14.054 12.6356 14.9776 10.212 16.8249 8.14254C18.686 6.0592 21.1165 5.01754 24.1165 5.01754C28.0749 5.01754 31.054 6.58698 33.054 9.72587C34.7485 12.3786 35.5957 15.712 35.5957 19.7259C35.5957 25.1842 34.4429 29.4481 32.1374 32.5175C29.8318 35.5731 26.936 37.1009 23.4499 37.1009C20.9915 37.1009 18.9846 36.5245 17.429 35.3717C15.8874 34.205 15.1165 32.8717 15.1165 31.3717C15.1165 29.8717 15.7138 28.837 16.9082 28.2675C17.2693 28.087 17.6582 27.9967 18.0749 27.9967C18.9221 27.9967 19.6096 28.2745 20.1374 28.83C20.679 29.3856 20.9499 30.0523 20.9499 30.83C20.9499 31.9828 20.4638 32.8161 19.4915 33.33C20.1443 34.0939 21.1582 34.4759 22.5332 34.4759C25.0888 34.4759 27.0749 33.5314 28.4915 31.6425C29.9221 29.7536 30.6374 27.1911 30.6374 23.955C30.6374 23.3023 30.6026 22.3995 30.5332 21.2467ZM24.3665 22.1634C25.9221 22.1634 27.2138 21.4967 28.2415 20.1634C29.2693 18.83 29.7832 17.0453 29.7832 14.8092C29.7832 12.5731 29.2554 10.8161 28.1999 9.53837C27.1582 8.26059 25.9151 7.6217 24.4707 7.6217C23.0263 7.6217 21.7763 8.3092 20.7207 9.6842C19.6651 11.0453 19.1374 12.837 19.1374 15.0592C19.1374 17.2814 19.6235 19.0245 20.5957 20.2884C21.5679 21.5384 22.8249 22.1634 24.3665 22.1634Z" fill="#D66753"/>
<path d="M192.882 300.791C194.674 298.388 197.055 297.187 200.028 297.187C202.583 297.187 204.778 298.062 206.611 299.812C208.444 301.576 209.361 303.846 209.361 306.624C209.361 309.402 208.437 311.826 206.59 313.895C204.729 315.978 202.299 317.02 199.299 317.02C195.34 317.02 192.361 315.451 190.361 312.312C188.667 309.659 187.819 306.326 187.819 302.312C187.819 296.853 188.972 292.589 191.278 289.52C193.583 286.464 196.479 284.937 199.965 284.937C202.424 284.937 204.43 285.513 205.986 286.666C207.528 287.832 208.299 289.166 208.299 290.666C208.299 292.166 207.701 293.201 206.507 293.77C206.146 293.951 205.757 294.041 205.34 294.041C204.493 294.041 203.805 293.763 203.278 293.207C202.736 292.652 202.465 291.985 202.465 291.207C202.465 290.055 202.951 289.221 203.924 288.707C203.271 287.944 202.257 287.562 200.882 287.562C198.326 287.562 196.34 288.506 194.924 290.395C193.493 292.284 192.778 294.846 192.778 298.082C192.778 298.735 192.812 299.638 192.882 300.791ZM199.049 299.874C197.493 299.874 196.201 300.541 195.174 301.874C194.146 303.207 193.632 304.992 193.632 307.228C193.632 309.464 194.16 311.221 195.215 312.499C196.257 313.777 197.5 314.416 198.944 314.416C200.389 314.416 201.639 313.728 202.694 312.353C203.75 310.992 204.278 309.201 204.278 306.978C204.278 304.756 203.792 303.013 202.819 301.749C201.847 300.499 200.59 299.874 199.049 299.874Z" fill="#D66753"/>
</g>
<defs>
<clipPath id="clip0_2009_1631">
<rect width="222.783" height="323.556" fill="white"/>
</clipPath>
</defs>
</svg>
