<svg width="141" height="197" viewBox="0 0 141 197" fill="none" xmlns="http://www.w3.org/2000/svg">
<path d="M15.5526 196.913C7.23063 196.934 0.445246 190.285 0.427295 182.11L6.9694e-05 14.9028C-0.0250613 6.6706 6.74955 -0.0178269 15.1038 0.003714L125.609 0.201255C133.923 0.215616 140.691 6.91121 140.691 15.1147V181.981C140.691 190.142 133.948 196.783 125.666 196.791L15.5526 196.913Z" fill="#C9C9C9"/>
<path d="M16.9294 196.507C8.71513 196.507 2.03027 189.847 2.03027 181.661V14.8382C2.03027 6.65623 8.71513 0 16.9294 0H125.822C134.036 0 140.718 6.65623 140.718 14.8382V181.661C140.718 189.843 134.036 196.507 125.822 196.507H16.9294Z" fill="#F1EAD8"/>
<path d="M97.7521 14.145L112.432 32.6918L97.7521 51.2384L83.0684 32.6918L97.7521 14.145Z" fill="#D66753"/>
<path opacity="0.2" d="M97.849 14.2707L97.7521 14.145L83.0684 32.6918L97.7521 51.2384L97.849 51.1129V14.2707Z" fill="#616161"/>
<path d="M70.5206 79.7158L85.2079 98.2482L70.5206 116.802L55.8369 98.2482L70.5206 79.7158Z" fill="#D66753"/>
<path opacity="0.2" d="M70.6176 79.8415L70.5206 79.7158L55.8369 98.2482L70.5206 116.802L70.6176 116.669V79.8415Z" fill="#616161"/>
<path d="M97.7521 57.8589L112.432 76.3912L97.7521 94.9451L83.0684 76.3912L97.7521 57.8589Z" fill="#D66753"/>
<path opacity="0.2" d="M97.849 57.9773L97.7521 57.8589L83.0684 76.3912L97.7521 94.9451L97.849 94.8194V57.9773Z" fill="#616161"/>
<path d="M44.9969 101.559L30.3096 120.105L44.9969 138.652L59.677 120.105L44.9969 101.559Z" fill="#D66753"/>
<path opacity="0.2" d="M44.9014 101.684L44.9983 101.559L59.6784 120.105L44.9983 138.652L44.9014 138.533V101.684Z" fill="#616161"/>
<path d="M44.9969 145.268L30.3096 163.804L44.9969 182.351L59.677 163.804L44.9969 145.268Z" fill="#D66753"/>
<path opacity="0.2" d="M44.9014 145.39L44.9983 145.268L59.6784 163.804L44.9983 182.351L44.9014 182.229V145.39Z" fill="#616161"/>
<path d="M44.9969 14.145L59.677 32.6918L44.9969 51.2384L30.3096 32.6918L44.9969 14.145Z" fill="#D66753"/>
<path opacity="0.2" d="M45.0938 14.2707L44.9969 14.145L30.3096 32.6918L44.9969 51.2384L45.0938 51.1129V14.2707Z" fill="#616161"/>
<path d="M44.9969 57.8589L59.677 76.3912L44.9969 94.9451L30.3096 76.3912L44.9969 57.8589Z" fill="#D66753"/>
<path opacity="0.2" d="M45.0938 57.9773L44.9969 57.8589L30.3096 76.3912L44.9969 94.9451L45.0938 94.8194V57.9773Z" fill="#616161"/>
<path d="M97.7521 101.559L83.0684 120.105L97.7521 138.652L112.432 120.105L97.7521 101.559Z" fill="#D66753"/>
<path opacity="0.2" d="M97.6562 101.684L97.7532 101.559L112.433 120.105L97.7532 138.652L97.6562 138.533V101.684Z" fill="#616161"/>
<path d="M97.7521 145.268L83.0684 163.804L97.7521 182.351L112.432 163.804L97.7521 145.268Z" fill="#D66753"/>
<path opacity="0.2" d="M97.6562 145.39L97.7532 145.268L112.433 163.804L97.7532 182.351L97.6562 182.229V145.39Z" fill="#616161"/>
<path d="M13.7248 44.6905L9.44531 39.2908L13.7248 33.8984L18.0006 39.2908L13.7248 44.6905Z" fill="#D66753"/>
<path opacity="0.2" d="M13.7231 33.8984L13.6836 33.9344V44.6473L13.7231 44.6905L17.999 39.2908L13.7231 33.8984Z" fill="#616161"/>
<path d="M129.945 153.658L134.221 159.047L129.945 164.447L125.673 159.047L129.945 153.658Z" fill="#D66753"/>
<path opacity="0.2" d="M129.974 153.676L129.945 153.658L125.673 159.047L129.945 164.447L129.974 164.407V153.676Z" fill="#616161"/>
<path d="M20.1683 21.1707C20.1683 23.8324 19.5852 25.8836 18.4189 27.3242C17.2664 28.7511 15.6612 29.4646 13.6031 29.4646C12.1625 29.4646 11.0305 29.1902 10.2073 28.6414C9.39783 28.0926 8.99308 27.3791 8.99308 26.501C8.99308 25.9522 9.15772 25.4788 9.48701 25.081C9.83002 24.6693 10.2759 24.4635 10.8247 24.4635C11.3873 24.4635 11.8263 24.6145 12.1419 24.9163C12.4712 25.2044 12.6358 25.5543 12.6358 25.9659C12.6358 26.3638 12.5809 26.7137 12.4712 27.0155H11.8538C11.7577 27.2213 11.7097 27.4889 11.7097 27.8182C11.7097 28.1337 11.8538 28.4219 12.1419 28.6825C12.4437 28.9295 12.8828 29.053 13.459 29.053C14.3783 29.053 15.0437 28.5522 15.4553 27.5506C15.8807 26.549 16.1002 24.8065 16.1139 22.3232C15.4005 23.4345 14.3166 23.9902 12.8622 23.9902C11.6274 23.9902 10.6121 23.5923 9.8163 22.7965C9.02052 22.0007 8.62263 20.91 8.62263 19.5242C8.62263 17.8778 9.16458 16.6498 10.2485 15.8403C11.3461 15.0308 12.7456 14.6261 14.4469 14.6261C18.2611 14.6261 20.1683 16.8076 20.1683 21.1707ZM14.0559 23.311C14.5224 23.311 14.9134 23.1395 15.229 22.7965C15.5582 22.4398 15.7778 22.0282 15.8875 21.5617C16.011 21.0815 16.0728 20.4641 16.0728 19.7095C16.0728 18.9411 16.0659 18.4129 16.0522 18.1248C16.0522 17.8229 16.0385 17.473 16.011 17.0752C15.9836 16.6635 15.9356 16.3686 15.867 16.1902C15.7984 15.9981 15.7092 15.7992 15.5994 15.5934C15.3936 15.2366 15.0163 15.0583 14.4675 15.0583C13.8501 15.0583 13.3904 15.3052 13.0886 15.7992C12.8553 16.1971 12.7181 16.8831 12.677 17.8572C12.6633 18.2002 12.6564 18.6667 12.6564 19.2567C12.6564 19.8329 12.6564 20.2788 12.6564 20.5944C12.6701 20.91 12.6907 21.2461 12.7181 21.6029C12.7456 21.9459 12.7867 22.2066 12.8416 22.3849C12.9102 22.5633 12.9926 22.7348 13.0886 22.8994C13.267 23.1738 13.5894 23.311 14.0559 23.311Z" fill="#D66753"/>
<path d="M123.297 177.428C123.297 174.766 123.88 172.715 125.046 171.274C126.198 169.847 127.804 169.134 129.862 169.134C131.302 169.134 132.434 169.408 133.258 169.957C134.067 170.506 134.472 171.219 134.472 172.097C134.472 172.646 134.307 173.12 133.978 173.517C133.635 173.929 133.189 174.135 132.64 174.135C132.078 174.135 131.639 173.984 131.323 173.682C130.994 173.394 130.829 173.044 130.829 172.632C130.829 172.235 130.884 171.885 130.994 171.583L131.611 171.583C131.707 171.377 131.755 171.11 131.755 170.78C131.755 170.465 131.611 170.177 131.323 169.916C131.021 169.669 130.582 169.545 130.006 169.545C129.087 169.545 128.421 170.046 128.009 171.048C127.584 172.049 127.365 173.792 127.351 176.275C128.064 175.164 129.148 174.608 130.603 174.608C131.837 174.608 132.853 175.006 133.649 175.802C134.444 176.598 134.842 177.688 134.842 179.074C134.842 180.721 134.3 181.949 133.216 182.758C132.119 183.568 130.719 183.972 129.018 183.972C125.204 183.972 123.297 181.791 123.297 177.428ZM129.409 175.287C128.942 175.287 128.551 175.459 128.236 175.802C127.907 176.159 127.687 176.57 127.577 177.037C127.454 177.517 127.392 178.134 127.392 178.889C127.392 179.657 127.399 180.186 127.413 180.474C127.413 180.775 127.426 181.125 127.454 181.523C127.481 181.935 127.529 182.23 127.598 182.408C127.666 182.6 127.756 182.799 127.865 183.005C128.071 183.362 128.449 183.54 128.997 183.54C129.615 183.54 130.074 183.293 130.376 182.799C130.609 182.401 130.747 181.715 130.788 180.741C130.802 180.398 130.808 179.932 130.808 179.342C130.808 178.765 130.808 178.32 130.808 178.004C130.795 177.688 130.774 177.352 130.747 176.996C130.719 176.653 130.678 176.392 130.623 176.213C130.555 176.035 130.472 175.864 130.376 175.699C130.198 175.425 129.875 175.287 129.409 175.287Z" fill="#D66753"/>
</svg>
