<svg width="223" height="324" viewBox="0 0 223 324" fill="none" xmlns="http://www.w3.org/2000/svg">
<g clip-path="url(#clip0_2009_1914)">
<path d="M222.449 314.064C222.449 319.1 218.333 323.223 213.287 323.223H9.48079C4.44759 323.223 0.333008 319.1 0.333008 314.064V9.49347C0.333008 4.45701 4.44759 0.333313 9.48079 0.333313H213.287C218.333 0.333313 222.449 4.45701 222.449 9.49347V314.064Z" fill="#F1EAD8" stroke="#2C2C2C" stroke-width="0.666667"/>
<path d="M8.09798 34.3927C9.25076 34.3927 10.1188 34.2191 10.7021 33.8719C11.2994 33.5108 11.7577 32.9274 12.0771 32.1219L23.3271 5.43439H26.8896L37.1813 32.1219C37.5563 33.0108 37.973 33.6149 38.4313 33.9344C38.8896 34.2399 39.7855 34.3927 41.1188 34.3927V36.6844H28.2646V34.3927C30.098 34.3927 31.1813 34.2677 31.5146 34.0177C31.8619 33.7677 32.0216 33.4969 31.9938 33.2052C31.9799 32.9136 31.8896 32.5524 31.723 32.1219L29.848 26.8927H17.7438L15.598 32.1219C15.2785 32.9552 15.3758 33.5455 15.8896 33.8927C16.4035 34.2261 17.6049 34.3927 19.4938 34.3927V36.6844H8.09798V34.3927ZM29.0355 24.6011L24.2021 11.1011L18.6813 24.6011H29.0355Z" fill="#2C2C2C"/>
<path d="M214.773 289.754C213.62 289.754 212.752 289.928 212.169 290.275C211.572 290.636 211.113 291.219 210.794 292.025L199.544 318.712H195.981L185.69 292.025C185.315 291.136 184.898 290.532 184.44 290.212C183.981 289.907 183.086 289.754 181.752 289.754V287.462H194.606V289.754C192.773 289.754 191.69 289.879 191.356 290.129C191.009 290.379 190.85 290.65 190.877 290.941C190.891 291.233 190.981 291.594 191.148 292.025L193.023 297.254H205.127L207.273 292.025C207.593 291.191 207.495 290.601 206.981 290.254C206.468 289.921 205.266 289.754 203.377 289.754V287.462H214.773V289.754ZM193.836 299.546L198.669 313.046L204.19 299.546H193.836Z" fill="#2C2C2C"/>
<path d="M179.065 183.91C177.03 152.718 113.921 94.0091 111.886 79.3242C109.851 94.0014 46.7421 152.71 44.7072 183.91C43.2861 205.96 58.9603 215.101 73.2135 215.101C88.6454 214.935 101.391 193.569 105.781 189.414C107.816 194.919 92.3018 240.788 87.4583 240.788H136.323C131.479 240.788 115.965 194.919 118 189.414C121.844 193.23 133.112 214.462 150.576 215.101C164.821 215.094 180.487 205.96 179.065 183.91Z" fill="#2C2C2C"/>
<path d="M38.6421 65.7949C38.1553 58.3337 23.0593 44.2903 22.5725 40.7776C22.0857 44.2885 6.98974 58.3319 6.50297 65.7949C6.16303 71.0695 9.91239 73.2562 13.3218 73.2562C17.0132 73.2165 20.062 68.1054 21.1122 67.1117C21.599 68.4285 17.8878 79.4006 16.7292 79.4006H28.4178C27.2592 79.4006 23.5481 68.4285 24.0348 67.1117C24.9544 68.0245 27.6497 73.1032 31.8272 73.2562C35.2347 73.2543 38.982 71.0695 38.6421 65.7949Z" fill="#2C2C2C"/>
<path d="M184.23 258.352C184.717 265.813 199.813 279.856 200.3 283.369C200.786 279.858 215.882 265.815 216.369 258.352C216.709 253.077 212.96 250.891 209.55 250.891C205.859 250.93 202.81 256.041 201.76 257.035C201.273 255.718 204.984 244.746 206.143 244.746H194.454C195.613 244.746 199.324 255.718 198.837 257.035C197.918 256.122 195.222 251.043 191.045 250.891C187.637 250.892 183.89 253.077 184.23 258.352Z" fill="#2C2C2C"/>
</g>
<defs>
<clipPath id="clip0_2009_1914">
<rect width="222.783" height="323.556" fill="white"/>
</clipPath>
</defs>
</svg>
