<svg width="141" height="197" viewBox="0 0 141 197" fill="none" xmlns="http://www.w3.org/2000/svg">
<path d="M15.5526 196.923C7.24138 196.934 0.452422 190.289 0.427291 182.114L5.12003e-05 14.9027C-0.0214897 6.66693 6.75671 -0.0143375 15.111 2.31065e-05L125.605 0.204659C133.923 0.219019 140.694 6.91466 140.694 15.1289V181.977C140.694 190.134 133.952 196.783 125.659 196.787L15.5526 196.923Z" fill="#C9C9C9"/>
<path d="M16.9326 196.507C8.72197 196.507 2.03711 189.847 2.03711 181.665V14.8451C2.03711 6.66315 8.72197 0.00341797 16.9326 0.00341797H125.825C134.032 0.00341797 140.71 6.65956 140.71 14.8451V181.665C140.71 189.843 134.032 196.507 125.825 196.507H16.9326Z" fill="#F1EAD8"/>
<path d="M102.786 91.7141C101.946 107.198 70.8872 130.743 70.8872 130.743C70.8872 130.743 38.9385 107.022 38.9385 91.5131C38.9385 80.8431 47.6734 72.2268 58.3361 72.2268C64.3281 72.2268 71.0021 77.6264 71.0021 77.6264C71.0021 77.6264 77.3423 72.2268 83.4994 72.3237C94.1801 72.4494 103.342 81.0262 102.786 91.7141Z" fill="#D66753"/>
<path opacity="0.2" d="M83.4963 72.3201C77.3356 72.2232 70.9989 77.6227 70.9989 77.6227C70.9989 77.6227 70.9092 77.5582 70.7871 77.4576V130.674C70.8553 130.725 70.8876 130.739 70.8876 130.739C70.8876 130.739 101.942 107.198 102.786 91.7105C103.343 81.0262 94.1805 72.4494 83.4963 72.3201Z" fill="#616161"/>
<path d="M25.995 38.2169C25.8622 40.5864 21.1196 44.1837 21.1196 44.1837C21.1196 44.1837 16.2334 40.5577 16.2334 38.1846C16.2334 36.5511 17.5689 35.2371 19.1989 35.2371C20.1108 35.2371 21.1304 36.0592 21.1304 36.0592C21.1304 36.0592 22.0997 35.2371 23.0511 35.2515C24.6774 35.273 26.0776 36.5834 25.995 38.2169Z" fill="#D66753"/>
<path opacity="0.2" d="M23.052 35.2553C22.1006 35.241 21.1312 36.0631 21.1312 36.0631C21.1312 36.0631 21.1205 36.0595 21.1025 36.0415V44.184C21.1133 44.1912 21.1205 44.1912 21.1205 44.1912C21.1205 44.1912 25.8631 40.5938 25.9959 38.2243C26.0785 36.5837 24.6783 35.2733 23.052 35.2553Z" fill="#616161"/>
<path d="M117.375 160.738C117.504 158.318 122.361 154.642 122.361 154.642C122.361 154.642 127.341 158.34 127.341 160.774C127.341 162.432 125.973 163.775 124.318 163.775C123.377 163.775 122.333 162.939 122.333 162.939C122.333 162.939 121.345 163.775 120.383 163.764C118.717 163.739 117.292 162.4 117.375 160.738Z" fill="#D66753"/>
<path opacity="0.2" d="M120.383 163.764C121.345 163.775 122.333 162.939 122.333 162.939C122.333 162.939 122.34 162.946 122.368 162.964V154.66C122.361 154.653 122.361 154.649 122.361 154.649C122.361 154.649 117.504 158.322 117.375 160.745C117.292 162.4 118.717 163.739 120.383 163.764Z" fill="#616161"/>
<path d="M24.0076 28.7933L22.5052 24.3479H18.4303L16.8456 28.7933H18.3891V29.1843H15.2403V28.7933H16.2076L21.4556 14.6545H23.1432L28.3295 28.7933H29.2762V29.1843H22.5464V28.7933H24.0076ZM20.5501 18.5031L18.6155 23.8951H22.3406L20.5501 18.5031Z" fill="#D66753"/>
<path d="M120.423 170.8L121.925 175.245L126 175.245L127.585 170.8L126.042 170.8L126.042 170.409L129.19 170.409L129.19 170.8L128.223 170.8L122.975 184.938L121.287 184.938L116.101 170.8L115.154 170.8L115.154 170.409L121.884 170.409L121.884 170.8L120.423 170.8ZM123.881 181.09L125.815 175.698L122.09 175.698L123.881 181.09Z" fill="#D66753"/>
</svg>
