<svg width="141" height="198" viewBox="0 0 141 198" fill="none" xmlns="http://www.w3.org/2000/svg">
<path d="M15.5558 197.166C7.2448 197.18 0.448808 190.535 0.427267 182.36L3.55904e-05 15.1451C-0.0179148 6.9166 6.75655 0.228267 15.1071 0.249808L125.61 0.450852C133.921 0.468802 140.692 7.16072 140.792 15.3748V182.228C140.692 190.384 133.95 197.026 125.664 197.033L15.5558 197.166Z" fill="#C9C9C9"/>
<path d="M17.0261 196.749C8.82273 196.749 2.1416 190.09 2.1416 181.908V15.0946C2.1416 6.91279 8.82632 0.253174 17.0261 0.253174H125.913C134.131 0.253174 140.805 6.91279 140.805 15.0946V181.908C140.805 190.09 134.131 196.749 125.913 196.749H17.0261Z" fill="#F1EAD8"/>
<path d="M86.4795 83.0442C86.7451 81.7769 86.9174 80.5024 86.9031 79.1525C86.9318 69.5562 79.1054 61.7765 69.5163 61.7945C59.9092 61.8088 52.1331 69.5526 52.1331 79.1561C52.1331 81.2276 52.4993 83.2021 53.1778 85.0259C44.7052 85.6901 38.0528 92.7625 38.0312 101.397C38.0528 110.469 45.4053 117.811 54.4738 117.821C56.89 117.839 65.481 115.157 67.3192 114.073L56.1792 133.155L83.313 133.133L72.173 114.062C74.3917 115.416 83.8802 117.803 86.1815 117.811C95.8101 117.811 103.597 110.009 103.575 100.399C103.586 90.9172 95.9429 83.1985 86.4795 83.0442Z" fill="#2C2C2C"/>
<path opacity="0.2" d="M86.4803 83.0442C86.746 81.7769 86.9183 80.5024 86.9039 79.1525C86.9326 69.5562 79.1062 61.7765 69.5171 61.7945C69.4992 61.7945 69.4704 61.8016 69.4453 61.8016V133.151L83.3138 133.137L72.1738 114.066C74.3925 115.42 83.881 117.807 86.1823 117.814C95.8109 117.814 103.598 110.013 103.576 100.402C103.587 90.9172 95.9438 83.1985 86.4803 83.0442Z" fill="#616161"/>
<path d="M23.7024 37.6582C23.7311 37.5182 23.7491 37.3818 23.7491 37.2382C23.7491 36.2078 22.9089 35.3678 21.8786 35.3713C20.8446 35.3713 20.0118 36.2042 20.0046 37.2382C20.0046 37.4644 20.0512 37.6726 20.1159 37.8736C19.2112 37.9454 18.4932 38.7029 18.4932 39.6328C18.4932 40.6057 19.2866 41.3955 20.2667 41.3955C20.5288 41.3955 21.4514 41.1119 21.6453 40.9898L20.4426 43.0434H23.3613L22.1551 40.9898C22.3992 41.1406 23.4223 41.3955 23.6665 41.3955C24.7004 41.3955 25.5405 40.5554 25.5405 39.5251C25.5369 38.4983 24.7184 37.6726 23.7024 37.6582Z" fill="#2C2C2C"/>
<path opacity="0.2" d="M23.7047 37.6582C23.7334 37.5182 23.7513 37.3818 23.7513 37.2382C23.7513 36.2078 22.9112 35.3678 21.8809 35.3713C21.8701 35.3713 21.8701 35.3713 21.8701 35.3713V43.0434H23.3636L22.1573 40.9898C22.4015 41.1406 23.4246 41.3955 23.6687 41.3955C24.7027 41.3955 25.5428 40.5554 25.5428 39.5251C25.5392 38.4983 24.7206 37.6726 23.7047 37.6582Z" fill="#616161"/>
<path d="M125.119 161.566C125.147 161.706 125.169 161.839 125.169 161.983C125.169 163.017 124.329 163.853 123.299 163.85C122.268 163.85 121.432 163.017 121.432 161.983C121.432 161.76 121.464 161.552 121.539 161.358C120.628 161.283 119.913 160.525 119.913 159.595C119.913 158.622 120.707 157.829 121.679 157.829C121.941 157.829 122.864 158.12 123.058 158.227L121.87 156.181H124.788L123.582 158.231C123.826 158.084 124.846 157.825 125.094 157.825C126.117 157.825 126.96 158.662 126.96 159.696C126.953 160.726 126.135 161.556 125.119 161.566Z" fill="#2C2C2C"/>
<path opacity="0.2" d="M125.12 161.566C125.148 161.706 125.17 161.839 125.17 161.983C125.17 163.017 124.33 163.853 123.3 163.85C123.3 163.85 123.3 163.85 123.285 163.85V156.181H124.789L123.583 158.231C123.827 158.084 124.847 157.825 125.095 157.825C126.118 157.825 126.961 158.662 126.961 159.696C126.954 160.726 126.136 161.556 125.12 161.566Z" fill="#616161"/>
<path d="M24.0584 28.9684L22.556 24.5231H18.4811L16.8965 28.9684H18.44V29.3594H15.2912V28.9684H16.2585L21.5064 14.8298H23.194L28.3802 28.9684H29.3269V29.3594H22.5972V28.9684H24.0584ZM20.6009 18.6783L18.6664 24.0703H22.3914L20.6009 18.6783Z" fill="#2C2C2C"/>
<path d="M120.472 170.971L121.974 175.417L126.049 175.417L127.634 170.971L126.09 170.971L126.09 170.58L129.239 170.58L129.239 170.971L128.272 170.971L123.024 185.11L121.336 185.11L116.15 170.971L115.203 170.971L115.203 170.58L121.933 170.58L121.933 170.971L120.472 170.971ZM123.929 181.261L125.864 175.869L122.139 175.869L123.929 181.261Z" fill="#2C2C2C"/>
</svg>
