<svg width="141" height="197" viewBox="0 0 141 197" fill="none" xmlns="http://www.w3.org/2000/svg">
<path d="M15.5556 196.912C7.23749 196.923 0.44877 190.275 0.43082 182.1L3.55896e-05 14.8985C-0.0179145 6.6702 6.75645 -0.014337 15.1032 2.30936e-05L125.6 0.208239C133.915 0.222599 140.682 6.91798 140.682 15.1248V181.971C140.682 190.127 133.944 196.776 125.658 196.787L15.5556 196.912Z" fill="#C9C9C9"/>
<path d="M16.9324 196.492C8.72208 196.492 2.04102 189.837 2.04102 181.651V14.8447C2.04102 6.66305 8.72567 0 16.9324 0H125.821C134.035 0 140.713 6.65946 140.713 14.8447V181.655C140.713 189.837 134.035 196.496 125.821 196.496H16.9324V196.492Z" fill="#F1EAD8"/>
<path d="M21.9766 44.692L17.6973 39.2926L21.9766 33.8896L26.2523 39.2926L21.9766 44.692Z" fill="#D66753"/>
<path opacity="0.2" d="M21.976 33.8896L21.9365 33.9327V44.649L21.976 44.692L26.2518 39.2926L21.976 33.8896Z" fill="#616161"/>
<path d="M123.346 153.646L127.618 159.041L123.346 164.441L119.066 159.041L123.346 153.646Z" fill="#D66753"/>
<path opacity="0.2" d="M123.374 153.681L123.346 153.646L119.066 159.041L123.346 164.441L123.374 164.401V153.681Z" fill="#616161"/>
<path d="M71.3706 61.1631L42.0078 98.2372L71.3706 135.326L100.744 98.2372L71.3706 61.1631Z" fill="#D66753"/>
<path opacity="0.2" d="M71.1797 61.4072L71.37 61.1631L100.743 98.2372L71.37 135.326L71.1797 135.092V61.4072Z" fill="#616161"/>
<path d="M24.0124 28.9391L22.5101 24.4938H18.4353L16.8507 28.9391H18.3942V29.3301H15.2455V28.9391H16.2127L21.4605 14.8008H23.1481L28.3342 28.9391H29.2808V29.3301H22.5513V28.9391H24.0124ZM20.555 18.6492L18.6205 24.0411H22.3455L20.555 18.6492Z" fill="#D66753"/>
<path d="M120.424 170.939L121.926 175.384L126.001 175.384L127.586 170.939L126.042 170.939L126.042 170.548L129.191 170.548L129.191 170.939L128.224 170.939L122.976 185.077L121.288 185.077L116.102 170.939L115.156 170.939L115.156 170.548L121.885 170.548L121.885 170.939L120.424 170.939ZM123.881 181.228L125.816 175.837L122.091 175.837L123.881 181.228Z" fill="#D66753"/>
</svg>
