<svg width="143" height="200" viewBox="0 0 143 200" fill="none" xmlns="http://www.w3.org/2000/svg">
<path d="M15.7719 199.785C7.33487 199.799 0.452424 193.053 0.438063 184.763L5.05076e-05 15.208C-0.0214908 6.8643 6.85019 0.0860037 15.3159 0.100365L127.367 0.308592C135.804 0.322953 142.664 7.11204 142.664 15.4413V184.634C142.664 192.902 135.822 199.641 127.424 199.655L15.7719 199.785Z" fill="#C9C9C9"/>
<path d="M17.1444 199.253C8.8151 199.253 2.04395 192.5 2.04395 184.207V15.0502C2.04395 6.74602 8.8151 0 17.1444 0H127.562C135.887 0 142.669 6.74961 142.669 15.0502V184.207C142.669 192.504 135.891 199.253 127.562 199.253H17.1444Z" fill="#F1EAD8"/>
<path d="M127.56 196.187H17.139C10.6874 196.187 5.43848 190.964 5.43848 184.534V15.3841C5.43848 9.20533 10.3463 4.16826 12.9743 3.20608L13.3621 3.0625L124.368 3.06606C135.35 3.92771 139.257 9.99159 139.257 15.3841V184.534C139.257 190.964 134.011 196.187 127.56 196.187ZM14.2991 7.69029C13.1036 8.42988 10.0591 11.5462 10.0591 15.3877V184.537C10.0591 188.415 13.2328 191.563 17.139 191.563H127.556C131.462 191.563 134.636 188.415 134.636 184.537V15.3877C134.636 11.1046 130.701 8.22524 124.099 7.69029H14.2991Z" fill="#2C2C2C"/>
<path d="M61.6238 62.2971L56.6514 64.2646L57.7895 66.3577L77.4746 66.1207L78.8604 64.2646L74.4624 62.2971H61.6238Z" fill="#9C9C9C"/>
<path d="M74.4642 56.1365H61.6328V69.5351H74.4642V56.1365Z" fill="#FDD5B0"/>
<path opacity="0.2" d="M74.4646 58.7216V61.9851C72.8992 63.4751 71.1113 64.4301 69.2264 64.4301H66.803C64.9397 64.4301 63.1877 63.493 61.6367 62.0497V58.8365L62.7389 60.5957L63.0297 56.1331H72.9998L73.2906 60.5957L74.4646 58.7216Z" fill="#616161"/>
<path d="M69.2236 25.6162H68.0101H66.8002C60.4599 25.6162 55.3223 29.9424 55.3223 35.2919C55.3223 35.2919 55.3761 48.3854 55.4731 49.0101C56.3527 54.6575 61.0917 63.3925 66.8002 63.3925H68.0101H69.2236C74.9249 63.3925 79.6675 54.6575 80.5435 49.0101C80.6405 48.3854 80.6943 35.2919 80.6943 35.2919C80.6979 29.9389 75.5603 25.6162 69.2236 25.6162Z" fill="#FDD5B0"/>
<path d="M71.0995 64.2143C73.6808 64.2143 75.7847 62.1284 75.7847 59.5398C75.7883 57.7411 69.2254 50.0437 67.958 50.0437C66.6943 50.0437 60.3252 57.9745 60.3252 59.5111C60.318 62.0996 62.4111 64.1999 64.9961 64.1999H65.0212C65.8936 64.1999 66.7158 63.9558 67.4087 63.5285L68.6832 63.5357C69.3761 63.963 70.2055 64.2143 71.0887 64.2143H71.0995Z" fill="#2C2C2C"/>
<path d="M71.082 58.3658C70.7266 58.3658 70.4465 58.2402 70.2778 58.1397L69.5454 57.6981L66.544 57.6837L65.8008 58.1397C65.5674 58.2797 65.2982 58.3479 65.0145 58.3479C64.5658 58.3479 64.1708 58.1864 63.8657 57.8812C63.6718 57.6837 63.5354 57.454 63.46 57.1955C64.1313 56.14 67.0143 51.7275 68.0124 51.7275C69.0069 51.7275 72.0155 56.1148 72.6473 57.1632C72.5576 57.5258 72.3601 57.7699 72.2309 57.9027C71.9293 58.2043 71.5272 58.3695 71.0964 58.3695H71.082V58.3658Z" fill="#FDD5B0"/>
<path d="M60.6397 41.1367C60.4027 41.4275 60.2627 41.7794 60.2627 42.1563C60.2627 43.1616 61.2141 43.9694 62.3917 43.9694C63.5693 43.9694 64.5243 43.1616 64.5243 42.1563C64.5243 41.7794 64.3771 41.4275 64.1437 41.1367H60.6397Z" fill="#2C2C2C"/>
<path opacity="0.2" d="M68.8375 39.3774H68.0153H67.1895L66.0479 47.7786L68.0153 50.0404L69.972 47.7786L68.8375 39.3774Z" fill="#616161"/>
<path d="M75.38 41.1367C75.6242 41.4275 75.7642 41.7794 75.7642 42.1563C75.7642 43.1616 74.8092 43.9694 73.6352 43.9694C72.4504 43.9694 71.499 43.1616 71.499 42.1563C71.499 41.7794 71.6426 41.4275 71.876 41.1367H75.38Z" fill="#2C2C2C"/>
<g opacity="0.2">
<path d="M70.3965 54.2734H65.7041V55.4295H70.3965V54.2734Z" fill="#616161"/>
</g>
<path d="M71.2891 36.5916L77.6402 37.3598L71.2891 38.1317V36.5916Z" fill="#2C2C2C"/>
<path d="M64.7349 38.1317L58.5166 37.3598L64.7349 36.5916V38.1317Z" fill="#2C2C2C"/>
<path d="M100.049 65.9556L95.1912 70.508L93.0586 76.9704C93.0586 76.9704 100.264 75.5271 100.311 75.7066L100.049 65.9556Z" fill="#9C9C9C"/>
<path d="M36.4795 65.9556L41.3407 70.508L43.4697 76.9704C43.4697 76.9704 36.2641 75.5271 36.2246 75.7066L36.4795 65.9556Z" fill="#9C9C9C"/>
<path d="M39.3983 69.5354L38.7233 70.8925L37.1328 76.0624C37.1328 76.0624 46.1084 73.5564 45.7027 73.8293L39.3983 69.5354Z" fill="#2C2C2C"/>
<path d="M105.886 83.7201L101.039 85.1669L92.3039 87.7734L91.7438 87.9385L80.5352 91.2846L80.2228 91.3816L79.5371 91.579L76.1156 92.6023L74.798 92.9972L70.5292 94.2753L68.4038 94.9036L60.1499 97.3736L58.423 97.8799L58.0353 97.9912L55.8775 98.6374L54.5169 99.0503L50.6071 100.217L44.7156 101.973L44.7048 100.307L44.6617 95.4529L40.7807 102.016V103.14L36.6735 104.371L26.8184 107.311V93.4855L26.8507 92.771V92.7135V92.7028L26.9476 90.624L27.2815 89.8486L29.2202 85.2423L31.1625 80.6504L33.2341 75.7318L34.0096 73.89L34.882 71.8149L36.3252 71.4666L38.7235 70.8994L38.8384 70.8599L39.0251 70.824L39.3195 70.7414L39.4738 70.7127L39.9837 70.5834L40.6838 70.4111H40.6945L40.7663 70.386L41.1253 70.3034L47.6775 68.7237L48.3704 68.5514L48.672 68.4868L49.3829 68.2965L54.6282 67.0363L54.7215 67.0184L55.3211 66.864L57.3065 66.3722L57.7445 66.2716L61.6327 65.3381H74.4641L77.5086 66.0813L78.2482 66.2608L78.6718 66.3578L83.3212 67.4923L87.5145 68.5119L95.3125 70.3968L95.7613 70.5081L97.5671 70.9497L100.048 71.5564L100.199 71.578L101.136 71.8149L103.075 76.6761L105.02 81.5516L105.566 82.9015L105.886 83.7201Z" fill="#ABABAB"/>
<path opacity="0.2" d="M83.3224 67.4924L69.8232 80.9988L69.2416 81.5768L66.9474 83.8674L66.9259 83.8925L63.2172 87.6012L63.0234 87.7987L56.5322 94.2826L54.5433 96.2788L53.6277 97.1871L52.6333 98.1888L50.6084 100.217L44.7168 101.973L44.7061 100.307L50.7484 94.2826L51.7501 93.2737L52.4502 92.5772L54.5253 90.4877L55.1608 89.8487L55.7962 89.224L56.0583 88.9583L63.6983 81.3291L63.8204 81.2106L64.1076 80.9198L64.1148 80.9054L66.3048 78.7118L66.8613 78.1517L78.6731 66.3579L83.3224 67.4924Z" fill="#F1EAD8"/>
<path opacity="0.2" d="M100.049 71.5565L91.9349 79.6632L80.4319 91.1734L80.2237 91.3816L79.5379 91.5791L76.1164 92.6023L74.7988 92.9973L70.5301 94.2753L68.4047 94.9036L60.1508 97.3737L58.4239 97.88L58.0361 97.9912L58.3377 97.6896L59.5584 96.469L65.353 90.6851L65.9418 90.0964L69.0653 86.9693L69.4279 86.6067L72.4724 83.555L87.5154 68.512L95.3133 70.3969L95.7621 70.5081L97.568 70.9497L100.049 71.5565Z" fill="#F1EAD8"/>
<path opacity="0.2" d="M80.5341 91.2851L80.2218 91.382L79.536 91.5795L76.1181 92.6027L74.8005 92.9976L70.5318 94.2721L68.4064 94.904L60.1525 97.3741L58.4256 97.8803L58.0378 97.9916L55.8801 98.6378L54.5194 99.0507L53.629 97.1874L51.7514 93.274L45.6911 80.6652L42.7579 74.5295L42.4778 73.9443L42.4706 73.9263L40.8299 70.5049V70.4977L40.7725 70.3864L41.1315 70.3039L47.6836 68.7242L48.3766 68.5518L48.6781 68.4872L49.389 68.2969L54.6343 67.0331L54.7276 67.0152L55.3272 66.8608C57.1833 68.7529 61.5706 73.0468 66.8662 78.1485C67.8248 79.0747 68.8192 80.0261 69.8317 80.9991C70.6969 81.8392 71.5729 82.6937 72.4777 83.5553C75.1021 86.0792 77.8056 88.6749 80.4372 91.1737C80.4587 91.2061 80.5018 91.2384 80.5341 91.2851Z" fill="#616161"/>
<path d="M68.4032 94.9035L60.1492 97.3736L58.4223 97.8799L58.0346 97.9911L55.8769 98.6374L54.5377 96.2822L52.4446 92.5807L45.6843 80.672L43.2824 76.4247L42.2843 74.6512L39.9794 70.587L39.3906 69.5387L40.0979 69.3556L53.6868 65.9592C53.8269 66.1567 54.15 66.5193 54.6203 67.0399C56.5411 69.0971 60.9893 73.5166 66.2957 78.7152C67.2507 79.6487 68.2272 80.6145 69.2361 81.5803C70.1085 82.4311 70.9881 83.3 71.8713 84.158C74.406 86.6353 77.0125 89.1556 79.5292 91.5826L76.1113 92.6058L74.7937 93.0007L70.525 94.2752L68.4032 94.9035Z" fill="#2C2C2C"/>
<path d="M56.6514 64.2649L57.3084 66.3867L67.4687 72.2819L67.1707 65.3384L56.6514 64.2649Z" fill="#F9F9F9"/>
<path d="M78.8629 64.2649L78.1987 66.3867L68.042 72.2819L68.3364 65.3384L78.8629 64.2649Z" fill="#F9F9F9"/>
<path opacity="0.2" d="M66.9454 83.8673L68.8339 85.8742C68.1553 85.1813 67.5127 84.5099 66.9239 83.8924C65.7965 82.7256 64.8415 81.7168 64.102 80.9197C63.3911 80.1694 62.8813 79.6273 62.5977 79.3257L64.1127 80.9089L66.9454 83.8673Z" fill="#616161"/>
<path opacity="0.2" d="M69.4269 86.6065C71.6888 88.7391 73.9614 90.7891 76.1191 92.6022L74.8015 92.9971L69.0643 86.9692L66.5225 84.3016L66.2424 83.9964L63.7005 81.3289L58.6527 76.019L58.5234 75.8682C58.5629 75.9148 58.606 75.9687 58.6635 76.0082C60.2288 77.6166 61.9772 79.3866 63.8226 81.2068C64.6771 82.0577 65.5675 82.923 66.465 83.781C66.5584 83.8744 66.6553 83.9641 66.7486 84.0718C67.6318 84.9191 68.5222 85.7664 69.4269 86.6065Z" fill="#616161"/>
<path opacity="0.2" d="M60.1512 97.3738L58.4243 97.8801L58.3381 97.6898L56.5322 94.2827L54.5253 90.4878L52.3137 86.2585L49.6318 81.5266L55.1608 89.8488L57.4764 93.3385L59.5588 96.4691L60.1512 97.3738Z" fill="#616161"/>
<path opacity="0.2" d="M70.5313 94.2754L68.4059 94.9037L66.8298 92.5234L65.3542 90.6852L63.0241 87.7987L61.9004 86.4021L63.218 87.6012L65.943 90.0965L70.5313 94.2754Z" fill="#616161"/>
<path opacity="0.2" d="M44.6622 95.4531L40.7812 102.016V103.14L36.6739 104.371L33.6797 103.764L37.7977 101.89L44.6622 95.4531Z" fill="#616161"/>
<path opacity="0.2" d="M105.887 83.7203L101.04 85.1672L92.305 87.7737L91.7449 87.9388L91.2207 81.3795L91.9351 79.6634L93.0625 76.9671L95.7623 70.5083L97.5682 70.9499L100.049 71.5567L100.2 71.5782L101.137 71.8151L103.076 76.6763L105.021 81.5518L105.567 82.9017L105.887 83.7203Z" fill="#616161"/>
<path d="M101.037 85.1669L92.2986 87.7769L92.252 81.5766L94.4851 77.1211L94.722 76.6365L97.5619 70.9496L100.046 65.9556C100.046 65.9556 106.387 73.9474 106.577 73.7966C106.62 73.7966 106.803 74.7373 107.051 76.1805C107.342 77.9397 107.747 80.478 108.146 83.0486L106.11 83.641L105.884 83.72L101.037 85.1669Z" fill="#ABABAB"/>
<path opacity="0.2" d="M44.8326 82.0794L44.6602 93.1049L29.6352 90.5558C29.6352 90.5558 29.6172 89.9491 29.7106 89.3495L34.0081 73.8865L34.8805 71.8113L38.8369 70.8563L39.0236 70.8168L39.3144 70.7343L39.4688 70.7056L44.8326 82.0794Z" fill="#616161"/>
<path d="M44.661 94.3761L30.4725 93.1052L26.8535 92.7677H26.8428C26.8428 92.7677 26.8428 92.7497 26.8535 92.7102C26.8535 92.7031 26.8535 92.6994 26.8535 92.6994C26.893 92.4158 27.0546 91.3424 27.2844 89.8452C28.0778 84.5281 29.6934 73.7898 29.8657 73.7898C30.074 73.9406 36.3999 65.9487 36.3999 65.9487L36.443 66.0493L38.8413 70.853L44.1907 81.5662L44.661 94.3761Z" fill="#ABABAB"/>
<path opacity="0.2" d="M108.153 83.0417H108.142L106.106 83.6412L105.891 83.7202L104.857 84.029L101.04 85.1635L103.069 76.6762L103.561 74.6011L100.067 65.9702C100.437 66.4298 106.293 73.7969 106.58 73.7969C106.627 73.7969 106.799 74.7447 107.058 76.1879C107.076 76.3136 107.104 76.4321 107.126 76.5721C107.216 77.1465 107.323 77.7569 107.431 78.4534C107.46 78.7298 107.506 79.0206 107.571 79.3186C107.571 79.4048 107.6 79.5161 107.618 79.6274C107.693 80.1193 107.768 80.6111 107.844 81.1353C107.862 81.2107 107.862 81.2861 107.876 81.3722C107.987 81.9143 108.066 82.4816 108.153 83.0417Z" fill="#F1EAD8"/>
<path opacity="0.2" d="M36.4326 66.0633L32.9681 74.6008L33.2266 75.7281L36.2137 88.1934L30.4657 93.1084L29.2055 94.1891C29.2055 94.1891 27.3422 101.764 27.1232 102.016C27.0766 102.08 26.9832 102.048 26.8145 101.983V93.489L26.8432 92.7709C26.8432 92.7709 26.8432 92.7494 26.8432 92.7243C26.8432 92.7063 26.8432 92.7063 26.8432 92.7063L26.9365 90.6276L27.2776 89.8521V89.8054C27.8341 86.19 28.7424 80.101 29.3204 76.5718C29.6005 74.8916 29.8123 73.7966 29.859 73.7966C30.1713 73.7966 36.3896 65.9556 36.3896 65.9556H36.4721L36.4326 66.0633Z" fill="#F1EAD8"/>
<path d="M79.5137 25.5479L74.6812 22.4998C72.6815 20.3242 68.0537 17.2976 68.0537 17.2976C68.0537 17.2976 62.8192 20.7047 60.8553 22.805L56.504 25.5479L53.5205 30.6784L54.6981 42.8097L56.2419 43.718L56.5076 32.5596C56.5076 32.5596 56.7876 28.6678 60.1301 28.6678C63.4726 28.6678 68.0142 31.0051 68.0142 31.0051C68.0142 31.0051 72.6241 28.6678 75.8983 28.6678C79.169 28.6678 79.5137 32.5596 79.5137 32.5596L79.7794 43.718L81.3232 42.8097L82.5007 30.6784L79.5137 25.5479Z" fill="#2C2C2C"/>
<path d="M31.6433 83.8459C31.3346 85.72 30.1786 87.0771 29.0692 86.8976C28.685 86.833 28.3583 86.5852 28.1106 86.2334L28.7568 90.0534L27.2812 89.8021C27.8377 86.1867 28.7461 80.0977 29.3241 76.5685C29.3887 76.4931 29.4174 76.4429 29.4174 76.4429C29.4174 76.4429 31.8516 82.5462 31.6433 83.8459Z" fill="#2C2C2C"/>
<path d="M108.141 83.0417L106.105 83.6413L105.89 83.7203L104.856 84.029C104.823 83.9608 104.823 83.9033 104.809 83.8459C104.597 82.5462 107.031 76.4429 107.031 76.4429C107.031 76.4429 107.06 76.4931 107.125 76.5685C107.214 77.143 107.322 77.7533 107.43 78.4498C107.459 78.7263 107.505 79.0171 107.57 79.3151C107.57 79.4012 107.599 79.5125 107.617 79.6238C107.692 80.1157 107.767 80.6075 107.843 81.1317C107.861 81.2071 107.861 81.2825 107.875 81.3687C107.968 81.9144 108.047 82.4744 108.141 83.0417Z" fill="#2C2C2C"/>
<path opacity="0.2" d="M57.7331 72.3176C57.033 70.9785 48.3662 67.697 48.3662 67.697C48.3662 67.697 44.8837 76.389 45.4438 77.6922C46.4096 79.9541 49.052 80.9485 51.2599 79.9002C51.9959 79.5447 52.5775 79.017 52.9761 78.3744L51.8021 83.6161L57.9988 81.1855L53.9957 77.9005C54.7173 77.9938 55.4677 77.8861 56.1462 77.5629C58.0993 76.6367 58.7743 74.2671 57.7331 72.3176Z" fill="#616161"/>
<path d="M57.4577 72.4145C56.8366 71.1256 48.5575 68.354 48.5575 68.354C48.5575 68.354 45.8685 76.6761 46.4034 77.7783C47.3046 79.6273 49.5269 80.3956 51.3723 79.4908C52.0077 79.1892 52.514 78.7261 52.8694 78.1732L52.514 82.7723L57.6085 80.3022L53.7777 77.7352C54.4275 77.7927 55.1025 77.6814 55.7344 77.3798C57.5833 76.4858 58.3588 74.2599 57.4577 72.4145Z" fill="#E3B605"/>
<path opacity="0.2" d="M53.8771 79.1031L55.4424 80.1551L53.7335 80.988L53.8771 79.1031ZM49.7555 78.7908C48.7323 78.7908 47.8204 78.2236 47.3752 77.3045C47.2926 76.6654 48.2261 73.0464 49.2529 69.7327C52.5559 70.8923 56.0312 72.3535 56.5338 72.9531C56.7995 73.5168 56.8426 74.2277 56.6092 74.8918C56.3795 75.5632 55.8984 76.1053 55.2629 76.4141C54.9003 76.5828 54.5126 76.6725 54.114 76.6725C54.0315 76.6725 53.9525 76.6726 53.8771 76.6654L51.9563 77.5989C51.705 77.9974 51.3424 78.3169 50.9044 78.5287C50.5382 78.6975 50.1505 78.7908 49.7555 78.7908Z" fill="#616161"/>
<path opacity="0.2" d="M108.151 83.0418C108.111 82.7689 108.065 82.4853 108.014 82.2089C107.939 81.7026 107.86 81.2144 107.781 80.7261C107.724 80.3492 107.666 79.9901 107.616 79.6275C107.598 79.5162 107.569 79.4085 107.569 79.3187C107.505 79.0207 107.458 78.7299 107.429 78.4535C107.322 77.7606 107.21 77.1502 107.124 76.5722C107.106 76.4322 107.077 76.3137 107.056 76.1881C106.991 75.8398 106.937 75.5239 106.887 75.2403C106.83 74.91 106.776 74.6407 106.729 74.4181C106.654 74.0232 106.603 73.7934 106.578 73.7934C106.291 73.7934 100.435 66.4263 100.066 65.9667L100.073 65.9919C100.066 65.9775 100.048 65.9524 100.048 65.9524L95.3122 70.3935L87.5143 68.5086L83.3209 67.489L78.6716 66.3581L78.248 66.2611L78.8619 64.265L74.7547 62.4268C75.3866 61.6226 75.7851 60.6352 75.7851 59.5366C75.7851 59.5295 75.7779 59.5223 75.7779 59.5151C78.2731 56.4778 80.0431 52.2485 80.5457 49.0065C80.5852 48.7373 80.6211 46.0949 80.6498 43.2011L81.3248 42.8062L82.5024 30.6749L79.5153 25.5445L74.6829 22.4964C72.6831 20.3207 68.0553 17.2942 68.0553 17.2942C68.0553 17.2942 67.962 17.3552 67.8076 17.4593V95.0906L68.4072 94.9003L70.5326 94.2684L74.8014 92.9939L76.1189 92.5989L79.5368 91.5757L80.2226 91.3783L80.5349 91.2813L91.7436 87.9353L92.3037 87.7701L101.042 85.16L104.859 84.0255L105.893 83.7167L105.997 83.6773L106.115 83.6342L108.151 83.0418C108.147 83.049 108.147 83.049 108.151 83.0418Z" fill="#616161"/>
<path d="M73.3441 138.381L78.3201 136.414L77.1784 134.317L57.4968 134.551L56.1074 136.414L60.509 138.381H73.3441Z" fill="#9C9C9C"/>
<path d="M73.3468 131.14H60.5117V144.531H73.3468V131.14Z" fill="#FDD5B0"/>
<path opacity="0.2" d="M60.5117 141.95V138.69C62.0806 137.2 63.8686 136.252 65.757 136.252H68.1804C70.0366 136.252 71.7922 137.185 73.3503 138.629V141.835L72.2482 140.076L71.9538 144.535H61.9837L61.6893 140.076L60.5117 141.95Z" fill="#616161"/>
<path d="M65.7556 175.063H66.9619H68.1718C74.5085 175.063 79.6497 170.729 79.6497 165.38C79.6497 165.38 79.5995 152.29 79.4989 151.658C78.6193 146.014 73.8838 137.286 68.1754 137.286H66.9655H65.7592C60.0507 137.286 55.3081 146.014 54.432 151.658C54.3315 152.29 54.2813 165.38 54.2813 165.38C54.2777 170.729 59.4117 175.063 65.7556 175.063Z" fill="#FDD5B0"/>
<path d="M63.8705 136.46C61.2963 136.46 59.1924 138.546 59.1924 141.135C59.1816 142.937 65.7517 150.631 67.0119 150.631C68.2792 150.631 74.6483 142.693 74.6519 141.163C74.6519 138.582 72.5659 136.482 69.9738 136.482H69.9523C69.0763 136.482 68.2577 136.719 67.5612 137.142L66.2902 137.135C65.5937 136.715 64.768 136.46 63.8848 136.46H63.8705Z" fill="#2C2C2C"/>
<path d="M63.8889 142.309C64.2443 142.309 64.5279 142.434 64.6931 142.539L65.4291 142.973L68.4305 142.995L69.1773 142.539C69.407 142.391 69.6727 142.32 69.9564 142.32C70.4051 142.32 70.8036 142.488 71.1088 142.79C71.3027 142.987 71.4391 143.224 71.5145 143.483C70.8467 144.528 67.9602 148.94 66.9657 148.94C65.9676 148.94 62.959 144.556 62.3271 143.511C62.4169 143.145 62.6179 142.901 62.7508 142.775C63.0452 142.474 63.4545 142.305 63.8781 142.305H63.8889V142.309Z" fill="#FDD5B0"/>
<path d="M74.3355 159.534C74.5688 159.247 74.716 158.895 74.716 158.511C74.716 157.517 73.761 156.695 72.5834 156.695C71.4023 156.695 70.4473 157.517 70.4473 158.511C70.4473 158.895 70.5945 159.247 70.8314 159.534H74.3355Z" fill="#2C2C2C"/>
<path opacity="0.2" d="M66.1436 161.297H66.9622H67.788L68.9225 152.889L66.9622 150.631L65.002 152.889L66.1436 161.297Z" fill="#616161"/>
<path d="M59.5909 159.534C59.3503 159.247 59.2139 158.895 59.2139 158.511C59.2139 157.517 60.1689 156.695 61.3429 156.695C62.5241 156.695 63.4791 157.517 63.4791 158.511C63.4791 158.895 63.3283 159.247 63.0949 159.534H59.5909Z" fill="#2C2C2C"/>
<g opacity="0.2">
<path d="M69.2679 145.239H64.5791V146.395H69.2679V145.239Z" fill="#616161"/>
</g>
<path d="M63.6825 164.08L57.335 163.308L63.6825 162.543V164.08Z" fill="#2C2C2C"/>
<path d="M70.2373 162.543L76.4627 163.308L70.2373 164.08V162.543Z" fill="#2C2C2C"/>
<path d="M34.9196 134.712L39.7772 130.16L41.9134 123.697C41.9134 123.697 34.7042 125.141 34.6611 124.965L34.9196 134.712Z" fill="#9C9C9C"/>
<path d="M98.4921 134.712L93.6309 130.16L91.502 123.697C91.502 123.697 98.7039 125.141 98.7506 124.965L98.4921 134.712Z" fill="#9C9C9C"/>
<path d="M95.5721 131.14L96.2471 129.783L97.8375 124.609C97.8375 124.609 88.862 127.115 89.2641 126.849L95.5721 131.14Z" fill="#2C2C2C"/>
<path d="M29.0859 116.955L33.9291 115.505L42.6713 112.898L43.2278 112.74L54.4364 109.39L54.7488 109.293L55.4345 109.092L58.856 108.073L60.1736 107.678L64.4424 106.4L66.5642 105.768L74.8217 103.298L76.5486 102.802L76.9364 102.687L79.0905 102.038L80.4512 101.628L84.3681 100.458L90.2561 98.7023L90.2668 100.365L90.3063 105.222L94.1873 98.6593V97.5355L98.2981 96.3005L108.15 93.3601V107.19L108.125 107.9V107.954V107.976L108.024 110.051L107.694 110.819L105.751 115.426L103.806 120.025L101.738 124.947L100.955 126.785L100.093 128.86L98.6428 129.212L96.2481 129.779L96.1297 129.812L95.9501 129.855L95.6521 129.93L95.4942 129.962L94.9844 130.095L94.2879 130.257H94.2735L94.2017 130.285L93.8463 130.364L87.2941 131.958L86.594 132.127L86.2996 132.188L85.5888 132.371L80.347 133.642L80.2501 133.66L79.647 133.811L77.6651 134.296L77.2235 134.396L73.3425 135.333H60.5075L57.4594 134.594L56.7198 134.418L56.3034 134.317L51.6468 133.183L47.4535 132.163L39.6591 130.271L39.2068 130.163L37.4081 129.722L34.92 129.122L34.7657 129.09L33.8358 128.86L31.8971 123.999L29.9548 119.12L29.4055 117.777L29.0859 116.955Z" fill="#ABABAB"/>
<path opacity="0.2" d="M51.6484 133.183L65.1548 119.676L65.7293 119.102L68.0234 116.804L68.0414 116.779L71.7537 113.074L71.9511 112.877L78.4387 106.393L80.4348 104.396L81.3431 103.481L82.3448 102.49L84.3697 100.458L90.2576 98.7024L90.2684 100.365L84.2261 106.393L83.2244 107.402L82.5243 108.094L80.442 110.188L79.8101 110.819L79.1747 111.451L78.9125 111.71L71.2762 119.346L71.1541 119.461L70.8633 119.748L70.8561 119.763L68.6697 121.96L68.1096 122.524L56.305 134.317L51.6484 133.183Z" fill="#F1EAD8"/>
<path opacity="0.2" d="M34.9209 129.122L43.0384 121.008L54.545 109.495L54.7497 109.294L55.4354 109.092L58.8569 108.073L60.1745 107.678L64.4432 106.4L66.5651 105.768L74.8226 103.298L76.5495 102.802L76.9372 102.688L76.6392 102.982L75.4149 104.199L69.6239 109.997L69.0351 110.582L65.9117 113.706L65.5454 114.065L62.5009 117.12L47.4543 132.163L39.66 130.271L39.2076 130.163L37.4089 129.722L34.9209 129.122Z" fill="#F1EAD8"/>
<path opacity="0.2" d="M54.4395 109.39L54.7518 109.297L55.4375 109.092L58.859 108.073L60.1802 107.681L64.4454 106.403L66.5708 105.771L74.8247 103.301L76.5516 102.802L76.9394 102.687L79.0935 102.037L80.4578 101.628L81.3481 103.484L83.2294 107.405L89.2897 120.014L92.2229 126.149L92.4994 126.735L92.5173 126.756L94.1544 130.167V130.181L94.2119 130.289L93.8564 130.368L87.3007 131.958L86.6042 132.127L86.3062 132.192L85.5954 132.375L80.3536 133.646L80.2567 133.667L79.6535 133.818C77.7974 131.919 73.4102 127.625 68.1146 122.527C67.1632 121.604 66.1651 120.653 65.1598 119.68C64.2874 118.836 63.4114 117.985 62.5103 117.124C59.8822 114.6 57.1788 112.004 54.5508 109.498C54.5149 109.469 54.4718 109.43 54.4395 109.39Z" fill="#616161"/>
<path d="M66.5646 105.768L74.8184 103.298L76.5453 102.799L76.9331 102.684L79.0872 102.034L80.4336 104.393L82.5195 108.091L89.2798 120.003L91.6781 124.247L92.6798 126.024L94.9847 130.092L95.5735 131.136L94.8698 131.323L81.2808 134.709C81.1444 134.511 80.8213 134.149 80.351 133.635C78.4302 131.578 73.9783 127.158 68.672 121.953C67.7134 121.019 66.7405 120.061 65.7352 119.095C64.8628 118.237 63.9868 117.375 63.0964 116.521C60.5653 114.04 57.9552 111.519 55.4385 109.085L58.8599 108.066L60.1811 107.674L64.4463 106.396L66.5646 105.768Z" fill="#2C2C2C"/>
<path d="M78.3193 136.414L77.6623 134.285L67.502 128.394L67.7964 135.333L78.3193 136.414Z" fill="#F9F9F9"/>
<path d="M56.1074 136.414L56.768 134.285L66.9247 128.394L66.6339 135.333L56.1074 136.414Z" fill="#F9F9F9"/>
<path opacity="0.2" d="M68.0232 116.804L66.1348 114.801C66.8097 115.494 67.456 116.165 68.0412 116.779C69.1685 117.95 70.1235 118.955 70.8631 119.748C71.5704 120.502 72.0909 121.048 72.3674 121.353L70.8523 119.763L68.0232 116.804Z" fill="#616161"/>
<path opacity="0.2" d="M65.545 114.065C63.2904 111.936 61.0106 109.879 58.8564 108.069L60.1777 107.678L65.9148 113.706L68.4531 116.374L68.7367 116.671L71.2822 119.346L76.33 124.656L76.4593 124.8C76.4126 124.764 76.3731 124.706 76.3157 124.67C74.7539 123.062 73.0055 121.289 71.1565 119.465C70.2985 118.617 69.4081 117.745 68.5177 116.894C68.4244 116.794 68.3274 116.704 68.2305 116.603C67.3401 115.749 66.4497 114.905 65.545 114.065Z" fill="#616161"/>
<path opacity="0.2" d="M74.8232 103.298L76.5501 102.802L76.6399 102.982L78.4386 106.392L80.4419 110.187L82.6679 114.413L85.3462 119.149L79.8101 110.819L77.498 107.337L75.4156 104.199L74.8232 103.298Z" fill="#616161"/>
<path opacity="0.2" d="M64.4453 106.4L66.5671 105.768L68.1468 108.152L69.626 109.997L71.9525 112.877L73.0762 114.273L71.755 113.074L69.0372 110.583L64.4453 106.4Z" fill="#616161"/>
<path opacity="0.2" d="M90.3057 105.222L94.1867 98.6591V97.5353L98.2975 96.3003L101.288 96.9106L97.1773 98.7847L90.3057 105.222Z" fill="#616161"/>
<path opacity="0.2" d="M29.0859 116.955L33.9291 115.504L42.6713 112.898L43.2278 112.74L43.7591 119.292L43.0375 121.008L41.9102 123.708L39.2068 130.163L37.4081 129.721L34.92 129.122L34.7657 129.09L33.8358 128.86L31.8971 123.999L29.9548 119.12L29.4055 117.777L29.0859 116.955Z" fill="#616161"/>
<path d="M33.9302 115.504L42.6724 112.898L42.7191 119.098L40.4824 123.554L40.249 124.038L37.4091 129.718L34.9211 134.712C34.9211 134.712 28.5844 126.727 28.3905 126.875C28.3474 126.875 28.1679 125.93 27.9166 124.494C27.6294 122.735 27.2237 120.19 26.8252 117.623L28.8644 117.03L29.0906 116.955L33.9302 115.504Z" fill="#ABABAB"/>
<path opacity="0.2" d="M90.1377 118.596L90.3065 107.57L105.331 110.116C105.331 110.116 105.357 110.722 105.256 111.325L100.959 126.788L100.093 128.86L96.1298 129.815L95.9503 129.858L95.6523 129.934L95.4943 129.966L90.1377 118.596Z" fill="#616161"/>
<path d="M90.3057 106.296L104.498 107.567L108.124 107.897H108.131C108.131 107.897 108.131 107.922 108.124 107.954C108.124 107.969 108.124 107.969 108.124 107.976C108.077 108.26 107.916 109.333 107.693 110.819C106.9 116.14 105.28 126.878 105.108 126.878C104.903 126.731 98.5703 134.716 98.5703 134.716L98.5344 134.622L96.129 129.815L90.7796 119.106L90.3057 106.296Z" fill="#ABABAB"/>
<path opacity="0.2" d="M26.8184 117.633H26.8327L28.8684 117.034L29.0802 116.958L30.1106 116.65L33.9341 115.508L31.8985 123.995L31.4067 126.07L34.9071 134.705C34.5373 134.242 28.6817 126.878 28.3909 126.878C28.3442 126.878 28.1718 125.934 27.9133 124.491C27.8954 124.365 27.8667 124.246 27.8487 124.103C27.7554 123.536 27.6477 122.914 27.5436 122.229C27.5113 121.945 27.461 121.654 27.4 121.363C27.4 121.27 27.3712 121.17 27.3569 121.055C27.2779 120.563 27.2025 120.071 27.1271 119.547C27.1092 119.464 27.1092 119.389 27.0912 119.313C26.9871 118.753 26.9081 118.186 26.8184 117.633Z" fill="#F1EAD8"/>
<path opacity="0.2" d="M98.5392 134.608L102.007 126.067L101.742 124.95L98.7582 112.485L104.503 107.566L105.763 106.489C105.763 106.489 107.63 98.9103 107.845 98.6626C107.892 98.598 107.985 98.6303 108.15 98.6877V107.182L108.121 107.907C108.121 107.907 108.121 107.918 108.121 107.95C108.121 107.965 108.121 107.965 108.121 107.965L108.028 110.047L107.694 110.816V110.862C107.138 114.485 106.229 120.574 105.644 124.099C105.368 125.783 105.152 126.875 105.106 126.875C104.801 126.875 98.5751 134.716 98.5751 134.716H98.4961L98.5392 134.608Z" fill="#F1EAD8"/>
<path d="M55.4558 175.124L60.2919 178.175C62.2844 180.347 66.9122 183.378 66.9122 183.378C66.9122 183.378 72.1539 179.97 74.1106 177.867L78.4583 175.124L81.4454 169.99L80.2642 157.866L78.7204 156.954L78.4548 168.116C78.4548 168.116 78.1747 172 74.8358 172C71.4933 172 66.9517 169.667 66.9517 169.667C66.9517 169.667 62.3419 172 59.0676 172C55.8005 172 55.4487 168.116 55.4487 168.116L55.183 156.954L53.6392 157.866L52.458 169.99L55.4558 175.124Z" fill="#2C2C2C"/>
<path d="M103.335 116.829C103.643 114.955 104.799 113.595 105.905 113.781C106.293 113.839 106.616 114.083 106.864 114.445L106.214 110.622L107.697 110.866C107.14 114.488 106.232 120.578 105.647 124.103C105.586 124.175 105.553 124.232 105.553 124.232C105.553 124.232 103.112 118.122 103.335 116.829Z" fill="#2C2C2C"/>
<path d="M26.832 117.633L28.8677 117.034L29.0795 116.958L30.1099 116.649C30.1458 116.714 30.1458 116.768 30.1602 116.832C30.3792 118.125 27.9414 124.236 27.9414 124.236C27.9414 124.236 27.9127 124.178 27.8516 124.106C27.7583 123.539 27.6506 122.918 27.5465 122.232C27.5142 121.949 27.4639 121.658 27.4029 121.367C27.4029 121.274 27.3741 121.173 27.3598 121.058C27.2808 120.566 27.2054 120.074 27.13 119.55C27.1121 119.468 27.1121 119.392 27.0941 119.317C27.0044 118.753 26.9218 118.2 26.832 117.633Z" fill="#2C2C2C"/>
<path opacity="0.2" d="M77.2365 128.361C77.9438 129.689 86.607 132.978 86.607 132.978C86.607 132.978 90.0859 124.282 89.5258 122.975C88.56 120.717 85.914 119.719 83.706 120.768C82.9736 121.13 82.392 121.658 81.9935 122.297L83.1675 117.059L76.9744 119.489L80.9739 122.771C80.2487 122.685 79.5055 122.782 78.8198 123.112C76.8739 124.042 76.1989 126.404 77.2365 128.361Z" fill="#616161"/>
<path d="M77.5157 128.268C78.1332 129.553 86.4159 132.318 86.4159 132.318C86.4159 132.318 89.1049 123.995 88.57 122.904C87.6688 121.051 85.4501 120.283 83.5975 121.181C82.9657 121.489 82.4594 121.945 82.1076 122.498L82.4594 117.899L77.3685 120.373L81.1957 122.94C80.5494 122.875 79.8745 122.987 79.2426 123.288C77.3865 124.189 76.611 126.415 77.5157 128.268Z" fill="#E3B605"/>
<path opacity="0.2" d="M81.0936 121.568L79.5247 120.52L81.2408 119.687L81.0936 121.568ZM85.2152 121.884C86.2384 121.884 87.1539 122.452 87.6027 123.374C87.6853 124.01 86.7482 127.621 85.7178 130.939C82.4184 129.783 78.9395 128.322 78.4404 127.715C78.182 127.162 78.1353 126.444 78.365 125.776C78.5984 125.108 79.0759 124.573 79.715 124.257C80.074 124.085 80.4617 123.999 80.8602 123.999C80.9392 123.999 81.0218 124.006 81.0972 124.01L83.018 123.076C83.2693 122.681 83.6319 122.358 84.0699 122.146C84.4289 121.974 84.8167 121.884 85.2152 121.884Z" fill="#616161"/>
<path opacity="0.2" d="M26.8181 117.634C26.8647 117.91 26.9114 118.187 26.9581 118.463C27.0335 118.969 27.1125 119.465 27.1878 119.953C27.2453 120.326 27.3027 120.693 27.3566 121.052C27.3709 121.166 27.3997 121.267 27.3997 121.36C27.4607 121.651 27.5074 121.942 27.5433 122.226C27.651 122.911 27.7551 123.532 27.8484 124.1C27.8628 124.243 27.8915 124.362 27.9131 124.487C27.9741 124.836 28.028 125.152 28.0818 125.435C28.1393 125.758 28.1895 126.028 28.2362 126.257C28.3116 126.656 28.3654 126.878 28.3906 126.878C28.6814 126.878 34.5406 134.242 34.9068 134.705L34.8996 134.684C34.9032 134.691 34.9212 134.716 34.9212 134.716L39.6603 130.275L47.4546 132.167L51.648 133.183L56.3045 134.317L56.721 134.418H56.7281L56.107 136.411L60.2214 138.245C59.5859 139.039 59.191 140.033 59.191 141.135V141.15C56.703 144.187 54.9294 148.427 54.4268 151.655C54.3837 151.927 54.3514 154.573 54.3227 157.467L53.6478 157.866L52.4666 169.99L55.4536 175.124L60.2896 178.175C62.2822 180.348 66.91 183.378 66.91 183.378C66.91 183.378 67.0034 183.32 67.1613 183.202V105.581L66.5582 105.768L64.4328 106.4L60.1676 107.678L58.8464 108.069L55.4249 109.089L54.7392 109.294L54.4268 109.387L43.2182 112.74L42.6617 112.898L33.9231 115.505L30.0995 116.646L29.0691 116.955L28.965 116.987L28.8537 117.034L26.8145 117.627C26.8145 117.634 26.8145 117.634 26.8145 117.634H26.8181Z" fill="#616161"/>
<path d="M29.5298 43.2767C29.5334 41.478 21.7031 33.7805 21.7031 33.7805C21.7031 33.7805 14.0703 41.7113 14.0703 43.2443C14.0667 45.8329 16.1562 47.9332 18.7412 47.9332C19.628 47.9332 20.4537 47.7034 21.1538 47.2654L18.2206 52.2665L25.34 52.2809L22.4283 47.269C23.1284 47.6998 23.9542 47.9475 24.8374 47.9547C27.4187 47.9511 29.5298 45.8616 29.5298 43.2767Z" fill="#2C2C2C"/>
<path opacity="0.2" d="M29.5298 43.2767C29.5334 41.478 21.7031 33.7805 21.7031 33.7805C21.7031 33.7805 21.6924 33.7877 21.6924 33.7949V52.2773L25.34 52.2845L22.4284 47.2725C23.1284 47.7034 23.9542 47.9511 24.8374 47.9583C27.4188 47.9511 29.5298 45.8616 29.5298 43.2767Z" fill="#616161"/>
<path d="M116.3 157.876C116.289 159.678 124.123 167.372 124.123 167.372C124.123 167.372 131.759 159.441 131.759 157.912C131.763 155.316 129.67 153.219 127.085 153.219C126.202 153.219 125.376 153.456 124.672 153.887L127.605 148.879L120.482 148.872L123.401 153.88C122.705 153.46 121.875 153.205 120.996 153.201C118.404 153.198 116.3 155.295 116.3 157.876Z" fill="#2C2C2C"/>
<path opacity="0.2" d="M116.3 157.876C116.289 159.678 124.123 167.372 124.123 167.372L124.137 167.365V148.882L120.482 148.875L123.401 153.884C122.705 153.464 121.875 153.209 120.996 153.205C118.404 153.198 116.3 155.295 116.3 157.876Z" fill="#616161"/>
<path d="M19.564 14.9879H26.2528V15.379H25.1208V24.2699C25.1208 26.1222 24.7023 27.4737 23.8654 28.3243C23.0284 29.1613 21.773 29.5798 20.0991 29.5798C18.9877 29.5798 18.1028 29.3671 17.4442 28.9418C16.7993 28.5164 16.4769 27.9196 16.4769 27.1512C16.4769 26.5612 16.6415 26.1016 16.9708 25.7723C17.3001 25.4293 17.746 25.2578 18.3086 25.2578C18.8848 25.2578 19.3102 25.4018 19.5846 25.69C19.8727 25.9781 20.0168 26.328 20.0168 26.7396C20.0168 27.1375 19.9413 27.5423 19.7904 27.9539H18.9877C18.8642 28.1597 18.8025 28.3586 18.8025 28.5507C18.8025 28.7291 18.8917 28.8869 19.0701 29.0241C19.2621 29.1476 19.5091 29.2093 19.811 29.2093C20.3598 29.2093 20.7097 28.9966 20.8606 28.5713C21.0252 28.1322 21.1076 27.1924 21.1076 25.7517V15.379H19.564V14.9879Z" fill="#2C2C2C"/>
<path d="M125.146 186.744L118.457 186.744L118.457 186.353L119.589 186.353L119.589 177.462C119.589 175.61 120.008 174.258 120.845 173.407C121.682 172.57 122.937 172.152 124.611 172.152C125.722 172.152 126.607 172.365 127.266 172.79C127.911 173.215 128.233 173.812 128.233 174.58C128.233 175.17 128.068 175.63 127.739 175.959C127.41 176.302 126.964 176.474 126.401 176.474C125.825 176.474 125.4 176.33 125.125 176.042C124.837 175.754 124.693 175.404 124.693 174.992C124.693 174.594 124.769 174.189 124.92 173.778L125.722 173.778C125.846 173.572 125.907 173.373 125.907 173.181C125.907 173.003 125.818 172.845 125.64 172.708C125.448 172.584 125.201 172.522 124.899 172.522C124.35 172.522 124 172.735 123.849 173.16C123.685 173.599 123.602 174.539 123.602 175.98L123.602 186.353L125.146 186.353L125.146 186.744Z" fill="#2C2C2C"/>
</svg>
