<svg width="144" height="200" viewBox="0 0 144 200" fill="none" xmlns="http://www.w3.org/2000/svg">
<path d="M15.7934 200C7.34563 200.014 0.456009 193.261 0.434468 184.96L5.04288e-05 15.1539C-0.0214909 6.7959 6.86095 0.0104048 15.341 0.0283558L127.553 0.232968C136.001 0.250919 142.869 7.0472 142.869 15.3909V184.828C142.869 193.11 136.023 199.863 127.611 199.867L15.7934 200Z" fill="#C9C9C9"/>
<path d="M17.3274 199.544C8.98375 199.544 2.19824 192.784 2.19824 184.476V15.0681C2.19824 6.76035 8.98375 0 17.3274 0H127.906C136.246 0 143.028 6.76035 143.028 15.0681V184.476C143.028 192.784 136.246 199.544 127.906 199.544H17.3274Z" fill="#F1EAD8"/>
<path d="M127.742 196.395H17.1638C10.7014 196.395 5.44531 191.164 5.44531 184.734V15.3337C5.44531 9.14053 10.3567 4.10345 12.9955 3.13768L13.3797 2.99048L124.551 3.00127C135.544 3.86292 139.461 9.93394 139.461 15.3372V184.738C139.461 191.164 134.208 196.395 127.742 196.395ZM14.3167 7.61827C13.1248 8.36863 10.0731 11.4921 10.0731 15.3337V184.734C10.0731 188.612 13.254 191.768 17.1638 191.768H127.742C131.652 191.768 134.833 188.612 134.833 184.734V15.3337C134.833 11.0362 130.891 8.1568 124.281 7.61827H14.3167Z" fill="#D66753"/>
<path d="M21.2727 52.6289L14.0312 43.4953L21.2727 34.3511L28.5034 43.4953L21.2727 52.6289Z" fill="#D66753"/>
<path opacity="0.2" d="M21.2731 34.3511L21.0361 34.6527V52.338L21.2731 52.6289L28.5038 43.4953L21.2731 34.3511Z" fill="#616161"/>
<path d="M124.211 149.26L131.449 158.397L124.211 167.534L116.977 158.397L124.211 149.26Z" fill="#D66753"/>
<path opacity="0.2" d="M124.211 167.534L124.444 167.239V149.554L124.211 149.26L116.977 158.397L124.211 167.534Z" fill="#616161"/>
<path d="M61.7179 62.3081L56.7383 64.2791L57.88 66.3794L77.5903 66.1424L78.9797 64.2791L74.5745 62.3081H61.7179Z" fill="#9C9C9C"/>
<path d="M74.5737 56.144H61.7207V69.5534H74.5737V56.144Z" fill="#FDD5B0"/>
<path opacity="0.2" d="M74.574 58.7326V61.9925C73.0051 63.4896 71.2171 64.4482 69.3251 64.4482H66.8981C65.0384 64.4482 63.2792 63.5075 61.7246 62.0571V58.8511L62.8304 60.6102L63.1212 56.144H73.1056L73.4 60.6102L74.574 58.7326Z" fill="#616161"/>
<path d="M69.3258 25.5083H68.1159H66.9024C60.5549 25.5083 55.4102 29.8453 55.4102 35.2019C55.4102 35.2019 55.464 48.3169 55.5609 48.9416C56.4405 54.5962 61.1868 63.342 66.9024 63.342H68.1159H69.3258C75.0379 63.342 79.7841 54.5962 80.6709 48.9416C80.7643 48.3169 80.8217 35.2019 80.8217 35.2019C80.8181 29.8453 75.6733 25.5083 69.3258 25.5083Z" fill="#FDD5B0"/>
<path d="M79.6332 25.5084L68.1122 18.2454L56.5912 25.5084L53.6006 30.6459L54.7782 42.7953L56.322 43.7035L56.5912 32.5236L60.2173 28.6318L68.1122 32.3441L76.0071 28.6318L79.6332 32.5236L79.8989 43.7035L81.4463 42.7953L82.6239 30.6459L79.6332 25.5084Z" fill="#D66753"/>
<path d="M60.7308 41.1187C60.4939 41.4131 60.3467 41.7613 60.3467 42.1527C60.3467 43.1436 61.3017 43.9585 62.4864 43.9585C63.664 43.9585 64.619 43.1436 64.619 42.1527C64.619 41.7613 64.4754 41.4131 64.2385 41.1187H60.7308Z" fill="#2C2C2C"/>
<path opacity="0.2" d="M68.9351 39.3594H68.1129H67.2872L66.1455 47.7748L68.1129 50.0331L70.0768 47.7748L68.9351 39.3594Z" fill="#616161"/>
<path d="M75.4963 41.1187C75.7368 41.4131 75.8769 41.7613 75.8769 42.1527C75.8769 43.1436 74.9218 43.9585 73.7407 43.9585C72.5595 43.9585 71.6045 43.1436 71.6045 42.1527C71.6045 41.7613 71.7481 41.4131 71.9851 41.1187H75.4963Z" fill="#2C2C2C"/>
<path d="M79.7185 49.4407L73.3961 59.5149L72.8791 51.6271L69.5617 50.2377L68.1149 50.0474L66.6644 50.2377L63.3435 51.6271L62.8337 59.5149L56.5077 49.4407L55.5635 48.9417C56.4431 54.5962 61.1893 63.342 66.905 63.342H68.1185H69.3284C75.0404 63.342 79.7867 54.5962 80.6735 48.9417L79.7185 49.4407Z" fill="#D66753"/>
<path d="M71.6039 53.7707L68.7245 51.6238H68.1106H67.4967L64.6173 53.7707L64.4414 59.91H68.1106H71.7762L71.6039 53.7707Z" fill="#FDD5B0"/>
<g opacity="0.2">
<path d="M70.4597 54.0542H65.7637V55.5944H70.4597V54.0542Z" fill="#616161"/>
</g>
<path d="M71.3906 36.5664L77.7561 37.3419L71.3906 38.1066V36.5664Z" fill="#D66753"/>
<path d="M64.8296 38.1066L58.6006 37.3419L64.8296 36.5664V38.1066Z" fill="#D66753"/>
<path d="M100.196 65.9775L95.3344 70.5407L93.1982 77.0103C93.1982 77.0103 100.415 75.5598 100.458 75.7429L100.196 65.9775Z" fill="#9C9C9C"/>
<path d="M36.5352 65.9775L41.4035 70.5407L43.5361 77.0103C43.5361 77.0103 36.3198 75.5598 36.2803 75.7429L36.5352 65.9775Z" fill="#9C9C9C"/>
<path d="M39.4578 69.5566L38.7793 70.9173L37.1924 76.098C37.1924 76.098 46.1751 73.5884 45.773 73.8577L39.4578 69.5566Z" fill="#D66753"/>
<path d="M106.043 83.767L101.189 85.2102L92.4356 87.8275L91.8756 87.9855L80.6561 91.3387L80.3438 91.4321L79.6545 91.6367L76.2294 92.6564L74.9082 93.0656L70.6323 94.3365L68.5069 94.9756L60.2386 97.4349L58.5117 97.9483L58.124 98.0596L55.9626 98.7059L54.5984 99.1152L50.6814 100.289L44.7827 102.045L44.7719 100.379L44.7324 95.5178L40.8442 102.088V103.219L36.7299 104.447L26.8604 107.394V93.5395L26.8927 92.8358V92.7784V92.7605L26.9896 90.6817L27.3199 89.9099L29.2658 85.2892L31.2117 80.6866L33.2797 75.7644L34.0659 73.919L34.9347 71.8438L36.3852 71.4849L38.7799 70.9212L38.8983 70.8924L39.0814 70.8422L39.3794 70.7668L39.5338 70.7417L40.0508 70.6088L40.7437 70.4401H40.7581L40.8299 70.4186L41.1853 70.3288L47.7482 68.7383L48.4447 68.5696L48.7463 68.5086L49.4536 68.3254L54.7061 67.0545L54.803 67.0366L55.4026 66.8822L57.3915 66.4011L57.8367 66.2898L61.7213 65.3635H74.5743L77.626 66.1031L78.3692 66.279L78.7856 66.3796L83.4493 67.5141L87.6463 68.5301L95.4514 70.4257L95.9038 70.537L97.7097 70.975L100.198 71.5782L100.352 71.6105L101.286 71.8438L103.228 76.7122L105.174 81.5877L105.723 82.9376L106.043 83.767Z" fill="#ABABAB"/>
<path opacity="0.2" d="M83.4499 67.5139L69.9255 81.0418L69.3439 81.6127L67.0462 83.9176L67.0282 83.9355L63.3087 87.655L63.1185 87.8417L56.6202 94.3508L54.624 96.3469L53.7085 97.2517L52.7104 98.2569L50.682 100.289L44.7832 102.045L44.7725 100.379L50.822 94.3508L51.8308 93.3275L52.5273 92.631L54.6097 90.5415L55.2451 89.9097L55.877 89.2778L56.1463 89.0121L63.7934 81.3685L63.9119 81.2501L64.2027 80.9628L64.2099 80.952L66.4035 78.7477L66.96 78.1876L78.7862 66.3794L83.4499 67.5139Z" fill="#F1EAD8"/>
<path opacity="0.2" d="M100.198 71.5779L92.0695 79.7025L80.5485 91.2343L80.3439 91.4318L79.6546 91.6364L76.2295 92.656L74.9083 93.0653L70.6323 94.3362L68.5069 94.9753L60.2387 97.4346L58.5118 97.948L58.124 98.0593L58.422 97.7577L59.6463 96.5335L65.4481 90.7316L66.0369 90.1465L69.1639 87.023L69.5265 86.6568L72.5782 83.6015L87.6464 68.5298L95.4515 70.4254L95.9039 70.5367L97.7097 70.9747L100.198 71.5779Z" fill="#F1EAD8"/>
<path opacity="0.2" d="M80.6547 91.3388L80.3424 91.4322L79.6566 91.6368L76.2316 92.6564L74.9104 93.0621L70.638 94.3331L68.509 94.9721L60.2443 97.435L58.5174 97.9484L58.1297 98.0597L55.9684 98.7059L54.6041 99.1152L53.7137 97.2519L51.836 93.3242L45.7686 80.701L42.8246 74.5617L42.5446 73.9694L42.5338 73.955L40.8895 70.5335V70.5156L40.832 70.415L41.191 70.3289L47.754 68.7384L48.4505 68.5697L48.752 68.505L49.4593 68.322L54.7118 67.051L54.8087 67.0295L55.4083 66.8787C57.268 68.7779 61.6625 73.0718 66.9652 78.1843C67.9202 79.1141 68.9219 80.0691 69.9307 81.0385C70.7996 81.8822 71.6792 82.7366 72.5803 83.5983C75.2119 86.1222 77.919 88.7251 80.5542 91.2311C80.5793 91.2634 80.6224 91.2957 80.6547 91.3388Z" fill="#616161"/>
<path d="M68.5058 94.9756L60.2411 97.4385L58.5142 97.9518L58.1265 98.0631L55.9652 98.7094L54.6224 96.3506L52.5293 92.6383L45.7654 80.7116L43.3599 76.4644L42.3582 74.6836L40.0533 70.6124L39.4609 69.5604L40.1646 69.3809L53.7751 65.981C53.9116 66.1856 54.2311 66.541 54.705 67.0616C56.6294 69.1188 61.0848 73.5491 66.4019 78.7549C67.3605 79.692 68.3371 80.6542 69.3423 81.6199C70.2147 82.4852 71.0979 83.3433 71.9847 84.2049C74.5194 86.6822 77.1295 89.206 79.6534 91.6438L76.2283 92.6635L74.9071 93.0691L70.6348 94.3401L68.5058 94.9756Z" fill="#D66753"/>
<path d="M48.4686 68.4115L46.9248 78.0763L55.7747 82.2733L55.7962 82.3128L55.8034 82.2769L55.8321 82.2877L55.8106 82.2446L57.3508 72.5797L48.5009 68.3899L48.4758 68.3433L48.4686 68.3828L48.4435 68.3612L48.4686 68.4115Z" fill="#E3B605"/>
<path opacity="0.2" d="M47.9694 67.5461L45.7686 78.963L56.392 83.0487L56.4207 83.1025V83.063H56.453L56.4243 83.0307L57.3937 72.6658L48.0124 67.5353L47.9801 67.4851L47.9729 67.5138L47.937 67.503L47.9694 67.5461Z" fill="#616161"/>
<path opacity="0.2" d="M49.3018 76.8235L50.1419 71.5422L54.9779 73.8328L54.1342 79.1176L49.3018 76.8235Z" fill="#616161"/>
<path d="M56.7383 64.2793L57.3953 66.4047L67.5736 72.3106L67.2756 65.3635L56.7383 64.2793Z" fill="#F9F9F9"/>
<path d="M78.9788 64.2793L78.3218 66.4047L68.1436 72.3106L68.4415 65.3635L78.9788 64.2793Z" fill="#F9F9F9"/>
<path opacity="0.2" d="M67.047 83.9179L68.939 85.9284C68.2605 85.2355 67.6142 84.5641 67.029 83.9394C65.8981 82.7726 64.9431 81.7637 64.2035 80.9667C63.4927 80.2092 62.9793 79.6671 62.6992 79.3655L64.2143 80.9524L67.047 83.9179Z" fill="#616161"/>
<path opacity="0.2" d="M69.525 86.6571C71.7904 88.7897 74.0702 90.8469 76.2279 92.6563L74.9067 93.062L69.1623 87.0197L66.6205 84.345L66.3368 84.047L63.7914 81.3651L58.7328 76.048L58.6035 75.908C58.6466 75.9475 58.6897 76.0013 58.7435 76.0408C60.3125 77.6492 62.0609 79.43 63.9099 81.2466C64.7679 82.0975 65.6583 82.9699 66.5523 83.828C66.6456 83.9214 66.7425 84.0111 66.8395 84.1188C67.7334 84.9733 68.6202 85.817 69.525 86.6571Z" fill="#616161"/>
<path opacity="0.2" d="M60.2388 97.4349L58.5119 97.9483L58.4221 97.758L56.6198 94.3509L54.6093 90.5417L52.387 86.3124L49.7051 81.5625L55.2448 89.9098L57.5641 93.403L59.6464 96.5337L60.2388 97.4349Z" fill="#616161"/>
<path opacity="0.2" d="M70.6325 94.3366L68.5071 94.9756L66.931 92.5846L65.4483 90.732L63.1182 87.8419L61.9873 86.4561L63.3085 87.6552L66.0371 90.1468L70.6325 94.3366Z" fill="#616161"/>
<path opacity="0.2" d="M44.7322 95.5173L40.844 102.087V103.218L36.7296 104.446L33.7354 103.839L37.8533 101.962L44.7322 95.5173Z" fill="#616161"/>
<path opacity="0.2" d="M106.042 83.7666L101.188 85.2099L92.4348 87.8271L91.8748 87.9851L91.3506 81.4221L92.0686 79.7025L93.1995 77.0026L95.903 70.5366L97.7089 70.9747L100.197 71.5778L100.351 71.6101L101.285 71.8435L103.227 76.7118L105.173 81.5873L105.722 82.9373L106.042 83.7666Z" fill="#616161"/>
<path d="M101.188 85.2103L92.4347 87.8276L92.3916 81.6165L94.6283 77.1646L94.8617 76.6692L97.7087 70.9787L100.197 65.9775C100.197 65.9775 106.544 73.9765 106.738 73.8365C106.781 73.8365 106.964 74.7664 107.212 76.2168C107.503 77.9832 107.912 80.5251 108.307 83.0957L106.271 83.6952L106.045 83.7706L101.188 85.2103Z" fill="#ABABAB"/>
<path opacity="0.2" d="M44.9032 82.119L44.7345 93.1625L29.6879 90.6207C29.6879 90.6207 29.67 90.0067 29.7633 89.4036L34.0716 73.919L34.9404 71.8438L38.904 70.8889L39.0907 70.8386L39.3887 70.7632L39.5395 70.738L44.9032 82.119Z" fill="#616161"/>
<path d="M44.7314 94.4441L30.5213 93.1623L26.8916 92.8356H26.8809C26.8809 92.8356 26.8809 92.8141 26.8916 92.7782C26.8916 92.7638 26.8916 92.7638 26.8916 92.7567C26.9347 92.473 27.0963 91.3995 27.3189 89.906C28.1159 84.5781 29.7387 73.8326 29.9074 73.8326C30.1121 73.9726 36.4488 65.9736 36.4488 65.9736L36.4919 66.0813L38.8973 70.8887L44.2575 81.609L44.7314 94.4441Z" fill="#ABABAB"/>
<path opacity="0.2" d="M108.307 83.0921L106.271 83.6916L106.045 83.7671L101.187 85.2103L103.226 76.7123L103.722 74.6407L100.196 65.9775C100.196 65.9775 106.544 73.9765 106.738 73.8365C106.781 73.8365 106.964 74.7664 107.212 76.2168C107.502 77.9796 107.912 80.5215 108.307 83.0921Z" fill="#F1EAD8"/>
<path opacity="0.2" d="M36.4926 66.0851L33.0137 74.6406L33.2793 75.7679L36.2772 88.2583L30.5185 93.1661L29.2547 94.2396C29.2547 94.2396 27.3734 101.833 27.1724 102.095C27.1257 102.145 27.0216 102.127 26.8564 102.048V93.5467L26.8888 92.843H26.878C26.878 92.843 26.878 92.8214 26.8888 92.7855C26.8888 92.7712 26.8888 92.7712 26.8888 92.764L26.9857 90.6888L27.316 89.9133C28.113 84.5855 29.7358 73.8399 29.9045 73.8399C30.1092 73.9799 36.4459 65.981 36.4459 65.981H36.5285L36.4926 66.0851Z" fill="#F1EAD8"/>
<path d="M29.4607 76.0981L31.6974 82.004L27.6943 87.4181L29.4607 76.0981Z" fill="#D66753"/>
<path d="M108.349 83.0775L108.309 83.0919L106.27 83.6914L105.725 82.9375L105.024 82.004L105.175 81.5876L107.214 76.213L107.258 76.0981L108.349 83.0775Z" fill="#D66753"/>
<path opacity="0.2" d="M107.257 76.0981L107.214 76.213C106.966 74.7625 106.783 73.8326 106.74 73.8326C106.546 73.9727 100.199 65.9737 100.199 65.9737L95.4491 70.4219L87.6439 68.5299L83.447 67.5139L78.7833 66.3794L78.3668 66.2789H78.3596L78.9807 64.2791L74.5755 62.3081V60.8827C77.7565 57.8741 80.0794 52.7258 80.6717 48.9453C80.7148 48.6724 80.7435 46.0587 80.7687 43.1937L81.4472 42.7988L82.6248 30.6459L79.6342 25.5084L68.1167 18.2454L67.79 18.4536V95.1837L68.5117 94.9754L70.6407 94.3364L74.913 93.0655L76.2342 92.6597L79.6593 91.6401L80.345 91.4355L80.6574 91.3386L91.8804 87.9853L92.4369 87.8237L101.19 85.2064L106.047 83.7632L106.274 83.6878L108.309 83.0882L108.352 83.0739L107.257 76.0981Z" fill="#616161"/>
<path d="M73.4922 138.503L78.4719 136.532L77.3302 134.432L57.6199 134.676L56.2305 136.532L60.6357 138.503H73.4922Z" fill="#9C9C9C"/>
<path d="M73.4939 131.254H60.6338V144.671H73.4939V131.254Z" fill="#FDD5B0"/>
<path opacity="0.2" d="M60.6338 142.086V138.819C62.2063 137.325 63.9978 136.367 65.8863 136.367H68.3133C70.173 136.367 71.9322 137.307 73.4904 138.754V141.967L72.3846 140.208L72.0938 144.674H62.1022L61.815 140.208L60.6338 142.086Z" fill="#616161"/>
<path d="M65.8888 175.303H67.0987H68.3122C74.6561 175.303 79.8008 170.969 79.8008 165.613C79.8008 165.613 79.747 152.501 79.6537 151.877C78.7705 146.211 74.0278 137.483 68.3122 137.483H67.0987H65.8888C60.1731 137.483 55.4269 146.211 54.5473 151.877C54.4539 152.501 54.3965 165.613 54.3965 165.613C54.3929 170.969 59.5413 175.303 65.8888 175.303Z" fill="#FDD5B0"/>
<path d="M55.5785 175.303L67.0996 182.566L78.6206 175.303L81.6112 170.169L80.4336 158.016L78.8898 157.111L78.6206 168.291L74.9944 172.183L67.0996 168.471L59.2047 172.183L55.5785 168.291L55.3093 157.111L53.7691 158.016L52.5879 170.169L55.5785 175.303Z" fill="#D66753"/>
<path d="M74.4826 159.7C74.7196 159.398 74.8632 159.046 74.8632 158.669C74.8632 157.668 73.9046 156.853 72.727 156.853C71.5458 156.853 70.5908 157.668 70.5908 158.669C70.5908 159.046 70.7344 159.398 70.9714 159.7H74.4826Z" fill="#2C2C2C"/>
<path opacity="0.2" d="M66.2778 161.452H67.0999H67.9257L69.0673 153.04L67.0999 150.774L65.1396 153.04L66.2778 161.452Z" fill="#616161"/>
<path d="M59.7136 159.7C59.4766 159.398 59.333 159.046 59.333 158.669C59.333 157.668 60.288 156.853 61.4692 156.853C62.6504 156.853 63.6054 157.668 63.6054 158.669C63.6054 159.046 63.4618 159.398 63.2248 159.7H59.7136Z" fill="#2C2C2C"/>
<path d="M55.4947 151.37L61.8171 141.307L62.334 149.18L65.6514 150.577L67.0983 150.767L68.5451 150.577L71.8661 149.18L72.3795 141.307L78.7054 151.37L79.6533 151.877C78.7701 146.211 74.0274 137.483 68.3118 137.483H67.0983H65.8884C60.1727 137.483 55.4265 146.211 54.5469 151.877L55.4947 151.37Z" fill="#D66753"/>
<path d="M63.6079 147.044L66.4908 149.18H67.1012H67.7151L70.5944 147.044L70.7704 140.901H67.1012H63.4355L63.6079 147.044Z" fill="#FDD5B0"/>
<g opacity="0.2">
<path d="M69.446 145.22H64.75V146.764H69.446V145.22Z" fill="#616161"/>
</g>
<path d="M63.8199 164.252L57.458 163.473L63.8199 162.701V164.252Z" fill="#D66753"/>
<path d="M70.3809 162.701L76.6099 163.473L70.3809 164.252V162.701Z" fill="#D66753"/>
<path d="M35.0144 134.834L39.8791 130.282L42.0153 123.805C42.0153 123.805 34.7989 125.248 34.7559 125.072L35.0144 134.834Z" fill="#9C9C9C"/>
<path d="M98.6738 134.834L93.8054 130.282L91.6729 123.805C91.6729 123.805 98.8928 125.248 98.9323 125.072L98.6738 134.834Z" fill="#9C9C9C"/>
<path d="M95.7574 131.255L96.4324 129.891L98.0229 124.717C98.0229 124.717 89.0401 127.223 89.4387 126.957L95.7574 131.255Z" fill="#D66753"/>
<path d="M29.1709 117.048L34.0213 115.598L42.7742 112.984L43.3307 112.826L54.5537 109.476L54.8661 109.379L55.5554 109.175L58.9805 108.152L60.3017 107.753L64.574 106.475L66.6994 105.847L74.9713 103.377L76.6982 102.87L77.0895 102.755L79.2472 102.113L80.6115 101.703L84.5284 100.53L90.4272 98.7739L90.4379 100.433L90.4774 105.301L94.3692 98.7308V97.5927L98.4836 96.3648L108.346 93.4209V107.272L108.321 107.983V108.037V108.055L108.224 110.133L107.89 110.902L105.944 115.522L104.002 120.118L101.93 125.047L101.144 126.892L100.275 128.968L98.8247 129.319L96.43 129.89L96.3115 129.923L96.132 129.969L95.8304 130.045L95.6797 130.077L95.1627 130.203L94.4662 130.379H94.4554L94.38 130.397L94.0246 130.479L87.4616 132.07L86.7651 132.242L86.4672 132.31L85.7527 132.493L80.5038 133.757L80.4033 133.779L79.8073 133.929L77.8183 134.41L77.3767 134.525L73.4921 135.459H60.632L57.5839 134.716L56.8443 134.529L56.4242 134.432L51.7641 133.301L47.5672 132.271L39.7584 130.386L39.3061 130.285L37.5002 129.836L35.0122 129.244L34.8578 129.205L33.9243 128.968L31.9784 124.099L30.0361 119.217L29.4904 117.87L29.1709 117.048Z" fill="#ABABAB"/>
<path opacity="0.2" d="M51.7637 133.301L65.2844 119.777L65.866 119.195L68.1638 116.897L68.1853 116.879L71.9012 113.156L72.0951 112.97L78.5898 106.468L80.5859 104.464L81.4978 103.556L82.4995 102.565L84.528 100.53L90.4267 98.7739L90.4375 100.433L84.3916 106.468L83.3791 107.477L82.6826 108.18L80.6003 110.27L79.9648 110.902L79.3329 111.541L79.0637 111.792L71.4165 119.443L71.3016 119.561L71.0072 119.852L70.9965 119.856L68.81 122.067L68.2464 122.617L56.4238 134.432L51.7637 133.301Z" fill="#F1EAD8"/>
<path opacity="0.2" d="M35.0146 129.244L43.1429 121.109L54.6639 109.584L54.8685 109.379L55.5579 109.175L58.9829 108.151L60.3041 107.753L64.5765 106.475L66.7019 105.847L74.9737 103.376L76.7006 102.87L77.092 102.755L76.7904 103.061L75.5625 104.278L69.7643 110.076L69.1756 110.672L66.0521 113.795L65.6859 114.161L62.6306 117.206L47.5696 132.271L39.7609 130.386L39.3085 130.285L37.5027 129.836L35.0146 129.244Z" fill="#F1EAD8"/>
<path opacity="0.2" d="M54.5547 109.476L54.867 109.383L55.5564 109.175L58.9814 108.151L60.3026 107.757L64.5786 106.478L66.704 105.85L74.9758 103.38L76.7027 102.874L77.0905 102.759L79.2482 102.116L80.6125 101.707L81.5029 103.563L83.3805 107.484L89.4516 120.114L92.392 126.261L92.672 126.846L92.6828 126.867L94.3235 130.292V130.3L94.381 130.404L94.0255 130.486L87.4626 132.073L86.7661 132.245L86.4681 132.317L85.7573 132.5L80.5084 133.764L80.4078 133.789L79.8083 133.94C77.9485 132.037 73.5577 127.743 68.2514 122.627C67.2964 121.705 66.3019 120.75 65.2858 119.787C64.4206 118.936 63.5338 118.089 62.6327 117.217C60.0046 114.693 57.2976 112.101 54.666 109.595C54.6301 109.552 54.587 109.523 54.5547 109.476Z" fill="#616161"/>
<path d="M66.7017 105.847L74.9735 103.377L76.7004 102.87L77.0882 102.755L79.2459 102.113L80.585 104.464L82.6817 108.177L89.4493 120.103L91.8511 124.365L92.8492 126.135L95.1577 130.203L95.7501 131.255L95.0428 131.438L81.4323 134.834C81.2923 134.637 80.9692 134.278 80.4989 133.753C78.5709 131.696 74.1191 127.269 68.802 122.064C67.8434 121.123 66.8668 120.161 65.858 119.191C64.9856 118.337 64.1024 117.468 63.2156 116.61C60.6773 114.133 58.0672 111.613 55.5469 109.171L58.9719 108.148L60.2931 107.753L64.5691 106.475L66.7017 105.847Z" fill="#D66753"/>
<path d="M86.7458 132.403L88.286 122.735L79.4397 118.545L79.411 118.506L79.4074 118.531L79.3787 118.527L79.4002 118.563L77.8564 128.232L86.7135 132.421L86.7351 132.468V132.436L86.771 132.446L86.7458 132.403Z" fill="#E3B605"/>
<path opacity="0.2" d="M87.2414 133.269L89.4386 121.845L78.8187 117.77L78.79 117.712L78.7864 117.752L78.7577 117.741L78.7864 117.788L77.8135 128.145L87.2019 133.276L87.2306 133.33L87.2342 133.297L87.2701 133.319L87.2414 133.269Z" fill="#616161"/>
<path opacity="0.2" d="M85.9086 123.988L85.0684 129.269L80.2324 126.979L81.0761 121.701L85.9086 123.988Z" fill="#616161"/>
<path d="M78.4743 136.532L77.8137 134.403L67.6426 128.504L67.937 135.459L78.4743 136.532Z" fill="#F9F9F9"/>
<path d="M56.2305 136.532L56.8911 134.403L67.0657 128.504L66.7713 135.459L56.2305 136.532Z" fill="#F9F9F9"/>
<path opacity="0.2" d="M68.1635 116.897L66.2715 114.89C66.9464 115.59 67.5927 116.255 68.1851 116.879C69.3124 118.046 70.2638 119.055 71.007 119.852C71.7178 120.595 72.2348 121.145 72.5113 121.446L70.9962 119.856L68.1635 116.897Z" fill="#616161"/>
<path opacity="0.2" d="M65.6854 114.162C63.4163 112.022 61.1437 109.972 58.9824 108.152L60.3036 107.757L66.0516 113.799L68.5934 116.474L68.8735 116.768L71.4189 119.447L76.4775 124.757L76.6068 124.907C76.5637 124.871 76.5206 124.814 76.4632 124.778C74.8979 123.162 73.1494 121.389 71.3005 119.565C70.4388 118.721 69.5484 117.845 68.6545 116.984C68.5575 116.89 68.4606 116.797 68.3672 116.7C67.4769 115.846 66.5865 114.995 65.6854 114.162Z" fill="#616161"/>
<path opacity="0.2" d="M74.9736 103.376L76.7005 102.87L76.7903 103.06L78.5926 106.468L80.6031 110.27L82.8254 114.499L85.5073 119.252L79.9676 110.901L77.6519 107.415L75.5624 104.277L74.9736 103.376Z" fill="#616161"/>
<path opacity="0.2" d="M64.5752 106.475L66.7006 105.847L68.2839 108.234L69.7631 110.076L72.0967 112.97L73.224 114.363L71.9028 113.157L69.1743 110.672L64.5752 106.475Z" fill="#616161"/>
<path opacity="0.2" d="M90.4775 105.301L94.3693 98.7307V97.5926L98.4837 96.3647L101.474 96.9679L97.3528 98.8564L90.4775 105.301Z" fill="#616161"/>
<path opacity="0.2" d="M29.1709 117.048L34.0213 115.598L42.7742 112.984L43.3307 112.826L43.8585 119.389L43.1404 121.109L42.0095 123.816L39.3061 130.285L37.5002 129.837L35.0122 129.244L34.8578 129.205L33.9243 128.968L31.9784 124.099L30.0361 119.217L29.4904 117.87L29.1709 117.048Z" fill="#616161"/>
<path d="M34.0214 115.598L42.7744 112.984L42.8175 119.195L40.5843 123.665L40.3474 124.149L37.5003 129.836L35.0087 134.838C35.0087 134.838 28.6612 126.839 28.4674 126.989C28.4243 126.989 28.2412 126.049 27.9935 124.598C27.7062 122.839 27.3005 120.297 26.8984 117.727L28.9413 117.127L29.1675 117.052L34.0214 115.598Z" fill="#ABABAB"/>
<path opacity="0.2" d="M90.3096 118.685L90.4783 107.646L105.525 110.198C105.525 110.198 105.543 110.809 105.45 111.408L101.141 126.893L100.272 128.964L96.3088 129.923L96.1293 129.969L95.8277 130.045L95.6769 130.077L90.3096 118.685Z" fill="#616161"/>
<path d="M90.4775 106.375L104.688 107.645L108.321 107.983H108.332C108.332 107.983 108.332 108.001 108.321 108.04C108.321 108.048 108.321 108.048 108.321 108.058C108.278 108.342 108.116 109.412 107.894 110.905C107.1 116.237 105.477 126.989 105.302 126.989C105.1 126.839 98.7602 134.838 98.7602 134.838L98.7171 134.737L96.3116 129.926L90.9514 119.199L90.4775 106.375Z" fill="#ABABAB"/>
<path opacity="0.2" d="M26.8984 117.727L28.9413 117.127L29.1675 117.052L34.0178 115.601L31.975 124.103L31.4831 126.178L35.0087 134.837C35.0087 134.837 28.6612 126.838 28.4674 126.989C28.4243 126.989 28.2412 126.049 27.9935 124.598C27.7062 122.835 27.3005 120.297 26.8984 117.727Z" fill="#F1EAD8"/>
<path opacity="0.2" d="M98.7182 134.734L102.201 126.175L101.931 125.047L98.9336 112.568L104.689 107.645L105.96 106.572C105.96 106.572 107.837 98.9894 108.042 98.7273C108.085 98.6699 108.193 98.6878 108.351 98.774V107.272L108.322 107.979H108.333C108.333 107.979 108.333 107.997 108.322 108.037C108.322 108.044 108.322 108.044 108.322 108.055L108.225 110.133L107.895 110.902C107.101 116.233 105.479 126.986 105.303 126.986C105.102 126.835 98.7613 134.834 98.7613 134.834H98.6787L98.7182 134.734Z" fill="#F1EAD8"/>
<path d="M105.754 124.717L103.514 118.811L107.517 113.39L105.754 124.717Z" fill="#D66753"/>
<path d="M26.8604 117.734L26.8998 117.727L28.9427 117.127L29.492 117.87L30.1885 118.811L30.0377 119.217L27.9984 124.598L27.9554 124.717L26.8604 117.734Z" fill="#D66753"/>
<path opacity="0.2" d="M67.2464 105.685L66.7007 105.847L64.5753 106.475L60.2993 107.753L58.9781 108.148L55.553 109.171L54.8637 109.379L54.5514 109.473L43.3284 112.826L42.7719 112.984L34.0189 115.598L29.1685 117.048L28.9424 117.123L26.8995 117.723L26.8564 117.73L27.9515 124.713L27.9945 124.595C28.2423 126.045 28.4254 126.986 28.4685 126.986C28.6623 126.835 35.0098 134.834 35.0098 134.834L39.7633 130.386L47.5684 132.271L51.7618 133.297L56.4255 134.432L56.8455 134.529L56.228 136.532L60.6296 138.5V139.929C57.4523 142.93 55.1294 148.082 54.5406 151.87C54.4975 152.128 54.4652 154.738 54.4401 157.621L53.7651 158.012L52.5839 170.165L55.5746 175.299L67.0956 182.562L67.2428 182.48L67.2464 105.685Z" fill="#616161"/>
<path d="M19.814 15.0956H26.5028V15.4866H25.3708V24.3776C25.3708 26.2298 24.9523 27.5813 24.1154 28.432C23.2784 29.2689 22.023 29.6874 20.3491 29.6874C19.2377 29.6874 18.3528 29.4748 17.6942 29.0494C17.0493 28.6241 16.7269 28.0272 16.7269 27.2589C16.7269 26.6689 16.8915 26.2093 17.2208 25.88C17.5501 25.537 17.996 25.3654 18.5586 25.3654C19.1348 25.3654 19.5602 25.5095 19.8346 25.7976C20.1227 26.0858 20.2668 26.4356 20.2668 26.8473C20.2668 27.2452 20.1913 27.6499 20.0404 28.0615H19.2377C19.1142 28.2673 19.0525 28.4663 19.0525 28.6584C19.0525 28.8367 19.1417 28.9945 19.3201 29.1317C19.5121 29.2552 19.7591 29.317 20.061 29.317C20.6098 29.317 20.9597 29.1043 21.1106 28.679C21.2752 28.2399 21.3576 27.3 21.3576 25.8594V15.4866H19.814V15.0956Z" fill="#D66753"/>
<path d="M125.396 186.852L118.707 186.852L118.707 186.461L119.839 186.461L119.839 177.57C119.839 175.717 120.258 174.366 121.095 173.515C121.932 172.678 123.187 172.26 124.861 172.26C125.972 172.26 126.857 172.473 127.516 172.898C128.161 173.323 128.483 173.92 128.483 174.688C128.483 175.278 128.318 175.738 127.989 176.067C127.66 176.41 127.214 176.582 126.651 176.582C126.075 176.582 125.65 176.438 125.375 176.15C125.087 175.861 124.943 175.512 124.943 175.1C124.943 174.702 125.019 174.297 125.17 173.886L125.972 173.886C126.096 173.68 126.157 173.481 126.157 173.289C126.157 173.111 126.068 172.953 125.89 172.816C125.698 172.692 125.451 172.63 125.149 172.63C124.6 172.63 124.25 172.843 124.099 173.268C123.935 173.707 123.852 174.647 123.852 176.088L123.852 186.461L125.396 186.461L125.396 186.852Z" fill="#D66753"/>
</svg>
