<svg width="143" height="200" viewBox="0 0 143 200" fill="none" xmlns="http://www.w3.org/2000/svg">
<path d="M15.7216 199.024C7.31693 199.038 0.456016 192.321 0.434475 184.06L5.06923e-05 15.0538C-0.0214906 6.74242 6.82508 -0.014338 15.2657 2.28497e-05L126.943 0.208251C135.355 0.222611 142.191 6.99016 142.191 15.2871V183.927C142.191 192.166 135.376 198.891 127 198.891L15.7216 199.024Z" fill="#C9C9C9"/>
<path d="M16.2348 198.811C7.93777 198.811 1.18457 192.087 1.18457 183.812V15.215C1.18457 6.94313 7.94136 0.215088 16.2348 0.215088H126.293C134.597 0.215088 141.343 6.94313 141.343 15.215V183.812C141.343 192.087 134.593 198.811 126.293 198.811H16.2348Z" fill="#F1EAD8"/>
<path d="M127.138 195.437H17.0836C10.6463 195.437 5.41895 190.228 5.41895 183.826V15.2333C5.41895 9.07251 10.3052 4.05699 12.9297 3.09481L13.3174 2.95117L123.961 2.95835C134.904 3.81641 138.803 9.85515 138.803 15.2297V183.823C138.803 190.228 133.565 195.437 127.138 195.437ZM14.2437 7.561C13.0589 8.30417 10.0216 11.4062 10.0216 15.2333V183.826C10.0216 187.689 13.1882 190.831 17.08 190.831H127.134C131.026 190.831 134.186 187.689 134.186 183.826V15.2333C134.186 10.9646 130.265 8.09594 123.688 7.561H14.2437Z" fill="#D66753"/>
<path d="M61.4265 61.9888L56.4648 63.949L57.6029 66.0349L77.2199 65.798L78.6057 63.949L74.2185 61.9888H61.4265Z" fill="#9C9C9C"/>
<path d="M84.3182 30.9295C84.2572 32.0569 81.0188 46.626 80.4264 47.8574C76.8362 55.623 67.534 51.4584 67.534 51.4584C67.534 51.4584 58.72 55.6948 55.1405 47.9507C54.5086 46.6116 50.7461 32.021 50.7461 30.8218C50.7461 25.2175 55.3272 20.6831 60.9459 20.6831C64.0945 20.6831 67.6093 23.5229 67.6093 23.5229C67.6093 23.5229 70.9303 20.6831 74.1686 20.7297C79.8017 20.8087 84.609 25.3252 84.3182 30.9295Z" fill="#D66753"/>
<path d="M74.2171 55.853H61.4287V69.2086H74.2171V55.853Z" fill="#FDD5B0"/>
<path opacity="0.2" d="M74.2171 58.4271V61.6763C72.6625 63.159 70.871 64.1176 68.9897 64.1176H66.5771C64.7317 64.1176 62.9797 63.177 61.4287 61.7409V58.5456L62.5273 60.2976L62.8181 55.8494H72.7594L73.0467 60.2976L74.2171 58.4271Z" fill="#616161"/>
<path d="M68.99 25.426H67.7909H66.5774C60.2658 25.426 55.1426 29.745 55.1426 35.0765C55.1426 35.0765 55.1964 48.1305 55.2934 48.7516C56.1694 54.3811 60.8941 63.0838 66.5774 63.0838H67.7909H68.99C74.6841 63.0838 79.4053 54.3811 80.2849 48.7516C80.3782 48.1269 80.4285 35.0765 80.4285 35.0765C80.4285 29.7414 75.3124 25.426 68.99 25.426Z" fill="#FDD5B0"/>
<path d="M60.4349 40.8962C60.2087 41.1942 60.0615 41.5425 60.0615 41.9195C60.0615 42.914 61.0093 43.7289 62.1797 43.7289C63.3573 43.7289 64.3087 42.914 64.3087 41.9195C64.3087 41.5425 64.1651 41.1942 63.9246 40.8962H60.4349Z" fill="#2C2C2C"/>
<path opacity="0.2" d="M68.6046 39.1475H67.7933H66.9675L65.833 47.5198L67.7933 49.7745L69.7427 47.5198L68.6046 39.1475Z" fill="#616161"/>
<path d="M75.1378 40.8962C75.3748 41.1942 75.5148 41.5425 75.5148 41.9195C75.5148 42.914 74.567 43.7289 73.393 43.7289C72.219 43.7289 71.2676 42.914 71.2676 41.9195C71.2676 41.5425 71.4076 41.1942 71.6517 40.8962H75.1378Z" fill="#2C2C2C"/>
<g opacity="0.2">
<path d="M70.1748 53.9966H65.4932V55.1455H70.1748V53.9966Z" fill="#616161"/>
</g>
<path d="M71.0537 36.3726L77.3904 37.1409L71.0537 37.9056V36.3726Z" fill="#D66753"/>
<path d="M64.5229 37.9056L58.3262 37.1409L64.5229 36.3726V37.9056Z" fill="#D66753"/>
<path d="M84.3182 30.6494C84.2572 31.7731 83.9018 32.9543 83.3201 34.1857C81.6579 30.9079 78.1143 28.6999 74.1686 28.6389C70.9303 28.5922 67.6093 31.4213 67.6093 31.4213C67.6093 31.4213 64.0945 28.5886 60.9459 28.5886C56.889 28.5886 53.3741 30.9546 51.7478 34.3832C51.1123 33.0441 50.7461 31.7444 50.7461 30.5417C50.7461 24.9373 55.3272 20.4065 60.9459 20.4065C64.0945 20.4065 64.3997 21.6451 67.5411 21.6451C70.679 21.6451 70.9303 20.4065 74.1686 20.4532C79.8017 20.5357 84.609 25.0379 84.3182 30.6494Z" fill="#D66753"/>
<path d="M65.0156 56.8115C67.5539 57.5224 67.8052 61.9851 67.8052 61.9851C67.8052 61.9851 68.0781 57.4793 70.6487 56.8115H65.0156Z" fill="#D66753"/>
<path d="M74.9631 54.0541C74.9307 54.5495 74.78 55.0773 74.5251 55.623C73.7855 54.1725 72.2166 53.196 70.4753 53.1637C69.0392 53.1457 66.0162 53.1457 64.6197 53.1457C62.8317 53.1457 61.2736 54.1869 60.5555 55.7092C60.2827 55.1168 60.1104 54.5423 60.1104 54.011C60.1104 51.5301 62.1352 49.5232 64.6197 49.5232C66.0162 49.5232 67.5421 51.6127 67.5421 51.6127C67.5421 51.6127 69.0392 49.5232 70.4753 49.5483C72.9633 49.5807 75.0923 51.5732 74.9631 54.0541Z" fill="#D66753"/>
<path d="M99.7176 65.6396L94.878 70.1777L92.749 76.615C92.749 76.615 99.933 75.1789 99.9797 75.3512L99.7176 65.6396Z" fill="#9C9C9C"/>
<path d="M36.3633 65.6396L41.2101 70.1777L43.3319 76.615C43.3319 76.615 36.1551 75.1789 36.1084 75.3512L36.3633 65.6396Z" fill="#9C9C9C"/>
<path d="M39.267 69.2051L38.5921 70.555L37.0088 75.7105C37.0088 75.7105 45.9556 73.2117 45.5499 73.4774L39.267 69.2051Z" fill="#D66753"/>
<path d="M105.531 83.3432L100.709 84.7793L91.996 87.3893L91.4431 87.5473L80.2668 90.879L79.9652 90.9796L79.2759 91.1771L75.8687 92.1967L74.5512 92.5952L70.3003 93.8661L68.1785 94.498L59.9498 96.9537L58.2336 97.4528L57.8459 97.5712L55.6953 98.2175L54.3418 98.6267L50.4429 99.7935L44.5728 101.538L44.5585 99.8797L44.519 95.0365L40.6452 101.574V102.702L36.5487 103.933L26.7295 106.856V93.0727L26.7618 92.3654V92.3152C26.7618 92.2936 26.7618 92.2936 26.7618 92.2864L26.8623 90.2256L27.1926 89.4538L29.1242 84.8547L31.0593 80.2843L33.1272 75.3729L33.8991 73.5311L34.768 71.4667L36.2077 71.1185L38.5915 70.5585L38.71 70.519L38.8895 70.4795L39.1839 70.4076L39.3383 70.3753L39.8481 70.2425L40.5446 70.0774H40.5554L40.6308 70.045L40.9826 69.966L47.5096 68.3828L48.2026 68.2176L48.5041 68.153L49.2114 67.9627L54.4352 66.7133L54.5285 66.6882L55.1281 66.5338L57.1063 66.0491L57.5407 65.9486L61.4146 65.0151H74.2029L77.2438 65.7583L77.9834 65.9307L78.3998 66.0276L83.0384 67.1585L87.221 68.1781L94.9867 70.0594L95.439 70.1635L97.2306 70.598L99.7114 71.1975L99.8622 71.2298L100.796 71.4596L102.727 76.3064L104.662 81.1675L105.208 82.5103L105.531 83.3432Z" fill="#ABABAB"/>
<path opacity="0.2" d="M83.0483 67.1692L69.5922 80.6361L69.0178 81.2034L66.7272 83.4939L66.7057 83.5154L63.0041 87.2098L62.8175 87.4072L56.3515 93.866L54.3553 95.855L53.4542 96.7669L52.4597 97.7614L50.442 99.7899L44.5756 101.535L44.5576 99.8761L50.5784 93.866L51.5801 92.8644L52.273 92.1714L54.3517 90.0819L54.98 89.4572L55.6119 88.8254L55.8776 88.5669L63.4888 80.9592L63.6109 80.8407L63.8945 80.5499L63.9053 80.5392L66.081 78.3563L66.641 77.7962L78.4098 66.0347L83.0483 67.1692Z" fill="#F1EAD8"/>
<path opacity="0.2" d="M99.7184 71.2117L91.6332 79.3112L80.1625 90.7748L79.9614 90.9794L79.2721 91.1733L75.865 92.1965L74.5474 92.595L70.3001 93.8659L68.1783 94.4942L59.9496 96.9499L58.2334 97.4454L57.8457 97.5675L58.1509 97.2731L59.3644 96.0452L65.1374 90.2757L65.7226 89.6977L68.8318 86.5778L69.1979 86.2224L72.2353 83.1851L87.2316 68.1887L94.9937 70.07L95.4496 70.1777L97.2376 70.6121L99.7184 71.2117Z" fill="#F1EAD8"/>
<path opacity="0.2" d="M80.2672 90.8753L79.9656 90.9758L79.2763 91.1732L75.8691 92.1929L74.5516 92.5914L70.3007 93.8623L68.1789 94.4942L59.9501 96.9499L58.234 97.4489L57.8463 97.5674L55.6957 98.2136L54.3422 98.623L53.4518 96.7668L51.5778 92.8642L45.539 80.2949L42.6166 74.1772L42.3329 73.592L42.3293 73.5847L40.6922 70.1777V70.1669L40.6348 70.052L40.9866 69.973L47.5136 68.3897L48.2065 68.2246L48.5081 68.16L49.2154 67.9697L54.4392 66.7203L54.5325 66.6951L55.1321 66.5408C56.9846 68.4328 61.3503 72.7016 66.6351 77.7961C67.5829 78.7188 68.5846 79.663 69.5863 80.6359C70.4479 81.4653 71.3275 82.3198 72.2287 83.185C74.8459 85.691 77.5386 88.2831 80.1558 90.7747C80.1953 90.8035 80.2384 90.8358 80.2672 90.8753Z" fill="#616161"/>
<path d="M68.1793 94.4943L59.9505 96.95L58.2344 97.449L57.8466 97.5675L55.6961 98.2137L54.3533 95.8586L52.271 92.175L45.5358 80.2986L43.1447 76.0693L42.1466 74.3065L39.8489 70.2496L39.2637 69.2084L39.9709 69.0253L53.5168 65.6433C53.6533 65.8336 53.9692 66.2034 54.4431 66.7239C56.3603 68.7668 60.7906 73.172 66.079 78.3598C67.034 79.2897 68.0033 80.2447 69.0122 81.2069C69.8774 82.0577 70.7534 82.9194 71.6438 83.7739C74.157 86.244 76.7635 88.7607 79.2694 91.1805L75.8623 92.2002L74.5447 92.5986L70.2939 93.8696L68.1793 94.4943Z" fill="#D66753"/>
<path d="M56.4648 63.949L57.1218 66.0672L67.257 71.9444L66.9554 65.0224L56.4648 63.949Z" fill="#F9F9F9"/>
<path d="M78.605 63.949L77.9444 66.0672L67.8271 71.9444L68.118 65.0224L78.605 63.949Z" fill="#F9F9F9"/>
<path opacity="0.2" d="M66.7266 83.4941L68.6114 85.4974C67.9293 84.7973 67.2903 84.1331 66.7051 83.5156C65.5813 82.3524 64.6335 81.3471 63.8939 80.5537C63.1866 79.8105 62.6768 79.2684 62.4004 78.9668L63.9047 80.5429L66.7266 83.4941Z" fill="#616161"/>
<path opacity="0.2" d="M69.1973 86.2225C71.4484 88.3443 73.721 90.3943 75.8608 92.1966L74.5432 92.5952L68.8276 86.5779L66.2965 83.9248L66.0236 83.6268L63.4853 80.9592L58.4518 75.6673L58.3262 75.5237C58.3693 75.5632 58.4052 75.617 58.4626 75.6565C60.0244 77.2578 61.7656 79.0242 63.6074 80.8408C64.4619 81.6845 65.3415 82.5533 66.2318 83.4042C66.3252 83.5047 66.4221 83.5873 66.5154 83.695C67.4094 84.5351 68.2998 85.386 69.1973 86.2225Z" fill="#616161"/>
<path opacity="0.2" d="M59.9496 96.9497L58.2334 97.4452L58.1509 97.2728L56.3522 93.8657L54.3524 90.0816L52.1408 85.881L49.4697 81.1492L54.9807 89.4569L57.2928 92.9286L59.3644 96.045L59.9496 96.9497Z" fill="#616161"/>
<path opacity="0.2" d="M70.301 93.8658L68.1792 94.4941L66.6139 92.121L65.1383 90.2756L62.819 87.4071L61.6953 86.0105L63.0057 87.2096L65.7235 89.6976L70.301 93.8658Z" fill="#616161"/>
<path opacity="0.2" d="M44.5201 95.0364L40.6463 101.574V102.701L36.5534 103.933L33.5771 103.315L37.6736 101.456L44.5201 95.0364Z" fill="#616161"/>
<path opacity="0.2" d="M105.531 83.3433L100.709 84.7794L91.9957 87.3894L91.4428 87.5474L90.915 81.0132L91.6331 79.3115L92.7532 76.6152L95.4495 70.178L97.2374 70.6124L99.7182 71.2119L99.869 71.2443L100.806 71.4705L102.738 76.3208L104.669 81.1784L105.218 82.5212L105.531 83.3433Z" fill="#616161"/>
<path d="M100.71 84.7791L91.9962 87.3892L91.9531 81.2033L94.179 76.7657L94.416 76.2739L97.2415 70.6121L99.7224 65.6396C99.7224 65.6396 106.041 73.592 106.235 73.452C106.274 73.452 106.461 74.389 106.709 75.8251C107 77.5843 107.398 80.1154 107.797 82.6716L105.768 83.2641L105.535 83.3394L100.71 84.7791Z" fill="#ABABAB"/>
<path opacity="0.2" d="M44.6869 81.7097L44.5182 92.6994L29.5434 90.1611C29.5434 90.1611 29.5254 89.5543 29.6188 88.9548L33.9019 73.5384L34.7707 71.474L38.7164 70.5262L38.8959 70.4867L39.1903 70.4149L39.3447 70.3826L44.6869 81.7097Z" fill="#616161"/>
<path d="M44.5186 93.963L30.3768 92.6957L26.765 92.3654H26.7578C26.7578 92.3654 26.7578 92.3474 26.765 92.3151C26.765 92.2936 26.765 92.2935 26.765 92.2864C26.8117 92.0099 26.9696 90.9437 27.1994 89.4537C27.9893 84.151 29.5977 73.4485 29.7736 73.4485C29.9747 73.5885 36.2791 65.6362 36.2791 65.6362L36.3257 65.7296L38.7168 70.5189L44.0483 81.1998L44.5186 93.963Z" fill="#ABABAB"/>
<path opacity="0.2" d="M107.8 82.6715H107.786L107.757 82.6787L105.761 83.264L105.545 83.3393L105.265 83.4147L104.511 83.6445L100.713 84.779L102.738 76.324L103.222 74.2489L99.7363 65.6467C100.106 66.1063 105.947 73.4447 106.235 73.4447C106.281 73.4447 106.454 74.3889 106.716 75.8322C106.726 75.9507 106.755 76.0691 106.773 76.2091C106.823 76.4712 106.87 76.7262 106.913 77.0241C106.956 77.358 107.021 77.7171 107.085 78.0833C107.111 78.3633 107.157 78.6505 107.218 78.9413C107.218 79.0347 107.251 79.146 107.261 79.2465L107.405 80.1476C107.437 80.3451 107.466 80.539 107.498 80.7616C107.506 80.8334 107.506 80.9124 107.527 80.9878C107.631 81.5442 107.71 82.1115 107.8 82.6715Z" fill="#F1EAD8"/>
<path opacity="0.2" d="M36.3151 65.7475L32.8577 74.2527L33.1198 75.3729L36.0961 87.7914L30.3697 92.6957L29.1095 93.7727C29.1095 93.7727 27.2498 101.327 27.038 101.574C26.9913 101.632 26.9015 101.607 26.7256 101.542V93.0798L26.7615 92.3618C26.7615 92.3618 26.7615 92.3438 26.7615 92.3187C26.7615 92.2971 26.7615 92.2972 26.7615 92.2972L26.8548 90.222L27.1959 89.4573V89.4142C27.2785 88.8254 27.379 88.1935 27.4796 87.5078C27.975 84.2192 28.614 79.9648 29.1095 76.9992C29.1526 76.73 29.1849 76.4643 29.2352 76.2166C29.508 74.5435 29.7234 73.4485 29.7737 73.4485C30.0825 73.4485 36.2827 65.6362 36.2827 65.6362H36.3582L36.3151 65.7475Z" fill="#F1EAD8"/>
<path d="M32.075 80.7473C31.8919 82.1439 27.5118 87.6154 27.5118 87.6154C27.5118 87.6154 27.501 87.5615 27.4795 87.5077C27.9749 84.219 28.614 79.9646 29.1094 76.9991C29.6013 76.8806 30.1578 76.8232 30.3876 76.8483C31.5795 76.9991 32.3335 78.7547 32.075 80.7473Z" fill="#D66753"/>
<path d="M107.759 82.6787L105.763 83.264L105.547 83.3394L105.267 83.4147C104.506 82.2982 103.889 81.2534 103.831 80.7436C103.569 78.7475 104.323 76.9954 105.508 76.8446C105.766 76.8195 106.377 76.8949 106.919 77.0277C106.93 77.0277 106.948 77.0457 106.962 77.0457L107.228 78.9449L107.271 79.2501L107.414 80.1513L107.759 82.6787Z" fill="#D66753"/>
<path opacity="0.2" d="M56.6103 70.1668C58.373 73.4519 54.3269 82.4203 54.3269 82.4203C54.3269 82.4203 45.0569 78.9701 44.0983 75.4768C43.5096 73.3442 44.5902 71.0895 46.4751 70.2602C47.5306 69.7899 49.1318 70.1992 49.1318 70.1992C49.1318 70.1992 49.8714 68.7631 50.9916 68.282C52.9518 67.4527 55.526 68.1491 56.6103 70.1668Z" fill="#616161"/>
<path d="M56.5091 71.3191C57.6436 74.2918 54.0498 81.1491 54.0498 81.1491C54.0498 81.1491 46.3918 79.2212 45.1101 76.3095C44.2305 74.3061 45.0706 71.9976 46.9698 71.1647C48.0397 70.6908 49.6769 71.1755 49.6769 71.1755C49.6769 71.1755 50.3626 69.6676 51.4648 69.1937C53.3892 68.3859 55.7264 69.2763 56.5091 71.3191Z" fill="#E3B605"/>
<path opacity="0.2" d="M53.0713 78.9631C50.1848 78.0476 47.2731 76.6367 46.8028 75.5632C46.5694 75.0391 46.5479 74.4574 46.7346 73.9332C46.9141 73.4414 47.2659 73.0572 47.7219 72.8526C47.7219 72.8526 47.8404 72.8024 48.1276 72.8024C48.5584 72.8024 49.0216 72.91 49.1688 72.9459L50.6982 73.3839L51.3624 71.9443C51.5634 71.5027 51.9691 70.9893 52.1989 70.8959C52.4322 70.799 52.6871 70.7451 52.9564 70.7451C53.5883 70.7451 54.4464 71.0682 54.7946 71.9837C55.2577 73.1829 54.2166 76.432 53.0713 78.9631Z" fill="#616161"/>
<path opacity="0.2" d="M107.8 82.6715C107.753 82.3951 107.71 82.1115 107.66 81.8278C107.595 81.3934 107.524 80.9518 107.459 80.5174C107.441 80.3917 107.416 80.2697 107.401 80.1548L107.258 79.2537C107.247 79.1532 107.215 79.0418 107.215 78.9485L106.949 77.0493C106.935 77.0493 106.92 77.0313 106.906 77.0313C106.863 76.7333 106.816 76.482 106.766 76.2163C106.752 76.0763 106.723 75.9578 106.709 75.8394C106.644 75.4839 106.586 75.1752 106.533 74.8916C106.475 74.5685 106.425 74.292 106.382 74.0694C106.306 73.6781 106.256 73.4483 106.231 73.4483C105.944 73.4483 100.103 66.1099 99.7327 65.6503L99.7399 65.6683C99.7399 65.654 99.7148 65.636 99.7148 65.636L94.9901 70.0663L87.2244 68.185L83.0418 67.1654L78.4033 66.0345L77.9868 65.9376H77.9797L78.6007 63.9486L74.2099 61.9847V60.6348C77.3801 57.6406 79.6922 52.5101 80.2774 48.7476C80.2882 48.6722 80.2953 48.4245 80.3061 48.069C80.3456 47.9937 80.3887 47.929 80.421 47.8536C81.0134 46.6222 84.2517 32.0531 84.3128 30.9258C84.3199 30.836 84.3128 30.7463 84.3128 30.6565C84.3128 30.6565 84.3128 30.6529 84.3128 30.6457C84.6036 25.0342 79.7963 20.5321 74.1632 20.4495C70.9356 20.4029 70.6664 21.6343 67.5752 21.6415V94.6737L68.1712 94.4906L70.293 93.8587L74.5438 92.5878L75.8614 92.1892L79.2685 91.1696L79.9578 90.9721L80.2594 90.8716L91.4358 87.5399L91.9887 87.3819L100.702 84.7719V84.779L104.501 83.6445L104.752 83.5655L105.398 83.3752L105.535 83.3357L105.639 83.2962L105.761 83.2567L107.38 82.7829L107.753 82.6715L107.793 82.6644H107.8V82.6715Z" fill="#616161"/>
<path d="M73.1076 137.451L78.0657 135.502L76.924 133.405L57.307 133.649L55.9248 135.502L60.312 137.451H73.1076Z" fill="#9C9C9C"/>
<path d="M50.2115 168.51C50.2761 167.394 53.5145 152.825 54.0997 151.59C57.6899 143.813 66.9957 147.978 66.9957 147.978C66.9957 147.978 75.8097 143.749 79.3892 151.496C80.0211 152.828 83.7872 167.415 83.7872 168.615C83.7872 174.23 79.2061 178.753 73.5838 178.753C70.4388 178.753 66.9167 175.914 66.9167 175.914C66.9167 175.914 63.603 178.753 60.3646 178.71C54.728 178.631 49.9243 174.122 50.2115 168.51Z" fill="#D66753"/>
<path d="M73.1096 130.239H60.3105V143.598H73.1096V130.239Z" fill="#FDD5B0"/>
<path opacity="0.2" d="M60.3105 141.024V137.764C61.8723 136.274 63.6638 135.33 65.5379 135.33H67.9541C69.8067 135.33 71.5551 136.259 73.1096 137.703V140.898L72.0039 139.146L71.7167 143.598H61.7753L61.4845 139.146L60.3105 141.024Z" fill="#616161"/>
<path d="M65.5403 174.018H66.743H67.9565C74.2681 174.018 79.3914 169.706 79.3914 164.375C79.3914 164.375 79.3447 151.31 79.2406 150.692C78.3717 145.063 73.6434 136.367 67.9601 136.367H66.7466H65.5439C59.8642 136.367 55.1323 145.059 54.2491 150.692C54.1557 151.31 54.1055 164.375 54.1055 164.375C54.1019 169.702 59.2251 174.018 65.5403 174.018Z" fill="#FDD5B0"/>
<path d="M74.0929 158.541C74.3298 158.253 74.4698 157.901 74.4698 157.524C74.4698 156.53 73.522 155.722 72.3516 155.722C71.1705 155.722 70.2227 156.53 70.2227 157.524C70.2227 157.901 70.3627 158.253 70.6032 158.541H74.0929Z" fill="#2C2C2C"/>
<path opacity="0.2" d="M65.9255 160.3H66.7405H67.5699L68.7007 151.913L66.7405 149.669L64.791 151.913L65.9255 160.3Z" fill="#616161"/>
<path d="M59.4008 158.541C59.1566 158.253 59.0166 157.901 59.0166 157.524C59.0166 156.53 59.9716 155.722 61.1456 155.722C62.3196 155.722 63.2638 156.53 63.2638 157.524C63.2638 157.901 63.1238 158.253 62.8869 158.541H59.4008Z" fill="#2C2C2C"/>
<g opacity="0.2">
<path d="M69.0387 144.298H64.3643V145.454H69.0387V144.298Z" fill="#616161"/>
</g>
<path d="M63.4852 163.078L57.1484 162.306L63.4852 161.549V163.078Z" fill="#D66753"/>
<path d="M70.0049 161.549L76.2124 162.306L70.0049 163.078V161.549Z" fill="#D66753"/>
<path d="M50.2115 168.801C50.2761 167.674 50.6279 166.485 51.2095 165.268C52.8682 168.542 56.4154 170.75 60.3646 170.808C63.603 170.851 66.9167 168.033 66.9167 168.033C66.9167 168.033 70.4388 170.851 73.5838 170.851C77.6407 170.851 81.1556 168.489 82.7855 165.067C83.4174 166.406 83.7872 167.702 83.7872 168.902C83.7872 174.513 79.2061 179.04 73.5838 179.04C70.4388 179.04 70.13 177.798 66.9886 177.798C63.8543 177.798 63.6066 179.04 60.3682 178.99C54.728 178.911 49.9243 174.402 50.2115 168.801Z" fill="#D66753"/>
<path d="M69.5093 142.636C66.9782 141.921 66.7233 137.448 66.7233 137.448C66.7233 137.448 66.4433 141.961 63.8799 142.636H69.5093Z" fill="#D66753"/>
<path d="M59.5619 145.386C59.5978 144.887 59.7486 144.377 60.0071 143.82C60.7395 145.264 62.3084 146.255 64.0533 146.276C65.4858 146.305 68.5123 146.305 69.9053 146.305C71.704 146.305 73.2586 145.253 73.9767 143.738C74.2531 144.327 74.4183 144.908 74.4183 145.436C74.4183 147.917 72.3934 149.924 69.9053 149.924C68.5123 149.924 66.9829 147.841 66.9829 147.841C66.9829 147.841 65.4894 149.924 64.0533 149.902C61.5653 149.866 59.4363 147.867 59.5619 145.386Z" fill="#D66753"/>
<path d="M34.8061 133.807L39.6492 129.273L41.7711 122.836C41.7711 122.836 34.587 124.275 34.5439 124.099L34.8061 133.807Z" fill="#9C9C9C"/>
<path d="M98.1679 133.807L93.321 129.273L91.1992 122.836C91.1992 122.836 98.3833 124.275 98.4228 124.099L98.1679 133.807Z" fill="#9C9C9C"/>
<path d="M95.258 130.239L95.9329 128.889L97.5198 123.737C97.5198 123.737 88.573 126.228 88.9751 125.963L95.258 130.239Z" fill="#D66753"/>
<path d="M28.9941 116.104L33.823 114.657L42.5328 112.065L43.0858 111.907L54.2621 108.561L54.5708 108.468L55.2566 108.27L58.6637 107.247L59.9777 106.859L64.2357 105.581L66.3467 104.949L74.5827 102.497L76.2952 101.991L76.6866 101.88L78.8335 101.233L80.187 100.831L84.0896 99.6643L89.9596 97.9123L89.9704 99.5674L90.0171 104.407L93.8765 97.8728V96.7455L97.973 95.514L107.799 92.5808V106.378L107.767 107.085V107.136V107.154L107.67 109.218L107.34 109.993L105.405 114.582L103.466 119.163L101.405 124.067L100.623 125.902L99.7645 127.966L98.3176 128.321L95.9337 128.889L95.8188 128.914L95.6357 128.957L95.3413 129.04L95.1834 129.065L94.6736 129.197L93.9807 129.366H93.9627L93.8945 129.388L93.5391 129.474L87.012 131.054L86.312 131.226L86.0176 131.291L85.3103 131.47L80.0829 132.734L79.986 132.755L79.3864 132.899L77.4082 133.387L76.9738 133.495L73.1071 134.421H60.308L57.2707 133.685L56.5347 133.506L56.1218 133.405L51.4797 132.278L47.3006 131.262L39.5314 129.381L39.0826 129.273L37.2839 128.838L34.8067 128.232L34.6523 128.199L33.726 127.966L31.7873 123.119L29.8558 118.265L29.3137 116.923L28.9941 116.104Z" fill="#ABABAB"/>
<path opacity="0.2" d="M51.4824 132.278L64.9421 118.818L65.5166 118.244L67.8071 115.953L67.8287 115.931L71.5194 112.234L71.7169 112.04L78.1864 105.57L80.1754 103.585L81.0801 102.673L82.071 101.682L84.0924 99.6642L89.9623 97.9121L89.9731 99.5672L83.9559 105.57L82.9543 106.583L82.2577 107.275L80.1826 109.358L79.5471 109.993L78.9189 110.618L78.6496 110.876L71.0455 118.488L70.9234 118.603L70.6326 118.89L70.629 118.897L68.4498 121.094L67.8861 121.651L56.1246 133.405L51.4824 132.278Z" fill="#F1EAD8"/>
<path opacity="0.2" d="M34.8076 128.232L42.9 120.143L54.3671 108.676L54.5717 108.467L55.2575 108.27L58.6646 107.247L59.9786 106.859L64.2366 105.581L66.3476 104.949L74.5836 102.497L76.2961 101.991L76.6875 101.879L76.3859 102.181L75.1652 103.398L69.3957 109.168L68.8034 109.753L65.6978 112.862L65.328 113.224L62.2979 116.269L47.3016 131.262L39.5323 129.38L39.0835 129.273L37.2848 128.838L34.8076 128.232Z" fill="#F1EAD8"/>
<path opacity="0.2" d="M54.2627 108.561L54.5714 108.467L55.2536 108.27L58.6607 107.247L59.9783 106.859L64.2363 105.585L66.3474 104.953L74.5833 102.497L76.2958 101.991L76.6872 101.879L78.8341 101.233L80.1876 100.831L81.078 102.673L82.9521 106.586L88.9909 119.152L91.9097 125.263L92.1933 125.848L92.2005 125.866L93.8448 129.273V129.287L93.8915 129.388L93.5361 129.474L87.0091 131.05L86.3089 131.222L86.0145 131.29L85.3073 131.47L80.0799 132.734L79.9866 132.759L79.3834 132.902C77.5345 131.018 73.1652 126.738 67.8804 121.651C66.9326 120.728 65.9345 119.78 64.9364 118.818C64.0712 117.974 63.1952 117.131 62.294 116.269C59.6803 113.749 56.9841 111.16 54.3632 108.676C54.3345 108.643 54.2914 108.611 54.2627 108.561Z" fill="#616161"/>
<path d="M66.349 104.949L74.5849 102.494L76.2974 101.988L76.6888 101.876L78.8357 101.23L80.1749 103.578L82.2572 107.269L88.9925 119.145L91.3871 123.374L92.3816 125.141L94.6758 129.194L95.2609 130.235L94.5573 130.426L81.0114 133.804C80.8786 133.607 80.5554 133.248 80.0815 132.731C78.1715 130.688 73.7304 126.279 68.4492 121.095C67.4906 120.165 66.5213 119.203 65.516 118.24C64.6472 117.382 63.7676 116.528 62.888 115.67C60.3677 113.2 57.7648 110.69 55.2588 108.27L58.6659 107.247L59.9835 106.859L64.2415 105.585L66.349 104.949Z" fill="#D66753"/>
<path d="M78.066 135.502L77.4089 133.38L67.2773 127.503L67.5717 134.422L78.066 135.502Z" fill="#F9F9F9"/>
<path d="M55.9248 135.502L56.5818 133.38L66.7062 127.503L66.4118 134.422L55.9248 135.502Z" fill="#F9F9F9"/>
<path opacity="0.2" d="M67.8051 115.953L65.9238 113.957C66.5952 114.65 67.2378 115.314 67.8231 115.932C68.9432 117.098 69.8946 118.1 70.627 118.89C71.3379 119.637 71.8477 120.182 72.1277 120.488L70.6234 118.897L67.8051 115.953Z" fill="#616161"/>
<path opacity="0.2" d="M65.3301 113.225C63.0827 111.096 60.81 109.053 58.6631 107.247L59.9807 106.859L65.6963 112.862L68.231 115.53L68.5039 115.828L71.0421 118.488L76.0721 123.784L76.2013 123.931C76.1582 123.877 76.1223 123.83 76.0613 123.791C74.4995 122.19 72.7655 120.42 70.9201 118.607C70.0656 117.766 69.1788 116.894 68.2885 116.043C68.1951 115.95 68.0982 115.853 68.0048 115.76C67.118 114.905 66.2349 114.061 65.3301 113.225Z" fill="#616161"/>
<path opacity="0.2" d="M74.584 102.497L76.2965 101.991L76.3863 102.181L78.1849 105.57L80.1811 109.358L82.3927 113.573L85.0674 118.29L79.5456 109.993L77.2371 106.518L75.1656 103.398L74.584 102.497Z" fill="#616161"/>
<path opacity="0.2" d="M64.2373 105.581L66.3483 104.949L67.9209 107.33L69.3964 109.168L71.7157 112.04L72.8359 113.43L71.5183 112.234L68.804 109.753L64.2373 105.581Z" fill="#616161"/>
<path opacity="0.2" d="M90.0176 104.407L93.877 97.873V96.7456L97.9735 95.5142L100.957 96.1209L96.8569 97.9986L90.0176 104.407Z" fill="#616161"/>
<path opacity="0.2" d="M28.9941 116.104L33.823 114.657L42.5328 112.065L43.0858 111.907L43.6099 118.438L42.8991 120.143L41.7753 122.836L39.0826 129.273L37.2839 128.839L34.8067 128.232L34.6523 128.2L33.726 127.966L31.7873 123.119L29.8558 118.265L29.3137 116.923L28.9941 116.104Z" fill="#616161"/>
<path d="M33.8234 114.657L42.5333 112.062L42.5799 118.24L40.354 122.681L40.1206 123.17L37.288 128.835L34.8107 133.804C34.8107 133.804 28.4883 125.844 28.2981 125.988C28.2586 125.988 28.0755 125.054 27.8241 123.611C27.5405 121.863 27.1348 119.332 26.7363 116.775L28.772 116.183L28.9982 116.101L33.8234 114.657Z" fill="#ABABAB"/>
<path opacity="0.2" d="M89.8428 117.738L90.0151 106.748L104.986 109.279C104.986 109.279 105.004 109.893 104.911 110.493L100.621 125.902L99.7589 127.966L95.8133 128.914L95.6302 128.957L95.3358 129.04L95.1778 129.065L89.8428 117.738Z" fill="#616161"/>
<path d="M90.0176 105.48L104.156 106.751L107.764 107.089H107.771C107.771 107.089 107.771 107.107 107.764 107.139C107.764 107.146 107.764 107.146 107.764 107.157C107.721 107.441 107.563 108.511 107.337 109.997C106.54 115.3 104.931 125.995 104.763 125.995C104.562 125.851 98.2499 133.811 98.2499 133.811L98.2104 133.71L95.8158 128.921L90.4843 118.247L90.0176 105.48Z" fill="#ABABAB"/>
<path opacity="0.2" d="M26.7227 116.775H26.7406L26.7693 116.765L28.7655 116.183L28.9809 116.093L29.2645 116.018L30.0149 115.792L33.8205 114.657L31.7956 123.116L31.3038 125.195L34.7863 133.79C34.4237 133.337 28.5824 125.988 28.2916 125.988C28.2449 125.988 28.0798 125.047 27.8141 123.611C27.7997 123.493 27.771 123.367 27.7566 123.227C27.71 122.969 27.6561 122.703 27.613 122.412C27.5664 122.075 27.5017 121.719 27.4407 121.349C27.412 121.073 27.3689 120.782 27.3007 120.488C27.3007 120.402 27.2684 120.297 27.254 120.183L27.1176 119.296C27.0817 119.091 27.053 118.897 27.0278 118.682C27.0135 118.603 27.0135 118.524 26.9991 118.448C26.9022 117.896 26.8268 117.336 26.7227 116.775Z" fill="#F1EAD8"/>
<path opacity="0.2" d="M98.2153 133.703L101.669 125.198L101.414 124.071L98.4342 111.645L104.161 106.748L105.421 105.675C105.421 105.675 107.284 98.1208 107.492 97.8695C107.543 97.8048 107.636 97.8408 107.805 97.9018V106.36L107.776 107.082C107.776 107.082 107.776 107.1 107.776 107.132C107.776 107.15 107.776 107.15 107.776 107.15L107.675 109.222L107.345 109.99V110.037C107.255 110.622 107.162 111.25 107.051 111.943C106.563 115.225 105.916 119.479 105.421 122.437C105.378 122.721 105.345 122.987 105.295 123.227C105.022 124.9 104.81 125.992 104.764 125.992C104.455 125.992 98.2512 133.815 98.2512 133.815H98.1758L98.2153 133.703Z" fill="#F1EAD8"/>
<path d="M102.452 118.7C102.639 117.3 107.015 111.835 107.015 111.835C107.015 111.835 107.03 111.875 107.044 111.943C106.556 115.224 105.91 119.479 105.414 122.437C104.922 122.563 104.369 122.627 104.136 122.602C102.944 122.437 102.194 120.696 102.452 118.7Z" fill="#D66753"/>
<path d="M26.7715 116.765L28.7676 116.183L28.9831 116.094L29.2667 116.018C30.0278 117.142 30.6417 118.19 30.7064 118.7C30.9649 120.696 30.2145 122.437 29.0333 122.603C28.7677 122.628 28.1609 122.549 27.6188 122.412C27.6044 122.412 27.5901 122.398 27.5721 122.398L27.3064 120.488L27.2598 120.183L27.1233 119.296L26.7715 116.765Z" fill="#D66753"/>
<path opacity="0.2" d="M77.9177 129.273C76.1549 125.991 80.1975 117.026 80.1975 117.026C80.1975 117.026 89.471 120.484 90.4296 123.973C91.022 126.102 89.9342 128.361 88.0601 129.179C87.001 129.653 85.3997 129.24 85.3997 129.24C85.3997 129.24 84.6601 130.684 83.5364 131.165C81.5797 132.001 79.002 131.297 77.9177 129.273Z" fill="#616161"/>
<path d="M78.0197 128.12C76.878 125.155 80.4754 118.294 80.4754 118.294C80.4754 118.294 88.1333 120.225 89.4222 123.144C90.3018 125.144 89.4545 127.442 87.5553 128.289C86.4926 128.756 84.8483 128.268 84.8483 128.268C84.8483 128.268 84.1697 129.779 83.0604 130.246C81.1432 131.068 78.7988 130.178 78.0197 128.12Z" fill="#E3B605"/>
<path opacity="0.2" d="M81.4582 120.491C84.3448 121.399 87.26 122.817 87.7303 123.877C87.9601 124.408 87.9889 124.99 87.7986 125.517C87.6227 126.013 87.2672 126.397 86.8149 126.591C86.8077 126.591 86.6964 126.645 86.4091 126.645C85.9711 126.645 85.508 126.537 85.3608 126.497L83.835 126.056L83.1636 127.506C82.9662 127.944 82.5568 128.454 82.3378 128.547C82.1009 128.648 81.846 128.705 81.5731 128.705C80.9448 128.705 80.0832 128.379 79.7421 127.47C79.279 126.264 80.313 123.022 81.4582 120.491Z" fill="#616161"/>
<path opacity="0.2" d="M26.7227 116.775C26.7729 117.056 26.8232 117.332 26.8663 117.608C26.9381 118.057 27.0063 118.499 27.0709 118.926C27.0924 119.052 27.114 119.17 27.1284 119.292L27.2648 120.179C27.2791 120.294 27.3115 120.398 27.3115 120.484L27.5772 122.394C27.5951 122.394 27.6058 122.409 27.6238 122.409C27.6633 122.699 27.7171 122.961 27.7674 123.223C27.7782 123.364 27.8069 123.489 27.8248 123.608C27.8859 123.949 27.9433 124.272 27.9972 124.555C28.051 124.879 28.1085 125.148 28.148 125.37C28.2306 125.765 28.2772 125.988 28.3024 125.988C28.5896 125.988 34.4309 133.337 34.7971 133.79L34.7899 133.779C34.7971 133.779 34.8186 133.804 34.8186 133.804L39.5433 129.377L47.3125 131.258L51.4916 132.274L56.1337 133.402L56.543 133.502H56.5502L55.9327 135.498L60.3163 137.444V138.801C57.1533 141.789 54.8448 146.923 54.2524 150.689C54.2488 150.76 54.2345 151.012 54.2237 151.374C54.1914 151.446 54.1448 151.507 54.1088 151.586C53.5236 152.821 50.2853 167.39 50.2206 168.507C50.2171 168.604 50.2278 168.683 50.2206 168.78C50.2206 168.78 50.2206 168.787 50.2206 168.794C49.9334 174.398 54.7371 178.904 60.3738 178.983C63.5942 179.033 63.867 177.806 66.9582 177.791V104.77L66.3586 104.946L64.2476 105.578L59.9896 106.852L58.672 107.24L55.2649 108.263L54.5827 108.461L54.274 108.554L43.1012 111.9L42.5448 112.058L33.8349 114.654L30.0293 115.788L29.7815 115.86L29.1353 116.057L28.9953 116.09L28.8947 116.136L28.7799 116.18L27.1571 116.646L26.7837 116.761L26.7442 116.772C26.7442 116.772 26.7442 116.772 26.7514 116.772H26.7227V116.775Z" fill="#616161"/>
<path d="M30.8632 40.1676C30.6155 44.7666 21.3851 51.7532 21.3851 51.7532C21.3851 51.7532 11.9033 44.7164 11.9033 40.0958C11.9033 36.9364 14.4955 34.3801 17.6656 34.3801C19.4392 34.3801 21.4246 35.9742 21.4246 35.9742C21.4246 35.9742 23.3059 34.3802 25.1369 34.4017C28.307 34.452 31.032 36.9974 30.8632 40.1676Z" fill="#D66753"/>
<path opacity="0.2" d="M25.1317 34.4087C23.3007 34.3836 21.4194 35.9812 21.4194 35.9812C21.4194 35.9812 21.3907 35.9669 21.3584 35.9382V51.7423C21.3692 51.7494 21.3763 51.7567 21.3763 51.7567C21.3763 51.7567 30.6068 44.7701 30.8545 40.171C31.0304 36.9973 28.3054 34.4518 25.1317 34.4087Z" fill="#616161"/>
<path d="M113.263 159.613C113.511 155.014 122.738 148.028 122.738 148.028C122.738 148.028 132.223 155.068 132.223 159.675C132.223 162.837 129.631 165.397 126.461 165.397C124.68 165.397 122.698 163.8 122.698 163.8C122.698 163.8 120.817 165.397 118.99 165.376C115.82 165.336 113.095 162.784 113.263 159.613Z" fill="#D66753"/>
<path opacity="0.2" d="M118.993 165.376C120.817 165.397 122.702 163.8 122.702 163.8C122.702 163.8 122.724 163.821 122.767 163.85V148.046C122.749 148.039 122.738 148.031 122.738 148.031C122.738 148.031 113.511 155.014 113.263 159.617C113.095 162.784 115.82 165.336 118.993 165.376Z" fill="#616161"/>
<path d="M19.6851 15.1666H26.3739V15.5577H25.2419V24.4486C25.2419 26.3009 24.8234 27.6524 23.9865 28.503C23.1495 29.34 21.8941 29.7585 20.2202 29.7585C19.1088 29.7585 18.2238 29.5458 17.5653 29.1205C16.9204 28.6951 16.598 28.0983 16.598 27.3299C16.598 26.7399 16.7626 26.2803 17.0919 25.951C17.4212 25.608 17.8671 25.4365 18.4297 25.4365C19.0059 25.4365 19.4313 25.5806 19.7057 25.8687C19.9938 26.1568 20.1379 26.5067 20.1379 26.9183C20.1379 27.3162 20.0624 27.721 19.9115 28.1326H19.1088C18.9853 28.3384 18.9236 28.5373 18.9236 28.7294C18.9236 28.9078 19.0128 29.0656 19.1911 29.2028C19.3832 29.3263 19.6302 29.388 19.9321 29.388C20.4809 29.388 20.8308 29.1753 20.9817 28.75C21.1463 28.3109 21.2287 27.3711 21.2287 25.9304V15.5577H19.6851V15.1666Z" fill="#D66753"/>
<path d="M125.267 186.922L118.578 186.922L118.578 186.531L119.71 186.531L119.71 177.641C119.71 175.788 120.129 174.437 120.966 173.586C121.803 172.749 123.058 172.331 124.732 172.331C125.843 172.331 126.728 172.543 127.387 172.969C128.032 173.394 128.354 173.991 128.354 174.759C128.354 175.349 128.19 175.809 127.86 176.138C127.531 176.481 127.085 176.653 126.522 176.653C125.946 176.653 125.521 176.509 125.246 176.22C124.958 175.932 124.814 175.582 124.814 175.171C124.814 174.773 124.89 174.368 125.041 173.957L125.843 173.957C125.967 173.751 126.029 173.552 126.029 173.36C126.029 173.181 125.939 173.024 125.761 172.886C125.569 172.763 125.322 172.701 125.02 172.701C124.471 172.701 124.121 172.914 123.97 173.339C123.806 173.778 123.724 174.718 123.723 176.159L123.723 186.531L125.267 186.531L125.267 186.922Z" fill="#D66753"/>
</svg>
