<svg width="143" height="201" viewBox="0 0 143 201" fill="none" xmlns="http://www.w3.org/2000/svg">
<path d="M15.7938 199.971C7.34638 199.982 0.453416 193.233 0.439055 184.929L0.00106608 15.1251C-0.0276546 6.77094 6.85813 -0.0179149 15.3379 3.55152e-05L127.546 0.204681C135.993 0.222632 142.865 7.01865 142.865 15.3548V184.792C142.865 193.078 136.019 199.824 127.6 199.831L15.7938 199.971Z" fill="#C9C9C9"/>
<path d="M16.9593 199.777C8.62315 199.777 1.83789 193.01 1.83789 184.699V15.3007C1.83789 6.98961 8.62315 0.229492 16.9593 0.229492H127.537C135.881 0.229492 142.663 6.98961 142.663 15.3007V184.699C142.663 193.01 135.881 199.777 127.537 199.777H16.9593Z" fill="#F1EAD8"/>
<path d="M127.742 196.366H17.164C10.7019 196.366 5.44238 191.136 5.44238 184.699V15.3006C5.44238 8.86715 10.6983 3.63281 17.164 3.63281H127.742C134.201 3.63281 139.46 8.86715 139.46 15.3006V184.699C139.457 191.132 134.201 196.366 127.742 196.366ZM17.164 8.26402C13.2544 8.26402 10.0736 11.4197 10.0736 15.3006V184.699C10.0736 188.58 13.2544 191.739 17.164 191.739H127.742C131.652 191.739 134.833 188.58 134.833 184.699V15.3006C134.833 11.4197 131.652 8.26402 127.742 8.26402H17.164Z" fill="#D66753"/>
<path d="M21.2685 52.6016L14.0273 43.4649L21.2685 34.3281L28.5026 43.4649L21.2685 52.6016Z" fill="#D66753"/>
<path opacity="0.2" d="M21.2705 34.3281L21.0371 34.6225V52.3037L21.2705 52.6016L28.5045 43.4649L21.2705 34.3281Z" fill="#616161"/>
<path d="M14.1581 15.4233H20.435V15.8143H19.3031V22.3176L19.4677 22.2764L25.2713 15.8143H23.6455V15.4233H27.247V15.8143H26.0122L22.4724 19.7657L27.4116 29.4383H28.523V29.8293H21.9168V29.4383H22.884L19.4883 22.8733L19.3031 22.9144V29.4383H20.435V29.8293H14.1581V29.4383H15.29V15.8143H14.1581V15.4233Z" fill="#D66753"/>
<path d="M124.211 149.232L131.445 158.373L124.211 167.506L116.974 158.373L124.211 149.232Z" fill="#D66753"/>
<path opacity="0.2" d="M124.211 167.506L124.445 167.212V149.523L124.211 149.232L116.974 158.373L124.211 167.506Z" fill="#616161"/>
<path d="M130.894 187.171L124.617 187.171L124.617 186.78L125.749 186.78L125.749 180.277L125.584 180.318L119.78 186.78L121.406 186.78L121.406 187.171L117.805 187.171L117.805 186.78L119.04 186.78L122.579 182.829L117.64 173.156L116.529 173.156L116.529 172.765L123.135 172.765L123.135 173.156L122.168 173.156L125.563 179.721L125.749 179.68L125.749 173.156L124.617 173.156L124.617 172.765L130.894 172.765L130.894 173.156L129.762 173.156L129.762 186.78L130.894 186.78L130.894 187.171Z" fill="#D66753"/>
<path d="M113.31 63.8063L113.005 62.7652C113.005 62.7652 93.866 51.8513 87.7557 48.3869C86.6069 47.7371 85.9212 47.3494 85.896 47.3494H58.6581C58.6509 47.3494 58.6114 47.3745 58.5324 47.414C58.4786 47.4463 58.4104 47.4858 58.3278 47.5253C58.2596 47.5719 58.177 47.615 58.0837 47.6617C58.0083 47.7084 57.9149 47.755 57.8252 47.8089C57.7354 47.8663 57.6349 47.9202 57.5164 47.9848C57.3513 48.0746 57.1754 48.1787 56.9815 48.29C56.6117 48.5018 56.1917 48.7387 55.725 49.0044C55.7178 49.0044 55.7106 49.0116 55.7034 49.0116C55.3588 49.2126 54.9854 49.4208 54.5977 49.647C54.4649 49.7188 54.332 49.7978 54.1956 49.8768C53.2837 50.3973 52.2713 50.9646 51.1907 51.5821C50.803 51.8047 50.4081 52.0236 50.0096 52.257C49.6218 52.4796 49.2162 52.7058 48.8105 52.9355C48.4156 53.1689 47.9955 53.4058 47.5791 53.6392C42.1688 56.7195 36.2201 60.1193 33.3264 61.7671C33.1577 61.8605 33.0069 61.9466 32.8633 62.0328C32.1704 62.4277 31.7217 62.679 31.5996 62.7508V108.155L49.4244 102.798L53.4704 101.585L113.317 83.6092V63.8063H113.31Z" fill="#D66753"/>
<path opacity="0.2" d="M72.4766 90.7284L64.3486 78.8775L72.5125 69.73L80.741 79.1862L72.4766 90.7284Z" fill="#616161"/>
<path d="M72.4944 88.0358L65.2568 78.8883L72.4944 69.7551L79.7285 78.8883L72.4944 88.0358Z" fill="#E3B605"/>
<path opacity="0.2" d="M68.4121 78.8883L72.494 73.7366L76.5688 78.8883L72.494 84.0437L68.4121 78.8883Z" fill="#616161"/>
<path d="M72.497 70.8572L65.0332 57.9365H79.9536L72.497 70.8572ZM66.4621 58.7623L72.497 69.2094L78.5283 58.7623H66.4621Z" fill="#E3B605"/>
<path opacity="0.2" d="M62.4717 47.3495C62.3317 47.3818 35.3702 62.7654 35.3702 62.7654L31.5898 74.4331V108.148L49.4146 102.791L53.4606 101.578L64.116 66.6175L65.5449 61.936L67.6235 57.47L72.2763 47.5326V47.3459L62.4717 47.3495Z" fill="#616161"/>
<path d="M58.6584 47.3494C58.6512 47.3494 58.6117 47.3745 58.5327 47.414C58.4789 47.4463 58.4107 47.4858 58.3281 47.5253C58.2599 47.5719 58.1773 47.615 58.084 47.6617C58.0122 47.7084 57.9224 47.755 57.8255 47.8089C57.7357 47.8663 57.6352 47.9202 57.5167 47.9848C57.3516 48.0746 57.1757 48.1787 56.9818 48.29C56.612 48.4982 56.192 48.7351 55.7253 49.0044C55.7181 49.0044 55.7109 49.0116 55.7037 49.0116C55.3591 49.209 54.9857 49.4173 54.598 49.647C54.4652 49.7188 54.3323 49.7978 54.1959 49.8768C53.284 50.3901 52.2716 50.9646 51.191 51.5821C50.8033 51.8047 50.4084 52.0236 50.0099 52.257C49.615 52.4796 49.2165 52.7022 48.8108 52.9355C48.4159 53.1653 47.9958 53.3987 47.5794 53.6392C45.8382 54.6372 44.036 55.6532 42.2984 56.6513C41.7778 56.9421 41.2572 57.24 40.7546 57.5308C37.721 59.2648 35.0069 60.8122 33.3303 61.7671C33.1652 61.8605 33.0108 61.9466 32.8672 62.0328C32.1743 62.4277 31.7256 62.679 31.6035 62.7508V108.155L34.7807 107.2L36.5614 106.668L49.2308 102.863L49.4283 102.798C50.0242 101.398 50.6381 99.9046 51.2915 98.3573C55.5601 88.0896 60.7622 75.0935 64.1297 66.6245C66.2263 61.3507 67.612 57.8324 67.612 57.8324L67.6336 57.477L68.5491 47.3565H58.6584V47.3494Z" fill="#F9F9F9"/>
<path opacity="0.2" d="M113.311 76.4865L109.178 62.7652C109.178 62.7652 82.2206 47.3853 82.0841 47.3494H72.2832V47.5361L79.0146 61.9359L87.7529 91.8197L113.311 82.5609V76.4865Z" fill="#616161"/>
<path d="M113.311 63.8135L112.998 62.7652C112.998 62.7652 86.0369 47.3853 85.8969 47.3494H76.0098L76.9504 57.8252C76.9504 57.8252 88.5858 81.9614 92.718 89.7913L113.314 83.6056L113.311 63.8135Z" fill="#F9F9F9"/>
<path opacity="0.4" d="M87.7534 48.3872L87.1646 55.8043L72.3878 66.3592V66.3879L72.3663 66.3735L72.3519 66.3879V66.3592L57.5679 55.8043L56.9756 48.2903C58.0095 47.6979 58.6342 47.3497 58.6522 47.3497H60.8565C62.2063 49.4104 63.3516 51.148 63.3516 51.148L68.7367 47.3497L69.5552 46.7681L72.3627 46.8686L75.1737 46.7681L75.9923 47.3497L81.381 51.148C81.381 51.148 82.5334 49.4104 83.8725 47.3497H85.8937C85.9224 47.3533 86.6081 47.741 87.7534 48.3872Z" fill="#616161"/>
<path d="M88.0152 40.6787L87.7351 36.9916L87.7279 36.8552L86.8879 25.5788L82.6946 23.4606L74.6026 19.3679L72.366 20.5706L70.1258 19.3679L62.0373 23.4606L57.8477 25.5788L57.0076 36.8552L56.9968 36.9916L56.7168 40.6787L57.5605 51.4058L72.3444 61.9643V61.9894L72.3516 61.993L72.366 61.9786L72.3875 61.993V61.9894V61.9643L87.1643 51.4058L88.0152 40.6787Z" fill="#FDD5B0"/>
<path d="M88.0112 40.679L87.724 36.8591C86.4388 39.1317 81.3768 46.7534 81.3768 46.7534L75.1659 42.3771L72.3585 42.474L69.551 42.3771L63.3438 46.7534C63.3438 46.7534 58.2818 39.1317 56.9965 36.8591L56.7129 40.679L57.5566 51.4062L72.3405 61.9646V61.9933L72.3549 61.979L72.3764 61.9933V61.9646L87.1532 51.4062L88.0112 40.679Z" fill="#9C9C9C"/>
<path d="M72.3854 47.3423L77.3397 47.1735L73.6312 44.8436C73.6312 44.8436 73.0316 44.8292 72.3854 44.822C72.3746 44.822 72.3675 44.822 72.3639 44.822C72.3603 44.822 72.3531 44.822 72.3495 44.822C71.6925 44.8292 71.0966 44.8436 71.0966 44.8436L67.3916 47.1735L72.3459 47.3423V47.3494H72.3603H72.3818L72.3854 47.3423Z" fill="#FDD5B0"/>
<path opacity="0.2" d="M75.3868 40.2554L73.3512 33.2009H72.3891H72.3532H71.3839L69.3555 40.2554L71.3839 42.4346L72.3532 42.4705V42.4741L72.3676 42.4705L72.3891 42.4741V42.4705L73.3512 42.4346L75.3868 40.2554Z" fill="#616161"/>
<path d="M74.5088 31.3088L80.8848 30.5082L81.0248 30.4902L81.093 30.5333L84.1302 32.1381L80.8166 31.2118L81.0248 31.2298L74.8427 32.9746L74.5088 31.3088Z" fill="#9C9C9C"/>
<path d="M76.7462 33.9724C76.6421 34.2058 76.5811 34.4499 76.5811 34.7156C76.5811 35.71 77.3924 36.5142 78.3797 36.5142C79.3741 36.5142 80.1783 35.71 80.1783 34.7156C80.1783 34.4499 80.1173 34.2058 80.0168 33.9724H76.7462Z" fill="#2C2C2C"/>
<path d="M70.2259 31.3088L63.8499 30.5082L63.7099 30.4902L63.6417 30.5333L60.6045 32.1381L63.911 31.2118L63.7027 31.2298L69.892 32.9746L70.2259 31.3088Z" fill="#9C9C9C"/>
<path d="M67.9872 33.9724C68.0877 34.2058 68.1523 34.4499 68.1523 34.7156C68.1523 35.71 67.3445 36.5142 66.3501 36.5142C65.3556 36.5142 64.5479 35.71 64.5479 34.7156C64.5479 34.4499 64.6053 34.2058 64.713 33.9724H67.9872Z" fill="#2C2C2C"/>
<path d="M87.7361 36.9917C87.6356 37.0707 87.5817 37.1102 87.5817 37.1102L84.6343 26.7061L82.6992 23.4607L86.8888 25.5788L87.7289 36.8589L87.7361 36.9917Z" fill="#9C9C9C"/>
<path d="M56.9971 36.9917C57.1048 37.0707 57.1586 37.1102 57.1586 37.1102L60.1061 26.7061L62.0411 23.4607L57.8515 25.5788L57.0114 36.8589L56.9971 36.9917Z" fill="#9C9C9C"/>
<path d="M87.1654 21.5583V25.8628C83.4245 26.8788 79.2421 27.3239 75.2284 27.4317C72.5538 27.5106 69.9545 27.4424 67.603 27.3096C66.4363 27.2414 65.3377 27.1588 64.3217 27.069C63.1083 26.9578 62.0133 26.8429 61.0655 26.7316C58.8073 26.4587 57.418 26.2146 57.418 26.2146V22.1219C57.418 22.1219 72.2163 14.2166 72.2881 14.2166C72.2881 14.2525 74.1406 15.1715 76.5316 16.3526C77.2891 16.726 78.1076 17.1317 78.9369 17.5374C79.7232 17.9215 80.5237 18.3164 81.2992 18.7006C83.4999 19.774 85.5104 20.7505 86.5048 21.2387C86.9249 21.4362 87.1654 21.5583 87.1654 21.5583Z" fill="#E3B605"/>
<path opacity="0.2" d="M78.9388 17.5339L64.3236 27.0655C63.1101 26.9542 62.0152 26.8393 61.0674 26.728L76.5335 16.3491C77.291 16.7225 78.1095 17.1282 78.9388 17.5339Z" fill="#F1EAD8"/>
<path opacity="0.2" d="M86.5079 21.2313L75.2279 27.4278C72.5533 27.5068 69.954 27.4386 67.6025 27.3057L81.2987 18.6931C83.503 19.7701 85.5135 20.7466 86.5079 21.2313Z" fill="#F1EAD8"/>
<path d="M74.899 18.8335L72.4972 22.0431V22.0502L72.368 22.2585L69.8154 18.9233L72.4972 15.3547L74.899 18.8335Z" fill="#D66753"/>
<path opacity="0.2" d="M72.4961 22.0431L73.049 19.232L72.4961 15.3547L74.8979 18.8335L72.4961 22.0431Z" fill="#F1EAD8"/>
<path d="M43.0697 77.1543L42.5742 80.6295L44.2903 77.5671L43.0697 77.1543Z" fill="#4E7BAD"/>
<path d="M49.9049 77.1543L49.4131 80.6295L51.1256 77.5671L49.9049 77.1543Z" fill="#4E7BAD"/>
<path d="M56.7383 77.1543L56.25 80.6295L57.9553 77.5671L56.7383 77.1543Z" fill="#4E7BAD"/>
<path d="M34.5215 88.3513L34.0332 91.8194L35.7385 88.7606L34.5215 88.3513Z" fill="#4E7BAD"/>
<path d="M41.358 88.3513L40.8662 91.8194L42.5751 88.7606L41.358 88.3513Z" fill="#4E7BAD"/>
<path d="M48.1839 88.3513L47.6992 91.8194L49.4117 88.7606L48.1839 88.3513Z" fill="#4E7BAD"/>
<path d="M36.6077 99.6277L36.123 103.096L37.8319 100.041L36.6077 99.6277Z" fill="#4E7BAD"/>
<path d="M43.4502 99.6277L42.9512 103.096L44.6708 100.041L43.4502 99.6277Z" fill="#4E7BAD"/>
<path d="M50.7621 99.3587C50.439 100.134 50.1267 100.884 49.8359 101.577L49.7354 101.61L50.0836 99.1289L50.7621 99.3587Z" fill="#4E7BAD"/>
<path d="M55.0316 57.635L54.5361 61.1102L56.2486 58.0514L55.0316 57.635Z" fill="#4E7BAD"/>
<path d="M48.1839 56.2383L47.6992 59.7027L49.4117 56.6475L48.1839 56.2383Z" fill="#4E7BAD"/>
<path d="M41.8173 57.4983L40.8623 59.2L41.0418 57.9363C41.2967 57.7927 41.5516 57.6419 41.8173 57.4983Z" fill="#4E7BAD"/>
<path d="M36.1013 106.658L35.2109 106.923L35.2899 106.381L36.1013 106.658Z" fill="#4E7BAD"/>
<path d="M34.6933 65.8704L34.2051 69.342L35.9104 66.2796L34.6933 65.8704Z" fill="#4E7BAD"/>
<path d="M42.3011 65.8704L41.8057 69.342L43.5145 66.2796L42.3011 65.8704Z" fill="#4E7BAD"/>
<path d="M49.1334 65.8704L48.6416 69.342L50.3541 66.2796L49.1334 65.8704Z" fill="#4E7BAD"/>
<path d="M55.9632 65.8704L55.4785 69.342L57.1874 66.2796L55.9632 65.8704Z" fill="#4E7BAD"/>
<path d="M62.9716 59.448L62.4834 62.9232L64.1923 59.8573L62.9716 59.448Z" fill="#4E7BAD"/>
<path d="M35.4609 77.1543L34.9727 80.6295L36.6815 77.5671L35.4609 77.1543Z" fill="#4E7BAD"/>
<path d="M103.139 77.1543L103.624 80.6295L101.922 77.5671L103.139 77.1543Z" fill="#4E7BAD"/>
<path d="M96.3027 77.1543L96.7945 80.6295L95.082 77.5671L96.3027 77.1543Z" fill="#4E7BAD"/>
<path d="M89.4661 77.1543L89.9615 80.6295L88.249 77.5671L89.4661 77.1543Z" fill="#4E7BAD"/>
<path d="M91.1806 57.635L91.6688 61.1102L89.96 58.0514L91.1806 57.635Z" fill="#4E7BAD"/>
<path d="M98.0139 56.2383L98.5057 59.7027L96.7969 56.6475L98.0139 56.2383Z" fill="#4E7BAD"/>
<path d="M104.39 57.4983L105.341 59.2L105.165 57.9363C104.91 57.7927 104.655 57.6419 104.39 57.4983Z" fill="#4E7BAD"/>
<path d="M111.511 65.8704L112.007 69.342L110.287 66.2796L111.511 65.8704Z" fill="#4E7BAD"/>
<path d="M103.908 65.8704L104.4 69.342L102.684 66.2796L103.908 65.8704Z" fill="#4E7BAD"/>
<path d="M97.0738 65.8704L97.5621 69.342L95.8496 66.2796L97.0738 65.8704Z" fill="#4E7BAD"/>
<path d="M90.2375 65.8704L90.733 69.342L89.0205 66.2796L90.2375 65.8704Z" fill="#4E7BAD"/>
<path d="M83.233 59.448L83.7248 62.9232L82.0088 59.8573L83.233 59.448Z" fill="#4E7BAD"/>
<path d="M110.74 77.1543L111.232 80.6295L109.523 77.5671L110.74 77.1543Z" fill="#4E7BAD"/>
<path opacity="0.2" d="M113.31 63.8065L113.005 62.7653C113.005 62.7653 109.601 60.8303 105.221 58.328L105.164 57.9403C104.909 57.7967 104.654 57.6459 104.389 57.5023L104.687 58.03C99.8543 55.2693 93.9773 51.9233 90.1 49.7226C89.0374 49.1194 88.1219 48.5989 87.4218 48.2004L88.0178 40.6792L87.8706 38.7477L87.7342 36.9921L87.727 36.8557L86.912 25.9239C86.9946 25.9024 87.0772 25.8844 87.1633 25.8593V21.5548C87.1633 21.5548 86.9228 21.4327 86.5063 21.2317C85.5119 20.747 83.5014 19.7705 81.3007 18.6935C80.5253 18.3129 79.7247 17.918 78.9385 17.5303C78.1091 17.1246 77.2906 16.7189 76.5331 16.3456C74.5514 15.3691 72.9466 14.5685 72.4512 14.3064V95.8767L87.6085 91.3209L87.7521 91.8199L96.4473 88.6678L97.1258 88.4667L113.31 83.6022V63.8065Z" fill="#616161"/>
<path d="M31.5931 136.067L31.9055 137.105C31.9055 137.105 51.037 148.026 57.1509 151.483C58.2962 152.137 58.989 152.521 59.0106 152.521H86.2521C86.2593 152.521 86.306 152.499 86.3814 152.456C86.4281 152.424 86.4963 152.391 86.5788 152.345C86.6506 152.302 86.7332 152.259 86.8266 152.212C86.9091 152.165 86.9953 152.111 87.0779 152.061C87.1748 152 87.2789 151.946 87.3902 151.889C87.5553 151.796 87.7313 151.695 87.9251 151.58C88.2949 151.368 88.7185 151.131 89.1888 150.869L89.2032 150.862C89.5443 150.657 89.9248 150.449 90.3125 150.227C90.4454 150.151 90.5782 150.076 90.7182 149.993C91.6301 149.473 92.6389 148.905 93.7123 148.299C94.1037 148.073 94.4986 147.846 94.8971 147.62C95.2884 147.394 95.6869 147.168 96.0926 146.945C96.4947 146.705 96.9075 146.468 97.3276 146.238C102.734 143.154 108.687 139.758 111.577 138.117C111.749 138.013 111.903 137.927 112.043 137.844C112.736 137.45 113.178 137.198 113.303 137.126V91.7227L95.4787 97.079L91.4362 98.2889L31.5859 116.264V136.067H31.5931Z" fill="#D66753"/>
<path opacity="0.2" d="M72.4301 109.138L80.5544 120.989L72.387 130.144L64.1621 120.687L72.4301 109.138Z" fill="#616161"/>
<path d="M72.4137 111.842L79.6549 120.979L72.4137 130.115L65.1797 120.979L72.4137 111.842Z" fill="#E3B605"/>
<path opacity="0.2" d="M76.4923 120.978L72.414 126.13L68.332 120.978L72.414 115.83L76.4923 120.978Z" fill="#616161"/>
<path d="M72.412 129.009L79.8758 141.93H64.959L72.412 129.009ZM78.4469 141.111L72.412 130.657L66.3807 141.111H78.4469Z" fill="#E3B605"/>
<path opacity="0.2" d="M82.4305 152.517C82.5741 152.485 109.536 137.105 109.536 137.105L113.316 125.437V91.7263L95.4912 97.0827L91.4488 98.2926L80.7898 133.253L79.3681 137.938L77.2787 142.404L72.6367 152.338V152.524H82.4305V152.517Z" fill="#616161"/>
<path d="M86.2543 152.517C86.2615 152.517 86.3082 152.496 86.3835 152.453C86.4302 152.42 86.4984 152.388 86.581 152.341C86.6528 152.298 86.7354 152.255 86.8287 152.208C86.9041 152.162 86.9903 152.108 87.08 152.058C87.177 151.997 87.2811 151.943 87.3924 151.885C87.5575 151.792 87.7334 151.691 87.9273 151.577C88.2971 151.375 88.7171 151.135 89.191 150.866C89.1946 150.866 89.2018 150.859 89.2053 150.859C89.5464 150.657 89.927 150.449 90.3147 150.223C90.4475 150.148 90.5804 150.072 90.7204 149.99C91.6287 149.476 92.6411 148.902 93.7145 148.295C94.1058 148.069 94.5007 147.843 94.8992 147.617C95.2905 147.39 95.689 147.171 96.0947 146.942C96.4968 146.712 96.9097 146.471 97.3297 146.234C99.0673 145.24 100.873 144.217 102.611 143.226C103.135 142.928 103.652 142.637 104.158 142.346C107.192 140.612 109.906 139.065 111.579 138.114C111.747 138.01 111.905 137.923 112.045 137.841C112.738 137.446 113.18 137.195 113.306 137.123V91.7227L110.132 92.6776L108.348 93.2089L95.6819 97.018L95.4772 97.0826C94.8849 98.4828 94.2674 99.9727 93.6176 101.524C89.349 111.784 84.1433 124.784 80.7758 133.253C78.6756 138.527 77.297 142.045 77.297 142.045L77.2647 142.4L76.3564 152.521L86.2543 152.517Z" fill="#F9F9F9"/>
<path opacity="0.2" d="M31.5934 123.383L35.7256 137.105C35.7256 137.105 62.6871 152.485 62.8272 152.524H72.6281V152.334L65.8967 137.934L57.1548 108.054L31.5898 117.313L31.5934 123.383Z" fill="#616161"/>
<path d="M31.5934 136.06L31.9058 137.101C31.9058 137.101 58.8637 152.481 59.0073 152.52H68.898L67.9538 142.041C67.9538 142.041 56.3291 117.905 52.1897 110.078L31.5898 116.264L31.5934 136.06Z" fill="#F9F9F9"/>
<path opacity="0.4" d="M57.1582 151.479L57.7362 144.066L72.5202 133.511V133.479L72.5345 133.493L72.5597 133.479V133.511L87.34 144.066L87.9288 151.576C86.8949 152.169 86.2738 152.517 86.2522 152.524H84.0479C82.7016 150.46 81.5528 148.726 81.5528 148.726L76.1677 152.524L75.3456 153.102L72.5381 153.005L69.7379 153.102L68.9157 152.524L63.5306 148.726C63.5306 148.726 62.3746 150.46 61.0319 152.524H59.0107C58.9891 152.517 58.2963 152.129 57.1582 151.479Z" fill="#616161"/>
<path d="M56.8916 159.191L57.1716 162.874L57.1788 163.011L58.0189 174.295L62.2121 176.413L70.297 180.505L72.5336 179.303L74.7774 180.505L82.8694 176.413L87.0555 174.295L87.9027 163.011L87.9063 162.874L88.19 159.191L87.3427 148.464L72.5623 137.905V137.877H72.5587L72.5336 137.888L72.5192 137.877V137.905L57.7353 148.464L56.8916 159.191Z" fill="#FDD5B0"/>
<path d="M56.8916 159.191L57.1788 163.007C58.4605 160.742 63.5261 153.117 63.5261 153.117L69.7333 157.5L72.5336 157.4L75.341 157.5L81.5519 153.117C81.5519 153.117 86.6175 160.746 87.8992 163.007L88.19 159.191L87.3427 148.464L72.5623 137.905V137.877L72.5372 137.888L72.5228 137.877V137.905L57.7389 148.464L56.8916 159.191Z" fill="#9C9C9C"/>
<path d="M72.5178 152.524L67.5635 152.7L71.272 155.027C71.272 155.027 71.8716 155.041 72.5214 155.048C72.5286 155.048 72.5357 155.048 72.5357 155.048C72.5465 155.048 72.5537 155.048 72.5609 155.048C73.2143 155.041 73.8102 155.027 73.8102 155.027L77.5152 152.7L72.5609 152.524H72.5357H72.5178Z" fill="#FDD5B0"/>
<path opacity="0.2" d="M69.5273 159.614L71.5486 166.669H72.5179H72.5574H73.5231L75.5587 159.614L73.5231 157.435L72.5574 157.399V157.396L72.5322 157.399L72.5179 157.396V157.399L71.5486 157.435L69.5273 159.614Z" fill="#616161"/>
<path d="M70.3985 168.558L64.0189 169.359L63.8824 169.38L63.8106 169.341L60.7734 167.729L64.0835 168.659L63.8789 168.641L70.0646 166.899L70.3985 168.558Z" fill="#9C9C9C"/>
<path d="M68.1636 165.897C68.2677 165.671 68.3215 165.42 68.3215 165.154C68.3215 164.163 67.5174 163.359 66.5265 163.359C65.532 163.359 64.7314 164.163 64.7314 165.154C64.7314 165.42 64.7925 165.671 64.8858 165.897H68.1636Z" fill="#2C2C2C"/>
<path d="M74.6777 168.558L81.0537 169.359L81.1973 169.38L81.2691 169.341L84.3099 167.729L80.9927 168.659L81.2009 168.641L75.0152 166.899L74.6777 168.558Z" fill="#9C9C9C"/>
<path d="M76.9181 165.897C76.814 165.671 76.7529 165.42 76.7529 165.154C76.7529 164.163 77.5607 163.359 78.5516 163.359C79.5496 163.359 80.3574 164.163 80.3574 165.154C80.3574 165.42 80.2963 165.671 80.1922 165.897H76.9181Z" fill="#2C2C2C"/>
<path d="M57.1719 162.875C57.2724 162.799 57.3334 162.753 57.3334 162.753L60.2845 173.164L62.2124 176.409L58.0227 174.291L57.1826 163.008L57.1719 162.875Z" fill="#9C9C9C"/>
<path d="M87.908 162.875C87.8075 162.799 87.7536 162.753 87.7536 162.753L84.799 173.164L82.8711 176.409L87.0571 174.291L87.9044 163.008L87.908 162.875Z" fill="#9C9C9C"/>
<path d="M57.7402 178.316V174.007C61.4811 172.991 65.6671 172.55 69.6844 172.439C72.3555 172.363 74.9511 172.428 77.3026 172.568C78.4658 172.629 79.5679 172.715 80.5839 172.805C81.7938 172.909 82.8888 173.027 83.8366 173.139C86.0983 173.415 87.4805 173.659 87.4805 173.659V177.756C87.4805 177.756 72.6858 185.661 72.6104 185.661C72.6104 185.629 70.7615 184.702 68.3705 183.525C67.613 183.151 66.7944 182.749 65.9651 182.34C65.1825 181.956 64.3783 181.561 63.6028 181.18C61.3985 180.103 59.3953 179.131 58.3936 178.642C57.9808 178.43 57.7402 178.316 57.7402 178.316Z" fill="#E3B605"/>
<path opacity="0.2" d="M65.9688 182.336L80.5876 172.805C81.7974 172.909 82.8924 173.027 83.8402 173.139L68.3741 183.521C67.6202 183.148 66.7981 182.746 65.9688 182.336Z" fill="#F1EAD8"/>
<path opacity="0.2" d="M58.3955 178.639L69.6827 172.439C72.3537 172.363 74.9494 172.428 77.3009 172.568L63.6047 181.173C61.404 180.1 59.4007 179.127 58.3955 178.639Z" fill="#F1EAD8"/>
<path d="M70.0078 181.033L72.4132 177.827V177.824L72.5352 177.612L75.095 180.951L72.4132 184.516L70.0078 181.033Z" fill="#D66753"/>
<path opacity="0.2" d="M72.4132 177.827L71.8531 180.646L72.4132 184.516L70.0078 181.033L72.4132 177.827Z" fill="#F1EAD8"/>
<path d="M101.835 122.716L102.327 119.241L100.614 122.307L101.835 122.716Z" fill="#4E7BAD"/>
<path d="M94.9976 122.716L95.4895 119.241L93.7842 122.307L94.9976 122.716Z" fill="#4E7BAD"/>
<path d="M88.1656 122.716L88.661 119.241L86.9521 122.307L88.1656 122.716Z" fill="#4E7BAD"/>
<path d="M110.382 111.526L110.87 108.051L109.165 111.11L110.382 111.526Z" fill="#4E7BAD"/>
<path d="M103.545 111.526L104.037 108.051L102.328 111.11L103.545 111.526Z" fill="#4E7BAD"/>
<path d="M96.7128 111.526L97.2047 108.051L95.4922 111.11L96.7128 111.526Z" fill="#4E7BAD"/>
<path d="M108.293 100.242L108.785 96.7778L107.072 99.833L108.293 100.242Z" fill="#4E7BAD"/>
<path d="M101.453 100.242L101.948 96.7778L100.239 99.833L101.453 100.242Z" fill="#4E7BAD"/>
<path d="M94.1426 100.512C94.4657 99.7325 94.778 98.9894 95.076 98.2857L95.1729 98.2534L94.8247 100.738L94.1426 100.512Z" fill="#4E7BAD"/>
<path d="M89.8762 142.232L90.3717 138.76L88.6592 141.819L89.8762 142.232Z" fill="#4E7BAD"/>
<path d="M96.7128 143.632L97.2047 140.16L95.4922 143.226L96.7128 143.632Z" fill="#4E7BAD"/>
<path d="M103.089 142.375L104.044 140.67L103.864 141.934C103.613 142.074 103.347 142.221 103.089 142.375Z" fill="#4E7BAD"/>
<path d="M108.8 93.2164L109.69 92.9507L109.615 93.4892L108.8 93.2164Z" fill="#4E7BAD"/>
<path d="M110.206 133.996L110.702 130.525L108.989 133.591L110.206 133.996Z" fill="#4E7BAD"/>
<path d="M102.606 133.996L103.095 130.525L101.386 133.591L102.606 133.996Z" fill="#4E7BAD"/>
<path d="M95.7695 133.996L96.2649 130.525L94.5488 133.591L95.7695 133.996Z" fill="#4E7BAD"/>
<path d="M88.9328 133.996L89.4283 130.525L87.7158 133.591L88.9328 133.996Z" fill="#4E7BAD"/>
<path d="M81.9286 140.422L82.4205 136.951L80.708 140.009L81.9286 140.422Z" fill="#4E7BAD"/>
<path d="M109.439 122.716L109.935 119.241L108.219 122.307L109.439 122.716Z" fill="#4E7BAD"/>
<path d="M41.7728 122.716L41.2773 119.241L42.9898 122.307L41.7728 122.716Z" fill="#4E7BAD"/>
<path d="M48.6015 122.716L48.1133 119.241L49.8257 122.307L48.6015 122.716Z" fill="#4E7BAD"/>
<path d="M55.4345 122.716L54.9463 119.241L56.6588 122.307L55.4345 122.716Z" fill="#4E7BAD"/>
<path d="M53.7308 142.232L53.2354 138.76L54.9478 141.819L53.7308 142.232Z" fill="#4E7BAD"/>
<path d="M46.8913 143.632L46.3994 140.16L48.1119 143.226L46.8913 143.632Z" fill="#4E7BAD"/>
<path d="M40.5204 142.375L39.5654 140.67L39.7449 141.934C40.0034 142.074 40.2547 142.221 40.5204 142.375Z" fill="#4E7BAD"/>
<path d="M33.3922 133.996L32.9004 130.524L34.6129 133.59L33.3922 133.996Z" fill="#4E7BAD"/>
<path d="M41.0006 133.996L40.5088 130.524L42.2213 133.59L41.0006 133.996Z" fill="#4E7BAD"/>
<path d="M47.8363 133.996L47.3408 130.524L49.0569 133.59L47.8363 133.996Z" fill="#4E7BAD"/>
<path d="M54.6696 133.996L54.1777 130.524L55.8866 133.59L54.6696 133.996Z" fill="#4E7BAD"/>
<path d="M61.6816 140.422L61.1826 136.95L62.8987 140.009L61.6816 140.422Z" fill="#4E7BAD"/>
<path d="M34.1601 122.716L33.6719 119.241L35.3843 122.307L34.1601 122.716Z" fill="#4E7BAD"/>
<path opacity="0.2" d="M31.5931 136.067L31.9055 137.105C31.9055 137.105 35.2981 139.044 39.6852 141.542L39.7426 141.934C39.9975 142.074 40.2524 142.224 40.5181 142.375L40.2201 141.844C45.0523 144.601 50.9293 147.951 54.8102 150.151C55.8764 150.758 56.7847 151.275 57.4812 151.673L56.8888 159.191L57.036 161.123L57.1689 162.875L57.1761 163.011L57.991 173.943C57.9048 173.964 57.8187 173.986 57.7361 174.007V178.315C57.7361 178.315 57.9766 178.43 58.3931 178.639C59.3947 179.127 61.398 180.1 63.6023 181.177C64.3742 181.557 65.1784 181.952 65.9646 182.336C66.7939 182.746 67.6124 183.148 68.3699 183.521C70.3553 184.498 71.96 185.298 72.4483 185.564V103.99L57.2945 108.546L57.1509 108.054L48.4557 111.202L47.7736 111.407L31.5859 116.268V136.067H31.5931Z" fill="#616161"/>
</svg>
