<svg width="144" height="201" viewBox="0 0 144 201" fill="none" xmlns="http://www.w3.org/2000/svg">
<path d="M15.8933 200.113C7.45661 200.128 0.574421 193.389 0.434408 184.827L0 15.2705C0.0933422 7.20001 6.96477 0.425522 15.4374 0.436292L127.484 0.644526C135.913 0.658886 142.774 7.44772 142.774 15.7695V184.956C142.774 193.231 135.939 199.97 127.534 199.98L15.8933 200.113Z" fill="#C9C9C9"/>
<path d="M17.0509 199.797C8.61783 199.808 1.73564 193.07 1.72128 184.777L1.28329 15.2205C1.25457 6.8771 8.12958 0.0990285 16.6022 0.116979L128.645 0.318023C137.078 0.335973 143.939 7.12482 143.939 15.4502V184.637C143.939 192.912 137.107 199.65 128.699 199.661L17.0509 199.797Z" fill="#F1EAD8"/>
<path d="M127.677 196.516H17.2639C10.8089 196.516 5.55664 191.289 5.55664 184.863V15.7193C5.55664 9.29307 10.8053 4.06592 17.2639 4.06592H127.677C134.128 4.06592 139.377 9.29307 139.377 15.7193V184.863C139.377 191.292 134.132 196.516 127.677 196.516ZM17.2639 8.68995C13.3579 8.68995 10.1807 11.842 10.1807 15.7193V184.863C10.1807 188.74 13.3543 191.895 17.2639 191.895H127.677C131.579 191.895 134.753 188.743 134.753 184.863V15.7193C134.753 11.842 131.576 8.68995 127.677 8.68995H17.2639Z" fill="#2C2C2C"/>
<path d="M29.0019 43.6071C29.0091 41.8085 21.1755 34.1113 21.1755 34.1113C21.1755 34.1113 13.5466 42.0454 13.543 43.5784C13.5358 46.1632 15.6288 48.2634 18.2137 48.2634C19.1004 48.267 19.9226 48.0301 20.6262 47.5957L17.6931 52.6003L24.8194 52.611L21.9043 47.6029C22.6044 48.0301 23.4265 48.2778 24.3096 48.2814C26.8945 48.2886 29.0019 46.1956 29.0019 43.6071Z" fill="#2C2C2C"/>
<path opacity="0.2" d="M29.0019 43.6071C29.009 41.8085 21.1755 34.1113 21.1755 34.1113C21.1755 34.1113 21.1719 34.1221 21.1611 34.1257V52.6074L24.8158 52.611L21.9007 47.6029C22.6008 48.0301 23.4229 48.2778 24.306 48.2814C26.8945 48.2886 29.0019 46.1956 29.0019 43.6071Z" fill="#616161"/>
<path d="M115.765 158.206C115.757 160.012 123.587 167.702 123.587 167.702C123.587 167.702 131.224 159.771 131.227 158.242C131.234 155.65 129.141 153.55 126.549 153.55C125.666 153.546 124.844 153.787 124.137 154.221L127.077 149.217L119.954 149.206L122.866 154.218C122.169 153.79 121.344 153.543 120.461 153.535C117.876 153.532 115.765 155.625 115.765 158.206Z" fill="#2C2C2C"/>
<path opacity="0.2" d="M115.765 158.206C115.757 160.012 123.587 167.702 123.587 167.702L123.602 167.691V149.213L119.951 149.202L122.862 154.214C122.166 153.787 121.34 153.539 120.457 153.532C117.876 153.532 115.765 155.625 115.765 158.206Z" fill="#616161"/>
<path d="M113.267 64.1491L112.965 63.1152C112.965 63.1152 93.8518 52.2085 87.7523 48.7548C86.6034 48.105 85.9213 47.7173 85.8926 47.7173H58.6905C58.6905 47.7173 58.6438 47.7424 58.5685 47.7819C58.511 47.8142 58.4464 47.8537 58.3638 47.8968C58.292 47.9327 58.213 47.9829 58.1197 48.0332C58.0371 48.0763 57.9546 48.1265 57.8576 48.1804C57.7679 48.2307 57.6674 48.2881 57.5525 48.3527C57.3873 48.4461 57.2114 48.5466 57.014 48.6543C56.6442 48.8697 56.2241 49.1066 55.761 49.3687C55.7502 49.3687 55.7431 49.3723 55.7431 49.3723C55.3948 49.5769 55.0214 49.7852 54.6337 50.0078C54.5009 50.0796 54.3681 50.1549 54.228 50.2339C53.3198 50.7545 52.3074 51.3289 51.2303 51.9356C50.8426 52.1618 50.4513 52.3844 50.0528 52.6106C49.665 52.8367 49.263 53.0629 48.8537 53.2927C48.4552 53.526 48.0388 53.7558 47.6223 53.9892C42.2264 57.0695 36.2812 60.4585 33.3912 62.1027C33.226 62.1997 33.0753 62.2858 32.9281 62.372C32.2352 62.7705 31.7936 63.0218 31.668 63.0936V108.433L49.4676 103.084L53.5064 101.874L113.267 83.9197V64.1491Z" fill="#2C2C2C"/>
<path d="M72.508 71.1927L65.0586 58.2864H79.9574L72.508 71.1927ZM66.4875 59.1121L72.5116 69.5449L78.5322 59.1121H66.4875Z" fill="#E3B605"/>
<path opacity="0.2" d="M62.5032 47.7173C62.3596 47.7532 35.4411 63.1152 35.4411 63.1152L31.668 74.7614V108.429L49.4676 103.08L53.5064 101.87L64.1474 66.9565L65.5763 62.2823L67.6514 57.8234L72.2934 47.904V47.7173H62.5032Z" fill="#616161"/>
<path d="M58.6908 47.7173C58.6908 47.7173 58.6442 47.7424 58.5688 47.7819C58.5113 47.8142 58.4467 47.8537 58.3641 47.8968C58.2923 47.9327 58.2134 47.9829 58.12 48.0332C58.0482 48.0763 57.9585 48.1265 57.8579 48.1804C57.7682 48.2307 57.6677 48.2881 57.5528 48.3527C57.3876 48.4461 57.2117 48.5466 57.0143 48.6543C56.6445 48.8625 56.228 49.0995 55.7613 49.3687C55.7506 49.3687 55.7434 49.3723 55.7434 49.3723C55.3952 49.5698 55.0218 49.778 54.634 50.0078C54.5012 50.0796 54.3684 50.1549 54.2284 50.2339C53.3201 50.7545 52.3077 51.3217 51.2306 51.9356C50.8429 52.1618 50.4516 52.3844 50.0531 52.6106C49.6582 52.8367 49.2633 53.0593 48.854 53.2927C48.4555 53.5153 48.0391 53.7522 47.6226 53.9892C45.8814 54.9836 44.0828 56.0068 42.3524 57.0012C41.8282 57.2884 41.3112 57.59 40.8086 57.8736C37.7786 59.6041 35.0681 61.155 33.3951 62.1027C33.2371 62.1997 33.0792 62.2858 32.932 62.372C32.2391 62.7705 31.7975 63.0218 31.6719 63.0936V108.433L34.8455 107.474L36.6262 106.946L49.2741 103.145L49.4715 103.084C50.0675 101.683 50.6814 100.197 51.3348 98.6462C55.5962 88.3965 60.791 75.4148 64.1514 66.9601C66.2444 61.6899 67.6302 58.1788 67.6302 58.1788L67.6553 57.8234L68.5672 47.7173H58.6908Z" fill="#F9F9F9"/>
<path opacity="0.2" d="M113.269 76.8148L109.144 63.1186C109.144 63.1186 82.2215 47.7602 82.0887 47.7207H72.2949V47.9074L79.0155 62.2857L87.7502 92.1265L113.269 82.8856V76.8148Z" fill="#616161"/>
<path d="M113.27 64.1563L112.957 63.1152C112.957 63.1152 86.0352 47.7568 85.8952 47.7173H76.0225L76.9631 58.1788C76.9631 58.1788 88.577 82.279 92.7056 90.0982L113.273 83.9161L113.27 64.1563Z" fill="#F9F9F9"/>
<path d="M88.0124 41.0541L87.7288 37.3778L87.7252 37.2378L86.8815 25.9757L82.6955 23.8647L74.6178 19.7756L72.3848 20.9783L70.1446 19.7756L62.0705 23.8647L57.888 25.9757L57.0515 37.2378L57.0372 37.3778L56.7607 41.0541L57.6044 51.7705L72.3668 62.311V62.3361L72.3704 62.3397L72.3848 62.3253L72.4063 62.3397V62.3361V62.311L87.1616 51.7705L88.0124 41.0541Z" fill="#FDD5B0"/>
<path d="M72.4049 47.71L77.3556 47.5377L73.6471 45.2185C73.6471 45.2185 73.0547 45.2041 72.4049 45.1934C72.3941 45.1934 72.3869 45.1934 72.3869 45.1934C72.3798 45.1934 72.3726 45.1934 72.3726 45.1934C71.7156 45.2041 71.1232 45.2185 71.1232 45.2185L67.4219 47.5377L72.3726 47.71V47.7172H72.3869H72.4049V47.71Z" fill="#FDD5B0"/>
<path opacity="0.2" d="M75.3956 40.6341L73.3708 33.5903H72.405H72.3691H71.4034L69.375 40.6341L71.4034 42.8133L72.3691 42.8491H72.3835H72.405L73.3708 42.8133L75.3956 40.6341Z" fill="#616161"/>
<path d="M74.5254 31.7021L80.8906 30.9051L81.0306 30.8835L81.0988 30.923L84.1325 32.5314L80.8224 31.6052L81.0342 31.6231L74.8557 33.3571L74.5254 31.7021Z" fill="#9C9C9C"/>
<path d="M76.7625 34.3623C76.6584 34.5885 76.5938 34.8398 76.5938 35.1055C76.5938 36.0927 77.4051 36.9041 78.3924 36.9041C79.3868 36.9041 80.191 36.0927 80.191 35.1055C80.191 34.8398 80.1336 34.5885 80.0295 34.3623H76.7625Z" fill="#2C2C2C"/>
<path d="M70.2493 31.7021L63.8805 30.9051L63.7441 30.8835L63.6723 30.923L60.6387 32.5314L63.9415 31.6052L63.7333 31.6231L69.9154 33.3571L70.2493 31.7021Z" fill="#9C9C9C"/>
<path d="M68.0106 34.3623C68.1147 34.5885 68.1757 34.8398 68.1757 35.1055C68.1757 36.0927 67.3715 36.9041 66.3771 36.9041C65.3826 36.9041 64.582 36.0927 64.582 35.1055C64.582 34.8398 64.6395 34.5885 64.7472 34.3623H68.0106Z" fill="#2C2C2C"/>
<path d="M87.7306 37.3781C87.63 37.4535 87.5726 37.4965 87.5726 37.4965L84.6287 27.1032L82.6973 23.865L86.8833 25.976L87.727 37.2416L87.7306 37.3781Z" fill="#9C9C9C"/>
<path d="M57.0371 37.3781C57.1412 37.4535 57.1987 37.4965 57.1987 37.4965L60.1425 27.1032L62.0704 23.865L57.8844 25.976L57.0479 37.2416L57.0371 37.3781Z" fill="#9C9C9C"/>
<path d="M87.1591 21.9621V26.2595C83.429 27.279 79.2501 27.717 75.24 27.8283C72.569 27.9073 69.9769 27.8391 67.629 27.7063C66.4623 27.6416 65.3673 27.5555 64.3513 27.4621C63.1414 27.358 62.0465 27.2395 61.1023 27.1283C58.8441 26.8554 57.4619 26.6113 57.4619 26.6113V22.5294C57.4619 22.5294 72.2387 14.6348 72.3105 14.6348C72.3105 14.6671 74.1558 15.5933 76.5432 16.7637C77.3007 17.137 78.1193 17.5427 78.945 17.9484C79.7312 18.329 80.5282 18.7239 81.3037 19.1116C83.5008 20.1815 85.5076 21.1579 86.5021 21.639C86.9221 21.8437 87.1591 21.9621 87.1591 21.9621Z" fill="#E3B605"/>
<path opacity="0.2" d="M78.9433 17.9448L64.3496 27.4621C63.1397 27.358 62.0448 27.2395 61.1006 27.1282L76.5415 16.7637C77.2991 17.1335 78.1212 17.5427 78.9433 17.9448Z" fill="#F1EAD8"/>
<path opacity="0.2" d="M86.5056 21.6356L75.2399 27.8285C72.5689 27.9075 69.9768 27.8393 67.6289 27.7065L81.3071 19.1118C83.5042 20.1781 85.5111 21.1546 86.5056 21.6356Z" fill="#F1EAD8"/>
<path d="M43.1276 77.4756L42.6357 80.9436L44.3446 77.8884L43.1276 77.4756Z" fill="#4E7BAD"/>
<path d="M49.96 77.4756L49.4609 80.9436L51.1734 77.8884L49.96 77.4756Z" fill="#4E7BAD"/>
<path d="M56.7757 77.4756L56.291 80.9436L57.9963 77.8884L56.7757 77.4756Z" fill="#4E7BAD"/>
<path d="M34.597 88.6553L34.1016 92.1233L35.8104 89.0645L34.597 88.6553Z" fill="#4E7BAD"/>
<path d="M41.4189 88.6553L40.9307 92.1233L42.6359 89.0645L41.4189 88.6553Z" fill="#4E7BAD"/>
<path d="M48.2458 88.6553L47.7539 92.1233L49.4592 89.0645L48.2458 88.6553Z" fill="#4E7BAD"/>
<path d="M36.6826 99.9209L36.1943 103.385L37.8996 100.33L36.6826 99.9209Z" fill="#4E7BAD"/>
<path d="M43.5058 99.9209L43.0176 103.385L44.7301 100.33L43.5058 99.9209Z" fill="#4E7BAD"/>
<path d="M50.8096 99.6552C50.4901 100.431 50.1778 101.174 49.8834 101.87L49.79 101.899L50.1347 99.4219L50.8096 99.6552Z" fill="#4E7BAD"/>
<path d="M55.0752 57.9854L54.5762 61.4606L56.2922 58.4054L55.0752 57.9854Z" fill="#4E7BAD"/>
<path d="M48.2458 56.5923L47.7539 60.0603L49.4592 57.0015L48.2458 56.5923Z" fill="#4E7BAD"/>
<path d="M41.8788 57.8562L40.9238 59.5507L41.1033 58.2906C41.3582 58.147 41.6131 57.9962 41.8788 57.8562Z" fill="#4E7BAD"/>
<path d="M36.1765 106.936L35.2861 107.205L35.3544 106.663L36.1765 106.936Z" fill="#4E7BAD"/>
<path d="M34.7656 66.2139L34.2773 69.6783L35.9862 66.6195L34.7656 66.2139Z" fill="#4E7BAD"/>
<path d="M42.3626 66.2139L41.8672 69.6783L43.5797 66.6195L42.3626 66.2139Z" fill="#4E7BAD"/>
<path d="M49.1855 66.2139L48.6973 69.6783L50.4062 66.6195L49.1855 66.2139Z" fill="#4E7BAD"/>
<path d="M56.0078 66.2139L55.5195 69.6783L57.2284 66.6195L56.0078 66.2139Z" fill="#4E7BAD"/>
<path d="M63.0055 59.7944L62.5137 63.2661L64.2226 60.2037L63.0055 59.7944Z" fill="#4E7BAD"/>
<path d="M35.5332 77.4756L35.0449 80.9436L36.7538 77.8884L35.5332 77.4756Z" fill="#4E7BAD"/>
<path d="M103.114 77.4756L103.602 80.9436L101.896 77.8884L103.114 77.4756Z" fill="#4E7BAD"/>
<path d="M96.2864 77.4756L96.7782 80.9436L95.0693 77.8884L96.2864 77.4756Z" fill="#4E7BAD"/>
<path d="M89.4576 77.4756L89.9566 80.9436L88.2441 77.8884L89.4576 77.4756Z" fill="#4E7BAD"/>
<path d="M91.1675 57.9854L91.6594 61.4606L89.9541 58.4054L91.1675 57.9854Z" fill="#4E7BAD"/>
<path d="M97.9983 56.5923L98.4901 60.0603L96.7812 57.0015L97.9983 56.5923Z" fill="#4E7BAD"/>
<path d="M104.36 57.8562L105.312 59.5543L105.132 58.2942C104.881 58.147 104.619 57.9962 104.36 57.8562Z" fill="#4E7BAD"/>
<path d="M111.471 66.2139L111.966 69.6783L110.254 66.6195L111.471 66.2139Z" fill="#4E7BAD"/>
<path d="M103.882 66.2139L104.374 69.6783L102.661 66.6195L103.882 66.2139Z" fill="#4E7BAD"/>
<path d="M97.0549 66.2139L97.5468 69.6783L95.8379 66.6195L97.0549 66.2139Z" fill="#4E7BAD"/>
<path d="M90.2333 66.2139L90.7252 69.6783L89.0127 66.6195L90.2333 66.2139Z" fill="#4E7BAD"/>
<path d="M83.2353 59.7944L83.7271 63.2661L82.0146 60.2037L83.2353 59.7944Z" fill="#4E7BAD"/>
<path d="M110.707 77.4756L111.199 80.9436L109.486 77.8884L110.707 77.4756Z" fill="#4E7BAD"/>
<path d="M64.1145 50.3562C64.5955 49.9721 65.1268 49.6669 65.7013 49.4012L62.0573 43.3591H82.6931L79.0671 49.4299C79.6415 49.6777 80.1657 50.0044 80.6432 50.3885C82.2551 51.6666 83.185 53.5011 83.185 55.4254C83.185 56.6748 83.185 58.0749 74.4216 65.2407L72.526 66.8024L70.5874 65.3053C61.5403 58.3118 61.5547 56.6173 61.5763 55.3859C61.5727 53.4688 62.4953 51.6343 64.1145 50.3562Z" fill="#9C9C9C"/>
<path d="M66.3779 45.1902H78.3904L76.703 49.4875L68.5643 49.4588L66.3779 45.1902Z" fill="#FDD5B0"/>
<path opacity="0.2" d="M75.8687 46.7915H69.4209V48.066H75.8687V46.7915Z" fill="#616161"/>
<path d="M74.8392 18.7672C74.8392 18.2107 72.441 15.8521 72.441 15.8521C72.441 15.8521 70.0967 18.2861 70.0967 18.7528C70.0967 19.5498 70.7393 20.1925 71.5327 20.1925C71.802 20.1961 72.0569 20.1207 72.2723 19.9914L71.3748 21.5244L73.5611 21.5352L72.6636 19.9914C72.879 20.1243 73.1339 20.1996 73.4032 20.1996C74.1966 20.1996 74.8392 19.557 74.8392 18.7672Z" fill="#2C2C2C"/>
<path opacity="0.2" d="M80.8202 79.4035C80.6407 77.5582 72.5199 70.4929 72.5199 70.4929C72.5199 70.4929 64.5607 77.8131 64.4063 79.3927C64.1335 82.2038 66.266 84.6271 69.1811 84.6199C70.1756 84.6199 71.1198 84.3363 71.906 83.8337L68.3554 90.0732L76.8747 90.0696L73.3349 83.8337C74.1211 84.3255 75.0581 84.6271 76.0562 84.6307C78.9641 84.6235 81.0931 82.2109 80.8202 79.4035Z" fill="#616161"/>
<path d="M79.9364 79.4467C79.94 77.7414 72.5552 70.4858 72.5552 70.4858C72.5552 70.4858 65.3571 77.9748 65.3535 79.4108C65.3535 81.852 67.3281 83.8373 69.7622 83.8373C70.5951 83.8373 71.3813 83.6112 72.0382 83.2019L69.2739 87.9193L75.991 87.9372L73.2445 83.2091C73.9015 83.6076 74.677 83.8445 75.5099 83.8517C77.9547 83.8553 79.9364 81.8807 79.9364 79.4467Z" fill="#E3B605"/>
<path opacity="0.2" d="M71.9588 86.3862L72.641 85.2302L73.3087 86.3934L71.9588 86.3862ZM71.2372 81.8878C70.8028 82.1535 70.3002 82.2935 69.7796 82.2935C68.2287 82.2935 66.9794 81.0836 66.9004 79.5614C67.3276 78.5921 69.9627 75.4975 72.5835 72.6936C75.3084 75.4651 78.0333 78.5741 78.3923 79.5471C78.3635 80.2758 78.0692 80.9508 77.5522 81.4714C77.0101 82.0135 76.2813 82.3114 75.5166 82.3114C74.996 82.3079 74.4827 82.1606 74.0375 81.895L71.2372 81.8878Z" fill="#616161"/>
<path opacity="0.2" d="M112.965 63.1154C112.965 63.1154 109.565 61.1768 105.189 58.6745L105.131 58.2868C104.884 58.1432 104.621 57.9924 104.363 57.8524L104.65 58.3729C98.7122 54.9839 91.1802 50.6937 87.7517 48.7551C87.626 48.6833 87.5291 48.6259 87.4178 48.5648L88.0137 41.0508L87.7301 37.3745L87.7265 37.2345L86.9116 26.3135C86.9942 26.2919 87.0803 26.274 87.1593 26.256V21.9623C87.1593 21.9623 86.9224 21.8438 86.5059 21.6356C85.5115 21.1545 83.5046 20.178 81.3075 19.1082C80.532 18.7204 79.735 18.3255 78.9488 17.945C78.1266 17.5429 77.3045 17.1336 76.547 16.7603C74.1596 15.5863 72.3143 14.6637 72.3143 14.6313C72.3071 14.6313 72.2389 14.6637 72.124 14.7247V96.277L87.6081 91.6279L87.7517 92.1233L96.454 88.9712L113.274 83.9164V64.1494L112.965 63.1154Z" fill="#616161"/>
<path d="M31.6719 135.951L31.9734 136.985C31.9734 136.985 51.087 147.892 57.183 151.345C58.3282 151.995 59.0175 152.383 59.0391 152.383H86.2411C86.2519 152.383 86.2878 152.358 86.3668 152.315C86.4207 152.286 86.4853 152.246 86.5714 152.203C86.6432 152.164 86.7258 152.117 86.8192 152.067C86.8945 152.02 86.9807 151.974 87.074 151.916C87.1674 151.862 87.2643 151.805 87.3792 151.747C87.5479 151.654 87.7203 151.554 87.9177 151.446C88.2875 151.227 88.7111 150.993 89.1742 150.731C89.185 150.731 89.185 150.728 89.1922 150.728C89.5368 150.523 89.9138 150.315 90.3015 150.092C90.4344 150.021 90.5672 149.942 90.7036 149.859C91.6119 149.346 92.6243 148.771 93.7013 148.161C94.0927 147.935 94.4876 147.716 94.8861 147.482C95.2738 147.263 95.6759 147.034 96.0816 146.807C96.4801 146.574 96.8929 146.337 97.313 146.111C102.716 143.031 108.654 139.634 111.54 137.994C111.709 137.9 111.864 137.814 112.004 137.721C112.7 137.33 113.145 137.078 113.267 137.006V91.6709L95.4677 97.0166L91.4324 98.23L31.6719 116.177V135.951Z" fill="#2C2C2C"/>
<path d="M72.4279 128.907L79.8774 141.81H64.9785L72.4279 128.907ZM78.4521 140.988L72.4243 130.555L66.4038 140.988H78.4521Z" fill="#E3B605"/>
<path opacity="0.2" d="M82.4327 152.383C82.5727 152.347 109.498 136.985 109.498 136.985L113.272 125.339V91.6709L95.4719 97.0166L91.4366 98.23L80.792 133.144L79.3703 137.818L77.2917 142.273L72.6533 152.193V152.383H82.4327Z" fill="#616161"/>
<path d="M86.2448 152.383C86.2556 152.383 86.2915 152.358 86.3705 152.315C86.4243 152.286 86.4889 152.246 86.5751 152.203C86.6469 152.164 86.7295 152.117 86.8228 152.067C86.891 152.02 86.9844 151.974 87.0777 151.916C87.171 151.862 87.268 151.805 87.3829 151.747C87.5516 151.654 87.7239 151.553 87.9214 151.446C88.2912 151.238 88.7076 150.993 89.1779 150.731C89.1887 150.731 89.1887 150.728 89.1959 150.728C89.5405 150.523 89.9175 150.322 90.3052 150.092C90.438 150.021 90.5709 149.942 90.7073 149.859C91.6156 149.346 92.628 148.778 93.705 148.161C94.0963 147.935 94.4912 147.716 94.8897 147.482C95.2811 147.263 95.6796 147.037 96.0852 146.807C96.4837 146.581 96.8966 146.344 97.3166 146.111C99.0542 145.113 100.853 144.093 102.59 143.099C103.111 142.804 103.632 142.51 104.134 142.219C107.161 140.496 109.871 138.945 111.544 137.994C111.713 137.9 111.867 137.814 112.007 137.721C112.704 137.33 113.149 137.078 113.271 137.006V91.6709L110.101 92.6295L108.32 93.1572L95.6688 96.9591L95.4713 97.0166C94.8789 98.4203 94.2615 99.9066 93.6117 101.457C89.3502 111.707 84.1554 124.689 80.7879 133.144C78.6949 138.414 77.3091 141.918 77.3091 141.918L77.284 142.277L76.3721 152.386L86.2448 152.383Z" fill="#F9F9F9"/>
<path opacity="0.2" d="M31.6719 123.285L35.8005 136.982C35.8005 136.982 62.7225 152.34 62.8553 152.379H72.6491V152.189L65.9285 137.814L57.1974 107.974L31.6755 117.215L31.6719 123.285Z" fill="#616161"/>
<path d="M31.6719 135.944L31.9842 136.986C31.9842 136.986 58.9062 152.344 59.0427 152.383H68.9154L67.9784 141.922C67.9784 141.922 56.3645 117.822 52.2323 110.002L31.6719 116.177V135.944Z" fill="#F9F9F9"/>
<path d="M56.9287 159.039L57.2052 162.726L57.2159 162.863L58.056 174.117L62.242 176.236L70.3233 180.325L72.5564 179.122L74.7894 180.325L82.8671 176.236L87.0495 174.117L87.8896 162.863L87.904 162.726L88.1768 159.039L87.3331 148.33L72.5743 137.789V137.761L72.5671 137.757L72.5564 137.775L72.5348 137.757V137.761V137.789L57.7724 148.33L56.9287 159.039Z" fill="#FDD5B0"/>
<path d="M72.5337 152.387L67.583 152.563L71.2844 154.882C71.2844 154.882 71.8803 154.896 72.5337 154.907C72.5373 154.907 72.5481 154.907 72.5517 154.907C72.5553 154.907 72.5625 154.907 72.566 154.907C73.2266 154.896 73.8154 154.882 73.8154 154.882L77.5132 152.563L72.566 152.387L72.5517 152.383L72.5337 152.387Z" fill="#FDD5B0"/>
<path opacity="0.2" d="M69.5361 159.467L71.5717 166.514H72.5338H72.5662H73.5319L75.5639 159.467L73.5319 157.287L72.5662 157.251H72.5554H72.5338L71.5717 157.287L69.5361 159.467Z" fill="#616161"/>
<path d="M70.4166 168.399L64.0478 169.196L63.9078 169.217L63.8432 169.178L60.8096 167.569L64.1161 168.492L63.9078 168.478L70.0792 166.736L70.4166 168.399Z" fill="#9C9C9C"/>
<path d="M68.1766 165.738C68.2879 165.512 68.3453 165.261 68.3453 164.995C68.3453 164.008 67.5375 163.2 66.5467 163.2C65.5522 163.2 64.748 164.004 64.748 164.995C64.748 165.261 64.8127 165.512 64.9132 165.738H68.1766Z" fill="#2C2C2C"/>
<path d="M74.6963 168.399L81.0579 169.196L81.1979 169.217L81.2697 169.178L84.3033 167.569L80.9933 168.492L81.2015 168.478L75.0266 166.736L74.6963 168.399Z" fill="#9C9C9C"/>
<path d="M76.9233 165.738C76.8263 165.512 76.7617 165.261 76.7617 164.995C76.7617 164.008 77.5695 163.2 78.5603 163.2C79.5548 163.2 80.359 164.004 80.359 164.995C80.359 165.261 80.3015 165.512 80.1903 165.738H76.9233Z" fill="#2C2C2C"/>
<path d="M57.2061 162.726C57.3102 162.643 57.364 162.604 57.364 162.604L60.3115 172.997L62.2429 176.236L58.0569 174.117L57.2168 162.859L57.2061 162.726Z" fill="#9C9C9C"/>
<path d="M87.906 162.726C87.7983 162.643 87.7445 162.604 87.7445 162.604L84.797 172.997L82.8691 176.236L87.0516 174.117L87.8916 162.859L87.906 162.726Z" fill="#9C9C9C"/>
<path d="M57.7803 178.138V173.841C61.514 172.821 65.6928 172.383 69.6958 172.272C72.3704 172.193 74.9588 172.261 77.3068 172.394C78.4735 172.462 79.5721 172.549 80.5845 172.631C81.7944 172.742 82.8929 172.861 83.8299 172.969C86.0917 173.245 87.4739 173.482 87.4739 173.482V177.571C87.4739 177.571 72.6971 185.466 72.6289 185.466C72.6289 185.426 70.7764 184.507 68.3926 183.333C67.6351 182.956 66.8201 182.558 65.9872 182.152C65.201 181.764 64.4076 181.373 63.6321 180.992C61.435 179.915 59.4281 178.942 58.4337 178.454C58.0172 178.257 57.7803 178.138 57.7803 178.138Z" fill="#E3B605"/>
<path opacity="0.2" d="M65.9883 182.156L80.5856 172.631C81.7954 172.742 82.894 172.861 83.831 172.969L68.3936 183.333C67.6361 182.96 66.8176 182.558 65.9883 182.156Z" fill="#F1EAD8"/>
<path opacity="0.2" d="M58.4365 178.461L69.6986 172.272C72.3732 172.193 74.9617 172.261 77.3096 172.394L63.635 180.996C61.4378 179.923 59.4274 178.946 58.4365 178.461Z" fill="#F1EAD8"/>
<path d="M101.809 122.621L102.301 119.149L100.589 122.208L101.809 122.621Z" fill="#4E7BAD"/>
<path d="M94.9788 122.621L95.4706 119.149L93.7617 122.208L94.9788 122.621Z" fill="#4E7BAD"/>
<path d="M88.1607 122.621L88.649 119.149L86.9473 122.208L88.1607 122.621Z" fill="#4E7BAD"/>
<path d="M110.347 111.445L110.831 107.977L109.126 111.036L110.347 111.445Z" fill="#4E7BAD"/>
<path d="M103.516 111.445L104.004 107.977L102.299 111.036L103.516 111.445Z" fill="#4E7BAD"/>
<path d="M96.6943 111.445L97.1825 107.977L95.4736 111.036L96.6943 111.445Z" fill="#4E7BAD"/>
<path d="M108.256 100.179L108.744 96.7146L107.039 99.7698L108.256 100.179Z" fill="#4E7BAD"/>
<path d="M101.431 100.179L101.923 96.7146L100.207 99.7698L101.431 100.179Z" fill="#4E7BAD"/>
<path d="M94.124 100.452C94.4471 99.6697 94.7595 98.923 95.0503 98.2301L95.1508 98.1978L94.8026 100.679L94.124 100.452Z" fill="#4E7BAD"/>
<path d="M89.86 142.112L90.359 138.64L88.6465 141.695L89.86 142.112Z" fill="#4E7BAD"/>
<path d="M96.6943 143.508L97.1825 140.04L95.4736 143.099L96.6943 143.508Z" fill="#4E7BAD"/>
<path d="M103.057 142.244L104.012 140.546L103.832 141.803C103.577 141.954 103.319 142.104 103.057 142.244Z" fill="#4E7BAD"/>
<path d="M108.761 93.1642L109.651 92.8914L109.576 93.4371L108.761 93.1642Z" fill="#4E7BAD"/>
<path d="M110.174 133.887L110.655 130.422L108.953 133.477L110.174 133.887Z" fill="#4E7BAD"/>
<path d="M102.577 133.887L103.069 130.422L101.36 133.477L102.577 133.887Z" fill="#4E7BAD"/>
<path d="M95.7542 133.887L96.2424 130.422L94.5264 133.477L95.7542 133.887Z" fill="#4E7BAD"/>
<path d="M88.9289 133.887L89.4136 130.422L87.7119 133.477L88.9289 133.887Z" fill="#4E7BAD"/>
<path d="M81.9303 140.302L82.4221 136.834L80.7168 139.889L81.9303 140.302Z" fill="#4E7BAD"/>
<path d="M109.402 122.621L109.89 119.149L108.188 122.208L109.402 122.621Z" fill="#4E7BAD"/>
<path d="M41.8301 122.621L41.3418 119.15L43.0435 122.208L41.8301 122.621Z" fill="#4E7BAD"/>
<path d="M48.6559 122.621L48.1641 119.15L49.8693 122.208L48.6559 122.621Z" fill="#4E7BAD"/>
<path d="M55.4818 122.621L54.9863 119.15L56.6916 122.208L55.4818 122.621Z" fill="#4E7BAD"/>
<path d="M53.7711 142.112L53.2793 138.64L54.9882 141.695L53.7711 142.112Z" fill="#4E7BAD"/>
<path d="M46.945 143.508L46.4531 140.04L48.162 143.099L46.945 143.508Z" fill="#4E7BAD"/>
<path d="M40.578 142.244L39.623 140.546L39.8026 141.803C40.0575 141.954 40.3159 142.104 40.578 142.244Z" fill="#4E7BAD"/>
<path d="M33.4681 133.887L32.9727 130.422L34.6851 133.478L33.4681 133.887Z" fill="#4E7BAD"/>
<path d="M41.0622 133.887L40.5703 130.422L42.2792 133.478L41.0622 133.887Z" fill="#4E7BAD"/>
<path d="M47.888 133.887L47.3926 130.422L49.1015 133.478L47.888 133.887Z" fill="#4E7BAD"/>
<path d="M54.7106 133.887L54.2188 130.422L55.9276 133.478L54.7106 133.887Z" fill="#4E7BAD"/>
<path d="M61.7015 140.303L61.2168 136.834L62.9293 139.89L61.7015 140.303Z" fill="#4E7BAD"/>
<path d="M34.236 122.621L33.7441 119.15L35.453 122.208L34.236 122.621Z" fill="#4E7BAD"/>
<path d="M72.4122 133.302L74.3545 134.799C83.3979 141.792 83.3871 143.487 83.3656 144.725C83.3656 146.632 82.4393 148.463 80.8202 149.744C80.3427 150.128 79.8042 150.434 79.237 150.699L82.8702 156.738H62.2379L65.8603 150.671C65.2931 150.423 64.7654 150.096 64.2879 149.712C62.6687 148.434 61.7461 146.599 61.7461 144.672C61.7461 143.429 61.7461 142.026 70.5095 134.863L72.4122 133.302Z" fill="#9C9C9C"/>
<path d="M78.5573 154.911H66.5449L68.2323 150.613L76.3674 150.638L78.5573 154.911Z" fill="#FDD5B0"/>
<path opacity="0.2" d="M75.5142 152.042H69.0664V153.306H75.5142V152.042Z" fill="#616161"/>
<path d="M70.0967 181.334C70.0931 181.89 72.4985 184.245 72.4985 184.245C72.4985 184.245 74.8356 181.815 74.8392 181.341C74.8392 180.551 74.1966 179.909 73.4068 179.909C73.1339 179.905 72.879 179.98 72.6708 180.11L73.5683 178.577L71.3819 178.573L72.2759 180.106C72.0641 179.977 71.8092 179.901 71.5363 179.901C70.7393 179.901 70.0967 180.544 70.0967 181.334Z" fill="#2C2C2C"/>
<path opacity="0.2" d="M64.1228 120.693C64.3023 122.546 72.4266 129.615 72.4266 129.615C72.4266 129.615 80.3787 122.287 80.5366 120.708C80.8059 117.897 78.6734 115.473 75.7582 115.48C74.7638 115.473 73.8268 115.764 73.0333 116.267L76.584 110.027H68.0647L71.6117 116.267C70.8183 115.775 69.8848 115.473 68.8904 115.47C65.9752 115.473 63.8463 117.889 64.1228 120.693Z" fill="#616161"/>
<path d="M64.9971 120.654C64.9935 122.356 72.3819 129.615 72.3819 129.615C72.3819 129.615 79.5764 122.129 79.5836 120.683C79.5836 118.249 77.6162 116.263 75.175 116.263C74.3421 116.263 73.563 116.489 72.9024 116.895L75.6668 112.181L68.9462 112.163L71.6998 116.891C71.0392 116.493 70.2601 116.256 69.4272 116.249C66.986 116.245 64.9971 118.216 64.9971 120.654Z" fill="#E3B605"/>
<path opacity="0.2" d="M72.9787 113.714L72.2966 114.87L71.6252 113.707L72.9787 113.714ZM73.7003 118.209C74.1311 117.944 74.6373 117.804 75.1579 117.804C76.7016 117.804 77.9546 119.013 78.0371 120.532C77.6099 121.505 74.9712 124.6 72.3504 127.403C69.622 124.632 66.9043 121.516 66.5381 120.546C66.5668 119.821 66.8684 119.139 67.3818 118.626C67.9275 118.084 68.6527 117.786 69.4173 117.786C69.9343 117.786 70.4513 117.933 70.9001 118.202L73.7003 118.209Z" fill="#616161"/>
<path opacity="0.2" d="M31.9728 136.985C31.9728 136.985 35.3726 138.92 39.7489 141.422L39.8063 141.81C40.0576 141.957 40.3161 142.108 40.5782 142.248L40.2874 141.728C46.229 145.117 53.7574 149.407 57.1859 151.345C57.3116 151.417 57.4121 151.467 57.5234 151.536L56.9274 159.043L57.2039 162.73L57.2147 162.862L58.0296 173.783C57.9506 173.805 57.8609 173.816 57.7819 173.841V178.138C57.7819 178.138 58.0188 178.257 58.4389 178.461C59.4333 178.946 61.4402 179.922 63.6373 180.999C64.4128 181.376 65.2098 181.768 65.9924 182.159C66.8217 182.561 67.6402 182.963 68.3978 183.34C70.7816 184.518 72.6341 185.433 72.6341 185.473C72.6341 185.473 72.7059 185.433 72.8243 185.379V103.82L57.3403 108.469L57.1967 107.974L48.4907 111.126L31.6748 116.173V135.947L31.9728 136.985Z" fill="#616161"/>
<path d="M14.3377 15.2592H20.6147V15.6502H19.4828V22.1535L19.6474 22.1124L25.451 15.6502H23.8252V15.2592H27.4267V15.6502H26.1919L22.6521 19.6016L27.5913 29.2743H28.7027V29.6653H22.0964V29.2743H23.0637L19.668 22.7092L19.4828 22.7504V29.2743H20.6147V29.6653H14.3377V29.2743H15.4697V15.6502H14.3377V15.2592Z" fill="#2C2C2C"/>
<path d="M131.073 187.007L124.796 187.007L124.796 186.616L125.928 186.616L125.928 180.113L125.764 180.154L119.96 186.616L121.586 186.616L121.586 187.007L117.984 187.007L117.984 186.616L119.219 186.616L122.759 182.665L117.82 172.992L116.708 172.992L116.708 172.601L123.315 172.601L123.315 172.992L122.347 172.992L125.743 179.557L125.928 179.516L125.928 172.992L124.796 172.992L124.796 172.601L131.073 172.601L131.073 172.992L129.941 172.992L129.941 186.616L131.073 186.616L131.073 187.007Z" fill="#2C2C2C"/>
</svg>
