<svg width="144" height="200" viewBox="0 0 144 200" fill="none" xmlns="http://www.w3.org/2000/svg">
<path d="M15.8368 199.413C7.43246 199.424 0.568218 192.711 0.435385 184.177L0.000976562 15.1811C0.101499 7.13218 6.9478 0.37564 15.3917 0.39359L127.072 0.598222C135.476 0.612583 142.312 7.3763 142.312 15.6766V184.306C142.312 192.553 135.498 199.27 127.119 199.281L15.8368 199.413Z" fill="#C9C9C9"/>
<path d="M17.0638 199.291C8.64868 199.302 1.79164 192.585 1.7701 184.324L1.34286 15.3282C1.31414 7.01001 8.16402 0.257065 16.6007 0.267835L128.288 0.476055C136.689 0.494006 143.528 7.25414 143.528 15.5544V184.184C143.528 192.431 136.714 199.148 128.331 199.158L17.0638 199.291Z" fill="#F1EAD8"/>
<path d="M127.258 195.83H17.2039C10.7705 195.83 5.53613 190.617 5.53613 184.216V15.6224C5.53613 9.21765 10.7705 4.01562 17.2039 4.01562H127.258C133.684 4.01562 138.919 9.22124 138.919 15.6224V184.216C138.922 190.617 133.684 195.83 127.258 195.83ZM17.2039 8.61812C13.3087 8.61812 10.1458 11.7594 10.1458 15.6224V184.216C10.1458 188.079 13.3051 191.221 17.2039 191.221H127.258C131.146 191.221 134.309 188.079 134.309 184.216V15.6224C134.309 11.763 131.146 8.61812 127.258 8.61812H17.2039Z" fill="#D66753"/>
<path d="M112.891 63.9091V83.5971L92.4056 89.7577L53.3348 101.486L49.3103 102.696L31.5537 108.028V62.8356C31.6794 62.7746 32.1209 62.5269 32.8138 62.1284C32.9718 62.0386 33.1082 61.9597 33.2733 61.8663C36.1634 60.2257 42.0762 56.8474 47.465 53.7743C47.8778 53.5481 48.2871 53.3147 48.6928 53.0706C49.0913 52.8552 49.4933 52.6254 49.8775 52.41C50.276 52.1839 50.6745 51.9541 51.0622 51.7351C52.1357 51.1212 53.1481 50.5539 54.0528 50.0334C54.1282 49.9831 54.1964 49.9544 54.2717 49.9077C54.3328 49.8754 54.3938 49.8324 54.4548 49.8C54.839 49.5846 55.2016 49.3728 55.5606 49.1718C55.5606 49.1718 55.5606 49.1718 55.5786 49.1718C56.0381 48.9133 56.4509 48.662 56.8207 48.4645C57.0182 48.3461 57.1905 48.2527 57.3556 48.1594C57.4777 48.0948 57.5746 48.0337 57.6608 47.9906C57.7577 47.926 57.8439 47.8829 57.9265 47.8363C58.0162 47.7932 58.0952 47.7429 58.1742 47.6999C58.2496 47.6496 58.3142 47.6173 58.3716 47.5885C58.447 47.5419 58.4973 47.5239 58.4973 47.5239H85.6132C85.6132 47.5239 85.6922 47.5562 85.7963 47.6352C85.8789 47.6639 85.983 47.725 86.0979 47.7968C86.1661 47.8327 86.2415 47.8614 86.2989 47.9081C86.3815 47.9547 86.4568 47.9978 86.5502 48.0481C86.8661 48.2348 87.3005 48.4609 87.7816 48.741C88.1514 48.9384 88.5463 49.1718 88.9771 49.4159C89.1423 49.5057 89.3146 49.6169 89.4797 49.7103C89.6018 49.7857 89.7454 49.8647 89.8854 49.9257V49.94C90.0361 50.0334 90.2049 50.1267 90.3772 50.2165C90.625 50.3529 90.8906 50.4929 91.1311 50.6437C91.2209 50.6904 91.3178 50.755 91.3932 50.7981C91.745 50.9812 92.1112 51.1966 92.481 51.4156C96.1968 53.5337 100.806 56.1581 104.677 58.3552C105.064 58.5886 105.441 58.8004 105.807 59.0014C106.36 59.3281 106.899 59.6333 107.409 59.9241C107.742 60.1072 108.069 60.2903 108.396 60.477C108.715 60.66 109.017 60.8324 109.297 61.0011C109.731 61.2452 110.13 61.4642 110.478 61.6796C110.665 61.7837 110.848 61.8879 111.017 61.9848C111.997 62.552 112.578 62.8715 112.578 62.8715L112.891 63.9091Z" fill="#D66753"/>
<path d="M72.2703 70.9206L64.8496 58.0574H79.6982L72.2703 70.9206ZM66.2677 58.8795L72.2703 69.2728L78.2729 58.8795H66.2677Z" fill="#E3B605"/>
<path opacity="0.2" d="M62.3028 47.5205C62.1592 47.5564 35.3269 62.8645 35.3269 62.8645L31.5645 74.4749V108.031L49.3031 102.704L53.3276 101.497L63.9291 66.6952L65.3579 62.0388L67.4222 57.5943L72.0534 47.7072V47.5205H62.3028Z" fill="#616161"/>
<path d="M58.5008 47.5204C58.4973 47.5204 58.4506 47.542 58.3752 47.585C58.3214 47.6138 58.2531 47.6497 58.1706 47.6963C58.1024 47.7358 58.0198 47.7825 57.93 47.8292C57.8582 47.8687 57.7685 47.9225 57.668 47.9764C57.5782 48.0302 57.4777 48.0877 57.3592 48.1451C57.1976 48.2348 57.0217 48.339 56.8243 48.4503C56.4617 48.6549 56.0452 48.8954 55.5749 49.1611C55.5642 49.1611 55.557 49.1647 55.557 49.1647C55.2159 49.3621 54.8354 49.5668 54.4548 49.7966C54.322 49.8719 54.1892 49.9437 54.0527 50.0263C53.1516 50.5397 52.1392 51.1069 51.0658 51.7208C50.6781 51.9434 50.2831 52.1624 49.8846 52.3922C49.4969 52.6148 49.0984 52.8373 48.6928 53.0707C48.2978 53.2969 47.885 53.5302 47.4721 53.7672C45.7309 54.758 43.9395 55.774 42.2162 56.7649C41.6957 57.0557 41.1787 57.3573 40.6725 57.6445C37.664 59.3677 34.9535 60.9115 33.2877 61.8592C33.1226 61.9526 32.9646 62.0387 32.8174 62.1249C32.1317 62.5198 31.6865 62.7675 31.5645 62.8357V108.031L34.7273 107.08L36.4972 106.545L49.1056 102.761L49.3066 102.7C49.8954 101.303 50.5165 99.8208 51.1627 98.277C55.4134 88.0597 60.5903 75.1246 63.9362 66.6915C66.0292 61.4428 67.4078 57.9496 67.4078 57.9496L67.4294 57.5906L68.3449 47.5168L58.5008 47.5204Z" fill="#F9F9F9"/>
<path opacity="0.2" d="M112.892 76.5176L108.782 62.8645C108.782 62.8645 81.9493 47.5564 81.8129 47.5205H72.0586V47.7072L78.7577 62.0388L87.4601 91.7791L112.892 82.5669V76.5176Z" fill="#616161"/>
<path d="M112.892 63.9092V83.5972L92.407 89.7578C89.2369 83.766 81.669 68.1922 78.3374 61.3136C77.325 59.2421 76.7111 57.9533 76.7111 57.9533L75.7705 47.5205H85.6145C85.6145 47.5205 85.6935 47.5528 85.7976 47.6318C85.8802 47.6605 85.9843 47.7215 86.0992 47.7933C86.1674 47.8292 86.2428 47.858 86.3002 47.9047C86.3828 47.9513 86.4582 47.9944 86.5515 48.0446C86.8674 48.2313 87.3018 48.4575 87.7829 48.7375C88.1311 48.9529 88.5476 49.1684 88.9784 49.4125C89.1436 49.5022 89.3159 49.6135 89.481 49.7069C89.6031 49.7823 89.7467 49.8612 89.8688 49.9366H89.8867C90.0375 50.03 90.2062 50.1233 90.3786 50.2131C90.6263 50.3495 90.8704 50.4895 91.1324 50.6403C91.2222 50.687 91.3191 50.7516 91.3945 50.7947C91.7463 50.9957 92.1126 51.1932 92.4823 51.4122C96.1981 53.5303 100.808 56.1547 104.678 58.3518C105.066 58.5851 105.443 58.797 105.809 58.998C106.362 59.3247 106.9 59.6299 107.41 59.9207C107.744 60.1038 108.07 60.2869 108.397 60.4735C108.699 60.6566 109.004 60.8289 109.298 60.9977C109.733 61.2418 110.131 61.4608 110.479 61.6762C110.666 61.7803 110.849 61.8844 111.018 61.9814C111.998 62.5486 112.58 62.8681 112.58 62.8681L112.892 63.9092Z" fill="#F9F9F9"/>
<path d="M87.7228 40.8785L87.4427 37.213L87.4319 37.0766L86.5954 25.8504L82.4238 23.743L74.3712 19.6719L72.1454 20.8674L69.9123 19.6719L61.867 23.743L57.6953 25.8504L56.8588 37.0766L56.848 37.213L56.5752 40.8785L57.7384 51.4226L72.1274 62.0636V62.0887V62.0923L72.1454 62.0779L72.1669 62.0923V62.0887V62.0636L86.5739 51.3759L87.7228 40.8785Z" fill="#FDD5B0"/>
<path d="M72.1662 47.5131L77.0954 47.3443L73.4048 45.0251C73.4048 45.0251 72.8089 45.0144 72.1662 45C72.1519 45 72.1483 45 72.1483 45C72.1375 45 72.1375 45 72.1304 45C71.477 45.0144 70.8918 45.0251 70.8918 45.0251L67.2012 47.3443L72.1304 47.5131V47.5203H72.1483H72.1662V47.5131Z" fill="#FDD5B0"/>
<path opacity="0.2" d="M75.1471 40.4587L73.1223 33.4365H72.1674H72.1279H71.1729L69.1445 40.4587L71.1729 42.6271L72.1279 42.663H72.1458H72.1674L73.1223 42.6271L75.1471 40.4587Z" fill="#616161"/>
<path d="M74.2734 31.5551L80.6207 30.7581L80.7607 30.7366L80.8289 30.7796L83.8482 32.3808L80.5525 31.4582L80.7607 31.4761L74.6109 33.2101L74.2734 31.5551Z" fill="#9C9C9C"/>
<path d="M76.4997 34.2083C76.3992 34.4344 76.3418 34.6821 76.3418 34.9478C76.3418 35.9315 77.1423 36.7393 78.1296 36.7393C79.1241 36.7393 79.9211 35.9315 79.9211 34.9478C79.9211 34.6821 79.8601 34.4344 79.7595 34.2083H76.4997Z" fill="#2C2C2C"/>
<path d="M70.0103 31.5551L63.6666 30.7581L63.5266 30.7366L63.4656 30.7796L60.4355 32.3808L63.7312 31.4582L63.523 31.4761L69.6764 33.2101L70.0103 31.5551Z" fill="#9C9C9C"/>
<path d="M67.784 34.2083C67.8952 34.4344 67.9563 34.6821 67.9563 34.9478C67.9563 35.9315 67.1485 36.7393 66.1613 36.7393C65.1668 36.7393 64.3662 35.9315 64.3662 34.9478C64.3662 34.6821 64.4236 34.4344 64.5313 34.2083H67.784Z" fill="#2C2C2C"/>
<path d="M87.4441 37.2129C87.34 37.2883 87.2825 37.3314 87.2825 37.3314L84.3494 26.9704L82.4287 23.7429L86.5968 25.8503L87.4369 37.0765L87.4441 37.2129Z" fill="#9C9C9C"/>
<path d="M56.8486 37.2129C56.9527 37.2883 57.0102 37.3314 57.0102 37.3314L59.9397 26.9704L61.8676 23.7429L57.6959 25.8503L56.8594 37.0765L56.8486 37.2129Z" fill="#9C9C9C"/>
<path d="M86.8698 21.8478V26.1308C83.1468 27.1432 78.9823 27.5848 74.9866 27.6961C72.3263 27.775 69.7415 27.7068 67.4043 27.5776C66.2447 27.5058 65.1533 27.4232 64.1338 27.3335C62.9275 27.2258 61.8433 27.1109 60.9027 26.9996C58.6517 26.7267 57.2695 26.4826 57.2695 26.4826V22.4079C57.2695 22.4079 71.996 14.542 72.0714 14.542C72.0714 14.5743 73.9096 15.4898 76.2934 16.6637C77.0437 17.0407 77.8659 17.4392 78.688 17.8449C79.467 18.229 80.264 18.6203 81.0359 18.9973C83.2258 20.0707 85.2291 21.04 86.2164 21.5247C86.6328 21.7293 86.8698 21.8478 86.8698 21.8478Z" fill="#E3B605"/>
<path opacity="0.2" d="M78.6867 17.8445L64.1324 27.3295C62.9262 27.2218 61.842 27.1069 60.9014 26.9956L76.2921 16.6633C77.0424 17.0403 77.8645 17.4388 78.6867 17.8445Z" fill="#F1EAD8"/>
<path opacity="0.2" d="M86.2144 21.5245L74.9846 27.6923C72.3243 27.7712 69.7395 27.703 67.4023 27.5738L81.0339 18.9971C83.2238 20.0705 85.2271 21.0434 86.2144 21.5245Z" fill="#F1EAD8"/>
<path d="M42.9837 77.1816L42.499 80.6389L44.2007 77.5945L42.9837 77.1816Z" fill="#4E7BAD"/>
<path d="M49.7897 77.1816L49.2979 80.6389L50.9995 77.5945L49.7897 77.1816Z" fill="#4E7BAD"/>
<path d="M56.5937 77.1816L56.1055 80.6389L57.8 77.5945L56.5937 77.1816Z" fill="#4E7BAD"/>
<path d="M34.4785 88.3215L33.9902 91.7788L35.6919 88.7308L34.4785 88.3215Z" fill="#4E7BAD"/>
<path d="M41.2767 88.3215L40.792 91.7788L42.4973 88.7308L41.2767 88.3215Z" fill="#4E7BAD"/>
<path d="M48.0816 88.3215L47.6006 91.7788L49.2987 88.7308L48.0816 88.3215Z" fill="#4E7BAD"/>
<path d="M36.5641 99.5442L36.0723 103.001L37.774 99.9607L36.5641 99.5442Z" fill="#4E7BAD"/>
<path d="M43.362 99.5442L42.8701 103.001L44.579 99.9607L43.362 99.5442Z" fill="#4E7BAD"/>
<path d="M50.6394 99.282C50.3199 100.054 50.0147 100.801 49.7203 101.494L49.627 101.526L49.968 99.0522L50.6394 99.282Z" fill="#4E7BAD"/>
<path d="M54.89 57.7561L54.3945 61.2134L56.1034 58.169L54.89 57.7561Z" fill="#4E7BAD"/>
<path d="M48.0816 56.3628L47.6006 59.8165L49.2987 56.7685L48.0816 56.3628Z" fill="#4E7BAD"/>
<path d="M41.7395 57.6191L40.7881 59.3137L40.964 58.0535C41.2189 57.9135 41.4774 57.7627 41.7395 57.6191Z" fill="#4E7BAD"/>
<path d="M36.0554 106.545L35.165 106.811L35.2369 106.272L36.0554 106.545Z" fill="#4E7BAD"/>
<path d="M34.65 65.9485L34.1689 69.4057L35.8635 66.3578L34.65 65.9485Z" fill="#4E7BAD"/>
<path d="M42.2239 65.9485L41.7285 69.4057L43.4374 66.3578L42.2239 65.9485Z" fill="#4E7BAD"/>
<path d="M49.0208 65.9485L48.5361 69.4057L50.2414 66.3578L49.0208 65.9485Z" fill="#4E7BAD"/>
<path d="M55.8226 65.9485L55.3379 69.4057L57.0396 66.3578L55.8226 65.9485Z" fill="#4E7BAD"/>
<path d="M62.7958 59.5615L62.3076 63.0152L64.0129 59.9672L62.7958 59.5615Z" fill="#4E7BAD"/>
<path d="M35.4114 77.1816L34.9268 80.6389L36.632 77.5945L35.4114 77.1816Z" fill="#4E7BAD"/>
<path d="M102.767 77.1816L103.252 80.6389L101.558 77.5945L102.767 77.1816Z" fill="#4E7BAD"/>
<path d="M95.9644 77.1816L96.4527 80.6389L94.751 77.5945L95.9644 77.1816Z" fill="#4E7BAD"/>
<path d="M89.1672 77.1816L89.6483 80.6389L87.9502 77.5945L89.1672 77.1816Z" fill="#4E7BAD"/>
<path d="M90.8707 57.7561L91.3554 61.2134L89.6465 58.169L90.8707 57.7561Z" fill="#4E7BAD"/>
<path d="M97.6656 56.3628L98.1503 59.8165L96.4521 56.7685L97.6656 56.3628Z" fill="#4E7BAD"/>
<path d="M104.012 57.6191L104.967 59.3137L104.787 58.0535C104.532 57.9135 104.274 57.7627 104.012 57.6191Z" fill="#4E7BAD"/>
<path d="M111.1 65.9485L111.591 69.4057L109.89 66.3578L111.1 65.9485Z" fill="#4E7BAD"/>
<path d="M103.534 65.9485L104.023 69.4057L102.317 66.3578L103.534 65.9485Z" fill="#4E7BAD"/>
<path d="M96.733 65.9485L97.2213 69.4057L95.5088 66.3578L96.733 65.9485Z" fill="#4E7BAD"/>
<path d="M89.9316 65.9485L90.4198 69.4057L88.7109 66.3578L89.9316 65.9485Z" fill="#4E7BAD"/>
<path d="M82.9544 59.5615L83.4498 63.0152L81.7373 59.9672L82.9544 59.5615Z" fill="#4E7BAD"/>
<path d="M110.34 77.1816L110.824 80.6389L109.119 77.5945L110.34 77.1816Z" fill="#4E7BAD"/>
<path d="M68.9806 45L72.2261 45.7539L75.4536 45L76.2901 49.2794L68.1729 49.2507L68.9806 45Z" fill="#FDD5B0"/>
<path opacity="0.2" d="M75.6229 46.5974H69.1895V47.8611H75.6229V46.5974Z" fill="#616161"/>
<path opacity="0.2" d="M79.3816 74.7833C79.5108 78.3555 71.767 83.9201 71.767 83.9201C71.767 83.9201 64.235 78.2262 64.752 74.2125C65.0787 71.7174 67.3225 69.8685 69.692 69.9152C70.9844 69.9403 72.3881 71.0783 72.3881 71.0783C72.3881 71.0783 73.7164 70.0013 74.9765 70.0372C77.109 70.1055 79.3026 72.5288 79.3816 74.7833Z" fill="#616161"/>
<path d="M78.7779 74.0618C78.541 77.3073 71.9137 82.1287 71.9137 82.1287C71.9137 82.1287 65.3079 77.02 65.3725 73.7603C65.4084 71.5164 67.2753 69.7466 69.5191 69.786C70.7756 69.8112 72.1578 70.9708 72.1578 70.9708C72.1578 70.9708 73.5148 69.865 74.8073 69.9081C77.0439 69.9835 78.9395 71.8216 78.7779 74.0618Z" fill="#E3B605"/>
<path opacity="0.2" d="M71.9523 79.7877C69.4788 77.6695 67.1811 75.0128 67.2063 73.7922C67.235 72.5752 68.2581 71.613 69.4824 71.6382C69.8485 71.6382 70.624 72.0905 70.9758 72.3849L72.1462 73.365L73.3202 72.3993C73.6541 72.13 74.3613 71.7387 74.7382 71.7495C75.3952 71.7674 76.0091 72.051 76.4364 72.5249C76.6877 72.8049 76.982 73.2788 76.9282 73.9251C76.8492 75.1744 74.4618 77.7557 71.9523 79.7877Z" fill="#616161"/>
<path d="M74.4894 18.3185C74.4068 19.4888 72.0194 21.2264 72.0194 21.2264C72.0194 21.2264 69.6356 19.3847 69.6643 18.2143C69.6751 17.403 70.35 16.764 71.1542 16.7783C71.6066 16.7855 72.1092 17.2019 72.1092 17.2019C72.1092 17.2019 72.601 16.807 73.0677 16.8214C73.8647 16.8429 74.5468 17.5071 74.4894 18.3185Z" fill="#D66753"/>
<path opacity="0.2" d="M112.893 76.5067V63.9091L112.581 62.8644C112.581 62.8644 111.999 62.5448 111.019 61.9776C110.85 61.8843 110.664 61.7766 110.48 61.6724C110.129 61.457 109.73 61.238 109.299 60.9939C109.023 60.8252 108.718 60.6529 108.398 60.4698C108.075 60.2831 107.745 60.1 107.411 59.9169C106.901 59.6261 106.363 59.3209 105.81 58.9942C105.497 58.8255 105.167 58.6388 104.844 58.445L104.787 58.0536C104.535 57.91 104.277 57.7592 104.015 57.6192L104.309 58.1434C100.518 55.9893 96.0842 53.4655 92.4834 51.412C92.1136 51.193 91.7438 50.9776 91.3955 50.7945C91.3201 50.7514 91.2268 50.6868 91.1335 50.6401C90.8929 50.4929 90.6273 50.3493 90.3796 50.2129C90.2108 50.1231 90.0385 50.0298 89.8877 49.9364V49.9221C89.7477 49.8575 89.6041 49.7821 89.4821 49.7067C89.3205 49.6134 89.1482 49.5057 88.9795 49.4123C88.5486 49.1682 88.1537 48.9348 87.7839 48.7374C87.5398 48.6009 87.3136 48.4717 87.1054 48.3568C87.0659 48.1917 87.0157 48.0337 86.9582 47.8722L87.7193 40.8787L87.4393 37.2132L87.4321 37.0804L86.6172 26.1952C86.6961 26.1665 86.7895 26.1593 86.8685 26.1306V21.8476C86.8685 21.8476 86.6315 21.7292 86.2151 21.5281C85.2278 21.0435 83.2246 20.0741 81.0346 19.0007C80.2627 18.6237 79.4657 18.2324 78.6867 17.8483C77.8645 17.4426 77.0424 17.0441 76.2921 16.6671C73.9083 15.4932 72.0701 14.5777 72.0701 14.5454C72.063 14.5454 71.9948 14.5777 71.8799 14.6388V95.9254L87.31 91.287L87.4537 91.7825L96.1632 88.6268L112.889 83.6007V82.5703V76.5175V76.5067H112.893Z" fill="#616161"/>
<path d="M112.891 91.3191V136.515C112.765 136.576 112.32 136.823 111.627 137.222C111.476 137.312 111.336 137.391 111.175 137.484C110.805 137.685 110.403 137.911 109.954 138.173C109.879 138.231 109.803 138.259 109.728 138.313C109.34 138.511 108.927 138.758 108.496 138.999C107.976 139.308 107.419 139.631 106.841 139.954C106.256 140.295 105.642 140.629 105.014 140.999C104.615 141.225 104.192 141.458 103.783 141.706C103.273 142 102.752 142.291 102.25 142.578C100.53 143.562 98.7313 144.582 96.9794 145.576C96.5773 145.82 96.1537 146.054 95.7695 146.28H95.7516C95.3603 146.499 94.9546 146.725 94.5668 146.944C94.1683 147.17 93.7698 147.403 93.3821 147.619C92.3087 148.229 91.3143 148.804 90.4096 149.321C90.3306 149.371 90.2552 149.414 90.1726 149.446C90.1151 149.478 90.0577 149.536 89.9931 149.554C89.6053 149.773 89.2356 149.981 88.8838 150.182C88.8838 150.182 88.8837 150.182 88.873 150.182C88.4063 150.441 87.9898 150.688 87.6237 150.886C87.577 150.918 87.5339 150.947 87.4872 150.965C87.498 150.983 87.4872 150.983 87.4872 150.983C87.3364 151.058 87.2143 151.133 87.0851 151.195C87.0241 151.227 86.9667 151.259 86.92 151.284C86.8661 151.317 86.8266 151.345 86.78 151.363C86.683 151.424 86.5969 151.467 86.5143 151.514C86.4748 151.528 86.4245 151.557 86.3958 151.593C86.3491 151.604 86.3132 151.622 86.2666 151.65C86.1912 151.715 86.1302 151.726 86.0691 151.758C85.9938 151.805 85.947 151.834 85.947 151.834H58.8276C58.8276 151.834 58.7522 151.79 58.6481 151.715C58.5691 151.679 58.4578 151.622 58.3429 151.543C58.2783 151.514 58.1993 151.482 58.1419 151.453C58.0593 151.392 57.9839 151.345 57.8906 151.302C57.7936 151.238 57.6608 151.18 57.5423 151.105C57.4813 151.076 57.4167 151.04 57.3592 151.011C57.3413 150.993 57.3413 150.993 57.3413 150.993C57.1259 150.875 56.8997 150.749 56.6699 150.613C56.3038 150.412 55.9052 150.182 55.4708 149.938C55.3021 149.848 55.137 149.741 54.9646 149.647C54.8426 149.568 54.699 149.489 54.559 149.428V149.41C54.4154 149.317 54.2394 149.227 54.0743 149.152C53.8302 148.997 53.5645 148.861 53.3168 148.71C53.227 148.66 53.1373 148.599 53.0547 148.556C52.7029 148.383 52.3367 148.154 51.9669 147.942C50.1108 146.883 48.0394 145.698 45.9356 144.499C45.056 144.011 44.1657 143.505 43.3004 143.009C43.0456 142.855 42.7978 142.718 42.5537 142.575C41.7244 142.101 40.9238 141.641 40.1412 141.21C40.0155 141.135 39.8971 141.06 39.7678 140.995C39.7283 140.966 39.6637 140.934 39.617 140.902H39.5991C39.2796 140.719 38.9636 140.536 38.6334 140.349C38.0805 140.026 37.542 139.721 37.0322 139.43C36.6983 139.247 36.3752 139.06 36.0485 138.873C35.7469 138.694 35.4418 138.522 35.1474 138.349C34.7202 138.105 34.3252 137.89 33.9662 137.678C33.7831 137.57 33.5965 137.459 33.4277 137.369C32.444 136.802 31.8625 136.475 31.8625 136.475L31.5537 135.434V115.746L48.2799 110.724L48.3697 110.691L48.4738 110.662L52.0423 109.585L57.1187 108.067H57.1331V108.052L72.5668 103.428L91.1096 97.853H91.1204L95.1449 96.6396L95.3495 96.5786L107.951 92.8018L109.717 92.2633L112.891 91.3191Z" fill="#D66753"/>
<path d="M67.171 140.478L67.39 140.923L67.5551 141.304H77.0976C77.1263 141.225 77.173 141.092 77.2304 140.923C77.2986 140.801 77.3524 140.647 77.4135 140.478H67.171ZM78.2895 139.035L78.1243 138.708L76.9899 136.773V136.755L72.5776 129.126L72.1971 128.469L72.1827 128.437L72.154 128.498L67.0094 137.405C67.0094 137.419 67.0094 137.419 66.9915 137.419L66.3596 138.525L66.3201 138.618L64.7656 141.304H79.6106L78.2895 139.035ZM66.1729 140.478L66.7258 139.527L66.7904 139.437C66.7904 139.437 66.7904 139.437 66.7904 139.423L68.5532 136.368L72.1792 130.085L72.5776 130.774L75.5394 135.904V135.915L77.7222 139.678L77.8766 139.936L78.0346 140.209L78.1818 140.475L66.1729 140.478ZM67.171 140.478L67.39 140.923L67.5551 141.304H77.0976C77.1263 141.225 77.173 141.092 77.2304 140.923C77.2986 140.801 77.3524 140.647 77.4135 140.478H67.171Z" fill="#E3B605"/>
<path opacity="0.2" d="M82.1556 151.837C82.2956 151.805 109.132 136.493 109.132 136.493L112.89 124.883V91.3298L95.141 96.6575L91.1236 97.8674L80.5149 132.659L79.0969 137.322L77.0254 141.767L72.4014 151.654V151.841L82.1556 151.837Z" fill="#616161"/>
<path d="M85.9576 151.837C85.9612 151.837 86.0079 151.812 86.0833 151.772C86.1407 151.74 86.1981 151.704 86.2915 151.661C86.3561 151.618 86.4315 151.571 86.5284 151.528C86.6038 151.482 86.6864 151.431 86.7833 151.381C86.8766 151.324 86.9808 151.266 87.092 151.202C87.2572 151.112 87.4331 151.011 87.6306 150.896C87.9932 150.692 88.406 150.455 88.8763 150.189C88.8907 150.189 88.8943 150.182 88.8943 150.182C89.2461 149.985 89.6123 149.78 90.0036 149.554C90.1329 149.478 90.2657 149.407 90.4057 149.32C91.3104 148.811 92.3192 148.243 93.3927 147.629C93.7768 147.414 94.1681 147.184 94.5666 146.955C94.9651 146.736 95.36 146.517 95.7657 146.283C96.157 146.057 96.5735 145.82 96.9899 145.583C98.7203 144.596 100.519 143.576 102.242 142.582C102.763 142.298 103.28 142 103.782 141.713C106.794 139.99 109.494 138.45 111.174 137.502C111.329 137.405 111.487 137.319 111.63 137.233C112.32 136.841 112.761 136.586 112.89 136.518V91.3262L109.731 92.2775L107.958 92.8053L95.3492 96.5892L95.1446 96.6538C94.5595 98.0468 93.9491 99.5331 93.2993 101.073C89.0487 111.291 83.8718 124.229 80.5186 132.652C78.4328 137.907 77.0506 141.404 77.0506 141.404L77.0254 141.76L76.1172 151.833L85.9576 151.837Z" fill="#F9F9F9"/>
<path opacity="0.2" d="M72.3903 151.657V151.84H62.6396C62.6109 151.83 60.6219 150.706 57.7606 149.08C57.6529 149.019 57.5596 148.954 57.4555 148.911C56.7734 148.512 56.0733 148.11 55.3158 147.679C52.7525 146.222 49.7907 144.531 46.9796 142.937C46.9007 142.887 46.8253 142.844 46.7499 142.797C40.898 139.462 35.6781 136.482 35.6781 136.482L31.5566 122.847V116.794L48.2828 110.727L48.3726 110.694L48.4767 110.666L52.0453 109.589L57.1216 108.07H57.136L65.5978 136.97L65.6911 137.308L66.043 138.076L66.3087 138.615L66.7179 139.519L67.0123 140.115L67.1631 140.471L67.3821 140.916L67.5472 141.296L67.7662 141.745L71.6507 150.085L72.3077 151.481L72.3903 151.657Z" fill="#616161"/>
<path d="M68.6748 151.837H58.8308C58.8308 151.837 58.7554 151.793 58.6513 151.718C58.5723 151.682 58.461 151.625 58.3462 151.546C58.2815 151.517 58.2026 151.485 58.1451 151.456C58.0625 151.395 57.9872 151.348 57.8938 151.305C57.7969 151.241 57.664 151.183 57.5456 151.108C57.4845 151.079 57.4199 151.043 57.3625 151.014C57.3445 150.996 57.3445 150.996 57.3445 150.996C57.1291 150.878 56.903 150.752 56.6732 150.616C56.307 150.415 55.9085 150.185 55.4741 149.941C55.3054 149.851 55.1402 149.744 54.9679 149.65C54.8458 149.571 54.7022 149.492 54.5838 149.417H54.5658C54.4222 149.324 54.2463 149.234 54.0812 149.158C53.837 149.004 53.5713 148.868 53.3236 148.717C53.2339 148.666 53.1441 148.605 53.0616 148.562C52.7097 148.39 52.3435 148.16 51.9738 147.948C50.1177 146.889 48.0462 145.705 45.9424 144.506C45.0628 144.017 44.1725 143.511 43.3073 143.016C43.0524 142.861 42.8047 142.725 42.5606 142.581C41.7313 142.107 40.9307 141.648 40.148 141.217C40.0224 141.142 39.9039 141.066 39.7747 141.002C39.7352 140.973 39.6706 140.941 39.6239 140.908H39.6059C39.2864 140.725 38.9705 140.542 38.6402 140.355C38.0873 140.032 37.5488 139.727 37.039 139.436C36.7051 139.253 36.382 139.067 36.0553 138.88C35.7538 138.7 35.4486 138.528 35.1542 138.356C34.727 138.112 34.3321 137.896 33.9731 137.684C33.79 137.577 33.6033 137.465 33.4346 137.376C32.4509 136.808 31.8693 136.482 31.8693 136.482L31.5605 135.441V115.753L48.2867 110.73L48.3765 110.698L48.4806 110.669L52.0492 109.592C55.0541 115.29 62.0583 129.682 65.6017 136.977C65.792 137.343 65.9571 137.695 66.1151 138.036C66.1869 138.205 66.2803 138.374 66.3556 138.528C66.5136 138.851 66.6464 139.142 66.7901 139.422C66.7901 139.436 66.7901 139.436 66.7901 139.436C66.9121 139.663 67.0198 139.882 67.1096 140.083C67.1706 140.215 67.2316 140.359 67.3106 140.481C67.368 140.632 67.4327 140.761 67.4793 140.862C67.587 141.077 67.6481 141.217 67.6983 141.307C67.7271 141.371 67.7378 141.404 67.7378 141.404L67.7737 141.756L68.524 150.074L68.6748 151.837Z" fill="#F9F9F9"/>
<path d="M56.7373 158.475L57.0137 162.144L57.0209 162.281L57.861 173.503L62.0291 175.614L70.0817 179.685L72.3111 178.49L74.5333 179.685L82.5859 175.614L86.7648 173.503L87.594 162.281L87.6085 162.144L87.8813 158.475L86.7253 147.935L72.3255 137.294V137.265L72.3111 137.279L72.2895 137.265V137.294L57.8754 147.974L56.7373 158.475Z" fill="#FDD5B0"/>
<path d="M72.2895 151.844L67.3604 152.013L71.051 154.332C71.051 154.332 71.6397 154.346 72.2895 154.354C72.3003 154.354 72.3111 154.354 72.3111 154.354C72.3111 154.354 72.3183 154.354 72.3254 154.354C72.9788 154.346 73.5712 154.332 73.5712 154.332L77.251 152.013L72.3254 151.844V151.837H72.3111H72.2895V151.844Z" fill="#FDD5B0"/>
<path opacity="0.2" d="M69.3086 158.895L71.3262 165.921H72.2884H72.3243H73.29L75.3076 158.895L73.29 156.731L72.3243 156.695V156.691L72.3099 156.695L72.2884 156.691V156.695L71.3262 156.731L69.3086 158.895Z" fill="#616161"/>
<path d="M70.1779 167.802L63.8271 168.599L63.6943 168.62L63.6189 168.577L60.5996 166.976L63.8953 167.899L63.6943 167.881L69.8477 166.15L70.1779 167.802Z" fill="#9C9C9C"/>
<path d="M67.9448 165.149C68.0561 164.923 68.1135 164.671 68.1135 164.409C68.1135 163.422 67.3093 162.618 66.322 162.618C65.3312 162.618 64.5342 163.418 64.5342 164.409C64.5342 164.675 64.5916 164.923 64.6958 165.149H67.9448Z" fill="#2C2C2C"/>
<path d="M74.4492 167.802L80.7893 168.599L80.9257 168.62L81.0011 168.577L84.0204 166.976L80.7246 167.899L80.9329 167.881L74.7759 166.15L74.4492 167.802Z" fill="#9C9C9C"/>
<path d="M76.6652 165.149C76.5682 164.923 76.5 164.671 76.5 164.409C76.5 163.422 77.297 162.618 78.2915 162.618C79.2823 162.618 80.0865 163.418 80.0865 164.409C80.0865 164.675 80.0291 164.923 79.9214 165.149H76.6652Z" fill="#2C2C2C"/>
<path d="M57.0137 162.144C57.1142 162.065 57.1717 162.029 57.1717 162.029L60.1047 172.387L62.029 175.614L57.8609 173.503L57.0209 162.277L57.0137 162.144Z" fill="#9C9C9C"/>
<path d="M87.6078 162.144C87.5037 162.065 87.4462 162.029 87.4462 162.029L84.5131 172.387L82.5889 175.614L86.7642 173.503L87.597 162.277L87.6078 162.144Z" fill="#9C9C9C"/>
<path d="M57.582 177.51V173.223C61.3085 172.211 65.473 171.777 69.4688 171.665C72.129 171.586 74.7103 171.651 77.051 171.787C78.2106 171.859 79.3056 171.938 80.318 172.028C81.5243 172.132 82.6121 172.254 83.5599 172.365C85.8109 172.635 87.1858 172.875 87.1858 172.875V176.95C87.1858 176.95 72.4629 184.816 72.3875 184.816C72.3875 184.78 70.5458 183.864 68.1692 182.698C67.4189 182.321 66.5967 181.919 65.7746 181.513C64.9884 181.129 64.195 180.737 63.4231 180.357C61.2296 179.287 59.2299 178.314 58.239 177.83C57.8262 177.628 57.582 177.51 57.582 177.51Z" fill="#E3B605"/>
<path opacity="0.2" d="M65.7676 181.513L80.3146 172.024C81.5209 172.129 82.6087 172.251 83.5565 172.362L68.1622 182.694C67.4118 182.317 66.5897 181.919 65.7676 181.513Z" fill="#F1EAD8"/>
<path opacity="0.2" d="M58.2344 177.833L69.4677 171.665C72.128 171.586 74.7093 171.651 77.05 171.787L63.4185 180.361C61.2249 179.287 59.2252 178.314 58.2344 177.833Z" fill="#F1EAD8"/>
<path d="M101.465 122.18L101.964 118.723L100.252 121.767L101.465 122.18Z" fill="#4E7BAD"/>
<path d="M94.6682 122.18L95.1529 118.723L93.4512 121.767L94.6682 122.18Z" fill="#4E7BAD"/>
<path d="M87.8593 122.18L88.3547 118.723L86.6494 121.767L87.8593 122.18Z" fill="#4E7BAD"/>
<path d="M109.972 111.036L110.463 107.582L108.762 110.63L109.972 111.036Z" fill="#4E7BAD"/>
<path d="M103.173 111.036L103.658 107.582L101.967 110.63L103.173 111.036Z" fill="#4E7BAD"/>
<path d="M96.3684 111.036L96.8602 107.582L95.1514 110.63L96.3684 111.036Z" fill="#4E7BAD"/>
<path d="M107.9 99.8065L108.381 96.3564L106.68 99.3972L107.9 99.8065Z" fill="#4E7BAD"/>
<path d="M101.091 99.8065L101.58 96.3564L99.8779 99.3972L101.091 99.8065Z" fill="#4E7BAD"/>
<path d="M93.8086 100.075C94.1281 99.2963 94.4405 98.5603 94.7313 97.8639L94.8353 97.8315L94.4835 100.302L93.8086 100.075Z" fill="#4E7BAD"/>
<path d="M89.5673 141.602L90.0591 138.141L88.3574 141.186L89.5673 141.602Z" fill="#4E7BAD"/>
<path d="M96.3684 142.988L96.8602 139.541L95.1514 142.578L96.3684 142.988Z" fill="#4E7BAD"/>
<path d="M102.718 141.735L103.673 140.044L103.493 141.3C103.238 141.444 102.983 141.595 102.718 141.735Z" fill="#4E7BAD"/>
<path d="M108.403 92.809L109.294 92.5505L109.211 93.0855L108.403 92.809Z" fill="#4E7BAD"/>
<path d="M109.803 133.406L110.288 129.952L108.586 133L109.803 133.406Z" fill="#4E7BAD"/>
<path d="M102.237 133.406L102.729 129.952L101.023 133L102.237 133.406Z" fill="#4E7BAD"/>
<path d="M95.4315 133.406L95.9269 129.952L94.2217 133L95.4315 133.406Z" fill="#4E7BAD"/>
<path d="M88.6308 133.406L89.1226 129.952L87.4209 133L88.6308 133.406Z" fill="#4E7BAD"/>
<path d="M81.6613 139.8L82.146 136.342L80.4443 139.39L81.6613 139.8Z" fill="#4E7BAD"/>
<path d="M109.042 122.18L109.523 118.723L107.825 121.767L109.042 122.18Z" fill="#4E7BAD"/>
<path d="M41.6901 122.18L41.1982 118.723L42.8999 121.767L41.6901 122.18Z" fill="#4E7BAD"/>
<path d="M48.4928 122.18L48.001 118.723L49.7027 121.767L48.4928 122.18Z" fill="#4E7BAD"/>
<path d="M55.3004 122.18L54.8086 118.723L56.5067 121.767L55.3004 122.18Z" fill="#4E7BAD"/>
<path d="M53.5853 141.602L53.1006 138.141L54.8059 141.186L53.5853 141.602Z" fill="#4E7BAD"/>
<path d="M46.7877 142.988L46.2959 139.541L48.0012 142.578L46.7877 142.988Z" fill="#4E7BAD"/>
<path d="M40.439 141.735L39.4912 140.044L39.6671 141.3C39.9184 141.444 40.1841 141.595 40.439 141.735Z" fill="#4E7BAD"/>
<path d="M33.3502 133.406L32.8584 129.952L34.5709 133L33.3502 133.406Z" fill="#4E7BAD"/>
<path d="M40.9189 133.406L40.4307 129.952L42.1359 133L40.9189 133.406Z" fill="#4E7BAD"/>
<path d="M47.7243 133.406L47.2324 129.952L48.9377 133L47.7243 133.406Z" fill="#4E7BAD"/>
<path d="M54.525 133.406L54.0332 129.952L55.7385 133L54.525 133.406Z" fill="#4E7BAD"/>
<path d="M61.4915 139.8L61.0068 136.343L62.7121 139.391L61.4915 139.8Z" fill="#4E7BAD"/>
<path d="M34.1208 122.18L33.6289 118.723L35.3342 121.767L34.1208 122.18Z" fill="#4E7BAD"/>
<path d="M75.4715 154.354L72.2261 153.603L68.995 154.354L68.1729 150.074L76.2828 150.103L75.4715 154.354Z" fill="#FDD5B0"/>
<path opacity="0.2" d="M75.2583 151.496H68.832V152.763H75.2583V151.496Z" fill="#616161"/>
<path opacity="0.2" d="M65.0759 124.574C64.9431 120.999 72.6905 115.438 72.6905 115.438C72.6905 115.438 80.2153 121.131 79.7055 125.145C79.3824 127.64 77.1386 129.486 74.7656 129.435C73.4695 129.41 72.0658 128.276 72.0658 128.276C72.0658 128.276 70.7339 129.36 69.4738 129.317C67.3484 129.249 65.1513 126.829 65.0759 124.574Z" fill="#616161"/>
<path d="M65.6766 125.296C65.9136 122.043 72.5409 117.225 72.5409 117.225C72.5409 117.225 79.1538 122.33 79.0928 125.594C79.0497 127.83 77.1865 129.608 74.9463 129.564C73.6861 129.543 72.3003 128.376 72.3003 128.376C72.3003 128.376 70.9469 129.489 69.6616 129.442C67.4071 129.374 65.5151 127.536 65.6766 125.296Z" fill="#E3B605"/>
<path opacity="0.2" d="M72.5056 119.577C74.9684 121.691 77.2696 124.348 77.2409 125.561C77.223 126.778 76.2033 127.748 74.9683 127.723C74.6057 127.719 73.8339 127.267 73.4785 126.972L72.3045 125.996L71.1306 126.961C70.8003 127.227 70.093 127.615 69.7125 127.608C69.0555 127.586 68.4416 127.303 68.0072 126.832C67.7595 126.549 67.4651 126.078 67.5118 125.432C67.6051 124.179 69.9997 121.598 72.5056 119.577Z" fill="#616161"/>
<path d="M69.9712 181.043C70.0537 179.869 72.4411 178.131 72.4411 178.131C72.4411 178.131 74.8321 179.976 74.807 181.15C74.789 181.958 74.1177 182.597 73.3063 182.579C72.854 182.572 72.3586 182.152 72.3586 182.152C72.3586 182.152 71.8703 182.551 71.4 182.536C70.5958 182.511 69.9137 181.847 69.9712 181.043Z" fill="#D66753"/>
<path opacity="0.2" d="M57.1294 108.074L52.0531 109.593L48.4845 110.67L48.3804 110.699L48.2906 110.731L31.5645 115.753V116.798V122.851V135.445L31.8732 136.486C31.8732 136.486 32.4548 136.809 33.4385 137.38C33.6072 137.47 33.7939 137.581 33.977 137.689C34.3324 137.901 34.7309 138.116 35.1581 138.36C35.4525 138.529 35.7577 138.701 36.0592 138.884C36.3859 139.071 36.709 139.258 37.0429 139.441C37.5527 139.735 38.0912 140.037 38.6441 140.36C38.9708 140.546 39.2867 140.73 39.6098 140.913L39.6745 141.311C39.9222 141.451 40.1807 141.602 40.4463 141.746L40.1519 141.221C40.9346 141.656 41.7316 142.115 42.5645 142.586C42.8086 142.726 43.0563 142.866 43.3112 143.02C44.1764 143.512 45.0667 144.022 45.9463 144.51C48.0465 145.709 50.1216 146.894 51.9777 147.953C52.3474 148.168 52.7172 148.394 53.0655 148.567C53.148 148.61 53.2342 148.671 53.3276 148.721C53.5753 148.872 53.8373 149.012 54.0851 149.163C54.2502 149.238 54.4261 149.328 54.5697 149.421V149.439C54.7097 149.5 54.8533 149.579 54.9754 149.658C55.1441 149.751 55.3093 149.859 55.4816 149.949C55.916 150.193 56.3145 150.426 56.6807 150.624C56.9105 150.76 57.1402 150.886 57.352 151.004C57.37 151.051 57.3915 151.116 57.4023 151.162C57.4023 151.173 57.4167 151.173 57.4167 151.191C57.4274 151.295 57.4633 151.392 57.5028 151.496L56.7381 158.486L57.0325 162.155V162.295L57.8475 173.166V173.184C57.7721 173.198 57.6751 173.213 57.5997 173.227V177.51C57.5997 177.51 57.8295 177.632 58.2424 177.833C59.244 178.325 61.2365 179.291 63.4336 180.368C64.1983 180.752 65.0061 181.136 65.7887 181.52C66.5965 181.915 67.415 182.328 68.1833 182.705C70.5635 183.868 72.4052 184.791 72.4052 184.819C72.4052 184.819 72.4735 184.787 72.5883 184.726V182.328V179.739V178.634V178.25V177.079V174.609V171.662V165.932V156.72V154.925V154.372V153.697V152.764V151.859V151.841V151.489V151.263V150.096V141.308V140.482V137.491V136.931V134.257V130.771V129.126V128.638V128.588V126.211V119.634V117.272V115.502V103.436L57.1546 108.074V108.06L57.1294 108.074Z" fill="#616161"/>
<path d="M31.3808 40.5629C31.1402 45.1582 21.9029 52.1517 21.9029 52.1517C21.9029 52.1517 12.4287 45.1116 12.4287 40.4983C12.4287 37.339 15.0136 34.7793 18.1836 34.7793C19.9607 34.7793 21.9496 36.3733 21.9496 36.3733C21.9496 36.3733 23.8272 34.7793 25.6546 34.8009C28.8318 34.8439 31.5495 37.3929 31.3808 40.5629Z" fill="#D66753"/>
<path opacity="0.2" d="M25.654 34.801C23.8267 34.7795 21.9491 36.3734 21.9491 36.3734C21.9491 36.3734 21.9204 36.3627 21.8809 36.3304V52.1375C21.8988 52.1447 21.9024 52.1519 21.9024 52.1519C21.9024 52.1519 31.1397 45.162 31.3802 40.5631C31.5489 37.393 28.8313 34.8441 25.654 34.801Z" fill="#616161"/>
<path d="M113.79 160.005C114.031 155.402 123.261 148.416 123.261 148.416C123.261 148.416 132.742 155.456 132.742 160.069C132.742 163.232 130.157 165.788 126.991 165.788C125.21 165.788 123.228 164.187 123.228 164.187C123.228 164.187 121.347 165.788 119.52 165.76C116.339 165.72 113.618 163.171 113.79 160.005Z" fill="#D66753"/>
<path opacity="0.2" d="M119.516 165.763C121.343 165.792 123.224 164.191 123.224 164.191C123.224 164.191 123.246 164.209 123.285 164.241V148.434C123.274 148.423 123.256 148.419 123.256 148.419C123.256 148.419 114.026 155.406 113.786 160.008C113.617 163.171 116.338 165.72 119.516 165.763Z" fill="#616161"/>
<path d="M14.204 15.561H20.4809V15.952H19.349V22.4553L19.5136 22.4141L25.3172 15.952H23.6914V15.561H27.2929V15.952H26.0581L22.5183 19.9034L27.4575 29.576H28.5689V29.967H21.9627V29.576H22.9299L19.5342 23.011L19.349 23.0521V29.576H20.4809V29.967H14.204V29.576H15.3359V15.952H14.204V15.561Z" fill="#D66753"/>
<path d="M130.94 187.309L124.663 187.309L124.663 186.918L125.795 186.918L125.795 180.415L125.63 180.456L119.826 186.918L121.452 186.918L121.452 187.309L117.851 187.309L117.851 186.918L119.085 186.918L122.625 182.966L117.686 173.294L116.575 173.294L116.575 172.903L123.181 172.903L123.181 173.294L122.214 173.294L125.609 179.859L125.795 179.818L125.795 173.294L124.663 173.294L124.663 172.903L130.94 172.903L130.94 173.294L129.808 173.294L129.808 186.918L130.94 186.918L130.94 187.309Z" fill="#D66753"/>
</svg>
