<svg width="144" height="200" viewBox="0 0 144 200" fill="none" xmlns="http://www.w3.org/2000/svg">
<path d="M15.7931 199.996C7.34192 200.011 0.448837 193.261 0.430886 184.957L6.85712e-05 15.1541C-0.0250625 6.79622 6.86084 0.00723126 15.3372 0.025182L127.547 0.233406C135.991 0.247766 142.866 7.04392 142.866 15.3838V184.821C142.866 193.107 136.024 199.856 127.605 199.867L15.7931 199.996Z" fill="#C9C9C9"/>
<path d="M17.3238 199.548C8.98394 199.548 2.20215 192.784 2.20215 184.469V15.0714C2.20215 6.76024 8.98394 0 17.3238 0H127.904C136.244 0 143.026 6.76024 143.026 15.0714V184.469C143.026 192.78 136.244 199.548 127.904 199.548H17.3238Z" fill="#F1EAD8"/>
<path d="M127.739 196.399H17.1587C10.7 196.399 5.44043 191.165 5.44043 184.727V15.3299C5.44043 9.14413 10.3553 4.10357 12.9869 3.13782L13.3747 2.9978L124.544 3.00139C135.54 3.86303 139.453 9.93755 139.453 15.3335V184.731C139.457 191.165 134.201 196.399 127.739 196.399ZM14.3153 7.62192C13.1233 8.36867 10.0681 11.4849 10.0681 15.3264V184.724C10.0681 188.605 13.249 191.764 17.1587 191.764H127.739C131.648 191.764 134.829 188.605 134.829 184.724V15.3264C134.829 11.0361 130.887 8.15685 124.274 7.62192H14.3153Z" fill="#D66753"/>
<path d="M21.2651 52.6277L14.0273 43.4908L21.2651 34.3574L28.5028 43.4908L21.2651 52.6277Z" fill="#D66753"/>
<path opacity="0.2" d="M21.2659 34.3574L21.0361 34.6518V52.3333L21.2659 52.6277L28.5036 43.4908L21.2659 34.3574Z" fill="#616161"/>
<path d="M124.205 149.264L131.443 158.401L124.205 167.534L116.975 158.401L124.205 149.264Z" fill="#D66753"/>
<path opacity="0.2" d="M124.205 167.534L124.442 167.244V149.559L124.205 149.264L116.975 158.401L124.205 167.534Z" fill="#616161"/>
<path d="M93.9769 56.6094L93.7614 59.6251L93.6214 61.4633L93.065 69.3329L92.9213 71.1818L92.7526 73.6949V73.7092L92.5803 76.0249L90.7852 76.0644L89.9343 76.0788L88.1788 76.1218L87.1771 76.1398L85.9636 76.1649L83.8167 76.208L81.4329 76.2618L70.2316 76.4988H70.2101L59.0088 76.2618L56.625 76.208L54.4745 76.1649L53.2646 76.1398L52.2629 76.1218L51.3833 76.1039L50.5002 76.0788L49.6529 76.0644L47.8614 76.0249L47.6891 73.7092V73.6949L47.5168 71.1818L47.3767 69.3329L46.8167 61.4633L46.6803 59.6251L46.4648 56.6094H93.9769Z" fill="#C9C9C9"/>
<path opacity="0.2" d="M91.8063 56.6095C88.2629 61.6142 83.2797 66.723 77.7545 66.723H77.6935C76.4908 68.2596 75.0727 69.4264 73.5145 70.0977C72.538 70.5178 71.4933 70.7404 70.4342 70.7404C70.3696 70.7404 70.2906 70.7332 70.2296 70.7188C70.2188 70.7188 70.2188 70.7188 70.208 70.7188V56.606L91.8063 56.6095Z" fill="#616161"/>
<path d="M101.556 87.6031L92.5482 90.2921L91.7081 90.547L91.4496 90.6224C90.7423 89.4341 90.1823 88.5689 89.9274 88.1811C89.8412 88.0627 89.7874 87.9873 89.7658 87.9621C88.9616 89.2402 88.5308 90.4465 88.2651 91.5774L85.8597 92.2954L70.2354 96.9555L60.4846 99.8635L57.2211 100.844C57.1098 100.456 56.9698 100.039 56.8118 99.6086C50.9779 97.117 53.9218 93.0637 50.6799 87.9621C50.3352 88.375 43.9771 98.0899 42.8821 105.116L42.0958 105.356L35.77 107.245H35.6192C35.5115 93.3689 39.7335 84.1099 43.6288 78.5308C43.8981 78.1395 44.1673 77.7697 44.4366 77.4107C44.7059 77.0804 44.9536 76.7537 45.1977 76.4449L45.2049 76.4342C45.2049 76.4198 45.2157 76.409 45.2157 76.409C45.4095 76.1864 45.6034 75.9495 45.7973 75.7377C45.9804 75.5115 46.1742 75.2961 46.3537 75.0914C46.8241 74.5673 47.2764 74.1041 47.6857 73.7056V73.6949H47.6965C47.8006 73.6015 47.8975 73.4974 47.9944 73.3933C48.095 73.3107 48.1883 73.2138 48.2852 73.1348C48.3714 73.0522 48.4683 72.9625 48.5545 72.8907C48.7268 72.7291 48.8884 72.5891 49.0356 72.4706C49.6567 71.9285 50.0372 71.6844 50.0372 71.6844L51.4984 72.0398L51.7533 72.1044L52.3349 72.2552L52.4965 72.2839L54.5357 72.2014L57.6807 72.0685L70.2031 71.5659H70.2246L82.7471 72.0685L85.892 72.2014L87.9348 72.2839L88.0928 72.2552L88.6708 72.1044L88.9293 72.0398L90.3869 71.6844C90.3869 71.6844 90.7603 71.9285 91.385 72.4706C91.5358 72.5891 91.6973 72.7291 91.8696 72.8907C91.9558 72.9625 92.0527 73.0522 92.1389 73.1348C92.2358 73.2138 92.3328 73.3071 92.4297 73.3933C92.5266 73.501 92.6236 73.6015 92.7313 73.6949L92.742 73.7056C92.839 73.7882 92.9359 73.8852 93.04 74.0036C93.1513 74.1149 93.2662 74.219 93.3739 74.3375C93.5965 74.5745 93.8334 74.8222 94.0704 75.0914C94.2319 75.2638 94.3827 75.4325 94.5443 75.6156C94.5766 75.6587 94.5981 75.7054 94.6305 75.7377C94.8243 75.9495 95.0146 76.1864 95.2121 76.409C95.2121 76.409 95.2228 76.4162 95.2228 76.4342L95.2336 76.4449C95.4813 76.7537 95.729 77.0804 95.9947 77.4107C96.2676 77.7697 96.5296 78.1395 96.8025 78.5308C98.4432 80.8824 100.152 83.8873 101.556 87.6031Z" fill="#D66753"/>
<path opacity="0.2" d="M70.2139 81.7224H72.2782L71.3555 89.1504C70.9822 89.1684 70.598 89.1792 70.2139 89.1864V81.7224Z" fill="#616161"/>
<path opacity="0.2" d="M70.2263 56.6128H48.6279C52.1822 61.6067 57.1617 66.7226 62.6798 66.7226H62.7408C64.6974 69.225 67.2249 70.7436 70.0001 70.7436C70.0755 70.7436 70.1509 70.7257 70.2227 70.7257L70.2263 56.6128Z" fill="#616161"/>
<path opacity="0.2" d="M70.2277 81.7224H68.167L69.0861 89.1504C69.4666 89.1684 69.8472 89.1792 70.2277 89.1864V81.7224Z" fill="#616161"/>
<path opacity="0.2" d="M62.7135 87.962C52.2626 85.6608 46.5901 82.1388 43.6318 78.5271C45.7931 75.4216 47.8646 73.4578 49.035 72.4634L62.7135 87.962Z" fill="#616161"/>
<path d="M70.2287 67.6598C70.1569 67.6598 70.0779 67.667 70.0061 67.667C68.9722 67.667 67.9741 67.4551 67.0263 67.0674C66.9689 67.3079 66.9258 67.5593 66.9258 67.825V69.1605C67.9095 69.5877 68.9434 69.8103 70.0061 69.8103C70.0815 69.8103 70.1569 69.8031 70.2287 69.8031V67.6598Z" fill="#FDD5B0"/>
<path d="M70.2298 64.6477C70.1939 64.6477 70.158 64.6333 70.1149 64.6333C68.6178 64.6333 67.3684 65.6744 67.0273 67.071C67.9787 67.4587 68.9768 67.6705 70.0072 67.6705C70.079 67.6705 70.158 67.6634 70.2298 67.6634V64.6477Z" fill="#FDD5B0"/>
<path d="M88.5644 71.3145L83.0212 71.2391L73.5145 71.117V69.1604C72.5308 69.5876 71.4969 69.8102 70.4342 69.8102C70.3624 69.8102 70.2977 69.8066 70.2259 69.803C70.2259 69.803 70.2223 69.803 70.2152 69.803C70.1434 69.8066 70.0751 69.8102 70.0033 69.8102C68.9371 69.8102 67.9067 69.5876 66.923 69.1604V71.117L57.4163 71.2391L51.8767 71.3145C50.9002 73.0091 51.331 73.1706 51.331 75.1201C51.331 79.9632 54.6734 84.2354 59.7642 86.7701C59.7894 86.788 59.8002 86.7952 59.8253 86.8024C60.7372 87.2476 61.7065 87.6496 62.7153 87.9656C64.6863 88.6226 66.8297 89.0247 69.0843 89.1503C69.2099 89.1575 69.332 89.1611 69.4541 89.1719C69.7018 89.1827 69.9603 89.1827 70.2152 89.1863C70.2188 89.1863 70.2259 89.1863 70.2295 89.1863C70.4844 89.1827 70.7393 89.1827 70.987 89.1719C71.1127 89.1647 71.2348 89.1575 71.3568 89.1503C73.6079 89.0247 75.7584 88.6226 77.7258 87.9656C78.7382 87.6496 79.7039 87.2476 80.6158 86.8024C80.641 86.7988 80.6553 86.7916 80.6769 86.7701C85.7677 84.2354 89.1137 79.9632 89.1137 75.1201C89.1101 73.167 89.5409 73.0055 88.5644 71.3145Z" fill="#FDD5B0"/>
<path d="M70.2139 67.6598C70.2893 67.6598 70.3611 67.667 70.4365 67.667C71.474 67.667 72.4649 67.4551 73.4163 67.0674C73.4773 67.3079 73.5168 67.5593 73.5168 67.825V69.1605C72.5331 69.5877 71.4991 69.8103 70.4365 69.8103C70.3611 69.8103 70.2893 69.8031 70.2139 69.8031V67.6598Z" fill="#FDD5B0"/>
<path d="M70.2139 64.6477C70.2534 64.6477 70.2893 64.6333 70.3252 64.6333C71.8258 64.6333 73.0752 65.6744 73.4163 67.071C72.4649 67.4587 71.4704 67.6705 70.4365 67.6705C70.3611 67.6705 70.2893 67.6634 70.2139 67.6634V64.6477Z" fill="#FDD5B0"/>
<path opacity="0.2" d="M96.8131 78.5309C93.844 82.139 88.1788 85.6537 77.7314 87.9658L83.3967 81.5395L83.7414 81.1517L88.1788 76.1255L89.1122 75.0628L91.3991 72.4744C91.5499 72.5928 91.7115 72.7328 91.8838 72.8944C91.97 72.9662 92.0669 73.056 92.1531 73.1385C92.25 73.2175 92.3469 73.3108 92.4439 73.397C92.5408 73.4939 92.6377 73.5909 92.7454 73.6986H92.7562V73.7094C92.8532 73.7919 92.9501 73.8889 93.0542 74.0074C93.1655 74.1187 93.2804 74.2227 93.3881 74.3412C93.6107 74.5782 93.8476 74.8259 94.0846 75.0952C94.2461 75.2675 94.3969 75.4362 94.5585 75.6193C94.5908 75.6516 94.6231 75.6947 94.6554 75.727C94.8385 75.9424 95.0288 76.1686 95.2226 76.4128C95.2226 76.4128 95.2334 76.4199 95.2334 76.4378H95.2442V76.4486C95.4919 76.7574 95.7396 77.0841 96.0053 77.4144C96.2781 77.7662 96.5402 78.1396 96.8131 78.5309Z" fill="#616161"/>
<path d="M98.1564 67.7352C98.1564 68.3815 98.1205 69.0313 98.0128 69.7134C97.7113 71.8603 96.8891 74.1365 95.2412 76.4342V76.4449C93.6652 78.6349 91.3531 80.8249 88.061 82.9467C87.8635 83.0688 87.6517 83.2016 87.4363 83.3308C85.5227 84.512 83.2789 85.668 80.6832 86.7702C80.6258 86.8061 80.5755 86.8277 80.5216 86.8492C80.475 86.8743 80.4355 86.8923 80.3924 86.9031C80.2308 86.9677 80.0801 87.0323 79.9185 87.0969C79.4554 87.2908 78.9707 87.4847 78.4789 87.6785C78.2311 87.7755 77.9834 87.8688 77.7285 87.9621L83.8138 76.208L85.8961 72.2014L86.3664 71.2823L93.9739 56.6094C93.9739 56.6094 98.1564 61.3986 98.1564 67.7352Z" fill="#F9F9F9"/>
<path d="M62.7138 87.9621C58.8184 86.5045 55.6124 84.9356 52.9988 83.3308C52.787 83.1944 52.5788 83.0652 52.3813 82.936C45.6175 78.5991 43.0038 73.9031 42.4222 69.7062C42.3217 69.0349 42.2822 68.3779 42.2822 67.7317C42.2858 61.3987 46.4612 56.6094 46.4612 56.6094L62.7138 87.9621Z" fill="#F9F9F9"/>
<path opacity="0.2" d="M60.4816 99.867L57.2146 100.84C57.0997 100.459 56.9633 100.043 56.8017 99.6157C50.9677 97.117 53.9117 93.0781 50.6769 87.9693C50.3215 88.375 43.967 98.0899 42.872 105.116L42.0893 105.356C40.4199 98.0289 51.4991 85.7434 51.4991 85.7434C51.4991 85.7434 56.4679 98.0037 60.4816 99.867Z" fill="#616161"/>
<path opacity="0.2" d="M92.5468 90.2886L91.7068 90.5435L91.4483 90.6189C90.741 89.4306 90.1809 88.5653 89.926 88.1776C89.8399 88.0591 89.786 87.9837 89.7645 87.9586C88.9603 89.2367 88.5295 90.443 88.2638 91.5739L85.8584 92.2919C87.6535 88.9243 88.9423 85.7363 88.9423 85.7363C88.9423 85.7363 90.601 87.6032 92.5468 90.2886Z" fill="#616161"/>
<path d="M49.0449 75.2601L51.0087 77.8666L50.1256 74.7288L49.0449 75.2601Z" fill="#7D8450"/>
<path d="M55.833 81.5826L57.7932 84.1963L56.91 81.0549L55.833 81.5826Z" fill="#7D8450"/>
<path d="M45.4834 59.6969L47.44 62.3033L46.5569 59.1655L45.4834 59.6969Z" fill="#7D8450"/>
<path d="M48.0703 65.1718L50.0305 67.7747L49.1474 64.6333L48.0703 65.1718Z" fill="#7D8450"/>
<path d="M50.6582 70.6433L52.6184 73.2462L51.7281 70.1084L50.6582 70.6433Z" fill="#7D8450"/>
<path d="M53.2451 76.1148L55.2053 78.7177L54.3186 75.5798L53.2451 76.1148Z" fill="#7D8450"/>
<path d="M53.003 83.3308C52.7912 83.1943 52.583 83.0652 52.3855 82.9359L51.2402 81.4173L52.3137 80.8823L53.003 83.3308Z" fill="#7D8450"/>
<path d="M43.877 64.3138L45.8336 66.9203L44.9504 63.7861L43.877 64.3138Z" fill="#7D8450"/>
<path d="M46.4648 69.7853L48.4215 72.3918L47.5347 69.2576L46.4648 69.7853Z" fill="#7D8450"/>
<path d="M43.2662 70.8231L42.4262 69.7065C42.3256 69.0352 42.2861 68.3782 42.2861 67.732L42.3759 67.6853L43.2662 70.8231Z" fill="#7D8450"/>
<path d="M45.0273 74.7112L46.9876 77.3104L46.0936 74.1726L45.0273 74.7112Z" fill="#7D8450"/>
<path d="M91.388 75.2601L89.4277 77.8666L90.3181 74.7288L91.388 75.2601Z" fill="#7D8450"/>
<path d="M84.607 81.5826L82.6504 84.1963L83.5372 81.0549L84.607 81.5826Z" fill="#7D8450"/>
<path d="M94.9563 59.6969L92.9961 62.3033L93.8829 59.1655L94.9563 59.6969Z" fill="#7D8450"/>
<path d="M92.3697 65.1718L90.4131 67.7747L91.2998 64.6333L92.3697 65.1718Z" fill="#7D8450"/>
<path d="M89.7861 70.6433L87.8223 73.2462L88.7126 70.1084L89.7861 70.6433Z" fill="#7D8450"/>
<path d="M87.1946 76.1148L85.2344 78.7177L86.1247 75.5798L87.1946 76.1148Z" fill="#7D8450"/>
<path d="M87.4395 83.3308C87.6513 83.1943 87.8595 83.0652 88.0605 82.9359L89.2022 81.4173L88.1288 80.8823L87.4395 83.3308Z" fill="#7D8450"/>
<path d="M96.5657 64.3138L94.6055 66.9203L95.4922 63.7861L96.5657 64.3138Z" fill="#7D8450"/>
<path d="M93.9781 69.7853L92.0215 72.3918L92.9083 69.2576L93.9781 69.7853Z" fill="#7D8450"/>
<path d="M98.1559 67.7353C98.1559 68.3815 98.12 69.0313 98.0123 69.7135L97.1758 70.83L98.0661 67.6958L98.1559 67.7353Z" fill="#7D8450"/>
<path d="M95.4163 74.7112L93.4561 77.3104L94.3428 74.1726L95.4163 74.7112Z" fill="#7D8450"/>
<path d="M97.262 44.1372C97.262 44.1372 94.1565 51.0124 89.3565 56.6094C86.1146 60.3862 82.0972 63.5743 77.7531 63.6533H77.6921C77.5952 63.6425 77.4982 63.621 77.4013 63.603C78.8373 61.7433 79.9647 59.3379 80.636 56.6094C81.0632 54.8179 81.3002 52.8936 81.3002 50.8831C81.3002 43.71 78.3024 37.5996 74.084 35.1942C73.865 35.2157 73.6604 35.2588 73.4593 35.3055C73.3265 35.3342 73.2008 35.3701 73.0716 35.4204C73.0069 35.4455 72.9351 35.4562 72.8705 35.4922C72.7197 35.546 72.5689 35.6071 72.4289 35.6825C72.3823 35.704 72.3535 35.7148 72.3105 35.7363C72.2028 35.8009 72.0986 35.8691 71.9909 35.9445C71.9479 35.9661 71.9048 35.984 71.8725 36.0056C71.8509 36.0307 71.8186 36.0379 71.7971 36.0594C71.4416 36.3071 71.1185 36.6087 70.8529 36.939C70.6051 37.219 70.4005 37.5421 70.2318 37.876V37.9047L70.221 37.894C70.221 37.894 70.221 37.9047 70.2138 37.9047V37.876C70.0415 37.5421 69.8404 37.219 69.5927 36.939C69.2804 36.5441 68.8926 36.2102 68.4546 35.9445C68.1782 35.7578 67.8838 35.6107 67.5751 35.4958C67.1873 35.3522 66.778 35.248 66.358 35.2014C62.1396 37.6068 59.1418 43.7208 59.1418 50.8903C59.1418 52.9008 59.3788 54.8251 59.806 56.6166C60.4737 59.3451 61.6011 61.7505 63.0371 63.6102C62.9402 63.6281 62.8576 63.6497 62.7499 63.6605H62.6853C58.3448 63.5851 54.331 60.3934 51.0855 56.6166C46.2855 51.0195 43.1836 44.1444 43.1836 44.1444L62.4914 24.6499L62.9653 24.1689L63.0299 24.1042L63.5074 23.6159L70.2138 16.5326V16.5146L70.221 16.5254L70.2318 16.5146V16.5326L70.3718 16.6834L76.931 23.6195L77.4803 24.1724L77.9542 24.6535L97.262 44.1372Z" fill="#D66753"/>
<path opacity="0.2" d="M70.2278 34.0599L75.412 27.1668L70.2278 20.1086V20.0835L70.2171 20.0978L70.2135 20.0835V20.1086L65.0293 27.1668L70.2135 34.0599V34.0815L70.2171 34.0743L70.2278 34.0815V34.0599Z" fill="#616161"/>
<path d="M77.9537 24.6463L70.2313 34.9716V34.9895L70.2169 34.9824L70.2097 34.9895V34.9716L62.4873 24.6463L62.9612 24.1653L63.0258 24.1006L65.1691 26.9799L65.8692 27.9026L70.2097 22.1153V22.0938L70.2169 22.1009L70.2313 22.0938V22.1153L74.5717 27.9026L75.2646 26.9799L77.4151 24.1006L77.4798 24.1653L77.9537 24.6463Z" fill="#E3B605"/>
<path opacity="0.2" d="M70.2258 31.5037L72.7892 28.0859L70.2258 24.6645V24.6465L70.2151 24.6537L70.2115 24.6465V24.6645L67.6445 28.0859L70.2115 31.5037V31.5252L70.2151 31.518L70.2258 31.5252V31.5037Z" fill="#616161"/>
<path d="M74.0884 35.1907C72.3866 35.3774 70.9506 36.4185 70.2182 37.8905C69.4894 36.4185 68.0533 35.3774 66.3516 35.1907C62.1368 37.5997 59.1426 43.7137 59.1426 50.8832C59.1426 55.974 60.6504 60.5228 63.0379 63.6031C63.0487 63.6211 63.0594 63.639 63.0702 63.657C63.0702 63.657 63.0738 63.6606 63.081 63.6677C64.3088 65.2331 65.7592 66.4106 67.3532 67.0712C68.2651 67.441 69.2237 67.6492 70.211 67.6672H70.2146H70.2254C71.2162 67.6492 72.1712 67.441 73.0831 67.0712C74.6771 66.4106 76.1312 65.2331 77.3554 63.6677C77.359 63.6606 77.3626 63.657 77.3626 63.657C77.3733 63.6426 77.3841 63.6246 77.3985 63.6031C79.7823 60.5228 81.2938 55.974 81.2938 50.8832C81.301 43.7137 78.3068 37.5997 74.0884 35.1907Z" fill="#FDD5B0"/>
<path d="M61.9244 49.9104C61.8741 50.0325 61.8418 50.1617 61.8418 50.2981C61.8418 51.1562 62.9009 51.8527 64.2041 51.8527C65.5073 51.8527 66.5664 51.1562 66.5664 50.2981C66.5664 50.1617 66.5341 50.0325 66.4874 49.9104H61.9244Z" fill="#2C2C2C"/>
<path d="M78.5164 49.9104C78.5631 50.0325 78.5954 50.1617 78.5954 50.2981C78.5954 51.1562 77.5363 51.8527 76.2331 51.8527C74.9263 51.8527 73.8672 51.1562 73.8672 50.2981C73.8672 50.1617 73.8995 50.0325 73.9498 49.9104H78.5164Z" fill="#2C2C2C"/>
<path d="M73.3046 61.5425H70.2278H70.2135H67.1367C67.7542 62.361 68.8995 62.9175 70.2135 62.9318L70.2171 62.9354C70.2207 62.9354 70.2242 62.9354 70.2278 62.9354C71.5418 62.9175 72.6835 62.361 73.3046 61.5425Z" fill="#D66753"/>
<path d="M70.2172 61.3736C68.8207 59.7329 66.8281 61.808 66.8281 61.808H70.2136H70.228H73.6171C73.6171 61.808 71.621 59.7329 70.2172 61.3736Z" fill="#D66753"/>
<path opacity="0.2" d="M70.229 52.5309V52.4807L70.2182 52.5058L70.2146 52.4807V52.5309L68.4375 58.1998H70.2146H70.229H72.0061L70.229 52.5309Z" fill="#616161"/>
<path d="M73.6159 46.5283L78.3046 46.776L78.3657 46.7868L78.4016 46.8191L80.2613 48.8547L78.2005 47.0238L78.301 47.0596L73.6123 47.293L73.6159 46.5283Z" fill="#D66753"/>
<path d="M67.229 47.293L62.5403 47.0596L62.6372 47.0238L60.5801 48.8547L62.4398 46.8191L62.4757 46.7868L62.5403 46.776L67.229 46.5283V47.293Z" fill="#D66753"/>
<path opacity="0.2" d="M62.7153 87.9623C61.6957 87.5854 60.7372 87.1904 59.8253 86.7991C59.8001 86.7955 59.7894 86.7883 59.7642 86.7668C54.677 84.2321 51.331 79.9599 51.331 75.1168C51.331 73.1673 50.9002 73.0058 51.8767 71.3112L57.4163 71.2358L62.7153 87.9623Z" fill="#616161"/>
<path opacity="0.2" d="M73.4168 67.0679C72.4654 67.4556 71.4709 67.6675 70.4369 67.6675C70.3651 67.6675 70.3005 67.6603 70.2287 67.6603C70.2287 67.6603 70.2251 67.6603 70.2179 67.6603C70.1461 67.6603 70.0707 67.6675 70.0061 67.6675C68.9722 67.6675 67.9741 67.4556 67.0263 67.0679C66.9689 67.3084 66.9258 67.5598 66.9258 67.8254V69.161C67.9095 69.5882 68.9434 69.8108 70.0061 69.8108C70.0779 69.8108 70.1497 69.8036 70.2179 69.8036C70.2933 69.8036 70.3651 69.8108 70.4369 69.8108C71.4996 69.8108 72.5336 69.5882 73.5173 69.161V67.8254C73.5173 67.5634 73.4742 67.3084 73.4168 67.0679Z" fill="#616161"/>
<path opacity="0.2" d="M71.8255 82.0637H70.2314H70.2171H68.623L69.4596 89.1686C69.7073 89.1794 69.9658 89.1794 70.2207 89.183C70.2243 89.183 70.2314 89.183 70.235 89.183C70.4899 89.1794 70.7448 89.1794 70.9925 89.1686L71.8255 82.0637Z" fill="#616161"/>
<path opacity="0.2" d="M77.7246 87.9623C78.7442 87.5854 79.7028 87.1904 80.6147 86.7991C80.6398 86.7955 80.6542 86.7883 80.6757 86.7668C85.7665 84.2321 89.1126 79.9599 89.1126 75.1168C89.1126 73.1673 89.5434 73.0058 88.5669 71.3112L83.0237 71.2358L77.7246 87.9623Z" fill="#616161"/>
<path opacity="0.2" d="M101.556 87.6033L92.5485 90.2923L91.7084 90.5472C90.8144 89.0645 90.161 88.0879 90.0533 87.9659C90.0138 88.0449 89.9671 88.1203 89.9241 88.1849C89.2024 89.3876 88.8183 90.5113 88.549 91.5812L86.1436 92.2992L70.2285 97.0454V16.82L70.3685 16.6799L76.9277 23.6161L77.477 24.169L77.9509 24.6501L97.2587 44.1446C97.2587 44.1446 94.1533 51.0197 89.3532 56.6167H93.9737C93.9737 56.6167 98.1527 61.406 98.1527 67.7426C98.1527 68.3888 98.1168 69.0387 98.0091 69.7208C97.7075 71.8677 96.8854 74.1438 95.2375 76.4415V76.4523C95.4852 76.7611 95.7329 77.0878 95.9986 77.4181C96.2714 77.7771 96.5335 78.1469 96.8064 78.5382C98.4435 80.8825 100.152 83.8875 101.556 87.6033Z" fill="#616161"/>
<path opacity="0.2" d="M71.7959 36.0522C71.821 36.0343 71.8497 36.0235 71.8749 36.002C71.8497 36.0235 71.821 36.0307 71.7959 36.0522Z" fill="#616161"/>
<path opacity="0.2" d="M72.876 35.4814C72.9406 35.4598 73.0124 35.4419 73.077 35.4167C73.0124 35.4383 72.9406 35.4598 72.876 35.4814Z" fill="#616161"/>
<path d="M90.7125 146.105H43.2041L43.4159 143.086L43.5559 141.251L44.116 133.389L44.256 131.529L44.4248 129.019V129.016L44.6007 126.682L46.3922 126.654L47.2394 126.632L48.119 126.607L48.9914 126.596L50.0002 126.578L51.2137 126.542L53.3606 126.499L55.7481 126.456L66.9457 126.226H66.9673L78.1721 126.456L80.5524 126.499L82.6921 126.542L83.9056 126.578L84.9144 126.596L85.7976 126.607L86.6772 126.632L87.5173 126.654L89.3052 126.682L89.4775 129.019L89.6606 131.529L89.7898 133.389L90.3607 141.251L90.4971 143.118L90.7125 146.105Z" fill="#C9C9C9"/>
<path opacity="0.2" d="M66.9655 131.992V146.105H45.3672C48.9107 141.107 53.8974 135.995 59.4154 135.995H59.4836C60.6828 134.462 62.1009 133.288 63.659 132.609C64.6391 132.196 65.6802 131.967 66.7429 131.967C66.8075 131.967 66.8829 131.992 66.944 131.992C66.9547 131.992 66.9547 131.992 66.9655 131.992Z" fill="#616161"/>
<path d="M101.547 95.4763C101.655 109.338 97.4434 118.597 93.5338 124.183C93.3542 124.449 93.1712 124.697 92.9881 124.948C92.7798 125.235 92.568 125.526 92.3526 125.792C92.2126 125.964 92.0833 126.122 91.9649 126.273C91.7602 126.524 91.5699 126.757 91.3725 126.973V126.983C91.1822 127.21 90.9991 127.418 90.8124 127.615C90.3313 128.154 89.879 128.613 89.4733 129.019C88.9491 129.532 88.4932 129.938 88.1306 130.25C87.5095 130.778 87.1289 131.033 87.1289 131.033L85.6713 130.667L85.4128 130.602H85.4021L84.8348 130.462L84.6769 130.416L82.6377 130.502H82.6269L79.4891 130.631L66.9559 131.137H66.9451L54.4227 130.631L51.2777 130.502L49.2277 130.416L49.0734 130.462H49.0626L48.4954 130.602L48.2261 130.667L46.7793 131.033C46.7793 131.033 46.4059 130.778 45.7704 130.25C45.6161 130.125 45.4689 129.985 45.2965 129.827C45.2427 129.791 45.1996 129.744 45.1529 129.708C44.9375 129.507 44.6934 129.281 44.4349 129.019C44.4241 129.019 44.4241 129.019 44.4241 129.019L44.1154 128.714C43.8964 128.488 43.6774 128.262 43.4368 128.007C43.322 127.888 43.2107 127.759 43.0922 127.63C42.9629 127.49 42.8481 127.346 42.7188 127.199C42.6542 127.134 42.586 127.059 42.5249 126.983C42.3418 126.757 42.1372 126.524 41.9362 126.273C41.6848 125.964 41.4335 125.634 41.175 125.285C40.9022 124.944 40.6401 124.567 40.3673 124.18C38.723 121.832 37.0248 118.83 35.6211 115.107L44.6216 112.425L45.7166 112.091C46.6285 113.614 47.3034 114.626 47.4147 114.741C48.2189 113.474 48.639 112.271 48.919 111.144L51.3244 110.426L66.4569 105.906L76.6924 102.843L79.9558 101.874C80.0743 102.265 80.2143 102.671 80.3759 103.102C86.2063 105.604 83.2623 109.643 86.4971 114.741C86.8525 114.346 93.2106 104.613 94.3056 97.6017L95.0883 97.3539L101.418 95.4763H101.547Z" fill="#D66753"/>
<path opacity="0.2" d="M66.9638 120.991H64.8994L65.8185 113.567C66.1955 113.542 66.5796 113.535 66.9638 113.527V120.991Z" fill="#616161"/>
<path opacity="0.2" d="M66.9434 146.104H88.5417C84.9946 141.107 80.0079 135.991 74.4863 135.991H74.4252C72.4722 133.492 69.9375 131.973 67.1659 131.973C67.0941 131.973 67.0223 131.988 66.9434 131.991V146.104Z" fill="#616161"/>
<path opacity="0.2" d="M66.9434 120.991H69.0077L68.0886 113.567C67.7081 113.542 67.3275 113.535 66.9434 113.527V120.991Z" fill="#616161"/>
<path opacity="0.2" d="M74.457 114.748C84.9044 117.053 90.5768 120.575 93.5387 124.187C91.3738 127.288 89.3059 129.252 88.1355 130.247L74.457 114.748Z" fill="#616161"/>
<path d="M66.9434 135.058C67.0223 135.054 67.0942 135.047 67.1695 135.047C68.2035 135.047 69.198 135.259 70.1494 135.65C70.2068 135.406 70.2463 135.147 70.2463 134.889V133.553C69.2662 133.126 68.2286 132.9 67.1659 132.9C67.0941 132.9 67.0223 132.911 66.9434 132.911V135.058Z" fill="#FDD5B0"/>
<path d="M66.9434 138.063C66.9793 138.063 67.0223 138.073 67.0582 138.073C68.5553 138.073 69.8047 137.039 70.1494 135.65C69.198 135.255 68.2035 135.047 67.1695 135.047C67.0942 135.047 67.0223 135.054 66.9434 135.058V138.063Z" fill="#FDD5B0"/>
<path d="M48.6052 131.399L54.152 131.474L63.6587 131.593V133.55C64.6388 133.122 65.6763 132.896 66.739 132.896C66.8108 132.896 66.8754 132.903 66.9436 132.907C66.9436 132.907 66.9472 132.907 66.9544 132.907H66.9616C67.0298 132.903 67.098 132.896 67.1662 132.896C68.2325 132.896 69.2665 133.122 70.2466 133.55V131.593L79.7533 131.474L85.2965 131.399C86.2694 129.708 85.8386 129.543 85.8386 127.594C85.8386 122.75 82.4962 118.478 77.4053 115.944C77.3838 115.929 77.3658 115.922 77.3443 115.911C76.4324 115.466 75.4667 115.071 74.4542 114.748C72.4832 114.098 70.3363 113.692 68.0853 113.567C67.9561 113.556 67.8376 113.549 67.7155 113.542C67.4642 113.535 67.2093 113.531 66.958 113.527H66.9508C66.9436 113.527 66.9401 113.527 66.9401 113.527C66.6887 113.531 66.4338 113.535 66.1825 113.542C66.0605 113.549 65.9348 113.556 65.8128 113.567C63.5581 113.689 61.4148 114.095 59.4438 114.748C58.435 115.071 57.4693 115.466 56.5502 115.911C56.5286 115.922 56.5143 115.926 56.4927 115.944C51.4019 118.478 48.0595 122.75 48.0595 127.594C48.0631 129.543 47.6358 129.708 48.6052 131.399Z" fill="#FDD5B0"/>
<path d="M66.9618 135.058C66.8864 135.054 66.811 135.047 66.7356 135.047C65.7017 135.047 64.7036 135.259 63.7558 135.65C63.6948 135.406 63.6553 135.147 63.6553 134.889V133.553C64.6354 133.126 65.6729 132.9 66.7356 132.9C66.8074 132.9 66.8828 132.911 66.9582 132.911L66.9618 135.058Z" fill="#FDD5B0"/>
<path d="M66.9628 138.063C66.9233 138.063 66.8874 138.073 66.848 138.073C65.3473 138.073 64.0979 137.039 63.7568 135.65C64.7046 135.255 65.7027 135.047 66.7367 135.047C66.8121 135.047 66.8874 135.054 66.9628 135.058V138.063Z" fill="#FDD5B0"/>
<path opacity="0.2" d="M59.4534 114.741L53.781 121.174L53.4363 121.562L48.9917 126.599L48.069 127.651L45.7713 130.254C45.617 130.128 45.4698 129.988 45.2974 129.83C45.2436 129.794 45.2005 129.748 45.1538 129.712C44.9312 129.5 44.6943 129.274 44.4358 129.023C44.425 129.023 44.425 129.023 44.425 129.023C44.3173 128.926 44.2204 128.822 44.1163 128.717C43.8973 128.491 43.6783 128.265 43.4377 128.01C43.3229 127.892 43.2116 127.762 43.0931 127.633C42.9638 127.493 42.849 127.35 42.7197 127.202C42.6551 127.131 42.6012 127.062 42.5366 126.987H42.5258C42.3427 126.761 42.1381 126.527 41.9371 126.276C41.6857 125.967 41.4344 125.637 41.1759 125.289C40.9031 124.948 40.641 124.571 40.3682 124.183C43.33 120.575 49.0025 117.046 59.4534 114.741Z" fill="#616161"/>
<path d="M59.4527 114.741L53.3638 126.499L51.2815 130.505L50.8112 131.432L43.2073 146.104C43.2073 146.104 39.0283 141.312 39.0176 134.971C39.0176 134.329 39.0607 133.675 39.154 133.011C39.4556 130.85 40.2921 128.574 41.9364 126.276C43.5124 124.09 45.8245 121.9 49.1203 119.782C49.3141 119.652 49.5152 119.519 49.7306 119.379C51.7411 118.148 54.089 116.942 56.8319 115.782C57.3776 115.559 57.9341 115.33 58.5085 115.107C58.8172 114.989 59.1296 114.863 59.4527 114.741Z" fill="#F9F9F9"/>
<path d="M74.4609 114.749C78.3527 116.213 81.5587 117.771 84.1759 119.387C84.3913 119.516 84.5995 119.645 84.797 119.775C91.5608 124.115 94.1744 128.811 94.756 133.012C94.8566 133.676 94.8925 134.336 94.8925 134.983C94.8853 141.312 90.7171 146.105 90.7171 146.105L74.4609 114.749Z" fill="#F9F9F9"/>
<path opacity="0.2" d="M76.6904 102.844L79.9575 101.871C80.0723 102.251 80.2124 102.668 80.3739 103.099C86.2043 105.597 83.2604 109.636 86.4987 114.745C86.8505 114.343 93.2051 104.617 94.3037 97.5912L95.0863 97.3579C96.7558 104.685 85.673 116.964 85.673 116.964C85.673 116.964 80.7114 104.707 76.6904 102.844Z" fill="#616161"/>
<path opacity="0.2" d="M51.3193 110.426C49.5278 113.786 48.239 116.967 48.239 116.967C48.239 116.967 46.5767 115.121 44.6201 112.425L45.7151 112.091C46.627 113.614 47.302 114.626 47.4133 114.741C48.2174 113.474 48.6375 112.271 48.9175 111.144L51.3193 110.426Z" fill="#616161"/>
<path d="M88.1233 127.454L86.1631 124.847L87.0499 127.985L88.1233 127.454Z" fill="#7D8450"/>
<path d="M81.343 121.128L79.3828 118.521L80.2732 121.659L81.343 121.128Z" fill="#7D8450"/>
<path d="M91.6923 143.013L89.7285 140.414L90.6189 143.548L91.6923 143.013Z" fill="#7D8450"/>
<path d="M89.1057 137.546L87.1455 134.936L88.0323 138.073L89.1057 137.546Z" fill="#7D8450"/>
<path d="M86.5178 132.07L84.5576 129.468L85.4444 132.602L86.5178 132.07Z" fill="#7D8450"/>
<path d="M83.9264 126.599L81.9697 123.997L82.8565 127.131L83.9264 126.599Z" fill="#7D8450"/>
<path d="M84.1719 119.386C84.3873 119.516 84.5955 119.645 84.793 119.774L85.9346 121.293L84.8612 121.831L84.1719 119.386Z" fill="#7D8450"/>
<path d="M93.2981 138.4L91.3379 135.79L92.2282 138.928L93.2981 138.4Z" fill="#7D8450"/>
<path d="M90.7141 132.925L88.7539 130.315L89.6407 133.457L90.7141 132.925Z" fill="#7D8450"/>
<path d="M93.9082 131.888L94.7519 133.011C94.8524 133.676 94.8883 134.336 94.8883 134.982L94.7985 135.025L93.9082 131.888Z" fill="#7D8450"/>
<path d="M92.148 128.007L90.1914 125.397L91.0782 128.542L92.148 128.007Z" fill="#7D8450"/>
<path d="M45.7842 127.454L47.7408 124.847L46.854 127.985L45.7842 127.454Z" fill="#7D8450"/>
<path d="M52.5684 121.128L54.5322 118.521L53.6382 121.659L52.5684 121.128Z" fill="#7D8450"/>
<path d="M42.2148 143.013L44.1751 140.414L43.2883 143.548L42.2148 143.013Z" fill="#7D8450"/>
<path d="M44.8066 137.546L46.7633 134.936L45.8765 138.073L44.8066 137.546Z" fill="#7D8450"/>
<path d="M47.3936 132.07L49.3502 129.468L48.467 132.602L47.3936 132.07Z" fill="#7D8450"/>
<path d="M49.9775 126.599L51.9414 123.997L51.051 127.131L49.9775 126.599Z" fill="#7D8450"/>
<path d="M49.7383 119.386C49.5193 119.516 49.3111 119.645 49.1172 119.774L47.9756 121.293L49.0454 121.831L49.7383 119.386Z" fill="#7D8450"/>
<path d="M40.6133 138.4L42.5735 135.79L41.6831 138.928L40.6133 138.4Z" fill="#7D8450"/>
<path d="M43.1973 132.925L45.1539 130.315L44.2707 133.457L43.1973 132.925Z" fill="#7D8450"/>
<path d="M39.998 131.888L39.1077 135.029L39.0107 134.972C39.0107 134.329 39.0538 133.676 39.1472 133.011L39.998 131.888Z" fill="#7D8450"/>
<path d="M41.7598 128.007L43.7164 125.397L42.8296 128.542L41.7598 128.007Z" fill="#7D8450"/>
<path d="M59.8023 139.057C59.6766 139.057 59.4863 139.057 59.4863 139.057C59.6443 139.057 59.752 139.057 59.8166 139.046C59.8166 139.057 59.8166 139.057 59.8166 139.057H59.8023Z" fill="#D66753"/>
<path d="M74.1025 139.043C74.1564 139.053 74.2713 139.054 74.4328 139.054C74.4328 139.054 74.221 139.054 74.1025 139.054C74.1025 139.054 74.1025 139.057 74.1025 139.043Z" fill="#D66753"/>
<path d="M94.0016 158.58L74.6938 178.057L74.2199 178.545L74.1553 178.62L73.6706 179.105L66.9714 186.192V186.199H66.9499V186.192L65.3092 184.451L60.2399 179.105L59.7516 178.62L59.7013 178.545L59.2167 178.057L39.9053 158.58C39.9053 158.58 43.0179 151.694 47.8251 146.104C51.067 142.32 55.0844 139.129 59.4213 139.057H59.4895C59.5829 139.075 59.6834 139.097 59.7767 139.111C58.3371 140.967 57.2098 143.376 56.5564 146.104C56.1184 147.892 55.8814 149.817 55.8814 151.842C55.8814 159 58.8756 165.125 63.1012 167.53C64.1495 167.412 65.1081 166.96 65.8584 166.281C66.0092 166.159 66.1493 166.005 66.2785 165.858C66.5442 165.556 66.7739 165.222 66.9534 164.852V164.813C66.9534 164.82 66.9534 164.82 66.9642 164.834C66.9642 164.824 66.9642 164.824 66.975 164.813V164.841C67.1545 165.211 67.3807 165.552 67.6535 165.854C67.7828 166.005 67.9228 166.155 68.07 166.278C68.8096 166.956 69.7681 167.408 70.8308 167.527C75.0385 165.122 78.0362 158.997 78.0362 151.838C78.0362 149.813 77.8029 147.892 77.3613 146.101C76.7043 143.372 75.5877 140.963 74.1409 139.107C74.2486 139.093 74.3312 139.075 74.4389 139.053H74.4928C78.844 139.125 82.8506 142.317 86.0925 146.101C90.8854 151.694 94.0016 158.58 94.0016 158.58Z" fill="#D66753"/>
<path opacity="0.2" d="M66.9459 168.654L61.7617 175.547L66.9459 182.606V182.631L66.9567 182.62L66.9638 182.631V182.606L72.1444 175.547L66.9638 168.654V168.633L66.9567 168.644L66.9459 168.633V168.654Z" fill="#616161"/>
<path d="M74.6929 178.057L74.219 178.545L74.1544 178.62L72.0039 175.745L71.3074 174.818L66.9669 180.609V180.631L66.9562 180.62L66.9454 180.631V180.609L62.6085 174.818L61.9084 175.752L59.7508 178.62L59.7005 178.545L59.2158 178.057L66.9454 167.749V167.735L66.9562 167.739L66.9669 167.735V167.749L74.6929 178.057Z" fill="#E3B605"/>
<path opacity="0.2" d="M66.9475 171.214L64.3877 174.628L66.9475 178.05V178.068L66.9582 178.057L66.9654 178.068V178.05L69.5288 174.628L66.9654 171.214V171.189L66.9582 171.2L66.9475 171.189V171.214Z" fill="#616161"/>
<path d="M63.0873 167.527C64.789 167.34 66.2251 166.295 66.9575 164.831C67.6899 166.295 69.1259 167.34 70.8241 167.527C75.0389 165.118 78.0367 159 78.0367 151.834C78.0367 146.744 76.5216 142.188 74.1378 139.111C74.127 139.093 74.1126 139.079 74.0983 139.057L74.0911 139.053C72.8633 137.481 71.4093 136.307 69.8152 135.65C68.9069 135.277 67.9519 135.065 66.9611 135.047C66.9575 135.047 66.9539 135.047 66.9539 135.047C66.9467 135.047 66.9467 135.047 66.9431 135.047C65.9522 135.065 64.9972 135.277 64.0889 135.65C62.4949 136.311 61.0409 137.485 59.8131 139.053L59.8059 139.057C59.7915 139.075 59.7808 139.093 59.77 139.111C57.3825 142.188 55.8711 146.744 55.8711 151.834C55.8747 159 58.8725 165.118 63.0873 167.527Z" fill="#FDD5B0"/>
<path d="M75.2524 152.807C75.3027 152.678 75.335 152.549 75.335 152.419C75.335 151.558 74.2759 150.858 72.9727 150.858C71.6659 150.858 70.6104 151.554 70.6104 152.419C70.6104 152.552 70.6427 152.681 70.6893 152.807H75.2524Z" fill="#2C2C2C"/>
<path d="M58.66 152.807C58.6098 152.678 58.5811 152.549 58.5811 152.419C58.5811 151.558 59.6366 150.858 60.9434 150.858C62.2502 150.858 63.3093 151.554 63.3093 152.419C63.3093 152.552 63.277 152.681 63.2267 152.807H58.66Z" fill="#2C2C2C"/>
<path d="M63.8721 141.172H66.9452H66.9632H70.0399C69.4224 140.353 68.2808 139.8 66.9632 139.782V139.779H66.956C66.9488 139.779 66.9452 139.779 66.9452 139.779V139.782C65.6312 139.8 64.4896 140.353 63.8721 141.172Z" fill="#D66753"/>
<path d="M66.9562 141.344C68.3599 142.981 70.3489 140.906 70.3489 140.906H66.9669H66.949H63.5635C63.5635 140.906 65.5524 142.981 66.9562 141.344Z" fill="#D66753"/>
<path opacity="0.2" d="M66.9464 150.176V150.233L66.9572 150.205L66.9643 150.233V150.176L68.7415 144.51H66.9643H66.9464H65.1729L66.9464 150.176Z" fill="#616161"/>
<path d="M63.562 156.185L58.8769 155.934L58.8087 155.931L58.7728 155.891L56.9131 153.866L58.9702 155.69L58.8769 155.647L63.562 155.417V156.185Z" fill="#D66753"/>
<path d="M69.9443 155.417L74.6331 155.647L74.5361 155.69L76.5933 153.866L74.7372 155.891L74.6977 155.931L74.6367 155.934L69.9443 156.185V155.417Z" fill="#D66753"/>
<path opacity="0.2" d="M74.457 114.748C75.4766 115.132 76.4316 115.52 77.3471 115.911C77.3686 115.922 77.3866 115.926 77.4081 115.944C82.499 118.478 85.8414 122.75 85.8414 127.594C85.8414 129.543 86.2722 129.708 85.2993 131.399L79.7561 131.475L74.457 114.748Z" fill="#616161"/>
<path opacity="0.2" d="M63.7551 135.65C64.7029 135.255 65.701 135.047 66.735 135.047C66.8068 135.047 66.875 135.05 66.9432 135.058C66.9432 135.058 66.9468 135.058 66.954 135.058H66.9611C67.0294 135.05 67.0976 135.047 67.1694 135.047C68.2033 135.047 69.1978 135.259 70.1492 135.65C70.2066 135.406 70.2461 135.147 70.2461 134.889V133.553C69.266 133.126 68.2285 132.9 67.1658 132.9C67.094 132.9 67.0258 132.911 66.954 132.911C66.8822 132.911 66.8104 132.9 66.7385 132.9C65.6723 132.9 64.6383 133.126 63.6582 133.553V134.889C63.6582 135.147 63.6941 135.402 63.7551 135.65Z" fill="#616161"/>
<path opacity="0.2" d="M65.3516 120.65H66.942H66.9599H68.5504L67.7139 113.542C67.4626 113.535 67.2077 113.531 66.9564 113.527H66.9492C66.942 113.527 66.9384 113.527 66.9384 113.527C66.6871 113.531 66.4322 113.535 66.1809 113.542L65.3516 120.65Z" fill="#616161"/>
<path opacity="0.2" d="M59.4469 114.748C58.4273 115.132 57.4723 115.52 56.5532 115.911C56.5317 115.922 56.5173 115.926 56.4958 115.944C51.4049 118.478 48.0625 122.75 48.0625 127.594C48.0625 129.543 47.6353 129.708 48.6046 131.399L54.1514 131.475L59.4469 114.748Z" fill="#616161"/>
<path opacity="0.2" d="M66.9445 105.852V185.858L65.3038 184.451L60.2345 179.105L59.7463 178.621L59.696 178.545L59.2113 178.057L39.8999 158.581C39.8999 158.581 43.0126 151.695 47.8198 146.105H43.1993C43.1993 146.105 39.0203 141.312 39.0096 134.972C39.0096 134.329 39.0526 133.676 39.146 133.012C39.4476 130.85 40.2841 128.574 41.9284 126.276C41.677 125.968 41.4257 125.637 41.1672 125.289C40.8944 124.948 40.6323 124.571 40.3595 124.183C38.7152 121.835 37.017 118.834 35.6133 115.111L44.6138 112.429L45.7088 112.095C46.6207 113.618 47.2956 114.63 47.4069 114.745C48.2111 113.477 48.6312 112.275 48.9112 111.147L51.3166 110.429L66.4491 105.909L66.9445 105.852Z" fill="#616161"/>
<path d="M14.866 21.4026C14.866 19.0016 15.4696 17.1287 16.677 15.7842C17.8981 14.4258 19.62 13.7467 21.8427 13.7467C24.0654 13.7467 25.7393 14.3915 26.8644 15.6812C28.0031 16.9572 28.5725 18.7752 28.5725 21.1351C28.5725 25.6216 26.6243 28.0432 22.7277 28.4V28.544C23.5097 28.6264 24.086 28.839 24.4564 29.182C24.8406 29.525 25.1287 29.9778 25.3208 30.5403C25.5129 31.1166 25.6844 31.5076 25.8353 31.7134C25.9863 31.9192 26.2126 32.0221 26.5145 32.0221C27.0359 32.0221 27.3446 31.4733 27.4406 30.3757L27.8934 30.4169C27.8659 31.3224 27.5847 32.0153 27.0496 32.4955C26.5145 32.9757 25.7667 33.2158 24.8063 33.2158C23.8596 33.2158 23.1256 32.9757 22.6042 32.4955C22.0828 32.029 21.6849 31.3361 21.4105 30.4169C21.2322 29.8543 21.0813 29.4907 20.9578 29.3261C20.8343 29.1615 20.6765 29.0791 20.4844 29.0791C20.1002 29.0791 19.5926 29.3604 18.9615 29.9229L18.6733 29.5936C19.2221 29.0448 19.8464 28.7087 20.5462 28.5852V28.4617C18.6802 28.2696 17.267 27.563 16.3066 26.3419C15.3462 25.1208 14.866 23.4744 14.866 21.4026ZM24.333 22.02V20.4971C24.333 17.9863 24.2095 16.4016 23.9625 15.743C23.6881 14.9884 23.2971 14.5219 22.7894 14.3435C22.5013 14.2338 22.1514 14.1789 21.7398 14.1789C21.3282 14.1789 20.9715 14.2338 20.6696 14.3435C20.3815 14.4533 20.1414 14.6454 19.9493 14.9198C19.7572 15.1942 19.5995 15.4823 19.476 15.7842C19.3662 16.086 19.277 16.5113 19.2084 17.0601C19.1261 17.8559 19.0849 19.029 19.0849 20.5794V22.0612C19.0849 23.7351 19.1467 24.9287 19.2702 25.6422C19.4074 26.3419 19.572 26.8427 19.7641 27.1446C20.1894 27.8169 20.848 28.153 21.7398 28.153C22.8237 28.153 23.5235 27.7002 23.839 26.7947C24.1683 25.8754 24.333 24.2839 24.333 22.02Z" fill="#D66753"/>
<path d="M130.34 180.01C130.34 182.411 129.736 184.284 128.529 185.629C127.308 186.987 125.586 187.666 123.363 187.666C121.141 187.666 119.467 187.021 118.342 185.732C117.203 184.456 116.634 182.638 116.634 180.278C116.634 175.791 118.582 173.37 122.478 173.013L122.478 172.869C121.696 172.786 121.12 172.574 120.75 172.231C120.365 171.888 120.077 171.435 119.885 170.872C119.693 170.296 119.522 169.905 119.371 169.699C119.22 169.494 118.993 169.391 118.692 169.391C118.17 169.391 117.861 169.94 117.765 171.037L117.313 170.996C117.34 170.09 117.621 169.398 118.156 168.917C118.692 168.437 119.439 168.197 120.4 168.197C121.346 168.197 122.08 168.437 122.602 168.917C123.123 169.384 123.521 170.077 123.796 170.996C123.974 171.559 124.125 171.922 124.248 172.087C124.372 172.251 124.53 172.334 124.722 172.334C125.106 172.334 125.613 172.052 126.245 171.49L126.533 171.819C125.984 172.368 125.36 172.704 124.66 172.828L124.66 172.951C126.526 173.143 127.939 173.85 128.899 175.071C129.86 176.292 130.34 177.938 130.34 180.01ZM120.873 179.393L120.873 180.916C120.873 183.427 120.997 185.011 121.244 185.67C121.518 186.424 121.909 186.891 122.417 187.069C122.705 187.179 123.055 187.234 123.466 187.234C123.878 187.234 124.235 187.179 124.536 187.069C124.825 186.96 125.065 186.767 125.257 186.493C125.449 186.219 125.607 185.931 125.73 185.629C125.84 185.327 125.929 184.902 125.998 184.353C126.08 183.557 126.121 182.384 126.121 180.833L126.121 179.352C126.121 177.678 126.059 176.484 125.936 175.771C125.799 175.071 125.634 174.57 125.442 174.268C125.017 173.596 124.358 173.26 123.466 173.26C122.382 173.26 121.683 173.713 121.367 174.618C121.038 175.537 120.873 177.129 120.873 179.393Z" fill="#D66753"/>
</svg>
