<svg width="223" height="324" viewBox="0 0 223 324" fill="none" xmlns="http://www.w3.org/2000/svg">
<g clip-path="url(#clip0_2009_1705)">
<path d="M222.449 314.064C222.449 319.1 218.333 323.223 213.287 323.223H9.48079C4.44759 323.223 0.333008 319.1 0.333008 314.064V9.49347C0.333008 4.45701 4.44759 0.333313 9.48079 0.333313H213.287C218.333 0.333313 222.449 4.45701 222.449 9.49347V314.064Z" fill="#F1EAD8" stroke="#2C2C2C" stroke-width="0.666667"/>
<path d="M27.5881 58.3196C27.5881 58.3196 32.2927 54.556 32.2927 49.3383C32.2927 46.2839 29.5809 41.2128 23.3114 41.2128C17.042 41.2128 14.3302 46.2858 14.3302 49.3383C14.3302 54.556 19.0347 58.3196 19.0347 58.3196C13.8092 54.2489 4.49316 57.0281 4.49316 65.1635C4.49316 69.2362 7.82102 73.7169 13.0466 73.7169C19.316 73.7169 22.0278 66.873 22.0278 66.873C22.0278 66.873 22.8241 74.6736 18.179 78.8493H28.4438C23.7987 74.6756 24.595 66.873 24.595 66.873C24.595 66.873 27.3068 73.7169 33.5763 73.7169C38.8038 73.7169 42.1296 69.2342 42.1296 65.1635C42.1296 57.0281 32.8136 54.2489 27.5881 58.3196Z" fill="#2C2C2C"/>
<path d="M195.311 264.987C195.311 264.987 190.607 268.751 190.607 273.968C190.607 277.023 193.319 282.094 199.588 282.094C205.857 282.094 208.569 277.021 208.569 273.968C208.569 268.751 203.865 264.987 203.865 264.987C209.09 269.058 218.406 266.278 218.406 258.143C218.406 254.07 215.078 249.59 209.853 249.59C203.583 249.59 200.872 256.434 200.872 256.434C200.872 256.434 200.075 248.633 204.72 244.457H194.456C199.101 248.631 198.304 256.434 198.304 256.434C198.304 256.434 195.593 249.59 189.323 249.59C184.096 249.59 180.77 254.072 180.77 258.143C180.77 266.278 190.086 269.058 195.311 264.987Z" fill="#2C2C2C"/>
<path d="M76.7639 33.4666C76.7639 33.4666 84.7204 27.1014 84.7204 18.2772C84.7204 13.1114 80.1341 4.5351 69.5311 4.5351C58.928 4.5351 54.3417 13.1147 54.3417 18.2772C54.3417 27.1014 62.2982 33.4666 62.2982 33.4666C53.4606 26.5821 37.7051 31.2823 37.7051 45.0412C37.7051 51.929 43.3333 59.5069 52.1708 59.5069C62.7739 59.5069 67.3602 47.9323 67.3602 47.9323C67.3602 47.9323 68.7069 61.1251 60.8509 68.1871H78.2112C70.3552 61.1284 71.7019 47.9323 71.7019 47.9323C71.7019 47.9323 76.2882 59.5069 86.8913 59.5069C95.7322 59.5069 101.357 51.9257 101.357 45.0412C101.357 31.2823 85.6015 26.5821 76.7639 33.4666Z" fill="#2C2C2C"/>
<path d="M76.1477 124.268C76.1477 124.268 84.1042 117.902 84.1042 109.078C84.1042 103.912 79.5179 95.3362 68.9149 95.3362C58.3118 95.3362 53.7255 103.916 53.7255 109.078C53.7255 117.902 61.682 124.268 61.682 124.268C52.8444 117.383 37.0889 122.083 37.0889 135.842C37.0889 142.73 42.717 150.308 51.5546 150.308C62.1577 150.308 66.744 138.733 66.744 138.733C66.744 138.733 68.0907 151.926 60.2347 158.988H77.595C69.739 151.929 71.0857 138.733 71.0857 138.733C71.0857 138.733 75.672 150.308 86.2751 150.308C95.116 150.308 100.741 142.727 100.741 135.842C100.741 122.083 84.9853 117.383 76.1477 124.268Z" fill="#2C2C2C"/>
<path d="M162.077 33.235C162.077 33.235 170.034 26.8698 170.034 18.0456C170.034 12.8797 165.448 4.30347 154.845 4.30347C144.241 4.30347 139.655 12.8831 139.655 18.0456C139.655 26.8698 147.612 33.235 147.612 33.235C138.774 26.3505 123.019 31.0507 123.019 44.8096C123.019 51.6974 128.647 59.2753 137.484 59.2753C148.087 59.2753 152.674 47.7007 152.674 47.7007C152.674 47.7007 154.02 60.8934 146.164 67.9554H163.525C155.669 60.8968 157.015 47.7007 157.015 47.7007C157.015 47.7007 161.602 59.2753 172.205 59.2753C181.046 59.2753 186.671 51.694 186.671 44.8096C186.671 31.0507 170.915 26.3505 162.077 33.235Z" fill="#2C2C2C"/>
<path d="M162.077 124.036C162.077 124.036 170.034 117.671 170.034 108.847C170.034 103.681 165.448 95.1046 154.845 95.1046C144.241 95.1046 139.655 103.684 139.655 108.847C139.655 117.671 147.612 124.036 147.612 124.036C138.774 117.152 123.019 121.852 123.019 135.611C123.019 142.498 128.647 150.076 137.484 150.076C148.087 150.076 152.674 138.502 152.674 138.502C152.674 138.502 154.02 151.694 146.164 158.757H163.525C155.669 151.698 157.015 138.502 157.015 138.502C157.015 138.502 161.602 150.076 172.205 150.076C181.046 150.076 186.671 142.495 186.671 135.611C186.671 121.852 170.915 117.152 162.077 124.036Z" fill="#2C2C2C"/>
<path d="M119.436 79.0415C119.436 79.0415 127.392 72.6763 127.392 63.8521C127.392 58.6863 122.806 50.11 112.203 50.11C101.6 50.11 97.0136 58.6896 97.0136 63.8521C97.0136 72.6763 104.97 79.0415 104.97 79.0415C96.1325 72.157 80.377 76.8572 80.377 90.6161C80.377 97.5039 86.0051 105.082 94.8427 105.082C105.446 105.082 110.032 93.5072 110.032 93.5072C110.032 93.5072 111.379 106.7 103.523 113.762H120.883C113.027 106.703 114.374 93.5072 114.374 93.5072C114.374 93.5072 118.96 105.082 129.563 105.082C138.404 105.082 144.029 97.5006 144.029 90.6161C144.029 76.8572 128.273 72.157 119.436 79.0415Z" fill="#2C2C2C"/>
<path d="M146.75 290.403C146.75 290.403 138.794 296.768 138.794 305.592C138.794 310.758 143.38 319.334 153.983 319.334C164.586 319.334 169.173 310.755 169.173 305.592C169.173 296.768 161.216 290.403 161.216 290.403C170.054 297.287 185.809 292.587 185.809 278.828C185.809 271.94 180.181 264.363 171.343 264.363C160.74 264.363 156.154 275.937 156.154 275.937C156.154 275.937 154.807 262.744 162.663 255.682H145.303C153.159 262.741 151.812 275.937 151.812 275.937C151.812 275.937 147.226 264.363 136.623 264.363C127.782 264.363 122.157 271.944 122.157 278.828C122.157 292.587 137.913 297.287 146.75 290.403Z" fill="#2C2C2C"/>
<path d="M147.611 199.602C147.611 199.602 139.654 205.967 139.654 214.791C139.654 219.957 144.24 228.533 154.844 228.533C165.447 228.533 170.033 219.954 170.033 214.791C170.033 205.967 162.076 199.602 162.076 199.602C170.914 206.486 186.67 201.786 186.67 188.027C186.67 181.139 181.041 173.561 172.204 173.561C161.601 173.561 157.014 185.136 157.014 185.136C157.014 185.136 155.668 171.943 163.524 164.881H146.163C154.019 171.94 152.673 185.136 152.673 185.136C152.673 185.136 148.086 173.561 137.483 173.561C128.642 173.561 123.018 181.143 123.018 188.027C123.018 201.786 138.773 206.486 147.611 199.602Z" fill="#2C2C2C"/>
<path d="M61.4369 290.634C61.4369 290.634 53.4804 296.999 53.4804 305.823C53.4804 310.989 58.0667 319.566 68.6697 319.566C79.2728 319.566 83.8591 310.986 83.8591 305.823C83.8591 296.999 75.9026 290.634 75.9026 290.634C84.7402 297.519 100.496 292.818 100.496 279.06C100.496 272.172 94.8676 264.594 86.03 264.594C75.4269 264.594 70.8406 276.168 70.8406 276.168C70.8406 276.168 69.4939 262.976 77.3499 255.914H59.9896C67.8456 262.972 66.4989 276.168 66.4989 276.168C66.4989 276.168 61.9126 264.594 51.3095 264.594C42.4686 264.594 36.8438 272.175 36.8438 279.06C36.8438 292.818 52.5993 297.519 61.4369 290.634Z" fill="#2C2C2C"/>
<path d="M61.681 199.833C61.681 199.833 53.7245 206.199 53.7245 215.023C53.7245 220.189 58.3108 228.765 68.9139 228.765C79.517 228.765 84.1032 220.185 84.1032 215.023C84.1032 206.199 76.1468 199.833 76.1468 199.833C84.9843 206.718 100.74 202.018 100.74 188.259C100.74 181.371 95.1117 173.793 86.2741 173.793C75.671 173.793 71.0847 185.368 71.0847 185.368C71.0847 185.368 69.738 172.175 77.594 165.113H60.2338C68.0898 172.172 66.743 185.368 66.743 185.368C66.743 185.368 62.1567 173.793 51.5536 173.793C42.7127 173.793 37.0879 181.374 37.0879 188.259C37.0879 202.018 52.8434 206.718 61.681 199.833Z" fill="#2C2C2C"/>
<path d="M0.741862 33.2688C2.35297 33.2688 3.3877 33.1438 3.84603 32.8938C4.31825 32.63 4.61686 32.3591 4.74186 32.0813C4.88075 31.8036 4.9502 31.4563 4.9502 31.0397V13.0605C4.9502 12.0605 4.85992 11.4077 4.67936 11.1022C4.5127 10.7966 4.04047 10.6438 3.2627 10.6438H0.533529V8.35218C2.21408 8.35218 3.6377 7.91468 4.80436 7.03968C5.97103 6.16468 6.55436 5.26885 6.55436 4.35218L9.55436 4.31052L9.53353 31.0397C9.53353 31.9147 9.72103 32.4633 10.096 32.6855C10.721 33.0744 11.9294 33.2688 13.721 33.2688V35.5605H0.741862V33.2688Z" fill="#2C2C2C"/>
<path d="M29.8545 36.4155C26.3128 36.4155 23.3962 34.9919 21.1045 32.1446C18.8128 29.2835 17.667 25.2905 17.667 20.1655C17.667 15.0405 18.8962 11.0405 21.3545 8.16548C23.5489 5.60992 26.3823 4.33214 29.8545 4.33214C33.3267 4.33214 36.16 5.60992 38.3545 8.16548C40.8128 11.0405 42.042 15.0405 42.042 20.1655C42.042 25.2905 40.8962 29.2835 38.6045 32.1446C36.3128 34.9919 33.3962 36.4155 29.8545 36.4155ZM29.8545 33.9155C31.6184 33.9155 33.0906 33.0335 34.2712 31.2696C35.7573 29.0335 36.5003 25.4919 36.5003 20.6446C36.5003 15.7835 35.8823 12.2696 34.6462 10.103C33.41 7.92242 31.8128 6.83214 29.8545 6.83214C26.785 6.83214 24.7503 9.22103 23.7503 13.9988C23.3892 15.6933 23.2087 17.6169 23.2087 19.7696C23.2087 21.9085 23.3059 23.6863 23.5003 25.103C23.6948 26.5058 23.9587 27.721 24.292 28.7488C24.8753 30.6099 25.667 31.9363 26.667 32.728C27.6809 33.5196 28.7434 33.9155 29.8545 33.9155Z" fill="#2C2C2C"/>
<path d="M104.093 245.25C104.093 245.25 96.1366 251.615 96.1366 260.439C96.1366 265.605 100.723 274.182 111.326 274.182C121.929 274.182 126.515 265.602 126.515 260.439C126.515 251.615 118.559 245.25 118.559 245.25C127.396 252.135 143.152 247.434 143.152 233.676C143.152 226.788 137.524 219.21 128.686 219.21C118.083 219.21 113.497 230.784 113.497 230.784C113.497 230.784 112.15 217.592 120.006 210.53H102.646C110.502 217.588 109.155 230.784 109.155 230.784C109.155 230.784 104.569 219.21 93.9657 219.21C85.1248 219.21 79.5 226.791 79.5 233.676C79.5 247.434 95.2555 252.135 104.093 245.25Z" fill="#2C2C2C"/>
<path d="M222.787 291.26C221.176 291.26 220.142 291.385 219.683 291.635C219.211 291.899 218.912 292.17 218.787 292.447C218.649 292.725 218.579 293.072 218.579 293.489V311.468C218.579 312.468 218.669 313.121 218.85 313.427C219.017 313.732 219.489 313.885 220.267 313.885H222.996V316.177C221.315 316.177 219.892 316.614 218.725 317.489C217.558 318.364 216.975 319.26 216.975 320.177L213.975 320.218L213.996 293.489C213.996 292.614 213.808 292.065 213.433 291.843C212.808 291.454 211.6 291.26 209.808 291.26V288.968H222.787V291.26Z" fill="#2C2C2C"/>
<path d="M193.675 288.113C197.216 288.113 200.133 289.537 202.425 292.384C204.716 295.245 205.862 299.238 205.862 304.363C205.862 309.488 204.633 313.488 202.175 316.363C199.98 318.919 197.147 320.197 193.675 320.197C190.203 320.197 187.369 318.919 185.175 316.363C182.716 313.488 181.487 309.488 181.487 304.363C181.487 299.238 182.633 295.245 184.925 292.384C187.216 289.537 190.133 288.113 193.675 288.113ZM193.675 290.613C191.911 290.613 190.439 291.495 189.258 293.259C187.772 295.495 187.029 299.037 187.029 303.884C187.029 308.745 187.647 312.259 188.883 314.426C190.119 316.606 191.716 317.697 193.675 317.697C196.744 317.697 198.779 315.308 199.779 310.53C200.14 308.836 200.321 306.912 200.321 304.759C200.321 302.62 200.223 300.842 200.029 299.426C199.835 298.023 199.571 296.808 199.237 295.78C198.654 293.919 197.862 292.592 196.862 291.801C195.848 291.009 194.786 290.613 193.675 290.613Z" fill="#2C2C2C"/>
</g>
<defs>
<clipPath id="clip0_2009_1705">
<rect width="222.783" height="323.556" fill="white"/>
</clipPath>
</defs>
</svg>
