<svg width="223" height="324" viewBox="0 0 223 324" fill="none" xmlns="http://www.w3.org/2000/svg">
<g clip-path="url(#clip0_2009_1797)">
<path d="M222.449 314.064C222.449 319.1 218.333 323.223 213.287 323.223H9.48079C4.44759 323.223 0.333008 319.1 0.333008 314.064V9.49347C0.333008 4.45701 4.44759 0.333313 9.48079 0.333313H213.287C218.333 0.333313 222.449 4.45701 222.449 9.49347V314.064Z" fill="#F1EAD8" stroke="#2C2C2C" stroke-width="0.666667"/>
<path d="M0.97526 35.9784C2.58637 35.9784 3.62109 35.8534 4.07943 35.6034C4.55165 35.3395 4.85026 35.0687 4.97526 34.7909C5.11415 34.5131 5.18359 34.1659 5.18359 33.7492V15.7701C5.18359 14.7701 5.09332 14.1173 4.91276 13.8117C4.74609 13.5062 4.27387 13.3534 3.49609 13.3534H0.766927V11.0617C2.44748 11.0617 3.87109 10.6242 5.03776 9.74925C6.20443 8.87425 6.78776 7.97841 6.78776 7.06175L9.78776 7.02008L9.76693 33.7492C9.76693 34.6242 9.95443 35.1729 10.3294 35.3951C10.9544 35.784 12.1628 35.9784 13.9544 35.9784V38.2701H0.97526V35.9784Z" fill="#D66753"/>
<path d="M31.1096 43.0432C23.8699 43.0432 22.9032 50.3078 22.9032 50.3078C22.9032 50.3078 21.9366 43.0432 14.6969 43.0432C9.62931 43.0432 5.04395 46.3005 5.04395 52.4452C5.04395 60.5643 19.7313 68.729 22.9032 80.651C25.9215 68.739 40.7625 60.5643 40.7625 52.4452C40.7625 46.3005 36.1771 43.0432 31.1096 43.0432Z" fill="#D66753"/>
<path d="M192.002 278.995C199.241 278.995 200.208 271.73 200.208 271.73C200.208 271.73 201.175 278.995 208.414 278.995C213.482 278.995 218.067 275.737 218.067 269.593C218.067 261.474 203.38 253.309 200.208 241.387C197.19 253.299 182.349 261.474 182.349 269.593C182.349 275.737 186.934 278.995 192.002 278.995Z" fill="#D66753"/>
<path d="M86.3036 8.79437C74.2872 8.79437 72.6828 20.8521 72.6828 20.8521C72.6828 20.8521 71.0784 8.79437 59.0619 8.79437C50.6508 8.79437 43.04 14.2007 43.04 24.3997C43.04 37.8758 67.4181 51.4275 72.6828 71.2157C77.6925 51.4441 102.326 37.8758 102.326 24.3997C102.326 14.2007 94.7148 8.79437 86.3036 8.79437Z" fill="#D66753"/>
<path d="M59.0626 314.952C71.079 314.952 72.6834 302.894 72.6834 302.894C72.6834 302.894 74.2878 314.952 86.3043 314.952C94.7154 314.952 102.326 309.546 102.326 299.347C102.326 285.871 77.9482 272.319 72.6834 252.531C67.6738 272.303 43.0407 285.871 43.0407 299.347C43.0407 309.546 50.6514 314.952 59.0626 314.952Z" fill="#D66753"/>
<path d="M86.3036 95.7742C74.2872 95.7742 72.6828 107.832 72.6828 107.832C72.6828 107.832 71.0784 95.7742 59.0619 95.7742C50.6508 95.7742 43.04 101.181 43.04 111.379C43.04 124.856 67.4181 138.407 72.6828 158.195C77.6925 138.424 102.326 124.856 102.326 111.379C102.326 101.181 94.7148 95.7742 86.3036 95.7742Z" fill="#D66753"/>
<path d="M59.0626 225.019C71.079 225.019 72.6834 212.961 72.6834 212.961C72.6834 212.961 74.2878 225.019 86.3043 225.019C94.7154 225.019 102.326 219.612 102.326 209.413C102.326 195.937 77.9482 182.386 72.6834 162.597C67.6738 182.369 43.0407 195.937 43.0407 209.413C43.0407 219.612 50.6514 225.019 59.0626 225.019Z" fill="#D66753"/>
<path d="M162.942 9.59271C150.926 9.59271 149.321 21.6504 149.321 21.6504C149.321 21.6504 147.717 9.59271 135.701 9.59271C127.289 9.59271 119.679 14.9991 119.679 25.198C119.679 38.6741 144.057 52.2258 149.321 72.014C154.331 52.2424 178.964 38.6741 178.964 25.198C178.964 14.9991 171.353 9.59271 162.942 9.59271Z" fill="#D66753"/>
<path d="M135.7 315.751C147.717 315.751 149.321 303.693 149.321 303.693C149.321 303.693 150.926 315.751 162.942 315.751C171.353 315.751 178.964 310.344 178.964 300.145C178.964 286.669 154.586 273.118 149.321 253.329C144.311 273.101 119.678 286.669 119.678 300.145C119.678 310.344 127.289 315.751 135.7 315.751Z" fill="#D66753"/>
<path d="M162.942 96.5726C150.926 96.5726 149.321 108.63 149.321 108.63C149.321 108.63 147.717 96.5726 135.701 96.5726C127.289 96.5726 119.679 101.979 119.679 112.178C119.679 125.654 144.057 139.206 149.321 158.994C154.331 139.222 178.964 125.654 178.964 112.178C178.964 101.979 171.353 96.5726 162.942 96.5726Z" fill="#D66753"/>
<path d="M135.7 225.817C147.717 225.817 149.321 213.759 149.321 213.759C149.321 213.759 150.926 225.817 162.942 225.817C171.353 225.817 178.964 220.411 178.964 210.212C178.964 196.736 154.586 183.184 149.321 163.396C144.311 183.167 119.678 196.736 119.678 210.212C119.678 220.411 127.289 225.817 135.7 225.817Z" fill="#D66753"/>
<path d="M124.572 52.3954C112.556 52.3954 110.951 64.4531 110.951 64.4531C110.951 64.4531 109.347 52.3954 97.3305 52.3954C88.9194 52.3954 81.3086 57.8018 81.3086 68.0007C81.3086 81.4768 105.687 95.0285 110.951 114.817C115.961 95.0451 140.594 81.4768 140.594 68.0007C140.594 57.8018 132.983 52.3954 124.572 52.3954Z" fill="#D66753"/>
<path d="M96.71 270.815C108.726 270.815 110.331 258.757 110.331 258.757C110.331 258.757 111.935 270.815 123.952 270.815C132.363 270.815 139.974 265.408 139.974 255.209C139.974 241.733 115.596 228.181 110.331 208.393C105.321 228.165 80.6881 241.733 80.6881 255.209C80.6881 265.408 88.2989 270.815 96.71 270.815Z" fill="#D66753"/>
<path d="M31.5693 38.3634C28.0277 38.3634 25.111 36.9398 22.8193 34.0925C20.5277 31.2314 19.3818 27.2384 19.3818 22.1134C19.3818 16.9884 20.611 12.9884 23.0693 10.1134C25.2638 7.55783 28.0971 6.28005 31.5693 6.28005C35.0416 6.28005 37.8749 7.55783 40.0693 10.1134C42.5277 12.9884 43.7568 16.9884 43.7568 22.1134C43.7568 27.2384 42.611 31.2314 40.3193 34.0925C38.0277 36.9398 35.111 38.3634 31.5693 38.3634ZM31.5693 35.8634C33.3332 35.8634 34.8054 34.9814 35.986 33.2175C37.4721 30.9814 38.2152 27.4398 38.2152 22.5925C38.2152 17.7314 37.5971 14.2175 36.361 12.0509C35.1249 9.87033 33.5277 8.78005 31.5693 8.78005C28.4999 8.78005 26.4652 11.1689 25.4652 15.9467C25.1041 17.6412 24.9235 19.5648 24.9235 21.7175C24.9235 23.8564 25.0207 25.6342 25.2152 27.0509C25.4096 28.4537 25.6735 29.6689 26.0068 30.6967C26.5902 32.5578 27.3818 33.8842 28.3818 34.6759C29.3957 35.4675 30.4582 35.8634 31.5693 35.8634Z" fill="#D66753"/>
<path d="M221.172 285.705C219.561 285.705 218.526 285.83 218.068 286.08C217.596 286.344 217.297 286.614 217.172 286.892C217.033 287.17 216.964 287.517 216.964 287.934V305.913C216.964 306.913 217.054 307.566 217.235 307.871C217.401 308.177 217.874 308.33 218.651 308.33H221.381V310.621C219.7 310.621 218.276 311.059 217.11 311.934C215.943 312.809 215.36 313.705 215.36 314.621L212.36 314.663L212.381 287.934C212.381 287.059 212.193 286.51 211.818 286.288C211.193 285.899 209.985 285.705 208.193 285.705V283.413H221.172V285.705Z" fill="#D66753"/>
<path d="M190.578 283.32C194.12 283.32 197.036 284.743 199.328 287.59C201.62 290.452 202.766 294.445 202.766 299.57C202.766 304.695 201.536 308.695 199.078 311.57C196.884 314.125 194.05 315.403 190.578 315.403C187.106 315.403 184.273 314.125 182.078 311.57C179.62 308.695 178.391 304.695 178.391 299.57C178.391 294.445 179.536 290.452 181.828 287.59C184.12 284.743 187.036 283.32 190.578 283.32ZM190.578 285.82C188.814 285.82 187.342 286.702 186.161 288.465C184.675 290.702 183.932 294.243 183.932 299.09C183.932 303.952 184.55 307.465 185.786 309.632C187.023 311.813 188.62 312.903 190.578 312.903C193.648 312.903 195.682 310.514 196.682 305.736C197.043 304.042 197.224 302.118 197.224 299.965C197.224 297.827 197.127 296.049 196.932 294.632C196.738 293.229 196.474 292.014 196.141 290.986C195.557 289.125 194.766 287.799 193.766 287.007C192.752 286.215 191.689 285.82 190.578 285.82Z" fill="#D66753"/>
</g>
<defs>
<clipPath id="clip0_2009_1797">
<rect width="222.783" height="323.556" fill="white"/>
</clipPath>
</defs>
</svg>
