<svg width="223" height="324" viewBox="0 0 223 324" fill="none" xmlns="http://www.w3.org/2000/svg">
<g clip-path="url(#clip0_2009_1666)">
<path d="M222.449 314.064C222.449 319.1 218.333 323.223 213.287 323.223H9.48079C4.44759 323.223 0.333008 319.1 0.333008 314.064V9.49347C0.333008 4.45701 4.44759 0.333313 9.48079 0.333313H213.287C218.333 0.333313 222.449 4.45701 222.449 9.49347V314.064Z" fill="#F1EAD8" stroke="#2C2C2C" stroke-width="0.666667"/>
<path d="M2.83561 32.2594C4.44672 32.2594 5.48145 32.1344 5.93978 31.8844C6.412 31.6205 6.71061 31.3497 6.83561 31.0719C6.9745 30.7941 7.04395 30.4469 7.04395 30.0302V12.0511C7.04395 11.0511 6.95367 10.3983 6.77311 10.0927C6.60645 9.78717 6.13422 9.63439 5.35645 9.63439H2.62728V7.34272C4.30783 7.34272 5.73145 6.90522 6.89811 6.03022C8.06478 5.15522 8.64811 4.25939 8.64811 3.34272L11.6481 3.30105L11.6273 30.0302C11.6273 30.9052 11.8148 31.4538 12.1898 31.6761C12.8148 32.0649 14.0231 32.2594 15.8148 32.2594V34.5511H2.83561V32.2594Z" fill="#D66753"/>
<path d="M29.0106 49.6764C24.8418 44.0366 22.6238 38.3049 22.6238 38.3049C22.6238 38.3049 20.4058 44.0366 16.237 49.6764C12.0662 55.3143 6.87012 58.9816 6.87012 58.9816C6.87012 58.9816 12.0662 62.6469 16.237 68.2887C20.4058 73.9265 22.6238 79.6583 22.6238 79.6583C22.6238 79.6583 24.8418 73.9265 29.0106 68.2887C33.1814 62.6469 38.3775 58.9816 38.3775 58.9816C38.3775 58.9816 33.1814 55.3143 29.0106 49.6764Z" fill="#D66753"/>
<path d="M207.215 255.366C203.046 249.726 200.828 243.995 200.828 243.995C200.828 243.995 198.61 249.726 194.441 255.366C190.27 261.004 185.074 264.671 185.074 264.671C185.074 264.671 190.27 268.337 194.441 273.978C198.61 279.616 200.828 285.348 200.828 285.348C200.828 285.348 203.046 279.616 207.215 273.978C211.385 268.337 216.582 264.671 216.582 264.671C216.582 264.671 211.385 261.004 207.215 255.366Z" fill="#D66753"/>
<path d="M83.3648 264.912C76.0589 255.028 72.1719 244.984 72.1719 244.984C72.1719 244.984 68.2849 255.028 60.979 264.912C53.6697 274.793 44.5635 281.22 44.5635 281.22C44.5635 281.22 53.6697 287.643 60.979 297.53C68.2849 307.411 72.1719 317.456 72.1719 317.456C72.1719 317.456 76.0589 307.411 83.3648 297.53C90.6741 287.643 99.7803 281.22 99.7803 281.22C99.7803 281.22 90.6741 274.793 83.3648 264.912Z" fill="#D66753"/>
<path d="M83.3648 25.852C76.0589 15.9682 72.1719 5.92334 72.1719 5.92334C72.1719 5.92334 68.2849 15.9682 60.979 25.852C53.6697 35.7324 44.5635 42.1594 44.5635 42.1594C44.5635 42.1594 53.6697 48.583 60.979 58.4702C68.2849 68.3506 72.1719 78.3955 72.1719 78.3955C72.1719 78.3955 76.0589 68.3506 83.3648 58.4702C90.6741 48.583 99.7803 42.1594 99.7803 42.1594C99.7803 42.1594 90.6741 35.7324 83.3648 25.852Z" fill="#D66753"/>
<path d="M83.3648 185.27C76.0589 175.386 72.1719 165.341 72.1719 165.341C72.1719 165.341 68.2849 175.386 60.979 185.27C53.6697 195.15 44.5635 201.577 44.5635 201.577C44.5635 201.577 53.6697 208.001 60.979 217.888C68.2849 227.768 72.1719 237.813 72.1719 237.813C72.1719 237.813 76.0589 227.768 83.3648 217.888C90.6741 208.001 99.7803 201.577 99.7803 201.577C99.7803 201.577 90.6741 195.15 83.3648 185.27Z" fill="#D66753"/>
<path d="M83.3648 105.495C76.0589 95.6109 72.1719 85.566 72.1719 85.566C72.1719 85.566 68.2849 95.6109 60.979 105.495C53.6697 115.375 44.5635 121.802 44.5635 121.802C44.5635 121.802 53.6697 128.226 60.979 138.113C68.2849 147.993 72.1719 158.038 72.1719 158.038C72.1719 158.038 76.0589 147.993 83.3648 138.113C90.6741 128.226 99.7803 121.802 99.7803 121.802C99.7803 121.802 90.6741 115.375 83.3648 105.495Z" fill="#D66753"/>
<path d="M161.721 264.912C154.415 255.028 150.528 244.984 150.528 244.984C150.528 244.984 146.641 255.028 139.335 264.912C132.026 274.793 122.92 281.22 122.92 281.22C122.92 281.22 132.026 287.643 139.335 297.53C146.641 307.411 150.528 317.456 150.528 317.456C150.528 317.456 154.415 307.411 161.721 297.53C169.031 287.643 178.137 281.22 178.137 281.22C178.137 281.22 169.031 274.793 161.721 264.912Z" fill="#D66753"/>
<path d="M161.721 25.852C154.415 15.9682 150.528 5.92334 150.528 5.92334C150.528 5.92334 146.641 15.9682 139.335 25.852C132.026 35.7324 122.92 42.1594 122.92 42.1594C122.92 42.1594 132.026 48.583 139.335 58.4702C146.641 68.3506 150.528 78.3955 150.528 78.3955C150.528 78.3955 154.415 68.3506 161.721 58.4702C169.031 48.583 178.137 42.1594 178.137 42.1594C178.137 42.1594 169.031 35.7324 161.721 25.852Z" fill="#D66753"/>
<path d="M161.721 185.27C154.415 175.386 150.528 165.341 150.528 165.341C150.528 165.341 146.641 175.386 139.335 185.27C132.026 195.15 122.92 201.577 122.92 201.577C122.92 201.577 132.026 208.001 139.335 217.888C146.641 227.768 150.528 237.813 150.528 237.813C150.528 237.813 154.415 227.768 161.721 217.888C169.031 208.001 178.137 201.577 178.137 201.577C178.137 201.577 169.031 195.15 161.721 185.27Z" fill="#D66753"/>
<path d="M161.721 105.495C154.415 95.6109 150.528 85.566 150.528 85.566C150.528 85.566 146.641 95.6109 139.335 105.495C132.026 115.375 122.92 121.802 122.92 121.802C122.92 121.802 132.026 128.226 139.335 138.113C146.641 147.993 150.528 158.038 150.528 158.038C150.528 158.038 154.415 147.993 161.721 138.113C169.031 128.226 178.137 121.802 178.137 121.802C178.137 121.802 169.031 115.375 161.721 105.495Z" fill="#D66753"/>
<path d="M122.144 66.1312C114.838 56.2474 110.951 46.2025 110.951 46.2025C110.951 46.2025 107.064 56.2474 99.7583 66.1312C92.449 76.0116 83.3428 82.4386 83.3428 82.4386C83.3428 82.4386 92.449 88.8621 99.7583 98.7494C107.064 108.63 110.951 118.675 110.951 118.675C110.951 118.675 114.838 108.63 122.144 98.7494C129.453 88.8621 138.56 82.4386 138.56 82.4386C138.56 82.4386 129.453 76.0116 122.144 66.1312Z" fill="#D66753"/>
<path d="M121.871 224.81C114.565 214.926 110.678 204.881 110.678 204.881C110.678 204.881 106.791 214.926 99.4849 224.81C92.1755 234.69 83.0693 241.117 83.0693 241.117C83.0693 241.117 92.1755 247.541 99.4849 257.428C106.791 267.309 110.678 277.353 110.678 277.353C110.678 277.353 114.565 267.309 121.871 257.428C129.18 247.541 138.286 241.117 138.286 241.117C138.286 241.117 129.18 234.69 121.871 224.81Z" fill="#D66753"/>
<path d="M32.8096 34.9182C29.2679 34.9182 26.3512 33.4946 24.0596 30.6474C21.7679 27.7862 20.6221 23.7932 20.6221 18.6682C20.6221 13.5432 21.8512 9.54319 24.3096 6.66819C26.504 4.11264 29.3373 2.83486 32.8096 2.83486C36.2818 2.83486 39.1151 4.11264 41.3096 6.66819C43.7679 9.54319 44.9971 13.5432 44.9971 18.6682C44.9971 23.7932 43.8512 27.7862 41.5596 30.6474C39.2679 33.4946 36.3512 34.9182 32.8096 34.9182ZM32.8096 32.4182C34.5735 32.4182 36.0457 31.5362 37.2262 29.7724C38.7123 27.5362 39.4554 23.9946 39.4554 19.1474C39.4554 14.2862 38.8373 10.7724 37.6012 8.60569C36.3651 6.42514 34.7679 5.33486 32.8096 5.33486C29.7401 5.33486 27.7054 7.72375 26.7054 12.5015C26.3443 14.196 26.1637 16.1196 26.1637 18.2724C26.1637 20.4112 26.261 22.189 26.4554 23.6057C26.6498 25.0085 26.9137 26.2237 27.2471 27.2515C27.8304 29.1126 28.6221 30.439 29.6221 31.2307C30.636 32.0224 31.6985 32.4182 32.8096 32.4182Z" fill="#D66753"/>
<path d="M219.622 290.937C218.011 290.937 216.977 291.062 216.518 291.312C216.046 291.576 215.747 291.847 215.622 292.125C215.484 292.402 215.414 292.75 215.414 293.166V311.146C215.414 312.146 215.504 312.798 215.685 313.104C215.852 313.409 216.324 313.562 217.102 313.562H219.831V315.854C218.15 315.854 216.727 316.291 215.56 317.166C214.393 318.041 213.81 318.937 213.81 319.854L210.81 319.896L210.831 293.166C210.831 292.291 210.643 291.743 210.268 291.521C209.643 291.132 208.435 290.937 206.643 290.937V288.646H219.622V290.937Z" fill="#D66753"/>
<path d="M189.648 288.278C193.19 288.278 196.107 289.702 198.398 292.549C200.69 295.41 201.836 299.403 201.836 304.528C201.836 309.653 200.607 313.653 198.148 316.528C195.954 319.084 193.121 320.362 189.648 320.362C186.176 320.362 183.343 319.084 181.148 316.528C178.69 313.653 177.461 309.653 177.461 304.528C177.461 299.403 178.607 295.41 180.898 292.549C183.19 289.702 186.107 288.278 189.648 288.278ZM189.648 290.778C187.885 290.778 186.412 291.66 185.232 293.424C183.746 295.66 183.003 299.202 183.003 304.049C183.003 308.91 183.621 312.424 184.857 314.591C186.093 316.771 187.69 317.862 189.648 317.862C192.718 317.862 194.753 315.473 195.753 310.695C196.114 309.001 196.294 307.077 196.294 304.924C196.294 302.785 196.197 301.008 196.003 299.591C195.808 298.188 195.544 296.973 195.211 295.945C194.628 294.084 193.836 292.758 192.836 291.966C191.822 291.174 190.76 290.778 189.648 290.778Z" fill="#D66753"/>
</g>
<defs>
<clipPath id="clip0_2009_1666">
<rect width="222.783" height="323.556" fill="white"/>
</clipPath>
</defs>
</svg>
