<svg width="143" height="200" viewBox="0 0 143 200" fill="none" xmlns="http://www.w3.org/2000/svg">
<path d="M15.7967 200C7.34906 200.018 0.452417 193.272 0.434466 184.961L5.04276e-05 15.1361C-0.0214905 6.77464 6.86086 -0.0143378 15.3408 2.27406e-05L127.572 0.204658C136.02 0.222609 142.891 7.02953 142.891 15.3623V184.835C142.891 193.11 136.049 199.864 127.623 199.871L15.7967 200Z" fill="#C9C9C9"/>
<path d="M17.1937 199.583C8.85737 199.583 2.06836 192.82 2.06836 184.508V15.0821C2.06836 6.76735 8.85737 0.00708008 17.1937 0.00708008H127.792C136.128 0.00708008 142.917 6.76735 142.917 15.0821V184.508C142.917 192.82 136.128 199.583 127.792 199.583H17.1937Z" fill="#F1EAD8"/>
<path d="M114.611 33.6971C114.632 30.0997 98.9538 14.698 98.9538 14.698C98.9538 14.698 83.6778 30.5808 83.6778 33.6432C83.667 38.8094 87.8495 43.0135 93.0301 43.0207C94.7893 43.0243 96.448 42.5396 97.8589 41.6887L91.989 51.6945L106.238 51.7232L100.404 41.6995C101.808 42.5432 103.456 43.0458 105.226 43.0566C110.389 43.0601 114.611 38.8776 114.611 33.6971Z" fill="#2C2C2C"/>
<path opacity="0.2" d="M114.611 33.6971C114.633 30.0997 98.9545 14.698 98.9545 14.698C98.9545 14.698 98.9366 14.7123 98.9258 14.7267V51.7124L106.235 51.7232L100.401 41.6995C101.805 42.5432 103.453 43.0458 105.223 43.0566C110.389 43.0601 114.611 38.8776 114.611 33.6971Z" fill="#616161"/>
<path d="M114.611 101.986C114.632 98.3846 98.9538 82.9829 98.9538 82.9829C98.9538 82.9829 83.6778 98.8657 83.6778 101.932C83.667 107.102 87.8495 111.306 93.0301 111.313C94.7893 111.316 96.448 110.835 97.8589 109.977L91.989 119.983L106.238 120.012L100.404 109.988C101.808 110.835 103.456 111.334 105.226 111.345C110.389 111.352 114.611 107.166 114.611 101.986Z" fill="#2C2C2C"/>
<path opacity="0.2" d="M114.611 101.986C114.633 98.3846 98.9545 82.9829 98.9545 82.9829C98.9545 82.9829 98.9366 82.9973 98.9258 83.0116V119.997L106.235 120.012L100.401 109.988C101.805 110.835 103.453 111.334 105.223 111.345C110.389 111.352 114.611 107.166 114.611 101.986Z" fill="#616161"/>
<path d="M30.4385 33.6971C30.417 30.0997 46.0951 14.698 46.0951 14.698C46.0951 14.698 61.3712 30.5808 61.3712 33.6432C61.382 38.8094 57.1994 43.0135 52.0224 43.0207C50.2633 43.0243 48.6046 42.5396 47.1937 41.6887L53.0636 51.6945L38.8143 51.7232L44.6447 41.6995C43.2446 42.5432 41.5966 43.0458 39.8267 43.0566C34.6605 43.0601 30.4385 38.8776 30.4385 33.6971Z" fill="#2C2C2C"/>
<path opacity="0.2" d="M30.4385 33.6971C30.417 30.0997 46.0951 14.698 46.0951 14.698C46.0951 14.698 46.113 14.7123 46.1238 14.7267V51.7124L38.8143 51.7232L44.6447 41.6995C43.2446 42.5432 41.5966 43.0458 39.8267 43.0566C34.6605 43.0601 30.4385 38.8776 30.4385 33.6971Z" fill="#616161"/>
<path d="M30.4385 98.6572C30.417 95.0563 46.0951 79.6582 46.0951 79.6582C46.0951 79.6582 61.3712 95.541 61.3712 98.6034C61.382 103.77 57.1994 107.974 52.0224 107.981C50.2633 107.992 48.6046 107.507 47.1937 106.649L53.0636 116.655L38.8143 116.683L44.6447 106.656C43.2446 107.503 41.5966 108.01 39.8267 108.017C34.6605 108.024 30.4385 103.834 30.4385 98.6572Z" fill="#2C2C2C"/>
<path opacity="0.2" d="M30.4385 98.6572C30.417 95.0563 46.0951 79.6582 46.0951 79.6582C46.0951 79.6582 46.113 79.669 46.1238 79.6905V116.673L38.8143 116.683L44.6447 106.656C43.2446 107.503 41.5966 108.01 39.8267 108.017C34.6605 108.024 30.4385 103.834 30.4385 98.6572Z" fill="#616161"/>
<path d="M114.548 166.651C114.559 170.252 98.8842 185.65 98.8842 185.65C98.8842 185.65 83.6153 169.774 83.6045 166.708C83.6045 161.531 87.7799 157.327 92.9569 157.324C94.7232 157.317 96.3819 157.798 97.7856 158.659L91.9157 148.654L106.161 148.625L100.342 158.652C101.731 157.801 103.379 157.302 105.16 157.291C110.326 157.281 114.548 161.463 114.548 166.651Z" fill="#2C2C2C"/>
<path opacity="0.2" d="M114.548 166.651C114.559 170.252 98.8842 185.65 98.8842 185.65C98.8842 185.65 98.8734 185.639 98.8555 185.621V148.636L106.161 148.621L100.342 158.649C101.731 157.798 103.379 157.299 105.16 157.288C110.326 157.281 114.548 161.463 114.548 166.651Z" fill="#616161"/>
<path d="M30.3623 166.651C30.3515 170.252 46.0297 185.65 46.0297 185.65C46.0297 185.65 61.2986 169.774 61.3057 166.708C61.3057 161.531 57.1341 157.327 51.9535 157.324C50.1835 157.317 48.5249 157.798 47.1247 158.659L52.9945 148.654L38.7453 148.625L44.5685 158.652C43.1755 157.801 41.5276 157.302 39.7505 157.291C34.5843 157.281 30.3623 161.463 30.3623 166.651Z" fill="#2C2C2C"/>
<path opacity="0.2" d="M30.3623 166.651C30.3515 170.252 46.0297 185.65 46.0297 185.65C46.0297 185.65 46.0369 185.639 46.0585 185.621V148.636L38.7489 148.621L44.5721 158.649C43.1792 157.798 41.5312 157.299 39.7541 157.288C34.5843 157.281 30.3623 161.463 30.3623 166.651Z" fill="#616161"/>
<path d="M18.0282 40.5293C18.0282 39.5671 13.8529 35.46 13.8529 35.46C13.8529 35.46 9.78159 39.6963 9.77441 40.5113C9.77441 41.8935 10.891 43.0136 12.2696 43.0136C12.7435 43.0136 13.1815 42.888 13.5585 42.6582L11.9932 45.3293L15.7915 45.3329L14.237 42.6582C14.6068 42.888 15.0519 43.0208 15.5151 43.0208C16.9009 43.0244 18.0282 41.9079 18.0282 40.5293Z" fill="#2C2C2C"/>
<path opacity="0.2" d="M18.0273 40.5293C18.0273 39.5671 13.852 35.46 13.852 35.46C13.852 35.46 13.8519 35.4672 13.8447 35.4708V45.3329L15.7942 45.3365L14.2397 42.6618C14.6095 42.8916 15.0546 43.0244 15.5177 43.0244C16.9 43.0244 18.0273 41.9079 18.0273 40.5293Z" fill="#616161"/>
<path d="M127.889 162.996C127.878 163.962 132.06 168.066 132.06 168.066C132.06 168.066 136.142 163.829 136.142 163.018C136.142 161.636 135.026 160.519 133.644 160.512C133.17 160.512 132.725 160.641 132.358 160.871L133.92 158.196L130.125 158.193L131.68 160.867C131.31 160.641 130.865 160.508 130.391 160.508C129.012 160.498 127.889 161.614 127.889 162.996Z" fill="#2C2C2C"/>
<path opacity="0.2" d="M127.889 162.996C127.878 163.962 132.06 168.066 132.06 168.066L132.071 168.058V158.193H130.122L131.676 160.867C131.306 160.641 130.861 160.508 130.387 160.508C129.012 160.498 127.889 161.614 127.889 162.996Z" fill="#616161"/>
<path d="M8.14785 25.2625C8.14785 22.6145 8.73782 20.5702 9.91777 19.1296C11.1114 17.6889 12.7441 16.9686 14.8159 16.9686C16.2291 16.9686 17.313 17.2567 18.0676 17.833C18.8222 18.3955 19.1996 19.1364 19.1996 20.0557C19.1996 20.5771 19.028 21.0298 18.685 21.414C18.3558 21.7844 17.9167 21.9697 17.3679 21.9697C16.8191 21.9697 16.38 21.8256 16.0507 21.5375C15.7215 21.2356 15.5568 20.8858 15.5568 20.4879C15.5568 20.0763 15.6117 19.7195 15.7215 19.4177H16.38C16.4624 19.1982 16.5035 18.9512 16.5035 18.6768C16.5035 17.8124 16.0164 17.3802 15.0423 17.3802C14.0682 17.3802 13.3547 17.8879 12.9019 18.9032C12.4492 19.9048 12.2159 21.6404 12.2022 24.11C12.9157 22.9987 13.9515 22.443 15.3098 22.443C16.6682 22.443 17.7383 22.8135 18.5204 23.5544C19.3025 24.2815 19.6935 25.3792 19.6935 26.8472C19.6935 28.3153 19.179 29.509 18.15 30.4282C17.1209 31.3475 15.742 31.8071 14.0133 31.8071C10.103 31.8071 8.14785 29.6256 8.14785 25.2625ZM14.2602 23.1222C13.7938 23.1222 13.3959 23.3005 13.0666 23.6573C12.751 24.0003 12.5315 24.4119 12.408 24.8921C12.2982 25.3586 12.2434 25.976 12.2434 26.7443C12.2434 27.4989 12.2434 28.0272 12.2434 28.329C12.2571 28.6172 12.2777 28.967 12.3051 29.3786C12.3463 29.7765 12.4011 30.0715 12.4697 30.2636C12.5383 30.442 12.6344 30.634 12.7579 30.8398C12.9774 31.1966 13.3273 31.3749 13.8075 31.3749C14.2877 31.3749 14.6444 31.2858 14.8777 31.1074C15.1246 30.9153 15.303 30.5997 15.4127 30.1607C15.5774 29.5158 15.6597 28.7132 15.6597 27.7528C15.6597 26.7924 15.6529 26.1544 15.6391 25.8388C15.6391 25.5232 15.6254 25.1939 15.598 24.8509C15.5705 24.4942 15.5225 24.2267 15.4539 24.0483C15.399 23.8699 15.3236 23.6984 15.2275 23.5338C15.0492 23.2594 14.7267 23.1222 14.2602 23.1222Z" fill="#2C2C2C"/>
<path d="M136.773 178.021C136.773 180.669 136.183 182.713 135.003 184.154C133.809 185.595 132.177 186.315 130.105 186.315C128.692 186.315 127.608 186.027 126.853 185.45C126.099 184.888 125.721 184.147 125.721 183.228C125.721 182.706 125.893 182.254 126.236 181.869C126.565 181.499 127.004 181.314 127.553 181.314C128.102 181.314 128.541 181.458 128.87 181.746C129.199 182.048 129.364 182.398 129.364 182.796C129.364 183.207 129.309 183.564 129.199 183.866L128.541 183.866C128.459 184.085 128.417 184.332 128.417 184.607C128.417 185.471 128.904 185.903 129.879 185.903C130.853 185.903 131.566 185.396 132.019 184.38C132.472 183.379 132.705 181.643 132.719 179.173C132.005 180.285 130.969 180.84 129.611 180.84C128.253 180.84 127.183 180.47 126.401 179.729C125.618 179.002 125.227 177.904 125.227 176.436C125.227 174.968 125.742 173.774 126.771 172.855C127.8 171.936 129.179 171.476 130.908 171.476C134.818 171.476 136.773 173.658 136.773 178.021ZM130.661 180.161C131.127 180.161 131.525 179.983 131.854 179.626C132.17 179.283 132.389 178.872 132.513 178.391C132.623 177.925 132.678 177.307 132.678 176.539C132.678 175.785 132.678 175.256 132.678 174.954C132.664 174.666 132.643 174.316 132.616 173.905C132.575 173.507 132.52 173.212 132.451 173.02C132.383 172.841 132.287 172.649 132.163 172.444C131.944 172.087 131.594 171.909 131.113 171.909C130.633 171.909 130.276 171.998 130.043 172.176C129.796 172.368 129.618 172.684 129.508 173.123C129.344 173.768 129.261 174.57 129.261 175.531C129.261 176.491 129.268 177.129 129.282 177.445C129.282 177.76 129.295 178.09 129.323 178.433C129.35 178.789 129.398 179.057 129.467 179.235C129.522 179.414 129.597 179.585 129.693 179.75C129.872 180.024 130.194 180.161 130.661 180.161Z" fill="#2C2C2C"/>
</svg>
