<svg width="223" height="324" viewBox="0 0 223 324" fill="none" xmlns="http://www.w3.org/2000/svg">
<g clip-path="url(#clip0_2009_912)">
<path d="M222.449 314.064C222.449 319.1 218.333 323.223 213.287 323.223H9.48079C4.44759 323.223 0.333008 319.1 0.333008 314.064V9.49348C0.333008 4.45703 4.44759 0.333328 9.48079 0.333328H213.287C218.333 0.333328 222.449 4.45703 222.449 9.49348V314.064Z" fill="#F1EAD8" stroke="#2C2C2C" stroke-width="0.666667"/>
<path d="M19.0394 20.2729C20.7616 17.8562 23.2477 16.6479 26.4977 16.6479C27.5394 16.6479 28.6227 16.877 29.7477 17.3354C30.8866 17.7937 31.8866 18.4326 32.7477 19.252C34.5949 21.0298 35.5186 23.3076 35.5186 26.0854C35.5186 28.8632 34.588 31.2937 32.7269 33.377C30.8797 35.4465 28.4561 36.4812 25.4561 36.4812C21.4977 36.4812 18.5186 34.9118 16.5186 31.7729C14.8241 29.1201 13.9769 25.7868 13.9769 21.7729C13.9769 16.3145 15.1297 12.0576 17.4352 9.00204C19.7408 5.9326 22.6366 4.39788 26.1227 4.39788C28.5949 4.39788 30.6019 5.00899 32.1436 6.23121C33.6852 7.43954 34.4561 8.84232 34.4561 10.4395C34.4561 12.0229 33.8588 13.0923 32.6644 13.6479C32.2894 13.8284 31.8936 13.9187 31.4769 13.9187C30.6436 13.9187 29.9561 13.6409 29.4144 13.0854C28.8866 12.5298 28.6227 11.8632 28.6227 11.0854C28.6227 9.90482 29.1505 9.0576 30.2061 8.54371C29.6227 7.52982 28.4699 7.02288 26.7477 7.02288C24.5533 7.02288 22.6991 7.98121 21.1852 9.89788C19.6852 11.8145 18.9352 14.3632 18.9352 17.5437C18.9352 18.1826 18.9699 19.0923 19.0394 20.2729ZM19.7269 26.1687C19.7269 27.2104 19.9213 28.2937 20.3102 29.4187C20.6991 30.5437 21.1227 31.4118 21.5811 32.0229C22.5255 33.259 23.6922 33.877 25.0811 33.877C26.5394 33.877 27.7963 33.1965 28.8519 31.8354C29.9074 30.4604 30.4352 28.6618 30.4352 26.4395C30.4352 24.2173 29.9491 22.4812 28.9769 21.2312C28.0047 19.9673 26.7269 19.3354 25.1436 19.3354C23.5741 19.3354 22.2755 19.9604 21.2477 21.2104C20.2338 22.4465 19.7269 24.0993 19.7269 26.1687Z" fill="#2C2C2C"/>
<path d="M27.5881 58.3196C27.5881 58.3196 32.2927 54.556 32.2927 49.3383C32.2927 46.2839 29.5809 41.2128 23.3114 41.2128C17.042 41.2128 14.3302 46.2858 14.3302 49.3383C14.3302 54.556 19.0347 58.3196 19.0347 58.3196C13.8092 54.2489 4.49316 57.0281 4.49316 65.1635C4.49316 69.2362 7.82102 73.7169 13.0466 73.7169C19.316 73.7169 22.0278 66.873 22.0278 66.873C22.0278 66.873 22.8241 74.6736 18.179 78.8493H28.4438C23.7987 74.6756 24.595 66.873 24.595 66.873C24.595 66.873 27.3068 73.7169 33.5763 73.7169C38.8038 73.7169 42.1296 69.2342 42.1296 65.1635C42.1296 57.0281 32.8136 54.2489 27.5881 58.3196Z" fill="#2C2C2C"/>
<path d="M203.86 302.414C202.138 304.83 199.652 306.039 196.402 306.039C195.36 306.039 194.277 305.81 193.152 305.351C192.013 304.893 191.013 304.254 190.152 303.435C188.304 301.657 187.381 299.379 187.381 296.601C187.381 293.824 188.311 291.393 190.173 289.31C192.02 287.24 194.443 286.205 197.443 286.205C201.402 286.205 204.381 287.775 206.381 290.914C208.075 293.567 208.923 296.9 208.923 300.914C208.923 306.372 207.77 310.629 205.464 313.685C203.159 316.754 200.263 318.289 196.777 318.289C194.304 318.289 192.298 317.678 190.756 316.455C189.214 315.247 188.443 313.844 188.443 312.247C188.443 310.664 189.041 309.594 190.235 309.039C190.61 308.858 191.006 308.768 191.423 308.768C192.256 308.768 192.943 309.046 193.485 309.601C194.013 310.157 194.277 310.824 194.277 311.601C194.277 312.782 193.749 313.629 192.693 314.143C193.277 315.157 194.429 315.664 196.152 315.664C198.346 315.664 200.2 314.705 201.714 312.789C203.214 310.872 203.964 308.324 203.964 305.143C203.964 304.504 203.929 303.594 203.86 302.414ZM203.173 296.518C203.173 295.476 202.978 294.393 202.589 293.268C202.2 292.143 201.777 291.275 201.318 290.664C200.374 289.428 199.207 288.81 197.818 288.81C196.36 288.81 195.103 289.49 194.048 290.851C192.992 292.226 192.464 294.025 192.464 296.247C192.464 298.469 192.95 300.205 193.923 301.455C194.895 302.719 196.173 303.351 197.756 303.351C199.325 303.351 200.624 302.726 201.652 301.476C202.666 300.24 203.173 298.587 203.173 296.518Z" fill="#2C2C2C"/>
<path d="M195.311 264.987C195.311 264.987 190.607 268.751 190.607 273.968C190.607 277.023 193.319 282.094 199.588 282.094C205.857 282.094 208.569 277.021 208.569 273.968C208.569 268.751 203.865 264.987 203.865 264.987C209.09 269.058 218.406 266.278 218.406 258.143C218.406 254.07 215.078 249.59 209.853 249.59C203.583 249.59 200.872 256.434 200.872 256.434C200.872 256.434 200.075 248.633 204.72 244.457H194.456C199.101 248.631 198.304 256.434 198.304 256.434C198.304 256.434 195.593 249.59 189.323 249.59C184.096 249.59 180.77 254.072 180.77 258.143C180.77 266.278 190.086 269.058 195.311 264.987Z" fill="#2C2C2C"/>
<path d="M83.1634 63.3333C83.1634 63.3333 91.1199 56.9681 91.1199 48.1439C91.1199 42.978 86.5336 34.4018 75.9305 34.4018C65.3274 34.4018 60.7411 42.9814 60.7411 48.1439C60.7411 56.9681 68.6976 63.3333 68.6976 63.3333C59.86 56.4488 44.1045 61.149 44.1045 74.9079C44.1045 81.7957 49.7327 89.3736 58.5702 89.3736C69.1733 89.3736 73.7596 77.799 73.7596 77.799C73.7596 77.799 75.1064 90.9917 67.2504 98.0537H84.6106C76.7546 90.9951 78.1013 77.799 78.1013 77.799C78.1013 77.799 82.6876 89.3736 93.2907 89.3736C102.132 89.3736 107.756 81.7923 107.756 74.9079C107.756 61.149 92.0009 56.4488 83.1634 63.3333Z" fill="#2C2C2C"/>
<path d="M68.7575 261.659C68.7575 261.659 60.801 268.024 60.801 276.848C60.801 282.014 65.3873 290.59 75.9904 290.59C86.5935 290.59 91.1798 282.011 91.1798 276.848C91.1798 268.024 83.2233 261.659 83.2233 261.659C92.0609 268.543 107.816 263.843 107.816 250.084C107.816 243.196 102.188 235.618 93.3507 235.618C82.7476 235.618 78.1613 247.193 78.1613 247.193C78.1613 247.193 76.8145 234 84.6705 226.938H67.3103C75.1663 233.997 73.8196 247.193 73.8196 247.193C73.8196 247.193 69.2333 235.618 58.6302 235.618C49.7893 235.618 44.1644 243.2 44.1644 250.084C44.1644 263.843 59.92 268.543 68.7575 261.659Z" fill="#2C2C2C"/>
<path d="M83.1634 156.268C83.1634 156.268 91.1199 149.902 91.1199 141.078C91.1199 135.912 86.5336 127.336 75.9305 127.336C65.3274 127.336 60.7411 135.916 60.7411 141.078C60.7411 149.902 68.6976 156.268 68.6976 156.268C59.86 149.383 44.1045 154.083 44.1045 167.842C44.1045 174.73 49.7327 182.308 58.5702 182.308C69.1733 182.308 73.7596 170.733 73.7596 170.733C73.7596 170.733 75.1064 183.926 67.2504 190.988H84.6106C76.7546 183.929 78.1013 170.733 78.1013 170.733C78.1013 170.733 82.6876 182.308 93.2907 182.308C102.132 182.308 107.756 174.727 107.756 167.842C107.756 154.083 92.0009 149.383 83.1634 156.268Z" fill="#2C2C2C"/>
<path d="M153.544 63.1016C153.544 63.1016 161.501 56.7364 161.501 47.9123C161.501 42.7464 156.914 34.1701 146.311 34.1701C135.708 34.1701 131.122 42.7498 131.122 47.9123C131.122 56.7364 139.078 63.1016 139.078 63.1016C130.241 56.2172 114.485 60.9174 114.485 74.6762C114.485 81.5641 120.114 89.142 128.951 89.142C139.554 89.142 144.14 77.5674 144.14 77.5674C144.14 77.5674 145.487 90.7601 137.631 97.8221H154.991C147.135 90.7634 148.482 77.5674 148.482 77.5674C148.482 77.5674 153.068 89.142 163.672 89.142C172.512 89.142 178.137 81.5607 178.137 74.6762C178.137 60.9174 162.382 56.2172 153.544 63.1016Z" fill="#2C2C2C"/>
<path d="M139.137 261.427C139.137 261.427 131.181 267.792 131.181 276.617C131.181 281.782 135.767 290.359 146.37 290.359C156.973 290.359 161.56 281.779 161.56 276.617C161.56 267.792 153.603 261.427 153.603 261.427C162.441 268.312 178.196 263.611 178.196 249.853C178.196 242.965 172.568 235.387 163.731 235.387C153.127 235.387 148.541 246.961 148.541 246.961C148.541 246.961 147.194 233.769 155.05 226.707H137.69C145.546 233.765 144.199 246.961 144.199 246.961C144.199 246.961 139.613 235.387 129.01 235.387C120.169 235.387 114.544 242.968 114.544 249.853C114.544 263.611 130.3 268.312 139.137 261.427Z" fill="#2C2C2C"/>
<path d="M153.544 156.036C153.544 156.036 161.501 149.671 161.501 140.847C161.501 135.681 156.914 127.105 146.311 127.105C135.708 127.105 131.122 135.684 131.122 140.847C131.122 149.671 139.078 156.036 139.078 156.036C130.241 149.152 114.485 153.852 114.485 167.611C114.485 174.498 120.114 182.076 128.951 182.076C139.554 182.076 144.14 170.502 144.14 170.502C144.14 170.502 145.487 183.694 137.631 190.757H154.991C147.135 183.698 148.482 170.502 148.482 170.502C148.482 170.502 153.068 182.076 163.672 182.076C172.512 182.076 178.137 174.495 178.137 167.611C178.137 153.852 162.382 149.152 153.544 156.036Z" fill="#2C2C2C"/>
</g>
<defs>
<clipPath id="clip0_2009_912">
<rect width="222.783" height="323.556" fill="white"/>
</clipPath>
</defs>
</svg>
