<svg width="141" height="197" viewBox="0 0 141 197" fill="none" xmlns="http://www.w3.org/2000/svg">
<path d="M15.5598 196.927C7.24501 196.945 0.445226 190.296 0.427275 182.121L3.55719e-05 14.8992C-0.0179152 6.67413 6.76034 -0.0179147 15.111 3.60291e-05L125.609 0.204672C133.927 0.222622 140.694 6.91465 140.694 15.1217V181.988C140.694 190.145 133.948 196.787 125.666 196.798L15.5598 196.927Z" fill="#C9C9C9"/>
<path d="M16.9397 196.51C8.72186 196.51 2.04785 189.854 2.04785 181.665V14.8488C2.04785 6.66681 8.72186 0.00708008 16.9397 0.00708008H125.829C134.04 0.00708008 140.728 6.66322 140.728 14.8488V181.669C140.728 189.854 134.04 196.514 125.829 196.514L16.9397 196.51Z" fill="#F1EAD8"/>
<path d="M97.7593 14.1594L83.0791 32.6954L97.7593 51.2456L112.447 32.6954L97.7593 14.1594Z" fill="#D66753"/>
<path opacity="0.2" d="M97.6602 14.2815L97.7571 14.1594L112.444 32.6954L97.7571 51.2456L97.6602 51.1164V14.2815Z" fill="#616161"/>
<path d="M45.0043 79.7192L59.688 98.2552L45.0043 116.805L30.3242 98.2552L45.0043 79.7192Z" fill="#D66753"/>
<path opacity="0.2" d="M45.1013 79.8377L45.0043 79.7192L30.3242 98.2552L45.0043 116.805L45.1013 116.68V79.8377Z" fill="#616161"/>
<path d="M45.0043 145.272L59.688 163.818L45.0043 182.362L30.3242 163.818L45.0043 145.272Z" fill="#D66753"/>
<path opacity="0.2" d="M45.1013 145.401L45.0043 145.272L30.3242 163.818L45.0043 182.362L45.1013 182.239V145.401Z" fill="#616161"/>
<path d="M45.0043 14.1594L59.688 32.6954L45.0043 51.2456L30.3242 32.6954L45.0043 14.1594Z" fill="#D66753"/>
<path opacity="0.2" d="M45.1013 14.2815L45.0043 14.1594L30.3242 32.6954L45.0043 51.2456L45.1013 51.1164V14.2815Z" fill="#616161"/>
<path d="M97.7593 79.7192L83.0791 98.2552L97.7593 116.805L112.447 98.2552L97.7593 79.7192Z" fill="#D66753"/>
<path opacity="0.2" d="M97.6602 79.8377L97.7571 79.7192L112.444 98.2552L97.7571 116.805L97.6602 116.68V79.8377Z" fill="#616161"/>
<path d="M97.7593 145.272L83.0791 163.818L97.7593 182.362L112.447 163.818L97.7593 145.272Z" fill="#D66753"/>
<path opacity="0.2" d="M97.6602 145.401L97.7571 145.272L112.444 163.818L97.7571 182.362L97.6602 182.239V145.401Z" fill="#616161"/>
<path d="M13.728 44.6974L9.45215 39.2979L13.728 33.9019L18.0075 39.2979L13.728 44.6974Z" fill="#D66753"/>
<path opacity="0.2" d="M13.7273 33.9019L13.6914 33.9485V44.6579L13.7273 44.6974L18.0067 39.2979L13.7273 33.9019Z" fill="#616161"/>
<path d="M129.956 153.662L134.228 159.058L129.956 164.458L125.677 159.058L129.956 153.662Z" fill="#D66753"/>
<path opacity="0.2" d="M129.981 153.691L129.956 153.662L125.677 159.058L129.956 164.458L129.981 164.418V153.691Z" fill="#616161"/>
<path d="M7.6957 23.1544C7.6957 20.5064 8.28567 18.462 9.46562 17.0214C10.6593 15.5808 12.292 14.8605 14.3638 14.8605C15.777 14.8605 16.8609 15.1486 17.6155 15.7248C18.3701 16.2874 18.7474 17.0283 18.7474 17.9475C18.7474 18.4689 18.5759 18.9217 18.2329 19.3058C17.9036 19.6763 17.4646 19.8615 16.9157 19.8615C16.3669 19.8615 15.9279 19.7174 15.5986 19.4293C15.2693 19.1275 15.1047 18.7776 15.1047 18.3797C15.1047 17.9681 15.1595 17.6114 15.2693 17.3095H15.9279C16.0102 17.09 16.0514 16.843 16.0514 16.5686C16.0514 15.7043 15.5643 15.2721 14.5902 15.2721C13.616 15.2721 12.9026 15.7797 12.4498 16.795C11.997 17.7966 11.7638 19.5322 11.75 22.0019C12.4635 20.8905 13.4994 20.3349 14.8577 20.3349C16.216 20.3349 17.2862 20.7053 18.0683 21.4462C18.8503 22.1734 19.2413 23.271 19.2413 24.7391C19.2413 26.2072 18.7268 27.4008 17.6978 28.3201C16.6688 29.2393 15.2899 29.699 13.5611 29.699C9.65084 29.699 7.6957 27.5174 7.6957 23.1544ZM13.8081 21.014C13.3416 21.014 12.9437 21.1924 12.6144 21.5491C12.2989 21.8921 12.0793 22.3037 11.9559 22.7839C11.8461 23.2504 11.7912 23.8678 11.7912 24.6362C11.7912 25.3908 11.7912 25.919 11.7912 26.2209C11.8049 26.509 11.8255 26.8589 11.853 27.2705C11.8941 27.6684 11.949 27.9633 12.0176 28.1554C12.0862 28.3338 12.1822 28.5259 12.3057 28.7317C12.5252 29.0884 12.8751 29.2668 13.3553 29.2668C13.8355 29.2668 14.1923 29.1776 14.4255 28.9992C14.6725 28.8071 14.8508 28.4916 14.9606 28.0525C15.1252 27.4077 15.2076 26.605 15.2076 25.6446C15.2076 24.6842 15.2007 24.0462 15.187 23.7306C15.187 23.4151 15.1733 23.0858 15.1458 22.7428C15.1184 22.386 15.0704 22.1185 15.0018 21.9401C14.9469 21.7618 14.8714 21.5903 14.7754 21.4256C14.597 21.1512 14.2746 21.014 13.8081 21.014Z" fill="#D66753"/>
<path d="M135.177 175.913C135.177 178.561 134.587 180.605 133.407 182.046C132.214 183.486 130.581 184.207 128.509 184.207C127.096 184.207 126.012 183.919 125.258 183.342C124.503 182.78 124.126 182.039 124.126 181.12C124.126 180.598 124.297 180.145 124.64 179.761C124.969 179.391 125.408 179.206 125.957 179.206C126.506 179.206 126.945 179.35 127.274 179.638C127.604 179.94 127.768 180.29 127.768 180.687C127.768 181.099 127.714 181.456 127.604 181.758L126.945 181.758C126.863 181.977 126.822 182.224 126.822 182.499C126.822 183.363 127.309 183.795 128.283 183.795C129.257 183.795 129.97 183.287 130.423 182.272C130.876 181.271 131.109 179.535 131.123 177.065C130.41 178.177 129.374 178.732 128.015 178.732C126.657 178.732 125.587 178.362 124.805 177.621C124.023 176.894 123.632 175.796 123.632 174.328C123.632 172.86 124.146 171.666 125.175 170.747C126.204 169.828 127.583 169.368 129.312 169.368C133.222 169.368 135.177 171.55 135.177 175.913ZM129.065 178.053C129.531 178.053 129.929 177.875 130.259 177.518C130.574 177.175 130.794 176.763 130.917 176.283C131.027 175.817 131.082 175.199 131.082 174.431C131.082 173.676 131.082 173.148 131.082 172.846C131.068 172.558 131.048 172.208 131.02 171.797C130.979 171.399 130.924 171.104 130.855 170.912C130.787 170.733 130.691 170.541 130.567 170.335C130.348 169.979 129.998 169.8 129.518 169.8C129.038 169.8 128.681 169.89 128.448 170.068C128.201 170.26 128.022 170.576 127.912 171.015C127.748 171.659 127.665 172.462 127.665 173.423C127.665 174.383 127.672 175.021 127.686 175.337C127.686 175.652 127.7 175.981 127.727 176.324C127.755 176.681 127.803 176.949 127.871 177.127C127.926 177.305 128.002 177.477 128.098 177.642C128.276 177.916 128.598 178.053 129.065 178.053Z" fill="#D66753"/>
</svg>
