<svg width="143" height="200" viewBox="0 0 143 200" fill="none" xmlns="http://www.w3.org/2000/svg">
<path d="M15.8003 199.996C7.35625 200.018 0.456017 193.268 0.438066 184.964L3.50349e-05 15.1325C-0.0179157 6.77462 6.86446 -0.0143378 15.3444 2.27406e-05L127.576 0.208246C136.024 0.226197 142.895 7.02235 142.895 15.3587V184.828C142.895 193.11 136.052 199.856 127.626 199.867L15.8003 199.996Z" fill="#C9C9C9"/>
<path d="M17.2005 199.58C8.86421 199.58 2.0752 192.816 2.0752 184.501V15.0785C2.0752 6.76373 8.86421 0.00708008 17.2005 0.00708008H127.795C136.135 0.00708008 142.924 6.76373 142.924 15.0785V184.501C142.924 192.816 136.135 199.58 127.795 199.58H17.2005Z" fill="#F1EAD8"/>
<path d="M105.891 26.7464C106.021 26.1145 106.117 25.4791 106.107 24.8077C106.114 20.0328 102.226 16.1734 97.4653 16.177C92.6832 16.1806 88.8202 20.0364 88.8202 24.8077C88.8202 25.8417 89.0033 26.8254 89.3336 27.7337C85.1223 28.0568 81.8086 31.5751 81.7979 35.8725C81.8086 40.3889 85.4706 44.033 89.987 44.0401C91.1789 44.0437 95.4476 42.7154 96.3631 42.1769L90.8271 51.6656L104.315 51.6549L98.7793 42.1769C99.8886 42.8482 104.599 44.033 105.744 44.033C110.533 44.033 114.407 40.1556 114.396 35.3807C114.411 30.6561 110.605 26.8218 105.891 26.7464Z" fill="#2C2C2C"/>
<path opacity="0.2" d="M105.889 26.7464C106.019 26.1145 106.116 25.4791 106.105 24.8077C106.112 20.0328 102.224 16.1734 97.4634 16.177C97.4418 16.177 97.431 16.1806 97.4238 16.1806V51.6584L104.313 51.6549L98.7774 42.1769C99.8867 42.8482 104.597 44.033 105.742 44.033C110.532 44.033 114.405 40.1556 114.395 35.3807C114.409 30.6561 110.603 26.8218 105.889 26.7464Z" fill="#616161"/>
<path d="M105.891 94.3172C106.021 93.6853 106.117 93.0499 106.107 92.3785C106.114 87.6072 102.226 83.7406 97.4653 83.7441C92.6832 83.7513 88.8202 87.6036 88.8202 92.3785C88.8202 93.4089 89.0033 94.3961 89.3336 95.3009C85.1223 95.6276 81.8086 99.1495 81.7979 103.44C81.8086 107.956 85.4706 111.604 89.987 111.611C91.1789 111.614 95.4476 110.286 96.3631 109.751L90.8271 119.236L104.315 119.226L98.7793 109.748C99.8886 110.419 104.599 111.604 105.744 111.604C110.533 111.607 114.407 107.726 114.396 102.951C114.411 98.2268 110.605 94.3925 105.891 94.3172Z" fill="#2C2C2C"/>
<path opacity="0.2" d="M105.889 94.3172C106.019 93.6853 106.116 93.0499 106.105 92.3785C106.112 87.6072 102.224 83.7406 97.4634 83.7441C97.4418 83.7441 97.431 83.7514 97.4238 83.7514V119.233L104.313 119.226L98.7774 109.748C99.8867 110.419 104.597 111.604 105.742 111.604C110.532 111.607 114.405 107.726 114.395 102.951C114.409 98.2268 110.603 94.3925 105.889 94.3172Z" fill="#616161"/>
<path d="M37.0044 26.7464C36.8716 26.1145 36.7746 25.4791 36.7854 24.8077C36.7746 20.0328 40.6664 16.1734 45.4341 16.177C50.2054 16.1806 54.0755 20.0364 54.0755 24.8077C54.0755 25.8417 53.8853 26.8254 53.555 27.7337C57.759 28.0568 61.0799 31.5751 61.0907 35.8725C61.0799 40.3889 57.4216 44.033 52.9124 44.0401C51.7097 44.0437 47.4445 42.7154 46.5254 42.1769L52.0615 51.6656L38.5733 51.6549L44.1093 42.1769C43 42.8482 38.2897 44.033 37.1445 44.033C32.366 44.033 28.4922 40.1556 28.4922 35.3807C28.4922 30.6561 32.287 26.8218 37.0044 26.7464Z" fill="#2C2C2C"/>
<path opacity="0.2" d="M37.0044 26.7464C36.8716 26.1145 36.7746 25.4791 36.7854 24.8077C36.7746 20.0328 40.6664 16.1734 45.4341 16.177C45.4448 16.177 45.4556 16.1806 45.4628 16.1806V51.6584L38.5733 51.6549L44.1093 42.1769C43 42.8482 38.2897 44.033 37.1445 44.033C32.366 44.033 28.4922 40.1556 28.4922 35.3807C28.4922 30.6561 32.287 26.8218 37.0044 26.7464Z" fill="#616161"/>
<path d="M37.0044 94.3172C36.8716 93.6853 36.7746 93.0499 36.7854 92.3785C36.7746 87.6072 40.6664 83.7406 45.4341 83.7441C50.2054 83.7513 54.0755 87.6036 54.0755 92.3785C54.0755 93.4089 53.8853 94.3961 53.555 95.3009C57.759 95.6276 61.0799 99.1495 61.0907 103.44C61.0799 107.956 57.4216 111.604 52.9124 111.611C51.7097 111.614 47.4445 110.286 46.5254 109.751L52.0615 119.236L38.5733 119.226L44.1093 109.748C43 110.419 38.2897 111.604 37.1445 111.604C32.366 111.607 28.4922 107.726 28.4922 102.951C28.4922 98.2268 32.287 94.3925 37.0044 94.3172Z" fill="#2C2C2C"/>
<path opacity="0.2" d="M37.0044 94.3172C36.8716 93.6853 36.7746 93.0499 36.7854 92.3785C36.7746 87.6072 40.6664 83.7406 45.4341 83.7441C45.4448 83.7441 45.4556 83.7514 45.4628 83.7514V119.233L38.5733 119.226L44.1093 109.748C43 110.419 38.2897 111.604 37.1445 111.604C32.366 111.607 28.4922 107.726 28.4922 102.951C28.4922 98.2268 32.287 94.3925 37.0044 94.3172Z" fill="#616161"/>
<path d="M105.891 172.826C106.021 173.455 106.117 174.09 106.107 174.761C106.114 179.533 102.226 183.399 97.4653 183.396C92.6832 183.385 88.8202 179.54 88.8202 174.761C88.8202 173.728 89.0033 172.744 89.3336 171.835C85.1223 171.512 81.8086 167.994 81.7979 163.7C81.8086 159.184 85.4706 155.533 89.987 155.533C91.1789 155.522 95.4476 156.857 96.3631 157.396L90.8271 147.904L104.315 147.911L98.7793 157.396C99.8886 156.721 104.599 155.536 105.744 155.536C110.533 155.529 114.407 159.41 114.396 164.189C114.411 168.92 110.605 172.755 105.891 172.826Z" fill="#2C2C2C"/>
<path opacity="0.2" d="M105.889 172.826C106.019 173.455 106.116 174.09 106.105 174.761C106.112 179.533 102.224 183.399 97.4634 183.396C97.4418 183.396 97.431 183.392 97.4238 183.392V147.914L104.313 147.918L98.7774 157.403C99.8867 156.728 104.597 155.543 105.742 155.543C110.532 155.536 114.405 159.417 114.395 164.196C114.409 168.92 110.603 172.755 105.889 172.826Z" fill="#616161"/>
<path d="M37.0044 172.826C36.8716 173.455 36.7746 174.09 36.7854 174.761C36.7746 179.533 40.6664 183.399 45.4341 183.396C50.2054 183.385 54.0755 179.54 54.0755 174.761C54.0755 173.728 53.8853 172.744 53.555 171.835C57.759 171.512 61.0799 167.994 61.0907 163.7C61.0799 159.184 57.4216 155.533 52.9124 155.533C51.7097 155.522 47.4445 156.857 46.5254 157.396L52.0615 147.904L38.5733 147.911L44.1093 157.396C43 156.721 38.2897 155.536 37.1445 155.536C32.366 155.529 28.4922 159.41 28.4922 164.189C28.4922 168.92 32.287 172.755 37.0044 172.826Z" fill="#2C2C2C"/>
<path opacity="0.2" d="M37.0044 172.826C36.8716 173.455 36.7746 174.09 36.7854 174.761C36.7746 179.533 40.6664 183.399 45.4341 183.396C45.4448 183.396 45.4556 183.392 45.4628 183.392V147.914L38.5733 147.918L44.1093 157.403C43 156.728 38.2897 155.543 37.1445 155.543C32.366 155.536 28.4922 159.417 28.4922 164.196C28.4922 168.92 32.287 172.755 37.0044 172.826Z" fill="#616161"/>
<path d="M15.3728 38.8168C15.4123 38.6732 15.4302 38.5296 15.4302 38.3717C15.4302 37.2874 14.5506 36.4006 13.4521 36.4006C12.3642 36.4006 11.481 37.2874 11.481 38.3717C11.481 38.6086 11.5206 38.8312 11.596 39.0394C10.6374 39.1148 9.87988 39.919 9.87988 40.8991C9.87988 41.9295 10.7128 42.7624 11.7467 42.766C12.0196 42.766 12.9961 42.4644 13.2043 42.3388L11.9334 44.5072L15.0102 44.5036L13.7465 42.3388C13.9942 42.4931 15.082 42.7624 15.3369 42.7624C16.4283 42.7624 17.315 41.8756 17.315 40.7878C17.3222 39.7072 16.4534 38.8348 15.3728 38.8168Z" fill="#2C2C2C"/>
<path opacity="0.2" d="M15.3729 38.8168C15.4124 38.6732 15.4303 38.5296 15.4303 38.3717C15.4303 37.2874 14.5507 36.4006 13.4521 36.4006C13.4521 36.4006 13.4522 36.4006 13.4414 36.4006V44.5036L15.0175 44.5L13.7537 42.3351C14.0014 42.4895 15.0893 42.7588 15.3442 42.7588C16.4356 42.7588 17.3223 41.872 17.3223 40.7842C17.3223 39.7072 16.4535 38.8348 15.3729 38.8168Z" fill="#616161"/>
<path d="M133.248 165.589C133.277 165.739 133.306 165.879 133.295 166.03C133.306 167.122 132.415 168.001 131.324 168.001C130.236 168.001 129.356 167.122 129.346 166.03C129.346 165.797 129.396 165.578 129.468 165.366C128.513 165.29 127.755 164.486 127.748 163.51C127.748 162.476 128.588 161.639 129.615 161.639C129.899 161.639 130.864 161.941 131.08 162.067L129.809 159.905H132.886L131.625 162.074C131.869 161.916 132.95 161.646 133.212 161.646C134.304 161.639 135.194 162.53 135.194 163.617C135.198 164.702 134.325 165.578 133.248 165.589Z" fill="#2C2C2C"/>
<path opacity="0.2" d="M133.248 165.589C133.277 165.739 133.305 165.879 133.295 166.03C133.305 167.122 132.415 168.001 131.324 168.001C131.324 168.001 131.324 168.001 131.316 168.001V159.905H132.889L131.629 162.074C131.873 161.916 132.954 161.646 133.216 161.646C134.307 161.639 135.197 162.53 135.197 163.617C135.197 164.702 134.325 165.578 133.248 165.589Z" fill="#616161"/>
<path d="M7.52773 25.8184C7.52773 23.1704 8.1177 21.1261 9.29765 19.6855C10.4913 18.2448 12.124 17.5245 14.1958 17.5245C15.609 17.5245 16.6929 17.8126 17.4475 18.3889C18.2021 18.9514 18.5794 19.6923 18.5794 20.6116C18.5794 21.133 18.4079 21.5857 18.0649 21.9699C17.7356 22.3403 17.2966 22.5256 16.7478 22.5256C16.199 22.5256 15.7599 22.3815 15.4306 22.0934C15.1013 21.7915 14.9367 21.4417 14.9367 21.0438C14.9367 20.6322 14.9916 20.2754 15.1013 19.9736H15.7599C15.8422 19.7541 15.8834 19.5071 15.8834 19.2327C15.8834 18.3683 15.3963 17.9361 14.4222 17.9361C13.448 17.9361 12.7346 18.4438 12.2818 19.4591C11.829 20.4607 11.5958 22.1963 11.5821 24.6659C12.2955 23.5546 13.3314 22.9989 14.6897 22.9989C16.048 22.9989 17.1182 23.3694 17.9003 24.1103C18.6823 24.8374 19.0734 25.9351 19.0734 27.4031C19.0734 28.8712 18.5589 30.0649 17.5298 30.9841C16.5008 31.9034 15.1219 32.363 13.3932 32.363C9.48287 32.363 7.52773 30.1815 7.52773 25.8184ZM13.6401 23.6781C13.1736 23.6781 12.7757 23.8564 12.4465 24.2132C12.1309 24.5562 11.9114 24.9678 11.7879 25.448C11.6781 25.9145 11.6232 26.5319 11.6232 27.3002C11.6232 28.0549 11.6232 28.5831 11.6232 28.8849C11.637 29.1731 11.6575 29.5229 11.685 29.9345C11.7261 30.3324 11.781 30.6274 11.8496 30.8195C11.9182 30.9979 12.0143 31.1899 12.1378 31.3957C12.3573 31.7525 12.7071 31.9308 13.1874 31.9308C13.6676 31.9308 14.0243 31.8417 14.2575 31.6633C14.5045 31.4712 14.6829 31.1556 14.7926 30.7166C14.9573 30.0717 15.0396 29.2691 15.0396 28.3087C15.0396 27.3483 15.0327 26.7103 15.019 26.3947C15.019 26.0791 15.0053 25.7498 14.9779 25.4068C14.9504 25.0501 14.9024 24.7826 14.8338 24.6042C14.7789 24.4258 14.7034 24.2543 14.6074 24.0897C14.429 23.8153 14.1066 23.6781 13.6401 23.6781Z" fill="#2C2C2C"/>
<path d="M137.296 178.577C137.296 181.225 136.707 183.269 135.527 184.71C134.333 186.15 132.7 186.871 130.628 186.871C129.215 186.871 128.131 186.583 127.377 186.006C126.622 185.444 126.245 184.703 126.245 183.784C126.245 183.262 126.416 182.81 126.759 182.425C127.089 182.055 127.528 181.87 128.076 181.87C128.625 181.87 129.064 182.014 129.394 182.302C129.723 182.604 129.888 182.954 129.888 183.351C129.888 183.763 129.833 184.12 129.723 184.422L129.064 184.422C128.982 184.641 128.941 184.888 128.941 185.163C128.941 186.027 129.428 186.459 130.402 186.459C131.376 186.459 132.09 185.951 132.542 184.936C132.995 183.935 133.228 182.199 133.242 179.729C132.529 180.841 131.493 181.396 130.134 181.396C128.776 181.396 127.706 181.026 126.924 180.285C126.142 179.558 125.751 178.46 125.751 176.992C125.751 175.524 126.265 174.33 127.294 173.411C128.323 172.492 129.702 172.032 131.431 172.032C135.341 172.032 137.296 174.214 137.296 178.577ZM131.184 180.717C131.651 180.717 132.048 180.539 132.378 180.182C132.693 179.839 132.913 179.427 133.036 178.947C133.146 178.481 133.201 177.863 133.201 177.095C133.201 176.34 133.201 175.812 133.201 175.51C133.187 175.222 133.167 174.872 133.139 174.461C133.098 174.063 133.043 173.768 132.975 173.576C132.906 173.397 132.81 173.205 132.686 173C132.467 172.643 132.117 172.464 131.637 172.464C131.157 172.464 130.8 172.554 130.567 172.732C130.32 172.924 130.141 173.24 130.032 173.679C129.867 174.324 129.785 175.126 129.785 176.087C129.785 177.047 129.791 177.685 129.805 178.001C129.805 178.316 129.819 178.645 129.846 178.988C129.874 179.345 129.922 179.613 129.99 179.791C130.045 179.969 130.121 180.141 130.217 180.306C130.395 180.58 130.718 180.717 131.184 180.717Z" fill="#2C2C2C"/>
</svg>
