<svg width="141" height="198" viewBox="0 0 141 198" fill="none" xmlns="http://www.w3.org/2000/svg">
<path d="M15.563 197.169C7.24479 197.184 0.455988 190.542 0.427267 182.368L3.55712e-05 15.1486C-0.0179148 6.92016 6.76022 0.235419 15.1108 0.249779L125.614 0.454425C133.925 0.472375 140.692 7.16787 140.692 15.3748V182.231C140.692 190.391 133.953 197.033 125.664 197.044L15.563 197.169Z" fill="#C9C9C9"/>
<path d="M16.9389 196.76C8.73193 196.76 2.04004 190.097 2.04004 181.915V15.0983C2.04004 6.91651 8.73193 0.260498 16.9389 0.260498H125.826C134.04 0.260498 140.725 6.91651 140.725 15.0983V181.915C140.725 190.097 134.04 196.76 125.826 196.76H16.9389Z" fill="#F1EAD8"/>
<path d="M97.7561 14.4087L83.0762 32.9443L97.7561 51.4943L112.45 32.9443L97.7561 14.4087Z" fill="#D66753"/>
<path opacity="0.2" d="M97.6572 14.5308L97.7542 14.4087L112.448 32.9443L97.7542 51.4943L97.6572 51.365V14.5308Z" fill="#616161"/>
<path d="M45.0021 79.9636L59.6855 98.5028L45.0021 117.049L30.3223 98.5028L45.0021 79.9636Z" fill="#D66753"/>
<path opacity="0.2" d="M45.099 80.0857L45.0021 79.9636L30.3223 98.5028L45.0021 117.049L45.099 116.927V80.0857Z" fill="#616161"/>
<path d="M70.3543 48.6118L85.0342 67.151L70.3543 85.7045L55.6602 67.151L70.3543 48.6118Z" fill="#D66753"/>
<path opacity="0.2" d="M70.4477 48.741L70.3543 48.6118L55.6602 67.151L70.3543 85.7045L70.4477 85.5753V48.741Z" fill="#616161"/>
<path d="M45.0021 145.519L59.6855 164.058L45.0021 182.604L30.3223 164.058L45.0021 145.519Z" fill="#D66753"/>
<path opacity="0.2" d="M45.099 145.641L45.0021 145.519L30.3223 164.058L45.0021 182.604L45.099 182.486V145.641Z" fill="#616161"/>
<path d="M45.0021 14.4087L59.6855 32.9443L45.0021 51.4943L30.3223 32.9443L45.0021 14.4087Z" fill="#D66753"/>
<path opacity="0.2" d="M45.099 14.5308L45.0021 14.4087L30.3223 32.9443L45.0021 51.4943L45.099 51.365V14.5308Z" fill="#616161"/>
<path d="M97.7561 79.9636L83.0762 98.5028L97.7561 117.049L112.45 98.5028L97.7561 79.9636Z" fill="#D66753"/>
<path opacity="0.2" d="M97.6572 80.0857L97.7542 79.9636L112.448 98.5028L97.7542 117.049L97.6572 116.927V80.0857Z" fill="#616161"/>
<path d="M97.7561 145.519L83.0762 164.058L97.7561 182.604L112.45 164.058L97.7561 145.519Z" fill="#D66753"/>
<path opacity="0.2" d="M97.6572 145.641L97.7542 145.519L112.448 164.058L97.7542 182.604L97.6572 182.486V145.641Z" fill="#616161"/>
<path d="M13.7384 44.9462L9.45898 39.5468L13.7384 34.1509L18.007 39.5468L13.7384 44.9462Z" fill="#D66753"/>
<path opacity="0.2" d="M13.7357 34.1509L13.6963 34.1903V44.9103L13.7357 44.9462L18.0043 39.5468L13.7357 34.1509Z" fill="#616161"/>
<path d="M129.953 153.909L134.229 159.305L129.953 164.701L125.681 159.305L129.953 153.909Z" fill="#D66753"/>
<path opacity="0.2" d="M129.978 153.938L129.953 153.909L125.681 159.305L129.953 164.701L129.978 164.665V153.938Z" fill="#616161"/>
<path d="M13.0703 30.137C12.3294 30.137 11.7463 29.938 11.321 29.5401C10.8957 29.1285 10.683 28.6277 10.683 28.0378C10.683 27.4341 10.882 26.7755 11.2798 26.0621C11.6914 25.3349 12.5764 24.1824 13.9347 22.6046L17.3304 18.6738H12.0619C11.0878 18.6738 10.4429 18.7973 10.1273 19.0443C9.82551 19.2775 9.58541 19.8469 9.40704 20.7524H9.07776L9.30414 15.5251H18.524V17.7477L16.2396 21.7403C15.2244 23.5376 14.5726 24.8273 14.2845 25.6093C14.0101 26.3777 13.8729 27.1117 13.8729 27.8114C13.8729 28.5111 14.0787 29.156 14.4903 29.7459L14.3463 29.9929C13.9621 30.0889 13.5368 30.137 13.0703 30.137Z" fill="#D66753"/>
<path d="M129.8 169.803C130.541 169.803 131.124 170.002 131.549 170.4C131.974 170.811 132.187 171.312 132.187 171.902C132.187 172.506 131.988 173.164 131.59 173.878C131.179 174.605 130.294 175.757 128.935 177.335L125.54 181.266L130.808 181.266C131.782 181.266 132.427 181.143 132.743 180.896C133.045 180.662 133.285 180.093 133.463 179.188L133.792 179.188L133.566 184.415L124.346 184.415L124.346 182.192L126.63 178.2C127.646 176.402 128.297 175.113 128.586 174.331C128.86 173.562 128.997 172.828 128.997 172.129C128.997 171.429 128.791 170.784 128.38 170.194L128.524 169.947C128.908 169.851 129.333 169.803 129.8 169.803Z" fill="#D66753"/>
</svg>
