<svg width="143" height="201" viewBox="0 0 143 201" fill="none" xmlns="http://www.w3.org/2000/svg">
<path d="M15.7965 200.062C7.34902 200.073 0.456009 193.323 0.438059 185.016L3.50527e-05 15.1942C-0.0179154 6.8401 6.86072 0.0512543 15.3405 0.0620245L127.57 0.270258C136.007 0.291799 142.882 7.09142 142.882 15.4312V184.887C142.882 193.173 136.036 199.918 127.624 199.933L15.7965 200.062Z" fill="#C9C9C9"/>
<path d="M17.1976 199.638C8.85067 199.638 2.06543 192.875 2.06543 184.567V15.144C2.06543 6.83654 8.85067 0.076416 17.1976 0.076416H127.783C136.123 0.076416 142.908 6.83654 142.908 15.144V184.564C142.908 192.871 136.123 199.635 127.783 199.635L17.1976 199.638Z" fill="#F1EAD8"/>
<path d="M18.4858 38.6662C18.3458 41.1756 13.3305 44.9704 13.3305 44.9704C13.3305 44.9704 8.17871 41.1433 8.17871 38.6339C8.17871 36.9142 9.5896 35.5212 11.3021 35.5212C12.275 35.5212 13.3448 36.3901 13.3448 36.3901C13.3448 36.3901 14.368 35.5213 15.3732 35.5356C17.0965 35.5572 18.5756 36.9465 18.4858 38.6662Z" fill="#D66753"/>
<path opacity="0.2" d="M15.3732 35.5392C14.3716 35.5249 13.3448 36.3937 13.3448 36.3937C13.3448 36.3937 13.334 36.3829 13.3125 36.3721V44.9632L13.3269 44.974C13.3269 44.974 18.3422 41.1756 18.4822 38.6698C18.5756 36.9465 17.0965 35.5572 15.3732 35.5392Z" fill="#616161"/>
<path d="M126.277 164.915C126.417 162.366 131.547 158.489 131.547 158.489C131.547 158.489 136.814 162.391 136.814 164.955C136.814 166.71 135.367 168.128 133.605 168.128C132.621 168.128 131.522 167.238 131.522 167.238C131.522 167.238 130.481 168.128 129.465 168.11C127.695 168.085 126.187 166.678 126.277 164.915Z" fill="#D66753"/>
<path opacity="0.2" d="M129.461 168.11C130.477 168.128 131.518 167.238 131.518 167.238C131.518 167.238 131.525 167.245 131.558 167.263V158.493C131.543 158.485 131.543 158.485 131.543 158.485C131.543 158.485 126.413 162.363 126.273 164.912C126.187 166.678 127.695 168.085 129.461 168.11Z" fill="#616161"/>
<path d="M32.0175 28.7897C32.4052 35.9089 46.6687 46.715 46.6687 46.715C46.6687 46.715 61.3413 35.8263 61.3413 28.7036C61.3413 23.7995 57.3312 19.8433 52.4343 19.8433C49.6807 19.8433 46.622 22.3276 46.622 22.3276C46.622 22.3276 43.6997 19.8433 40.8779 19.8863C35.9702 19.9474 31.7554 23.8857 32.0175 28.7897Z" fill="#D66753"/>
<path opacity="0.2" d="M40.8745 19.8831C43.6963 19.84 46.6187 22.3244 46.6187 22.3244C46.6187 22.3244 46.651 22.2957 46.712 22.2454V46.6831C46.6869 46.7082 46.6653 46.7118 46.6653 46.7118C46.6653 46.7118 32.3984 35.9057 32.0142 28.7865C31.7557 23.8861 35.9705 19.9477 40.8745 19.8831Z" fill="#616161"/>
<path d="M114.128 28.7897C113.748 35.9089 99.4774 46.715 99.4774 46.715C99.4774 46.715 84.8154 35.8263 84.8154 28.7036C84.8154 23.7995 88.8185 19.8433 93.7118 19.8433C96.4653 19.8433 99.5312 22.3276 99.5312 22.3276C99.5312 22.3276 102.443 19.8433 105.268 19.8863C110.172 19.9474 114.387 23.8857 114.128 28.7897Z" fill="#D66753"/>
<path opacity="0.2" d="M105.269 19.8831C102.443 19.84 99.5318 22.3244 99.5318 22.3244C99.5318 22.3244 99.4851 22.2957 99.4385 22.2454V46.6831C99.4708 46.7082 99.478 46.7118 99.478 46.7118C99.478 46.7118 113.749 35.9057 114.129 28.7865C114.388 23.8861 110.173 19.9477 105.269 19.8831Z" fill="#616161"/>
<path d="M57.8343 63.5275C58.2184 70.6466 72.4746 81.4528 72.4746 81.4528C72.4746 81.4528 87.1473 70.564 87.1473 63.4377C87.1473 58.5337 83.148 54.5774 78.2475 54.5774C75.5011 54.5774 72.4351 57.0653 72.4351 57.0653C72.4351 57.0653 69.5164 54.5774 66.6838 54.6241C61.7798 54.6887 57.5794 58.627 57.8343 63.5275Z" fill="#D66753"/>
<path opacity="0.2" d="M66.6838 54.6276C69.5164 54.5809 72.4351 57.0689 72.4351 57.0689C72.4351 57.0689 72.4746 57.0366 72.5284 56.9863V81.4276C72.4889 81.4527 72.4746 81.4563 72.4746 81.4563C72.4746 81.4563 58.2184 70.6502 57.8343 63.531C57.5794 58.627 61.7798 54.6886 66.6838 54.6276Z" fill="#616161"/>
<path d="M32.0175 169.643C32.4052 162.531 46.6687 151.721 46.6687 151.721C46.6687 151.721 61.3413 162.61 61.3413 169.74C61.3413 174.641 57.3312 178.597 52.4343 178.597C49.6807 178.597 46.622 176.112 46.622 176.112C46.622 176.112 43.6997 178.597 40.8779 178.554C35.9702 178.489 31.7554 174.551 32.0175 169.643Z" fill="#D66753"/>
<path opacity="0.2" d="M40.8745 178.55C43.6963 178.593 46.6187 176.109 46.6187 176.109C46.6187 176.109 46.651 176.141 46.712 176.188V151.75C46.6869 151.725 46.6653 151.718 46.6653 151.718C46.6653 151.718 32.3984 162.528 32.0142 169.64C31.7557 174.551 35.9705 178.489 40.8745 178.55Z" fill="#616161"/>
<path d="M114.128 169.643C113.748 162.531 99.4774 151.721 99.4774 151.721C99.4774 151.721 84.8154 162.61 84.8154 169.74C84.8154 174.641 88.8185 178.597 93.7118 178.597C96.4653 178.597 99.5312 176.112 99.5312 176.112C99.5312 176.112 102.443 178.597 105.268 178.554C110.172 178.489 114.387 174.551 114.128 169.643Z" fill="#D66753"/>
<path opacity="0.2" d="M105.269 178.55C102.443 178.593 99.5318 176.109 99.5318 176.109C99.5318 176.109 99.4851 176.141 99.4385 176.188V151.75C99.4708 151.725 99.478 151.718 99.478 151.718C99.478 151.718 113.749 162.528 114.129 169.64C114.388 174.551 110.173 178.489 105.269 178.55Z" fill="#616161"/>
<path d="M32.0175 103.704C32.4052 96.5957 46.6687 85.7751 46.6687 85.7751C46.6687 85.7751 61.3413 96.6747 61.3413 103.797C61.3413 108.691 57.3312 112.651 52.4343 112.651C49.6807 112.651 46.622 110.17 46.622 110.17C46.622 110.17 43.6997 112.651 40.8779 112.611C35.9702 112.55 31.7554 108.608 32.0175 103.704Z" fill="#D66753"/>
<path opacity="0.2" d="M40.8745 112.611C43.6963 112.651 46.6187 110.17 46.6187 110.17C46.6187 110.17 46.651 110.202 46.712 110.245V85.8075C46.6869 85.7931 46.6653 85.7751 46.6653 85.7751C46.6653 85.7751 32.3984 96.5921 32.0142 103.704C31.7557 108.608 35.9705 112.55 40.8745 112.611Z" fill="#616161"/>
<path d="M114.128 103.704C113.748 96.5957 99.4774 85.7751 99.4774 85.7751C99.4774 85.7751 84.8154 96.6747 84.8154 103.797C84.8154 108.691 88.8185 112.651 93.7118 112.651C96.4653 112.651 99.5312 110.17 99.5312 110.17C99.5312 110.17 102.443 112.651 105.268 112.611C110.172 112.55 114.387 108.608 114.128 103.704Z" fill="#D66753"/>
<path opacity="0.2" d="M105.269 112.611C102.443 112.651 99.5318 110.17 99.5318 110.17C99.5318 110.17 99.4851 110.202 99.4385 110.245V85.8075C99.4708 85.7931 99.478 85.7751 99.478 85.7751C99.478 85.7751 113.749 96.5921 114.129 103.704C114.388 108.608 110.173 112.55 105.269 112.611Z" fill="#616161"/>
<path d="M13.3076 32.0481C12.5667 32.0481 11.9836 31.8491 11.5583 31.4513C11.133 31.0397 10.9203 30.5389 10.9203 29.9489C10.9203 29.3452 11.1193 28.6867 11.5171 27.9732C11.9287 27.2461 12.8137 26.0936 14.172 24.5158L17.5677 20.585H12.2992C11.3251 20.585 10.6802 20.7085 10.3647 20.9554C10.0628 21.1887 9.82271 21.758 9.64435 22.6636H9.31507L9.54145 17.4362H18.7613V19.6589L16.4769 23.6514C15.4617 25.4487 14.81 26.7384 14.5218 27.5205C14.2474 28.2888 14.1102 29.0228 14.1102 29.7225C14.1102 30.4223 14.316 31.0671 14.7276 31.6571L14.5836 31.904C14.1994 32.0001 13.7741 32.0481 13.3076 32.0481Z" fill="#D66753"/>
<path d="M130.036 171.714C130.777 171.714 131.36 171.913 131.785 172.311C132.211 172.723 132.423 173.223 132.423 173.813C132.423 174.417 132.224 175.076 131.827 175.789C131.415 176.516 130.53 177.669 129.172 179.246L125.776 183.177L131.045 183.177C132.019 183.177 132.664 183.054 132.979 182.807C133.281 182.574 133.521 182.004 133.699 181.099L134.029 181.099L133.802 186.326L124.582 186.326L124.582 184.103L126.867 180.111C127.882 178.313 128.534 177.024 128.822 176.242C129.096 175.473 129.234 174.739 129.234 174.04C129.234 173.34 129.028 172.695 128.616 172.105L128.76 171.858C129.144 171.762 129.57 171.714 130.036 171.714Z" fill="#D66753"/>
</svg>
