<svg width="143" height="201" viewBox="0 0 143 201" fill="none" xmlns="http://www.w3.org/2000/svg">
<path d="M15.8 200.055C7.35253 200.066 0.452393 193.32 0.434443 185.016L3.50162e-05 15.1836C-0.0179154 6.82593 6.8679 0.0442562 15.3405 0.0586165L127.563 0.26685C136.014 0.281211 142.885 7.08082 142.885 15.4206V184.88C142.885 193.166 136.039 199.915 127.62 199.922L15.8 200.055Z" fill="#C9C9C9"/>
<path d="M17.1973 199.631C8.85757 199.631 2.07227 192.871 2.07227 184.56V15.1366C2.07227 6.82555 8.85757 0.0654297 17.1973 0.0654297H127.786C136.13 0.0654297 142.915 6.82196 142.915 15.1366V184.56C142.915 192.871 136.13 199.631 127.786 199.631H17.1973Z" fill="#F1EAD8"/>
<path d="M106.935 26.8082C107.067 26.1763 107.154 25.5409 107.15 24.8695C107.157 20.0947 103.273 16.2318 98.505 16.2354C93.7301 16.2425 89.8601 20.0947 89.8601 24.8695C89.8601 25.8999 90.0467 26.8871 90.3842 27.7954C86.1695 28.1185 82.8558 31.6404 82.8486 35.9342C82.8558 40.4505 86.5178 44.0944 91.0269 44.1052C92.226 44.1052 96.4945 42.7804 97.4064 42.2383L91.8777 51.7269L105.366 51.7162L99.8298 42.2383C100.932 42.9097 105.649 44.0944 106.795 44.0944C111.58 44.0944 115.447 40.2171 115.436 35.4423C115.447 30.7178 111.645 26.8835 106.935 26.8082Z" fill="#2C2C2C"/>
<path opacity="0.2" d="M106.933 26.8081C107.066 26.1763 107.152 25.5409 107.148 24.8695C107.155 20.0947 103.271 16.2318 98.5033 16.2354C98.4925 16.2354 98.4782 16.2425 98.4639 16.2425V51.7233L105.364 51.7161L99.8281 42.2383C100.93 42.9097 105.648 44.0944 106.793 44.0944C111.578 44.0944 115.445 40.2171 115.434 35.4423C115.445 30.7178 111.643 26.8835 106.933 26.8081Z" fill="#616161"/>
<path d="M106.935 94.3775C107.067 93.7456 107.154 93.1102 107.15 92.4388C107.157 87.6676 103.273 83.8011 98.505 83.8047C93.7301 83.8155 89.8601 87.664 89.8601 92.4388C89.8601 93.4692 90.0467 94.4564 90.3842 95.3611C86.1695 95.6914 82.8558 99.2097 82.8486 103.5C82.8558 108.013 86.5178 111.66 91.0269 111.667C92.226 111.671 96.4945 110.343 97.4064 109.804L91.8777 119.289L105.366 119.278L99.8298 109.8C100.932 110.472 105.649 111.657 106.795 111.657C111.58 111.66 115.447 107.779 115.436 103.004C115.447 98.2871 111.645 94.4529 106.935 94.3775Z" fill="#2C2C2C"/>
<path opacity="0.2" d="M106.933 94.3775C107.066 93.7456 107.152 93.1102 107.148 92.4388C107.155 87.6676 103.271 83.8011 98.5033 83.8047C98.4925 83.8047 98.4782 83.8119 98.4639 83.8119V119.289L105.364 119.282L99.8281 109.804C100.93 110.475 105.648 111.66 106.793 111.66C111.578 111.664 115.445 107.783 115.434 103.008C115.445 98.2871 111.643 94.4529 106.933 94.3775Z" fill="#616161"/>
<path d="M79.5537 60.8387C79.6865 60.2068 79.7799 59.5714 79.762 58.9C79.7799 54.1288 75.8954 50.2623 71.1242 50.2659C66.3494 50.2731 62.4865 54.1252 62.4757 58.9C62.4757 59.9376 62.6624 60.9141 62.9998 61.8188C58.7887 62.1491 55.475 65.6673 55.4678 69.9539C55.4714 74.4702 59.1369 78.1177 63.6497 78.1213C64.8452 78.1285 69.1173 76.7966 70.0292 76.2617L64.4897 85.7467L77.9813 85.7359L72.4418 76.2545C73.5475 76.9294 78.2684 78.1106 79.4137 78.1106C84.1993 78.1142 88.0693 74.2369 88.0586 69.4585C88.0657 64.7483 84.2639 60.9069 79.5537 60.8387Z" fill="#2C2C2C"/>
<path opacity="0.2" d="M79.552 60.8387C79.6849 60.2068 79.7783 59.5714 79.7603 58.9C79.7783 54.1288 75.8938 50.2623 71.1226 50.2659C71.1118 50.2659 71.0974 50.2695 71.083 50.2695V85.7431L77.9796 85.7395L72.4401 76.2581C73.5459 76.933 78.2668 78.1142 79.412 78.1142C84.1976 78.1178 88.0677 74.2405 88.0569 69.462C88.0641 64.7483 84.2622 60.9069 79.552 60.8387Z" fill="#616161"/>
<path d="M38.0423 26.8082C37.9166 26.1763 37.8269 25.5409 37.8305 24.8695C37.8233 20.0947 41.7042 16.2318 46.4754 16.2354C51.2538 16.2425 55.1132 20.0947 55.1132 24.8695C55.1132 25.8999 54.9337 26.8871 54.6034 27.7954C58.8038 28.1185 62.1247 31.6404 62.1318 35.9342C62.1247 40.4505 58.4555 44.0944 53.9499 44.1052C52.7545 44.1052 48.4822 42.7804 47.574 42.2383L53.1027 51.7269L39.6219 51.7162L45.1507 42.2383C44.0485 42.9097 39.3347 44.0944 38.1859 44.0944C33.4039 44.0944 29.5303 40.2171 29.541 35.4423C29.5303 30.7178 33.3357 26.8835 38.0423 26.8082Z" fill="#2C2C2C"/>
<path opacity="0.2" d="M38.0423 26.8081C37.9166 26.1763 37.8269 25.5409 37.8305 24.8695C37.8233 20.0947 41.7042 16.2318 46.4754 16.2354C46.4898 16.2354 46.497 16.2425 46.5113 16.2425V51.7233L39.6219 51.7161L45.1507 42.2383C44.0485 42.9097 39.3347 44.0944 38.1859 44.0944C33.4039 44.0944 29.5303 40.2171 29.541 35.4423C29.5303 30.7178 33.3357 26.8835 38.0423 26.8081Z" fill="#616161"/>
<path d="M38.0423 94.3775C37.9166 93.7456 37.8269 93.1102 37.8305 92.4388C37.8233 87.6676 41.7042 83.8011 46.4754 83.8047C51.2538 83.8155 55.1132 87.664 55.1132 92.4388C55.1132 93.4692 54.9337 94.4564 54.6034 95.3611C58.8038 95.6914 62.1247 99.2097 62.1318 103.5C62.1247 108.013 58.4555 111.66 53.9499 111.667C52.7545 111.671 48.4822 110.343 47.574 109.804L53.1027 119.289L39.6219 119.278L45.1507 109.8C44.0485 110.472 39.3347 111.657 38.1859 111.657C33.4039 111.66 29.5303 107.779 29.541 103.004C29.5303 98.2871 33.3357 94.4529 38.0423 94.3775Z" fill="#2C2C2C"/>
<path opacity="0.2" d="M38.0423 94.3775C37.9166 93.7456 37.8269 93.1102 37.8305 92.4388C37.8233 87.6676 41.7042 83.8011 46.4754 83.8047C46.4898 83.8047 46.497 83.8119 46.5113 83.8119V119.289L39.6219 119.282L45.1507 109.804C44.0485 110.475 39.3347 111.66 38.1859 111.66C33.4039 111.664 29.5303 107.783 29.541 103.008C29.5303 98.2871 33.3357 94.4529 38.0423 94.3775Z" fill="#616161"/>
<path d="M106.935 172.888C107.067 173.517 107.154 174.152 107.15 174.824C107.157 179.595 103.273 183.461 98.505 183.458C93.7301 183.447 89.8601 179.602 89.8601 174.824C89.8601 173.79 90.0467 172.806 90.3842 171.898C86.1695 171.575 82.8558 168.056 82.8486 163.762C82.8558 159.246 86.5178 155.599 91.0269 155.595C92.226 155.584 96.4945 156.92 97.4064 157.462L91.8777 147.97L105.366 147.98L99.8298 157.465C100.932 156.791 105.649 155.609 106.795 155.609C111.58 155.602 115.447 159.483 115.436 164.262C115.447 168.975 111.645 172.809 106.935 172.888Z" fill="#2C2C2C"/>
<path opacity="0.2" d="M106.933 172.888C107.066 173.517 107.152 174.152 107.148 174.823C107.155 179.595 103.271 183.461 98.5033 183.458C98.4925 183.458 98.4782 183.454 98.4639 183.454V147.977L105.364 147.98L99.8281 157.465C100.93 156.79 105.648 155.609 106.793 155.609C111.578 155.602 115.445 159.483 115.434 164.261C115.445 168.975 111.643 172.809 106.933 172.888Z" fill="#616161"/>
<path d="M38.0423 172.888C37.9166 173.517 37.8269 174.152 37.8305 174.824C37.8233 179.595 41.7042 183.461 46.4754 183.458C51.2538 183.447 55.1132 179.602 55.1132 174.824C55.1132 173.79 54.9337 172.806 54.6034 171.898C58.8038 171.575 62.1247 168.056 62.1318 163.762C62.1247 159.246 58.4555 155.599 53.9499 155.595C52.7545 155.584 48.4822 156.92 47.574 157.462L53.1027 147.97L39.6219 147.98L45.1507 157.465C44.0485 156.791 39.3347 155.609 38.1859 155.609C33.4039 155.602 29.5303 159.483 29.541 164.262C29.5303 168.975 33.3357 172.809 38.0423 172.888Z" fill="#2C2C2C"/>
<path opacity="0.2" d="M38.0423 172.888C37.9166 173.516 37.8269 174.152 37.8305 174.823C37.8233 179.594 41.7042 183.461 46.4754 183.457C46.4898 183.457 46.497 183.454 46.5113 183.454V147.977L39.6219 147.98L45.1507 157.465C44.0485 156.79 39.3347 155.609 38.1859 155.609C33.4039 155.602 29.5303 159.483 29.541 164.261C29.5303 168.975 33.3357 172.809 38.0423 172.888Z" fill="#616161"/>
<path d="M16.7332 38.8815C16.7727 38.7344 16.7906 38.5943 16.787 38.4364C16.7906 37.3522 15.9003 36.469 14.8125 36.469C13.7211 36.469 12.8414 37.3558 12.8342 38.4364C12.8342 38.6733 12.881 38.8959 12.9564 39.1041C11.9978 39.1795 11.2402 39.9873 11.2402 40.9638C11.2402 41.9906 12.0732 42.827 13.0999 42.827C13.3764 42.827 14.3493 42.5255 14.5647 42.3998L13.301 44.5682L16.3705 44.5647L15.1068 42.3998C15.3582 42.5506 16.4387 42.8235 16.6972 42.8235C17.7886 42.8235 18.6717 41.9367 18.6717 40.8489C18.6789 39.7683 17.8138 38.8959 16.7332 38.8815Z" fill="#2C2C2C"/>
<path opacity="0.2" d="M16.7333 38.8815C16.7728 38.7344 16.7907 38.5943 16.7871 38.4364C16.7907 37.3522 15.9004 36.469 14.8126 36.469C14.8054 36.469 14.8018 36.469 14.8018 36.469V44.5718L16.3743 44.5682L15.1105 42.4034C15.3618 42.5542 16.4425 42.827 16.701 42.827C17.7924 42.827 18.6755 41.9403 18.6755 40.8525C18.6791 39.7683 17.8139 38.8959 16.7333 38.8815Z" fill="#616161"/>
<path d="M133.459 165.647C133.488 165.798 133.517 165.938 133.51 166.089C133.517 167.18 132.626 168.06 131.539 168.06C130.451 168.06 129.564 167.18 129.564 166.089C129.564 165.856 129.607 165.637 129.683 165.425C128.72 165.349 127.963 164.545 127.963 163.569C127.963 162.535 128.803 161.698 129.83 161.698C130.11 161.698 131.079 162 131.287 162.126L130.024 159.964H133.1L131.837 162.133C132.088 161.975 133.168 161.706 133.431 161.706C134.522 161.702 135.402 162.589 135.402 163.677C135.402 164.761 134.536 165.637 133.459 165.647Z" fill="#2C2C2C"/>
<path opacity="0.2" d="M133.46 165.647C133.489 165.798 133.518 165.938 133.51 166.089C133.518 167.18 132.627 168.06 131.539 168.06C131.532 168.06 131.532 168.06 131.532 168.06V159.964H133.105L131.841 162.133C132.092 161.975 133.173 161.706 133.435 161.706C134.526 161.702 135.406 162.589 135.406 163.677C135.402 164.761 134.537 165.637 133.46 165.647Z" fill="#616161"/>
<path d="M14.6142 32.6128C13.8734 32.6128 13.2903 32.4138 12.8649 32.016C12.4396 31.6044 12.227 31.1036 12.227 30.5136C12.227 29.9099 12.4259 29.2514 12.8238 28.5379C13.2354 27.8108 14.1203 26.6583 15.4786 25.0805L18.8743 21.1497H13.6058C12.6317 21.1497 11.9869 21.2731 11.6713 21.5201C11.3695 21.7534 11.1294 22.3227 10.951 23.2283H10.6217L10.8481 18.0009H20.068V20.2236L17.7836 24.2161C16.7683 26.0134 16.1166 27.3031 15.8285 28.0852C15.5541 28.8535 15.4169 29.5875 15.4169 30.2872C15.4169 30.987 15.6227 31.6318 16.0343 32.2218L15.8902 32.4687C15.5061 32.5648 15.0807 32.6128 14.6142 32.6128Z" fill="#2C2C2C"/>
<path d="M131.344 172.279C132.085 172.279 132.668 172.478 133.093 172.876C133.518 173.287 133.731 173.788 133.731 174.378C133.731 174.982 133.532 175.64 133.134 176.354C132.723 177.081 131.838 178.233 130.479 179.811L127.084 183.742L132.352 183.742C133.326 183.742 133.971 183.618 134.287 183.371C134.589 183.138 134.829 182.569 135.007 181.663L135.336 181.663L135.11 186.891L125.89 186.891L125.89 184.668L128.174 180.675C129.19 178.878 129.841 177.588 130.13 176.806C130.404 176.038 130.541 175.304 130.541 174.604C130.541 173.905 130.335 173.26 129.924 172.67L130.068 172.423C130.452 172.327 130.877 172.279 131.344 172.279Z" fill="#2C2C2C"/>
</svg>
