<svg width="223" height="324" viewBox="0 0 223 324" fill="none" xmlns="http://www.w3.org/2000/svg">
<g clip-path="url(#clip0_2009_1269)">
<path d="M222.449 314.064C222.449 319.1 218.333 323.223 213.287 323.223H9.48079C4.44759 323.223 0.333008 319.1 0.333008 314.064V9.49348C0.333008 4.45703 4.44759 0.333328 9.48079 0.333328H213.287C218.333 0.333328 222.449 4.45703 222.449 9.49348V314.064Z" fill="#F1EAD8" stroke="#2C2C2C" stroke-width="0.666667"/>
<path d="M19.7109 34.176C19.4609 33.8705 19.2526 33.4608 19.0859 32.9469C18.9332 32.433 18.8568 31.676 18.8568 30.676C18.8568 29.6622 19.0026 28.5024 19.2943 27.1969C19.5859 25.8913 19.9818 24.5719 20.4818 23.2385C20.9818 21.8913 21.5651 20.5441 22.2318 19.1969C22.8984 17.8497 23.5998 16.5163 24.3359 15.1969C25.072 13.8635 25.822 12.551 26.5859 11.2594C27.3637 9.95382 28.1068 8.68993 28.8151 7.46771H20.4401C17.9262 7.46771 16.3568 8.17604 15.7318 9.59271C15.5234 10.0649 15.3637 10.6205 15.2526 11.2594L15.0443 12.5719L12.3984 12.6135L13.8359 3.30104H31.8984L33.0651 5.98854C29.0373 11.7247 26.4123 17.3983 25.1901 23.0094C24.704 25.2455 24.3568 27.301 24.1484 29.176C23.954 31.0372 23.7665 32.301 23.5859 32.9677C23.4054 33.6205 23.1484 34.1205 22.8151 34.4677C22.4818 34.801 22.0859 34.9677 21.6276 34.9677C21.1832 34.9677 20.8151 34.9052 20.5234 34.7802C20.2318 34.6691 19.9609 34.4677 19.7109 34.176Z" fill="#D66753"/>
<path d="M203.4 289.995C203.65 290.301 203.859 290.711 204.025 291.224C204.178 291.738 204.255 292.495 204.255 293.495C204.255 294.509 204.109 295.669 203.817 296.974C203.525 298.28 203.13 299.599 202.63 300.933C202.13 302.28 201.546 303.627 200.88 304.974C200.213 306.322 199.512 307.655 198.775 308.974C198.039 310.308 197.289 311.62 196.525 312.912C195.748 314.217 195.005 315.481 194.296 316.704H202.671C205.185 316.704 206.755 315.995 207.38 314.579C207.588 314.106 207.748 313.551 207.859 312.912L208.067 311.599L210.713 311.558L209.275 320.87H191.213L190.046 318.183C194.074 312.447 196.699 306.773 197.921 301.162C198.407 298.926 198.755 296.87 198.963 294.995C199.157 293.134 199.345 291.87 199.525 291.204C199.706 290.551 199.963 290.051 200.296 289.704C200.63 289.37 201.025 289.204 201.484 289.204C201.928 289.204 202.296 289.266 202.588 289.391C202.88 289.502 203.15 289.704 203.4 289.995Z" fill="#D66753"/>
<path d="M29.0106 49.6764C24.8418 44.0366 22.6238 38.3049 22.6238 38.3049C22.6238 38.3049 20.4058 44.0366 16.237 49.6764C12.0662 55.3142 6.87012 58.9815 6.87012 58.9815C6.87012 58.9815 12.0662 62.6469 16.237 68.2887C20.4058 73.9265 22.6238 79.6582 22.6238 79.6582C22.6238 79.6582 24.8418 73.9265 29.0106 68.2887C33.1814 62.6469 38.3775 58.9815 38.3775 58.9815C38.3775 58.9815 33.1814 55.3142 29.0106 49.6764Z" fill="#D66753"/>
<path d="M207.215 255.366C203.046 249.726 200.828 243.995 200.828 243.995C200.828 243.995 198.61 249.726 194.441 255.366C190.27 261.004 185.074 264.671 185.074 264.671C185.074 264.671 190.27 268.337 194.441 273.978C198.61 279.616 200.828 285.348 200.828 285.348C200.828 285.348 203.046 279.616 207.215 273.978C211.385 268.337 216.582 264.671 216.582 264.671C216.582 264.671 211.385 261.004 207.215 255.366Z" fill="#D66753"/>
<path d="M160.165 241.855C152.859 231.971 148.972 221.927 148.972 221.927C148.972 221.927 145.085 231.971 137.779 241.855C130.469 251.736 121.363 258.163 121.363 258.163C121.363 258.163 130.469 264.586 137.779 274.473C145.085 284.354 148.972 294.399 148.972 294.399C148.972 294.399 152.859 284.354 160.165 274.473C167.474 264.586 176.58 258.163 176.58 258.163C176.58 258.163 167.474 251.736 160.165 241.855Z" fill="#D66753"/>
<path d="M160.165 49.3187C152.859 39.4349 148.972 29.39 148.972 29.39C148.972 29.39 145.085 39.4349 137.779 49.3187C130.469 59.1991 121.363 65.6261 121.363 65.6261C121.363 65.6261 130.469 72.0496 137.779 81.9369C145.085 91.8172 148.972 101.862 148.972 101.862C148.972 101.862 152.859 91.8172 160.165 81.9369C167.474 72.0496 176.58 65.6261 176.58 65.6261C176.58 65.6261 167.474 59.1991 160.165 49.3187Z" fill="#D66753"/>
<path d="M160.165 144.386C152.859 134.503 148.972 124.458 148.972 124.458C148.972 124.458 145.085 134.503 137.779 144.386C130.469 154.267 121.363 160.694 121.363 160.694C121.363 160.694 130.469 167.117 137.779 177.005C145.085 186.885 148.972 196.93 148.972 196.93C148.972 196.93 152.859 186.885 160.165 177.005C167.474 167.117 176.58 160.694 176.58 160.694C176.58 160.694 167.474 154.267 160.165 144.386Z" fill="#D66753"/>
<path d="M83.7437 242.013C76.4378 232.129 72.5508 222.084 72.5508 222.084C72.5508 222.084 68.6638 232.129 61.3579 242.013C54.0486 251.893 44.9424 258.32 44.9424 258.32C44.9424 258.32 54.0486 264.744 61.3579 274.631C68.6638 284.511 72.5508 294.556 72.5508 294.556C72.5508 294.556 76.4378 284.511 83.7437 274.631C91.053 264.744 100.159 258.32 100.159 258.32C100.159 258.32 91.053 251.893 83.7437 242.013Z" fill="#D66753"/>
<path d="M83.7437 49.4762C76.4378 39.5924 72.5508 29.5475 72.5508 29.5475C72.5508 29.5475 68.6638 39.5924 61.3579 49.4762C54.0486 59.3566 44.9424 65.7836 44.9424 65.7836C44.9424 65.7836 54.0486 72.2071 61.3579 82.0944C68.6638 91.9747 72.5508 102.02 72.5508 102.02C72.5508 102.02 76.4378 91.9747 83.7437 82.0944C91.053 72.2071 100.159 65.7836 100.159 65.7836C100.159 65.7836 91.053 59.3566 83.7437 49.4762Z" fill="#D66753"/>
<path d="M83.7437 144.544C76.4378 134.66 72.5508 124.615 72.5508 124.615C72.5508 124.615 68.6638 134.66 61.3579 144.544C54.0486 154.424 44.9424 160.851 44.9424 160.851C44.9424 160.851 54.0486 167.275 61.3579 177.162C68.6638 187.042 72.5508 197.087 72.5508 197.087C72.5508 197.087 76.4378 187.042 83.7437 177.162C91.053 167.275 100.159 160.851 100.159 160.851C100.159 160.851 91.053 154.424 83.7437 144.544Z" fill="#D66753"/>
<path d="M122.144 97.743C114.838 87.8592 110.951 77.8143 110.951 77.8143C110.951 77.8143 107.064 87.8592 99.7583 97.743C92.449 107.623 83.3428 114.05 83.3428 114.05C83.3428 114.05 92.449 120.474 99.7583 130.361C107.064 140.242 110.951 150.286 110.951 150.286C110.951 150.286 114.838 140.242 122.144 130.361C129.453 120.474 138.56 114.05 138.56 114.05C138.56 114.05 129.453 107.623 122.144 97.743Z" fill="#D66753"/>
</g>
<defs>
<clipPath id="clip0_2009_1269">
<rect width="222.783" height="323.556" fill="white"/>
</clipPath>
</defs>
</svg>
