<svg width="223" height="324" viewBox="0 0 223 324" fill="none" xmlns="http://www.w3.org/2000/svg">
<g clip-path="url(#clip0_2009_1207)">
<path d="M222.449 314.064C222.449 319.1 218.333 323.223 213.287 323.223H9.48079C4.44759 323.223 0.333008 319.1 0.333008 314.064V9.49348C0.333008 4.45703 4.44759 0.333328 9.48079 0.333328H213.287C218.333 0.333328 222.449 4.45703 222.449 9.49348V314.064Z" fill="#F1EAD8" stroke="#2C2C2C" stroke-width="0.666667"/>
<path d="M19.6019 19.5229C16.6436 17.4257 15.1644 15.0993 15.1644 12.5437C15.1644 9.97427 16.0741 7.97427 17.8936 6.54371C19.7269 5.11315 21.8866 4.39788 24.3727 4.39788C26.8727 4.39788 28.9699 5.09232 30.6644 6.48121C32.3727 7.85621 33.2269 9.7451 33.2269 12.1479C33.2269 13.5923 32.8033 15.009 31.9561 16.3979C31.1227 17.7729 30.0116 18.8007 28.6227 19.4812C30.5394 20.6062 31.8658 21.6132 32.6019 22.502C33.3519 23.3909 33.8936 24.252 34.2269 25.0854C34.5602 25.9048 34.7269 26.8562 34.7269 27.9395C34.7269 30.259 33.7616 32.2659 31.8311 33.9604C29.9144 35.6409 27.338 36.4812 24.1019 36.4812C20.8797 36.4812 18.3241 35.7312 16.4352 34.2312C14.5602 32.7312 13.6227 30.5576 13.6227 27.7104C13.6227 24.8632 14.8519 22.5645 17.3102 20.8145C18.0324 20.3007 18.7963 19.8701 19.6019 19.5229ZM26.3519 18.2104C28.3519 17.1409 29.3519 15.127 29.3519 12.1687C29.3519 9.66871 28.4213 8.00899 26.5602 7.18954C25.963 6.92565 25.3172 6.79371 24.6227 6.79371C23.2338 6.79371 22.0949 7.19649 21.2061 8.00204C20.3311 8.8076 19.8936 9.7451 19.8936 10.8145C19.8936 11.884 20.0741 12.752 20.4352 13.4187C20.7963 14.0854 21.338 14.759 22.0602 15.4395C22.7963 16.1201 24.2269 17.0437 26.3519 18.2104ZM21.8519 20.9812C19.2547 22.009 17.9561 24.377 17.9561 28.0854C17.9561 29.6409 18.4908 30.9951 19.5602 32.1479C20.6436 33.3007 22.0533 33.877 23.7894 33.877C25.5394 33.877 26.9491 33.4395 28.0186 32.5645C29.1019 31.6895 29.6436 30.4743 29.6436 28.9187C29.6436 26.7798 27.9838 24.7034 24.6644 22.6895C23.7338 22.134 22.7963 21.5645 21.8519 20.9812Z" fill="#2C2C2C"/>
<path d="M27.5881 58.3196C27.5881 58.3196 32.2927 54.556 32.2927 49.3383C32.2927 46.2839 29.5809 41.2128 23.3114 41.2128C17.042 41.2128 14.3302 46.2858 14.3302 49.3383C14.3302 54.556 19.0347 58.3196 19.0347 58.3196C13.8092 54.2489 4.49316 57.0281 4.49316 65.1635C4.49316 69.2362 7.82102 73.7169 13.0466 73.7169C19.316 73.7169 22.0278 66.873 22.0278 66.873C22.0278 66.873 22.8241 74.6736 18.179 78.8493H28.4438C23.7987 74.6756 24.595 66.873 24.595 66.873C24.595 66.873 27.3068 73.7169 33.5763 73.7169C38.8038 73.7169 42.1296 69.2342 42.1296 65.1635C42.1296 57.0281 32.8136 54.2489 27.5881 58.3196Z" fill="#2C2C2C"/>
<path d="M203.298 303.164C206.256 305.261 207.735 307.587 207.735 310.143C207.735 312.712 206.825 314.712 205.006 316.143C203.173 317.574 201.013 318.289 198.527 318.289C196.027 318.289 193.929 317.594 192.235 316.205C190.527 314.83 189.673 312.942 189.673 310.539C189.673 309.094 190.096 307.678 190.943 306.289C191.777 304.914 192.888 303.886 194.277 303.205C192.36 302.08 191.034 301.074 190.298 300.185C189.548 299.296 189.006 298.435 188.673 297.601C188.339 296.782 188.173 295.83 188.173 294.747C188.173 292.428 189.138 290.421 191.068 288.726C192.985 287.046 195.561 286.205 198.798 286.205C202.02 286.205 204.575 286.955 206.464 288.455C208.339 289.955 209.277 292.129 209.277 294.976C209.277 297.824 208.048 300.122 205.589 301.872C204.867 302.386 204.103 302.817 203.298 303.164ZM196.548 304.476C194.548 305.546 193.548 307.56 193.548 310.518C193.548 313.018 194.478 314.678 196.339 315.497C196.936 315.761 197.582 315.893 198.277 315.893C199.666 315.893 200.804 315.49 201.693 314.685C202.568 313.879 203.006 312.942 203.006 311.872C203.006 310.803 202.825 309.935 202.464 309.268C202.103 308.601 201.561 307.928 200.839 307.247C200.103 306.567 198.673 305.643 196.548 304.476ZM201.048 301.705C203.645 300.678 204.943 298.31 204.943 294.601C204.943 293.046 204.409 291.692 203.339 290.539C202.256 289.386 200.846 288.81 199.11 288.81C197.36 288.81 195.95 289.247 194.881 290.122C193.798 290.997 193.256 292.212 193.256 293.768C193.256 295.907 194.916 297.983 198.235 299.997C199.166 300.553 200.103 301.122 201.048 301.705Z" fill="#2C2C2C"/>
<path d="M195.311 264.987C195.311 264.987 190.607 268.751 190.607 273.968C190.607 277.023 193.319 282.094 199.588 282.094C205.857 282.094 208.569 277.021 208.569 273.968C208.569 268.751 203.865 264.987 203.865 264.987C209.09 269.058 218.406 266.278 218.406 258.143C218.406 254.07 215.078 249.59 209.853 249.59C203.583 249.59 200.872 256.434 200.872 256.434C200.872 256.434 200.075 248.633 204.72 244.457H194.456C199.101 248.631 198.304 256.434 198.304 256.434C198.304 256.434 195.593 249.59 189.323 249.59C184.096 249.59 180.77 254.072 180.77 258.143C180.77 266.278 190.086 269.058 195.311 264.987Z" fill="#2C2C2C"/>
<path d="M83.1634 39.8666C83.1634 39.8666 91.1199 33.5014 91.1199 24.6772C91.1199 19.5114 86.5336 10.9351 75.9305 10.9351C65.3274 10.9351 60.7411 19.5147 60.7411 24.6772C60.7411 33.5014 68.6976 39.8666 68.6976 39.8666C59.86 32.9821 44.1045 37.6823 44.1045 51.4412C44.1045 58.329 49.7327 65.9069 58.5702 65.9069C69.1733 65.9069 73.7596 54.3323 73.7596 54.3323C73.7596 54.3323 75.1064 67.525 67.2504 74.5871H84.6106C76.7546 67.5284 78.1013 54.3323 78.1013 54.3323C78.1013 54.3323 82.6876 65.9069 93.2907 65.9069C102.132 65.9069 107.756 58.3257 107.756 51.4412C107.756 37.6823 92.0009 32.9821 83.1634 39.8666Z" fill="#2C2C2C"/>
<path d="M68.7575 282.992C68.7575 282.992 60.801 289.357 60.801 298.181C60.801 303.347 65.3873 311.924 75.9904 311.924C86.5935 311.924 91.1798 303.344 91.1798 298.181C91.1798 289.357 83.2233 282.992 83.2233 282.992C92.0609 289.877 107.816 285.176 107.816 271.418C107.816 264.53 102.188 256.952 93.3507 256.952C82.7476 256.952 78.1613 268.526 78.1613 268.526C78.1613 268.526 76.8145 255.334 84.6705 248.272H67.3103C75.1663 255.33 73.8196 268.526 73.8196 268.526C73.8196 268.526 69.2333 256.952 58.6302 256.952C49.7893 256.952 44.1644 264.533 44.1644 271.418C44.1644 285.176 59.92 289.877 68.7575 282.992Z" fill="#2C2C2C"/>
<path d="M83.1634 160.534C83.1634 160.534 91.1199 154.169 91.1199 145.345C91.1199 140.179 86.5336 131.603 75.9305 131.603C65.3274 131.603 60.7411 140.182 60.7411 145.345C60.7411 154.169 68.6976 160.534 68.6976 160.534C59.86 153.65 44.1045 158.35 44.1045 172.109C44.1045 178.997 49.7327 186.575 58.5702 186.575C69.1733 186.575 73.7596 175 73.7596 175C73.7596 175 75.1064 188.193 67.2504 195.255H84.6106C76.7546 188.196 78.1013 175 78.1013 175C78.1013 175 82.6876 186.575 93.2907 186.575C102.132 186.575 107.756 178.993 107.756 172.109C107.756 158.35 92.0009 153.65 83.1634 160.534Z" fill="#2C2C2C"/>
<path d="M153.544 39.635C153.544 39.635 161.501 33.2698 161.501 24.4456C161.501 19.2797 156.914 10.7035 146.311 10.7035C135.708 10.7035 131.122 19.2831 131.122 24.4456C131.122 33.2698 139.078 39.635 139.078 39.635C130.241 32.7505 114.485 37.4507 114.485 51.2096C114.485 58.0974 120.114 65.6753 128.951 65.6753C139.554 65.6753 144.14 54.1007 144.14 54.1007C144.14 54.1007 145.487 67.2934 137.631 74.3554H154.991C147.135 67.2968 148.482 54.1007 148.482 54.1007C148.482 54.1007 153.068 65.6753 163.672 65.6753C172.512 65.6753 178.137 58.094 178.137 51.2096C178.137 37.4507 162.382 32.7505 153.544 39.635Z" fill="#2C2C2C"/>
<path d="M139.137 282.76C139.137 282.76 131.181 289.126 131.181 297.95C131.181 303.116 135.767 311.692 146.37 311.692C156.973 311.692 161.56 303.112 161.56 297.95C161.56 289.126 153.603 282.76 153.603 282.76C162.441 289.645 178.196 284.945 178.196 271.186C178.196 264.298 172.568 256.72 163.731 256.72C153.127 256.72 148.541 268.295 148.541 268.295C148.541 268.295 147.194 255.102 155.05 248.04H137.69C145.546 255.099 144.199 268.295 144.199 268.295C144.199 268.295 139.613 256.72 129.01 256.72C120.169 256.72 114.544 264.301 114.544 271.186C114.544 284.945 130.3 289.645 139.137 282.76Z" fill="#2C2C2C"/>
<path d="M153.544 160.303C153.544 160.303 161.501 153.937 161.501 145.113C161.501 139.947 156.914 131.371 146.311 131.371C135.708 131.371 131.122 139.951 131.122 145.113C131.122 153.937 139.078 160.303 139.078 160.303C130.241 153.418 114.485 158.118 114.485 171.877C114.485 178.765 120.114 186.343 128.951 186.343C139.554 186.343 144.14 174.768 144.14 174.768C144.14 174.768 145.487 187.961 137.631 195.023H154.991C147.135 187.964 148.482 174.768 148.482 174.768C148.482 174.768 153.068 186.343 163.672 186.343C172.512 186.343 178.137 178.762 178.137 171.877C178.137 158.118 162.382 153.418 153.544 160.303Z" fill="#2C2C2C"/>
<path d="M117.741 100.871C117.741 100.871 125.697 94.506 125.697 85.6819C125.697 80.516 121.111 71.9397 110.508 71.9397C99.9045 71.9397 95.3183 80.5193 95.3183 85.6819C95.3183 94.506 103.275 100.871 103.275 100.871C94.4372 93.9868 78.6816 98.687 78.6816 112.446C78.6816 119.334 84.3098 126.912 93.1474 126.912C103.75 126.912 108.337 115.337 108.337 115.337C108.337 115.337 109.684 128.53 101.828 135.592H119.188C111.332 128.533 112.678 115.337 112.678 115.337C112.678 115.337 117.265 126.912 127.868 126.912C136.709 126.912 142.334 119.33 142.334 112.446C142.334 98.687 126.578 93.9868 117.741 100.871Z" fill="#2C2C2C"/>
<path d="M104.093 226.082C104.093 226.082 96.137 232.447 96.137 241.271C96.137 246.437 100.723 255.013 111.326 255.013C121.929 255.013 126.516 246.433 126.516 241.271C126.516 232.447 118.559 226.082 118.559 226.082C127.397 232.966 143.152 228.266 143.152 214.507C143.152 207.619 137.524 200.041 128.687 200.041C118.084 200.041 113.497 211.616 113.497 211.616C113.497 211.616 112.15 198.423 120.006 191.361H102.646C110.502 198.42 109.155 211.616 109.155 211.616C109.155 211.616 104.569 200.041 93.9661 200.041C85.1252 200.041 79.5004 207.622 79.5004 214.507C79.5004 228.266 95.2559 232.966 104.093 226.082Z" fill="#2C2C2C"/>
</g>
<defs>
<clipPath id="clip0_2009_1207">
<rect width="222.783" height="323.556" fill="white"/>
</clipPath>
</defs>
</svg>
