<svg width="143" height="200" viewBox="0 0 143 200" fill="none" xmlns="http://www.w3.org/2000/svg">
<path d="M15.8003 199.996C7.35266 200.011 0.459578 193.265 0.441627 184.957L3.5017e-05 15.1325C-0.0179157 6.76744 6.868 -0.0143378 15.3443 2.27647e-05L127.572 0.204686C136.024 0.219046 142.892 7.026 142.892 15.3587V184.832C142.892 193.114 136.049 199.856 127.63 199.871L15.8003 199.996Z" fill="#C9C9C9"/>
<path d="M17.2005 199.573C8.85699 199.573 2.0752 192.806 2.0752 184.498V15.0751C2.0752 6.76395 8.85699 0.00732422 17.2005 0.00732422H127.795C136.135 0.00732422 142.924 6.76754 142.924 15.0751V184.498C142.924 192.806 136.135 199.573 127.795 199.573H17.2005Z" fill="#F1EAD8"/>
<path d="M114.621 33.6905C114.635 30.0932 98.9604 14.6951 98.9604 14.6951C98.9604 14.6951 83.6878 30.5779 83.6807 33.6403C83.6771 38.8101 87.8596 43.007 93.033 43.0142C94.803 43.0142 96.4544 42.5367 97.8654 41.6822L91.9919 51.6879L106.238 51.7166L100.411 41.6893C101.807 42.5366 103.459 43.0356 105.229 43.05C110.399 43.0536 114.621 38.8747 114.621 33.6905Z" fill="#2C2C2C"/>
<path opacity="0.2" d="M114.621 33.6905C114.635 30.0932 98.9607 14.6951 98.9607 14.6951C98.9607 14.6951 98.9463 14.7094 98.9355 14.7165V51.7059L106.242 51.7202L100.415 41.6929C101.811 42.5402 103.463 43.0392 105.233 43.0536C110.399 43.0536 114.621 38.8747 114.621 33.6905Z" fill="#616161"/>
<path d="M114.621 78.0793C114.635 74.4819 98.9604 59.0837 98.9604 59.0837C98.9604 59.0837 83.6878 74.9666 83.6807 78.0219C83.6771 83.1953 87.8596 87.4029 93.033 87.4101C94.803 87.4172 96.4544 86.9253 97.8654 86.0709L91.9919 96.0767L106.238 96.1054L100.411 86.0852C101.807 86.9253 103.459 87.4316 105.229 87.4388C110.399 87.4531 114.621 83.267 114.621 78.0793Z" fill="#2C2C2C"/>
<path opacity="0.2" d="M114.621 78.0793C114.635 74.4819 98.9607 59.0837 98.9607 59.0837C98.9607 59.0837 98.9463 59.0909 98.9355 59.1124V96.0947L106.242 96.109L100.415 86.0888C101.811 86.9289 103.463 87.4352 105.233 87.4424C110.399 87.4532 114.621 83.267 114.621 78.0793Z" fill="#616161"/>
<path d="M30.4453 33.6905C30.431 30.0932 46.1056 14.6951 46.1056 14.6951C46.1056 14.6951 61.378 30.5779 61.3852 33.6403C61.3888 38.8101 57.2099 43.007 52.0329 43.0142C50.2665 43.0142 48.6079 42.5367 47.2041 41.6822L53.0776 51.6879L38.8247 51.7166L44.6515 41.6893C43.2585 42.5366 41.6071 43.0356 39.8336 43.05C34.6673 43.0536 30.4453 38.8747 30.4453 33.6905Z" fill="#2C2C2C"/>
<path opacity="0.2" d="M30.4453 33.6905C30.431 30.0932 46.1056 14.6951 46.1056 14.6951C46.1056 14.6951 46.1199 14.7094 46.1343 14.7165V51.7059L38.8247 51.7202L44.6515 41.6929C43.2585 42.5402 41.6071 43.0392 39.8336 43.0536C34.6673 43.0536 30.4453 38.8747 30.4453 33.6905Z" fill="#616161"/>
<path d="M30.4453 78.0793C30.431 74.4819 46.1056 59.0837 46.1056 59.0837C46.1056 59.0837 61.378 74.9666 61.3852 78.0219C61.3888 83.1953 57.2099 87.4029 52.0329 87.4101C50.2665 87.4172 48.6079 86.9253 47.2041 86.0709L53.0776 96.0767L38.8247 96.1054L44.6515 86.0852C43.2585 86.9253 41.6071 87.4316 39.8336 87.4388C34.6673 87.4531 30.4453 83.267 30.4453 78.0793Z" fill="#2C2C2C"/>
<path opacity="0.2" d="M30.4453 78.0793C30.431 74.4819 46.1056 59.0837 46.1056 59.0837C46.1056 59.0837 46.1199 59.0909 46.1343 59.1124V96.0947L38.8247 96.109L44.6515 86.0888C43.2585 86.9289 41.6071 87.4352 39.8336 87.4424C34.6673 87.4532 30.4453 83.267 30.4453 78.0793Z" fill="#616161"/>
<path d="M114.55 166.648C114.565 170.245 98.89 185.65 98.89 185.65C98.89 185.65 83.6175 169.775 83.6104 166.705C83.6068 161.532 87.7893 157.331 92.9627 157.324C94.729 157.317 96.3841 157.801 97.795 158.663L91.9216 148.65L106.174 148.629L100.344 158.649C101.741 157.801 103.388 157.295 105.162 157.288C110.328 157.277 114.55 161.456 114.55 166.648Z" fill="#2C2C2C"/>
<path opacity="0.2" d="M114.551 166.648C114.565 170.245 98.8904 185.65 98.8904 185.65C98.8904 185.65 98.876 185.636 98.8652 185.615V148.632L106.175 148.625L100.344 158.645C101.741 157.798 103.389 157.292 105.162 157.285C110.329 157.277 114.551 161.456 114.551 166.648Z" fill="#616161"/>
<path d="M114.55 122.253C114.565 125.85 98.89 141.255 98.89 141.255C98.89 141.255 83.6175 125.373 83.6104 122.31C83.6068 117.144 87.7893 112.936 92.9627 112.936C94.729 112.929 96.3841 113.414 97.795 114.261L91.9216 104.262L106.174 104.227L100.344 114.254C101.741 113.414 103.388 112.915 105.162 112.9C110.328 112.893 114.55 117.079 114.55 122.253Z" fill="#2C2C2C"/>
<path opacity="0.2" d="M114.551 122.253C114.565 125.85 98.8904 141.255 98.8904 141.255C98.8904 141.255 98.876 141.241 98.8652 141.227V104.244L106.175 104.223L100.344 114.25C101.741 113.41 103.389 112.911 105.162 112.897C110.329 112.893 114.551 117.079 114.551 122.253Z" fill="#616161"/>
<path d="M30.3789 166.648C30.3646 170.245 46.0356 185.65 46.0356 185.65C46.0356 185.65 61.3081 169.775 61.3117 166.705C61.3224 161.532 57.1363 157.331 51.9593 157.324C50.193 157.317 48.5379 157.801 47.1306 158.663L53.004 148.65L38.7511 148.629L44.5816 158.649C43.185 157.801 41.5335 157.295 39.7636 157.288C34.5938 157.277 30.3789 161.456 30.3789 166.648Z" fill="#2C2C2C"/>
<path opacity="0.2" d="M30.3789 166.648C30.3646 170.245 46.0356 185.65 46.0356 185.65C46.0356 185.65 46.0499 185.636 46.0643 185.615V148.632L38.7547 148.625L44.5851 158.645C43.1886 157.798 41.5371 157.292 39.7672 157.285C34.5938 157.277 30.3789 161.456 30.3789 166.648Z" fill="#616161"/>
<path d="M30.3789 122.253C30.3646 125.85 46.0356 141.255 46.0356 141.255C46.0356 141.255 61.3081 125.373 61.3117 122.31C61.3224 117.144 57.1363 112.936 51.9593 112.936C50.193 112.929 48.5379 113.414 47.1306 114.261L53.004 104.262L38.7511 104.227L44.5816 114.254C43.185 113.414 41.5335 112.915 39.7636 112.9C34.5938 112.893 30.3789 117.079 30.3789 122.253Z" fill="#2C2C2C"/>
<path opacity="0.2" d="M30.3789 122.253C30.3646 125.85 46.0356 141.255 46.0356 141.255C46.0356 141.255 46.0499 141.241 46.0643 141.227V104.244L38.7547 104.223L44.5851 114.25C43.1886 113.41 41.5371 112.911 39.7672 112.897C34.5938 112.893 30.3789 117.079 30.3789 122.253Z" fill="#616161"/>
<path d="M18.8693 40.5294C18.8729 39.5673 14.694 35.4602 14.694 35.4602C14.694 35.4602 10.6191 39.6966 10.6191 40.508C10.6156 41.8902 11.7321 43.0103 13.1107 43.0103C13.5846 43.0103 14.0226 42.8847 14.4032 42.6585L12.8379 45.3224H16.6398L15.0817 42.6585C15.4551 42.8847 15.8931 43.0175 16.367 43.0175C17.742 43.0175 18.8693 41.9009 18.8693 40.5294Z" fill="#2C2C2C"/>
<path opacity="0.2" d="M18.869 40.5294C18.8726 39.5673 14.6937 35.4602 14.6937 35.4602L14.6865 35.4673V45.3259H16.636L15.0779 42.6621C15.4512 42.8883 15.8892 43.021 16.3631 43.021C17.7417 43.0174 18.869 41.9009 18.869 40.5294Z" fill="#616161"/>
<path d="M127.888 161.402C127.884 162.372 132.067 166.472 132.067 166.472C132.067 166.472 136.138 162.235 136.138 161.424C136.138 160.042 135.025 158.922 133.646 158.922C133.172 158.922 132.738 159.047 132.365 159.281L133.926 156.61L130.124 156.595L131.682 159.273C131.309 159.047 130.868 158.914 130.397 158.914C129.015 158.904 127.888 160.02 127.888 161.402Z" fill="#2C2C2C"/>
<path opacity="0.2" d="M127.888 161.403C127.884 162.372 132.067 166.472 132.067 166.472L132.074 166.465V156.599L130.124 156.592L131.682 159.27C131.309 159.044 130.868 158.911 130.397 158.911C129.015 158.904 127.888 160.02 127.888 161.403Z" fill="#616161"/>
<path d="M13.2205 23.0333C11.8897 22.9647 10.8538 22.6354 10.1129 22.0455C9.372 21.4418 9.00155 20.6666 9.00155 19.7199C9.00155 18.5674 9.46118 17.655 10.3804 16.9827C11.2997 16.3104 12.6443 15.9742 14.4142 15.9742C16.1841 15.9742 17.5219 16.2898 18.4274 16.9209C19.3329 17.5521 19.7857 18.4027 19.7857 19.4729C19.7857 20.5294 19.4358 21.3663 18.7361 21.9837C18.0364 22.5874 17.0279 22.9373 15.7108 23.0333V23.0951C18.6744 23.342 20.1562 24.5974 20.1562 26.8613C20.1562 28.1784 19.6897 29.1663 18.7567 29.8249C17.8374 30.4835 16.3968 30.8127 14.4348 30.8127C10.5519 30.8127 8.61052 29.5024 8.61052 26.8819C8.61052 24.5631 10.1472 23.3009 13.2205 23.0951V23.0333ZM16.2253 26.8613C16.2253 25.5853 16.1018 24.6729 15.8548 24.1241C15.6079 23.5753 15.1277 23.3009 14.4142 23.3009C13.7145 23.3009 13.2411 23.5821 12.9942 24.1447C12.7472 24.6935 12.6237 25.6059 12.6237 26.8819C12.6237 28.1441 12.7403 29.0428 12.9736 29.5779C13.2205 30.113 13.7076 30.3805 14.4348 30.3805C15.162 30.3805 15.6422 30.113 15.8754 29.5779C16.1087 29.0291 16.2253 28.1236 16.2253 26.8613ZM14.4348 16.4064C13.8311 16.4064 13.4401 16.6534 13.2617 17.1473C13.0971 17.6275 13.0147 18.2861 13.0147 19.123C13.0147 19.9463 13.0216 20.5019 13.0353 20.79C13.049 21.0645 13.0765 21.3526 13.1176 21.6544C13.1725 21.9563 13.2548 22.1827 13.3646 22.3336C13.5979 22.6629 13.9752 22.8275 14.4965 22.8275C14.963 22.8275 15.3129 22.6629 15.5461 22.3336C15.7245 22.0729 15.8205 21.6887 15.8343 21.1811C15.848 20.6597 15.8548 19.9806 15.8548 19.1436C15.8548 18.293 15.7657 17.6275 15.5873 17.1473C15.4227 16.6534 15.0385 16.4064 14.4348 16.4064Z" fill="#2C2C2C"/>
<path d="M131.752 178.833C133.083 178.901 134.119 179.231 134.86 179.821C135.601 180.424 135.971 181.2 135.971 182.146C135.971 183.299 135.511 184.211 134.592 184.884C133.673 185.556 132.328 185.892 130.558 185.892C128.789 185.892 127.451 185.576 126.545 184.945C125.64 184.314 125.187 183.463 125.187 182.393C125.187 181.337 125.537 180.5 126.237 179.882C126.936 179.279 127.945 178.929 129.262 178.833L129.262 178.771C126.298 178.524 124.816 177.269 124.816 175.005C124.816 173.688 125.283 172.7 126.216 172.041C127.135 171.383 128.576 171.053 130.538 171.053C134.421 171.053 136.362 172.364 136.362 174.984C136.362 177.303 134.825 178.565 131.752 178.771L131.752 178.833ZM128.747 175.005C128.747 176.281 128.871 177.193 129.118 177.742C129.365 178.291 129.845 178.565 130.558 178.565C131.258 178.565 131.732 178.284 131.978 177.722C132.225 177.173 132.349 176.26 132.349 174.984C132.349 173.722 132.232 172.823 131.999 172.288C131.752 171.753 131.265 171.486 130.538 171.486C129.811 171.486 129.33 171.753 129.097 172.288C128.864 172.837 128.747 173.743 128.747 175.005ZM130.538 185.46C131.142 185.46 131.533 185.213 131.711 184.719C131.876 184.239 131.958 183.58 131.958 182.743C131.958 181.92 131.951 181.364 131.937 181.076C131.924 180.802 131.896 180.514 131.855 180.212C131.8 179.91 131.718 179.684 131.608 179.533C131.375 179.203 130.997 179.039 130.476 179.039C130.01 179.039 129.66 179.203 129.427 179.533C129.248 179.793 129.152 180.177 129.138 180.685C129.125 181.207 129.118 181.886 129.118 182.723C129.118 183.573 129.207 184.239 129.385 184.719C129.55 185.213 129.934 185.46 130.538 185.46Z" fill="#2C2C2C"/>
</svg>
