<svg width="223" height="324" viewBox="0 0 223 324" fill="none" xmlns="http://www.w3.org/2000/svg">
<g clip-path="url(#clip0_2009_1362)">
<path d="M222.449 314.064C222.449 319.1 218.333 323.223 213.287 323.223H9.48079C4.44759 323.223 0.333008 319.1 0.333008 314.064V9.49348C0.333008 4.45703 4.44759 0.333328 9.48079 0.333328H213.287C218.333 0.333328 222.449 4.45703 222.449 9.49348V314.064Z" fill="#F1EAD8" stroke="#2C2C2C" stroke-width="0.666667"/>
<path d="M20.221 20.1427C17.2627 18.0455 15.7835 15.7191 15.7835 13.1635C15.7835 10.5941 16.6933 8.59409 18.5127 7.16354C20.346 5.73298 22.5058 5.0177 24.9919 5.0177C27.4919 5.0177 29.5891 5.71215 31.2835 7.10104C32.9919 8.47604 33.846 10.3649 33.846 12.7677C33.846 14.2121 33.4224 15.6288 32.5752 17.0177C31.7419 18.3927 30.6308 19.4205 29.2419 20.101C31.1585 21.226 32.4849 22.233 33.221 23.1219C33.971 24.0108 34.5127 24.8719 34.846 25.7052C35.1794 26.5246 35.346 27.476 35.346 28.5594C35.346 30.8788 34.3808 32.8858 32.4502 34.5802C30.5335 36.2608 27.9571 37.101 24.721 37.101C21.4988 37.101 18.9433 36.351 17.0544 34.851C15.1794 33.351 14.2419 31.1774 14.2419 28.3302C14.2419 25.483 15.471 23.1844 17.9294 21.4344C18.6516 20.9205 19.4155 20.4899 20.221 20.1427ZM26.971 18.8302C28.971 17.7608 29.971 15.7469 29.971 12.7885C29.971 10.2885 29.0405 8.62882 27.1794 7.80937C26.5821 7.54548 25.9363 7.41354 25.2419 7.41354C23.853 7.41354 22.7141 7.81632 21.8252 8.62187C20.9502 9.42743 20.5127 10.3649 20.5127 11.4344C20.5127 12.5038 20.6933 13.3719 21.0544 14.0385C21.4155 14.7052 21.9571 15.3788 22.6794 16.0594C23.4155 16.7399 24.846 17.6635 26.971 18.8302ZM22.471 21.601C19.8738 22.6288 18.5752 24.9969 18.5752 28.7052C18.5752 30.2608 19.1099 31.6149 20.1794 32.7677C21.2627 33.9205 22.6724 34.4969 24.4085 34.4969C26.1585 34.4969 27.5683 34.0594 28.6377 33.1844C29.721 32.3094 30.2627 31.0941 30.2627 29.5385C30.2627 27.3996 28.603 25.3233 25.2835 23.3094C24.353 22.7538 23.4155 22.1844 22.471 21.601Z" fill="#D66753"/>
<path d="M31.1096 43.0432C23.8699 43.0432 22.9032 50.3078 22.9032 50.3078C22.9032 50.3078 21.9366 43.0432 14.6969 43.0432C9.62931 43.0432 5.04395 46.3004 5.04395 52.4451C5.04395 60.5642 19.7313 68.7289 22.9032 80.651C25.9215 68.7389 40.7625 60.5642 40.7625 52.4451C40.7625 46.3004 36.1771 43.0432 31.1096 43.0432Z" fill="#D66753"/>
<path d="M203.236 301.895C206.194 303.992 207.674 306.319 207.674 308.874C207.674 311.444 206.764 313.444 204.944 314.874C203.111 316.305 200.951 317.02 198.465 317.02C195.965 317.02 193.868 316.326 192.174 314.937C190.465 313.562 189.611 311.673 189.611 309.27C189.611 307.826 190.035 306.409 190.882 305.02C191.715 303.645 192.826 302.617 194.215 301.937C192.299 300.812 190.972 299.805 190.236 298.916C189.486 298.027 188.944 297.166 188.611 296.333C188.278 295.513 188.111 294.562 188.111 293.479C188.111 291.159 189.076 289.152 191.007 287.458C192.924 285.777 195.5 284.937 198.736 284.937C201.958 284.937 204.514 285.687 206.403 287.187C208.278 288.687 209.215 290.86 209.215 293.708C209.215 296.555 207.986 298.854 205.528 300.604C204.805 301.117 204.042 301.548 203.236 301.895ZM196.486 303.208C194.486 304.277 193.486 306.291 193.486 309.249C193.486 311.749 194.417 313.409 196.278 314.229C196.875 314.492 197.521 314.624 198.215 314.624C199.604 314.624 200.743 314.222 201.632 313.416C202.507 312.61 202.944 311.673 202.944 310.604C202.944 309.534 202.764 308.666 202.403 307.999C202.042 307.333 201.5 306.659 200.778 305.979C200.042 305.298 198.611 304.374 196.486 303.208ZM200.986 300.437C203.583 299.409 204.882 297.041 204.882 293.333C204.882 291.777 204.347 290.423 203.278 289.27C202.194 288.117 200.785 287.541 199.049 287.541C197.299 287.541 195.889 287.979 194.819 288.854C193.736 289.729 193.194 290.944 193.194 292.499C193.194 294.638 194.854 296.715 198.174 298.729C199.104 299.284 200.042 299.854 200.986 300.437Z" fill="#D66753"/>
<path d="M192.002 278.995C199.241 278.995 200.208 271.73 200.208 271.73C200.208 271.73 201.175 278.995 208.414 278.995C213.482 278.995 218.067 275.737 218.067 269.593C218.067 261.474 203.38 253.309 200.208 241.387C197.19 253.299 182.349 261.474 182.349 269.593C182.349 275.737 186.934 278.995 192.002 278.995Z" fill="#D66753"/>
<path d="M86.3036 10.9277C74.2872 10.9277 72.6828 22.9854 72.6828 22.9854C72.6828 22.9854 71.0784 10.9277 59.0619 10.9277C50.6508 10.9277 43.04 16.3341 43.04 26.533C43.04 40.0091 67.4181 53.5608 72.6828 73.349C77.6925 53.5774 102.326 40.0091 102.326 26.533C102.326 16.3341 94.7148 10.9277 86.3036 10.9277Z" fill="#D66753"/>
<path d="M59.0626 308.552C71.079 308.552 72.6834 296.495 72.6834 296.495C72.6834 296.495 74.2878 308.552 86.3043 308.552C94.7154 308.552 102.326 303.146 102.326 292.947C102.326 279.471 77.9482 265.919 72.6834 246.131C67.6738 265.903 43.0407 279.471 43.0407 292.947C43.0407 303.146 50.6514 308.552 59.0626 308.552Z" fill="#D66753"/>
<path d="M86.3036 135.862C74.2872 135.862 72.6828 147.92 72.6828 147.92C72.6828 147.92 71.0784 135.862 59.0619 135.862C50.6508 135.862 43.04 141.268 43.04 151.467C43.04 164.944 67.4181 178.495 72.6828 198.283C77.6925 178.512 102.326 164.944 102.326 151.467C102.326 141.268 94.7148 135.862 86.3036 135.862Z" fill="#D66753"/>
<path d="M163.288 10.4864C151.272 10.4864 149.667 22.5441 149.667 22.5441C149.667 22.5441 148.063 10.4864 136.046 10.4864C127.635 10.4864 120.024 15.8928 120.024 26.0917C120.024 39.5678 144.402 53.1195 149.667 72.9077C154.677 53.1361 179.31 39.5678 179.31 26.0917C179.31 15.8928 171.699 10.4864 163.288 10.4864Z" fill="#D66753"/>
<path d="M136.046 310.244C148.062 310.244 149.667 298.187 149.667 298.187C149.667 298.187 151.271 310.244 163.288 310.244C171.699 310.244 179.31 304.838 179.31 294.639C179.31 281.163 154.932 267.611 149.667 247.823C144.657 267.595 120.024 281.163 120.024 294.639C120.024 304.838 127.635 310.244 136.046 310.244Z" fill="#D66753"/>
<path d="M163.288 135.421C151.272 135.421 149.667 147.478 149.667 147.478C149.667 147.478 148.063 135.421 136.046 135.421C127.635 135.421 120.024 140.827 120.024 151.026C120.024 164.502 144.402 178.054 149.667 197.842C154.677 178.07 179.31 164.502 179.31 151.026C179.31 140.827 171.699 135.421 163.288 135.421Z" fill="#D66753"/>
<path d="M125.192 71.0628C113.176 71.0628 111.571 83.1205 111.571 83.1205C111.571 83.1205 109.967 71.0628 97.9506 71.0628C89.5395 71.0628 81.9287 76.4692 81.9287 86.6681C81.9287 100.144 106.307 113.696 111.571 133.484C116.581 113.712 141.214 100.144 141.214 86.6681C141.214 76.4692 133.603 71.0628 125.192 71.0628Z" fill="#D66753"/>
<path d="M97.3301 248.154C109.347 248.154 110.951 236.097 110.951 236.097C110.951 236.097 112.555 248.154 124.572 248.154C132.983 248.154 140.594 242.748 140.594 232.549C140.594 219.073 116.216 205.521 110.951 185.733C105.941 205.505 81.3082 219.073 81.3082 232.549C81.3082 242.748 88.919 248.154 97.3301 248.154Z" fill="#D66753"/>
</g>
<defs>
<clipPath id="clip0_2009_1362">
<rect width="222.783" height="323.556" fill="white"/>
</clipPath>
</defs>
</svg>
