<svg width="143" height="200" viewBox="0 0 143 200" fill="none" xmlns="http://www.w3.org/2000/svg">
<path d="M15.7967 199.996C7.35266 199.996 0.463168 193.258 0.441627 184.957L3.50717e-05 15.1254C-0.0179157 6.76753 6.85723 -0.0214898 15.3408 5.1119e-05L127.569 0.197593C136.02 0.219133 142.888 7.01885 142.888 15.3588V184.817C142.888 193.107 136.045 199.853 127.626 199.864L15.7967 199.996Z" fill="#C9C9C9"/>
<path d="M17.1969 199.562C8.85698 199.562 2.0752 192.802 2.0752 184.494V15.0714C2.0752 6.76384 8.85698 0.0107422 17.1969 0.0107422H127.791C136.124 0.0107422 142.913 6.76384 142.913 15.0714V184.494C142.913 192.802 136.124 199.562 127.791 199.562H17.1969Z" fill="#F1EAD8"/>
<path d="M20.9235 38.594C20.7907 41.0964 15.7753 44.8984 15.7753 44.8984C15.7753 44.8984 10.6162 41.0784 10.6162 38.5653C10.6162 36.842 12.0236 35.4526 13.754 35.4526C14.7162 35.4526 15.7968 36.3215 15.7968 36.3215C15.7968 36.3215 16.82 35.4527 17.8145 35.4742C19.5341 35.4886 21.0169 36.8707 20.9235 38.594Z" fill="#D66753"/>
<path opacity="0.2" d="M17.8101 35.4738C16.8156 35.4522 15.7924 36.321 15.7924 36.321C15.7924 36.321 15.7745 36.3067 15.7529 36.2996V44.8836C15.7673 44.8908 15.7673 44.8979 15.7673 44.8979C15.7673 44.8979 20.7827 41.0959 20.9156 38.5936C21.0161 36.8703 19.5333 35.4881 17.8101 35.4738Z" fill="#616161"/>
<path d="M126.914 163.035C127.05 160.483 132.177 156.598 132.177 156.598C132.177 156.598 137.43 160.504 137.43 163.078C137.43 164.823 136.001 166.241 134.241 166.241C133.251 166.241 132.148 165.351 132.148 165.351C132.148 165.351 131.107 166.241 130.095 166.227C128.325 166.205 126.824 164.78 126.914 163.035Z" fill="#D66753"/>
<path opacity="0.2" d="M130.095 166.227C131.107 166.241 132.148 165.351 132.148 165.351C132.148 165.351 132.163 165.365 132.188 165.387V156.609C132.177 156.609 132.177 156.602 132.177 156.602C132.177 156.602 127.05 160.486 126.914 163.039C126.824 164.78 128.325 166.205 130.095 166.227Z" fill="#616161"/>
<path d="M32.4973 28.7211C32.8815 35.8368 47.1452 46.6432 47.1452 46.6432C47.1452 46.6432 61.8145 35.7543 61.8145 28.6206C61.8145 23.7201 57.8043 19.7566 52.9145 19.7566C50.1644 19.7566 47.0949 22.2518 47.0949 22.2518C47.0949 22.2518 44.1797 19.7565 41.347 19.8104C36.4501 19.8786 32.2424 23.8134 32.4973 28.7211Z" fill="#D66753"/>
<path opacity="0.2" d="M41.3509 19.8176C44.1836 19.7602 47.0988 22.2589 47.0988 22.2589C47.0988 22.2589 47.1311 22.223 47.1993 22.1692V46.6145C47.1706 46.6432 47.1526 46.6504 47.1526 46.6504C47.1526 46.6504 32.8853 35.844 32.5048 28.7284C32.2427 23.8134 36.4504 19.8787 41.3509 19.8176Z" fill="#616161"/>
<path d="M114.608 28.7211C114.224 35.8368 99.96 46.6432 99.96 46.6432C99.96 46.6432 85.2979 35.7543 85.2979 28.6206C85.2979 23.7201 89.2973 19.7566 94.1978 19.7566C96.9479 19.7566 100.01 22.2518 100.01 22.2518C100.01 22.2518 102.929 19.7565 105.758 19.8104C110.659 19.8786 114.866 23.8134 114.608 28.7211Z" fill="#D66753"/>
<path opacity="0.2" d="M105.755 19.8176C102.926 19.7602 100.007 22.2589 100.007 22.2589C100.007 22.2589 99.9744 22.223 99.917 22.1692V46.6145C99.9457 46.6432 99.9601 46.6504 99.9601 46.6504C99.9601 46.6504 114.224 35.844 114.608 28.7284C114.866 23.8134 110.659 19.8787 105.755 19.8176Z" fill="#616161"/>
<path d="M32.4973 72.6788C32.8815 79.7873 47.1452 90.6009 47.1452 90.6009C47.1452 90.6009 61.8145 79.7119 61.8145 72.5783C61.8145 67.6777 57.8043 63.7214 52.9145 63.7214C50.1644 63.7214 47.0949 66.2022 47.0949 66.2022C47.0949 66.2022 44.1797 63.7214 41.347 63.7681C36.4501 63.8363 32.2424 67.7783 32.4973 72.6788Z" fill="#D66753"/>
<path opacity="0.2" d="M41.3509 63.7754C44.1836 63.7251 47.0988 66.2096 47.0988 66.2096C47.0988 66.2096 47.1311 66.188 47.1993 66.1306V90.5687C47.1706 90.5975 47.1526 90.6046 47.1526 90.6046C47.1526 90.6046 32.8853 79.7911 32.5048 72.6826C32.2427 67.7785 36.4504 63.8364 41.3509 63.7754Z" fill="#616161"/>
<path d="M114.608 72.6791C114.224 79.7876 99.96 90.6011 99.96 90.6011C99.96 90.6011 85.2979 79.7121 85.2979 72.5785C85.2979 67.678 89.2973 63.7217 94.1978 63.7217C96.9479 63.7217 100.01 66.2024 100.01 66.2024C100.01 66.2024 102.929 63.7217 105.758 63.7684C110.659 63.8366 114.866 67.7785 114.608 72.6791Z" fill="#D66753"/>
<path opacity="0.2" d="M105.755 63.7754C102.926 63.7251 100.007 66.2096 100.007 66.2096C100.007 66.2096 99.9744 66.188 99.917 66.1306V90.5687C99.9457 90.5975 99.9601 90.6046 99.9601 90.6046C99.9601 90.6046 114.224 79.7911 114.608 72.6826C114.866 67.7785 110.659 63.8364 105.755 63.7754Z" fill="#616161"/>
<path d="M32.4973 169.581C32.8815 162.458 47.1452 151.652 47.1452 151.652C47.1452 151.652 61.8145 162.548 61.8145 169.674C61.8145 174.567 57.8043 178.531 52.9145 178.531C50.1644 178.531 47.0949 176.05 47.0949 176.05C47.0949 176.05 44.1797 178.531 41.347 178.484C36.4501 178.413 32.2424 174.481 32.4973 169.581Z" fill="#D66753"/>
<path opacity="0.2" d="M41.3509 178.477C44.1836 178.527 47.0988 176.043 47.0988 176.043C47.0988 176.043 47.1311 176.071 47.1993 176.118V151.68C47.1706 151.651 47.1526 151.644 47.1526 151.644C47.1526 151.644 32.8853 162.45 32.5048 169.573C32.2427 174.481 36.4504 178.412 41.3509 178.477Z" fill="#616161"/>
<path d="M114.608 169.581C114.224 162.458 99.96 151.652 99.96 151.652C99.96 151.652 85.2979 162.548 85.2979 169.674C85.2979 174.567 89.2973 178.531 94.1978 178.531C96.9479 178.531 100.01 176.05 100.01 176.05C100.01 176.05 102.929 178.531 105.758 178.484C110.659 178.413 114.866 174.481 114.608 169.581Z" fill="#D66753"/>
<path opacity="0.2" d="M105.755 178.477C102.926 178.527 100.007 176.043 100.007 176.043C100.007 176.043 99.9744 176.071 99.917 176.118V151.68C99.9457 151.651 99.9601 151.644 99.9601 151.644C99.9601 151.644 114.224 162.45 114.608 169.573C114.866 174.481 110.659 178.412 105.755 178.477Z" fill="#616161"/>
<path d="M32.4973 125.605C32.8815 118.497 47.1452 107.683 47.1452 107.683C47.1452 107.683 61.8145 118.586 61.8145 125.713C61.8145 130.606 57.8043 134.563 52.9145 134.563C50.1644 134.563 47.0949 132.082 47.0949 132.082C47.0949 132.082 44.1797 134.562 41.347 134.523C36.4501 134.455 32.2424 130.516 32.4973 125.605Z" fill="#D66753"/>
<path opacity="0.2" d="M41.3509 134.52C44.1836 134.563 47.0988 132.078 47.0988 132.078C47.0988 132.078 47.1311 132.107 47.1993 132.154V107.723C47.1706 107.694 47.1526 107.68 47.1526 107.68C47.1526 107.68 32.8853 118.493 32.5048 125.602C32.2427 130.517 36.4504 134.455 41.3509 134.52Z" fill="#616161"/>
<path d="M114.608 125.605C114.224 118.497 99.96 107.683 99.96 107.683C99.96 107.683 85.2979 118.586 85.2979 125.713C85.2979 130.606 89.2973 134.563 94.1978 134.563C96.9479 134.563 100.01 132.082 100.01 132.082C100.01 132.082 102.929 134.562 105.758 134.523C110.659 134.455 114.866 130.516 114.608 125.605Z" fill="#D66753"/>
<path opacity="0.2" d="M105.755 134.52C102.926 134.563 100.007 132.078 100.007 132.078C100.007 132.078 99.9744 132.107 99.917 132.154V107.723C99.9457 107.694 99.9601 107.68 99.9601 107.68C99.9601 107.68 114.224 118.493 114.608 125.602C114.866 130.517 110.659 134.455 105.755 134.52Z" fill="#616161"/>
<path d="M15.285 23.0204C13.9541 22.9518 12.9182 22.6225 12.1773 22.0325C11.4365 21.4288 11.066 20.6536 11.066 19.7069C11.066 18.5544 11.5256 17.642 12.4449 16.9697C13.3642 16.2974 14.7087 15.9613 16.4787 15.9613C18.2486 15.9613 19.5863 16.2768 20.4919 16.908C21.3974 17.5391 21.8502 18.3898 21.8502 19.46C21.8502 20.5164 21.5003 21.3534 20.8006 21.9708C20.1008 22.5745 19.0924 22.9243 17.7752 23.0204V23.0821C20.7388 23.3291 22.2206 24.5845 22.2206 26.8483C22.2206 28.1655 21.7541 29.1534 20.8211 29.8119C19.9019 30.4705 18.4613 30.7998 16.4992 30.7998C12.6164 30.7998 10.675 29.4895 10.675 26.8689C10.675 24.5502 12.2116 23.2879 15.285 23.0821V23.0204ZM18.2897 26.8483C18.2897 25.5724 18.1663 24.66 17.9193 24.1111C17.6723 23.5623 17.1921 23.2879 16.4787 23.2879C15.7789 23.2879 15.3056 23.5692 15.0586 24.1317C14.8116 24.6805 14.6882 25.5929 14.6882 26.8689C14.6882 28.1312 14.8048 29.0299 15.038 29.565C15.285 30.1001 15.7721 30.3676 16.4992 30.3676C17.2264 30.3676 17.7066 30.1001 17.9399 29.565C18.1731 29.0162 18.2897 28.1106 18.2897 26.8483ZM16.4992 16.3935C15.8956 16.3935 15.5045 16.6404 15.3262 17.1344C15.1615 17.6146 15.0792 18.2732 15.0792 19.1101C15.0792 19.9333 15.0861 20.489 15.0998 20.7771C15.1135 21.0515 15.1409 21.3396 15.1821 21.6415C15.237 21.9433 15.3193 22.1697 15.4291 22.3206C15.6623 22.6499 16.0396 22.8146 16.561 22.8146C17.0275 22.8146 17.3773 22.6499 17.6106 22.3206C17.789 22.06 17.885 21.6758 17.8987 21.1681C17.9124 20.6468 17.9193 19.9676 17.9193 19.1307C17.9193 18.28 17.8301 17.6146 17.6518 17.1344C17.4871 16.6404 17.1029 16.3935 16.4992 16.3935Z" fill="#D66753"/>
<path d="M132.102 179.964C133.433 180.032 134.468 180.362 135.209 180.952C135.95 181.555 136.321 182.331 136.321 183.277C136.321 184.43 135.861 185.342 134.942 186.014C134.023 186.687 132.678 187.023 130.908 187.023C129.138 187.023 127.8 186.707 126.895 186.076C125.989 185.445 125.537 184.594 125.537 183.524C125.537 182.468 125.886 181.631 126.586 181.013C127.286 180.41 128.294 180.06 129.611 179.964L129.611 179.902C126.648 179.655 125.166 178.4 125.166 176.136C125.166 174.819 125.633 173.831 126.566 173.172C127.485 172.514 128.925 172.184 130.887 172.184C134.77 172.184 136.712 173.495 136.712 176.115C136.712 178.434 135.175 179.696 132.102 179.902L132.102 179.964ZM129.097 176.136C129.097 177.412 129.22 178.324 129.467 178.873C129.714 179.422 130.195 179.696 130.908 179.696C131.608 179.696 132.081 179.415 132.328 178.852C132.575 178.304 132.699 177.391 132.699 176.115C132.699 174.853 132.582 173.954 132.349 173.419C132.102 172.884 131.615 172.617 130.887 172.617C130.16 172.617 129.68 172.884 129.447 173.419C129.214 173.968 129.097 174.874 129.097 176.136ZM130.887 186.591C131.491 186.591 131.882 186.344 132.061 185.85C132.225 185.37 132.308 184.711 132.308 183.874C132.308 183.051 132.301 182.495 132.287 182.207C132.273 181.933 132.246 181.644 132.205 181.343C132.15 181.041 132.067 180.814 131.958 180.663C131.724 180.334 131.347 180.17 130.826 180.17C130.359 180.17 130.009 180.334 129.776 180.663C129.598 180.924 129.502 181.308 129.488 181.816C129.474 182.337 129.467 183.017 129.467 183.853C129.467 184.704 129.557 185.37 129.735 185.85C129.9 186.344 130.284 186.591 130.887 186.591Z" fill="#D66753"/>
</svg>
