<svg width="141" height="197" viewBox="0 0 141 197" fill="none" xmlns="http://www.w3.org/2000/svg">
<path d="M15.5562 196.93C7.2342 196.952 0.445229 190.296 0.430869 182.128L5.12003e-05 14.8991C-0.0214897 6.68127 6.75671 -0.0143375 15.1074 2.30572e-05L125.612 0.211808C133.934 0.233349 140.698 6.91458 140.698 15.1253V181.995C140.698 190.145 133.959 196.783 125.666 196.798L15.5562 196.93Z" fill="#C9C9C9"/>
<path d="M16.9326 196.518C8.71478 196.518 2.03711 189.858 2.03711 181.672V14.8417C2.03711 6.66696 8.71478 0.00366211 16.9326 0.00366211H125.829C134.036 0.00366211 140.721 6.66337 140.721 14.8417V181.672C140.721 189.854 134.036 196.518 125.829 196.518H16.9326Z" fill="#F1EAD8"/>
<path d="M97.755 14.1636L112.439 32.696L97.755 51.2426L83.0713 32.696L97.755 14.1636Z" fill="#D66753"/>
<path opacity="0.2" d="M97.8483 14.2892L97.755 14.1636L83.0713 32.696L97.755 51.2426L97.8483 51.117V14.2892Z" fill="#616161"/>
<path d="M97.755 57.8699L112.439 76.4058L97.755 94.9489L83.0713 76.4058L97.755 57.8699Z" fill="#D66753"/>
<path opacity="0.2" d="M97.8483 57.9955L97.755 57.8699L83.0713 76.4058L97.755 94.9489L97.8483 94.8269V57.9955Z" fill="#616161"/>
<path d="M45.0008 101.565L30.3135 120.105L45.0008 138.659L59.6845 120.105L45.0008 101.565Z" fill="#D66753"/>
<path opacity="0.2" d="M44.9053 101.687L45.0022 101.565L59.6859 120.105L45.0022 138.659L44.9053 138.54V101.687Z" fill="#616161"/>
<path d="M45.0008 145.272L30.3135 163.819L45.0008 182.358L59.6845 163.819L45.0008 145.272Z" fill="#D66753"/>
<path opacity="0.2" d="M44.9053 145.398L45.0022 145.272L59.6859 163.819L45.0022 182.358L44.9053 182.24V145.398Z" fill="#616161"/>
<path d="M45.0008 14.1633L59.6845 32.6957L45.0008 51.2424L30.3135 32.6957L45.0008 14.1633Z" fill="#D66753"/>
<path opacity="0.2" d="M45.0977 14.289L45.0008 14.1633L30.3135 32.6957L45.0008 51.2424L45.0977 51.1167V14.289Z" fill="#616161"/>
<path d="M45.0008 57.8701L59.6845 76.406L45.0008 94.9492L30.3135 76.406L45.0008 57.8701Z" fill="#D66753"/>
<path opacity="0.2" d="M45.0977 57.9958L45.0008 57.8701L30.3135 76.406L45.0008 94.9492L45.0977 94.8271V57.9958Z" fill="#616161"/>
<path d="M97.7514 101.565L83.0713 120.105L97.7514 138.659L112.439 120.105L97.7514 101.565Z" fill="#D66753"/>
<path opacity="0.2" d="M97.6533 101.687L97.7503 101.565L112.438 120.105L97.7503 138.659L97.6533 138.54V101.687Z" fill="#616161"/>
<path d="M97.7514 145.272L83.0713 163.819L97.7514 182.358L112.439 163.819L97.7514 145.272Z" fill="#D66753"/>
<path opacity="0.2" d="M97.6533 145.398L97.7503 145.272L112.438 163.819L97.7503 182.358L97.6533 182.24V145.398Z" fill="#616161"/>
<path d="M13.7251 44.701L9.44922 39.3014L13.7251 33.9019L18.001 39.3014L13.7251 44.701Z" fill="#D66753"/>
<path opacity="0.2" d="M13.7234 33.9019L13.6875 33.9485V44.6651L13.7234 44.701L17.9993 39.3014L13.7234 33.9019Z" fill="#616161"/>
<path d="M129.949 153.666L134.225 159.051L129.949 164.458L125.673 159.051L129.949 153.666Z" fill="#D66753"/>
<path opacity="0.2" d="M129.977 153.695L129.949 153.666L125.673 159.051L129.949 164.458L129.977 164.422V153.695Z" fill="#616161"/>
<path d="M13.328 21.504C11.9971 21.4354 10.9612 21.1061 10.2203 20.5162C9.47942 19.9125 9.10897 19.1373 9.10897 18.1906C9.10897 17.0381 9.5686 16.1257 10.4879 15.4534C11.4071 14.7811 12.7517 14.4449 14.5216 14.4449C16.2916 14.4449 17.6293 14.7605 18.5348 15.3916C19.4404 16.0228 19.8931 16.8734 19.8931 17.9436C19.8931 19.0001 19.5433 19.837 18.8435 20.4544C18.1438 21.0581 17.1354 21.408 15.8182 21.504V21.5658C18.7818 21.8127 20.2636 23.0681 20.2636 25.332C20.2636 26.6491 19.7971 27.637 18.8641 28.2956C17.9449 28.9542 16.5042 29.2834 14.5422 29.2834C10.6594 29.2834 8.71794 27.9732 8.71794 25.3526C8.71794 23.0338 10.2546 21.7716 13.328 21.5658V21.504ZM16.3327 25.332C16.3327 24.056 16.2092 23.1436 15.9623 22.5948C15.7153 22.046 15.2351 21.7716 14.5216 21.7716C13.8219 21.7716 13.3485 22.0528 13.1016 22.6154C12.8546 23.1642 12.7311 24.0766 12.7311 25.3526C12.7311 26.6148 12.8478 27.5135 13.081 28.0486C13.328 28.5837 13.815 28.8513 14.5422 28.8513C15.2694 28.8513 15.7496 28.5837 15.9828 28.0486C16.2161 27.4998 16.3327 26.5943 16.3327 25.332ZM14.5422 14.8771C13.9385 14.8771 13.5475 15.1241 13.3691 15.618C13.2045 16.0982 13.1222 16.7568 13.1222 17.5937C13.1222 18.417 13.129 18.9726 13.1427 19.2608C13.1565 19.5352 13.1839 19.8233 13.2251 20.1251C13.2799 20.427 13.3623 20.6534 13.472 20.8043C13.7053 21.1336 14.0826 21.2982 14.604 21.2982C15.0704 21.2982 15.4203 21.1336 15.6536 20.8043C15.8319 20.5436 15.928 20.1594 15.9417 19.6518C15.9554 19.1304 15.9623 18.4513 15.9623 17.6143C15.9623 16.7637 15.8731 16.0982 15.6947 15.618C15.5301 15.1241 15.1459 14.8771 14.5422 14.8771Z" fill="#D66753"/>
<path d="M130.145 176.732C131.476 176.801 132.511 177.13 133.252 177.72C133.993 178.324 134.364 179.099 134.364 180.046C134.364 181.198 133.904 182.11 132.985 182.783C132.066 183.455 130.721 183.791 128.951 183.791C127.181 183.791 125.843 183.476 124.938 182.844C124.032 182.213 123.58 181.363 123.58 180.292C123.58 179.236 123.929 178.399 124.629 177.782C125.329 177.178 126.337 176.828 127.654 176.732L127.654 176.67C124.691 176.423 123.209 175.168 123.209 172.904C123.209 171.587 123.676 170.599 124.609 169.941C125.528 169.282 126.968 168.953 128.93 168.953C132.813 168.953 134.755 170.263 134.755 172.884C134.755 175.202 133.218 176.465 130.145 176.67L130.145 176.732ZM127.14 172.904C127.14 174.18 127.263 175.092 127.51 175.641C127.757 176.19 128.238 176.465 128.951 176.465C129.651 176.465 130.124 176.183 130.371 175.621C130.618 175.072 130.742 174.16 130.742 172.884C130.742 171.621 130.625 170.723 130.392 170.187C130.145 169.652 129.658 169.385 128.93 169.385C128.203 169.385 127.723 169.652 127.49 170.187C127.257 170.736 127.14 171.642 127.14 172.904ZM128.93 183.359C129.534 183.359 129.925 183.112 130.104 182.618C130.268 182.138 130.35 181.479 130.35 180.642C130.35 179.819 130.344 179.263 130.33 178.975C130.316 178.701 130.289 178.413 130.248 178.111C130.193 177.809 130.11 177.583 130.001 177.432C129.767 177.103 129.39 176.938 128.869 176.938C128.402 176.938 128.052 177.103 127.819 177.432C127.641 177.692 127.545 178.077 127.531 178.584C127.517 179.106 127.51 179.785 127.51 180.622C127.51 181.472 127.6 182.138 127.778 182.618C127.943 183.112 128.327 183.359 128.93 183.359Z" fill="#D66753"/>
</svg>
