<svg width="223" height="324" viewBox="0 0 223 324" fill="none" xmlns="http://www.w3.org/2000/svg">
<g clip-path="url(#clip0_2009_1563)">
<path d="M222.449 314.064C222.449 319.1 218.333 323.223 213.287 323.223H9.48079C4.44759 323.223 0.333008 319.1 0.333008 314.064V9.49347C0.333008 4.45701 4.44759 0.333313 9.48079 0.333313H213.287C218.333 0.333313 222.449 4.45701 222.449 9.49347V314.064Z" fill="#F1EAD8" stroke="#2C2C2C" stroke-width="0.666667"/>
<path d="M29.3359 19.1136C27.5443 21.5163 25.1623 22.7177 22.1901 22.7177C19.6345 22.7177 17.4401 21.8427 15.6068 20.0927C13.7734 18.3288 12.8568 16.058 12.8568 13.2802C12.8568 10.5024 13.7804 8.07883 15.6276 6.00939C17.4887 3.92605 19.9193 2.88439 22.9193 2.88439C26.8776 2.88439 29.8568 4.45383 31.8568 7.59272C33.5512 10.2455 34.3984 13.5788 34.3984 17.5927C34.3984 23.0511 33.2457 27.3149 30.9401 30.3844C28.6345 33.4399 25.7387 34.9677 22.2526 34.9677C19.7943 34.9677 17.7873 34.3913 16.2318 33.2386C14.6901 32.0719 13.9193 30.7386 13.9193 29.2386C13.9193 27.7386 14.5165 26.7038 15.7109 26.1344C16.072 25.9538 16.4609 25.8636 16.8776 25.8636C17.7248 25.8636 18.4123 26.1413 18.9401 26.6969C19.4818 27.2524 19.7526 27.9191 19.7526 28.6969C19.7526 29.8497 19.2665 30.683 18.2943 31.1969C18.947 31.9608 19.9609 32.3427 21.3359 32.3427C23.8915 32.3427 25.8776 31.3983 27.2943 29.5094C28.7248 27.6205 29.4401 25.058 29.4401 21.8219C29.4401 21.1691 29.4054 20.2663 29.3359 19.1136ZM23.1693 20.0302C24.7248 20.0302 26.0165 19.3636 27.0443 18.0302C28.072 16.6969 28.5859 14.9122 28.5859 12.6761C28.5859 10.4399 28.0582 8.683 27.0026 7.40522C25.9609 6.12744 24.7179 5.48856 23.2734 5.48856C21.829 5.48856 20.579 6.17606 19.5234 7.55106C18.4679 8.91217 17.9401 10.7038 17.9401 12.9261C17.9401 15.1483 18.4262 16.8913 19.3984 18.1552C20.3707 19.4052 21.6276 20.0302 23.1693 20.0302Z" fill="#D66753"/>
<path d="M193.775 305.058C195.567 302.655 197.949 301.454 200.921 301.454C203.477 301.454 205.671 302.329 207.505 304.079C209.338 305.842 210.255 308.113 210.255 310.891C210.255 313.669 209.331 316.092 207.484 318.162C205.623 320.245 203.192 321.287 200.192 321.287C196.234 321.287 193.255 319.717 191.255 316.579C189.56 313.926 188.713 310.592 188.713 306.579C188.713 301.12 189.866 296.856 192.171 293.787C194.477 290.731 197.373 289.204 200.859 289.204C203.317 289.204 205.324 289.78 206.88 290.933C208.421 292.099 209.192 293.433 209.192 294.933C209.192 296.433 208.595 297.467 207.4 298.037C207.039 298.217 206.65 298.308 206.234 298.308C205.387 298.308 204.699 298.03 204.171 297.474C203.63 296.919 203.359 296.252 203.359 295.474C203.359 294.322 203.845 293.488 204.817 292.974C204.164 292.211 203.15 291.829 201.775 291.829C199.22 291.829 197.234 292.773 195.817 294.662C194.387 296.551 193.671 299.113 193.671 302.349C193.671 303.002 193.706 303.905 193.775 305.058ZM199.942 304.141C198.387 304.141 197.095 304.808 196.067 306.141C195.039 307.474 194.525 309.259 194.525 311.495C194.525 313.731 195.053 315.488 196.109 316.766C197.15 318.044 198.393 318.683 199.838 318.683C201.282 318.683 202.532 317.995 203.588 316.62C204.643 315.259 205.171 313.467 205.171 311.245C205.171 309.023 204.685 307.28 203.713 306.016C202.741 304.766 201.484 304.141 199.942 304.141Z" fill="#D66753"/>
<path d="M29.0106 49.6764C24.8418 44.0366 22.6238 38.3049 22.6238 38.3049C22.6238 38.3049 20.4058 44.0366 16.237 49.6764C12.0662 55.3143 6.87012 58.9816 6.87012 58.9816C6.87012 58.9816 12.0662 62.6469 16.237 68.2887C20.4058 73.9265 22.6238 79.6583 22.6238 79.6583C22.6238 79.6583 24.8418 73.9265 29.0106 68.2887C33.1814 62.6469 38.3775 58.9816 38.3775 58.9816C38.3775 58.9816 33.1814 55.3143 29.0106 49.6764Z" fill="#D66753"/>
<path d="M207.215 255.366C203.046 249.726 200.828 243.995 200.828 243.995C200.828 243.995 198.61 249.726 194.441 255.366C190.27 261.004 185.074 264.671 185.074 264.671C185.074 264.671 190.27 268.337 194.441 273.978C198.61 279.616 200.828 285.348 200.828 285.348C200.828 285.348 203.046 279.616 207.215 273.978C211.385 268.337 216.582 264.671 216.582 264.671C216.582 264.671 211.385 261.004 207.215 255.366Z" fill="#D66753"/>
<path d="M83.3648 264.912C76.0589 255.028 72.1719 244.984 72.1719 244.984C72.1719 244.984 68.2849 255.028 60.979 264.912C53.6697 274.793 44.5635 281.22 44.5635 281.22C44.5635 281.22 53.6697 287.643 60.979 297.53C68.2849 307.411 72.1719 317.456 72.1719 317.456C72.1719 317.456 76.0589 307.411 83.3648 297.53C90.6741 287.643 99.7803 281.22 99.7803 281.22C99.7803 281.22 90.6741 274.793 83.3648 264.912Z" fill="#D66753"/>
<path d="M83.3648 25.852C76.0589 15.9682 72.1719 5.92334 72.1719 5.92334C72.1719 5.92334 68.2849 15.9682 60.979 25.852C53.6697 35.7324 44.5635 42.1594 44.5635 42.1594C44.5635 42.1594 53.6697 48.583 60.979 58.4702C68.2849 68.3506 72.1719 78.3955 72.1719 78.3955C72.1719 78.3955 76.0589 68.3506 83.3648 58.4702C90.6741 48.583 99.7803 42.1594 99.7803 42.1594C99.7803 42.1594 90.6741 35.7324 83.3648 25.852Z" fill="#D66753"/>
<path d="M83.3648 185.27C76.0589 175.386 72.1719 165.341 72.1719 165.341C72.1719 165.341 68.2849 175.386 60.979 185.27C53.6697 195.15 44.5635 201.577 44.5635 201.577C44.5635 201.577 53.6697 208.001 60.979 217.888C68.2849 227.768 72.1719 237.813 72.1719 237.813C72.1719 237.813 76.0589 227.768 83.3648 217.888C90.6741 208.001 99.7803 201.577 99.7803 201.577C99.7803 201.577 90.6741 195.15 83.3648 185.27Z" fill="#D66753"/>
<path d="M83.3648 105.495C76.0589 95.6109 72.1719 85.566 72.1719 85.566C72.1719 85.566 68.2849 95.6109 60.979 105.495C53.6697 115.375 44.5635 121.802 44.5635 121.802C44.5635 121.802 53.6697 128.226 60.979 138.113C68.2849 147.993 72.1719 158.038 72.1719 158.038C72.1719 158.038 76.0589 147.993 83.3648 138.113C90.6741 128.226 99.7803 121.802 99.7803 121.802C99.7803 121.802 90.6741 115.375 83.3648 105.495Z" fill="#D66753"/>
<path d="M161.721 264.912C154.415 255.028 150.528 244.984 150.528 244.984C150.528 244.984 146.641 255.028 139.335 264.912C132.026 274.793 122.92 281.22 122.92 281.22C122.92 281.22 132.026 287.643 139.335 297.53C146.641 307.411 150.528 317.456 150.528 317.456C150.528 317.456 154.415 307.411 161.721 297.53C169.031 287.643 178.137 281.22 178.137 281.22C178.137 281.22 169.031 274.793 161.721 264.912Z" fill="#D66753"/>
<path d="M161.721 25.852C154.415 15.9682 150.528 5.92334 150.528 5.92334C150.528 5.92334 146.641 15.9682 139.335 25.852C132.026 35.7324 122.92 42.1594 122.92 42.1594C122.92 42.1594 132.026 48.583 139.335 58.4702C146.641 68.3506 150.528 78.3955 150.528 78.3955C150.528 78.3955 154.415 68.3506 161.721 58.4702C169.031 48.583 178.137 42.1594 178.137 42.1594C178.137 42.1594 169.031 35.7324 161.721 25.852Z" fill="#D66753"/>
<path d="M161.721 185.27C154.415 175.386 150.528 165.341 150.528 165.341C150.528 165.341 146.641 175.386 139.335 185.27C132.026 195.15 122.92 201.577 122.92 201.577C122.92 201.577 132.026 208.001 139.335 217.888C146.641 227.768 150.528 237.813 150.528 237.813C150.528 237.813 154.415 227.768 161.721 217.888C169.031 208.001 178.137 201.577 178.137 201.577C178.137 201.577 169.031 195.15 161.721 185.27Z" fill="#D66753"/>
<path d="M161.721 105.495C154.415 95.6109 150.528 85.566 150.528 85.566C150.528 85.566 146.641 95.6109 139.335 105.495C132.026 115.375 122.92 121.802 122.92 121.802C122.92 121.802 132.026 128.226 139.335 138.113C146.641 147.993 150.528 158.038 150.528 158.038C150.528 158.038 154.415 147.993 161.721 138.113C169.031 128.226 178.137 121.802 178.137 121.802C178.137 121.802 169.031 115.375 161.721 105.495Z" fill="#D66753"/>
<path d="M122.144 66.1312C114.838 56.2474 110.951 46.2025 110.951 46.2025C110.951 46.2025 107.064 56.2474 99.7583 66.1312C92.449 76.0116 83.3428 82.4386 83.3428 82.4386C83.3428 82.4386 92.449 88.8621 99.7583 98.7494C107.064 108.63 110.951 118.675 110.951 118.675C110.951 118.675 114.838 108.63 122.144 98.7494C129.453 88.8621 138.56 82.4386 138.56 82.4386C138.56 82.4386 129.453 76.0116 122.144 66.1312Z" fill="#D66753"/>
</g>
<defs>
<clipPath id="clip0_2009_1563">
<rect width="222.783" height="323.556" fill="white"/>
</clipPath>
</defs>
</svg>
