<svg width="223" height="324" viewBox="0 0 223 324" fill="none" xmlns="http://www.w3.org/2000/svg">
<g clip-path="url(#clip0_2009_1879)">
<path d="M222.449 314.064C222.449 319.1 218.333 323.223 213.287 323.223H9.48079C4.44759 323.223 0.333008 319.1 0.333008 314.064V9.49347C0.333008 4.45701 4.44759 0.333313 9.48079 0.333313H213.287C218.333 0.333313 222.449 4.45701 222.449 9.49347V314.064Z" fill="#F1EAD8" stroke="#2C2C2C" stroke-width="0.666667"/>
<path d="M30.2705 21.2469C28.4788 23.6497 26.0969 24.8511 23.1247 24.8511C20.5691 24.8511 18.3747 23.9761 16.5413 22.2261C14.708 20.4622 13.7913 18.1913 13.7913 15.4136C13.7913 12.6358 14.715 10.2122 16.5622 8.14272C18.4233 6.05939 20.8538 5.01772 23.8538 5.01772C27.8122 5.01772 30.7913 6.58716 32.7913 9.72605C34.4858 12.3788 35.333 15.7122 35.333 19.7261C35.333 25.1844 34.1802 29.4483 31.8747 32.5177C29.5691 35.5733 26.6733 37.1011 23.1872 37.1011C20.7288 37.1011 18.7219 36.5247 17.1663 35.3719C15.6247 34.2052 14.8538 32.8719 14.8538 31.3719C14.8538 29.8719 15.4511 28.8372 16.6455 28.2677C17.0066 28.0872 17.3955 27.9969 17.8122 27.9969C18.6594 27.9969 19.3469 28.2747 19.8747 28.8302C20.4163 29.3858 20.6872 30.0524 20.6872 30.8302C20.6872 31.983 20.2011 32.8163 19.2288 33.3302C19.8816 34.0941 20.8955 34.4761 22.2705 34.4761C24.8261 34.4761 26.8122 33.5316 28.2288 31.6427C29.6594 29.7538 30.3747 27.1913 30.3747 23.9552C30.3747 23.3024 30.34 22.3997 30.2705 21.2469ZM24.1038 22.1636C25.6594 22.1636 26.9511 21.4969 27.9788 20.1636C29.0066 18.8302 29.5205 17.0455 29.5205 14.8094C29.5205 12.5733 28.9927 10.8163 27.9372 9.53855C26.8955 8.26078 25.6525 7.62189 24.208 7.62189C22.7636 7.62189 21.5136 8.30939 20.458 9.68439C19.4025 11.0455 18.8747 12.8372 18.8747 15.0594C18.8747 17.2816 19.3608 19.0247 20.333 20.2886C21.3052 21.5386 22.5622 22.1636 24.1038 22.1636Z" fill="#2C2C2C"/>
<path d="M38.6421 65.7946C38.1553 58.3333 23.0593 44.29 22.5725 40.7773C22.0857 44.2881 6.98974 58.3315 6.50297 65.7946C6.16303 71.0691 9.91239 73.2558 13.3218 73.2558C17.0132 73.2161 20.062 68.105 21.1122 67.1114C21.599 68.4282 17.8878 79.4002 16.7292 79.4002H28.4178C27.2592 79.4002 23.5481 68.4282 24.0348 67.1114C24.9544 68.0241 27.6497 73.1028 31.8272 73.2558C35.2347 73.254 38.982 71.0691 38.6421 65.7946Z" fill="#2C2C2C"/>
<path d="M98.8949 52.3741C98.0403 39.2742 71.5358 14.6179 70.6812 8.45062C69.8266 14.6147 43.3221 39.271 42.4675 52.3741C41.8706 61.6348 48.4535 65.474 54.4395 65.474C60.9205 65.4043 66.2733 56.4307 68.1173 54.6861C68.9719 56.998 62.4562 76.2619 60.422 76.2619H80.9439C78.9098 76.2619 72.394 56.998 73.2487 54.6861C74.8631 56.2886 79.5953 65.2054 86.93 65.474C92.9124 65.4708 99.4918 61.6348 98.8949 52.3741Z" fill="#2C2C2C"/>
<path d="M193.096 302.936C194.887 300.533 197.269 299.332 200.242 299.332C202.797 299.332 204.992 300.207 206.825 301.957C208.658 303.721 209.575 305.992 209.575 308.769C209.575 311.547 208.651 313.971 206.804 316.04C204.943 318.124 202.512 319.165 199.512 319.165C195.554 319.165 192.575 317.596 190.575 314.457C188.88 311.804 188.033 308.471 188.033 304.457C188.033 298.999 189.186 294.735 191.492 291.665C193.797 288.61 196.693 287.082 200.179 287.082C202.637 287.082 204.644 287.658 206.2 288.811C207.742 289.978 208.512 291.311 208.512 292.811C208.512 294.311 207.915 295.346 206.721 295.915C206.36 296.096 205.971 296.186 205.554 296.186C204.707 296.186 204.019 295.908 203.492 295.353C202.95 294.797 202.679 294.131 202.679 293.353C202.679 292.2 203.165 291.367 204.137 290.853C203.485 290.089 202.471 289.707 201.096 289.707C198.54 289.707 196.554 290.651 195.137 292.54C193.707 294.429 192.992 296.992 192.992 300.228C192.992 300.881 193.026 301.783 193.096 302.936ZM199.262 302.019C197.707 302.019 196.415 302.686 195.387 304.019C194.36 305.353 193.846 307.138 193.846 309.374C193.846 311.61 194.373 313.367 195.429 314.644C196.471 315.922 197.714 316.561 199.158 316.561C200.603 316.561 201.853 315.874 202.908 314.499C203.964 313.138 204.492 311.346 204.492 309.124C204.492 306.901 204.005 305.158 203.033 303.894C202.061 302.644 200.804 302.019 199.262 302.019Z" fill="#2C2C2C"/>
<path d="M184.231 258.352C184.718 265.813 199.814 279.857 200.301 283.369C200.787 279.858 215.883 265.815 216.37 258.352C216.71 253.078 212.961 250.891 209.551 250.891C205.86 250.93 202.811 256.042 201.761 257.035C201.274 255.718 204.985 244.746 206.144 244.746H194.455C195.614 244.746 199.325 255.718 198.838 257.035C197.919 256.123 195.223 251.044 191.046 250.891C187.638 250.893 183.891 253.078 184.231 258.352Z" fill="#2C2C2C"/>
<path d="M99.3334 136.284C98.4788 123.184 71.9743 98.5279 71.1197 92.3606C70.265 98.5247 43.7606 123.181 42.906 136.284C42.3091 145.545 48.892 149.384 54.878 149.384C61.359 149.314 66.7118 140.341 68.5558 138.596C69.4104 140.908 62.8946 160.172 60.8605 160.172H81.3824C79.3482 160.172 72.8325 140.908 73.6871 138.596C75.3016 140.199 80.0338 149.115 87.3684 149.384C93.3509 149.381 99.9302 145.545 99.3334 136.284Z" fill="#2C2C2C"/>
<path d="M43.5055 273.532C44.3601 286.632 70.8645 311.289 71.7192 317.456C72.5738 311.292 99.0783 286.636 99.9329 273.532C100.53 264.272 93.9469 260.433 87.9609 260.433C81.4799 260.502 76.127 269.476 74.2831 271.221C73.4285 268.909 79.9442 249.645 81.9784 249.645H61.4564C63.4906 249.645 70.0064 268.909 69.1517 271.221C67.5373 269.618 62.805 260.701 55.4704 260.433C49.4879 260.436 42.9086 264.272 43.5055 273.532Z" fill="#2C2C2C"/>
<path d="M43.067 191.756C43.9216 204.856 70.4261 229.512 71.2807 235.679C72.1354 229.515 98.6398 204.859 99.4944 191.756C100.091 182.495 93.5084 178.656 87.5224 178.656C81.0414 178.726 75.6886 187.699 73.8446 189.444C72.99 187.132 79.5057 167.868 81.5399 167.868H61.018C63.0521 167.868 69.5679 187.132 68.7133 189.444C67.0988 187.841 62.3666 178.924 55.0319 178.656C49.0495 178.659 42.4701 182.495 43.067 191.756Z" fill="#2C2C2C"/>
<path d="M181.518 52.1235C180.663 39.0236 154.159 14.3673 153.304 8.20001C152.45 14.3641 125.945 39.0204 125.091 52.1235C124.494 61.3842 131.077 65.2234 137.063 65.2234C143.544 65.1537 148.896 56.1801 150.74 54.4354C151.595 56.7474 145.079 76.0113 143.045 76.0113H163.567C161.533 76.0113 155.017 56.7474 155.872 54.4354C157.486 56.038 162.218 64.9548 169.553 65.2234C175.535 65.2202 182.115 61.3842 181.518 52.1235Z" fill="#2C2C2C"/>
<path d="M181.956 136.033C181.102 122.934 154.597 98.2773 153.743 92.11C152.888 98.2741 126.384 122.93 125.529 136.033C124.932 145.294 131.515 149.133 137.501 149.133C143.982 149.064 149.335 140.09 151.179 138.345C152.033 140.657 145.518 159.921 143.484 159.921H164.005C161.971 159.921 155.456 140.657 156.31 138.345C157.925 139.948 162.657 148.865 169.991 149.133C175.974 149.13 182.553 145.294 181.956 136.033Z" fill="#2C2C2C"/>
<path d="M126.129 273.282C126.983 286.382 153.488 311.038 154.342 317.205C155.197 311.041 181.701 286.385 182.556 273.282C183.153 264.021 176.57 260.182 170.584 260.182C164.103 260.252 158.75 269.225 156.906 270.97C156.052 268.658 162.567 249.394 164.601 249.394H144.079C146.114 249.394 152.629 268.658 151.775 270.97C150.16 269.367 145.428 260.45 138.093 260.182C132.111 260.185 125.532 264.021 126.129 273.282Z" fill="#2C2C2C"/>
<path d="M125.69 191.505C126.545 204.605 153.049 229.261 153.904 235.429C154.758 229.265 181.263 204.608 182.117 191.505C182.714 182.245 176.131 178.405 170.145 178.405C163.664 178.475 158.312 187.449 156.468 189.193C155.613 186.881 162.129 167.617 164.163 167.617H143.641C145.675 167.617 152.191 186.881 151.336 189.193C149.722 187.591 144.99 178.674 137.655 178.405C131.673 178.409 125.093 182.245 125.69 191.505Z" fill="#2C2C2C"/>
<path d="M140.416 95.581C139.562 82.4812 113.057 57.8248 112.203 51.6575C111.348 57.8216 84.8436 82.4779 83.989 95.581C83.3921 104.842 89.975 108.681 95.961 108.681C102.442 108.611 107.795 99.6376 109.639 97.893C110.493 100.205 103.978 119.469 101.943 119.469H122.465C120.431 119.469 113.915 100.205 114.77 97.893C116.385 99.4955 121.117 108.412 128.451 108.681C134.434 108.678 141.013 104.842 140.416 95.581Z" fill="#2C2C2C"/>
</g>
<defs>
<clipPath id="clip0_2009_1879">
<rect width="222.783" height="323.556" fill="white"/>
</clipPath>
</defs>
</svg>
