<svg width="143" height="200" viewBox="0 0 143 200" fill="none" xmlns="http://www.w3.org/2000/svg">
<path d="M15.7896 199.996C7.34554 200.011 0.445274 193.265 0.438093 184.95L8.95216e-05 15.1325C-0.0286317 6.77462 6.85728 -0.0143378 15.3408 2.27406e-05L127.569 0.204686C136.013 0.219046 142.884 7.02594 142.884 15.3658V184.817C142.884 193.107 136.034 199.846 127.619 199.864L15.7896 199.996Z" fill="#C9C9C9"/>
<path d="M17.1979 199.576C8.85797 199.576 2.06543 192.809 2.06543 184.501V15.0787C2.06543 6.77107 8.85797 0.0107422 17.1979 0.0107422H127.789C136.129 0.0107422 142.914 6.77107 142.914 15.0787V184.501C142.914 192.809 136.125 199.576 127.789 199.576H17.1979Z" fill="#F1EAD8"/>
<path d="M19.3841 38.5943C19.2513 41.111 14.2395 44.8986 14.2395 44.8986C14.2395 44.8986 9.08398 41.0714 9.08398 38.5727C9.08398 36.8494 10.4877 35.4529 12.211 35.4529C13.1732 35.4529 14.2502 36.3217 14.2502 36.3217C14.2502 36.3217 15.2734 35.4529 16.2715 35.4672C17.9983 35.4888 19.4811 36.8782 19.3841 38.5943Z" fill="#D66753"/>
<path opacity="0.2" d="M16.2743 35.467C15.2762 35.4526 14.253 36.3215 14.253 36.3215C14.253 36.3215 14.2422 36.3142 14.2207 36.2999V44.8983C14.2279 44.8983 14.2387 44.8983 14.2387 44.8983C14.2387 44.8983 19.2505 41.1107 19.3833 38.594C19.4803 36.8779 17.9976 35.4885 16.2743 35.467Z" fill="#616161"/>
<path d="M125.375 163.039C125.508 160.48 130.638 156.602 130.638 156.602C130.638 156.602 135.898 160.516 135.898 163.083C135.898 164.835 134.458 166.245 132.702 166.245C131.715 166.245 130.609 165.369 130.609 165.369C130.609 165.369 129.568 166.246 128.549 166.238C126.8 166.202 125.285 164.799 125.375 163.039Z" fill="#D66753"/>
<path opacity="0.2" d="M128.553 166.235C129.572 166.242 130.614 165.366 130.614 165.366C130.614 165.366 130.631 165.373 130.649 165.38V156.617C130.646 156.602 130.642 156.602 130.642 156.602C130.642 156.602 125.512 160.48 125.379 163.039C125.286 164.799 126.801 166.202 128.553 166.235Z" fill="#616161"/>
<path d="M31.6604 28.718C32.0338 35.8336 46.2974 46.6472 46.2974 46.6472C46.2974 46.6472 60.9739 35.7511 60.9739 28.6318C60.9739 23.7313 56.9601 19.7749 52.0668 19.7749C49.3167 19.7749 46.2508 22.2521 46.2508 22.2521C46.2508 22.2521 43.3391 19.7749 40.5101 19.8108C35.5988 19.8755 31.3947 23.821 31.6604 28.718Z" fill="#D66753"/>
<path opacity="0.2" d="M40.5069 19.8107C43.3359 19.7748 46.2475 22.252 46.2475 22.252C46.2475 22.252 46.2798 22.2233 46.348 22.1802V46.6184C46.3193 46.6399 46.2942 46.6471 46.2942 46.6471C46.2942 46.6471 32.0341 35.8335 31.6571 28.7178C31.3951 23.8208 35.5991 19.8753 40.5069 19.8107Z" fill="#616161"/>
<path d="M57.9601 94.0474C58.3371 101.156 72.608 111.962 72.608 111.962C72.608 111.962 87.2701 101.073 87.2701 93.9468C87.2701 89.0462 83.2599 85.0898 78.3629 85.0898C75.6129 85.0898 72.5469 87.5707 72.5469 87.5707C72.5469 87.5707 69.6389 85.0899 66.8098 85.1294C61.9129 85.2048 57.6945 89.1396 57.9601 94.0474Z" fill="#D66753"/>
<path opacity="0.2" d="M66.8089 85.1331C69.6379 85.09 72.546 87.5744 72.546 87.5744C72.546 87.5744 72.5926 87.5529 72.65 87.499V111.937C72.6213 111.966 72.607 111.966 72.607 111.966C72.607 111.966 58.3361 101.159 57.9592 94.051C57.6935 89.1396 61.9119 85.2049 66.8089 85.1331Z" fill="#616161"/>
<path d="M113.763 28.718C113.379 35.8336 99.1117 46.6472 99.1117 46.6472C99.1117 46.6472 84.4531 35.7511 84.4531 28.6318C84.4531 23.7313 88.4561 19.7749 93.3603 19.7749C96.1068 19.7749 99.1728 22.2521 99.1728 22.2521C99.1728 22.2521 102.077 19.7749 104.91 19.8108C109.81 19.8755 114.025 23.821 113.763 28.718Z" fill="#D66753"/>
<path opacity="0.2" d="M104.91 19.8107C102.078 19.7748 99.1734 22.252 99.1734 22.252C99.1734 22.252 99.1303 22.2233 99.0801 22.1802V46.6184C99.1016 46.6399 99.1123 46.6471 99.1123 46.6471C99.1123 46.6471 113.383 35.8335 113.764 28.7178C114.026 23.8208 109.811 19.8753 104.91 19.8107Z" fill="#616161"/>
<path d="M31.6604 72.6755C32.0338 79.7983 46.2974 90.6046 46.2974 90.6046C46.2974 90.6046 60.9739 79.7157 60.9739 72.5965C60.9739 67.6887 56.9601 63.7324 52.0668 63.7324C49.3167 63.7324 46.2508 66.2131 46.2508 66.2131C46.2508 66.2131 43.3391 63.7324 40.5101 63.7719C35.5988 63.8329 31.3947 67.7713 31.6604 72.6755Z" fill="#D66753"/>
<path opacity="0.2" d="M40.5069 63.7752C43.3359 63.7321 46.2475 66.2165 46.2475 66.2165C46.2475 66.2165 46.2798 66.1806 46.348 66.1375V90.5829C46.3193 90.5972 46.2942 90.6044 46.2942 90.6044C46.2942 90.6044 32.0341 79.7981 31.6571 72.6752C31.3951 67.7711 35.5991 63.8327 40.5069 63.7752Z" fill="#616161"/>
<path d="M113.763 72.6755C113.379 79.7983 99.1117 90.6046 99.1117 90.6046C99.1117 90.6046 84.4531 79.7157 84.4531 72.5965C84.4531 67.6887 88.4561 63.7324 93.3603 63.7324C96.1068 63.7324 99.1728 66.2131 99.1728 66.2131C99.1728 66.2131 102.077 63.7324 104.91 63.7719C109.81 63.8329 114.025 67.7713 113.763 72.6755Z" fill="#D66753"/>
<path opacity="0.2" d="M104.91 63.7752C102.078 63.7321 99.1734 66.2165 99.1734 66.2165C99.1734 66.2165 99.1303 66.1806 99.0801 66.1375V90.5829C99.1016 90.5972 99.1123 90.6044 99.1123 90.6044C99.1123 90.6044 113.383 79.7981 113.764 72.6752C114.026 67.7711 109.811 63.8327 104.91 63.7752Z" fill="#616161"/>
<path d="M31.6604 169.573C32.0338 162.468 46.2974 151.658 46.2974 151.658C46.2974 151.658 60.9739 162.54 60.9739 169.666C60.9739 174.574 56.9601 178.53 52.0668 178.53C49.3167 178.53 46.2508 176.042 46.2508 176.042C46.2508 176.042 43.3391 178.53 40.5101 178.491C35.5988 178.43 31.3947 174.488 31.6604 169.573Z" fill="#D66753"/>
<path opacity="0.2" d="M40.5069 178.484C43.3359 178.527 46.2475 176.035 46.2475 176.035C46.2475 176.035 46.2798 176.078 46.348 176.118V151.68C46.3193 151.658 46.2942 151.651 46.2942 151.651C46.2942 151.651 32.0341 162.465 31.6571 169.566C31.3951 174.488 35.5991 178.43 40.5069 178.484Z" fill="#616161"/>
<path d="M113.763 169.573C113.379 162.468 99.1117 151.658 99.1117 151.658C99.1117 151.658 84.4531 162.54 84.4531 169.666C84.4531 174.574 88.4561 178.53 93.3603 178.53C96.1068 178.53 99.1728 176.042 99.1728 176.042C99.1728 176.042 102.077 178.53 104.91 178.491C109.81 178.43 114.025 174.488 113.763 169.573Z" fill="#D66753"/>
<path opacity="0.2" d="M104.91 178.484C102.078 178.527 99.1734 176.035 99.1734 176.035C99.1734 176.035 99.1303 176.078 99.0801 176.118V151.68C99.1016 151.658 99.1123 151.651 99.1123 151.651C99.1123 151.651 113.383 162.465 113.764 169.566C114.026 174.488 109.811 178.43 104.91 178.484Z" fill="#616161"/>
<path d="M31.6604 125.616C32.0338 118.508 46.2974 107.694 46.2974 107.694C46.2974 107.694 60.9739 118.583 60.9739 125.709C60.9739 130.61 56.9601 134.574 52.0668 134.574C49.3167 134.574 46.2508 132.086 46.2508 132.086C46.2508 132.086 43.3391 134.574 40.5101 134.527C35.5988 134.459 31.3947 130.531 31.6604 125.616Z" fill="#D66753"/>
<path opacity="0.2" d="M40.5069 134.519C43.3359 134.57 46.2475 132.078 46.2475 132.078C46.2475 132.078 46.2798 132.114 46.348 132.161V107.722C46.3193 107.694 46.2942 107.687 46.2942 107.687C46.2942 107.687 32.0341 118.5 31.6571 125.609C31.3951 130.531 35.5991 134.458 40.5069 134.519Z" fill="#616161"/>
<path d="M113.763 125.616C113.379 118.508 99.1117 107.694 99.1117 107.694C99.1117 107.694 84.4531 118.583 84.4531 125.709C84.4531 130.61 88.4561 134.574 93.3603 134.574C96.1068 134.574 99.1728 132.086 99.1728 132.086C99.1728 132.086 102.077 134.574 104.91 134.527C109.81 134.459 114.025 130.531 113.763 125.616Z" fill="#D66753"/>
<path opacity="0.2" d="M104.91 134.519C102.078 134.57 99.1734 132.078 99.1734 132.078C99.1734 132.078 99.1303 132.114 99.0801 132.161V107.722C99.1016 107.694 99.1123 107.687 99.1123 107.687C99.1123 107.687 113.383 118.5 113.764 125.609C114.026 130.531 109.811 134.458 104.91 134.519Z" fill="#616161"/>
<path d="M20.4144 21.5549C20.4144 24.2167 19.8313 26.2679 18.665 27.7085C17.5125 29.1354 15.9072 29.8489 13.8492 29.8489C12.4086 29.8489 11.2766 29.5745 10.4534 29.0257C9.64392 28.4768 9.23917 27.7634 9.23917 26.8853C9.23917 26.3365 9.40382 25.8631 9.73311 25.4652C10.0761 25.0536 10.522 24.8478 11.0708 24.8478C11.6334 24.8478 12.0724 24.9987 12.388 25.3006C12.7173 25.5887 12.8819 25.9386 12.8819 26.3502C12.8819 26.7481 12.827 27.0979 12.7173 27.3998H12.0999C12.0038 27.6056 11.9558 27.8731 11.9558 28.2024C11.9558 28.518 12.0999 28.8061 12.388 29.0668C12.6898 29.3138 13.1289 29.4373 13.7051 29.4373C14.6244 29.4373 15.2898 28.9365 15.7014 27.9349C16.1268 26.9333 16.3463 25.1908 16.36 22.7075C15.6466 23.8188 14.5627 24.3745 13.1083 24.3745C11.8735 24.3745 10.8582 23.9766 10.0624 23.1808C9.26661 22.385 8.86873 21.2943 8.86873 19.9085C8.86873 18.2621 9.41068 17.0341 10.4946 16.2246C11.5922 15.4151 12.9917 15.0104 14.693 15.0104C18.5072 15.0104 20.4144 17.1919 20.4144 21.5549ZM14.302 23.6953C14.7685 23.6953 15.1595 23.5238 15.4751 23.1808C15.8043 22.8241 16.0239 22.4125 16.1336 21.946C16.2571 21.4658 16.3189 20.8483 16.3189 20.0937C16.3189 19.3254 16.312 18.7972 16.2983 18.509C16.2983 18.2072 16.2846 17.8573 16.2571 17.4594C16.2297 17.0478 16.1817 16.7528 16.113 16.5745C16.0444 16.3824 15.9553 16.1834 15.8455 15.9776C15.6397 15.6209 15.2624 15.4425 14.7136 15.4425C14.0962 15.4425 13.6365 15.6895 13.3347 16.1834C13.1014 16.5813 12.9642 17.2673 12.9231 18.2415C12.9094 18.5845 12.9025 19.051 12.9025 19.641C12.9025 20.2172 12.9025 20.6631 12.9025 20.9787C12.9162 21.2943 12.9368 21.6304 12.9642 21.9871C12.9917 22.3301 13.0328 22.5908 13.0877 22.7692C13.1563 22.9476 13.2386 23.1191 13.3347 23.2837C13.5131 23.5581 13.8355 23.6953 14.302 23.6953Z" fill="#D66753"/>
<path d="M123.544 180.67C123.544 178.009 124.127 175.957 125.293 174.517C126.445 173.09 128.051 172.376 130.109 172.376C131.549 172.376 132.681 172.651 133.505 173.2C134.314 173.749 134.719 174.462 134.719 175.34C134.719 175.889 134.554 176.362 134.225 176.76C133.882 177.172 133.436 177.378 132.887 177.378C132.325 177.378 131.886 177.227 131.57 176.925C131.241 176.637 131.076 176.287 131.076 175.875C131.076 175.477 131.131 175.127 131.241 174.826L131.858 174.826C131.954 174.62 132.002 174.352 132.002 174.023C132.002 173.707 131.858 173.419 131.57 173.159C131.268 172.912 130.829 172.788 130.253 172.788C129.334 172.788 128.668 173.289 128.257 174.29C127.831 175.292 127.612 177.035 127.598 179.518C128.311 178.407 129.395 177.851 130.85 177.851C132.085 177.851 133.1 178.249 133.896 179.045C134.691 179.84 135.089 180.931 135.089 182.317C135.089 183.963 134.547 185.191 133.463 186.001C132.366 186.81 130.966 187.215 129.265 187.215C125.451 187.215 123.544 185.033 123.544 180.67ZM129.656 178.53C129.19 178.53 128.799 178.702 128.483 179.045C128.154 179.401 127.934 179.813 127.824 180.279C127.701 180.76 127.639 181.377 127.639 182.132C127.639 182.9 127.646 183.428 127.66 183.716C127.66 184.018 127.673 184.368 127.701 184.766C127.728 185.178 127.776 185.473 127.845 185.651C127.914 185.843 128.003 186.042 128.113 186.248C128.318 186.604 128.696 186.783 129.244 186.783C129.862 186.783 130.321 186.536 130.623 186.042C130.857 185.644 130.994 184.958 131.035 183.984C131.049 183.641 131.056 183.174 131.056 182.584C131.056 182.008 131.056 181.562 131.056 181.247C131.042 180.931 131.021 180.595 130.994 180.238C130.966 179.895 130.925 179.635 130.87 179.456C130.802 179.278 130.719 179.106 130.623 178.942C130.445 178.667 130.123 178.53 129.656 178.53Z" fill="#D66753"/>
</svg>
