<svg width="143" height="200" viewBox="0 0 143 200" fill="none" xmlns="http://www.w3.org/2000/svg">
<path d="M15.7931 200C7.34552 200.014 0.456023 193.276 0.438072 184.957L6.86067e-05 15.1325C-0.0250624 6.77462 6.85726 -0.0143379 15.3408 2.27406e-05L127.572 0.204686C136.016 0.226227 142.888 7.03312 142.888 15.3658V184.824C142.888 193.114 136.042 199.86 127.63 199.871L15.7931 200Z" fill="#C9C9C9"/>
<path d="M17.1943 199.58C8.85081 199.58 2.06543 192.82 2.06543 184.505V15.0823C2.06543 6.77473 8.8544 0.0144043 17.1943 0.0144043H127.789C136.129 0.0144043 142.914 6.77473 142.914 15.0823V184.505C142.914 192.82 136.125 199.58 127.789 199.58H17.1943Z" fill="#F1EAD8"/>
<path d="M114.61 33.6969C114.625 30.0996 98.9538 14.7014 98.9538 14.7014C98.9538 14.7014 83.6813 30.5843 83.6778 33.6467C83.667 38.8129 87.8531 43.0133 93.0301 43.0205C94.7965 43.0205 96.4551 42.543 97.8589 41.6885L91.9854 51.6943L106.235 51.7231L100.401 41.6958C101.801 42.5431 103.449 43.0421 105.219 43.0564C110.396 43.0636 114.61 38.8775 114.61 33.6969Z" fill="#2C2C2C"/>
<path opacity="0.2" d="M114.611 33.6969C114.626 30.0996 98.9545 14.7014 98.9545 14.7014C98.9545 14.7014 98.9437 14.7158 98.9258 14.7301V51.7194L106.235 51.7267L100.401 41.6994C101.802 42.5467 103.449 43.0457 105.219 43.06C110.396 43.0636 114.611 38.8775 114.611 33.6969Z" fill="#616161"/>
<path d="M114.61 78.0893C114.625 74.492 98.9538 59.0867 98.9538 59.0867C98.9538 59.0867 83.6813 74.9695 83.6778 78.0319C83.667 83.2053 87.8531 87.4058 93.0301 87.413C94.7965 87.4202 96.4551 86.9354 97.8589 86.0738L91.9854 96.0867L106.235 96.1083L100.401 86.0882C101.801 86.9354 103.449 87.4417 105.219 87.4417C110.396 87.456 114.61 83.2771 114.61 78.0893Z" fill="#2C2C2C"/>
<path opacity="0.2" d="M114.611 78.0893C114.626 74.492 98.9545 59.0867 98.9545 59.0867C98.9545 59.0867 98.9437 59.101 98.9258 59.1154V96.0975L106.235 96.1118L100.401 86.0918C101.802 86.939 103.449 87.4452 105.219 87.4452C110.396 87.456 114.611 83.2771 114.611 78.0893Z" fill="#616161"/>
<path d="M30.4395 33.6969C30.4287 30.0996 46.0961 14.7014 46.0961 14.7014C46.0961 14.7014 61.3686 30.5843 61.3722 33.6467C61.3829 38.8129 57.1968 43.0133 52.027 43.0205C50.2571 43.0205 48.602 42.543 47.1911 41.6885L53.0681 51.6943L38.8153 51.7231L44.6456 41.6958C43.2527 42.5431 41.6048 43.0421 39.8277 43.0564C34.6579 43.0636 30.4395 38.8775 30.4395 33.6969Z" fill="#2C2C2C"/>
<path opacity="0.2" d="M30.4395 33.6969C30.4287 30.0996 46.0961 14.7014 46.0961 14.7014C46.0961 14.7014 46.1104 14.7158 46.1248 14.7301V51.7194L38.8153 51.7267L44.6456 41.6994C43.2527 42.5467 41.6048 43.0457 39.8277 43.06C34.6579 43.0636 30.4395 38.8775 30.4395 33.6969Z" fill="#616161"/>
<path d="M57.0254 99.9675C57.011 96.3702 72.682 80.9648 72.682 80.9648C72.682 80.9648 87.9617 96.8476 87.9653 99.9028C87.9689 105.083 83.7864 109.284 78.613 109.284C76.8502 109.291 75.1915 108.814 73.7842 107.952L79.6541 117.965L65.4048 117.986L71.2352 107.966C69.8386 108.814 68.1907 109.313 66.4172 109.327C61.2474 109.334 57.0254 105.141 57.0254 99.9675Z" fill="#2C2C2C"/>
<path opacity="0.2" d="M57.0254 99.9675C57.011 96.3702 72.682 80.9648 72.682 80.9648C72.682 80.9648 72.6964 80.9864 72.7107 81.0008V117.983L65.4048 117.99L71.2352 107.97C69.8386 108.817 68.1907 109.316 66.4172 109.331C61.2474 109.334 57.0254 105.141 57.0254 99.9675Z" fill="#616161"/>
<path d="M30.4395 78.0893C30.4287 74.492 46.0961 59.0867 46.0961 59.0867C46.0961 59.0867 61.3686 74.9695 61.3722 78.0319C61.3829 83.2053 57.1968 87.4058 52.027 87.413C50.2571 87.4202 48.602 86.9354 47.1911 86.0738L53.0681 96.0867L38.8153 96.1083L44.6456 86.0882C43.2527 86.9354 41.6048 87.4417 39.8277 87.4417C34.6579 87.456 30.4395 83.2771 30.4395 78.0893Z" fill="#2C2C2C"/>
<path opacity="0.2" d="M30.4395 78.0893C30.4287 74.492 46.0961 59.0867 46.0961 59.0867C46.0961 59.0867 46.1104 59.101 46.1248 59.1154V96.0975L38.8153 96.1118L44.6456 86.0918C43.2527 86.939 41.6048 87.4452 39.8277 87.4452C34.6579 87.456 30.4395 83.2771 30.4395 78.0893Z" fill="#616161"/>
<path d="M114.544 166.651C114.559 170.248 98.8842 185.653 98.8842 185.653C98.8842 185.653 83.6081 169.778 83.6045 166.708C83.5973 161.535 87.7798 157.334 92.9568 157.327C94.7196 157.32 96.3746 157.812 97.7856 158.666L91.9121 148.66L106.165 148.632L100.338 158.652C101.728 157.812 103.383 157.305 105.156 157.298C110.322 157.284 114.544 161.47 114.544 166.651Z" fill="#2C2C2C"/>
<path opacity="0.2" d="M114.544 166.651C114.559 170.248 98.8842 185.653 98.8842 185.653C98.8842 185.653 98.8662 185.639 98.8555 185.625V148.643L106.165 148.628L100.338 158.648C101.728 157.808 103.383 157.302 105.156 157.295C110.322 157.284 114.544 161.47 114.544 166.651Z" fill="#616161"/>
<path d="M114.544 122.259C114.559 125.863 98.8842 141.268 98.8842 141.268C98.8842 141.268 83.6081 125.378 83.6045 122.316C83.5973 117.15 87.7798 112.942 92.9568 112.942C94.7196 112.942 96.3746 113.42 97.7856 114.267L91.9121 104.268L106.165 104.232L100.338 114.267C101.728 113.42 103.383 112.921 105.156 112.906C110.322 112.895 114.544 117.082 114.544 122.259Z" fill="#2C2C2C"/>
<path opacity="0.2" d="M114.544 122.259C114.559 125.863 98.8842 141.269 98.8842 141.269C98.8842 141.269 98.8662 141.247 98.8555 141.233V104.25L106.165 104.229L100.338 114.263C101.728 113.416 103.383 112.917 105.156 112.903C110.322 112.896 114.544 117.082 114.544 122.259Z" fill="#616161"/>
<path d="M30.3652 166.651C30.3509 170.248 46.0255 185.653 46.0255 185.653C46.0255 185.653 61.2944 169.778 61.3016 166.708C61.3087 161.535 57.1262 157.334 51.9528 157.327C50.1829 157.32 48.5314 157.812 47.1205 158.666L52.9939 148.66L38.7446 148.632L44.575 158.652C43.1749 157.812 41.527 157.305 39.7571 157.298C34.5801 157.284 30.3652 161.47 30.3652 166.651Z" fill="#2C2C2C"/>
<path opacity="0.2" d="M30.3652 166.651C30.3509 170.248 46.0255 185.653 46.0255 185.653C46.0255 185.653 46.0398 185.639 46.0506 185.625V148.643L38.7411 148.628L44.5715 158.648C43.1713 157.808 41.5234 157.302 39.7535 157.295C34.5801 157.284 30.3652 161.47 30.3652 166.651Z" fill="#616161"/>
<path d="M30.3652 122.259C30.3509 125.863 46.0255 141.268 46.0255 141.268C46.0255 141.268 61.2944 125.378 61.3016 122.316C61.3087 117.15 57.1262 112.942 51.9528 112.942C50.1829 112.942 48.5314 113.42 47.1205 114.267L52.9939 104.268L38.7446 104.232L44.575 114.267C43.1749 113.42 41.527 112.921 39.7571 112.906C34.5801 112.895 30.3652 117.082 30.3652 122.259Z" fill="#2C2C2C"/>
<path opacity="0.2" d="M30.3652 122.259C30.3509 125.863 46.0255 141.269 46.0255 141.269C46.0255 141.269 46.0398 141.247 46.0506 141.233V104.25L38.7411 104.229L44.5715 114.263C43.1713 113.416 41.5234 112.917 39.7535 112.903C34.5801 112.896 30.3652 117.082 30.3652 122.259Z" fill="#616161"/>
<path d="M18.2004 40.5324C18.2039 39.5738 14.025 35.4631 14.025 35.4631C14.025 35.4631 9.9502 39.6994 9.9502 40.5108C9.9502 41.893 11.0631 43.0132 12.4418 43.0132C12.9157 43.0132 13.3573 42.8875 13.7306 42.6613L12.1653 45.3324H15.9637L14.4127 42.6613C14.7825 42.8875 15.2241 43.0203 15.6944 43.0203C17.0731 43.0203 18.2004 41.9074 18.2004 40.5324Z" fill="#2C2C2C"/>
<path opacity="0.2" d="M18.1998 40.5324C18.2034 39.5738 14.0245 35.4631 14.0245 35.4631C14.0245 35.4631 14.0209 35.4703 14.0137 35.4703V45.336H15.9631L14.4122 42.6649C14.782 42.8911 15.2236 43.0239 15.6939 43.0239C17.0725 43.0204 18.1998 41.9074 18.1998 40.5324Z" fill="#616161"/>
<path d="M127.223 161.406C127.219 162.375 131.398 166.475 131.398 166.475C131.398 166.475 135.473 162.239 135.473 161.427C135.473 160.045 134.36 158.932 132.978 158.932C132.504 158.925 132.066 159.051 131.696 159.284L133.258 156.613L129.456 156.606L131.014 159.277C130.64 159.051 130.199 158.918 129.729 158.918C128.343 158.911 127.223 160.024 127.223 161.406Z" fill="#2C2C2C"/>
<path opacity="0.2" d="M127.223 161.406C127.219 162.375 131.398 166.475 131.398 166.475L131.402 166.468V156.609L129.456 156.602L131.014 159.273C130.64 159.047 130.199 158.914 129.729 158.914C128.343 158.911 127.223 160.024 127.223 161.406Z" fill="#616161"/>
<path d="M20.0579 22.7141C20.0579 25.3759 19.4748 27.4271 18.3086 28.8677C17.1561 30.2946 15.5508 31.0081 13.4928 31.0081C12.0521 31.0081 10.9202 30.7336 10.097 30.1848C9.28748 29.636 8.88273 28.9226 8.88273 28.0445C8.88273 27.4957 9.04737 27.0223 9.37666 26.6244C9.71967 26.2128 10.1656 26.007 10.7144 26.007C11.2769 26.007 11.716 26.1579 12.0315 26.4598C12.3608 26.7479 12.5255 27.0978 12.5255 27.5094C12.5255 27.9073 12.4706 28.2571 12.3608 28.559H11.7434C11.6474 28.7648 11.5993 29.0323 11.5993 29.3616C11.5993 29.6772 11.7434 29.9653 12.0315 30.226C12.3334 30.473 12.7724 30.5964 13.3487 30.5964C14.2679 30.5964 14.9334 30.0957 15.345 29.0941C15.7703 28.0925 15.9898 26.35 16.0036 23.8666C15.2901 24.978 14.2062 25.5336 12.7519 25.5336C11.517 25.5336 10.5017 25.1358 9.70595 24.34C8.91017 23.5442 8.51228 22.4534 8.51228 21.0677C8.51228 19.4213 9.05423 18.1933 10.1381 17.3838C11.2358 16.5743 12.6352 16.1695 14.3366 16.1695C18.1508 16.1695 20.0579 18.3511 20.0579 22.7141ZM13.9455 24.8545C14.412 24.8545 14.803 24.683 15.1186 24.34C15.4479 23.9833 15.6674 23.5716 15.7772 23.1052C15.9007 22.6249 15.9624 22.0075 15.9624 21.2529C15.9624 20.4846 15.9555 19.9563 15.9418 19.6682C15.9418 19.3664 15.9281 19.0165 15.9007 18.6186C15.8732 18.207 15.8252 17.912 15.7566 17.7337C15.688 17.5416 15.5988 17.3426 15.4891 17.1368C15.2833 16.7801 14.9059 16.6017 14.3571 16.6017C13.7397 16.6017 13.2801 16.8487 12.9782 17.3426C12.745 17.7405 12.6078 18.4265 12.5666 19.4007C12.5529 19.7437 12.5461 20.2102 12.5461 20.8001C12.5461 21.3764 12.5461 21.8223 12.5461 22.1379C12.5598 22.4534 12.5804 22.7896 12.6078 23.1463C12.6352 23.4893 12.6764 23.75 12.7313 23.9284C12.7999 24.1067 12.8822 24.2782 12.9782 24.4429C13.1566 24.7173 13.479 24.8545 13.9455 24.8545Z" fill="#2C2C2C"/>
<path d="M123.758 179.543C123.758 176.881 124.342 174.83 125.508 173.389C126.66 171.962 128.266 171.249 130.324 171.249C131.764 171.249 132.896 171.523 133.719 172.072C134.529 172.621 134.934 173.335 134.934 174.213C134.934 174.761 134.769 175.235 134.44 175.633C134.097 176.044 133.651 176.25 133.102 176.25C132.539 176.25 132.1 176.099 131.785 175.797C131.456 175.509 131.291 175.159 131.291 174.748C131.291 174.35 131.346 174 131.456 173.698L132.073 173.698C132.169 173.492 132.217 173.225 132.217 172.895C132.217 172.58 132.073 172.292 131.785 172.031C131.483 171.784 131.044 171.661 130.468 171.661C129.548 171.661 128.883 172.161 128.471 173.163C128.046 174.165 127.827 175.907 127.813 178.39C128.526 177.279 129.61 176.723 131.065 176.723C132.299 176.723 133.315 177.121 134.11 177.917C134.906 178.713 135.304 179.804 135.304 181.189C135.304 182.836 134.762 184.064 133.678 184.873C132.581 185.683 131.181 186.088 129.48 186.088C125.666 186.088 123.758 183.906 123.758 179.543ZM129.871 177.403C129.404 177.403 129.013 177.574 128.698 177.917C128.369 178.274 128.149 178.685 128.039 179.152C127.916 179.632 127.854 180.25 127.854 181.004C127.854 181.773 127.861 182.301 127.875 182.589C127.875 182.891 127.888 183.241 127.916 183.638C127.943 184.05 127.991 184.345 128.06 184.523C128.128 184.716 128.218 184.914 128.327 185.12C128.533 185.477 128.91 185.655 129.459 185.655C130.077 185.655 130.536 185.408 130.838 184.914C131.071 184.517 131.209 183.831 131.25 182.856C131.263 182.513 131.27 182.047 131.27 181.457C131.27 180.881 131.27 180.435 131.27 180.119C131.257 179.804 131.236 179.467 131.209 179.111C131.181 178.768 131.14 178.507 131.085 178.329C131.017 178.15 130.934 177.979 130.838 177.814C130.66 177.54 130.337 177.403 129.871 177.403Z" fill="#2C2C2C"/>
</svg>
