<svg width="223" height="324" viewBox="0 0 223 324" fill="none" xmlns="http://www.w3.org/2000/svg">
<g clip-path="url(#clip0_2009_1537)">
<path d="M222.449 314.064C222.449 319.1 218.333 323.223 213.287 323.223H9.48079C4.44759 323.223 0.333008 319.1 0.333008 314.064V9.49348C0.333008 4.45703 4.44759 0.333328 9.48079 0.333328H213.287C218.333 0.333328 222.449 4.45703 222.449 9.49348V314.064Z" fill="#F1EAD8" stroke="#2C2C2C" stroke-width="0.666667"/>
<path d="M29.9561 20.627C28.1644 23.0298 25.7824 24.2312 22.8102 24.2312C20.2547 24.2312 18.0602 23.3562 16.2269 21.6062C14.3936 19.8423 13.4769 17.5715 13.4769 14.7937C13.4769 12.0159 14.4005 9.59232 16.2477 7.52288C18.1088 5.43954 20.5394 4.39788 23.5394 4.39788C27.4977 4.39788 30.4769 5.96732 32.4769 9.10621C34.1713 11.759 35.0186 15.0923 35.0186 19.1062C35.0186 24.5645 33.8658 28.8284 31.5602 31.8979C29.2547 34.9534 26.3588 36.4812 22.8727 36.4812C20.4144 36.4812 18.4074 35.9048 16.8519 34.752C15.3102 33.5854 14.5394 32.252 14.5394 30.752C14.5394 29.252 15.1366 28.2173 16.3311 27.6479C16.6922 27.4673 17.0811 27.377 17.4977 27.377C18.3449 27.377 19.0324 27.6548 19.5602 28.2104C20.1019 28.7659 20.3727 29.4326 20.3727 30.2104C20.3727 31.3632 19.8866 32.1965 18.9144 32.7104C19.5672 33.4743 20.5811 33.8562 21.9561 33.8562C24.5116 33.8562 26.4977 32.9118 27.9144 31.0229C29.3449 29.134 30.0602 26.5715 30.0602 23.3354C30.0602 22.6826 30.0255 21.7798 29.9561 20.627ZM23.7894 21.5437C25.3449 21.5437 26.6366 20.877 27.6644 19.5437C28.6922 18.2104 29.2061 16.4257 29.2061 14.1895C29.2061 11.9534 28.6783 10.1965 27.6227 8.91871C26.5811 7.64093 25.338 7.00204 23.8936 7.00204C22.4491 7.00204 21.1991 7.68954 20.1436 9.06454C19.088 10.4257 18.5602 12.2173 18.5602 14.4395C18.5602 16.6618 19.0463 18.4048 20.0186 19.6687C20.9908 20.9187 22.2477 21.5437 23.7894 21.5437Z" fill="#2C2C2C"/>
<path d="M27.5881 58.3196C27.5881 58.3196 32.2927 54.556 32.2927 49.3383C32.2927 46.2839 29.5809 41.2128 23.3114 41.2128C17.042 41.2128 14.3302 46.2858 14.3302 49.3383C14.3302 54.556 19.0347 58.3196 19.0347 58.3196C13.8092 54.2489 4.49316 57.0281 4.49316 65.1635C4.49316 69.2362 7.82102 73.7169 13.0466 73.7169C19.316 73.7169 22.0278 66.873 22.0278 66.873C22.0278 66.873 22.8241 74.6736 18.179 78.8493H28.4438C23.7987 74.6756 24.595 66.873 24.595 66.873C24.595 66.873 27.3068 73.7169 33.5763 73.7169C38.8038 73.7169 42.1296 69.2342 42.1296 65.1635C42.1296 57.0281 32.8136 54.2489 27.5881 58.3196Z" fill="#2C2C2C"/>
<path d="M192.943 302.06C194.735 299.657 197.117 298.455 200.089 298.455C202.645 298.455 204.839 299.33 206.673 301.08C208.506 302.844 209.423 305.115 209.423 307.893C209.423 310.671 208.499 313.094 206.652 315.164C204.791 317.247 202.36 318.289 199.36 318.289C195.402 318.289 192.423 316.719 190.423 313.58C188.728 310.928 187.881 307.594 187.881 303.58C187.881 298.122 189.034 293.858 191.339 290.789C193.645 287.733 196.541 286.205 200.027 286.205C202.485 286.205 204.492 286.782 206.048 287.935C207.589 289.101 208.36 290.435 208.36 291.935C208.36 293.435 207.763 294.469 206.568 295.039C206.207 295.219 205.818 295.31 205.402 295.31C204.554 295.31 203.867 295.032 203.339 294.476C202.798 293.921 202.527 293.254 202.527 292.476C202.527 291.324 203.013 290.49 203.985 289.976C203.332 289.212 202.318 288.83 200.943 288.83C198.388 288.83 196.402 289.775 194.985 291.664C193.554 293.553 192.839 296.115 192.839 299.351C192.839 300.004 192.874 300.907 192.943 302.06ZM199.11 301.143C197.554 301.143 196.263 301.81 195.235 303.143C194.207 304.476 193.693 306.261 193.693 308.497C193.693 310.733 194.221 312.49 195.277 313.768C196.318 315.046 197.561 315.685 199.006 315.685C200.45 315.685 201.7 314.997 202.756 313.622C203.811 312.261 204.339 310.469 204.339 308.247C204.339 306.025 203.853 304.282 202.881 303.018C201.909 301.768 200.652 301.143 199.11 301.143Z" fill="#2C2C2C"/>
<path d="M195.311 264.987C195.311 264.987 190.607 268.751 190.607 273.968C190.607 277.023 193.319 282.094 199.588 282.094C205.857 282.094 208.569 277.021 208.569 273.968C208.569 268.751 203.865 264.987 203.865 264.987C209.09 269.058 218.406 266.278 218.406 258.143C218.406 254.07 215.078 249.59 209.853 249.59C203.583 249.59 200.872 256.434 200.872 256.434C200.872 256.434 200.075 248.633 204.72 244.457H194.456C199.101 248.631 198.304 256.434 198.304 256.434C198.304 256.434 195.593 249.59 189.323 249.59C184.096 249.59 180.77 254.072 180.77 258.143C180.77 266.278 190.086 269.058 195.311 264.987Z" fill="#2C2C2C"/>
<path d="M76.7639 33.4666C76.7639 33.4666 84.7204 27.1014 84.7204 18.2772C84.7204 13.1114 80.1341 4.5351 69.5311 4.5351C58.928 4.5351 54.3417 13.1147 54.3417 18.2772C54.3417 27.1014 62.2982 33.4666 62.2982 33.4666C53.4606 26.5821 37.7051 31.2823 37.7051 45.0412C37.7051 51.929 43.3333 59.5069 52.1708 59.5069C62.7739 59.5069 67.3602 47.9323 67.3602 47.9323C67.3602 47.9323 68.7069 61.1251 60.8509 68.1871H78.2112C70.3552 61.1284 71.7019 47.9323 71.7019 47.9323C71.7019 47.9323 76.2882 59.5069 86.8913 59.5069C95.7322 59.5069 101.357 51.9257 101.357 45.0412C101.357 31.2823 85.6015 26.5821 76.7639 33.4666Z" fill="#2C2C2C"/>
<path d="M76.1477 124.268C76.1477 124.268 84.1042 117.902 84.1042 109.078C84.1042 103.912 79.5179 95.3362 68.9149 95.3362C58.3118 95.3362 53.7255 103.916 53.7255 109.078C53.7255 117.902 61.682 124.268 61.682 124.268C52.8444 117.383 37.0889 122.083 37.0889 135.842C37.0889 142.73 42.717 150.308 51.5546 150.308C62.1577 150.308 66.744 138.733 66.744 138.733C66.744 138.733 68.0907 151.926 60.2347 158.988H77.595C69.739 151.929 71.0857 138.733 71.0857 138.733C71.0857 138.733 75.672 150.308 86.2751 150.308C95.116 150.308 100.741 142.727 100.741 135.842C100.741 122.083 84.9853 117.383 76.1477 124.268Z" fill="#2C2C2C"/>
<path d="M162.077 33.2349C162.077 33.2349 170.034 26.8698 170.034 18.0456C170.034 12.8797 165.448 4.30345 154.845 4.30345C144.241 4.30345 139.655 12.8831 139.655 18.0456C139.655 26.8698 147.612 33.2349 147.612 33.2349C138.774 26.3505 123.019 31.0507 123.019 44.8096C123.019 51.6974 128.647 59.2753 137.484 59.2753C148.087 59.2753 152.674 47.7007 152.674 47.7007C152.674 47.7007 154.02 60.8934 146.164 67.9554H163.525C155.669 60.8968 157.015 47.7007 157.015 47.7007C157.015 47.7007 161.602 59.2753 172.205 59.2753C181.046 59.2753 186.671 51.694 186.671 44.8096C186.671 31.0507 170.915 26.3505 162.077 33.2349Z" fill="#2C2C2C"/>
<path d="M162.077 124.036C162.077 124.036 170.034 117.671 170.034 108.847C170.034 103.681 165.448 95.1045 154.845 95.1045C144.241 95.1045 139.655 103.684 139.655 108.847C139.655 117.671 147.612 124.036 147.612 124.036C138.774 117.152 123.019 121.852 123.019 135.611C123.019 142.498 128.647 150.076 137.484 150.076C148.087 150.076 152.674 138.502 152.674 138.502C152.674 138.502 154.02 151.694 146.164 158.756H163.525C155.669 151.698 157.015 138.502 157.015 138.502C157.015 138.502 161.602 150.076 172.205 150.076C181.046 150.076 186.671 142.495 186.671 135.611C186.671 121.852 170.915 117.152 162.077 124.036Z" fill="#2C2C2C"/>
<path d="M119.436 79.0415C119.436 79.0415 127.392 72.6763 127.392 63.8521C127.392 58.6862 122.806 50.11 112.203 50.11C101.6 50.11 97.0136 58.6896 97.0136 63.8521C97.0136 72.6763 104.97 79.0415 104.97 79.0415C96.1325 72.157 80.377 76.8572 80.377 90.6161C80.377 97.5039 86.0051 105.082 94.8427 105.082C105.446 105.082 110.032 93.5072 110.032 93.5072C110.032 93.5072 111.379 106.7 103.523 113.762H120.883C113.027 106.703 114.374 93.5072 114.374 93.5072C114.374 93.5072 118.96 105.082 129.563 105.082C138.404 105.082 144.029 97.5005 144.029 90.6161C144.029 76.8572 128.273 72.157 119.436 79.0415Z" fill="#2C2C2C"/>
<path d="M146.75 290.403C146.75 290.403 138.794 296.768 138.794 305.592C138.794 310.758 143.38 319.334 153.983 319.334C164.586 319.334 169.173 310.755 169.173 305.592C169.173 296.768 161.216 290.403 161.216 290.403C170.054 297.287 185.809 292.587 185.809 278.828C185.809 271.94 180.181 264.363 171.343 264.363C160.74 264.363 156.154 275.937 156.154 275.937C156.154 275.937 154.807 262.744 162.663 255.682H145.303C153.159 262.741 151.812 275.937 151.812 275.937C151.812 275.937 147.226 264.363 136.623 264.363C127.782 264.363 122.157 271.944 122.157 278.828C122.157 292.587 137.913 297.287 146.75 290.403Z" fill="#2C2C2C"/>
<path d="M147.611 199.602C147.611 199.602 139.654 205.967 139.654 214.791C139.654 219.957 144.24 228.533 154.844 228.533C165.447 228.533 170.033 219.954 170.033 214.791C170.033 205.967 162.076 199.602 162.076 199.602C170.914 206.486 186.67 201.786 186.67 188.027C186.67 181.139 181.041 173.561 172.204 173.561C161.601 173.561 157.014 185.136 157.014 185.136C157.014 185.136 155.668 171.943 163.524 164.881H146.163C154.019 171.94 152.673 185.136 152.673 185.136C152.673 185.136 148.086 173.561 137.483 173.561C128.642 173.561 123.018 181.143 123.018 188.027C123.018 201.786 138.773 206.486 147.611 199.602Z" fill="#2C2C2C"/>
<path d="M61.4369 290.635C61.4369 290.635 53.4804 297 53.4804 305.824C53.4804 310.99 58.0667 319.566 68.6697 319.566C79.2728 319.566 83.8591 310.986 83.8591 305.824C83.8591 297 75.9026 290.635 75.9026 290.635C84.7402 297.519 100.496 292.819 100.496 279.06C100.496 272.172 94.8675 264.594 86.03 264.594C75.4269 264.594 70.8406 276.169 70.8406 276.169C70.8406 276.169 69.4939 262.976 77.3499 255.914H59.9896C67.8456 262.973 66.4989 276.169 66.4989 276.169C66.4989 276.169 61.9126 264.594 51.3095 264.594C42.4686 264.594 36.8438 272.175 36.8438 279.06C36.8438 292.819 52.5993 297.519 61.4369 290.635Z" fill="#2C2C2C"/>
<path d="M61.681 199.833C61.681 199.833 53.7245 206.199 53.7245 215.023C53.7245 220.189 58.3108 228.765 68.9139 228.765C79.517 228.765 84.1032 220.185 84.1032 215.023C84.1032 206.199 76.1468 199.833 76.1468 199.833C84.9843 206.718 100.74 202.018 100.74 188.259C100.74 181.371 95.1117 173.793 86.2741 173.793C75.671 173.793 71.0847 185.368 71.0847 185.368C71.0847 185.368 69.738 172.175 77.594 165.113H60.2338C68.0898 172.172 66.743 185.368 66.743 185.368C66.743 185.368 62.1567 173.793 51.5536 173.793C42.7127 173.793 37.0879 181.374 37.0879 188.259C37.0879 202.018 52.8434 206.718 61.681 199.833Z" fill="#2C2C2C"/>
</g>
<defs>
<clipPath id="clip0_2009_1537">
<rect width="222.783" height="323.556" fill="white"/>
</clipPath>
</defs>
</svg>
