<svg width="143" height="200" viewBox="0 0 143 200" fill="none" xmlns="http://www.w3.org/2000/svg">
<path d="M15.8003 199.996C7.34546 200.011 0.455966 193.265 0.441606 184.957L6.86072e-05 15.1325C-0.0250624 6.77462 6.8572 -0.0143378 15.3443 2.27406e-05L127.572 0.211807C136.016 0.226168 142.895 7.02594 142.895 15.3658V184.824C142.895 193.114 136.045 199.86 127.63 199.864L15.8003 199.996Z" fill="#C9C9C9"/>
<path d="M17.1979 199.576C8.85797 199.576 2.06543 192.816 2.06543 184.501V15.0787C2.06543 6.77107 8.85797 0.0107422 17.1979 0.0107422H127.792C136.132 0.0107422 142.925 6.77107 142.925 15.0787V184.501C142.925 192.816 136.132 199.576 127.792 199.576H17.1979Z" fill="#F1EAD8"/>
<path d="M107.158 26.7466C107.291 26.1147 107.384 25.4828 107.377 24.8115C107.388 20.0366 103.5 16.1807 98.7286 16.1807C93.9537 16.1878 90.0907 20.0366 90.0871 24.8115C90.0871 25.8418 90.2667 26.8327 90.6041 27.7338C86.3929 28.0569 83.0827 31.5825 83.0684 35.8763C83.0827 40.3927 86.7375 44.0295 91.2503 44.0439C92.453 44.0439 96.7182 42.7191 97.63 42.177L92.094 51.6657L105.586 51.6513L100.043 42.177C101.152 42.852 105.873 44.0295 107.015 44.0295C111.8 44.0295 115.67 40.1593 115.667 35.3772C115.674 30.6598 111.865 26.8219 107.158 26.7466Z" fill="#2C2C2C"/>
<path opacity="0.2" d="M107.156 26.7466C107.289 26.1147 107.383 25.4828 107.375 24.8115C107.386 20.0366 103.498 16.1807 98.7267 16.1807C98.7195 16.1807 98.698 16.1879 98.6836 16.1879V51.6622L105.584 51.6549L100.041 42.1805C101.15 42.8555 105.871 44.0331 107.013 44.0331C111.798 44.0331 115.669 40.1629 115.665 35.3809C115.672 30.6598 111.863 26.8219 107.156 26.7466Z" fill="#616161"/>
<path d="M80.7259 92.8269C80.8588 92.195 80.9522 91.5631 80.9414 90.8918C80.9558 86.1169 77.064 82.2538 72.2999 82.261C67.5214 82.2682 63.6548 86.1097 63.6512 90.8918C63.6512 91.9222 63.8415 92.9058 64.1718 93.8105C59.9606 94.1408 56.6504 97.6592 56.6396 101.953C56.6468 106.469 60.3016 110.113 64.818 110.121C66.0135 110.128 70.2858 108.796 71.2013 108.261L65.6653 117.75L79.1499 117.728L73.6139 108.254C74.7233 108.929 79.4407 110.106 80.586 110.106C85.3716 110.113 89.2382 106.236 89.2346 101.454C89.2346 96.7329 85.4362 92.8951 80.7259 92.8269Z" fill="#2C2C2C"/>
<path opacity="0.2" d="M80.7243 92.8269C80.8571 92.195 80.9505 91.5631 80.9398 90.8918C80.9541 86.1169 77.0624 82.2538 72.2982 82.261C72.2875 82.261 72.2731 82.261 72.2588 82.261V117.742L79.1482 117.728L73.6123 108.254C74.7216 108.929 79.4391 110.106 80.5843 110.106C85.37 110.113 89.2366 106.236 89.233 101.454C89.233 96.7329 85.4346 92.8951 80.7243 92.8269Z" fill="#616161"/>
<path d="M107.158 70.4173C107.291 69.7926 107.384 69.1535 107.377 68.4893C107.388 63.7144 103.5 59.8515 98.7286 59.8587C93.9537 59.8587 90.0907 63.7144 90.0871 68.4893C90.0871 69.5197 90.2667 70.5107 90.6041 71.4082C86.3929 71.7385 83.0827 75.2567 83.0684 79.5506C83.0827 84.0741 86.7375 87.711 91.2503 87.7254C92.453 87.7254 96.7182 86.4006 97.63 85.8585L92.094 95.3473L105.586 95.3329L100.043 85.8513C101.152 86.5262 105.873 87.7038 107.015 87.711C111.8 87.711 115.67 83.8409 115.667 79.0516C115.674 74.3377 111.865 70.4999 107.158 70.4173Z" fill="#2C2C2C"/>
<path opacity="0.2" d="M107.156 70.4173C107.289 69.7926 107.383 69.1535 107.375 68.4893C107.386 63.7144 103.498 59.8515 98.7267 59.8587C98.7195 59.8587 98.698 59.8587 98.6836 59.8587V95.3401L105.584 95.3329L100.041 85.8513C101.15 86.5262 105.871 87.7038 107.013 87.711C111.798 87.711 115.669 83.8409 115.665 79.0516C115.672 74.3377 111.863 70.4999 107.156 70.4173Z" fill="#616161"/>
<path d="M38.2684 26.7466C38.1428 26.1147 38.0458 25.4828 38.0566 24.8115C38.0494 20.0366 41.9339 16.1807 46.7052 16.1807C51.4801 16.1878 55.3467 20.0366 55.3467 24.8115C55.3467 25.8418 55.1636 26.8327 54.8333 27.7338C59.0338 28.0569 62.3547 31.5825 62.3619 35.8763C62.3583 40.3927 58.6963 44.0295 54.1835 44.0439C52.9808 44.0439 48.7086 42.7191 47.8002 42.177L53.3327 51.6657L39.8481 51.6513L45.3841 42.177C44.2783 42.852 39.5644 44.0295 38.4192 44.0295C33.6335 44.0295 29.7633 40.1593 29.7705 35.3772C29.7633 30.6598 33.5581 26.8219 38.2684 26.7466Z" fill="#2C2C2C"/>
<path opacity="0.2" d="M38.2684 26.7466C38.1428 26.1147 38.0458 25.4828 38.0566 24.8115C38.0494 20.0366 41.9339 16.1807 46.7052 16.1807C46.716 16.1807 46.7232 16.1879 46.7375 16.1879V51.6622L39.8481 51.6549L45.3841 42.1805C44.2783 42.8555 39.5644 44.0331 38.4192 44.0331C33.6335 44.0331 29.7633 40.1629 29.7705 35.3809C29.7633 30.6598 33.5581 26.8219 38.2684 26.7466Z" fill="#616161"/>
<path d="M38.2684 70.4173C38.1428 69.7926 38.0458 69.1535 38.0566 68.4893C38.0494 63.7144 41.9339 59.8515 46.7052 59.8587C51.4801 59.8587 55.3467 63.7144 55.3467 68.4893C55.3467 69.5197 55.1636 70.5107 54.8333 71.4082C59.0338 71.7385 62.3547 75.2567 62.3619 79.5506C62.3583 84.0741 58.6963 87.711 54.1835 87.7254C52.9808 87.7254 48.7086 86.4006 47.8002 85.8585L53.3327 95.3473L39.8481 95.3329L45.3841 85.8513C44.2783 86.5262 39.5644 87.7038 38.4192 87.711C33.6335 87.711 29.7633 83.8409 29.7705 79.0516C29.7633 74.3377 33.5581 70.4999 38.2684 70.4173Z" fill="#2C2C2C"/>
<path opacity="0.2" d="M38.2684 70.4173C38.1428 69.7926 38.0458 69.1535 38.0566 68.4893C38.0494 63.7144 41.9339 59.8515 46.7052 59.8587C46.716 59.8587 46.7232 59.8587 46.7375 59.8587V95.3401L39.8481 95.3329L45.3841 85.8513C44.2783 86.5262 39.5644 87.7038 38.4192 87.711C33.6335 87.711 29.7633 83.8409 29.7705 79.0516C29.7633 74.3377 33.5581 70.4999 38.2684 70.4173Z" fill="#616161"/>
<path d="M107.158 172.826C107.291 173.458 107.384 174.09 107.377 174.768C107.388 179.536 103.5 183.406 98.7286 183.399C93.9537 183.385 90.0907 179.543 90.0871 174.768C90.0871 173.731 90.2667 172.747 90.6041 171.839C86.3929 171.516 83.0827 167.997 83.0684 163.704C83.0827 159.187 86.7375 155.536 91.2503 155.536C92.453 155.529 96.7182 156.861 97.63 157.403L92.094 147.907L105.586 147.921L100.043 157.41C101.152 156.732 105.873 155.543 107.015 155.543C111.8 155.536 115.67 159.421 115.667 164.196C115.674 168.92 111.865 172.758 107.158 172.826Z" fill="#2C2C2C"/>
<path opacity="0.2" d="M107.156 172.826C107.289 173.458 107.383 174.09 107.375 174.768C107.386 179.536 103.498 183.406 98.7267 183.399C98.7195 183.399 98.698 183.392 98.6836 183.392V147.91L105.584 147.918L100.041 157.406C101.15 156.728 105.871 155.539 107.013 155.539C111.798 155.532 115.669 159.417 115.665 164.192C115.672 168.92 111.863 172.758 107.156 172.826Z" fill="#616161"/>
<path d="M107.158 129.148C107.291 129.78 107.384 130.412 107.377 131.091C107.388 135.858 103.5 139.729 98.7286 139.721C93.9537 139.714 90.0907 135.866 90.0871 131.091C90.0871 130.053 90.2667 129.069 90.6041 128.161C86.3929 127.838 83.0827 124.32 83.0684 120.026C83.0827 115.517 86.7375 111.858 91.2503 111.858C92.453 111.858 96.7182 113.183 97.63 113.725L92.094 104.229L105.586 104.244L100.043 113.732C101.152 113.057 105.873 111.865 107.015 111.865C111.8 111.858 115.67 115.743 115.667 120.518C115.674 125.242 111.865 129.08 107.158 129.148Z" fill="#2C2C2C"/>
<path opacity="0.2" d="M107.156 129.148C107.289 129.78 107.383 130.412 107.375 131.091C107.386 135.858 103.498 139.728 98.7267 139.721C98.7195 139.721 98.698 139.721 98.6836 139.721V104.233L105.584 104.24L100.041 113.729C101.15 113.054 105.871 111.862 107.013 111.862C111.798 111.855 115.669 115.739 115.665 120.514C115.672 125.242 111.863 129.08 107.156 129.148Z" fill="#616161"/>
<path d="M38.2684 172.826C38.1428 173.458 38.0458 174.09 38.0566 174.768C38.0494 179.536 41.9339 183.406 46.7052 183.399C51.4801 183.385 55.3467 179.543 55.3467 174.768C55.3467 173.731 55.1636 172.747 54.8333 171.839C59.0338 171.516 62.3547 167.997 62.3619 163.704C62.3583 159.187 58.6963 155.536 54.1835 155.536C52.9808 155.529 48.7086 156.861 47.8002 157.403L53.3327 147.907L39.8481 147.921L45.3841 157.41C44.2783 156.732 39.5644 155.543 38.4192 155.543C33.6335 155.536 29.7633 159.421 29.7705 164.196C29.7633 168.92 33.5581 172.758 38.2684 172.826Z" fill="#2C2C2C"/>
<path opacity="0.2" d="M38.2684 172.826C38.1428 173.458 38.0458 174.09 38.0566 174.768C38.0494 179.536 41.9339 183.406 46.7052 183.399C46.716 183.399 46.7232 183.392 46.7375 183.392V147.91L39.8481 147.918L45.3841 157.406C44.2783 156.728 39.5644 155.539 38.4192 155.539C33.6335 155.532 29.7633 159.417 29.7705 164.192C29.7633 168.92 33.5581 172.758 38.2684 172.826Z" fill="#616161"/>
<path d="M38.2684 129.148C38.1428 129.78 38.0458 130.412 38.0566 131.091C38.0494 135.858 41.9339 139.729 46.7052 139.721C51.4801 139.714 55.3467 135.866 55.3467 131.091C55.3467 130.053 55.1636 129.069 54.8333 128.161C59.0338 127.838 62.3547 124.32 62.3619 120.026C62.3583 115.517 58.6963 111.858 54.1835 111.858C52.9808 111.858 48.7086 113.183 47.8002 113.725L53.3327 104.229L39.8481 104.244L45.3841 113.732C44.2783 113.057 39.5644 111.865 38.4192 111.865C33.6335 111.858 29.7633 115.743 29.7705 120.518C29.7633 125.242 33.5581 129.08 38.2684 129.148Z" fill="#2C2C2C"/>
<path opacity="0.2" d="M38.2684 129.148C38.1428 129.78 38.0458 130.412 38.0566 131.091C38.0494 135.858 41.9339 139.728 46.7052 139.721C46.716 139.721 46.7232 139.721 46.7375 139.721V104.233L39.8481 104.24L45.3841 113.729C44.2783 113.054 39.5644 111.862 38.4192 111.862C33.6335 111.855 29.7633 115.739 29.7705 120.514C29.7633 125.242 33.5581 129.08 38.2684 129.148Z" fill="#616161"/>
<path d="M15.4682 38.8203C15.4969 38.6731 15.5221 38.5331 15.5221 38.3787C15.5221 37.2909 14.6353 36.4077 13.5439 36.4077C12.4596 36.4077 11.5729 37.2909 11.5729 38.3787C11.5729 38.6085 11.616 38.8419 11.6914 39.0429C10.7292 39.1219 9.97527 39.9189 9.97168 40.9026C9.97168 41.933 10.8046 42.7623 11.8386 42.7695C12.1114 42.7695 13.0879 42.4679 13.289 42.3423L12.0253 44.5144L15.1056 44.5071L13.8454 42.3423C14.0967 42.4967 15.1702 42.7623 15.4359 42.7623C16.5237 42.7623 17.4069 41.8791 17.4069 40.7913C17.4105 39.7107 16.5453 38.8418 15.4682 38.8203Z" fill="#2C2C2C"/>
<path opacity="0.2" d="M15.4683 38.8203C15.497 38.6731 15.5221 38.5331 15.5221 38.3787C15.5221 37.2909 14.6353 36.4077 13.5439 36.4077H13.5332V44.5144L15.1093 44.5071L13.8491 42.3423C14.1004 42.4967 15.1739 42.7623 15.4395 42.7623C16.5274 42.7623 17.4106 41.8791 17.4106 40.7913C17.4106 39.7107 16.5453 38.8418 15.4683 38.8203Z" fill="#616161"/>
<path d="M133.344 165.592C133.372 165.746 133.39 165.879 133.39 166.034C133.39 167.129 132.503 168.012 131.416 168.012C130.328 168.012 129.441 167.129 129.441 166.034C129.441 165.804 129.491 165.578 129.56 165.373C128.605 165.298 127.847 164.49 127.84 163.513C127.84 162.483 128.676 161.646 129.707 161.646C129.983 161.646 130.953 161.948 131.161 162.067L129.897 159.905H132.977L131.714 162.07C131.965 161.909 133.038 161.643 133.304 161.643C134.399 161.643 135.279 162.526 135.279 163.614C135.282 164.698 134.417 165.578 133.344 165.592Z" fill="#2C2C2C"/>
<path opacity="0.2" d="M133.344 165.592C133.373 165.746 133.391 165.879 133.391 166.034C133.391 167.129 132.504 168.012 131.416 168.012H131.409V159.912H132.985L131.722 162.077C131.973 161.916 133.046 161.65 133.312 161.65C134.407 161.65 135.287 162.533 135.287 163.621C135.283 164.698 134.418 165.578 133.344 165.592Z" fill="#616161"/>
<path d="M20.0071 23.8416C20.0071 26.5033 19.424 28.5545 18.2578 29.9951C17.1053 31.422 15.5 32.1355 13.442 32.1355C12.0013 32.1355 10.8694 31.8611 10.0462 31.3123C9.2367 30.7635 8.83195 30.05 8.83195 29.1719C8.83195 28.6231 8.99659 28.1497 9.32588 27.7519C9.66889 27.3402 10.1148 27.1344 10.6636 27.1344C11.2261 27.1344 11.6652 27.2854 11.9808 27.5872C12.31 27.8753 12.4747 28.2252 12.4747 28.6368C12.4747 29.0347 12.4198 29.3846 12.31 29.6864H11.6926C11.5966 29.8922 11.5486 30.1598 11.5486 30.4891C11.5486 30.8046 11.6926 31.0927 11.9808 31.3534C12.2826 31.6004 12.7217 31.7239 13.2979 31.7239C14.2172 31.7239 14.8826 31.2231 15.2942 30.2215C15.7195 29.2199 15.9391 27.4774 15.9528 24.9941C15.2393 26.1054 14.1554 26.6611 12.7011 26.6611C11.4662 26.6611 10.4509 26.2632 9.65517 25.4674C8.85939 24.6716 8.4615 23.5809 8.4615 22.1951C8.4615 20.5487 9.00345 19.3207 10.0874 18.5112C11.185 17.7017 12.5845 17.297 14.2858 17.297C18.1 17.297 20.0071 19.4785 20.0071 23.8416ZM13.8947 25.9819C14.3612 25.9819 14.7523 25.8104 15.0678 25.4674C15.3971 25.1107 15.6166 24.6991 15.7264 24.2326C15.8499 23.7524 15.9116 23.135 15.9116 22.3804C15.9116 21.612 15.9048 21.0838 15.891 20.7957C15.891 20.4938 15.8773 20.1439 15.8499 19.7461C15.8224 19.3344 15.7744 19.0395 15.7058 18.8611C15.6372 18.669 15.548 18.4701 15.4383 18.2643C15.2325 17.9075 14.8552 17.7292 14.3064 17.7292C13.6889 17.7292 13.2293 17.9761 12.9275 18.4701C12.6942 18.868 12.557 19.554 12.5159 20.5281C12.5021 20.8711 12.4953 21.3376 12.4953 21.9276C12.4953 22.5038 12.4953 22.9497 12.4953 23.2653C12.509 23.5809 12.5296 23.917 12.557 24.2738C12.5845 24.6168 12.6256 24.8774 12.6805 25.0558C12.7491 25.2342 12.8314 25.4057 12.9275 25.5703C13.1058 25.8447 13.4283 25.9819 13.8947 25.9819Z" fill="#2C2C2C"/>
<path d="M124.85 180.099C124.85 177.437 125.433 175.386 126.6 173.945C127.752 172.518 129.357 171.805 131.415 171.805C132.856 171.805 133.988 172.079 134.811 172.628C135.621 173.177 136.025 173.89 136.025 174.768C136.025 175.317 135.861 175.79 135.532 176.188C135.189 176.6 134.743 176.806 134.194 176.806C133.631 176.806 133.192 176.655 132.877 176.353C132.547 176.065 132.383 175.715 132.383 175.303C132.383 174.905 132.438 174.556 132.547 174.254L133.165 174.254C133.261 174.048 133.309 173.78 133.309 173.451C133.309 173.136 133.165 172.847 132.877 172.587C132.575 172.34 132.136 172.216 131.56 172.216C130.64 172.216 129.975 172.717 129.563 173.719C129.138 174.72 128.918 176.463 128.905 178.946C129.618 177.835 130.702 177.279 132.156 177.279C133.391 177.279 134.406 177.677 135.202 178.473C135.998 179.269 136.396 180.359 136.396 181.745C136.396 183.391 135.854 184.619 134.77 185.429C133.672 186.238 132.273 186.643 130.572 186.643C126.757 186.643 124.85 184.462 124.85 180.099ZM130.963 177.958C130.496 177.958 130.105 178.13 129.79 178.473C129.46 178.829 129.241 179.241 129.131 179.708C129.008 180.188 128.946 180.805 128.946 181.56C128.946 182.328 128.953 182.856 128.966 183.145C128.966 183.446 128.98 183.796 129.008 184.194C129.035 184.606 129.083 184.901 129.152 185.079C129.22 185.271 129.309 185.47 129.419 185.676C129.625 186.033 130.002 186.211 130.551 186.211C131.168 186.211 131.628 185.964 131.93 185.47C132.163 185.072 132.3 184.386 132.342 183.412C132.355 183.069 132.362 182.603 132.362 182.013C132.362 181.436 132.362 180.99 132.362 180.675C132.348 180.359 132.328 180.023 132.3 179.666C132.273 179.323 132.232 179.063 132.177 178.884C132.108 178.706 132.026 178.535 131.93 178.37C131.752 178.095 131.429 177.958 130.963 177.958Z" fill="#2C2C2C"/>
</svg>
