<svg width="223" height="324" viewBox="0 0 223 324" fill="none" xmlns="http://www.w3.org/2000/svg">
<g clip-path="url(#clip0_2009_1773)">
<path d="M222.449 314.064C222.449 319.1 218.333 323.223 213.287 323.223H9.48079C4.44759 323.223 0.333008 319.1 0.333008 314.064V9.49347C0.333008 4.45701 4.44759 0.333313 9.48079 0.333313H213.287C218.333 0.333313 222.449 4.45701 222.449 9.49347V314.064Z" fill="#F1EAD8" stroke="#2C2C2C" stroke-width="0.666667"/>
<path d="M8.7181 33.7729C9.87088 33.7729 10.7389 33.5993 11.3223 33.252C11.9195 32.8909 12.3778 32.3076 12.6973 31.502L23.9473 4.81454H27.5098L37.8014 31.502C38.1764 32.3909 38.5931 32.9951 39.0514 33.3145C39.5098 33.6201 40.4056 33.7729 41.7389 33.7729V36.0645H28.8848V33.7729C30.7181 33.7729 31.8014 33.6479 32.1348 33.3979C32.482 33.1479 32.6417 32.877 32.6139 32.5854C32.6 32.2937 32.5098 31.9326 32.3431 31.502L30.4681 26.2729H18.3639L16.2181 31.502C15.8987 32.3354 15.9959 32.9257 16.5098 33.2729C17.0237 33.6062 18.225 33.7729 20.1139 33.7729V36.0645H8.7181V33.7729ZM29.6556 23.9812L24.8223 10.4812L19.3014 23.9812H29.6556Z" fill="#2C2C2C"/>
<path d="M128.754 151.254C128.754 151.254 147.666 136.125 147.666 115.151C147.666 102.872 136.765 82.4879 111.563 82.4879C86.3608 82.4879 75.4598 102.88 75.4598 115.151C75.4598 136.125 94.3713 151.254 94.3713 151.254C73.3656 134.89 35.917 146.062 35.917 178.765C35.917 195.136 49.2944 213.148 70.3 213.148C95.502 213.148 106.403 185.637 106.403 185.637C106.403 185.637 109.604 216.994 90.9314 233.779H132.194C113.522 217.002 116.723 185.637 116.723 185.637C116.723 185.637 127.624 213.148 152.826 213.148C173.839 213.148 187.209 195.128 187.209 178.765C187.209 146.062 149.76 134.89 128.754 151.254Z" fill="#2C2C2C"/>
<path d="M27.5881 58.3196C27.5881 58.3196 32.2927 54.556 32.2927 49.3383C32.2927 46.2839 29.5809 41.2128 23.3114 41.2128C17.042 41.2128 14.3302 46.2858 14.3302 49.3383C14.3302 54.556 19.0347 58.3196 19.0347 58.3196C13.8092 54.2489 4.49316 57.0281 4.49316 65.1635C4.49316 69.2362 7.82102 73.7169 13.0466 73.7169C19.316 73.7169 22.0278 66.873 22.0278 66.873C22.0278 66.873 22.8241 74.6736 18.179 78.8493H28.4438C23.7987 74.6756 24.595 66.873 24.595 66.873C24.595 66.873 27.3068 73.7169 33.5763 73.7169C38.8038 73.7169 42.1296 69.2342 42.1296 65.1635C42.1296 57.0281 32.8136 54.2489 27.5881 58.3196Z" fill="#2C2C2C"/>
<path d="M214.181 288.914C213.029 288.914 212.16 289.087 211.577 289.435C210.98 289.796 210.522 290.379 210.202 291.185L198.952 317.872H195.39L185.098 291.185C184.723 290.296 184.306 289.692 183.848 289.372C183.39 289.067 182.494 288.914 181.16 288.914V286.622H194.015V288.914C192.181 288.914 191.098 289.039 190.765 289.289C190.417 289.539 190.258 289.81 190.285 290.101C190.299 290.393 190.39 290.754 190.556 291.185L192.431 296.414H204.535L206.681 291.185C207.001 290.351 206.904 289.761 206.39 289.414C205.876 289.08 204.674 288.914 202.785 288.914V286.622H214.181V288.914ZM193.244 298.705L198.077 312.205L203.598 298.705H193.244Z" fill="#2C2C2C"/>
<path d="M195.311 264.987C195.311 264.987 190.607 268.751 190.607 273.968C190.607 277.023 193.319 282.094 199.588 282.094C205.857 282.094 208.569 277.021 208.569 273.968C208.569 268.751 203.865 264.987 203.865 264.987C209.09 269.058 218.406 266.278 218.406 258.143C218.406 254.07 215.078 249.59 209.853 249.59C203.583 249.59 200.872 256.434 200.872 256.434C200.872 256.434 200.075 248.633 204.72 244.457H194.456C199.101 248.631 198.304 256.434 198.304 256.434C198.304 256.434 195.593 249.59 189.323 249.59C184.096 249.59 180.77 254.072 180.77 258.143C180.77 266.278 190.086 269.058 195.311 264.987Z" fill="#2C2C2C"/>
</g>
<defs>
<clipPath id="clip0_2009_1773">
<rect width="222.783" height="323.556" fill="white"/>
</clipPath>
</defs>
</svg>
