<svg width="223" height="324" viewBox="0 0 223 324" fill="none" xmlns="http://www.w3.org/2000/svg">
<g clip-path="url(#clip0_2009_1836)">
<path d="M222.449 314.064C222.449 319.1 218.333 323.223 213.287 323.223H9.48079C4.44759 323.223 0.333008 319.1 0.333008 314.064V9.49347C0.333008 4.45701 4.44759 0.333313 9.48079 0.333313H213.287C218.333 0.333313 222.449 4.45701 222.449 9.49347V314.064Z" fill="#F1EAD8" stroke="#2C2C2C" stroke-width="0.666667"/>
<path d="M8.09798 34.3927C9.25076 34.3927 10.1188 34.2191 10.7021 33.8719C11.2994 33.5108 11.7577 32.9274 12.0771 32.1219L23.3271 5.43439H26.8896L37.1813 32.1219C37.5563 33.0108 37.973 33.6149 38.4313 33.9344C38.8896 34.2399 39.7855 34.3927 41.1188 34.3927V36.6844H28.2646V34.3927C30.098 34.3927 31.1813 34.2677 31.5146 34.0177C31.8619 33.7677 32.0216 33.4969 31.9938 33.2052C31.9799 32.9136 31.8896 32.5524 31.723 32.1219L29.848 26.8927H17.7438L15.598 32.1219C15.2785 32.9552 15.3758 33.5455 15.8896 33.8927C16.4035 34.2261 17.6049 34.3927 19.4938 34.3927V36.6844H8.09798V34.3927ZM29.0355 24.6011L24.2021 11.1011L18.6813 24.6011H29.0355Z" fill="#D66753"/>
<path d="M215.013 287.645C213.861 287.645 212.993 287.819 212.409 288.166C211.812 288.527 211.354 289.11 211.034 289.916L199.784 316.604H196.222L185.93 289.916C185.555 289.027 185.138 288.423 184.68 288.104C184.222 287.798 183.326 287.645 181.993 287.645V285.354H194.847V287.645C193.013 287.645 191.93 287.77 191.597 288.02C191.249 288.27 191.09 288.541 191.118 288.833C191.131 289.124 191.222 289.485 191.388 289.916L193.263 295.145H205.368L207.513 289.916C207.833 289.083 207.736 288.492 207.222 288.145C206.708 287.812 205.506 287.645 203.618 287.645V285.354H215.013V287.645ZM194.076 297.437L198.909 310.937L204.43 297.437H194.076Z" fill="#D66753"/>
<path d="M135.448 118.355C118.649 95.6283 109.712 72.5316 109.712 72.5316C109.712 72.5316 100.774 95.6283 83.9754 118.355C67.1688 141.073 46.2305 155.851 46.2305 155.851C46.2305 155.851 67.1688 170.621 83.9754 193.355C100.774 216.073 109.712 239.17 109.712 239.17C109.712 239.17 118.649 216.073 135.448 193.355C152.255 170.621 173.193 155.851 173.193 155.851C173.193 155.851 152.255 141.073 135.448 118.355Z" fill="#D66753"/>
<path d="M29.0106 49.6764C24.8418 44.0366 22.6238 38.3049 22.6238 38.3049C22.6238 38.3049 20.4058 44.0366 16.237 49.6764C12.0662 55.3143 6.87012 58.9816 6.87012 58.9816C6.87012 58.9816 12.0662 62.6469 16.237 68.2887C20.4058 73.9265 22.6238 79.6583 22.6238 79.6583C22.6238 79.6583 24.8418 73.9265 29.0106 68.2887C33.1814 62.6469 38.3775 58.9816 38.3775 58.9816C38.3775 58.9816 33.1814 55.3143 29.0106 49.6764Z" fill="#D66753"/>
<path d="M207.215 255.366C203.046 249.726 200.828 243.995 200.828 243.995C200.828 243.995 198.61 249.726 194.441 255.366C190.27 261.004 185.074 264.671 185.074 264.671C185.074 264.671 190.27 268.337 194.441 273.978C198.61 279.616 200.828 285.348 200.828 285.348C200.828 285.348 203.046 279.616 207.215 273.978C211.385 268.337 216.582 264.671 216.582 264.671C216.582 264.671 211.385 261.004 207.215 255.366Z" fill="#D66753"/>
</g>
<defs>
<clipPath id="clip0_2009_1836">
<rect width="222.783" height="323.556" fill="white"/>
</clipPath>
</defs>
</svg>
