<svg width="141" height="197" viewBox="0 0 141 197" fill="none" xmlns="http://www.w3.org/2000/svg">
<path d="M15.5538 196.923C7.23525 196.931 0.446156 190.292 0.428205 182.114L0.00101215 14.8994C-0.0169389 6.67064 6.75777 -0.017915 15.1086 3.60492e-05L125.615 0.204648C133.927 0.222599 140.694 6.92193 140.694 15.1292V181.984C140.694 190.141 133.956 196.787 125.662 196.794L15.5538 196.923Z" fill="#C9C9C9"/>
<path d="M16.9303 196.507C8.71952 196.507 2.03809 189.851 2.03809 181.662V14.8458C2.03809 6.66008 8.71952 0.0109863 16.9303 0.0109863H125.822C134.04 0.0109863 140.721 6.66008 140.721 14.8458V181.662C140.721 189.851 134.04 196.507 125.822 196.507H16.9303Z" fill="#F1EAD8"/>
<path d="M102.426 98.8031C102.454 91.6729 71.4098 61.1704 71.4098 61.1704C71.4098 61.1704 41.1478 92.6207 41.1406 98.6882C41.1263 108.935 49.4125 117.26 59.6626 117.271C63.1738 117.289 66.4409 116.334 69.2341 114.632L57.6018 134.454L85.8245 134.508L74.2747 114.65C77.0464 116.334 80.317 117.325 83.8211 117.332C94.0711 117.361 102.426 109.068 102.426 98.8031Z" fill="#2C2C2C"/>
<path opacity="0.2" d="M102.426 98.8031C102.454 91.6729 71.4097 61.1704 71.4097 61.1704C71.4097 61.1704 71.3738 61.2063 71.3486 61.2314V134.486L85.8244 134.508L74.2747 114.65C77.0463 116.334 80.317 117.325 83.821 117.332C94.0711 117.361 102.426 109.068 102.426 98.8031Z" fill="#616161"/>
<path d="M26.0236 38.972C26.0236 38.0601 22.0707 34.1719 22.0707 34.1719C22.0707 34.1719 18.2077 38.1821 18.2041 38.954C18.2041 40.2681 19.2632 41.3308 20.57 41.3308C21.0152 41.3308 21.4389 41.2051 21.7907 40.9933L20.308 43.5173L23.9054 43.5244L22.4334 40.9897C22.7888 41.2015 23.2053 41.3344 23.6469 41.3344C24.9573 41.338 26.0236 40.286 26.0236 38.972Z" fill="#2C2C2C"/>
<path opacity="0.2" d="M26.0248 38.972C26.0248 38.0601 22.072 34.1719 22.072 34.1719C22.072 34.1719 22.0648 34.1827 22.0576 34.1827V43.5244H23.9066L22.4346 40.9897C22.79 41.2015 23.2065 41.3344 23.6481 41.3344C24.9585 41.338 26.0248 40.286 26.0248 38.972Z" fill="#616161"/>
<path d="M119.47 159.653C119.463 160.565 123.426 164.457 123.426 164.457C123.426 164.457 127.289 160.443 127.289 159.671C127.289 158.361 126.234 157.298 124.923 157.298C124.471 157.298 124.062 157.41 123.706 157.636L125.189 155.115L121.588 155.101L123.056 157.636C122.708 157.41 122.288 157.291 121.836 157.291C120.536 157.291 119.47 158.343 119.47 159.653Z" fill="#2C2C2C"/>
<path opacity="0.2" d="M119.47 159.653C119.463 160.565 123.426 164.457 123.426 164.457L123.433 164.443V155.101H121.588L123.056 157.636C122.708 157.41 122.288 157.291 121.836 157.291C120.536 157.291 119.47 158.343 119.47 159.653Z" fill="#616161"/>
<path d="M24.0106 28.8682L22.5082 24.4228H18.4332L16.8484 28.8682H18.392V29.2593H15.2431V28.8682H16.2104L21.4585 14.7292H23.1462L28.3325 28.8682H29.2793V29.2593H22.5493V28.8682H24.0106ZM20.553 18.5778L18.6184 23.97H22.3435L20.553 18.5778Z" fill="#2C2C2C"/>
<path d="M120.428 170.878L121.93 175.324L126.005 175.324L127.59 170.878L126.046 170.878L126.046 170.487L129.195 170.487L129.195 170.878L128.228 170.878L122.98 185.017L121.292 185.017L116.106 170.878L115.159 170.878L115.159 170.487L121.889 170.487L121.889 170.878L120.428 170.878ZM123.885 181.169L125.82 175.776L122.095 175.776L123.885 181.169Z" fill="#2C2C2C"/>
</svg>
