<svg width="223" height="324" viewBox="0 0 223 324" fill="none" xmlns="http://www.w3.org/2000/svg">
<g clip-path="url(#clip0_2009_1857)">
<path d="M222.449 314.064C222.449 319.1 218.333 323.223 213.287 323.223H9.48079C4.44759 323.223 0.333008 319.1 0.333008 314.064V9.49347C0.333008 4.45701 4.44759 0.333313 9.48079 0.333313H213.287C218.333 0.333313 222.449 4.45701 222.449 9.49347V314.064Z" fill="#F1EAD8" stroke="#2C2C2C" stroke-width="0.666667"/>
<path d="M8.09798 34.3927C9.25076 34.3927 10.1188 34.2191 10.7021 33.8719C11.2994 33.5108 11.7577 32.9274 12.0771 32.1219L23.3271 5.43439H26.8896L37.1813 32.1219C37.5563 33.0108 37.973 33.6149 38.4313 33.9344C38.8896 34.2399 39.7855 34.3927 41.1188 34.3927V36.6844H28.2646V34.3927C30.098 34.3927 31.1813 34.2677 31.5146 34.0177C31.8619 33.7677 32.0216 33.4969 31.9938 33.2052C31.9799 32.9136 31.8896 32.5524 31.723 32.1219L29.848 26.8927H17.7438L15.598 32.1219C15.2785 32.9552 15.3758 33.5455 15.8896 33.8927C16.4035 34.2261 17.6049 34.3927 19.4938 34.3927V36.6844H8.09798V34.3927ZM29.0355 24.6011L24.2021 11.1011L18.6813 24.6011H29.0355Z" fill="#D66753"/>
<path d="M144.31 86.3738C114.796 86.3738 110.855 115.989 110.855 115.989C110.855 115.989 106.915 86.3738 77.4007 86.3738C56.7419 86.3738 38.0488 99.6525 38.0488 124.702C38.0488 157.801 97.9244 191.086 110.855 239.688C123.16 191.127 183.662 157.801 183.662 124.702C183.662 99.6525 164.969 86.3738 144.31 86.3738Z" fill="#D66753"/>
<path d="M31.1096 43.0432C23.8699 43.0432 22.9032 50.3078 22.9032 50.3078C22.9032 50.3078 21.9366 43.0432 14.6969 43.0432C9.62931 43.0432 5.04395 46.3005 5.04395 52.4452C5.04395 60.5643 19.7313 68.729 22.9032 80.651C25.9215 68.739 40.7625 60.5643 40.7625 52.4452C40.7625 46.3005 36.1771 43.0432 31.1096 43.0432Z" fill="#D66753"/>
<path d="M215.013 287.645C213.861 287.645 212.993 287.819 212.409 288.166C211.812 288.527 211.354 289.11 211.034 289.916L199.784 316.604H196.222L185.93 289.916C185.555 289.027 185.138 288.423 184.68 288.104C184.222 287.798 183.326 287.645 181.993 287.645V285.354H194.847V287.645C193.013 287.645 191.93 287.77 191.597 288.02C191.249 288.27 191.09 288.541 191.118 288.833C191.131 289.124 191.222 289.485 191.388 289.916L193.263 295.145H205.368L207.513 289.916C207.833 289.083 207.736 288.492 207.222 288.145C206.708 287.812 205.506 287.645 203.618 287.645V285.354H215.013V287.645ZM194.076 297.437L198.909 310.937L204.43 297.437H194.076Z" fill="#D66753"/>
<path d="M192.002 278.995C199.241 278.995 200.208 271.73 200.208 271.73C200.208 271.73 201.175 278.995 208.414 278.995C213.482 278.995 218.067 275.737 218.067 269.593C218.067 261.474 203.38 253.309 200.208 241.387C197.19 253.299 182.349 261.474 182.349 269.593C182.349 275.737 186.934 278.995 192.002 278.995Z" fill="#D66753"/>
</g>
<defs>
<clipPath id="clip0_2009_1857">
<rect width="222.783" height="323.556" fill="white"/>
</clipPath>
</defs>
</svg>
