<svg width="141" height="197" viewBox="0 0 141 197" fill="none" xmlns="http://www.w3.org/2000/svg">
<path d="M15.549 196.92C7.23781 196.934 0.441636 190.292 0.427275 182.11L3.56096e-05 14.8991C-0.0179151 6.66691 6.75313 -0.0143375 15.1074 2.31066e-05L125.612 0.208192C133.923 0.222553 140.698 6.9074 140.698 15.1253V181.985C140.698 190.141 133.949 196.783 125.659 196.798L15.549 196.92Z" fill="#C9C9C9"/>
<path d="M17.0593 196.711C8.845 196.711 2.1709 190.044 2.1709 181.866V15.0427C2.1709 6.86071 8.84859 0.20459 17.0593 0.20459H125.952C134.163 0.20459 140.844 6.85712 140.844 15.0427V181.866C140.844 190.044 134.166 196.711 125.952 196.711H17.0593Z" fill="#F1EAD8"/>
<path d="M114.391 110.24V127.483L131.627 110.24H114.391Z" fill="#4E7BAD"/>
<path d="M133.315 128.74V110.95L115.533 128.74H133.315Z" fill="#4E7BAD"/>
<path d="M114.391 130.427V147.818L131.781 130.427H114.391Z" fill="#4E7BAD"/>
<path d="M114.391 150.625V168.149L131.921 150.625H114.391Z" fill="#4E7BAD"/>
<path d="M133.316 148.923V131.289L115.678 148.923H133.316Z" fill="#4E7BAD"/>
<path d="M133.314 9.29199L114.821 27.7849H132.754L133.314 27.2284V9.29199Z" fill="#4E7BAD"/>
<path d="M133.314 29.6194L114.958 47.9757H132.909L133.314 47.5593V29.6194Z" fill="#4E7BAD"/>
<path d="M114.391 29.4788V46.1513L131.063 29.4788H114.391Z" fill="#4E7BAD"/>
<path d="M114.391 9.29199V25.8174L130.916 9.29199H114.391Z" fill="#4E7BAD"/>
<path d="M133.316 169.118V151.616L115.817 169.118H133.316Z" fill="#4E7BAD"/>
<path d="M112.7 29.9102L94.6201 47.9757H112.571L112.7 47.8465V29.9102Z" fill="#4E7BAD"/>
<path d="M114.391 170.813V188.484L132.058 170.813H114.391Z" fill="#4E7BAD"/>
<path d="M112.699 9.57202L94.4795 27.7848H112.43L112.699 27.5155V9.57202Z" fill="#4E7BAD"/>
<path d="M133.316 189.313V171.947L115.954 189.313H133.316Z" fill="#4E7BAD"/>
<path d="M114.391 90.0522V107.156L131.494 90.0522H114.391Z" fill="#4E7BAD"/>
<path d="M133.315 108.545V90.6194L115.386 108.545H133.315Z" fill="#4E7BAD"/>
<path d="M50.8413 108.545V91.761L34.0537 108.545H50.8413Z" fill="#4E7BAD"/>
<path d="M11.3142 9.29175L11.2998 9.31333V27.2461L29.2505 9.29175H11.3142Z" fill="#4E7BAD"/>
<path d="M11.4578 29.4788L11.2998 29.6403V47.5766L29.3942 29.4788H11.4578Z" fill="#4E7BAD"/>
<path d="M30.2166 153.045L14.1436 169.118H30.2166V153.045Z" fill="#4E7BAD"/>
<path d="M30.2163 150.654V150.625H12.3122L11.2998 151.641V169.118H11.7594L30.2163 150.654Z" fill="#4E7BAD"/>
<path d="M30.2164 148.923V132.71L14.0068 148.923H30.2164Z" fill="#4E7BAD"/>
<path d="M30.2169 173.379L14.291 189.312H30.2169V173.379Z" fill="#4E7BAD"/>
<path d="M30.2163 170.992V170.813H12.4559L11.2998 171.969V189.313H11.9101L30.2163 170.992Z" fill="#4E7BAD"/>
<path d="M30.2153 47.9757V31.041L13.2842 47.9757H30.2153Z" fill="#4E7BAD"/>
<path d="M30.1086 130.427H12.1722L11.2998 131.303V148.923H11.6086L30.1086 130.427Z" fill="#4E7BAD"/>
<path d="M30.2161 108.545V92.0447L13.7266 108.545H30.2161Z" fill="#4E7BAD"/>
<path d="M29.9686 110.24H12.0286L11.2998 110.969V128.74H11.4721L29.9686 110.24Z" fill="#4E7BAD"/>
<path d="M30.2158 128.74V112.379L13.8662 128.74H30.2158Z" fill="#4E7BAD"/>
<path d="M30.2182 27.7848V10.7136L13.1543 27.7848H30.2182Z" fill="#4E7BAD"/>
<path d="M29.8285 90.0522H11.8958L11.2998 90.6374V108.545H11.3213L29.8285 90.0522Z" fill="#4E7BAD"/>
<path d="M92.0844 47.9754V30.1934L74.2988 47.9754H92.0844Z" fill="#4E7BAD"/>
<path d="M73.1533 29.4788V46.7258L90.404 29.4788H73.1533Z" fill="#4E7BAD"/>
<path d="M92.0849 108.545V91.1829L74.7266 108.545H92.0849Z" fill="#4E7BAD"/>
<path d="M73.1533 90.0522V107.727L90.8276 90.0522H73.1533Z" fill="#4E7BAD"/>
<path d="M73.1533 110.24V128.061L90.9748 110.24H73.1533Z" fill="#4E7BAD"/>
<path d="M73.1533 9.29199V26.4026L90.264 9.29199H73.1533Z" fill="#4E7BAD"/>
<path d="M73.4585 170.813L73.1533 171.111V189.061L91.4056 170.813H73.4585Z" fill="#4E7BAD"/>
<path d="M92.0855 148.923V131.852L75.0107 148.923H92.0855Z" fill="#4E7BAD"/>
<path d="M73.1749 130.427L73.1533 130.452V148.388L91.122 130.427H73.1749Z" fill="#4E7BAD"/>
<path d="M73.3185 150.625L73.1533 150.783V168.719L91.2584 150.625H73.3185Z" fill="#4E7BAD"/>
<path d="M92.0861 169.118V152.187L75.1514 169.118H92.0861Z" fill="#4E7BAD"/>
<path d="M92.0863 189.312V172.525L75.2988 189.312H92.0863Z" fill="#4E7BAD"/>
<path d="M93.7686 90.0522V107.443L111.156 90.0522H93.7686Z" fill="#4E7BAD"/>
<path d="M112.701 108.545V90.9067L95.0586 108.545H112.701Z" fill="#4E7BAD"/>
<path d="M93.7686 130.427V148.098L111.446 130.427H93.7686Z" fill="#4E7BAD"/>
<path d="M112.701 128.739V111.234L95.2061 128.739H112.701Z" fill="#4E7BAD"/>
<path d="M93.7686 110.24V127.774L111.303 110.24H93.7686Z" fill="#4E7BAD"/>
<path d="M93.7686 29.4788V46.4386L110.732 29.4788H93.7686Z" fill="#4E7BAD"/>
<path d="M112.701 148.923V131.565L95.3389 148.923H112.701Z" fill="#4E7BAD"/>
<path d="M93.7686 9.29199V26.1011L110.585 9.29199H93.7686Z" fill="#4E7BAD"/>
<path d="M92.0841 27.7846V9.86255L74.1514 27.7846H92.0841Z" fill="#4E7BAD"/>
<path d="M93.7686 150.625V168.436L111.594 150.625H93.7686Z" fill="#4E7BAD"/>
<path d="M112.701 189.313V172.238L95.6299 189.313H112.701Z" fill="#4E7BAD"/>
<path d="M93.7829 170.813L93.7686 170.824V188.771L111.726 170.813H93.7829Z" fill="#4E7BAD"/>
<path d="M112.701 169.118V151.9L95.4795 169.118H112.701Z" fill="#4E7BAD"/>
<path d="M92.0859 128.74V111.521L74.8711 128.74H92.0859Z" fill="#4E7BAD"/>
<path d="M31.9121 9.29199V26.9663L49.59 9.29199H31.9121Z" fill="#4E7BAD"/>
<path d="M50.8411 47.9755V30.7644L33.6299 47.9755H50.8411Z" fill="#4E7BAD"/>
<path d="M50.8411 27.7849V10.4265L33.4863 27.7849H50.8411Z" fill="#4E7BAD"/>
<path d="M31.9121 29.4788V47.2895L49.7301 29.4788H31.9121Z" fill="#4E7BAD"/>
<path d="M50.8418 148.923V132.423L34.3379 148.923H50.8418Z" fill="#4E7BAD"/>
<path d="M50.7317 170.813H32.7881L31.9121 171.689V189.313H32.2388L50.7317 170.813Z" fill="#4E7BAD"/>
<path d="M50.8421 169.118V152.754L34.4854 169.118H50.8421Z" fill="#4E7BAD"/>
<path d="M50.5953 150.625H32.6517L31.9121 151.354V169.118H32.0881L50.5953 150.625Z" fill="#4E7BAD"/>
<path d="M50.8414 189.313V173.093L34.6318 189.313H50.8414Z" fill="#4E7BAD"/>
<path d="M32.2281 90.0522L31.9121 90.3539V108.29L50.1609 90.0522H32.2281Z" fill="#4E7BAD"/>
<path d="M50.4445 130.427H32.5009L31.9121 131.012V148.923H31.948L50.4445 130.427Z" fill="#4E7BAD"/>
<path d="M50.8415 128.739V112.092L34.2012 128.739H50.8415Z" fill="#4E7BAD"/>
<path d="M32.3609 110.24L31.9121 110.681V128.628L50.2973 110.24H32.3609Z" fill="#4E7BAD"/>
<path d="M71.4563 47.9755V30.4807L53.9688 47.9755H71.4563Z" fill="#4E7BAD"/>
<path d="M52.5342 29.4788V47.0094L70.0685 29.4788H52.5342Z" fill="#4E7BAD"/>
<path d="M52.5485 90.0522L52.5342 90.0702V108.007L70.4957 90.0522H52.5485Z" fill="#4E7BAD"/>
<path d="M71.4561 27.7849V10.1501L53.8213 27.7849H71.4561Z" fill="#4E7BAD"/>
<path d="M52.5342 9.29199V26.6755L69.9177 9.29199H52.5342Z" fill="#4E7BAD"/>
<path d="M71.4564 189.313V172.809L54.9561 189.313H71.4564Z" fill="#4E7BAD"/>
<path d="M71.0594 170.813H53.1301L52.5342 171.394V189.313H52.5629L71.0594 170.813Z" fill="#4E7BAD"/>
<path d="M71.4564 148.924V132.147L54.6797 148.924H71.4564Z" fill="#4E7BAD"/>
<path d="M71.4562 128.74V111.808L54.5322 128.74H71.4562Z" fill="#4E7BAD"/>
<path d="M71.457 169.118V152.474L54.8203 169.118H71.457Z" fill="#4E7BAD"/>
<path d="M52.6922 110.24L52.5342 110.401V128.345L70.6357 110.24H52.6922Z" fill="#4E7BAD"/>
<path d="M52.8429 130.427L52.5342 130.732V148.676L70.7865 130.427H52.8429Z" fill="#4E7BAD"/>
<path d="M52.9794 150.625L52.5342 151.07V169.007L70.923 150.625H52.9794Z" fill="#4E7BAD"/>
<path d="M71.4569 108.545V91.481L54.3857 108.545H71.4569Z" fill="#4E7BAD"/>
<path d="M114.391 49.6665V66.4863L131.211 49.6665H114.391Z" fill="#4E7BAD"/>
<path d="M114.391 69.8611V86.8173L131.347 69.8611H114.391Z" fill="#4E7BAD"/>
<path d="M112.7 68.1663V50.2334L94.7705 68.1663H112.7Z" fill="#4E7BAD"/>
<path d="M133.316 70.2883L115.25 88.3576H133.19L133.316 88.2283V70.2883Z" fill="#4E7BAD"/>
<path d="M133.315 49.9536L115.105 68.1665H133.042L133.315 67.89V49.9536Z" fill="#4E7BAD"/>
<path d="M11.5978 49.6665L11.2998 49.9681V67.9116L29.5414 49.6665H11.5978Z" fill="#4E7BAD"/>
<path d="M11.7486 69.8611L11.2998 70.3026V88.2462L29.6921 69.8611H11.7486Z" fill="#4E7BAD"/>
<path d="M30.2149 68.1669V51.3757L13.4346 68.1669H30.2149Z" fill="#4E7BAD"/>
<path d="M30.2158 88.3575V71.71L13.5898 88.3575H30.2158Z" fill="#4E7BAD"/>
<path d="M92.085 68.1668V50.5176L74.4395 68.1668H92.085Z" fill="#4E7BAD"/>
<path d="M73.1533 69.8611V87.381L90.6841 69.8611H73.1533Z" fill="#4E7BAD"/>
<path d="M73.1533 49.6665V67.0572L90.5476 49.6665H73.1533Z" fill="#4E7BAD"/>
<path d="M92.0853 88.3574V70.8555L74.5762 88.3574H92.0853Z" fill="#4E7BAD"/>
<path d="M112.701 88.3577V70.572L94.915 88.3577H112.701Z" fill="#4E7BAD"/>
<path d="M93.7686 49.6665V66.7736L110.872 49.6665H93.7686Z" fill="#4E7BAD"/>
<path d="M93.7686 69.8611V87.101L111.016 69.8611H93.7686Z" fill="#4E7BAD"/>
<path d="M31.9337 49.6665L31.9121 49.6916V67.628L49.8808 49.6665H31.9337Z" fill="#4E7BAD"/>
<path d="M50.841 68.1664V51.0952L33.7734 68.1664H50.841Z" fill="#4E7BAD"/>
<path d="M50.8417 88.3579V71.4268L33.9141 88.3579H50.8417Z" fill="#4E7BAD"/>
<path d="M32.0845 69.8611L31.9121 70.0227V87.9626L50.0172 69.8611H32.0845Z" fill="#4E7BAD"/>
<path d="M52.5342 49.6665V67.3408L70.2121 49.6665H52.5342Z" fill="#4E7BAD"/>
<path d="M71.4563 88.3574V71.1426L54.2451 88.3574H71.4563Z" fill="#4E7BAD"/>
<path d="M52.5342 69.8611V87.6754L70.3485 69.8611H52.5342Z" fill="#4E7BAD"/>
<path d="M71.4557 68.1668V50.8047L54.1045 68.1668H71.4557Z" fill="#4E7BAD"/>
</svg>
