<svg width="400" height="600" viewBox="0 0 400 600" fill="none" xmlns="http://www.w3.org/2000/svg">
<g clip-path="url(#clip0_2021_2608)">
<path d="M400 0H0V600H400V0Z" fill="#7D8450"/>
<path d="M245.869 600H250.444L285.725 564.719V552.666L294.248 544.142V494.248H344.142L352.666 485.725H364.719L400 450.444V445.869L363.38 482.489H351.326H351.325V482.49L342.802 491.013H291.013V542.802L282.49 551.325H282.489V551.326V563.38L245.869 600Z" fill="#F1EAD8"/>
<path d="M262.369 600H266.944L297.909 569.036V557.712L305.915 549.706V505.915H349.706L357.712 497.909H369.036L400 466.944V462.369L367.696 494.673H356.373H356.372L348.365 502.681L302.68 502.68L302.681 548.365L294.674 556.372H294.673V567.696L262.369 600Z" fill="#F1EAD8"/>
<path d="M261.814 542.762V542.761V461.814H342.761H342.762L400 404.575V400L341.422 458.579H258.579V541.421L200 600H204.575L261.814 542.762Z" fill="#F1EAD8"/>
<path d="M227.5 600H232.075L272.565 559.51V547.215L281.259 538.521V481.259H338.521L347.215 472.565H359.51L400 432.075V427.5L358.17 469.33H345.875H345.874V469.331L337.181 478.024H278.024L278.025 537.181L269.331 545.875L269.33 545.874V545.875V558.17L227.5 600Z" fill="#F1EAD8"/>
<path d="M307.843 600H312.418L324.231 588.187C324.333 588.123 324.443 588.076 324.532 587.987C335.648 576.871 342.15 579.615 347.045 583.764C349.996 586.265 350.371 590.7 347.877 593.651C345.995 595.878 342.652 596.159 340.424 594.277C339.6 593.58 339.136 592.613 339.054 591.614C339.233 592.449 339.68 593.197 340.343 593.757C341.25 594.524 342.401 594.891 343.585 594.792C344.769 594.693 345.842 594.139 346.609 593.232C348.444 591.063 348.168 587.803 345.999 585.969C343.457 583.82 339.64 584.14 337.491 586.683C334.95 589.69 335.327 594.206 338.336 596.748C341.926 599.782 347.315 599.33 350.348 595.74C351.969 593.822 352.761 591.474 352.761 589.137C352.761 586.222 351.529 583.324 349.137 581.296C343.104 576.182 336.941 575.546 330.172 579.418V571.076L336.071 565.177C338.119 572.702 342.928 576.61 350.809 577.26C353.935 577.518 356.855 576.34 358.916 574.279C360.568 572.627 361.669 570.407 361.878 567.904C362.272 563.221 358.781 559.091 354.097 558.698C350.172 558.368 346.712 561.294 346.383 565.218C346.105 568.536 348.577 571.461 351.894 571.739C354.724 571.976 357.224 569.866 357.461 567.035C357.56 565.852 357.193 564.7 356.426 563.793C355.659 562.886 354.585 562.332 353.402 562.233C352.537 562.16 351.692 562.373 350.975 562.837C351.74 562.189 352.752 561.832 353.827 561.922C356.733 562.166 358.899 564.729 358.655 567.634C358.332 571.485 354.931 574.355 351.076 574.037C344.681 573.509 338.143 570.851 338.143 555.131C338.143 555.005 338.099 554.894 338.072 554.777V538.07H354.778C354.895 538.097 355.007 538.142 355.132 538.141C370.852 538.141 373.51 544.679 374.038 551.074C374.356 554.929 371.486 558.33 367.635 558.653C364.73 558.897 362.167 556.731 361.923 553.826C361.833 552.751 362.19 551.739 362.837 550.974C362.373 551.691 362.16 552.537 362.233 553.401C362.332 554.584 362.886 555.658 363.794 556.425C364.701 557.192 365.852 557.559 367.036 557.46C369.867 557.223 371.977 554.724 371.74 551.893C371.462 548.576 368.537 546.103 365.219 546.382C361.296 546.712 358.37 550.171 358.699 554.096C359.092 558.78 363.222 562.271 367.905 561.877C370.408 561.667 372.628 560.567 374.28 558.915C376.341 556.854 377.52 553.934 377.262 550.808C376.612 542.926 372.704 538.118 365.179 536.07L371.078 530.171H379.42C375.548 536.94 376.184 543.104 381.298 549.136C383.326 551.529 386.224 552.76 389.139 552.76C391.476 552.76 393.824 551.968 395.742 550.347C399.332 547.314 399.784 541.925 396.75 538.335C394.208 535.327 389.692 534.949 386.685 537.49C384.142 539.639 383.822 543.456 385.971 545.998C387.805 548.167 391.064 548.442 393.234 546.608C394.141 545.841 394.695 544.768 394.794 543.584C394.893 542.4 394.526 541.249 393.759 540.342C393.199 539.679 392.45 539.232 391.616 539.053C392.615 539.136 393.583 539.599 394.279 540.423C396.161 542.65 395.88 545.994 393.654 547.876C390.702 550.37 386.268 549.995 383.767 547.044C379.618 542.149 376.875 535.646 387.99 524.531C388.079 524.442 388.126 524.332 388.19 524.23L400 512.418V507.843L380.907 526.936H369.736L361.837 534.835H334.835V561.837L326.936 569.736V580.907L307.843 600Z" fill="#F1EAD8"/>
<path d="M378.544 593.326L361.243 586.337C360.639 586.093 359.947 586.235 359.488 586.698L346.301 600H350.856L361.028 589.74L377.829 596.526C377.651 597.661 377.532 598.816 377.532 600H380.767C380.767 597.394 381.293 594.911 382.236 592.642C383.173 590.371 384.557 588.243 386.4 586.4C388.242 584.558 390.371 583.173 392.642 582.236C394.91 581.293 397.394 580.767 400 580.767V577.532C398.816 577.532 397.661 577.651 396.526 577.829L389.74 561.028L400 550.857V546.302L386.698 559.489C386.235 559.948 386.093 560.64 386.337 561.244L393.326 578.545C392.671 578.749 392.033 578.989 391.405 579.25C390.777 579.509 390.156 579.792 389.548 580.11L382.256 562.934C382.001 562.334 381.412 561.945 380.76 561.948L362.029 562.029L361.948 580.76C361.945 581.412 362.334 582.001 362.934 582.256L380.11 589.548C379.791 590.155 379.509 590.776 379.25 591.405C378.988 592.032 378.749 592.671 378.544 593.326ZM365.188 579.698L365.25 565.25L379.698 565.187L386.779 581.866C385.851 582.543 384.95 583.275 384.113 584.113C383.276 584.95 382.544 585.851 381.867 586.779L365.188 579.698Z" fill="#F1EAD8"/>
<path d="M389.835 388.73L400 398.808V395.327L392.159 387.554L397.345 374.715C398.212 374.85 399.095 374.942 400 374.942V372.47C398.009 372.47 396.111 372.068 394.378 371.347C392.643 370.631 391.016 369.573 389.608 368.165C388.2 366.757 387.142 365.131 386.426 363.395C385.705 361.662 385.303 359.764 385.303 357.773C385.303 355.782 385.705 353.884 386.426 352.151C387.142 350.416 388.2 348.789 389.608 347.381C391.016 345.973 392.642 344.915 394.378 344.199C396.111 343.478 398.009 343.076 400.001 343.076V340.604C399.096 340.604 398.214 340.695 397.346 340.831L392.16 327.992L400.001 320.219V316.738L389.836 326.815C389.482 327.166 389.374 327.694 389.56 328.156L394.901 341.377C394.401 341.533 393.913 341.716 393.433 341.915C392.953 342.113 392.478 342.329 392.014 342.572L386.442 329.447C386.247 328.988 385.797 328.692 385.299 328.694L371.246 328.755L400 300L341.421 241.421V158.578H258.578L200 100L141.421 158.579H58.578V241.422L0 300L28.756 328.756L14.703 328.695C14.205 328.693 13.754 328.99 13.56 329.448L7.988 342.573C7.524 342.33 7.049 342.114 6.569 341.916C6.089 341.717 5.601 341.534 5.101 341.378L10.442 328.157C10.629 327.695 10.52 327.167 10.166 326.816L0 316.738V320.219L7.841 327.992L2.655 340.831C1.787 340.695 0.905 340.604 0 340.604V343.076C1.991 343.076 3.889 343.478 5.622 344.199C7.357 344.915 8.984 345.973 10.392 347.381C11.8 348.789 12.858 350.415 13.574 352.151C14.295 353.884 14.697 355.782 14.697 357.773C14.697 359.764 14.295 361.662 13.574 363.395C12.858 365.13 11.8 366.757 10.392 368.165C8.984 369.573 7.358 370.631 5.622 371.347C3.889 372.068 1.991 372.47 0 372.47V374.942C0.905 374.942 1.787 374.851 2.655 374.715L7.841 387.554L0 395.327V398.808L10.165 388.731C10.519 388.38 10.627 387.852 10.441 387.39L5.1 374.168C5.6 374.012 6.088 373.829 6.568 373.63C7.048 373.432 7.523 373.216 7.987 372.973L13.559 386.098C13.754 386.557 14.204 386.853 14.702 386.852L29.015 386.79L29.077 372.477C29.079 371.979 28.782 371.528 28.324 371.334L15.2 365.76C15.444 365.296 15.659 364.821 15.857 364.341C16.056 363.861 16.239 363.373 16.395 362.873L29.616 368.214C30.078 368.401 30.606 368.292 30.957 367.938L41.034 357.773L30.957 347.608C30.606 347.254 30.078 347.146 29.616 347.332L16.395 352.673C16.239 352.173 16.056 351.685 15.857 351.205C15.659 350.725 15.443 350.25 15.2 349.786L28.325 344.214C28.784 344.019 29.081 343.569 29.078 343.071L29.017 329.018L58.579 358.58V441.423H141.422L200 500L258.579 441.421H341.422V358.578L370.984 329.016L370.923 343.069C370.921 343.567 371.218 344.018 371.676 344.212L384.801 349.784C384.558 350.248 384.342 350.723 384.144 351.203C383.945 351.683 383.762 352.171 383.606 352.671L370.385 347.33C369.923 347.143 369.395 347.252 369.044 347.606L358.967 357.771L369.044 367.936C369.395 368.29 369.923 368.398 370.385 368.212L383.606 362.871C383.762 363.371 383.945 363.859 384.144 364.339C384.342 364.819 384.558 365.294 384.801 365.758L371.676 371.33C371.217 371.525 370.921 371.975 370.923 372.473L370.985 386.786L385.299 386.848C385.797 386.85 386.248 386.553 386.442 386.094L392.014 372.969C392.478 373.212 392.953 373.428 393.433 373.626C393.913 373.825 394.401 374.009 394.901 374.164L389.56 387.385C389.372 387.851 389.481 388.38 389.835 388.73ZM16.942 355.118L29.781 349.932L37.554 357.773L29.781 365.614L16.942 360.428C17.078 359.56 17.169 358.678 17.169 357.773C17.169 356.868 17.078 355.986 16.942 355.118ZM26.602 373.287L26.554 384.328L15.514 384.376L10.103 371.631C10.812 371.114 11.501 370.554 12.141 369.914C12.781 369.274 13.34 368.586 13.858 367.876L26.602 373.287ZM13.857 347.67C13.339 346.961 12.78 346.272 12.14 345.632C11.5 344.992 10.812 344.433 10.102 343.915L15.513 331.17L26.553 331.218L26.601 342.258L13.857 347.67ZM338.186 357.238V438.186H257.239L200 495.425L142.762 438.187H61.815V357.24L4.575 300L61.814 242.762V161.815H142.761L200 104.575L257.238 161.814H338.185V242.761L395.425 300L338.186 357.238ZM383.058 360.427L370.219 365.613L362.446 357.772L370.219 349.931L383.058 355.117C382.922 355.985 382.831 356.867 382.831 357.772C382.831 358.678 382.922 359.56 383.058 360.427ZM373.398 342.259L373.446 331.219L384.487 331.171L389.898 343.916C389.189 344.434 388.5 344.993 387.86 345.633C387.22 346.273 386.661 346.961 386.143 347.671L373.398 342.259ZM384.486 384.375L373.445 384.327L373.397 373.286L386.142 367.875C386.66 368.584 387.219 369.273 387.859 369.913C388.499 370.553 389.187 371.112 389.897 371.63L384.486 384.375Z" fill="#F1EAD8"/>
<path d="M189.559 511.418L194.9 524.639C194.4 524.795 193.912 524.978 193.432 525.177C192.952 525.375 192.477 525.591 192.013 525.834L186.441 512.709C186.246 512.25 185.796 511.954 185.298 511.956L170.984 512.018L170.922 526.332C170.92 526.83 171.217 527.281 171.675 527.475L184.8 533.047C184.556 533.511 184.341 533.986 184.143 534.466C183.944 534.946 183.761 535.434 183.605 535.934L170.384 530.593C169.922 530.406 169.394 530.515 169.043 530.869L158.966 541.034L169.043 551.199C169.394 551.553 169.922 551.661 170.384 551.475L183.605 546.134C183.761 546.634 183.944 547.122 184.143 547.602C184.341 548.082 184.557 548.557 184.8 549.021L171.675 554.593C171.216 554.788 170.92 555.238 170.922 555.736L170.984 570.049L185.298 570.111C185.796 570.113 186.247 569.816 186.441 569.358L192.013 556.233C192.477 556.476 192.952 556.692 193.432 556.89C193.912 557.089 194.4 557.272 194.9 557.428L189.559 570.649C189.372 571.111 189.481 571.639 189.835 571.99L200 582.07L210.165 571.993C210.519 571.642 210.627 571.114 210.441 570.652L205.1 557.43C205.6 557.274 206.088 557.091 206.568 556.892C207.048 556.694 207.523 556.478 207.987 556.235L213.559 569.36C213.754 569.819 214.204 570.115 214.702 570.113L229.016 570.051L229.078 555.738C229.08 555.24 228.783 554.789 228.325 554.595L215.2 549.023C215.444 548.559 215.659 548.084 215.857 547.604C216.056 547.124 216.239 546.636 216.395 546.136L229.616 551.477C230.078 551.664 230.606 551.555 230.957 551.201L241.034 541.036L230.957 530.871C230.606 530.517 230.078 530.409 229.616 530.595L216.395 535.936C216.239 535.436 216.056 534.948 215.857 534.468C215.659 533.988 215.443 533.513 215.2 533.049L228.325 527.477C228.784 527.282 229.08 526.832 229.078 526.334L229.016 512.02L214.702 511.958C214.204 511.956 213.753 512.253 213.559 512.711L207.987 525.836C207.523 525.592 207.048 525.377 206.568 525.179C206.088 524.98 205.6 524.797 205.1 524.641L210.441 511.42C210.628 510.958 210.519 510.43 210.165 510.079L200 500L189.835 510.077C189.481 510.428 189.372 510.956 189.559 511.418ZM183.058 543.69L170.219 548.876L162.446 541.035L170.219 533.194L183.058 538.38C182.922 539.248 182.831 540.13 182.831 541.035C182.831 541.94 182.922 542.822 183.058 543.69ZM216.942 538.38L229.781 533.194L237.554 541.035L229.781 548.876L216.942 543.69C217.078 542.823 217.169 541.94 217.169 541.035C217.169 540.13 217.078 539.248 216.942 538.38ZM173.398 525.521L173.446 514.48L184.487 514.432L189.898 527.177C189.189 527.694 188.501 528.254 187.861 528.894C187.221 529.534 186.662 530.222 186.144 530.932L173.398 525.521ZM184.486 567.637L173.445 567.589L173.397 556.549L186.142 551.138C186.66 551.847 187.219 552.536 187.859 553.175C188.499 553.815 189.187 554.374 189.896 554.892L184.486 567.637ZM207.841 570.815L200 578.589L192.159 570.816L197.345 557.977C198.213 558.112 199.095 558.204 200 558.204C200.905 558.204 201.787 558.113 202.655 557.977L207.841 570.815ZM226.602 556.549L226.554 567.589L215.513 567.637L210.102 554.892C210.811 554.375 211.5 553.815 212.14 553.175C212.78 552.535 213.339 551.847 213.857 551.138L226.602 556.549ZM215.514 514.433L226.555 514.481L226.603 525.522L213.858 530.933C213.34 530.224 212.781 529.535 212.141 528.895C211.501 528.255 210.813 527.696 210.103 527.178L215.514 514.433ZM205.622 527.461C207.357 528.177 208.984 529.235 210.392 530.643C211.8 532.051 212.858 533.677 213.574 535.413C214.295 537.146 214.697 539.044 214.697 541.035C214.697 543.026 214.295 544.924 213.574 546.657C212.858 548.392 211.8 550.019 210.392 551.427C208.984 552.835 207.358 553.893 205.622 554.609C203.889 555.33 201.991 555.732 200 555.732C198.009 555.732 196.111 555.33 194.378 554.609C192.643 553.893 191.016 552.835 189.608 551.427C188.2 550.019 187.142 548.393 186.426 546.657C185.705 544.924 185.303 543.026 185.303 541.035C185.303 539.044 185.705 537.146 186.426 535.413C187.142 533.678 188.2 532.051 189.608 530.643C191.016 529.235 192.642 528.177 194.378 527.461C196.111 526.74 198.009 526.338 200 526.338C201.991 526.338 203.889 526.74 205.622 527.461ZM200 503.481L207.841 511.254L202.655 524.093C201.788 523.957 200.905 523.866 200 523.866C199.095 523.866 198.213 523.957 197.345 524.093L192.159 511.254L200 503.481Z" fill="#F1EAD8"/>
<path d="M291.885 600H296.46L318.672 577.788V566.313L326.786 558.199V526.786H358.199L366.313 518.672H377.788L400 496.46V491.885L376.448 515.437H364.973L356.858 523.551H323.551V556.858L315.437 564.973V576.448L291.885 600Z" fill="#F1EAD8"/>
<path d="M276.21 600H280.784L307.435 573.349V561.658L315.702 553.391V515.702L353.391 515.701L361.658 507.434H373.349L400 480.784V476.209L372.01 504.199H360.318L352.051 512.466L312.467 512.467L312.466 552.051L304.199 560.318V572.01L276.21 600Z" fill="#F1EAD8"/>
<path d="M48.675 482.489H48.674H36.62L0 445.869V450.444L35.281 485.725H47.334L55.858 494.248H105.752V544.142L114.275 552.666V564.719L149.556 600H154.131L117.511 563.38V551.326V551.325L108.987 542.802V491.013H57.198L48.675 482.49V482.489Z" fill="#F1EAD8"/>
<path d="M43.628 494.673H43.627H32.304L0 462.369V466.944L30.964 497.909H42.288L50.294 505.915H94.085V549.706L102.091 557.712V569.036L133.056 600H137.631L105.327 567.696V556.372H105.326L97.32 548.365V502.68L51.635 502.681L43.628 494.673Z" fill="#F1EAD8"/>
<path d="M141.421 458.579H58.579L0 400V404.575L57.238 461.814H57.239H138.187L138.186 542.761V542.762H138.187L195.425 600H200L141.421 541.421V458.579Z" fill="#F1EAD8"/>
<path d="M54.125 469.33H41.83L0 427.5V432.075L40.49 472.565H52.785L61.479 481.259H118.741V538.521L127.435 547.215V559.51L167.925 600H172.5L130.67 558.17V545.875V545.874L130.669 545.875L121.976 537.181V478.024H62.819L54.126 469.331V469.33H54.125Z" fill="#F1EAD8"/>
<path d="M30.264 526.936H19.093L0 507.843V512.418L11.813 524.231C11.877 524.333 11.924 524.443 12.013 524.532C23.128 535.647 20.385 542.15 16.236 547.045C13.735 549.996 9.3 550.371 6.349 547.877C4.122 545.995 3.841 542.652 5.723 540.424C6.42 539.6 7.387 539.137 8.386 539.054C7.551 539.233 6.803 539.68 6.243 540.343C5.476 541.25 5.109 542.401 5.208 543.585C5.307 544.769 5.862 545.842 6.768 546.609C8.937 548.444 12.197 548.168 14.031 545.999C16.18 543.457 15.86 539.64 13.317 537.491C10.31 534.95 5.794 535.327 3.252 538.336C0.218 541.926 0.67 547.315 4.26 550.348C6.178 551.969 8.526 552.761 10.863 552.761C13.778 552.761 16.676 551.529 18.704 549.137C23.818 543.104 24.454 536.941 20.582 530.172H28.924L34.823 536.071C27.298 538.119 23.39 542.928 22.74 550.809C22.482 553.935 23.66 556.855 25.722 558.916C27.375 560.569 29.594 561.668 32.097 561.878C36.78 562.272 40.911 558.781 41.303 554.097C41.633 550.172 38.707 546.712 34.783 546.383C31.466 546.105 28.54 548.577 28.262 551.894C28.025 554.724 30.135 557.224 32.966 557.461C34.149 557.56 35.3 557.193 36.208 556.426C37.115 555.659 37.67 554.585 37.769 553.402C37.842 552.537 37.629 551.692 37.165 550.975C37.813 551.74 38.17 552.752 38.079 553.827C37.835 556.733 35.272 558.898 32.367 558.654C28.516 558.331 25.646 554.93 25.964 551.075C26.492 544.68 29.15 538.142 44.87 538.142C44.996 538.142 45.107 538.098 45.225 538.071H61.93V554.777C61.903 554.894 61.859 555.006 61.859 555.131C61.859 570.851 55.321 573.509 48.926 574.037C45.071 574.355 41.67 571.485 41.346 567.634C41.102 564.728 43.268 562.166 46.174 561.922C47.249 561.832 48.261 562.189 49.026 562.837C48.309 562.373 47.464 562.16 46.599 562.233C45.416 562.332 44.342 562.886 43.575 563.793C42.808 564.7 42.441 565.851 42.54 567.035C42.777 569.866 45.276 571.976 48.106 571.739C51.423 571.461 53.896 568.536 53.617 565.218C53.287 561.295 49.828 558.369 45.903 558.698C41.219 559.091 37.729 563.221 38.122 567.904C38.332 570.407 39.432 572.627 41.084 574.279C43.145 576.34 46.065 577.519 49.191 577.26C57.072 576.61 61.881 572.702 63.929 565.177L69.828 571.076V579.418C63.059 575.546 56.895 576.182 50.863 581.296C48.47 583.324 47.238 586.222 47.238 589.137C47.238 591.474 48.03 593.821 49.651 595.74C52.684 599.33 58.073 599.782 61.663 596.748C64.671 594.206 65.049 589.69 62.508 586.683C60.359 584.14 56.542 583.82 54 585.969C51.831 587.803 51.556 591.062 53.39 593.232C54.157 594.139 55.23 594.693 56.414 594.792C57.598 594.892 58.749 594.524 59.656 593.757C60.319 593.197 60.766 592.448 60.945 591.614C60.862 592.613 60.399 593.581 59.575 594.277C57.347 596.159 54.004 595.878 52.122 593.651C49.628 590.7 50.003 586.265 52.954 583.764C57.849 579.615 64.352 576.872 75.467 587.987C75.556 588.076 75.666 588.123 75.768 588.187L87.582 600H92.157L73.064 580.907V569.736L65.165 561.837V534.835H38.163L30.264 526.936Z" fill="#F1EAD8"/>
<path d="M13.302 559.488L0 546.301V550.856L10.26 561.028L3.474 577.829C2.339 577.652 1.184 577.532 0 577.532V580.767C2.606 580.767 5.089 581.293 7.358 582.236C9.629 583.173 11.757 584.557 13.6 586.4C15.443 588.243 16.827 590.371 17.764 592.642C18.707 594.91 19.233 597.394 19.233 600H22.468C22.468 598.816 22.349 597.661 22.171 596.526L38.972 589.74L49.144 600H53.7L40.513 586.698C40.054 586.235 39.362 586.093 38.758 586.337L21.457 593.326C21.253 592.671 21.013 592.032 20.752 591.405C20.493 590.777 20.21 590.156 19.892 589.548L37.068 582.256C37.668 582.001 38.057 581.412 38.054 580.76L37.973 562.029L19.242 561.948C18.59 561.945 18.001 562.334 17.746 562.934L10.454 580.11C9.847 579.791 9.226 579.509 8.597 579.25C7.969 578.989 7.331 578.749 6.676 578.545L13.665 561.244C13.908 560.639 13.765 559.947 13.302 559.488ZM20.302 565.188L34.75 565.251L34.813 579.699L18.134 586.78C17.457 585.852 16.725 584.951 15.887 584.114C15.05 583.277 14.149 582.545 13.221 581.867L20.302 565.188Z" fill="#F1EAD8"/>
<path d="M35.027 515.437H23.552L0 491.885V496.46L22.212 518.672H33.687L41.801 526.786H73.214V558.199L81.328 566.313V577.788L103.54 600H108.115L84.563 576.448V564.973L76.449 556.858V523.551H43.142L35.027 515.437H35.028H35.027Z" fill="#F1EAD8"/>
<path d="M39.682 504.199H27.99L0 476.209V480.784L26.651 507.434H38.342L46.609 515.701L84.298 515.702L84.299 553.391L92.566 561.658V573.349L119.216 600H123.791L95.801 572.01V560.318L87.534 552.051L87.533 512.467L47.949 512.466L39.682 504.199Z" fill="#F1EAD8"/>
<path d="M389.559 211.418L394.9 224.639C394.4 224.795 393.912 224.978 393.432 225.177C392.952 225.375 392.477 225.591 392.013 225.835L386.441 212.71C386.246 212.251 385.796 211.955 385.298 211.957L370.984 212.019L370.922 226.333C370.92 226.831 371.217 227.282 371.675 227.476L384.8 233.048C384.557 233.512 384.341 233.987 384.143 234.467C383.944 234.947 383.761 235.435 383.605 235.935L370.384 230.594C369.922 230.407 369.394 230.516 369.043 230.87L358.966 241.035L369.043 251.2C369.394 251.554 369.922 251.662 370.384 251.475L383.605 246.134C383.761 246.634 383.944 247.122 384.143 247.602C384.341 248.082 384.557 248.557 384.8 249.021L371.675 254.593C371.216 254.788 370.92 255.238 370.922 255.736L370.984 270.05L385.298 270.112C385.796 270.114 386.247 269.817 386.441 269.358L392.013 256.233C392.477 256.476 392.952 256.692 393.432 256.89C393.912 257.089 394.4 257.272 394.9 257.428L389.559 270.649C389.372 271.111 389.481 271.639 389.835 271.99L400 282.07V278.589L392.159 270.816L397.345 257.977C398.212 258.113 399.095 258.204 400 258.204V255.732C398.009 255.732 396.111 255.33 394.378 254.609C392.643 253.893 391.016 252.835 389.608 251.427C388.2 250.019 387.142 248.393 386.426 246.657C385.705 244.924 385.303 243.026 385.303 241.035C385.303 239.044 385.705 237.146 386.426 235.413C387.142 233.678 388.2 232.051 389.608 230.643C391.016 229.235 392.642 228.177 394.378 227.461C396.111 226.74 398.009 226.338 400.001 226.338V223.866C399.096 223.866 398.214 223.957 397.346 224.093L392.16 211.254L400.001 203.481V200L389.836 210.077C389.481 210.428 389.372 210.956 389.559 211.418ZM383.058 243.689L370.219 248.875L362.446 241.035L370.219 233.194L383.058 238.38C382.922 239.248 382.831 240.13 382.831 241.035C382.831 241.94 382.922 242.822 383.058 243.689ZM386.143 251.137C386.661 251.846 387.22 252.535 387.86 253.175C388.5 253.815 389.188 254.374 389.898 254.892L384.487 267.637L373.446 267.589L373.398 256.548L386.143 251.137ZM387.86 228.895C387.22 229.535 386.661 230.223 386.143 230.932L373.398 225.521L373.446 214.481L384.487 214.433L389.898 227.178C389.188 227.695 388.5 228.255 387.86 228.895Z" fill="#F1EAD8"/>
<path d="M317.511 263.38V251.326L308.988 242.803V191.014H257.199L248.676 182.491H236.62L200 145.869L163.38 182.489H151.326L142.803 191.012H91.0131V242.801L82.4901 251.324V263.378L45.8691 300L82.4891 336.62V348.674L91.0121 357.197V408.986H142.801L151.324 417.509H163.378L199.998 454.129L236.618 417.509H248.672L257.195 408.986H308.984V357.197L317.507 348.674V336.62L354.127 300L317.511 263.38ZM314.275 335.281V347.335L305.752 355.858V405.752H255.857L247.334 414.275H235.28L200 449.556L164.719 414.275H152.665L144.142 405.752H94.2481V355.858L85.7251 347.335V335.281L50.4441 300L85.7251 264.719V252.665L94.2481 244.142V194.247H144.142L152.665 185.724H164.719L200 150.444L235.281 185.725H247.335L255.858 194.248H305.753V244.143L314.276 252.666V264.72L349.556 300L314.275 335.281Z" fill="#F1EAD8"/>
<path d="M305.327 267.696V256.372L297.32 248.365V202.68H251.635L243.628 194.673H232.305L200 162.369L167.696 194.673H156.373L148.366 202.68H102.681V248.365L94.6741 256.372V267.696L62.3691 300L94.6731 332.304V343.628L102.68 351.635V397.32H148.365L156.372 405.327H167.696L200 437.631L232.304 405.327H243.628L251.635 397.32H297.32V351.635L305.327 343.628V332.304L337.631 300L305.327 267.696ZM302.091 330.964V342.287L294.084 350.294V394.085H250.293L242.286 402.092H230.963L200 433.056L169.036 402.091H157.713L149.706 394.084H105.915V350.293L97.9081 342.286V330.963L66.9441 300L97.9091 269.036V257.713L105.916 249.706V205.915H149.707L157.714 197.908H169.037L200 166.944L230.964 197.909H242.287L250.294 205.916H294.085V249.707L302.092 257.714V269.037L333.056 300L302.091 330.964Z" fill="#F1EAD8"/>
<path d="M330.67 258.17V245.875L321.976 237.181V178.024H262.82L254.126 169.33H241.83L200 127.5L158.17 169.33H145.875L137.181 178.024H78.024V237.181L69.33 245.875V258.17L27.5 300L69.33 341.83V354.125L78.024 362.819V421.976H137.181L145.875 430.67H158.17L200 472.5L241.83 430.67H254.125L262.819 421.976H321.975V362.819L330.669 354.125V341.83L372.5 300L330.67 258.17ZM327.435 340.49V352.785L318.741 361.479V418.741H261.479L252.785 427.435H240.49L200 467.925L159.51 427.435H147.215L138.521 418.741H81.259V361.479L72.565 352.785V340.49L32.075 300L72.566 259.51V247.215L81.26 238.521V181.259H138.522L147.216 172.565H159.511L200 132.075L240.49 172.566H252.785L261.479 181.26H318.741V238.522L327.435 247.216V259.511L367.925 300L327.435 340.49Z" fill="#F1EAD8"/>
<path d="M273.064 280.907V269.736L265.165 261.837V234.835H238.163L230.264 226.936H219.094L200 207.843L180.907 226.936H169.736L161.837 234.835H134.835V261.837L126.936 269.736V280.907L107.843 300L126.936 319.093V330.264L134.835 338.163V365.165H161.837L169.736 373.064H180.907L200 392.157L219.093 373.064H230.263L238.162 365.165H265.164V338.163L273.063 330.264V319.093L292.157 300L273.064 280.907ZM275.468 312.013C264.352 323.129 257.85 320.385 252.955 316.236C250.004 313.735 249.629 309.301 252.123 306.349C254.005 304.122 257.348 303.841 259.576 305.723C260.4 306.42 260.863 307.387 260.946 308.387C260.767 307.552 260.32 306.804 259.657 306.244C258.75 305.477 257.599 305.11 256.415 305.209C255.231 305.308 254.158 305.863 253.391 306.769C251.556 308.939 251.832 312.198 254.001 314.032C256.543 316.181 260.36 315.861 262.509 313.318C265.05 310.311 264.673 305.795 261.664 303.253C258.074 300.219 252.685 300.671 249.652 304.261C248.031 306.179 247.239 308.527 247.239 310.864C247.239 313.779 248.471 316.677 250.863 318.705C256.896 323.819 263.059 324.455 269.828 320.583V328.925L263.929 334.824C261.881 327.299 257.072 323.391 249.191 322.741C246.065 322.483 243.145 323.662 241.084 325.722C239.432 327.374 238.332 329.594 238.122 332.097C237.728 336.78 241.219 340.911 245.903 341.303C249.828 341.632 253.288 338.707 253.617 334.783C253.895 331.465 251.423 328.54 248.106 328.262C245.276 328.025 242.776 330.135 242.539 332.966C242.44 334.149 242.807 335.301 243.574 336.208C244.341 337.115 245.415 337.669 246.598 337.768C247.463 337.841 248.308 337.628 249.025 337.164C248.26 337.812 247.248 338.169 246.173 338.078C243.267 337.834 241.102 335.271 241.346 332.366C241.669 328.515 245.07 325.645 248.925 325.963C255.32 326.491 261.858 329.149 261.858 344.868C261.858 344.994 261.902 345.105 261.93 345.222V361.928H245.224C245.106 361.901 244.995 361.856 244.869 361.856C229.149 361.856 226.491 355.318 225.963 348.923C225.645 345.068 228.515 341.667 232.366 341.344C235.271 341.1 237.834 343.266 238.078 346.171C238.168 347.246 237.811 348.258 237.163 349.023C237.627 348.306 237.84 347.461 237.767 346.596C237.668 345.413 237.114 344.339 236.206 343.572C235.299 342.805 234.148 342.438 232.964 342.537C230.133 342.774 228.023 345.273 228.26 348.103C228.538 351.42 231.463 353.893 234.781 353.614C238.704 353.285 241.63 349.825 241.301 345.9C240.908 341.216 236.778 337.726 232.095 338.119C229.592 338.329 227.372 339.429 225.72 341.081C223.659 343.142 222.48 346.062 222.739 349.188C223.389 357.07 227.297 361.878 234.822 363.926L228.923 369.825H220.581C224.453 363.055 223.817 356.892 218.703 350.86C216.675 348.467 213.777 347.236 210.862 347.236C208.525 347.236 206.178 348.028 204.259 349.649C200.669 352.682 200.217 358.071 203.251 361.661C205.793 364.669 210.309 365.047 213.316 362.506C215.859 360.357 216.179 356.54 214.03 353.998C212.196 351.829 208.937 351.554 206.767 353.388C205.86 354.155 205.306 355.228 205.207 356.412C205.108 357.596 205.475 358.747 206.242 359.654C206.802 360.317 207.551 360.764 208.385 360.943C207.386 360.86 206.418 360.397 205.722 359.573C203.84 357.346 204.121 354.002 206.348 352.12C209.299 349.626 213.734 350.001 216.235 352.952C220.384 357.847 223.127 364.35 212.012 375.465C211.923 375.554 211.876 375.664 211.812 375.766L200 387.582L188.187 375.769C188.123 375.667 188.076 375.557 187.987 375.468C176.871 364.352 179.615 357.85 183.764 352.955C186.265 350.004 190.7 349.629 193.651 352.123C195.878 354.005 196.158 357.348 194.277 359.576C193.58 360.4 192.612 360.864 191.614 360.946C192.449 360.767 193.197 360.32 193.757 359.657C194.524 358.75 194.891 357.599 194.792 356.415C194.693 355.231 194.138 354.158 193.232 353.391C191.062 351.556 187.803 351.832 185.969 354.001C183.82 356.543 184.14 360.36 186.683 362.509C189.69 365.05 194.206 364.673 196.748 361.664C199.782 358.074 199.33 352.685 195.74 349.652C193.822 348.031 191.474 347.239 189.137 347.239C186.222 347.239 183.324 348.471 181.296 350.863C176.182 356.896 175.546 363.059 179.418 369.828H171.076L165.177 363.929C172.702 361.881 176.61 357.072 177.26 349.191C177.518 346.065 176.339 343.145 174.279 341.084C172.627 339.432 170.407 338.332 167.904 338.122C163.221 337.729 159.091 341.219 158.698 345.903C158.368 349.828 161.294 353.288 165.218 353.617C168.536 353.896 171.461 351.423 171.739 348.106C171.976 345.276 169.866 342.776 167.035 342.54C165.852 342.441 164.7 342.808 163.793 343.575C162.886 344.342 162.331 345.416 162.232 346.599C162.159 347.464 162.372 348.309 162.836 349.026C162.188 348.261 161.831 347.249 161.921 346.174C162.165 343.268 164.728 341.103 167.633 341.347C171.484 341.67 174.354 345.071 174.036 348.926C173.508 355.321 170.85 361.859 155.13 361.859C155.004 361.859 154.893 361.903 154.775 361.931H138.07V345.225C138.097 345.108 138.142 344.996 138.142 344.871C138.142 329.151 144.68 326.493 151.075 325.966C154.93 325.648 158.331 328.518 158.655 332.369C158.899 335.274 156.733 337.837 153.828 338.081C152.753 338.171 151.741 337.814 150.976 337.167C151.693 337.631 152.538 337.844 153.403 337.771C154.586 337.672 155.66 337.118 156.427 336.211C157.194 335.304 157.561 334.153 157.462 332.969C157.225 330.138 154.726 328.028 151.895 328.265C148.578 328.543 146.105 331.468 146.384 334.786C146.714 338.709 150.173 341.635 154.098 341.306C158.782 340.913 162.272 336.783 161.879 332.1C161.669 329.597 160.569 327.377 158.917 325.725C156.856 323.664 153.936 322.486 150.81 322.744C142.928 323.394 138.12 327.302 136.072 334.827L130.173 328.928V320.586C136.942 324.458 143.106 323.822 149.138 318.708C151.531 316.68 152.762 313.782 152.762 310.867C152.762 308.53 151.97 306.182 150.349 304.264C147.316 300.674 141.927 300.222 138.337 303.256C135.329 305.798 134.951 310.314 137.493 313.321C139.642 315.864 143.459 316.184 146.001 314.035C148.17 312.202 148.445 308.942 146.611 306.772C145.844 305.865 144.771 305.311 143.587 305.212C142.403 305.113 141.252 305.48 140.345 306.247C139.682 306.807 139.235 307.556 139.056 308.39C139.139 307.391 139.602 306.423 140.426 305.726C142.653 303.844 145.997 304.125 147.879 306.352C150.373 309.304 149.998 313.738 147.047 316.239C142.152 320.388 135.649 323.131 124.534 312.016C124.445 311.927 124.335 311.88 124.233 311.816L112.418 300L124.231 288.187C124.333 288.123 124.443 288.076 124.532 287.987C135.648 276.871 142.15 279.615 147.045 283.764C149.996 286.265 150.371 290.7 147.877 293.651C145.995 295.878 142.652 296.159 140.424 294.276C139.6 293.579 139.136 292.612 139.054 291.613C139.233 292.448 139.68 293.196 140.343 293.756C141.25 294.523 142.401 294.89 143.585 294.791C144.769 294.692 145.843 294.138 146.609 293.231C148.444 291.062 148.168 287.802 145.999 285.968C143.457 283.819 139.64 284.139 137.491 286.682C134.95 289.689 135.327 294.205 138.335 296.747C141.925 299.781 147.314 299.329 150.347 295.739C151.968 293.821 152.76 291.473 152.76 289.136C152.76 286.222 151.528 283.323 149.136 281.295C143.103 276.181 136.94 275.545 130.171 279.417V271.075L136.07 265.176C138.118 272.701 142.927 276.609 150.808 277.258C153.934 277.516 156.854 276.338 158.915 274.277C160.567 272.625 161.667 270.405 161.877 267.902C162.271 263.219 158.78 259.089 154.096 258.696C150.171 258.366 146.711 261.292 146.382 265.216C146.103 268.534 148.576 271.459 151.893 271.737C154.723 271.974 157.223 269.864 157.46 267.033C157.559 265.85 157.192 264.698 156.425 263.791C155.658 262.884 154.585 262.329 153.401 262.23C152.536 262.157 151.691 262.37 150.974 262.834C151.739 262.186 152.751 261.829 153.826 261.92C156.732 262.164 158.897 264.727 158.653 267.632C158.33 271.483 154.929 274.353 151.073 274.035C144.678 273.507 138.14 270.849 138.14 255.13C138.14 255.004 138.096 254.893 138.068 254.775V238.07H154.774C154.892 238.097 155.003 238.142 155.129 238.142C170.849 238.142 173.507 244.68 174.035 251.075C174.353 254.93 171.483 258.331 167.632 258.654C164.726 258.898 162.164 256.732 161.92 253.827C161.83 252.752 162.187 251.74 162.835 250.975C162.371 251.692 162.158 252.537 162.231 253.402C162.33 254.585 162.884 255.659 163.792 256.426C164.699 257.193 165.85 257.56 167.034 257.461C169.865 257.224 171.975 254.725 171.738 251.894C171.46 248.577 168.535 246.104 165.217 246.383C161.294 246.712 158.368 250.172 158.697 254.097C159.09 258.781 163.22 262.272 167.903 261.878C170.406 261.668 172.626 260.568 174.278 258.916C176.339 256.855 177.517 253.935 177.259 250.809C176.609 242.927 172.701 238.119 165.176 236.071L171.075 230.172H179.417C175.545 236.941 176.181 243.105 181.295 249.137C183.323 251.53 186.221 252.761 189.136 252.761C191.473 252.761 193.821 251.969 195.739 250.348C199.329 247.315 199.781 241.926 196.747 238.336C194.205 235.328 189.689 234.95 186.682 237.491C184.139 239.64 183.819 243.456 185.968 245.999C187.801 248.168 191.061 248.443 193.231 246.609C194.138 245.842 194.692 244.769 194.791 243.585C194.89 242.401 194.523 241.25 193.756 240.343C193.196 239.68 192.447 239.233 191.613 239.054C192.612 239.137 193.58 239.6 194.276 240.424C196.158 242.651 195.877 245.995 193.65 247.877C190.698 250.371 186.264 249.996 183.763 247.045C179.614 242.15 176.871 235.647 187.986 224.532C188.075 224.443 188.122 224.333 188.186 224.231L200 212.418L211.813 224.231C211.877 224.333 211.924 224.443 212.013 224.532C223.129 235.647 220.385 242.15 216.236 247.045C213.735 249.996 209.3 250.371 206.349 247.877C204.122 245.995 203.841 242.652 205.723 240.424C206.42 239.6 207.387 239.137 208.386 239.054C207.551 239.233 206.803 239.68 206.243 240.343C205.476 241.25 205.109 242.401 205.208 243.585C205.307 244.769 205.862 245.842 206.768 246.609C208.937 248.444 212.197 248.168 214.031 245.999C216.18 243.457 215.86 239.64 213.317 237.491C210.31 234.95 205.794 235.327 203.252 238.336C200.218 241.926 200.67 247.315 204.26 250.348C206.178 251.969 208.526 252.761 210.863 252.761C213.778 252.761 216.676 251.529 218.704 249.137C223.818 243.104 224.454 236.941 220.582 230.172H228.924L234.823 236.071C227.298 238.119 223.39 242.928 222.74 250.809C222.482 253.935 223.66 256.855 225.721 258.916C227.373 260.569 229.593 261.669 232.096 261.878C236.779 262.272 240.909 258.781 241.302 254.097C241.632 250.172 238.706 246.712 234.782 246.383C231.464 246.105 228.539 248.577 228.261 251.894C228.024 254.724 230.134 257.224 232.965 257.461C234.148 257.56 235.3 257.193 236.207 256.426C237.114 255.659 237.669 254.586 237.768 253.402C237.841 252.537 237.628 251.692 237.164 250.975C237.812 251.74 238.169 252.752 238.079 253.827C237.835 256.733 235.272 258.898 232.367 258.654C228.516 258.331 225.646 254.93 225.964 251.075C226.492 244.68 229.15 238.142 244.87 238.142C244.996 238.142 245.107 238.098 245.225 238.07H261.931V254.776C261.904 254.894 261.859 255.005 261.859 255.131C261.859 270.851 255.321 273.509 248.926 274.036C245.071 274.354 241.67 271.484 241.347 267.633C241.103 264.728 243.269 262.165 246.174 261.921C247.249 261.831 248.261 262.188 249.026 262.835C248.309 262.371 247.464 262.158 246.599 262.231C245.416 262.33 244.342 262.884 243.575 263.792C242.808 264.699 242.441 265.85 242.54 267.034C242.777 269.865 245.276 271.975 248.107 271.738C251.424 271.46 253.897 268.535 253.618 265.217C253.288 261.294 249.829 258.368 245.904 258.697C241.22 259.09 237.729 263.22 238.123 267.903C238.333 270.406 239.433 272.626 241.085 274.278C243.146 276.339 246.066 277.518 249.192 277.259C257.074 276.609 261.882 272.701 263.93 265.177L269.829 271.076V279.418C263.06 275.546 256.896 276.182 250.864 281.296C248.471 283.324 247.24 286.222 247.24 289.137C247.24 291.474 248.032 293.822 249.653 295.74C252.686 299.33 258.075 299.782 261.665 296.748C264.673 294.206 265.051 289.69 262.51 286.683C260.361 284.14 256.544 283.82 254.002 285.969C251.833 287.803 251.558 291.062 253.392 293.232C254.159 294.139 255.232 294.693 256.416 294.792C257.6 294.892 258.751 294.524 259.658 293.757C260.321 293.197 260.768 292.448 260.947 291.614C260.864 292.613 260.401 293.581 259.577 294.277C257.35 296.159 254.006 295.879 252.124 293.652C249.63 290.701 250.005 286.266 252.956 283.765C257.851 279.616 264.354 276.873 275.469 287.988C275.558 288.077 275.668 288.124 275.77 288.188L287.582 300L275.769 311.813C275.667 311.877 275.557 311.924 275.468 312.013Z" fill="#F1EAD8"/>
<path d="M238.757 286.337L221.456 293.326C221.252 292.671 221.012 292.032 220.751 291.405C220.492 290.777 220.209 290.156 219.891 289.548L237.067 282.256C237.667 282.001 238.056 281.412 238.053 280.76L237.972 262.029L219.241 261.948C218.589 261.945 218 262.334 217.745 262.934L210.453 280.11C209.846 279.791 209.225 279.509 208.596 279.25C207.968 278.989 207.33 278.75 206.675 278.545L213.664 261.244C213.908 260.64 213.766 259.948 213.303 259.489L200 246.301L186.698 259.488C186.235 259.947 186.093 260.639 186.337 261.243L193.326 278.544C192.671 278.748 192.032 278.988 191.405 279.249C190.777 279.508 190.156 279.791 189.548 280.109L182.256 262.933C182.001 262.333 181.412 261.944 180.76 261.947L162.029 262.028L161.948 280.759C161.945 281.411 162.334 282 162.934 282.255L180.11 289.547C179.791 290.154 179.509 290.775 179.25 291.404C178.989 292.032 178.75 292.67 178.546 293.325L161.245 286.336C160.64 286.092 159.949 286.234 159.49 286.697L146.301 300L159.488 313.302C159.947 313.765 160.639 313.907 161.243 313.663L178.544 306.674C178.748 307.329 178.988 307.968 179.248 308.595C179.507 309.223 179.79 309.844 180.108 310.452L162.932 317.744C162.332 317.999 161.944 318.588 161.946 319.24L162.027 337.971L180.758 338.053C181.41 338.056 181.999 337.667 182.254 337.067L189.546 319.891C190.153 320.21 190.774 320.492 191.403 320.751C192.031 321.012 192.669 321.251 193.324 321.455L186.335 338.756C186.091 339.361 186.233 340.052 186.696 340.511L200 353.699L213.303 340.512C213.766 340.053 213.908 339.361 213.664 338.757L206.675 321.456C207.33 321.252 207.968 321.012 208.596 320.752C209.224 320.493 209.845 320.21 210.452 319.892L217.744 337.068C217.999 337.668 218.588 338.057 219.24 338.054L237.971 337.972L238.052 319.241C238.055 318.589 237.666 318 237.066 317.745L219.89 310.453C220.209 309.846 220.491 309.225 220.75 308.596C221.011 307.968 221.25 307.33 221.455 306.675L238.756 313.664C239.361 313.908 240.052 313.766 240.511 313.303L253.699 300L240.512 286.698C240.053 286.235 239.361 286.092 238.757 286.337ZM177.829 303.474L161.028 310.26L150.857 300L161.029 289.74L177.83 296.526C177.652 297.661 177.533 298.816 177.533 300C177.533 301.184 177.652 302.339 177.829 303.474ZM189.74 261.028L200 250.856L210.26 261.028L203.474 277.829C202.339 277.651 201.184 277.532 200 277.532C198.816 277.532 197.661 277.651 196.526 277.829L189.74 261.028ZM165.188 279.698L165.251 265.25L179.699 265.187L186.78 281.866C185.852 282.543 184.951 283.275 184.114 284.113C183.277 284.95 182.545 285.851 181.867 286.779L165.188 279.698ZM179.698 334.812L165.25 334.749L165.187 320.301L181.866 313.22C182.543 314.148 183.275 315.049 184.113 315.886C184.95 316.723 185.851 317.455 186.779 318.132L179.698 334.812ZM210.26 338.971L200 349.143L189.74 338.971L196.526 322.17C197.661 322.348 198.816 322.467 200 322.467C201.184 322.467 202.339 322.348 203.474 322.17L210.26 338.971ZM207.358 317.763C205.09 318.706 202.606 319.232 200 319.232C197.394 319.232 194.911 318.706 192.643 317.763C190.372 316.826 188.244 315.442 186.401 313.599C184.558 311.757 183.174 309.628 182.237 307.357C181.294 305.089 180.768 302.605 180.768 299.999C180.768 297.393 181.294 294.91 182.237 292.641C183.174 290.37 184.558 288.242 186.401 286.399C188.243 284.557 190.372 283.172 192.643 282.235C194.911 281.292 197.395 280.766 200.001 280.766C202.607 280.766 205.09 281.292 207.359 282.235C209.63 283.172 211.758 284.556 213.601 286.399C215.444 288.241 216.828 290.37 217.765 292.641C218.708 294.909 219.234 297.393 219.234 299.999C219.234 302.605 218.708 305.088 217.765 307.357C216.828 309.628 215.444 311.756 213.601 313.599C211.757 315.442 209.628 316.826 207.358 317.763ZM234.812 320.302L234.749 334.75L220.301 334.813L213.22 318.134C214.148 317.457 215.049 316.725 215.886 315.888C216.723 315.051 217.455 314.15 218.133 313.222L234.812 320.302ZM218.133 286.779C217.456 285.851 216.724 284.95 215.886 284.113C215.049 283.276 214.148 282.544 213.22 281.866L220.301 265.187L234.749 265.25L234.812 279.698L218.133 286.779ZM238.971 310.26L222.17 303.474C222.348 302.339 222.467 301.184 222.467 300C222.467 298.816 222.348 297.661 222.17 296.526L238.971 289.74L249.144 300L238.971 310.26Z" fill="#F1EAD8"/>
<path d="M7.841 211.254L2.655 224.093C1.787 223.957 0.905 223.866 0 223.866V226.338C1.991 226.338 3.889 226.74 5.622 227.461C7.357 228.177 8.984 229.235 10.392 230.643C11.8 232.051 12.858 233.677 13.574 235.413C14.295 237.146 14.697 239.044 14.697 241.035C14.697 243.026 14.295 244.924 13.574 246.657C12.858 248.392 11.8 250.019 10.392 251.427C8.984 252.835 7.358 253.893 5.622 254.609C3.889 255.33 1.991 255.732 0 255.732V258.204C0.905 258.204 1.787 258.113 2.655 257.977L7.841 270.816L0 278.589V282.07L10.165 271.993C10.519 271.642 10.627 271.114 10.441 270.652L5.1 257.43C5.6 257.274 6.088 257.091 6.568 256.892C7.048 256.694 7.523 256.478 7.987 256.235L13.559 269.36C13.754 269.819 14.204 270.116 14.702 270.114L29.015 270.052L29.077 255.738C29.079 255.24 28.782 254.789 28.324 254.595L15.2 249.022C15.444 248.558 15.659 248.083 15.857 247.603C16.056 247.123 16.239 246.635 16.395 246.135L29.616 251.476C30.078 251.663 30.606 251.554 30.957 251.201L41.034 241.036L30.958 230.87C30.607 230.516 30.079 230.408 29.617 230.594L16.396 235.935C16.24 235.435 16.057 234.947 15.858 234.467C15.66 233.987 15.444 233.512 15.201 233.048L28.326 227.476C28.785 227.281 29.082 226.831 29.079 226.333L29.017 212.019L14.704 211.957C14.206 211.955 13.755 212.252 13.561 212.71L7.989 225.835C7.525 225.592 7.05 225.376 6.57 225.177C6.09 224.978 5.602 224.795 5.102 224.639L10.443 211.418C10.63 210.956 10.521 210.428 10.167 210.077L0 200V203.481L7.841 211.254ZM16.942 238.38L29.781 233.194L37.554 241.035L29.781 248.875L16.942 243.689C17.078 242.821 17.169 241.939 17.169 241.034C17.169 240.13 17.078 239.248 16.942 238.38ZM26.602 256.549L26.554 267.59L15.514 267.638L10.103 254.893C10.812 254.375 11.501 253.816 12.141 253.176C12.781 252.536 13.34 251.848 13.858 251.138L26.602 256.549ZM15.514 214.432L26.554 214.48L26.602 225.52L13.857 230.931C13.339 230.222 12.78 229.533 12.14 228.894C11.5 228.254 10.812 227.695 10.102 227.177L15.514 214.432Z" fill="#F1EAD8"/>
<path d="M284.563 276.448V264.973L276.449 256.859V223.552H243.142L235.028 215.438H223.553L200 191.885L176.448 215.437H164.973L156.859 223.551H123.552V256.858L115.438 264.972V276.447L91.8848 300L115.437 323.552V335.027L123.551 343.141V376.448H156.858L164.972 384.562H176.447L200 408.115L223.552 384.563H235.027L243.141 376.449H276.448V343.142L284.562 335.028V323.553L308.115 300L284.563 276.448ZM281.328 322.212V333.687L273.214 341.801V373.214H241.801L233.687 381.328H222.212L200 403.54L177.788 381.328H166.313L158.199 373.214H126.786V341.801L118.672 333.687V322.212L96.4598 300L118.673 277.788V266.313L126.787 258.199V226.786H158.2L166.314 218.672H177.789L200 196.46L222.212 218.673H233.687L241.801 226.787H273.214V258.2L281.328 266.314V277.789L303.54 300L281.328 322.212Z" fill="#F1EAD8"/>
<path d="M295.801 272.01V260.319L287.534 252.052V212.468H247.95L239.683 204.201H227.99L200 176.209L172.01 204.199H160.318L152.051 212.466H112.467V252.05L104.2 260.317V272.008L76.21 300L104.2 327.99V339.681L112.467 347.948V387.532H152.051L160.318 395.799H172.01L200 423.79L227.99 395.8H239.682L247.949 387.533H287.533V347.949L295.8 339.682V327.99L323.79 300L295.801 272.01ZM292.566 326.651V338.342L284.299 346.609V384.298H246.61L238.343 392.565H226.652L200 419.216L173.349 392.566H161.658L153.391 384.299H115.702V346.61L107.435 338.343V326.652L80.784 300L107.434 273.349V261.658L115.701 253.391V215.702H153.39L161.657 207.435H173.348L200 180.784L226.651 207.434H238.342L246.609 215.701H284.298V253.39L292.565 261.657V273.348L319.216 300L292.566 326.651Z" fill="#F1EAD8"/>
<path d="M351.326 117.511H363.38L400 154.131V149.556L364.719 114.275H352.666L344.142 105.752H294.248V55.858L285.725 47.334V35.281L250.444 0H245.869L282.489 36.62V48.674V48.675H282.49L291.013 57.198V108.987H342.802L351.325 117.51V117.511H351.326Z" fill="#F1EAD8"/>
<path d="M356.372 105.327H356.373H367.696L400 137.631V133.056L369.036 102.091H357.712L349.706 94.085H305.915V50.294L297.909 42.288V30.964L266.944 0H262.369L294.673 32.304V43.627V43.628H294.674L302.681 51.635L302.68 97.32H348.365L356.372 105.326V105.327Z" fill="#F1EAD8"/>
<path d="M345.875 130.67H358.17L400 172.5V167.925L359.51 127.434H347.215L338.521 118.741H281.259V61.479L272.565 52.785V40.49L232.075 0H227.5L269.33 41.83V54.125H269.331L278.025 62.819L278.024 121.976H337.181L345.874 130.669V130.67H345.875Z" fill="#F1EAD8"/>
<path d="M369.736 73.064H380.907L400 92.157V87.582L388.187 75.769C388.123 75.667 388.076 75.557 387.987 75.468C376.871 64.352 379.615 57.85 383.764 52.955C386.265 50.004 390.699 49.629 393.651 52.123C395.878 54.005 396.159 57.348 394.276 59.576C393.579 60.4 392.612 60.863 391.613 60.946C392.448 60.767 393.196 60.32 393.756 59.657C394.523 58.75 394.89 57.599 394.791 56.415C394.692 55.231 394.137 54.157 393.231 53.391C391.062 51.556 387.802 51.832 385.968 54.001C383.819 56.543 384.139 60.36 386.682 62.509C389.689 65.05 394.205 64.673 396.747 61.664C399.781 58.074 399.329 52.685 395.739 49.652C393.821 48.031 391.473 47.239 389.136 47.239C386.221 47.239 383.323 48.471 381.295 50.863C376.181 56.895 375.545 63.059 379.417 69.828H371.075L365.176 63.929C372.701 61.88 376.609 57.072 377.259 49.191C377.517 46.065 376.339 43.145 374.277 41.084C372.625 39.431 370.405 38.332 367.902 38.122C363.219 37.728 359.089 41.219 358.696 45.903C358.366 49.828 361.292 53.288 365.216 53.617C368.534 53.896 371.459 51.423 371.737 48.106C371.974 45.276 369.864 42.776 367.033 42.539C365.85 42.44 364.698 42.807 363.791 43.574C362.884 44.341 362.329 45.415 362.23 46.598C362.157 47.463 362.37 48.308 362.834 49.025C362.186 48.26 361.83 47.248 361.92 46.173C362.164 43.267 364.727 41.102 367.632 41.346C371.483 41.669 374.353 45.07 374.035 48.926C373.507 55.321 370.849 61.859 355.129 61.859C355.003 61.859 354.892 61.903 354.775 61.93H338.07V45.224C338.097 45.106 338.141 44.995 338.141 44.87C338.141 29.15 344.679 26.492 351.074 25.965C354.929 25.647 358.33 28.517 358.653 32.368C358.897 35.273 356.731 37.836 353.825 38.08C352.75 38.17 351.738 37.813 350.973 37.165C351.69 37.629 352.535 37.842 353.4 37.769C354.583 37.67 355.657 37.116 356.424 36.209C357.191 35.302 357.558 34.151 357.459 32.967C357.222 30.136 354.723 28.026 351.892 28.263C348.575 28.541 346.102 31.466 346.381 34.784C346.711 38.707 350.17 41.633 354.095 41.304C358.779 40.911 362.27 36.781 361.876 32.098C361.666 29.595 360.566 27.375 358.914 25.723C356.853 23.662 353.933 22.484 350.807 22.742C342.925 23.392 338.117 27.3 336.069 34.825L330.17 28.926V20.584C336.939 24.457 343.103 23.82 349.135 18.706C351.528 16.678 352.759 13.78 352.759 10.865C352.759 8.528 351.967 6.18 350.346 4.262C347.313 0.672 341.924 0.22 338.334 3.254C335.326 5.796 334.948 10.312 337.489 13.319C339.638 15.862 343.455 16.182 345.997 14.033C348.166 12.2 348.441 8.94 346.607 6.771C345.84 5.864 344.767 5.31 343.583 5.211C342.399 5.112 341.248 5.479 340.341 6.246C339.678 6.806 339.231 7.555 339.052 8.389C339.135 7.39 339.598 6.422 340.422 5.726C342.649 3.844 345.993 4.125 347.875 6.352C350.369 9.303 349.994 13.738 347.043 16.239C342.148 20.388 335.645 23.131 324.53 12.016C324.441 11.927 324.331 11.88 324.229 11.816L312.418 0H307.843L326.936 19.093V30.264L334.835 38.163V65.165H361.837L369.736 73.064Z" fill="#F1EAD8"/>
<path d="M386.698 40.512L400 53.699V49.143L389.74 38.971L396.526 22.17C397.661 22.347 398.816 22.467 400 22.467V19.232C397.394 19.232 394.911 18.706 392.642 17.763C390.371 16.826 388.243 15.442 386.4 13.599C384.557 11.757 383.173 9.62802 382.236 7.35702C381.293 5.08902 380.767 2.60502 380.767 -0.000976562H377.532C377.532 1.18302 377.651 2.33802 377.829 3.47302L361.028 10.259L350.857 2.34375e-05H346.302L359.489 13.302C359.948 13.765 360.64 13.907 361.244 13.663L378.545 6.67402C378.749 7.32902 378.989 7.96702 379.25 8.59502C379.509 9.22302 379.792 9.84502 380.11 10.452L362.934 17.744C362.334 17.999 361.945 18.588 361.948 19.24L362.029 37.971L380.76 38.053C381.412 38.056 382.001 37.667 382.256 37.067L389.548 19.891C390.155 20.21 390.776 20.492 391.405 20.751C392.033 21.012 392.671 21.251 393.326 21.456L386.337 38.757C386.093 39.361 386.235 40.053 386.698 40.512ZM379.698 34.812L365.25 34.75L365.188 20.302L381.867 13.221C382.544 14.149 383.276 15.05 384.113 15.887C384.95 16.724 385.851 17.456 386.779 18.134L379.698 34.812Z" fill="#F1EAD8"/>
<path d="M364.973 84.563H376.448L400 108.115V103.54L377.788 81.328H366.313L358.199 73.214H326.786V41.801L318.672 33.687V22.212L296.46 0H291.885L315.437 23.552V35.027L323.551 43.142V76.449H356.858L364.973 84.563Z" fill="#F1EAD8"/>
<path d="M360.318 95.801H372.01L400 123.79V119.216L373.349 92.565H361.658L353.391 84.299L315.702 84.298V46.609L307.435 38.342V26.651L280.784 0H276.21L304.199 27.99V39.682L312.466 47.949L312.467 87.533L352.051 87.534L360.318 95.801Z" fill="#F1EAD8"/>
<path d="M154.131 0H149.556L114.275 35.281V47.334L105.752 55.858V105.752H55.858L47.334 114.275H35.281L0 149.556V154.131L36.62 117.511H48.674H48.675V117.51L57.198 108.987H108.987V57.198L117.51 48.675H117.511V48.674V36.62L154.131 0Z" fill="#F1EAD8"/>
<path d="M137.631 0H133.056L102.091 30.964V42.288L94.085 50.294V94.085H50.294L42.288 102.091H30.964L0 133.056V137.631L32.304 105.327H43.628V105.326L51.635 97.32H97.32V51.635L105.326 43.628H105.327V43.627V32.304L137.631 0Z" fill="#F1EAD8"/>
<path d="M138.187 57.238V138.186H57.239L0 195.425V200L58.579 141.421H141.422V58.578L170.984 29.016L170.923 43.07C170.921 43.568 171.218 44.019 171.676 44.213L184.801 49.785C184.557 50.249 184.342 50.724 184.144 51.204C183.945 51.684 183.762 52.172 183.606 52.672L170.385 47.331C169.923 47.144 169.395 47.253 169.044 47.607L158.967 57.772L169.044 67.937C169.395 68.291 169.923 68.399 170.385 68.213L183.606 62.872C183.762 63.372 183.945 63.86 184.144 64.34C184.342 64.82 184.558 65.295 184.801 65.759L171.676 71.331C171.217 71.526 170.921 71.976 170.923 72.474L170.985 86.787L185.299 86.849C185.797 86.851 186.248 86.554 186.442 86.096L192.014 72.971C192.478 73.214 192.953 73.43 193.433 73.628C193.913 73.827 194.401 74.01 194.901 74.166L189.56 87.387C189.373 87.849 189.482 88.377 189.836 88.728L200 98.808L210.165 88.731C210.519 88.38 210.627 87.852 210.441 87.39L205.1 74.168C205.6 74.012 206.088 73.829 206.568 73.63C207.048 73.432 207.523 73.216 207.987 72.973L213.559 86.098C213.754 86.557 214.204 86.854 214.702 86.851L229.016 86.789L229.078 72.476C229.08 71.978 228.783 71.527 228.325 71.333L215.2 65.76C215.444 65.296 215.659 64.821 215.857 64.341C216.056 63.861 216.239 63.373 216.395 62.873L229.616 68.214C230.078 68.401 230.606 68.292 230.957 67.938L241.034 57.773L230.957 47.608C230.606 47.254 230.078 47.146 229.616 47.332L216.395 52.673C216.239 52.173 216.056 51.685 215.857 51.205C215.659 50.725 215.443 50.25 215.2 49.786L228.325 44.214C228.784 44.019 229.08 43.569 229.078 43.071L229.017 29.017L258.579 58.579V141.422H341.422L400 200V195.425L342.762 138.186H261.815V57.239L204.575 0H200L228.756 28.756L214.703 28.695C214.205 28.693 213.754 28.99 213.56 29.448L207.988 42.573C207.524 42.329 207.049 42.114 206.569 41.915C206.089 41.715 205.601 41.533 205.101 41.377L210.442 28.156C210.629 27.694 210.52 27.166 210.166 26.815L200 16.738L189.835 26.815C189.481 27.166 189.373 27.694 189.559 28.156L194.9 41.377C194.4 41.533 193.912 41.716 193.432 41.915C192.952 42.113 192.477 42.329 192.013 42.573L186.441 29.448C186.246 28.989 185.796 28.693 185.298 28.695L171.245 28.756L200 0H195.425L138.187 57.238ZM183.058 60.428L170.219 65.614L162.446 57.773L170.219 49.932L183.058 55.118C182.922 55.986 182.831 56.868 182.831 57.773C182.831 58.678 182.922 59.56 183.058 60.428ZM216.942 55.118L229.781 49.932L237.554 57.773L229.781 65.614L216.942 60.428C217.078 59.56 217.169 58.678 217.169 57.773C217.169 56.868 217.078 55.986 216.942 55.118ZM184.486 84.375L173.445 84.327L173.397 73.286L186.142 67.875C186.66 68.584 187.219 69.273 187.859 69.912C188.499 70.552 189.187 71.111 189.896 71.629L184.486 84.375ZM207.841 87.553L200 95.326L192.159 87.553L197.345 74.714C198.213 74.85 199.095 74.941 200 74.941C200.905 74.941 201.787 74.85 202.655 74.714L207.841 87.553ZM226.602 73.287L226.554 84.328L215.513 84.376L210.102 71.631C210.811 71.113 211.5 70.554 212.14 69.914C212.78 69.274 213.339 68.586 213.857 67.877L226.602 73.287ZM215.514 31.17L226.555 31.218L226.603 42.259L213.858 47.67C213.34 46.961 212.781 46.272 212.141 45.632C211.501 44.992 210.813 44.433 210.103 43.915L215.514 31.17ZM192.159 27.992L200 20.219L207.841 27.992L202.655 40.831C201.788 40.695 200.905 40.604 200 40.604C199.095 40.604 198.213 40.695 197.345 40.831L192.159 27.992ZM194.378 44.199C196.111 43.478 198.009 43.076 200 43.076C201.991 43.076 203.889 43.478 205.622 44.199C207.357 44.915 208.984 45.973 210.392 47.381C211.8 48.789 212.858 50.415 213.574 52.151C214.295 53.884 214.697 55.782 214.697 57.773C214.697 59.764 214.295 61.662 213.574 63.395C212.858 65.13 211.8 66.757 210.392 68.165C208.984 69.573 207.358 70.631 205.622 71.347C203.889 72.068 201.991 72.47 200 72.47C198.009 72.47 196.111 72.068 194.378 71.347C192.643 70.631 191.016 69.573 189.608 68.165C188.2 66.757 187.142 65.131 186.426 63.395C185.705 61.662 185.303 59.764 185.303 57.773C185.303 55.782 185.705 53.884 186.426 52.151C187.142 50.416 188.2 48.789 189.608 47.381C191.016 45.973 192.642 44.915 194.378 44.199ZM173.445 31.218L184.486 31.17L189.897 43.915C189.188 44.432 188.5 44.992 187.86 45.632C187.22 46.272 186.661 46.96 186.143 47.67L173.398 42.259L173.445 31.218Z" fill="#F1EAD8"/>
<path d="M172.5 0H167.925L127.435 40.49V52.785L118.741 61.479V118.741H61.479L52.785 127.434H40.49L0 167.925V172.5L41.83 130.67H54.125H54.126V130.669L62.819 121.976H121.976V62.819L130.669 54.125H130.67V41.83L172.5 0Z" fill="#F1EAD8"/>
<path d="M92.157 0H87.582L75.769 11.813C75.667 11.877 75.557 11.924 75.468 12.013C64.352 23.128 57.85 20.385 52.955 16.236C50.004 13.735 49.629 9.3 52.123 6.349C54.005 4.122 57.348 3.842 59.576 5.723C60.4 6.42 60.863 7.388 60.946 8.386C60.767 7.551 60.32 6.803 59.657 6.243C58.75 5.476 57.599 5.109 56.415 5.208C55.231 5.307 54.158 5.862 53.391 6.768C51.556 8.938 51.832 12.197 54.001 14.03C56.543 16.179 60.36 15.859 62.509 13.316C65.05 10.309 64.673 5.793 61.664 3.251C58.074 0.217 52.685 0.669 49.652 4.259C48.031 6.177 47.239 8.525 47.239 10.862C47.239 13.777 48.471 16.675 50.864 18.703C56.896 23.817 63.06 24.453 69.829 20.581V28.923L63.93 34.822C61.882 27.297 57.073 23.389 49.192 22.739C46.066 22.481 43.146 23.659 41.085 25.72C39.433 27.373 38.333 29.592 38.123 32.095C37.729 36.778 41.22 40.908 45.904 41.301C49.829 41.631 53.289 38.705 53.618 34.781C53.897 31.463 51.424 28.538 48.107 28.26C45.277 28.023 42.777 30.133 42.541 32.964C42.442 34.147 42.809 35.299 43.576 36.206C44.343 37.113 45.417 37.667 46.6 37.766C47.465 37.839 48.31 37.626 49.027 37.162C48.262 37.81 47.25 38.167 46.175 38.077C43.269 37.833 41.104 35.27 41.347 32.365C41.67 28.514 45.071 25.644 48.927 25.962C55.322 26.49 61.86 29.148 61.86 44.867C61.86 44.993 61.905 45.104 61.931 45.221V61.93H45.224C45.106 61.903 44.995 61.858 44.869 61.859C29.149 61.859 26.491 55.321 25.963 48.926C25.645 45.071 28.515 41.67 32.366 41.346C35.271 41.102 37.834 43.268 38.078 46.173C38.168 47.248 37.811 48.26 37.164 49.025C37.628 48.308 37.841 47.463 37.768 46.598C37.669 45.415 37.115 44.341 36.207 43.574C35.3 42.807 34.149 42.44 32.965 42.539C30.134 42.776 28.024 45.276 28.261 48.106C28.539 51.423 31.464 53.896 34.782 53.617C38.706 53.288 41.631 49.828 41.302 45.903C40.909 41.219 36.779 37.728 32.096 38.122C29.593 38.332 27.373 39.432 25.721 41.084C23.66 43.145 22.481 46.065 22.739 49.191C23.389 57.073 27.297 61.881 34.822 63.929L28.923 69.828H20.581C24.453 63.059 23.817 56.895 18.703 50.863C16.675 48.47 13.777 47.239 10.862 47.239C8.525 47.239 6.178 48.031 4.259 49.652C0.669 52.685 0.217 58.074 3.251 61.664C5.793 64.672 10.309 65.05 13.316 62.509C15.859 60.36 16.179 56.543 14.03 54.001C12.196 51.832 8.937 51.557 6.767 53.391C5.86 54.158 5.306 55.231 5.207 56.415C5.108 57.599 5.475 58.75 6.242 59.657C6.802 60.32 7.551 60.767 8.385 60.946C7.386 60.863 6.418 60.4 5.722 59.576C3.84 57.348 4.121 54.005 6.348 52.123C9.299 49.629 13.734 50.004 16.235 52.955C20.384 57.85 23.127 64.353 12.012 75.468C11.923 75.557 11.876 75.667 11.812 75.769L0 87.582V92.157L19.093 73.064H30.264L38.163 65.165H65.165V38.163L73.064 30.264V19.093L92.157 0Z" fill="#F1EAD8"/>
<path d="M21.456 6.674L38.757 13.663C39.362 13.907 40.053 13.765 40.512 13.302L53.699 0H49.143L38.972 10.26L22.171 3.474C22.349 2.339 22.468 1.184 22.468 0H19.233C19.233 2.606 18.707 5.089 17.764 7.358C16.827 9.629 15.443 11.757 13.6 13.6C11.757 15.442 9.629 16.827 7.358 17.764C5.089 18.706 2.606 19.232 0 19.232V22.467C1.184 22.467 2.339 22.347 3.474 22.17L10.26 38.971L0 49.144V53.7L13.302 40.513C13.765 40.054 13.907 39.362 13.663 38.758L6.674 21.455C7.329 21.251 7.968 21.011 8.595 20.75C9.223 20.491 9.844 20.208 10.452 19.89L17.744 37.066C17.999 37.666 18.588 38.055 19.24 38.052L37.971 37.97L38.052 19.239C38.055 18.587 37.666 17.998 37.066 17.743L19.89 10.451C20.209 9.844 20.491 9.223 20.75 8.594C21.012 7.968 21.252 7.329 21.456 6.674ZM34.812 20.302L34.75 34.75L20.302 34.812L13.221 18.133C14.149 17.456 15.05 16.724 15.887 15.886C16.725 15.049 17.456 14.148 18.134 13.22L34.812 20.302Z" fill="#F1EAD8"/>
<path d="M108.115 0H103.54L81.328 22.212V33.687L73.214 41.801V73.214H41.801L33.687 81.328H22.212L0 103.54V108.115L23.552 84.563H35.027H35.028H35.027L43.142 76.449H76.449V43.142L84.563 35.027V23.552L108.115 0Z" fill="#F1EAD8"/>
<path d="M123.791 0H119.216L92.566 26.651V38.342L84.299 46.609L84.298 84.298L46.609 84.299L38.342 92.565H26.651L0 119.216V123.79L27.99 95.801H39.682L47.949 87.534L87.533 87.533L87.534 47.949L95.801 39.682V27.99L123.791 0Z" fill="#F1EAD8"/>
</g>
<defs>
<clipPath id="clip0_2021_2608">
<rect width="400" height="600" fill="white"/>
</clipPath>
</defs>
</svg>
