<svg width="143" height="200" viewBox="0 0 143 200" fill="none" xmlns="http://www.w3.org/2000/svg">
<path d="M15.7468 199.476C7.32771 199.497 0.452444 192.766 0.434493 184.497L6.87869e-05 15.1865C-0.0250627 6.84642 6.83944 0.0860038 15.298 0.100365L127.176 0.308592C135.599 0.322953 142.445 7.10487 142.445 15.4126V184.347C142.445 192.615 135.62 199.339 127.234 199.354L15.7468 199.476Z" fill="#C9C9C9"/>
<path d="M17.3084 198.955C8.99704 198.955 2.22949 192.217 2.22949 183.927V15.025C2.22949 6.74242 8.99704 0 17.3084 0H127.557C135.872 0 142.636 6.74242 142.636 15.025V183.927C142.636 192.217 135.872 198.955 127.557 198.955H17.3084Z" fill="#F1EAD8"/>
<path d="M127.369 195.893H17.1132C10.6688 195.893 5.43066 190.676 5.43066 184.268V15.3697C5.43066 9.19816 10.3277 4.16823 12.9557 3.20965L13.3399 3.0625L124.181 3.06968C135.142 3.92774 139.048 9.98082 139.048 15.3697V184.268C139.048 190.676 133.806 195.893 127.369 195.893ZM14.277 7.68306C13.0814 8.42265 10.0441 11.5354 10.0441 15.3697V184.268C10.0441 188.131 13.2143 191.272 17.1097 191.272H127.365C131.261 191.272 134.431 188.131 134.431 184.268V15.3697C134.431 11.0902 130.496 8.21441 123.908 7.68306H14.277Z" fill="#2C2C2C"/>
<path d="M61.5284 62.1968L56.5703 64.1642L57.7048 66.2609L77.3576 66.0204L78.7471 64.1642L74.3527 62.1968H61.5284Z" fill="#9C9C9C"/>
<path d="M74.3523 56.0571H61.5352V69.4307H74.3523V56.0571Z" fill="#FDD5B0"/>
<path opacity="0.2" d="M74.3523 58.6351V61.8914C72.7905 63.3813 71.0026 64.3363 69.1177 64.3363H66.6943C64.8417 64.3363 63.0861 63.3993 61.5352 61.9488V58.7499L62.6374 60.5092L62.9245 56.0537H72.8838L73.1747 60.5092L74.3523 58.6351Z" fill="#616161"/>
<path d="M75.0894 23.2536C75.2007 22.7151 75.3371 22.1658 75.2689 21.5986C75.0607 19.8286 71.3879 17.4734 67.9054 17.4734C63.809 17.4734 60.7286 19.5844 60.4485 21.5986C60.3265 22.471 60.6029 23.3219 60.8937 24.0973C57.2891 24.381 54.4492 27.4003 54.4385 31.0731C54.4457 34.9434 57.5835 38.0705 61.4502 38.0776C62.477 38.0776 66.1426 36.9432 66.9217 36.48L68.9897 36.4692C69.9375 37.058 73.9836 38.0705 74.9602 38.0705C79.0638 38.0705 82.3811 34.7459 82.374 30.6495C82.3811 26.6069 79.1176 23.3219 75.0894 23.2536Z" fill="#2C2C2C"/>
<path d="M69.1174 25.5728H67.9111H66.6976C60.3753 25.5728 55.2412 29.899 55.2412 35.2376C55.2412 35.2376 55.2915 48.3204 55.392 48.9379C56.268 54.5781 61.0035 63.2952 66.6976 63.2952H67.9111H69.1174C74.8115 63.2952 79.5506 54.5781 80.423 48.9379C80.5164 48.3168 80.5738 35.2376 80.5738 35.2376C80.5774 29.899 75.4434 25.5728 69.1174 25.5728Z" fill="#FDD5B0"/>
<path d="M65.1463 61.5073C65.1032 61.7227 65.0673 61.9489 65.0709 62.1895C65.0673 63.8733 66.446 65.2447 68.1334 65.2447C69.8279 65.2376 71.1958 63.8733 71.1958 62.1895C71.1958 61.8125 71.1312 61.4678 71.0127 61.1483C72.4991 61.0334 73.6767 59.7912 73.6767 58.269C73.6767 56.6677 72.3806 55.3753 70.7793 55.3753C70.3557 55.3717 68.8442 55.8455 68.5211 56.0358L67.6702 56.0394C67.2717 55.8097 65.6022 55.3788 65.2001 55.3788C63.5056 55.3788 62.1341 56.7575 62.1377 58.4377C62.1341 60.1143 63.4768 61.4714 65.1463 61.5073Z" fill="#2C2C2C"/>
<path d="M70.9776 58.2796C70.6222 58.2796 70.3386 58.1576 70.1734 58.0499L69.441 57.6083L66.4504 57.5867L65.7036 58.0499C65.4666 58.1935 65.2046 58.2581 64.9173 58.2581C64.4721 58.2581 64.2388 58.2509 63.7721 57.7985C63.054 56.9548 66.9135 51.6521 67.908 51.6521C68.9024 51.6521 72.9199 56.6317 72.1193 57.8165C71.8141 58.1073 71.4156 58.2796 70.9848 58.2796H70.9776Z" fill="#FDD5B0"/>
<path d="M60.5449 41.0823C60.308 41.3659 60.168 41.7141 60.168 42.1019C60.168 43.0928 61.1194 43.9006 62.2934 43.9006C63.471 43.9006 64.4224 43.0928 64.4224 42.1019C64.4224 41.7141 64.2788 41.3659 64.0454 41.0823H60.5449Z" fill="#2C2C2C"/>
<path opacity="0.2" d="M68.732 39.3196H67.9134H67.0877L65.9531 47.7135L67.9134 49.9646L69.8665 47.7135L68.732 39.3196Z" fill="#616161"/>
<path d="M75.2645 41.0823C75.505 41.3659 75.6486 41.7141 75.6486 42.1019C75.6486 43.0928 74.6972 43.9006 73.5196 43.9006C72.342 43.9006 71.3906 43.0928 71.3906 42.1019C71.3906 41.7141 71.5343 41.3659 71.7748 41.0823H75.2645Z" fill="#2C2C2C"/>
<g opacity="0.2">
<path d="M70.2939 54.2012H65.6123V55.3429H70.2939V54.2012Z" fill="#616161"/>
</g>
<path d="M71.1768 36.5337L77.5243 37.3128L71.1768 38.0775V36.5337Z" fill="#2C2C2C"/>
<path d="M64.6362 38.0775L58.4287 37.3128L64.6362 36.5337V38.0775Z" fill="#2C2C2C"/>
<path d="M99.9003 65.8623L95.0499 70.4075L92.9209 76.852C92.9209 76.852 100.116 75.4159 100.162 75.5954L99.9003 65.8623Z" fill="#9C9C9C"/>
<path d="M36.4268 65.8623L41.2808 70.4075L43.4098 76.852C43.4098 76.852 36.215 75.4159 36.1719 75.5954L36.4268 65.8623Z" fill="#9C9C9C"/>
<path d="M39.3419 69.427L38.6633 70.7841L37.0801 75.9504C37.0801 75.9504 46.0413 73.4553 45.632 73.7173L39.3419 69.427Z" fill="#2C2C2C"/>
<path d="M105.728 83.5909L100.885 85.0414L92.1607 87.6442L91.6042 87.8058L80.4171 91.1447L80.1048 91.2381L79.4154 91.4427L76.0012 92.4623L74.6836 92.8644L70.4255 94.1353L68.3002 94.7744L60.057 97.2373L58.3337 97.7256L57.946 97.8476L55.7954 98.4903L54.4347 98.8995L50.5322 100.063L44.6514 101.826L44.6406 100.156L44.594 95.3093L40.7201 101.862V102.992L36.6201 104.224L26.7793 107.157V93.3419L26.8116 92.6346V92.5808V92.5664L26.905 90.4949L27.2389 89.7194L29.1739 85.1203L31.1163 80.5356L33.1842 75.6206L33.9633 73.7753L34.8286 71.7145L36.2754 71.3554L38.6629 70.7918L38.785 70.7523L38.9681 70.7164L39.2589 70.6338L39.4169 70.6051L39.9267 70.483L40.6232 70.3107H40.6375L40.7094 70.2819L41.0648 70.1994L47.6061 68.6161L48.2991 68.4438L48.6006 68.3791L49.3043 68.1996L54.546 66.9431L54.6394 66.9107L55.2425 66.7599L57.2243 66.2788L57.6587 66.1711L61.5362 65.2449H74.3533L77.3906 65.9809L78.1301 66.1676L78.5502 66.2609L83.1995 67.399L87.3822 68.4078L95.1657 70.2963L95.6181 70.4076L97.4168 70.842L99.9012 71.4488L100.048 71.4739L100.982 71.7145L102.917 76.5684L104.859 81.4332L105.409 82.7687L105.728 83.5909Z" fill="#ABABAB"/>
<path opacity="0.2" d="M83.1976 67.3988L69.7127 80.8765L69.1347 81.451L66.8441 83.7451L66.8262 83.763L63.1175 87.4717L62.9236 87.6584L56.4505 94.1495L54.4579 96.1385L53.5424 97.0468L52.5515 98.0377L50.5302 100.063L44.6494 101.825L44.6387 100.156L50.6666 94.1495L51.6683 93.1335L52.3684 92.4477L54.4435 90.3511L55.079 89.7192L55.7073 89.0945L55.9765 88.8288L63.6022 81.2068L63.7206 81.0919L64.0078 80.8011L64.0186 80.7867L66.2051 78.5931L66.758 78.0366L78.5482 66.2607L83.1976 67.3988Z" fill="#F1EAD8"/>
<path opacity="0.2" d="M99.8996 71.4486L91.7929 79.5518L80.3078 91.0441L80.1031 91.2379L79.4138 91.4425L75.9996 92.4622L74.6819 92.8643L70.4239 94.1352L68.2985 94.7743L60.0554 97.2371L58.3321 97.7254L57.9443 97.8475L58.2423 97.5423L59.4702 96.3289L65.2504 90.5378L65.8356 89.9526L68.9555 86.8399L69.3218 86.4808L72.3591 83.4328L87.3805 68.4077L95.1641 70.2962L95.6165 70.4075L97.4152 70.8419L99.8996 71.4486Z" fill="#F1EAD8"/>
<path opacity="0.2" d="M80.4161 91.1447L80.1038 91.238L79.4181 91.4426L76.0002 92.4623L74.6826 92.8608L70.4245 94.1317L68.2992 94.7708L60.0596 97.2337L58.3363 97.7255L57.9486 97.8476L55.7944 98.4902L54.4373 98.8995L53.5469 97.0434L51.6729 93.1301L45.6233 80.5391L42.6937 74.4179L42.4137 73.8326L42.3993 73.8111L40.7622 70.404V70.3932L40.7119 70.2784L41.0673 70.1994L47.6087 68.616L48.3052 68.4438L48.6068 68.3791L49.3105 68.196L54.5486 66.9394L54.642 66.9071L55.2415 66.7563C57.0977 68.6592 61.4706 72.9423 66.7589 78.0332C67.7104 78.9631 68.7084 79.9073 69.7137 80.873C70.5789 81.7132 71.4585 82.5676 72.3597 83.4293C74.9877 85.9496 77.6804 88.5418 80.3048 91.0405C80.3407 91.0693 80.3802 91.1016 80.4161 91.1447Z" fill="#616161"/>
<path d="M68.2998 94.7744L60.0603 97.2372L58.3369 97.7291L57.9493 97.8512L55.7951 98.4938L54.4596 96.1423L52.3736 92.4515L45.624 80.5463L43.2293 76.3027L42.2313 74.5363L39.9299 70.4866L39.3447 69.431L40.052 69.2551L53.6159 65.866C53.7559 66.0634 54.079 66.4224 54.5493 66.9466C56.4665 68.9894 60.9111 73.4018 66.2139 78.5968C67.1653 79.5375 68.1383 80.4889 69.1435 81.4547C70.016 82.3055 70.8884 83.1744 71.7787 84.0253C74.3027 86.5025 76.9091 89.0229 79.4223 91.4463L76.0044 92.4659L74.6868 92.8644L70.4288 94.1353L68.2998 94.7744Z" fill="#2C2C2C"/>
<path d="M56.5703 64.1641L57.2237 66.2858L67.3697 72.1738L67.0717 65.2447L56.5703 64.1641Z" fill="#F9F9F9"/>
<path d="M78.7473 64.1641L78.0867 66.2858L67.9443 72.1738L68.2387 65.2447L78.7473 64.1641Z" fill="#F9F9F9"/>
<path opacity="0.2" d="M66.8461 83.7452L68.7345 85.7521C68.056 85.052 67.4133 84.3879 66.8281 83.7632C65.7044 82.6035 64.7458 81.6018 64.0134 80.8048C63.3061 80.0544 62.7927 79.5052 62.5127 79.2144L64.0206 80.7904L66.8461 83.7452Z" fill="#616161"/>
<path opacity="0.2" d="M69.3244 86.4807C71.5826 88.6061 73.8553 90.6525 76.0022 92.462L74.6846 92.8605L68.9582 86.8361L66.4235 84.1686L66.1435 83.8706L63.6052 81.2031L58.5609 75.9003L58.4316 75.7495C58.4747 75.7998 58.5178 75.8537 58.5753 75.8932C60.137 77.5016 61.8783 79.2679 63.7272 81.0882C64.5853 81.9319 65.4685 82.8043 66.3589 83.6552C66.4594 83.7486 66.5527 83.8455 66.6497 83.946C67.5328 84.7969 68.4233 85.637 69.3244 86.4807Z" fill="#616161"/>
<path opacity="0.2" d="M60.0561 97.237L58.3328 97.7252L58.243 97.5422L56.4515 94.1494L54.4446 90.3509L52.2294 86.1289L49.5547 81.4077L55.08 89.7191L57.3886 93.2016L59.4709 96.3287L60.0561 97.237Z" fill="#616161"/>
<path opacity="0.2" d="M70.4245 94.135L68.2991 94.7741L66.7302 92.3902L65.251 90.5377L62.9245 87.6583L61.8008 86.2725L63.1184 87.4716L65.8362 89.9525L70.4245 94.135Z" fill="#616161"/>
<path opacity="0.2" d="M44.5948 95.3088L40.7209 101.861V102.992L36.6209 104.223L33.6338 103.617L37.7446 101.739L44.5948 95.3088Z" fill="#616161"/>
<path opacity="0.2" d="M105.728 83.5907L100.885 85.0412L92.1607 87.6441L91.6042 87.8056L91.0801 81.2607L91.7945 79.5517L92.9219 76.8519L95.6181 70.4075L97.4168 70.8419L99.9012 71.4486L100.048 71.4738L100.982 71.7143L102.917 76.5683L104.859 81.433L105.409 82.7686L105.728 83.5907Z" fill="#616161"/>
<path d="M100.886 85.0413L92.1583 87.6442L92.1152 81.4511L94.3448 77.0027L94.5745 76.5217L97.4144 70.842L99.8988 65.8623C99.8988 65.8623 106.228 73.8362 106.419 73.689C106.462 73.689 106.645 74.6296 106.893 76.0693C107.18 77.8285 107.589 80.3668 107.984 82.923L105.948 83.5154L105.726 83.5872L100.886 85.0413Z" fill="#ABABAB"/>
<path opacity="0.2" d="M44.7681 81.9569L44.5922 92.9609L29.5922 90.4263C29.5922 90.4263 29.5742 89.8195 29.6676 89.2127L33.9615 73.7748L34.8268 71.714L38.7796 70.7518L38.9627 70.7123L39.2535 70.6334L39.4115 70.6011L44.7681 81.9569Z" fill="#616161"/>
<path d="M44.5932 94.2321L30.4262 92.9612L26.8109 92.6344H26.8037C26.8037 92.6344 26.8037 92.6129 26.8109 92.577C26.8109 92.577 26.8109 92.577 26.8109 92.5626C26.8504 92.279 27.0155 91.2127 27.2381 89.7156C28.0352 84.4057 29.6507 73.6853 29.8195 73.6853C30.0277 73.8325 36.3393 65.8586 36.3393 65.8586L36.3824 65.952L38.7842 70.7485L44.1265 81.4473L44.5932 94.2321Z" fill="#ABABAB"/>
<path opacity="0.2" d="M108.001 82.9087H107.986L105.958 83.5082L105.739 83.6016L104.712 83.8924L103.552 84.2335L100.892 85.0305L102.92 76.5791L103.412 74.4968L99.9189 65.8623C100.285 66.3254 106.134 73.6818 106.428 73.6818C106.475 73.6818 106.611 74.5004 106.844 75.7534C106.877 75.8467 106.891 75.9616 106.906 76.0693C106.92 76.1878 106.952 76.3134 106.967 76.4463C107.056 77.0207 107.171 77.6454 107.272 78.3455C107.304 78.622 107.347 78.8912 107.412 79.1892C107.412 79.2826 107.444 79.3867 107.458 79.5123C107.534 79.9862 107.609 80.4781 107.688 80.9951C107.703 81.0884 107.703 81.1782 107.717 81.2392C107.832 81.8065 107.904 82.3594 108.001 82.9087Z" fill="#F1EAD8"/>
<path opacity="0.2" d="M36.3825 65.9772L32.9215 74.4968L33.1835 75.6026L36.1706 88.0535L30.4335 92.9757L29.1697 94.0563C29.1697 94.0563 27.31 101.614 27.091 101.861C27.0443 101.915 26.951 101.894 26.7822 101.826V93.3634L26.8109 92.6382C26.8109 92.6382 26.8109 92.6059 26.8109 92.5844V92.5807L26.9043 90.4769L27.213 89.7983L27.2417 89.7122V89.6655C27.7946 86.0537 28.703 79.9719 29.2918 76.4499C29.3384 76.1914 29.3671 75.9437 29.4138 75.7319C29.6328 74.4681 29.7836 73.6854 29.8303 73.6854C30.1391 73.6854 36.3537 65.866 36.3537 65.866H36.4291L36.3825 65.9772Z" fill="#F1EAD8"/>
<path d="M67.9052 23.0454L59.3748 25.5729L54.6143 32.021V42.7485L56.1545 43.6568L56.4237 32.5056C56.4237 32.5056 56.6966 28.6318 60.0355 28.6318C63.3708 28.6318 67.9124 30.9618 67.9124 30.9618C67.9124 30.9618 72.5186 28.6318 75.7785 28.6318C79.0492 28.6318 79.3975 32.5056 79.3975 32.5056L79.6596 43.6568L81.2034 42.7485L82.1907 32.5882L77.527 25.5729L67.9052 23.0454Z" fill="#2C2C2C"/>
<path d="M31.5939 83.7164C31.2851 85.5977 30.1327 86.9548 29.0233 86.7681C28.6427 86.7107 28.3196 86.4522 28.0719 86.1075L28.7145 89.9167L27.2354 89.6726C27.7882 86.0537 28.7002 79.979 29.2818 76.457C29.35 76.3816 29.3752 76.335 29.3752 76.335C29.3752 76.335 31.8129 82.4276 31.5939 83.7164Z" fill="#2C2C2C"/>
<path opacity="0.2" d="M53.2267 70.4074C53.18 70.1848 53.1118 69.973 53.0077 69.7683C52.3076 68.2928 50.412 67.5891 48.7246 68.1743C46.9725 68.7595 45.9924 70.5007 46.6099 72.1128C46.7499 72.4754 46.9545 72.7842 47.2094 73.0606C45.5579 73.8074 44.6389 75.6563 45.2061 77.3258C45.8416 79.1568 47.9706 79.9753 49.877 79.1388C50.3797 78.9198 51.8803 77.6273 52.1496 77.2504L51.507 82.1941L56.9031 79.584L53.0867 76.8483C53.6252 76.9129 55.6106 76.5862 56.0306 76.3816C57.7575 75.624 58.4038 73.6673 57.5601 72.0661C56.7631 70.5402 54.8602 69.8222 53.2267 70.4074Z" fill="#616161"/>
<path d="M53.1461 71.0142C53.0959 70.788 53.0348 70.5583 52.9415 70.3393C52.2665 68.7524 50.414 68.0128 48.8235 68.695C47.233 69.3735 46.4898 71.2117 47.172 72.8129C47.3192 73.154 47.5167 73.4592 47.7644 73.7105C46.4073 74.4214 45.8005 76.0692 46.4145 77.4981C47.0571 79.006 48.802 79.6918 50.3063 79.0635C50.7084 78.8912 51.9434 77.8392 52.1696 77.5305L51.6777 81.4869L56.1799 79.5554L52.9738 77.1787C53.437 77.2505 55.1782 76.9668 55.5623 76.8088C57.1636 76.1303 57.896 74.2742 57.2174 72.6837C56.5425 71.1076 54.7222 70.368 53.1461 71.0142Z" fill="#E3B605"/>
<path opacity="0.2" d="M52.8718 78.0652L54.6418 79.3684L52.6025 80.2408L52.8718 78.0652ZM49.1416 78.5319C48.2548 78.5319 47.4613 78.0077 47.1167 77.1927C46.6715 76.1516 47.1059 74.913 48.1148 74.3924L49.0159 73.9185L48.3194 73.1789C48.1363 72.985 47.982 72.7588 47.8743 72.5111C47.368 71.3156 47.9281 69.9154 49.1236 69.4055C49.4216 69.2727 49.7375 69.2009 50.0571 69.2009C51.0085 69.2009 51.863 69.7682 52.2292 70.6406C52.301 70.7914 52.3441 70.9421 52.3907 71.1611L52.5774 72.0695L53.4319 71.7176C53.7227 71.6027 54.0207 71.5453 54.333 71.5453C55.2809 71.5453 56.1353 72.1054 56.5087 72.9778C56.7565 73.563 56.7636 74.2093 56.5266 74.7945C56.2969 75.3797 55.8445 75.8428 55.2629 76.087C55.008 76.1947 53.712 76.4101 53.1591 76.4101L51.5506 77.0671C51.3639 77.3004 50.2869 78.2087 50.0068 78.3416C49.7304 78.4601 49.436 78.5319 49.1416 78.5319Z" fill="#616161"/>
<path opacity="0.2" d="M108 82.9085C107.918 82.4094 107.842 81.9068 107.749 81.4078C107.738 81.336 107.728 81.2605 107.717 81.1959C107.71 81.1241 107.702 81.0703 107.695 80.9949C107.616 80.4743 107.541 79.986 107.466 79.5121C107.451 79.3865 107.419 79.286 107.419 79.189C107.358 78.891 107.315 78.6218 107.279 78.3453C107.175 77.6452 107.063 77.0205 106.974 76.4461C106.959 76.3132 106.927 76.1876 106.913 76.0691C106.898 75.9614 106.884 75.8465 106.852 75.7532C106.618 74.4966 106.482 73.6816 106.435 73.6816C106.144 73.6816 100.296 66.3253 99.926 65.8621L99.9476 65.9196C99.9297 65.9016 99.9045 65.8621 99.9045 65.8621L95.1655 70.2925L87.3819 68.4076L83.1992 67.3988L78.5535 66.2642L78.1335 66.1709V66.1565L78.7474 64.1675L74.353 62.1965V60.8466C77.5231 57.8559 79.8388 52.7112 80.424 48.9414C80.4671 48.6758 80.4994 46.0298 80.5245 43.1468L81.1995 42.7519L82.1868 32.5916L82.1186 32.4982C82.2694 31.8987 82.3771 31.2955 82.3735 30.6529C82.3771 26.6103 79.1171 23.3253 75.0889 23.2571C75.2002 22.7185 75.3367 22.1692 75.2684 21.6019C75.0602 19.8319 71.391 17.4768 67.9121 17.4768V94.8819L68.2962 94.7813L70.4217 94.1422L74.6796 92.8713L75.9973 92.4728L79.4151 91.4532L80.1009 91.2485L80.4132 91.1552L91.6039 87.8163L92.1569 87.6511L100.885 85.0483L104.942 83.8383L105.739 83.6121L105.868 83.5547L105.95 83.5224L107.986 82.93C107.986 82.93 107.986 82.93 107.982 82.9156H108V82.9085Z" fill="#616161"/>
<path d="M73.245 137.799L78.2139 135.839L77.0758 133.742L57.4193 133.983L56.0371 135.839L60.4279 137.799H73.245Z" fill="#9C9C9C"/>
<path d="M73.2402 130.576H60.4268V143.949H73.2402V130.576Z" fill="#FDD5B0"/>
<path opacity="0.2" d="M60.4268 141.364V138.111C61.9885 136.618 63.7765 135.667 65.6613 135.667H68.0811C69.9373 135.667 71.6929 136.596 73.2402 138.043V141.253L72.1381 139.494L71.8472 143.946H61.8952L61.6044 139.494L60.4268 141.364Z" fill="#616161"/>
<path d="M59.6931 176.75C59.5818 177.288 59.4382 177.838 59.51 178.405C59.7219 180.178 63.3874 182.534 66.8699 182.534C70.9628 182.534 74.0468 180.422 74.3232 178.405C74.4453 177.529 74.1689 176.682 73.8853 175.91C77.4898 175.622 80.3297 172.607 80.3405 168.934C80.3369 165.064 77.1918 161.937 73.3252 161.929C72.2984 161.915 68.6399 163.064 67.8608 163.527H65.7857C64.8379 162.953 60.7953 161.937 59.8116 161.937C55.7116 161.937 52.3942 165.261 52.4014 169.354C52.3942 173.396 55.6541 176.678 59.6931 176.75Z" fill="#2C2C2C"/>
<path d="M65.6602 174.419H66.8665H68.0764C74.406 174.419 79.5328 170.108 79.5328 164.751C79.5328 164.751 79.4861 151.679 79.3856 151.058C78.506 145.421 73.7705 136.711 68.0764 136.711H66.8665H65.6602C59.9625 136.711 55.227 145.418 54.3546 151.058C54.254 151.683 54.2002 164.751 54.2002 164.751C54.2002 170.108 59.3342 174.419 65.6602 174.419Z" fill="#FDD5B0"/>
<path d="M69.6313 138.492C69.6744 138.284 69.7067 138.051 69.7031 137.814C69.7103 136.13 68.3352 134.762 66.6442 134.762C64.9533 134.762 63.5818 136.13 63.5818 137.814C63.5818 138.187 63.65 138.528 63.7649 138.851C62.2714 138.962 61.1009 140.212 61.0938 141.734C61.0973 143.325 62.397 144.624 63.9911 144.624C64.4183 144.624 65.9262 144.161 66.2529 143.964H67.1109C67.4987 144.193 69.1681 144.624 69.5738 144.624C71.272 144.624 72.6399 143.249 72.6399 141.558C72.6435 139.878 71.2936 138.525 69.6313 138.492Z" fill="#2C2C2C"/>
<path d="M63.8012 141.724C64.1567 141.724 64.4367 141.842 64.6054 141.953L65.3343 142.395L68.3321 142.402L69.0753 141.953C69.3087 141.806 69.5743 141.727 69.8579 141.727C70.3067 141.727 70.5401 141.742 71.0068 142.205C71.732 143.045 67.8653 148.348 66.8709 148.348C65.8728 148.348 61.859 143.368 62.6596 142.183C62.9612 141.882 63.3669 141.72 63.7905 141.72H63.8012V141.724Z" fill="#FDD5B0"/>
<path d="M74.2336 158.924C74.4705 158.637 74.6106 158.278 74.6106 157.901C74.6106 156.914 73.6591 156.099 72.4815 156.099C71.3004 156.099 70.3525 156.914 70.3525 157.901C70.3525 158.278 70.4926 158.637 70.7331 158.924H74.2336Z" fill="#2C2C2C"/>
<path opacity="0.2" d="M66.0496 160.683H66.8717H67.6939L68.8284 152.289L66.8717 150.038L64.915 152.289L66.0496 160.683Z" fill="#616161"/>
<path d="M59.5098 158.924C59.2729 158.637 59.1328 158.278 59.1328 157.901C59.1328 156.914 60.0843 156.099 61.2583 156.099C62.4394 156.099 63.3873 156.914 63.3873 157.901C63.3873 158.278 63.2508 158.637 63.0103 158.924H59.5098Z" fill="#2C2C2C"/>
<g opacity="0.2">
<path d="M69.1689 144.65H64.4873V145.806H69.1689V144.65Z" fill="#616161"/>
</g>
<path d="M63.5978 163.47L57.2539 162.69L63.5978 161.926V163.47Z" fill="#2C2C2C"/>
<path d="M70.1387 161.926L76.3498 162.69L70.1387 163.47V161.926Z" fill="#2C2C2C"/>
<path d="M34.877 134.141L39.731 129.596L41.86 123.155C41.86 123.155 34.6616 124.591 34.6221 124.412L34.877 134.141Z" fill="#9C9C9C"/>
<path d="M98.3551 134.141L93.5011 129.596L91.3721 123.155C91.3721 123.155 98.5669 124.591 98.61 124.412L98.3551 134.141Z" fill="#9C9C9C"/>
<path d="M95.4378 130.576L96.1093 129.219L97.6997 124.052C97.6997 124.052 88.7385 126.551 89.1442 126.286L95.4378 130.576Z" fill="#2C2C2C"/>
<path d="M29.0547 116.402L33.8943 114.962L42.6185 112.363L43.175 112.198L54.3693 108.862L54.6745 108.751L55.3566 108.557L58.7745 107.541L60.0957 107.143L64.3573 105.868L66.4755 105.233L74.7222 102.77L76.4455 102.271L76.8333 102.159L78.9802 101.513L80.3409 101.104L84.2506 99.9406L90.1279 98.1813L90.1422 99.8472L90.1817 104.698L94.0555 98.1418V97.0145L98.1592 95.7831L108 92.8499V106.661L107.968 107.372V107.426V107.441L107.867 109.508L107.537 110.28L105.602 114.887L103.659 119.468L101.595 124.386L100.816 126.228L99.9507 128.293L98.5002 128.644L96.1092 129.215L95.9978 129.247L95.8111 129.287L95.5132 129.366L95.3624 129.391L94.8526 129.524L94.1561 129.693H94.1453L94.0699 129.721L93.7145 129.808L87.1731 131.391L86.4802 131.56L86.175 131.624L85.4677 131.804L80.2332 133.064L80.1399 133.082L79.5403 133.247L77.5549 133.724L77.1169 133.832L73.2394 134.762H60.426L57.3851 134.022L56.6455 133.839L56.229 133.742L51.5797 132.608L47.3971 131.585L39.6099 129.703L39.1612 129.596L37.3624 129.161L34.878 128.555L34.7308 128.529L33.7937 128.293L31.8586 123.442L29.9163 118.574L29.3706 117.235L29.0547 116.402Z" fill="#ABABAB"/>
<path opacity="0.2" d="M51.5811 132.608L65.0623 119.127L65.6403 118.552L67.9345 116.262L67.956 116.233L71.6611 112.532L71.8514 112.341L78.3282 105.857L80.3207 103.868L81.2362 102.96L82.2235 101.969L84.252 99.9406L90.1292 98.1814L90.1436 99.8473L84.1084 105.857L83.1103 106.873L82.4102 107.559L80.335 109.652L79.7032 110.28L79.0677 110.912L78.8021 111.167L71.1764 118.8L71.0579 118.915L70.7708 119.206L70.76 119.217L68.5771 121.414L68.017 121.967L56.2304 133.742L51.5811 132.608Z" fill="#F1EAD8"/>
<path opacity="0.2" d="M34.8779 128.554L42.9846 120.451L54.4697 108.959L54.6744 108.751L55.3566 108.557L58.7744 107.541L60.0956 107.142L64.3572 105.868L66.4755 105.232L74.7222 102.77L76.4455 102.27L76.8332 102.159L76.528 102.457L75.3074 103.678L69.5307 109.454L68.9347 110.04L65.822 113.163L65.4522 113.526L62.4149 116.57L47.397 131.585L39.6099 129.703L39.1611 129.596L37.3624 129.161L34.8779 128.554Z" fill="#F1EAD8"/>
<path opacity="0.2" d="M54.3682 108.862L54.6769 108.754L55.3591 108.557L58.7769 107.541L60.0982 107.146L64.3598 105.871L66.478 105.236L74.7247 102.773L76.448 102.27L76.8357 102.159L78.9863 101.513L80.3434 101.104L81.2374 102.963L83.1114 106.877L89.161 119.467L92.0906 125.589L92.3706 126.174L92.3814 126.188L94.0257 129.599V129.613L94.0759 129.725L93.7205 129.807L87.1792 131.391L86.4862 131.559L86.1811 131.624L85.4738 131.807L80.2393 133.067L80.1459 133.085L79.5464 133.25C77.6974 131.344 73.3138 127.064 68.0218 121.97C67.0704 121.044 66.0758 120.099 65.067 119.13C64.2018 118.279 63.3257 117.439 62.421 116.574C59.8001 114.057 57.1003 111.461 54.4759 108.962C54.4364 108.934 54.3969 108.894 54.3682 108.862Z" fill="#616161"/>
<path d="M66.4754 105.233L74.7221 102.77L76.4454 102.267L76.8331 102.156L78.9836 101.51L80.3228 103.865L82.4123 107.555L89.1619 119.457L91.5566 123.697L92.5547 125.456L94.856 129.517L95.4448 130.569L94.7375 130.748L81.1737 134.134C81.0301 133.94 80.7141 133.581 80.2402 133.057C78.3231 131.007 73.8819 126.591 68.5828 121.407C67.6278 120.466 66.6513 119.5 65.646 118.545C64.7772 117.683 63.8976 116.829 63.0144 115.971C60.4869 113.497 57.8839 110.977 55.3672 108.55L58.7851 107.534L60.1063 107.139L64.3679 105.864L66.4754 105.233Z" fill="#2C2C2C"/>
<path d="M78.2141 135.839L77.5571 133.721L67.4111 127.83L67.7055 134.762L78.2141 135.839Z" fill="#F9F9F9"/>
<path d="M56.0371 135.839L56.6941 133.721L66.8401 127.83L66.5457 134.762L56.0371 135.839Z" fill="#F9F9F9"/>
<path opacity="0.2" d="M67.9324 116.262L66.0439 114.255C66.7189 114.941 67.3652 115.616 67.9504 116.23C69.0741 117.396 70.0291 118.405 70.7651 119.202C71.476 119.953 71.9858 120.487 72.2658 120.789L70.7579 119.213L67.9324 116.262Z" fill="#616161"/>
<path opacity="0.2" d="M65.4532 113.526C63.2021 111.397 60.9223 109.354 58.7754 107.541L60.0966 107.146L65.823 113.167L68.3613 115.831L68.6413 116.133L71.1796 118.804L76.2202 124.106L76.3495 124.243C76.3064 124.203 76.2669 124.149 76.2131 124.11C74.6513 122.502 72.9101 120.735 71.0611 118.919C70.203 118.075 69.3163 117.199 68.4259 116.348C68.3326 116.255 68.2356 116.158 68.1351 116.061C67.2447 115.206 66.3579 114.355 65.4532 113.526Z" fill="#616161"/>
<path opacity="0.2" d="M74.7246 102.77L76.4479 102.271L76.5305 102.457L78.3292 105.857L80.3361 109.652L82.5477 113.878L85.226 118.599L79.7042 110.281L77.3885 106.805L75.3098 103.678L74.7246 102.77Z" fill="#616161"/>
<path opacity="0.2" d="M64.3574 105.868L66.4757 105.232L68.0518 107.616L69.531 109.454L71.8502 112.341L72.974 113.73L71.66 112.531L68.935 110.04L64.3574 105.868Z" fill="#616161"/>
<path opacity="0.2" d="M90.1826 104.698L94.0564 98.142V97.0147L98.1601 95.7832L101.147 96.39L97.0399 98.2641L90.1826 104.698Z" fill="#616161"/>
<path opacity="0.2" d="M29.0547 116.402L33.8943 114.962L42.6185 112.363L43.175 112.198L43.6992 118.743L42.9847 120.452L41.861 123.155L39.1612 129.596L37.3624 129.161L34.878 128.555L34.7308 128.53L33.7937 128.293L31.8586 123.442L29.9163 118.574L29.3706 117.235L29.0547 116.402Z" fill="#616161"/>
<path d="M33.8947 114.962L42.6225 112.363L42.662 118.552L40.4361 123L40.1992 123.481L37.3629 129.161L34.8784 134.141C34.8784 134.141 28.5489 126.171 28.3586 126.314C28.3155 126.314 28.136 125.374 27.8883 123.937C27.5975 122.178 27.1918 119.64 26.7969 117.084L28.8289 116.477L29.0587 116.402L33.8947 114.962Z" fill="#ABABAB"/>
<path opacity="0.2" d="M90.0146 118.046L90.1798 107.042L105.183 109.58C105.183 109.58 105.201 110.187 105.108 110.79L100.814 126.228L99.9488 128.293L95.9959 129.251L95.8128 129.291L95.5149 129.366L95.364 129.391L90.0146 118.046Z" fill="#616161"/>
<path d="M90.1826 105.764L104.353 107.042L107.969 107.373H107.976C107.976 107.373 107.976 107.391 107.969 107.43C107.969 107.444 107.969 107.444 107.969 107.444C107.925 107.728 107.764 108.794 107.538 110.284C106.748 115.601 105.132 126.318 104.956 126.318C104.752 126.175 98.4365 134.145 98.4365 134.145L98.3935 134.048L95.9987 129.255L90.6565 118.56L90.1826 105.764Z" fill="#ABABAB"/>
<path opacity="0.2" d="M26.7793 117.098H26.7936L28.8257 116.491L29.0412 116.398L30.0751 116.114L31.224 115.773L33.8843 114.966L31.8594 123.428L31.3604 125.51L34.8537 134.137C34.4839 133.681 28.639 126.321 28.3446 126.321C28.3016 126.321 28.1651 125.51 27.9318 124.239C27.8994 124.16 27.8851 124.042 27.8707 123.938C27.8528 123.819 27.8241 123.693 27.8097 123.55C27.7164 122.983 27.6122 122.343 27.5045 121.658C27.4722 121.381 27.4291 121.108 27.3645 120.814C27.3645 120.721 27.3322 120.617 27.3178 120.491C27.2388 120.017 27.1634 119.522 27.0881 118.994C27.0737 118.9 27.0737 118.825 27.0557 118.75C26.9516 118.2 26.8691 117.644 26.7793 117.098Z" fill="#F1EAD8"/>
<path opacity="0.2" d="M98.3946 134.026L101.859 125.506L101.597 124.401L98.6136 111.95L104.354 107.028L105.615 105.947C105.615 105.947 107.474 98.3859 107.69 98.1382C107.736 98.088 107.833 98.0987 108.002 98.1777V106.64L107.97 107.365C107.97 107.365 107.97 107.397 107.97 107.415C107.97 107.423 107.97 107.423 107.97 107.423L107.876 109.519L107.575 110.205L107.542 110.277V110.331C106.99 113.946 106.081 120.024 105.5 123.546C105.453 123.812 105.417 124.06 105.378 124.271C105.162 125.535 105.008 126.314 104.961 126.314C104.656 126.314 98.4377 134.13 98.4377 134.13H98.3623L98.3946 134.026Z" fill="#F1EAD8"/>
<path d="M66.8723 176.961L75.4027 174.423L80.1705 167.986V157.258L78.6267 156.354L78.3611 167.498C78.3611 167.498 78.0882 171.375 74.7457 171.375C71.4068 171.375 66.876 169.049 66.876 169.049C66.876 169.049 62.2697 171.375 59.0026 171.375C55.7355 171.375 55.3908 167.498 55.3908 167.498L55.1252 156.354L53.5814 157.258L52.5977 167.404L57.2614 174.423L66.8723 176.961Z" fill="#2C2C2C"/>
<path d="M103.189 116.28C103.494 114.409 104.647 113.052 105.76 113.239C106.14 113.296 106.464 113.54 106.711 113.899L106.065 110.09L107.541 110.32C106.991 113.939 106.083 120.013 105.498 123.535C105.44 123.625 105.408 123.668 105.408 123.668C105.408 123.668 102.974 117.576 103.189 116.28Z" fill="#2C2C2C"/>
<path opacity="0.2" d="M81.5483 129.596C81.6021 129.818 81.6667 130.027 81.7673 130.242C82.4745 131.71 84.3666 132.41 86.0576 131.832C87.8096 131.244 88.7862 129.502 88.1722 127.89C88.0322 127.531 87.8311 127.226 87.5727 126.943C89.2242 126.185 90.1432 124.35 89.5688 122.677C88.9405 120.846 86.8079 120.013 84.9015 120.864C84.4025 121.087 82.8982 122.372 82.6289 122.738L83.2716 117.795L77.8755 120.419L81.6847 123.151C81.1498 123.087 79.168 123.417 78.7479 123.622C77.0174 124.379 76.3748 126.336 77.2185 127.937C78.0155 129.467 79.9147 130.177 81.5483 129.596Z" fill="#616161"/>
<path d="M81.6377 128.993C81.6844 129.219 81.7418 129.438 81.8423 129.667C82.5173 131.258 84.3663 131.994 85.9567 131.315C87.5508 130.622 88.2903 128.784 87.6082 127.197C87.461 126.853 87.2635 126.551 87.023 126.3C88.3801 125.589 88.9833 123.941 88.3729 122.512C87.7303 121.004 85.9855 120.304 84.4812 120.947C84.0719 121.116 82.844 122.171 82.6142 122.48L83.1061 118.523L78.6076 120.455L81.8136 122.835C81.3504 122.763 79.602 123.044 79.2179 123.202C77.6238 123.884 76.8842 125.733 77.5735 127.323C78.2377 128.899 80.058 129.635 81.6377 128.993Z" fill="#E3B605"/>
<path opacity="0.2" d="M81.9018 121.941L80.139 120.634L82.1711 119.766L81.9018 121.941ZM85.6356 121.475C86.5224 121.475 87.3122 121.999 87.6605 122.81C88.1057 123.851 87.6712 125.083 86.6624 125.614L85.7577 126.088L86.4578 126.824C86.6409 127.014 86.7881 127.24 86.8958 127.495C87.4092 128.702 86.8491 130.084 85.6464 130.601C85.3556 130.727 85.0396 130.791 84.7201 130.791C83.7687 130.791 82.9178 130.235 82.5445 129.366C82.4762 129.215 82.4367 129.061 82.3865 128.838L82.2034 127.926L81.3417 128.274C81.0581 128.4 80.7529 128.461 80.4513 128.461C79.4963 128.461 78.6383 127.894 78.2721 127.029C78.0208 126.443 78.01 125.797 78.2469 125.212C78.4839 124.623 78.9327 124.164 79.5179 123.919C79.7728 123.812 81.0725 123.596 81.6289 123.596L83.2338 122.939C83.4133 122.706 84.494 121.783 84.7812 121.665C85.054 121.532 85.3412 121.475 85.6356 121.475Z" fill="#616161"/>
<path opacity="0.2" d="M26.7793 117.098C26.8583 117.597 26.9373 118.1 27.0306 118.599C27.045 118.671 27.0521 118.743 27.0629 118.807C27.0737 118.868 27.0773 118.933 27.0881 118.997C27.1634 119.525 27.2388 120.021 27.3178 120.495C27.3322 120.62 27.3645 120.724 27.3645 120.818C27.4255 121.112 27.4686 121.385 27.5045 121.661C27.6122 122.347 27.7164 122.986 27.8097 123.553C27.8241 123.693 27.8528 123.819 27.8707 123.941C27.8851 124.045 27.8994 124.16 27.9318 124.243C28.1651 125.514 28.3016 126.325 28.3446 126.325C28.639 126.325 34.4839 133.685 34.8537 134.141L34.8286 134.087C34.8465 134.109 34.8753 134.144 34.8753 134.144L39.6071 129.711L47.3943 131.588L51.5769 132.612L56.2262 133.746L56.6427 133.839H56.6499L56.0288 135.843L60.4232 137.799V139.156C57.2531 142.151 54.9373 147.292 54.3521 151.054C54.309 151.327 54.2696 153.973 54.248 156.853L53.5767 157.251L52.593 167.397L52.6612 167.508C52.5068 168.09 52.4026 168.708 52.4026 169.347C52.3991 173.393 55.659 176.674 59.6944 176.746C59.5831 177.285 59.4395 177.834 59.5113 178.401C59.7231 180.175 63.3851 182.53 66.8605 182.53V105.114L66.4763 105.229L64.3581 105.864L60.0965 107.139L58.7753 107.534L55.3574 108.55L54.6753 108.747L54.3665 108.855L43.1722 112.194L42.6193 112.359L33.8915 114.958L29.8346 116.172L29.0375 116.394L28.9047 116.452L28.8185 116.477L26.7865 117.084C26.7865 117.084 26.7865 117.084 26.7865 117.098H26.7793Z" fill="#616161"/>
<path d="M25.2061 39.7757C25.2635 39.4777 25.3066 39.1904 25.2994 38.8745C25.303 36.6809 23.5151 34.9001 21.3179 34.9001C19.1171 34.9109 17.3399 36.6809 17.3399 38.8745C17.3399 39.3592 17.4225 39.8008 17.5769 40.2173C15.6345 40.3824 14.1123 41.998 14.1123 43.9798C14.1123 46.0477 15.7961 47.7352 17.8749 47.7352C18.4278 47.7352 20.3988 47.1284 20.8116 46.8771L18.2662 51.25H24.4737L21.9246 46.8771C22.438 47.1859 24.6101 47.7352 25.1379 47.7352C27.3422 47.7352 29.123 45.9473 29.1194 43.7536C29.1266 41.5744 27.3745 39.7972 25.2061 39.7757Z" fill="#2C2C2C"/>
<path d="M32.8146 83.9999C32.5238 85.9135 31.1846 87.2814 29.8167 87.0731C29.49 87.0157 28.2119 86.3335 27.9391 86.0319L28.9515 90.0458L27.2139 89.7945L27.2426 89.7083V89.6616C27.7955 86.0499 28.7038 79.9681 29.2926 76.4461C29.3393 76.1876 29.368 75.9399 29.4146 75.728C30.6174 76.0763 31.3534 77.6775 31.077 79.4367C31.0482 79.706 30.9692 79.9573 30.8938 80.2014C32.233 80.4312 33.0946 82.1258 32.8146 83.9999Z" fill="#2C2C2C"/>
<path d="M107.999 82.9087H107.985L105.957 83.5083L105.738 83.6016L104.711 83.8924L103.551 84.2335C103.537 84.1581 103.522 84.0755 103.504 84.0001C103.228 82.1296 104.097 80.4315 105.429 80.2017C105.35 79.9576 105.278 79.7062 105.246 79.437C104.966 77.7173 105.677 76.1412 106.847 75.7534C106.879 75.8468 106.894 75.9616 106.908 76.0693C106.922 76.1878 106.955 76.3135 106.969 76.4463C107.059 77.0207 107.174 77.6455 107.274 78.3456C107.306 78.622 107.35 78.8913 107.414 79.1893C107.414 79.2826 107.447 79.3867 107.461 79.5124C107.536 79.9863 107.612 80.4781 107.691 80.9951C107.705 81.0884 107.705 81.1782 107.719 81.2393C107.831 81.8065 107.902 82.3594 107.999 82.9087Z" fill="#2C2C2C"/>
<path opacity="0.2" d="M25.206 39.7757C25.2634 39.4777 25.3065 39.1904 25.2993 38.8745C25.3029 36.6809 23.515 34.9001 21.3178 34.9001C21.3178 34.9001 21.3106 34.9109 21.2998 34.9109V51.25H24.4736L21.9245 46.8771C22.4379 47.1859 24.61 47.7352 25.1377 47.7352C27.3421 47.7352 29.1229 45.9473 29.1193 43.7536C29.1265 41.5744 27.3744 39.7972 25.206 39.7757Z" fill="#616161"/>
<path d="M120.684 158.903C120.626 159.197 120.583 159.485 120.594 159.793C120.587 161.987 122.375 163.768 124.568 163.768C126.769 163.768 128.553 162.001 128.553 159.793C128.553 159.316 128.467 158.867 128.313 158.447C130.255 158.3 131.777 156.681 131.781 154.702C131.777 152.62 130.09 150.943 128.015 150.943C127.462 150.929 125.498 151.554 125.074 151.798L127.627 147.421L121.412 147.429L123.961 151.798C123.448 151.489 121.276 150.943 120.752 150.943C118.547 150.943 116.763 152.731 116.767 154.925C116.77 157.108 118.522 158.867 120.684 158.903Z" fill="#2C2C2C"/>
<path opacity="0.2" d="M120.684 158.903C120.626 159.197 120.583 159.484 120.594 159.793C120.587 161.987 122.375 163.768 124.568 163.768C124.579 163.768 124.586 163.768 124.586 163.768V147.428H121.412L123.961 151.798C123.448 151.489 121.276 150.943 120.752 150.943C118.547 150.943 116.763 152.731 116.767 154.925C116.77 157.108 118.522 158.867 120.684 158.903Z" fill="#616161"/>
<path d="M20.0659 14.8248H26.7547V15.2159H25.6228V24.1068C25.6228 25.9591 25.2043 27.3106 24.3673 28.1612C23.5304 28.9982 22.275 29.4167 20.601 29.4167C19.4897 29.4167 18.6047 29.204 17.9461 28.7787C17.3012 28.3533 16.9788 27.7565 16.9788 26.9881C16.9788 26.3981 17.1435 25.9385 17.4728 25.6092C17.8021 25.2662 18.248 25.0947 18.8105 25.0947C19.3868 25.0947 19.8121 25.2388 20.0865 25.5269C20.3747 25.815 20.5187 26.1649 20.5187 26.5765C20.5187 26.9744 20.4433 27.3792 20.2923 27.7908H19.4897C19.3662 27.9966 19.3045 28.1955 19.3045 28.3876C19.3045 28.566 19.3936 28.7238 19.572 28.861C19.7641 28.9845 20.0111 29.0462 20.3129 29.0462C20.8617 29.0462 21.2116 28.8335 21.3625 28.4082C21.5272 27.9692 21.6095 27.0293 21.6095 25.5886V15.2159H20.0659V14.8248Z" fill="#2C2C2C"/>
<path d="M125.648 186.581L118.959 186.581L118.959 186.19L120.091 186.19L120.091 177.299C120.091 175.447 120.51 174.095 121.347 173.245C122.183 172.408 123.439 171.989 125.113 171.989C126.224 171.989 127.109 172.202 127.768 172.627C128.413 173.052 128.735 173.649 128.735 174.418C128.735 175.008 128.57 175.467 128.241 175.797C127.912 176.14 127.466 176.311 126.903 176.311C126.327 176.311 125.902 176.167 125.627 175.879C125.339 175.591 125.195 175.241 125.195 174.829C125.195 174.431 125.271 174.027 125.422 173.615L126.224 173.615C126.348 173.409 126.409 173.21 126.409 173.018C126.409 172.84 126.32 172.682 126.142 172.545C125.95 172.421 125.703 172.36 125.401 172.36C124.852 172.36 124.502 172.572 124.351 172.998C124.187 173.437 124.104 174.376 124.104 175.817L124.104 186.19L125.648 186.19L125.648 186.581Z" fill="#2C2C2C"/>
</svg>
