<svg width="144" height="200" viewBox="0 0 144 200" fill="none" xmlns="http://www.w3.org/2000/svg">
<path d="M15.8645 199.871C7.44939 199.886 0.578011 193.154 0.434408 184.61L0 15.3125C0.0933422 7.24554 6.95755 0.485418 15.4086 0.499779L127.29 0.707999C135.705 0.722359 142.559 7.50044 142.559 15.8151V184.739C142.559 193.004 135.734 199.735 127.337 199.742L15.8645 199.871Z" fill="#C9C9C9"/>
<path d="M17.0287 199.681C8.60279 199.696 1.73135 192.964 1.7134 184.689L1.28622 15.3917C1.2575 7.06271 8.12172 0.291815 16.5728 0.306175L128.454 0.514395C136.869 0.528756 143.723 7.30683 143.723 15.6215V184.546C143.723 192.81 136.898 199.534 128.501 199.545L17.0287 199.681Z" fill="#F1EAD8"/>
<path d="M127.48 196.282H17.2362C10.792 196.282 5.54688 191.066 5.54688 184.654V15.7582C5.54688 9.34628 10.792 4.12988 17.2362 4.12988H127.48C133.925 4.12988 139.17 9.34628 139.17 15.7582V184.65C139.17 191.062 133.925 196.282 127.48 196.282ZM17.2362 8.74315C13.3373 8.74315 10.1673 11.8845 10.1673 15.7582V184.65C10.1673 188.52 13.3373 191.665 17.2362 191.665H127.48C131.379 191.665 134.553 188.52 134.553 184.65V15.7582C134.553 11.8845 131.379 8.74315 127.48 8.74315H17.2362Z" fill="#2C2C2C"/>
<path d="M113.09 64.1159L112.785 63.082C112.785 63.082 93.7106 52.1968 87.6147 48.7396C86.4694 48.0969 85.7873 47.7092 85.7586 47.7092H58.5996C58.5888 47.7092 58.5529 47.7308 58.4775 47.7774C58.4201 47.8062 58.3555 47.842 58.2693 47.8887C58.2011 47.9282 58.1185 47.9677 58.0252 48.018C57.9498 48.0646 57.8636 48.1185 57.7703 48.1688C57.6769 48.2262 57.58 48.2836 57.4687 48.3447C57.3 48.4344 57.1277 48.5385 56.9302 48.6462C56.5604 48.8617 56.144 49.095 55.6808 49.3571C55.6701 49.3571 55.6629 49.3678 55.6629 49.3678C55.3111 49.5725 54.9449 49.7807 54.5536 50.0033C54.4207 50.0679 54.2879 50.1505 54.1479 50.2295C53.2468 50.7464 52.2344 51.3172 51.1574 51.9276C50.7696 52.1466 50.3819 52.3727 49.9834 52.6025C49.5956 52.8251 49.1864 53.0513 48.7807 53.2774C48.3822 53.5144 47.9693 53.7441 47.5493 53.9775C42.1642 57.0434 36.2298 60.4361 33.3433 62.0732C33.1818 62.1665 33.031 62.2598 32.8802 62.3424C32.1981 62.7337 31.7457 62.985 31.6309 63.0568V108.328L49.3982 102.989L53.4335 101.779L113.097 83.8542V64.1159H113.09Z" fill="#2C2C2C"/>
<path d="M72.3963 71.1491L64.9648 58.2678H79.8386L72.3963 71.1491ZM66.3829 59.09L72.3927 69.5048L78.4133 59.09H66.3829Z" fill="#E3B605"/>
<path opacity="0.2" d="M62.409 47.7092C62.2654 47.7415 35.3829 63.082 35.3829 63.082L31.624 74.7102V108.328L49.3914 102.989L53.4266 101.779L64.0461 66.9162L65.4749 62.2562L67.5464 57.8009L72.1848 47.8995V47.7092H62.409Z" fill="#616161"/>
<path d="M58.6025 47.7092C58.5917 47.7092 58.5558 47.7308 58.4804 47.7774C58.423 47.8062 58.3584 47.842 58.2722 47.8887C58.204 47.9282 58.1214 47.9677 58.0281 48.018C57.9635 48.0646 57.8665 48.1185 57.7732 48.1688C57.6799 48.2262 57.5829 48.2836 57.4716 48.3447C57.3029 48.4344 57.1306 48.5385 56.9331 48.6462C56.5633 48.8545 56.1469 49.0914 55.6838 49.3571C55.673 49.3571 55.6658 49.3678 55.6658 49.3678C55.314 49.5653 54.9478 49.7735 54.5565 50.0033C54.4236 50.0679 54.2908 50.1505 54.1508 50.2295C53.2497 50.7428 52.2373 51.3137 51.1602 51.9276C50.7725 52.1466 50.3848 52.3727 49.9863 52.6025C49.5878 52.8251 49.1893 53.0477 48.7836 53.2774C48.3851 53.5036 47.9723 53.7405 47.5522 53.9775C45.8218 54.9719 44.0232 55.9844 42.2892 56.9824C41.7758 57.2696 41.248 57.5676 40.7562 57.8548C37.7262 59.5816 35.0193 61.1254 33.3463 62.0767C33.1847 62.1701 33.0339 62.2634 32.8831 62.346C32.201 62.7373 31.7487 62.9886 31.6338 63.0604V108.331L34.7966 107.376L36.5773 106.849L49.2073 103.05L49.4047 102.993C50.0006 101.596 50.6145 100.107 51.2608 98.5628C55.5186 88.3238 60.7063 75.3672 64.0559 66.9162C66.1489 61.6639 67.531 58.1564 67.531 58.1564L67.5598 57.8009L68.468 47.7092H58.6025Z" fill="#F9F9F9"/>
<path opacity="0.2" d="M113.089 76.7603L108.971 63.0821C108.971 63.0821 82.0961 47.7489 81.9561 47.7058H72.1875V47.8997L78.8901 62.2528L87.6176 92.0469L113.093 82.8168V76.7603H113.089Z" fill="#616161"/>
<path d="M113.09 64.1197L112.777 63.0821C112.777 63.0821 85.902 47.7489 85.762 47.7058H75.9072L76.8442 58.1565C76.8442 58.1565 88.4402 82.2173 92.558 90.0257L113.09 83.858V64.1197Z" fill="#F9F9F9"/>
<path d="M87.8713 41.0571L87.5949 37.3808L87.5841 37.2516L86.744 26.0039L82.5688 23.8893L74.5019 19.8074L72.2688 21.0101L70.0358 19.8074L61.9725 23.8893L57.7972 26.0039L56.9535 37.2516L56.9428 37.3808L56.6699 41.0571L60.0195 52.2222L72.2509 62.2817V62.3068L72.2688 62.296L72.2904 62.3068V62.2817L85.4014 51.5796L87.8713 41.0571Z" fill="#FDD5B0"/>
<path d="M72.2903 47.7059L77.2303 47.5299L73.5397 45.2072C73.5397 45.2072 72.9437 45.2 72.2903 45.1892C72.2795 45.1892 72.2795 45.1892 72.2723 45.1892C72.2616 45.1892 72.2616 45.1892 72.2544 45.1892C71.601 45.1964 71.0159 45.2072 71.0159 45.2072L67.3145 47.5299L72.2544 47.7059H72.2723H72.2903Z" fill="#FDD5B0"/>
<path opacity="0.2" d="M75.281 40.6369L73.2526 33.6003H72.2904H72.2509H71.2852L69.2676 40.6369L71.2852 42.8125L72.2509 42.8448H72.2689H72.2904L73.2526 42.8125L75.281 40.6369Z" fill="#616161"/>
<path d="M74.4092 31.7193L80.7636 30.9188L80.9037 30.8972L80.9719 30.9367L83.9983 32.5415L80.6954 31.6224L80.9037 31.6404L74.7395 33.3744L74.4092 31.7193Z" fill="#9C9C9C"/>
<path d="M76.6362 34.3723C76.532 34.5985 76.4746 34.8498 76.4746 35.1155C76.4746 36.1027 77.2824 36.9105 78.266 36.9105C79.2605 36.9105 80.0647 36.1063 80.0647 35.1155C80.0647 34.8498 80.0072 34.5985 79.9031 34.3723H76.6362Z" fill="#2C2C2C"/>
<path d="M70.1301 31.7193L63.7792 30.9188L63.6392 30.8972L63.571 30.9367L60.541 32.5415L63.8367 31.6224L63.6392 31.6404L69.7998 33.3744L70.1301 31.7193Z" fill="#9C9C9C"/>
<path d="M67.9061 34.3723C68.0102 34.5985 68.064 34.8498 68.064 35.1155C68.064 36.1027 67.2598 36.9105 66.2761 36.9105C65.2817 36.9105 64.4775 36.1063 64.4775 35.1155C64.4775 34.8498 64.535 34.5985 64.6463 34.3723H67.9061Z" fill="#2C2C2C"/>
<path d="M87.5954 37.3807C87.4913 37.4597 87.4339 37.4992 87.4339 37.4992L84.49 27.1238L82.5693 23.8892L86.7446 26.0037L87.5846 37.2479L87.5954 37.3807Z" fill="#9C9C9C"/>
<path d="M56.9434 37.3807C57.0475 37.4597 57.1049 37.4992 57.1049 37.4992L60.038 27.1238L61.9695 23.8892L57.7942 26.0037L56.9541 37.2479L56.9434 37.3807Z" fill="#9C9C9C"/>
<path d="M87.018 21.9899V26.2836C83.2879 27.296 79.1234 27.7376 75.1204 27.8525C72.453 27.9315 69.8682 27.8596 67.5202 27.7268C66.3571 27.655 65.2657 27.576 64.2533 27.4863C63.0434 27.3822 61.9448 27.2637 61.0078 27.1488C58.7532 26.8724 57.3711 26.6318 57.3711 26.6318V22.5535C57.3711 22.5535 72.1192 14.6697 72.1945 14.6697C72.1945 14.7092 74.0398 15.6282 76.4273 16.7986C77.1848 17.1792 77.9997 17.5741 78.8218 17.9833C79.608 18.3675 80.4015 18.7588 81.1769 19.1429C83.3741 20.2128 85.3701 21.1857 86.3646 21.6703C86.781 21.8714 87.018 21.9899 87.018 21.9899Z" fill="#E3B605"/>
<path opacity="0.2" d="M78.8209 17.9801L64.2523 27.4831C63.0424 27.379 61.9438 27.2605 61.0068 27.1456L76.4263 16.7954C77.1838 17.176 77.9987 17.5745 78.8209 17.9801Z" fill="#F1EAD8"/>
<path opacity="0.2" d="M86.3684 21.6671L75.1207 27.8492C72.4532 27.9282 69.8684 27.8564 67.5205 27.7235L81.1807 19.1396C83.3743 20.2131 85.3704 21.186 86.3684 21.6671Z" fill="#F1EAD8"/>
<path d="M43.0566 77.4243L42.5684 80.8887L44.2772 77.8336L43.0566 77.4243Z" fill="#2C2C2C"/>
<path d="M49.8776 77.4243L49.3857 80.8887L51.0982 77.8336L49.8776 77.4243Z" fill="#2C2C2C"/>
<path d="M56.6891 77.4243L56.1973 80.8887L57.9026 77.8336L56.6891 77.4243Z" fill="#2C2C2C"/>
<path d="M34.5378 88.5859L34.0459 92.0468L35.7512 88.9952L34.5378 88.5859Z" fill="#2C2C2C"/>
<path d="M41.3571 88.5859L40.8652 92.0468L42.5705 88.9952L41.3571 88.5859Z" fill="#2C2C2C"/>
<path d="M48.1686 88.5859L47.6768 92.0468L49.3821 88.9952L48.1686 88.5859Z" fill="#2C2C2C"/>
<path d="M36.6207 99.8306L36.1396 103.291L37.8342 100.243L36.6207 99.8306Z" fill="#2C2C2C"/>
<path d="M43.4401 99.8306L42.9482 103.291L44.6607 100.243L43.4401 99.8306Z" fill="#2C2C2C"/>
<path d="M50.7364 99.5646C50.4133 100.34 50.101 101.083 49.8102 101.78L49.7061 101.808L50.0579 99.3384L50.7364 99.5646Z" fill="#2C2C2C"/>
<path d="M54.9853 57.9666L54.4971 61.4274L56.1988 58.3794L54.9853 57.9666Z" fill="#2C2C2C"/>
<path d="M48.1686 56.5696L47.6768 60.0304L49.3821 56.9825L48.1686 56.5696Z" fill="#2C2C2C"/>
<path d="M41.8101 57.8296L40.8623 59.5241L41.0418 58.264C41.2931 58.124 41.5444 57.9696 41.8101 57.8296Z" fill="#2C2C2C"/>
<path d="M36.1218 106.845L35.2314 107.111L35.3068 106.565L36.1218 106.845Z" fill="#2C2C2C"/>
<path d="M34.7093 66.1733L34.2246 69.6378L35.9299 66.5826L34.7093 66.1733Z" fill="#2C2C2C"/>
<path d="M42.2926 66.1733L41.8008 69.6378L43.5133 66.5826L42.2926 66.1733Z" fill="#2C2C2C"/>
<path d="M49.1052 66.1733L48.6133 69.6378L50.3293 66.5826L49.1052 66.1733Z" fill="#2C2C2C"/>
<path d="M55.9241 66.1733L55.4287 69.6378L57.134 66.5826L55.9241 66.1733Z" fill="#2C2C2C"/>
<path d="M62.9118 59.7686L62.4199 63.2366L64.1216 60.1778L62.9118 59.7686Z" fill="#2C2C2C"/>
<path d="M35.4732 77.4243L34.9922 80.8887L36.6974 77.8336L35.4732 77.4243Z" fill="#2C2C2C"/>
<path d="M102.953 77.4243L103.437 80.8887L101.739 77.8336L102.953 77.4243Z" fill="#2C2C2C"/>
<path d="M96.1338 77.4243L96.6292 80.8887L94.9131 77.8336L96.1338 77.4243Z" fill="#2C2C2C"/>
<path d="M89.3212 77.4243L89.813 80.8887L88.1113 77.8336L89.3212 77.4243Z" fill="#2C2C2C"/>
<path d="M91.0204 57.9666L91.5158 61.4274L89.8105 58.3794L91.0204 57.9666Z" fill="#2C2C2C"/>
<path d="M97.8407 56.5696L98.3326 60.0304L96.6309 56.9825L97.8407 56.5696Z" fill="#2C2C2C"/>
<path d="M103.734 58.853L104.682 60.5475L104.503 59.2874C104.248 59.1402 103.993 58.993 103.734 58.853Z" fill="#2C2C2C"/>
<path d="M111.297 66.1733L111.792 69.6378L110.076 66.5826L111.297 66.1733Z" fill="#2C2C2C"/>
<path d="M103.72 66.1733L104.209 69.6378L102.496 66.5826L103.72 66.1733Z" fill="#2C2C2C"/>
<path d="M96.9009 66.1733L97.3928 69.6378L95.6875 66.5826L96.9009 66.1733Z" fill="#2C2C2C"/>
<path d="M90.0894 66.1733L90.5777 69.6378L88.876 66.5826L90.0894 66.1733Z" fill="#2C2C2C"/>
<path d="M83.1093 59.7686L83.5939 63.2366L81.8887 60.1778L83.1093 59.7686Z" fill="#2C2C2C"/>
<path d="M110.532 77.4243L111.024 80.8887L109.312 77.8336L110.532 77.4243Z" fill="#2C2C2C"/>
<path d="M66.166 57.5319C66.0511 58.0381 65.9865 58.5659 65.9972 59.1116C65.9865 63.014 69.1565 66.1733 73.0661 66.1733C76.9757 66.1697 80.1386 63.0104 80.1386 59.1116C80.1386 58.2679 79.9878 57.4673 79.7113 56.717C83.1578 56.4513 85.8647 53.5757 85.8755 50.061C85.8647 46.3704 82.8742 43.3762 79.1836 43.3762C78.2071 43.3726 74.7068 44.4604 73.9564 44.902L71.9891 44.9056C71.0808 44.3527 67.2286 43.387 66.2808 43.387C62.3712 43.3762 59.1904 46.5535 59.2012 50.4595C59.1976 54.326 62.3138 57.4709 66.166 57.5319Z" fill="#9C9C9C"/>
<path d="M73.1999 17.3769C73.2179 17.2979 73.2286 17.2117 73.2286 17.122C73.2286 16.5081 72.7188 15.9983 72.1049 15.9983C71.4802 15.9983 70.9776 16.5045 70.9776 17.122C70.9776 17.2584 71.0064 17.3876 71.0423 17.5025C70.493 17.5456 70.0693 18.0051 70.0693 18.5616C70.0693 19.1504 70.5432 19.6207 71.1284 19.6207C71.2792 19.6243 71.8357 19.4519 71.9613 19.3801L71.2397 20.6151H72.9917L72.2736 19.3801C72.4172 19.4699 73.0312 19.6207 73.182 19.6207C73.7959 19.6207 74.3092 19.1145 74.3092 18.4934C74.3056 17.8831 73.8066 17.3841 73.1999 17.3769Z" fill="#2C2C2C"/>
<path opacity="0.2" d="M76.2214 76.0458C76.268 75.7622 76.2859 75.4786 76.268 75.1734C76.1639 73.0947 74.3832 71.4971 72.2938 71.5007C70.2008 71.5007 68.4129 73.1055 68.3267 75.1878C68.298 75.6509 68.3662 76.0996 68.4955 76.5233C66.5173 76.6812 64.8049 78.3614 64.6146 80.4903C64.4064 82.8633 66.1404 84.8594 68.4668 84.8379C69.0914 84.8379 71.2993 84.0768 71.7696 83.7788L68.7504 89.3399L76.0382 89.2609L73.001 83.7716C73.5575 84.1414 75.9916 84.784 76.5875 84.7733C79.0288 84.7589 80.7987 82.6336 80.5545 80.1636C80.3284 77.8588 78.397 76.0745 76.2214 76.0458Z" fill="#616161"/>
<path d="M76.1519 75.8198C76.2201 75.5326 76.256 75.2382 76.256 74.9222C76.256 72.7072 74.4574 70.9121 72.2423 70.9121C70.0165 70.9157 68.2178 72.7072 68.2178 74.9222C68.2178 75.4033 68.3004 75.8593 68.4619 76.2865C66.5125 76.4373 64.9688 78.0707 64.958 80.0632C64.9688 82.1634 66.6633 83.8615 68.7563 83.8615C69.3128 83.8651 71.3017 83.2476 71.7289 82.9963L69.1548 87.4085L75.4303 87.4014L72.8454 82.9963C73.366 83.3087 75.5523 83.8615 76.0837 83.8615C78.3095 83.8615 80.1082 82.0593 80.1082 79.8371C80.1082 77.6363 78.349 75.8593 76.1519 75.8198Z" fill="#E3B605"/>
<path opacity="0.2" d="M72.187 84.2027L73.7954 86.2706H70.7186L72.187 84.2027ZM68.7297 82.3215C67.5199 82.3179 66.5039 81.3019 66.5039 80.0562C66.5039 78.8966 67.4122 77.9022 68.579 77.8196L70.6146 77.6616L69.9037 75.7517C69.8104 75.4896 69.7494 75.2132 69.7494 74.9224C69.7494 73.5653 70.8695 72.456 72.2409 72.4524C72.9015 72.4524 73.5261 72.7073 73.9928 73.1812C74.4559 73.6443 74.7108 74.2654 74.7108 74.9224C74.7216 75.1162 74.6929 75.2922 74.6534 75.4896L74.237 77.3313L76.1289 77.36C77.4716 77.3816 78.5702 78.4945 78.5702 79.8336C78.5702 80.4978 78.3153 81.1153 77.8414 81.5891C77.3783 82.0523 76.75 82.3144 76.0894 82.3144C75.8058 82.2964 74.8221 82.0631 74.1687 81.862L72.2014 80.9286L70.4314 81.8656C69.857 82.0595 69.0134 82.2964 68.7297 82.3215Z" fill="#616161"/>
<path d="M66.5322 46.1912H78.5375L76.8502 50.4777L68.7222 50.449L66.5322 46.1912Z" fill="#FDD5B0"/>
<path opacity="0.2" d="M75.7538 46.7869H69.3096V48.0578H75.7538V46.7869Z" fill="#616161"/>
<path opacity="0.2" d="M112.785 63.0821C112.785 63.0821 93.7111 52.197 87.6152 48.7397C87.03 48.4095 86.574 48.1546 86.2545 47.9751L87.8736 41.057L87.6008 37.3843L87.59 37.2515L86.775 26.3448C86.8612 26.3233 86.9438 26.3053 87.0192 26.2838V21.99C87.0192 21.99 86.7822 21.8716 86.3658 21.6669C85.3713 21.1859 83.3753 20.2094 81.1781 19.1395C80.4027 18.7554 79.6057 18.364 78.823 17.9799C78.0009 17.5742 77.186 17.1757 76.4285 16.7952C74.0411 15.6212 72.1957 14.7058 72.1957 14.6663C72.1957 14.6663 72.167 14.6842 72.1562 14.6842V96.1504L87.4643 91.5515L87.6152 92.0469L96.3067 88.8948L113.09 83.8544V64.1125L112.785 63.0821Z" fill="#616161"/>
<path d="M31.624 135.81L31.9256 136.841C31.9256 136.841 50.9997 147.726 57.0957 151.179C58.2409 151.826 58.923 152.217 58.9517 152.217H86.1107C86.1179 152.217 86.1574 152.188 86.2328 152.149C86.2902 152.116 86.3549 152.08 86.4411 152.034C86.5057 151.998 86.5918 151.951 86.678 151.901C86.7606 151.854 86.8467 151.808 86.9437 151.754C87.037 151.696 87.1339 151.639 87.2488 151.578C87.4175 151.485 87.5899 151.384 87.7873 151.273C88.1571 151.061 88.5736 150.824 89.0475 150.558L89.0582 150.555C89.41 150.354 89.7798 150.142 90.1675 149.919C90.3004 149.847 90.4332 149.772 90.5732 149.693C91.4815 149.172 92.4867 148.605 93.5638 147.995C93.9515 147.776 94.3392 147.55 94.7377 147.324C95.1254 147.101 95.5347 146.875 95.9332 146.649C96.3281 146.412 96.7554 146.178 97.1646 145.949C102.561 142.879 108.495 139.486 111.374 137.849C111.543 137.752 111.694 137.666 111.837 137.58C112.527 137.189 112.972 136.93 113.097 136.866V91.5947L95.3301 96.9332L91.2984 98.143L31.6312 116.061V135.81H31.624Z" fill="#2C2C2C"/>
<path d="M72.3087 128.778L79.751 141.662H64.8809L72.3087 128.778ZM78.3293 140.837L72.3087 130.418L66.299 140.837H78.3293Z" fill="#E3B605"/>
<path opacity="0.2" d="M82.3025 152.217C82.4461 152.177 109.318 136.844 109.318 136.844L113.087 125.216V91.5981L95.3202 96.9366L91.2885 98.1464L80.669 133.006L79.2402 137.673L77.1687 142.121L72.5303 152.026V152.217H82.3025Z" fill="#616161"/>
<path d="M86.109 152.217C86.1162 152.217 86.1557 152.188 86.2311 152.149C86.2885 152.116 86.3532 152.08 86.4393 152.034C86.504 151.998 86.5901 151.951 86.6763 151.901C86.7517 151.854 86.845 151.808 86.9419 151.754C87.0353 151.696 87.1322 151.639 87.2471 151.578C87.4158 151.485 87.5882 151.384 87.7856 151.273C88.1554 151.064 88.5718 150.828 89.0457 150.558L89.0565 150.555C89.4083 150.354 89.7781 150.149 90.1658 149.919C90.2987 149.847 90.4315 149.772 90.5715 149.693C91.4798 149.183 92.485 148.609 93.562 147.995C93.9498 147.776 94.3375 147.55 94.736 147.324C95.1345 147.101 95.533 146.875 95.9315 146.649C96.3264 146.415 96.7536 146.186 97.1629 145.949C98.9041 144.954 100.703 143.942 102.426 142.944C102.946 142.653 103.467 142.355 103.97 142.068C106.989 140.341 109.707 138.797 111.372 137.849C111.541 137.752 111.692 137.666 111.836 137.58C112.525 137.189 112.97 136.93 113.096 136.866V91.5947L109.933 92.5461L108.152 93.081L95.5222 96.8722L95.3248 96.9332C94.7288 98.3297 94.1149 99.816 93.4687 101.363C89.2109 111.602 84.0196 124.559 80.67 133.003C78.5698 138.259 77.1948 141.763 77.1948 141.763L77.1661 142.118L76.2471 152.213L86.109 152.217Z" fill="#F9F9F9"/>
<path opacity="0.2" d="M31.6237 123.162L35.7415 136.841C35.7415 136.841 62.6169 152.174 62.7569 152.213H72.5255V152.023L65.8121 137.666L57.0953 107.872L31.6201 117.102L31.6237 123.162Z" fill="#616161"/>
<path d="M31.624 135.799L31.9364 136.84C31.9364 136.84 58.8081 152.174 58.9517 152.213H68.8066L67.8695 141.766C67.8695 141.766 56.2736 117.702 52.145 109.9L31.624 116.061V135.799Z" fill="#F9F9F9"/>
<path d="M56.8447 158.866L57.1175 162.538L57.1283 162.675L57.9684 173.919L62.1437 176.03L70.2106 180.115L72.4436 178.916L74.6767 180.115L82.74 176.03L86.9152 173.919L87.7589 162.675L87.7697 162.538L88.0426 158.866L84.693 147.704L72.4616 137.645V137.619L72.4544 137.612L72.4436 137.627L72.4221 137.612V137.619V137.645L59.3111 148.343L56.8447 158.866Z" fill="#FDD5B0"/>
<path d="M72.4223 152.22L67.4824 152.389L71.173 154.712C71.173 154.712 71.769 154.726 72.4223 154.737C72.4331 154.737 72.4331 154.737 72.4403 154.737C72.4511 154.737 72.4511 154.737 72.4511 154.737C73.1153 154.726 73.7004 154.712 73.7004 154.712L77.391 152.389L72.4511 152.22V152.213H72.4403H72.4223V152.22Z" fill="#FDD5B0"/>
<path opacity="0.2" d="M69.4316 159.286L71.4564 166.326H72.4222H72.4545H73.4166L75.4522 159.286L73.4166 157.114L72.4545 157.078H72.4437H72.4222L71.4564 157.114L69.4316 159.286Z" fill="#616161"/>
<path d="M70.3059 168.203L63.9514 169.004L63.8114 169.022L63.7468 168.982L60.7168 167.381L64.0197 168.304L63.8114 168.29L69.9756 166.552L70.3059 168.203Z" fill="#9C9C9C"/>
<path d="M68.0681 165.554C68.1722 165.321 68.2369 165.073 68.2369 164.811C68.2369 163.82 67.4327 163.016 66.4383 163.016C65.4546 163.016 64.6504 163.82 64.6504 164.811C64.6504 165.069 64.7078 165.321 64.8119 165.554H68.0681Z" fill="#2C2C2C"/>
<path d="M74.582 168.203L80.9364 169.004L81.0693 169.022L81.1447 168.982L84.1747 167.381L80.8682 168.304L81.0801 168.29L74.9051 166.552L74.582 168.203Z" fill="#9C9C9C"/>
<path d="M76.8119 165.554C76.7078 165.321 76.6396 165.073 76.6396 164.811C76.6396 163.82 77.4438 163.016 78.4383 163.016C79.4327 163.016 80.2369 163.82 80.2369 164.811C80.2369 165.069 80.1795 165.321 80.0682 165.554H76.8119Z" fill="#2C2C2C"/>
<path d="M57.1182 162.538C57.2223 162.463 57.269 162.42 57.269 162.42L60.2128 172.799L62.1443 176.03L57.969 173.919L57.1254 162.675L57.1182 162.538Z" fill="#9C9C9C"/>
<path d="M87.7699 162.538C87.6658 162.463 87.6084 162.42 87.6084 162.42L84.6645 172.799L82.7402 176.03L86.9155 173.919L87.7556 162.675L87.7699 162.538Z" fill="#9C9C9C"/>
<path d="M57.6875 177.929V173.642C61.4176 172.622 65.5893 172.184 69.5958 172.073C72.2561 171.998 74.8481 172.059 77.196 172.195C78.352 172.263 79.447 172.346 80.463 172.436C81.6729 172.54 82.7642 172.658 83.7084 172.773C85.963 173.043 87.3452 173.283 87.3452 173.283V177.369C87.3452 177.369 72.5971 185.249 72.5217 185.249C72.5217 185.209 70.6764 184.29 68.2926 183.12C67.5351 182.747 66.7202 182.348 65.898 181.942C65.1118 181.558 64.3184 181.16 63.5429 180.783C61.3458 179.713 59.339 178.74 58.3553 178.255C57.9352 178.047 57.6875 177.929 57.6875 177.929Z" fill="#E3B605"/>
<path opacity="0.2" d="M65.8906 181.942L80.4592 172.439C81.6691 172.543 82.7604 172.662 83.7046 172.777L68.2852 183.123C67.5313 182.746 66.7163 182.351 65.8906 181.942Z" fill="#F1EAD8"/>
<path opacity="0.2" d="M58.3496 178.255L69.5938 172.073C72.254 171.998 74.8461 172.059 77.194 172.195L63.5337 180.783C61.3402 179.713 59.3333 178.74 58.3496 178.255Z" fill="#F1EAD8"/>
<path d="M101.653 122.498L102.148 119.037L100.436 122.089L101.653 122.498Z" fill="#2C2C2C"/>
<path d="M94.8287 122.498L95.3205 119.037L93.6152 122.089L94.8287 122.498Z" fill="#2C2C2C"/>
<path d="M88.024 122.498L88.5051 119.037L86.8105 122.089L88.024 122.498Z" fill="#2C2C2C"/>
<path d="M110.172 111.34L110.656 107.875L108.962 110.931L110.172 111.34Z" fill="#2C2C2C"/>
<path d="M103.355 111.34L103.847 107.875L102.146 110.931L103.355 111.34Z" fill="#2C2C2C"/>
<path d="M96.54 111.34L97.0318 107.875L95.3193 110.931L96.54 111.34Z" fill="#2C2C2C"/>
<path d="M108.088 100.096L108.573 96.6316L106.871 99.6796L108.088 100.096Z" fill="#2C2C2C"/>
<path d="M101.273 100.096L101.765 96.6316L100.053 99.6796L101.273 100.096Z" fill="#2C2C2C"/>
<path d="M93.9736 100.361C94.2967 99.5859 94.6091 98.8356 94.8999 98.1463L94.9932 98.114L94.6521 100.588L93.9736 100.361Z" fill="#2C2C2C"/>
<path d="M89.7245 141.96L90.2163 138.495L88.5039 141.54L89.7245 141.96Z" fill="#2C2C2C"/>
<path d="M96.54 143.349L97.0318 139.896L95.3193 142.943L96.54 143.349Z" fill="#2C2C2C"/>
<path d="M102.903 142.096L103.851 140.398L103.672 141.662C103.424 141.802 103.158 141.953 102.903 142.096Z" fill="#2C2C2C"/>
<path d="M108.593 93.0845L109.48 92.8152L109.404 93.3609L108.593 93.0845Z" fill="#2C2C2C"/>
<path d="M110 133.753L110.485 130.289L108.779 133.34L110 133.753Z" fill="#2C2C2C"/>
<path d="M102.409 133.753L102.912 130.289L101.199 133.34L102.409 133.753Z" fill="#2C2C2C"/>
<path d="M95.6034 133.753L96.0952 130.289L94.3828 133.34L95.6034 133.753Z" fill="#2C2C2C"/>
<path d="M88.7926 133.753L89.2844 130.289L87.5684 133.34L88.7926 133.753Z" fill="#2C2C2C"/>
<path d="M81.8043 140.154L82.2961 136.689L80.5908 139.745L81.8043 140.154Z" fill="#2C2C2C"/>
<path d="M109.236 122.498L109.717 119.037L108.012 122.089L109.236 122.498Z" fill="#2C2C2C"/>
<path d="M41.7643 122.498L41.2725 119.037L42.9777 122.089L41.7643 122.498Z" fill="#2C2C2C"/>
<path d="M48.5788 122.498L48.0869 119.037L49.7886 122.089L48.5788 122.498Z" fill="#2C2C2C"/>
<path d="M55.3951 122.498L54.9033 119.037L56.6086 122.089L55.3951 122.498Z" fill="#2C2C2C"/>
<path d="M53.6829 141.96L53.1982 138.496L54.9036 141.54L53.6829 141.96Z" fill="#2C2C2C"/>
<path d="M46.8649 143.35L46.3838 139.896L48.089 142.944L46.8649 143.35Z" fill="#2C2C2C"/>
<path d="M40.9791 141.073L40.0312 139.379L40.2108 140.639C40.4621 140.783 40.7242 140.933 40.9791 141.073Z" fill="#2C2C2C"/>
<path d="M33.4163 133.753L32.9209 130.289L34.6333 133.34L33.4163 133.753Z" fill="#2C2C2C"/>
<path d="M40.9957 133.753L40.5039 130.289L42.2092 133.34L40.9957 133.753Z" fill="#2C2C2C"/>
<path d="M47.8121 133.753L47.3203 130.289L49.022 133.34L47.8121 133.753Z" fill="#2C2C2C"/>
<path d="M54.6266 133.753L54.1348 130.289L55.8401 133.34L54.6266 133.753Z" fill="#2C2C2C"/>
<path d="M61.6067 140.154L61.1221 136.69L62.8274 139.745L61.6067 140.154Z" fill="#2C2C2C"/>
<path d="M34.1803 122.498L33.6885 119.037L35.3902 122.089L34.1803 122.498Z" fill="#2C2C2C"/>
<path d="M78.5465 142.395C78.6614 141.888 78.726 141.364 78.7152 140.815C78.726 136.916 75.556 133.75 71.6535 133.753C67.7332 133.757 64.5739 136.916 64.5739 140.815C64.5739 141.662 64.7247 142.463 65.0011 143.206C61.5654 143.472 58.8477 146.354 58.8369 149.865C58.8477 153.556 61.849 156.543 65.5288 156.547C66.5161 156.55 70.0057 155.459 70.756 155.017H72.7233C73.6316 155.567 77.4838 156.536 78.4316 156.536C82.3412 156.543 85.5149 153.366 85.5041 149.46C85.5041 145.593 82.4022 142.452 78.5465 142.395Z" fill="#9C9C9C"/>
<path d="M71.5117 182.549C71.4937 182.628 71.483 182.714 71.483 182.801C71.483 183.422 71.9927 183.928 72.6066 183.924C73.2313 183.924 73.734 183.422 73.734 182.801C73.734 182.668 73.7052 182.542 73.6657 182.424C74.215 182.377 74.6422 181.921 74.6422 181.365C74.6422 180.779 74.1683 180.305 73.5832 180.305C73.4216 180.305 72.8723 180.474 72.7503 180.546L73.4719 179.311H71.7199L72.4379 180.546C72.2943 180.46 71.6804 180.305 71.5296 180.305C70.9049 180.305 70.4023 180.808 70.4023 181.426C70.4059 182.039 70.8978 182.539 71.5117 182.549Z" fill="#2C2C2C"/>
<path opacity="0.2" d="M68.4935 123.88C68.4468 124.164 68.4288 124.448 68.4468 124.753C68.5509 126.824 70.3316 128.429 72.4138 128.425C74.514 128.418 76.2947 126.817 76.3988 124.738C76.4168 124.275 76.3522 123.826 76.2086 123.403C78.1975 123.245 79.9099 121.568 80.1002 119.439C80.2977 117.066 78.5744 115.07 76.2481 115.085C75.6234 115.085 73.4155 115.849 72.9452 116.144L75.9644 110.59L68.6765 110.669L71.7245 116.158C71.1465 115.785 68.7232 115.146 68.1273 115.149C65.6824 115.167 63.9161 117.296 64.1602 119.766C64.3864 122.067 66.3179 123.852 68.4935 123.88Z" fill="#616161"/>
<path d="M68.5637 124.103C68.4955 124.397 68.4596 124.692 68.4596 125.004C68.4596 127.219 70.2582 129.018 72.4733 129.018C74.6991 129.011 76.4978 127.219 76.4978 125.004C76.4978 124.527 76.4152 124.067 76.2536 123.644C78.2138 123.493 79.7468 121.856 79.7575 119.863C79.7468 117.767 78.0523 116.065 75.9629 116.065C75.4028 116.065 73.4139 116.679 72.9903 116.93L75.5643 112.518L69.2961 112.525L71.8702 116.934C71.3496 116.618 69.1632 116.068 68.6211 116.068C66.4061 116.061 64.6003 117.867 64.6074 120.086C64.6074 122.283 66.3665 124.067 68.5637 124.103Z" fill="#E3B605"/>
<path opacity="0.2" d="M72.5303 115.72L70.9219 113.652H73.9987L72.5303 115.72ZM75.984 117.605C77.1938 117.608 78.2099 118.621 78.217 119.87C78.2099 121.03 77.298 122.021 76.1348 122.107L74.1099 122.261L74.81 124.175C74.9034 124.433 74.9536 124.713 74.9536 124.997C74.9536 126.354 73.8443 127.467 72.4729 127.467C71.8087 127.467 71.1876 127.212 70.7209 126.742C70.247 126.275 69.9921 125.657 70.0029 125C69.9921 124.807 70.0101 124.627 70.0603 124.433L70.4768 122.591L68.5848 122.563C67.2421 122.538 66.1436 121.428 66.1436 120.082C66.1436 119.418 66.3984 118.8 66.8616 118.33C67.3355 117.863 67.9601 117.601 68.6207 117.601C68.9043 117.619 69.8916 117.856 70.545 118.061L72.5124 118.991L74.2823 118.054C74.8567 117.863 75.7003 117.626 75.984 117.605Z" fill="#616161"/>
<path d="M78.1755 153.736H66.1846L67.8576 149.446L75.9927 149.474L78.1755 153.736Z" fill="#FDD5B0"/>
<path opacity="0.2" d="M75.3989 151.869H68.9619V153.136H75.3989V151.869Z" fill="#616161"/>
<path opacity="0.2" d="M31.9289 136.84C31.9289 136.84 51.003 147.725 57.0989 151.179C57.6877 151.509 58.1508 151.775 58.4596 151.951L56.8404 158.865L57.1169 162.538L57.1241 162.674L57.939 173.585C57.8636 173.603 57.7703 173.617 57.6841 173.642V177.929C57.6841 177.929 57.9282 178.047 58.3483 178.255C59.3319 178.74 61.3388 179.713 63.536 180.783C64.3114 181.16 65.1084 181.558 65.891 181.942C66.7167 182.348 67.5317 182.747 68.2856 183.12C70.6694 184.294 72.5147 185.209 72.5147 185.249C72.5147 185.249 72.5435 185.231 72.5542 185.231V103.772L57.2461 108.367L57.0953 107.875L48.4145 111.024L31.6201 116.064V135.813L31.9289 136.84Z" fill="#616161"/>
<path d="M24.3258 40.1667C24.3833 39.8724 24.4299 39.578 24.4192 39.2728C24.4263 37.0757 22.6385 35.2914 20.4342 35.2986C18.2406 35.3022 16.4599 37.0721 16.4599 39.2728C16.4599 39.7503 16.5461 40.1991 16.6969 40.6191C14.7547 40.7735 13.2324 42.3926 13.2324 44.3707C13.2324 46.4494 14.9162 48.126 16.9985 48.126C17.5477 48.1296 19.5187 47.5192 19.9316 47.2715L17.3862 51.6443L23.5934 51.6407L21.048 47.2715C21.5507 47.5767 23.7262 48.126 24.2576 48.126C26.4547 48.126 28.2426 46.3381 28.2426 44.141C28.2461 41.9654 26.4942 40.1991 24.3258 40.1667Z" fill="#2C2C2C"/>
<path opacity="0.2" d="M24.3256 40.1667C24.383 39.8724 24.4297 39.578 24.4189 39.2728C24.4261 37.0757 22.6382 35.2914 20.4339 35.2986C20.4339 35.2986 20.4339 35.3022 20.4268 35.3022V51.6407H23.5968L21.0514 47.2715C21.554 47.5767 23.7296 48.126 24.2609 48.126C26.4581 48.126 28.2459 46.3381 28.2459 44.141C28.2459 41.9654 26.494 40.1991 24.3256 40.1667Z" fill="#616161"/>
<path d="M119.803 159.297C119.734 159.591 119.698 159.878 119.709 160.191C119.698 162.388 121.49 164.165 123.683 164.165C125.888 164.165 127.668 162.395 127.668 160.191C127.668 159.713 127.582 159.257 127.431 158.848C129.363 158.69 130.896 157.071 130.896 155.093C130.896 153.014 129.201 151.337 127.13 151.337C126.581 151.334 124.613 151.944 124.197 152.192L126.742 147.819L120.531 147.826L123.08 152.195C122.567 151.887 120.398 151.345 119.871 151.341C117.666 151.341 115.886 153.129 115.886 155.326C115.886 157.498 117.638 159.261 119.803 159.297Z" fill="#2C2C2C"/>
<path opacity="0.2" d="M119.803 159.296C119.734 159.591 119.698 159.878 119.709 160.19C119.698 162.387 121.49 164.164 123.683 164.164C123.694 164.164 123.694 164.164 123.701 164.164V147.826H120.531L123.08 152.195C122.567 151.886 120.398 151.344 119.871 151.341C117.666 151.341 115.886 153.128 115.886 155.326C115.886 157.498 117.638 159.26 119.803 159.296Z" fill="#616161"/>
<path d="M14.4208 15.6379H20.6977V16.0289H19.5658V22.5322L19.7304 22.491L25.534 16.0289H23.9082V15.6379H27.5097V16.0289H26.2749L22.7351 19.9803L27.6743 29.6529H28.7857V30.0439H22.1794V29.6529H23.1467L19.751 23.0879L19.5658 23.129V29.6529H20.6977V30.0439H14.4208V29.6529H15.5527V16.0289H14.4208V15.6379Z" fill="#2C2C2C"/>
<path d="M131.156 187.386L124.879 187.386L124.879 186.995L126.011 186.995L126.011 180.491L125.847 180.533L120.043 186.995L121.669 186.995L121.669 187.386L118.067 187.386L118.067 186.995L119.302 186.995L122.842 183.043L117.903 173.371L116.791 173.371L116.791 172.98L123.398 172.98L123.398 173.371L122.43 173.371L125.826 179.936L126.011 179.895L126.011 173.371L124.879 173.371L124.879 172.98L131.156 172.98L131.156 173.371L130.024 173.371L130.024 186.995L131.156 186.995L131.156 187.386Z" fill="#2C2C2C"/>
</svg>
