<svg width="143" height="200" viewBox="0 0 143 200" fill="none" xmlns="http://www.w3.org/2000/svg">
<path d="M15.7501 199.372C7.324 199.39 0.452465 192.658 0.430924 184.383L6.87856e-05 15.0823C-0.0250622 6.74953 6.83931 -0.0179151 15.2905 3.56286e-05L127.167 0.208259C135.593 0.22262 142.436 7.00082 142.436 15.3156V184.243C142.436 192.504 135.618 199.232 127.224 199.242L15.7501 199.372Z" fill="#C9C9C9"/>
<path d="M16.5308 199.993C8.21597 199.993 1.45215 193.251 1.45215 184.968V16.0732C1.45215 7.78357 8.21597 1.04126 16.5308 1.04126H126.784C135.103 1.04126 141.863 7.77998 141.863 16.0732V184.968C141.863 193.254 135.106 199.993 126.784 199.993H16.5308Z" fill="#F1EAD8"/>
<path d="M127.37 195.782H17.1133C10.6726 195.782 5.43457 190.562 5.43457 184.153V15.2547C5.43457 9.08681 10.3315 4.0606 12.9595 3.09485L13.3472 2.95483L124.182 2.96204C135.143 3.82367 139.056 9.87665 139.056 15.2583V184.157C139.053 190.562 133.807 195.782 127.37 195.782ZM14.2771 7.57177C13.0888 8.31494 10.0443 11.4276 10.0443 15.2583V184.157C10.0443 188.023 13.2144 191.172 17.1097 191.172H127.367C131.255 191.172 134.429 188.02 134.429 184.157V15.2583C134.429 10.9824 130.501 8.1103 123.913 7.57177H14.2771Z" fill="#2C2C2C"/>
<path d="M93.7083 56.4121L93.4928 59.4171L93.3493 61.2552L92.7892 69.1033L92.6599 70.9414L92.4876 73.4474V73.4581L92.3081 75.7702L90.5202 75.8133L89.6766 75.824L87.9245 75.8635L86.9337 75.8851L85.7202 75.9102L83.5733 75.9497L81.193 76.0035L70.0241 76.2405H70.0061L58.8443 76.0035L56.4605 75.9497L54.3208 75.9102L53.1109 75.8851L52.1164 75.8635L51.244 75.8456L50.3644 75.824L49.5135 75.8133L47.7329 75.7702L47.5534 73.4581V73.4474L47.3846 70.9414L47.241 69.1033L46.6917 61.2552L46.5481 59.4171L46.3291 56.4121H93.7083Z" fill="#C9C9C9"/>
<path opacity="0.2" d="M91.7464 62.0235C89.6174 64.2961 83.331 66.5004 77.8238 66.5004H77.7555C76.5636 68.0262 75.1527 69.1966 73.6018 69.8608C72.6252 70.2809 71.5841 70.5034 70.525 70.5034C70.4568 70.5034 70.3814 70.4927 70.3168 70.4855C70.306 70.4855 70.306 70.4855 70.2988 70.4855V56.4121L91.7464 62.0235Z" fill="#616161"/>
<path d="M101.272 87.3087L92.2892 89.9869L91.449 90.249L91.2013 90.3172C90.4905 89.1468 89.9232 88.2672 89.6791 87.8831C89.5858 87.761 89.5391 87.6856 89.5104 87.6856C89.4996 87.6856 89.4817 87.7251 89.4637 87.7431C88.6954 89.0068 88.279 90.1808 88.0241 91.2686L85.6187 91.9938L70.0374 96.6538L60.3153 99.5475L57.0698 100.513C56.9549 100.129 56.8221 99.7306 56.6534 99.2818C51.042 96.8693 53.5945 93.017 50.8517 88.1918C50.7583 88.0088 50.6542 87.8579 50.5393 87.6856C50.2091 88.0841 43.8653 97.7596 42.7703 104.793L41.9912 105.005L35.6797 106.896H35.5253C35.4212 93.0672 39.636 83.837 43.517 78.2507C43.7934 77.8702 44.0519 77.5004 44.3284 77.1629C44.594 76.8362 44.8382 76.4808 45.0859 76.2043L45.1003 76.1864C45.1003 76.1577 45.1003 76.1433 45.1003 76.1433C45.2977 75.9458 45.4844 75.6981 45.6891 75.5007C45.7645 75.3858 45.8398 75.296 45.9332 75.2099C46.0229 75.0806 46.1307 74.9586 46.2384 74.8508C46.7194 74.3267 47.1646 73.8528 47.5631 73.4507H47.581C47.6852 73.343 47.7785 73.2533 47.8826 73.1456C47.976 73.0702 48.0729 72.9588 48.1662 72.8834C48.2596 72.808 48.3458 72.7291 48.4427 72.6357C48.6114 72.4849 48.7658 72.3593 48.9166 72.2372C49.5305 71.6987 49.9182 71.451 49.9182 71.451L51.3759 71.792L51.62 71.8531L52.2088 72.0254L52.3703 72.0397L54.3951 71.9644L57.5365 71.8423L60.8682 71.6987L70.0231 71.3325H70.041L79.3754 71.7166L82.5275 71.8387L85.6725 71.9608L87.6973 72.0362L87.8661 72.0218L88.4441 71.8495L88.699 71.7885L90.1458 71.4474C90.1458 71.4474 90.5336 71.6915 91.1511 72.2336C91.3019 72.3557 91.4563 72.4778 91.6322 72.6322C91.7183 72.7255 91.8009 72.8045 91.8978 72.8799C91.9911 72.9553 92.0881 73.0666 92.1743 73.1419L92.4866 73.4471H92.5046C92.5907 73.5225 92.6841 73.6338 92.7882 73.7559C92.903 73.8492 93.0251 73.9569 93.1292 74.0898C93.3482 74.3231 93.5924 74.5529 93.8222 74.8473C93.9658 74.9694 94.0878 75.1093 94.2278 75.2816C94.235 75.314 94.2638 75.3427 94.3033 75.3678C94.332 75.4145 94.3499 75.4325 94.3786 75.4971C94.5797 75.6946 94.7556 75.9423 94.9638 76.1397C94.9638 76.1397 94.9746 76.1505 94.9746 76.1828V76.2008C95.2223 76.4772 95.4664 76.8326 95.7428 77.1593C96.0085 77.4968 96.2742 77.8666 96.5471 78.2471C98.1663 80.6202 99.8608 83.618 101.272 87.3087Z" fill="#FDD5B0"/>
<path opacity="0.2" d="M70.0156 81.4497H72.0692L71.1501 88.8562C70.7731 88.8741 70.3926 88.8849 70.0156 88.8957V81.4497Z" fill="#616161"/>
<path opacity="0.2" d="M70.0222 56.4189L47.3037 59.7542C50.8436 64.7409 56.9971 66.5001 62.508 66.5001H62.5654C64.5148 68.988 67.0423 70.5031 69.8067 70.5031C69.8821 70.5031 69.9575 70.4888 70.0257 70.4888L70.0222 56.4189Z" fill="#616161"/>
<path opacity="0.2" d="M70.0214 81.4497H67.9678L68.8833 88.8562C69.2602 88.8741 69.6408 88.8849 70.0177 88.8957V81.4497H70.0214Z" fill="#616161"/>
<path opacity="0.2" d="M62.5376 87.6749C52.1154 85.3736 46.4645 81.866 43.5098 78.2651C45.6639 75.174 47.7318 73.2137 48.895 72.2192L62.5376 87.6749Z" fill="#616161"/>
<path d="M70.0223 67.4298C69.9577 67.4298 69.8787 67.4369 69.8033 67.4369C68.7729 67.4369 67.7784 67.2287 66.8306 66.8374C66.7732 67.0815 66.7266 67.3328 66.7266 67.5949V68.9233C67.7103 69.3541 68.7334 69.5731 69.8033 69.5731C69.8787 69.5731 69.9541 69.5623 70.0223 69.5623V67.4298Z" fill="#FDD5B0"/>
<path d="M70.024 64.4287C69.9881 64.4251 69.9593 64.418 69.9127 64.418C68.4156 64.418 67.177 65.4483 66.8359 66.8413C67.7837 67.2326 68.7782 67.4409 69.8085 67.4409C69.8839 67.4409 69.9593 67.4337 70.0276 67.4337L70.024 64.4287Z" fill="#FDD5B0"/>
<path d="M88.3097 71.0739L82.7809 70.9985L73.3029 70.8836V68.927C72.3192 69.3578 71.2852 69.5768 70.2261 69.5768C70.1615 69.5768 70.0933 69.566 70.0179 69.566C70.0179 69.566 70.0179 69.566 70.0107 69.566C69.9353 69.566 69.8671 69.5768 69.8025 69.5768C68.7326 69.5768 67.7095 69.3578 66.7258 68.927V70.8836L57.2513 70.9985L51.7225 71.0739C50.7568 72.7648 51.184 72.9264 51.184 74.8651C51.184 79.6938 54.5156 83.9517 59.5921 86.4792C59.6208 86.4972 59.628 86.5008 59.6567 86.508C60.565 86.9567 61.5344 87.3552 62.536 87.6711C64.4962 88.3245 66.636 88.7302 68.887 88.8487C69.0126 88.8559 69.1347 88.8667 69.2568 88.8739C69.5009 88.8846 69.7594 88.8846 70.0143 88.8918C70.0215 88.8918 70.0215 88.8918 70.0215 88.8918C70.2764 88.8846 70.5349 88.881 70.779 88.8739C70.9047 88.8703 71.0267 88.8595 71.1488 88.8487C73.3926 88.7302 75.5324 88.3245 77.4998 87.6711C78.5122 87.3552 79.4708 86.9567 80.3791 86.508C80.4078 86.5044 80.4185 86.5007 80.4473 86.4792C85.5201 83.9517 88.8518 79.6902 88.8518 74.8651C88.8518 72.9264 89.2754 72.7648 88.3097 71.0739Z" fill="#FDD5B0"/>
<path opacity="0.2" d="M62.536 87.6748C61.5236 87.2979 60.5686 86.9101 59.6567 86.5116C59.628 86.508 59.6208 86.5044 59.5921 86.4829C54.5192 83.9554 51.184 79.6939 51.184 74.8688C51.184 72.9265 50.7568 72.7685 51.7225 71.0776L57.2513 71.0022L62.536 87.6748Z" fill="#616161"/>
<path opacity="0.2" d="M77.5 87.6748C78.5124 87.2979 79.471 86.9101 80.3793 86.5116C80.408 86.508 80.4188 86.5044 80.4475 86.4829C85.5204 83.9554 88.8521 79.6939 88.8521 74.8688C88.8521 72.9265 89.2792 72.7685 88.3135 71.0776L82.7847 71.0022L77.5 87.6748Z" fill="#616161"/>
<path d="M70.0156 67.4298C70.0802 67.4298 70.1556 67.4369 70.231 67.4369C71.265 67.4369 72.2594 67.2287 73.2036 66.8374C73.2611 67.0815 73.3078 67.3328 73.3078 67.5949V68.9233C72.3241 69.3541 71.2901 69.5731 70.231 69.5731C70.1556 69.5731 70.0802 69.5623 70.0156 69.5623V67.4298Z" fill="#FDD5B0"/>
<path d="M70.0156 64.4287C70.0551 64.4251 70.0802 64.418 70.1197 64.418C71.6168 64.418 72.8662 65.4483 73.2072 66.8413C72.2594 67.2326 71.2685 67.4409 70.2346 67.4409C70.1592 67.4409 70.0838 67.4337 70.0192 67.4337L70.0156 64.4287Z" fill="#FDD5B0"/>
<path d="M101.272 87.3087L92.2892 89.987L91.449 90.249L91.2013 90.3172C90.4905 89.1468 89.9232 88.2673 89.6791 87.8831C89.5858 87.7611 89.5391 87.6856 89.5104 87.6856C89.4996 87.6856 89.4817 87.7252 89.4637 87.7431C88.6954 89.0068 88.279 90.1808 88.0241 91.2686L85.6187 91.9939L70.0374 96.6538L60.3153 99.5475L57.0698 100.513C56.9549 100.129 56.8221 99.7306 56.6534 99.2819C51.042 96.8693 53.5945 93.017 50.8517 88.1919C50.7583 88.0088 50.6542 87.858 50.5393 87.6856C50.2091 88.0841 43.8653 97.7596 42.7703 104.793L41.9912 105.005L35.6797 106.897H35.5253C35.4212 93.0673 39.636 83.837 43.517 78.2508C43.7934 77.8702 44.0519 77.5004 44.3284 77.1629C44.594 76.8362 44.8382 76.4808 45.0859 76.2044L45.1003 76.1864C45.1003 76.1577 45.1003 76.1433 45.1003 76.1433C45.2977 75.9459 45.4844 75.6982 45.6891 75.5007C45.7178 75.454 45.7501 75.4181 45.7644 75.3858C45.8255 75.3212 45.8721 75.2673 45.9332 75.2063L53.1673 81.5214L54.2839 82.5086L54.6249 81.945C55.5979 82.1568 56.6138 82.2789 57.6442 82.2789C59.6619 82.2789 66.7991 80.0494 68.3321 79.1411H72.3674C74.2343 80.2613 82.1183 82.2466 84.0498 82.2466C84.696 82.2466 85.3278 82.1999 85.9418 82.1245L86.7101 83.338L88.3184 81.6147L94.235 75.2781C94.2422 75.3104 94.2709 75.3392 94.3104 75.3643C94.3391 75.411 94.3571 75.4289 94.3858 75.4935C94.5869 75.691 94.7628 75.9387 94.971 76.1362C94.971 76.1362 94.9818 76.1469 94.9818 76.1792V76.1972C95.1254 76.3516 95.2654 76.5347 95.4162 76.7321C95.5203 76.8757 95.6244 77.0122 95.7465 77.1522C96.0121 77.4897 96.2778 77.8594 96.5507 78.24C98.1662 80.6202 99.8608 83.618 101.272 87.3087Z" fill="#2C2C2C"/>
<path opacity="0.2" d="M96.5278 78.2653C93.5767 81.8626 87.9258 85.3738 77.5 87.675L83.1509 81.2666L83.5027 80.8825L87.9222 75.867L88.8484 74.8115L91.1282 72.2302C91.279 72.3523 91.4405 72.4851 91.6129 72.6431C91.6954 72.7185 91.7924 72.8083 91.8786 72.8908C91.9719 72.9662 92.076 73.0632 92.173 73.1457C92.2663 73.2463 92.3632 73.3432 92.4745 73.4437H92.4853V73.4545C92.5786 73.5371 92.6755 73.634 92.7797 73.7489C92.8945 73.8602 93.0095 73.9678 93.11 74.0863C93.3362 74.3233 93.5731 74.571 93.81 74.833C93.968 75.0054 94.1116 75.1777 94.2839 75.3573C94.3127 75.3932 94.3486 75.4326 94.3773 75.4685C94.5568 75.6767 94.7435 75.9029 94.9445 76.1506C94.9445 76.1506 94.9517 76.1614 94.9517 76.1722H94.9625V76.183C95.2102 76.4953 95.4543 76.8148 95.72 77.1487C95.9964 77.5077 96.2621 77.8775 96.5278 78.2653Z" fill="#616161"/>
<path d="M97.8705 67.5057C97.8705 68.1483 97.8346 68.7981 97.7305 69.4731C97.4253 71.6128 96.6032 73.8854 94.9661 76.1759V76.1867C93.3936 78.3695 91.0851 80.5595 87.8001 82.6669C87.6099 82.7925 87.3908 82.9254 87.1862 83.0546C85.2727 84.2322 83.0396 85.3846 80.4475 86.4868C80.4008 86.5227 80.3434 86.5407 80.286 86.5694C80.2465 86.5873 80.1998 86.6053 80.1639 86.6196C80.0023 86.6842 79.8515 86.7489 79.69 86.8171C79.2269 87.011 78.7422 87.2048 78.2503 87.3951C78.0062 87.4884 77.7585 87.5854 77.5 87.6787L83.5709 75.9533L85.6532 71.9575L86.1163 71.0456L93.7095 56.4121C93.7095 56.4121 97.8705 61.187 97.8705 67.5057Z" fill="#F9F9F9"/>
<path d="M62.5375 87.6748C58.6565 86.2172 55.4649 84.6555 52.8548 83.0543C52.6466 82.9214 52.4384 82.7886 52.2409 82.6594C45.4915 78.3332 42.8886 73.6589 42.3034 69.4692C42.2065 68.8014 42.167 68.148 42.167 67.5054C42.1706 61.1867 46.3316 56.4189 46.3316 56.4189L62.5375 87.6748Z" fill="#F9F9F9"/>
<path d="M48.9121 75.0089L50.8651 77.6082L49.9855 74.4775L48.9121 75.0089Z" fill="#7D8450"/>
<path d="M55.6719 81.3131L57.6321 83.9087L56.7418 80.7817L55.6719 81.3131Z" fill="#7D8450"/>
<path d="M45.3545 59.4958L47.3039 62.0915L46.4243 58.9573L45.3545 59.4958Z" fill="#7D8450"/>
<path d="M47.9414 64.9493L49.8909 67.5414L49.0112 64.418L47.9414 64.9493Z" fill="#7D8450"/>
<path d="M50.5146 70.4024L52.4641 73.0016L51.5845 69.8674L50.5146 70.4024Z" fill="#7D8450"/>
<path d="M53.0986 75.8562L55.0481 78.4591L54.1685 75.332L53.0986 75.8562Z" fill="#7D8450"/>
<path d="M52.8529 83.0545C52.6447 82.9217 52.4365 82.7888 52.239 82.6596L51.0938 81.1446L52.1636 80.6096L52.8529 83.0545Z" fill="#7D8450"/>
<path d="M43.752 64.0948L45.7086 66.6905L44.8218 63.5671L43.752 64.0948Z" fill="#7D8450"/>
<path d="M46.3291 69.5484L48.2893 72.1512L47.399 69.0278L46.3291 69.5484Z" fill="#7D8450"/>
<path d="M43.1399 70.5894L42.3034 69.4729C42.2065 68.8051 42.167 68.1517 42.167 67.5091L42.2567 67.4624L43.1399 70.5894Z" fill="#7D8450"/>
<path d="M44.8945 74.4526L46.8476 77.0554L45.9644 73.9248L44.8945 74.4526Z" fill="#7D8450"/>
<path d="M91.1252 75.0089L89.1758 77.6082L90.0553 74.4775L91.1252 75.0089Z" fill="#7D8450"/>
<path d="M84.3655 81.3131L82.416 83.9087L83.2956 80.7817L84.3655 81.3131Z" fill="#7D8450"/>
<path d="M94.6731 59.4958L92.7344 62.0915L93.614 58.9573L94.6731 59.4958Z" fill="#7D8450"/>
<path d="M92.0998 64.9493L90.1504 67.5414L91.03 64.418L92.0998 64.9493Z" fill="#7D8450"/>
<path d="M89.5227 70.4024L87.5625 73.0016L88.4529 69.8674L89.5227 70.4024Z" fill="#7D8450"/>
<path d="M86.9397 75.8562L84.9902 78.4591L85.8806 75.332L86.9397 75.8562Z" fill="#7D8450"/>
<path d="M86.9385 81.8335C87.1575 81.7007 88.7372 80.2825 88.7372 80.2825L87.6673 79.7512L86.9385 81.8335Z" fill="#7D8450"/>
<path d="M96.2864 64.0948L94.3369 66.6905L95.2165 63.5671L96.2864 64.0948Z" fill="#7D8450"/>
<path d="M93.7054 69.5484L91.7451 72.1512L92.6355 69.0278L93.7054 69.5484Z" fill="#7D8450"/>
<path d="M97.8727 67.5055C97.8727 68.1482 97.8368 68.7979 97.7326 69.4729L96.8926 70.5858L97.7829 67.4624L97.8727 67.5055Z" fill="#7D8450"/>
<path d="M95.1395 74.4526L93.1865 77.0554L94.0661 73.9248L95.1395 74.4526Z" fill="#7D8450"/>
<path d="M67.8455 60.1743L66.474 62.4361C63.6809 62.4361 61.1822 62.4361 59.7461 62.4182C62.7044 62.4182 65.4867 61.6355 67.8455 60.1743Z" fill="#2C2C2C"/>
<path d="M79.8304 62.4651C78.3728 62.4651 76.0895 62.4651 73.5548 62.4508L72.126 60.189C74.3698 61.5425 76.9978 62.3897 79.8304 62.4651Z" fill="#2C2C2C"/>
<path d="M80.2118 62.4862C80.1544 62.4862 80.0789 62.4862 80.0215 62.4683C81.7519 62.4862 82.1971 62.4862 80.2118 62.4862Z" fill="#2C2C2C"/>
<path d="M98.5081 49.9569C98.526 57.9629 92.0314 64.4503 84.0326 64.4359C82.1011 64.4359 74.2171 62.4506 72.3503 61.3305H68.3149C66.7819 62.2388 59.6447 64.4683 57.6271 64.4683C50.0734 64.4503 43.945 58.3435 43.9307 50.797C43.945 43.6059 49.5062 37.7001 56.55 37.1652C55.9828 35.643 55.6776 34.0059 55.6776 32.2718C55.6776 31.5933 55.7171 30.9183 55.8284 30.2542V30.2398C55.911 29.4536 56.1012 28.6853 56.331 27.9457V27.9313C58.1979 22.0902 63.6585 17.8394 70.1531 17.8287C76.4753 17.8107 81.8713 21.8712 83.8316 27.5364C84.108 28.3083 84.3055 29.0873 84.4275 29.9023C84.5604 30.6742 84.6286 31.4748 84.6286 32.2754C84.6465 33.3956 84.485 34.4618 84.2588 35.5065C92.1571 35.6394 98.5081 42.0514 98.5081 49.9569Z" fill="#2C2C2C"/>
<path opacity="0.2" d="M60.313 99.5365L57.0567 100.509C56.9454 100.132 56.8018 99.7124 56.6402 99.2888C50.8278 96.8008 53.7609 92.769 50.5334 87.6782C50.1816 88.0839 43.845 97.7701 42.75 104.782L41.9745 105.019C40.3051 97.7091 51.3555 85.4631 51.3555 85.4631C51.3555 85.4631 56.31 97.6804 60.313 99.5365Z" fill="#616161"/>
<path opacity="0.2" d="M92.2809 89.9939L91.448 90.2488L91.1931 90.3242C90.4822 89.1394 89.9221 88.2742 89.6672 87.8936C89.5847 87.768 89.5272 87.6962 89.5092 87.6747C88.7051 88.9527 88.2779 90.1482 88.0122 91.2755L85.6104 91.9972C87.3982 88.6368 88.6871 85.4631 88.6871 85.4631C88.6871 85.4631 90.3422 87.3156 92.2809 89.9939Z" fill="#616161"/>
<path opacity="0.2" d="M76.2232 66.737L73.3008 68.9234C72.3351 69.3542 71.3011 69.5875 70.242 69.5875C70.1666 69.5875 70.0805 69.5696 70.0231 69.5696C69.9477 69.5696 69.8723 69.5875 69.804 69.5875C68.745 69.5875 67.711 69.3542 66.7273 68.9234L63.8516 66.7549L64.7599 65.2578C66.5514 66.1482 69.086 67.4442 69.804 67.4442C69.8687 67.4442 69.9476 67.4263 70.0051 67.4263C70.0051 67.4263 70.0051 67.4263 70.0231 67.4263C70.0985 67.4263 70.1666 67.4442 70.242 67.4442C70.9062 67.4442 73.1931 65.9364 74.9918 64.748L76.2232 66.737Z" fill="#616161"/>
<path d="M73.8777 35.0613C72.1831 35.2408 70.7434 36.2819 70.0146 37.7431C69.2858 36.2819 67.857 35.2408 66.1624 35.0613C61.9619 37.4559 58.9678 43.5555 58.9678 50.6999C58.9678 55.7764 60.4828 60.3179 62.8595 63.3839C62.8667 63.4019 62.8774 63.4234 62.8954 63.4414C62.8954 63.4414 62.8954 63.4414 62.8954 63.4521C64.1268 65.0067 65.5736 66.1806 67.164 66.8412C68.0723 67.2146 69.0274 67.4192 70.0146 67.4372C70.0218 67.4372 70.0218 67.4372 70.0218 67.4372C71.0163 67.4192 71.9605 67.211 72.8724 66.8412C74.4629 66.1806 75.9097 65.0067 77.1339 63.4521C77.1411 63.4414 77.1411 63.4414 77.1411 63.4414C77.159 63.4234 77.1698 63.4055 77.1806 63.3839C79.5573 60.3179 81.0687 55.7764 81.0687 50.6999C81.0723 43.5555 78.0817 37.4559 73.8777 35.0613Z" fill="#FDD5B0"/>
<path d="M77.757 33.8693C77.7678 32.0706 69.9484 24.3877 69.9484 24.3877C69.9484 24.3877 62.3265 32.3111 62.3193 33.8405C62.3193 36.4183 64.4088 38.5149 66.9865 38.5149C67.8661 38.5185 68.699 38.2816 69.3991 37.8507L70.67 37.8544C71.3701 38.2816 72.1923 38.5257 73.0719 38.5329C75.6568 38.5401 77.757 36.4542 77.757 33.8693Z" fill="#2C2C2C"/>
<path d="M61.7502 49.7344C61.6928 49.8564 61.6641 49.9821 61.6641 50.1221C61.6641 50.9766 62.7231 51.6695 64.0228 51.6695C65.3188 51.6695 66.3779 50.9766 66.3779 50.1221C66.3779 49.9821 66.342 49.8564 66.2918 49.7344H61.7502Z" fill="#2C2C2C"/>
<path d="M78.2895 49.7344C78.3361 49.8564 78.3721 49.9821 78.3721 50.1221C78.3721 50.9766 77.313 51.6695 76.0169 51.6695C74.7101 51.6695 73.6582 50.9766 73.6582 50.1221C73.6582 49.9821 73.6869 49.8564 73.7336 49.7344H78.2895Z" fill="#2C2C2C"/>
<path d="M73.0939 61.3306H70.0279H70.0207H66.9512C67.5651 62.1455 68.7031 62.702 70.0207 62.7163C70.0279 62.7163 70.0279 62.7163 70.0279 62.7163C71.3419 62.702 72.4764 62.1455 73.0939 61.3306Z" fill="#9C9C9C"/>
<path d="M70.017 61.1652C68.6241 59.5281 66.6387 61.596 66.6387 61.596H70.017H70.0242H73.4025C73.4025 61.596 71.4172 59.5281 70.017 61.1652Z" fill="#2C2C2C"/>
<path opacity="0.2" d="M70.0219 52.3479V52.2939L70.0148 52.3227V52.2939V52.3479L68.2412 58.0023H70.0148H70.0219H71.7919L70.0219 52.3479Z" fill="#616161"/>
<path d="M73.4023 46.3594L78.0803 46.6143H78.1485L78.1772 46.6538L80.0297 48.6822L77.9869 46.8584L78.0803 46.8943L73.4023 47.1241V46.3594Z" fill="#2C2C2C"/>
<path d="M67.0435 47.1241L62.3655 46.8943L62.4624 46.8584L60.4053 48.6822L62.2614 46.6538L62.3009 46.6143H62.3547L67.0327 46.3594L67.0435 47.1241Z" fill="#2C2C2C"/>
<path opacity="0.2" d="M73.6381 19.1534C73.6848 18.8769 73.7136 18.6041 73.7064 18.3169C73.6382 16.3279 71.9472 14.7698 69.9295 14.759C67.8652 14.759 66.106 16.3387 66.0127 18.3923C65.984 18.8446 66.0486 19.279 66.1922 19.6883C64.214 19.8606 62.5123 21.5337 62.3292 23.6159C62.1497 25.9065 63.8837 27.7553 66.1634 27.6584C66.7702 27.6369 68.8992 26.8507 69.3551 26.5563L66.4399 31.8481L73.3115 31.4424L70.5183 26.4988C71.0568 26.8219 73.3294 27.3389 73.8787 27.321C76.1297 27.2204 77.7776 25.2207 77.5981 22.9482C77.4365 20.8156 75.6845 19.157 73.6381 19.1534Z" fill="#616161"/>
<path d="M73.3482 19.2719C73.3949 19.0062 73.4416 18.7369 73.4308 18.4497C73.4487 16.4213 71.8045 14.7662 69.7761 14.759C67.7404 14.759 66.0854 16.389 66.0746 18.4174C66.0746 18.8554 66.15 19.2718 66.29 19.6596C64.5021 19.7924 63.0912 21.2859 63.0732 23.1097C63.0732 25.034 64.6242 26.5886 66.5377 26.5958C67.0511 26.6029 68.8677 26.0428 69.2627 25.8167L66.886 29.8448L72.623 29.8628L70.2859 25.8203C70.7598 26.1039 72.7559 26.6209 73.2477 26.6209C75.2833 26.6317 76.9384 24.9874 76.9384 22.9554C76.9527 20.9521 75.3444 19.3114 73.3482 19.2719Z" fill="#E3B605"/>
<path opacity="0.2" d="M69.7792 26.4701L71.2943 29.0981L68.2355 29.0837L69.7792 26.4701ZM66.5517 25.8346C65.0546 25.8275 63.8447 24.6032 63.8447 23.1133C63.8555 21.7132 64.9613 20.532 66.3543 20.4315L67.3667 20.3561L67.0256 19.4083C66.9107 19.0888 66.8533 18.7621 66.8533 18.4282C66.864 16.827 68.1709 15.5309 69.7721 15.5381C70.5583 15.5381 71.2871 15.8433 71.8364 16.3997C72.3857 16.949 72.6765 17.6778 72.6693 18.4533C72.6765 18.6544 72.6513 18.8554 72.5939 19.1175L72.3929 20.0294L73.3299 20.0473C74.9131 20.076 76.1877 21.3865 76.1805 22.9625C76.1805 23.738 75.8789 24.4668 75.3188 25.0161C74.7695 25.5654 74.0408 25.8634 73.2545 25.8598C72.8847 25.8598 71.0286 25.3751 70.6876 25.1741L70.3393 25.5187L68.8817 25.1669C68.5658 25.3356 66.9107 25.8311 66.5517 25.8346Z" fill="#616161"/>
<path opacity="0.2" d="M73.251 35.1654C73.4592 35.1115 73.6675 35.0792 73.8757 35.0613C73.6675 35.0792 73.4628 35.1115 73.251 35.1654Z" fill="#616161"/>
<path opacity="0.2" d="M72.1055 35.5997C72.145 35.5746 72.1809 35.5638 72.2204 35.5459C72.1845 35.5674 72.145 35.5782 72.1055 35.5997Z" fill="#616161"/>
<path opacity="0.2" d="M96.5397 78.2508C96.2633 77.8703 96.0012 77.5004 95.7355 77.163C95.5847 76.9799 95.4412 76.7932 95.3012 76.6101C95.197 76.4773 95.0749 76.3265 94.9708 76.1972V76.1865V76.1829V76.1757C96.6079 73.8852 97.4337 71.6126 97.7353 69.4729C97.8394 68.7979 97.8753 68.1481 97.8753 67.5055C97.8753 63.962 96.5613 60.9068 95.4124 58.9071C97.3547 56.4371 98.5179 53.3352 98.5071 49.9533C98.5071 42.0477 92.1561 35.6393 84.2614 35.4993C84.4912 34.4546 84.6492 33.3883 84.6312 32.2682C84.6312 31.4676 84.563 30.6706 84.4302 29.8951C84.3081 29.0801 84.1107 28.3011 83.8342 27.5292C82.2546 22.9625 78.431 19.437 73.6956 18.2522C73.5915 16.292 71.9257 14.7662 69.926 14.759C69.8972 14.759 69.8793 14.7662 69.8506 14.7662V96.7042L70.0301 96.6503L85.6005 91.9903V91.9939L88.0024 91.2723V91.2687L88.0131 91.2615C88.2501 90.2742 88.627 89.2151 89.2625 88.0878C89.3379 87.9585 89.3954 87.8365 89.4815 87.7144C89.4815 87.6965 89.4887 87.6821 89.4994 87.6821L89.5066 87.6893C89.5353 87.718 89.582 87.7755 89.6574 87.8903C89.9123 88.2709 90.4724 89.1397 91.1832 90.3209L91.3161 90.2778L91.4417 90.2455L92.2818 89.9834L101.264 87.3052C99.8606 83.6181 98.166 80.6203 96.5397 78.2508Z" fill="#616161"/>
<path d="M43.0928 145.25L43.3046 142.238L43.4482 140.404L44.0047 132.559L44.1447 130.718L44.3134 128.208V128.201L44.4821 125.885L46.2736 125.846L47.1245 125.835L48.8765 125.792L49.871 125.77L51.0809 125.749L53.2206 125.706L55.5973 125.652L66.7662 125.418H66.7949L77.9567 125.652L80.3334 125.706L82.4803 125.749L83.683 125.77L84.6882 125.792L85.557 125.813L86.4366 125.835L87.2803 125.846L89.0682 125.885L89.2405 128.201V128.208L89.4201 130.718L89.5528 132.559L90.1093 140.404L90.253 142.238L90.4612 145.25H43.0928Z" fill="#C9C9C9"/>
<path opacity="0.2" d="M45.042 139.635C47.1817 137.362 53.4681 135.162 58.9753 135.162H59.0328C60.2355 133.629 61.6464 132.465 63.1974 131.798C64.1703 131.381 65.215 131.155 66.2741 131.155C66.3316 131.155 66.4141 131.166 66.4716 131.173C66.4895 131.173 66.4895 131.173 66.5003 131.173V145.246L45.042 139.635Z" fill="#616161"/>
<path d="M35.5156 114.346L44.4982 111.668L45.3455 111.409L45.5932 111.352C46.2969 112.515 46.8641 113.395 47.1226 113.779C47.2052 113.901 47.2554 113.976 47.2841 113.976C47.3021 113.976 47.32 113.93 47.3308 113.915C48.0955 112.648 48.5155 111.481 48.7776 110.393L51.1723 109.668L66.7642 105.008L76.4864 102.115L79.7319 101.145C79.836 101.526 79.976 101.931 80.1484 102.377C85.7634 104.793 83.2071 108.638 85.9536 113.47C86.0362 113.65 86.151 113.811 86.2552 113.976C86.5962 113.581 92.9293 103.902 94.0279 96.873L94.8141 96.6539L101.118 94.762H101.273C101.388 108.595 97.1621 117.829 93.2919 123.408C93.0154 123.795 92.7533 124.165 92.4769 124.503C92.2112 124.826 91.9671 125.185 91.7194 125.461L91.7014 125.472C91.7014 125.508 91.7014 125.519 91.7014 125.519C91.504 125.716 91.3245 125.964 91.1234 126.169C91.0373 126.273 90.9619 126.366 90.8793 126.463C90.786 126.581 90.6711 126.703 90.5669 126.815C90.093 127.335 89.6514 127.813 89.2422 128.215H89.2314C89.1165 128.319 89.034 128.416 88.9191 128.517C88.8257 128.595 88.7396 128.707 88.6426 128.782C88.5493 128.858 88.4631 128.933 88.3698 129.03C88.1974 129.181 88.0467 129.306 87.8851 129.425C87.2712 129.963 86.8906 130.211 86.8906 130.211L85.4223 129.874L85.1782 129.813L84.6001 129.644L84.4422 129.629L82.4173 129.705L79.2759 129.827L75.9443 129.967L66.793 130.337H66.775L57.4299 129.953L54.2777 129.83L51.1435 129.708L49.1079 129.633L48.9392 129.647L48.3719 129.816L48.1063 129.877L46.6666 130.215C46.6666 130.215 46.2789 129.967 45.665 129.428C45.5106 129.31 45.3562 129.184 45.1731 129.033C45.0977 128.94 45.0044 128.861 44.9146 128.786C44.8213 128.71 44.728 128.599 44.6346 128.52L44.3294 128.219H44.3151C44.2217 128.136 44.1284 128.032 44.0207 127.906C43.913 127.816 43.7909 127.709 43.6868 127.569C43.4678 127.339 43.2237 127.106 42.9903 126.818C42.8503 126.696 42.7283 126.556 42.5918 126.384C42.5739 126.352 42.5451 126.323 42.5164 126.291C42.4841 126.244 42.4697 126.23 42.4374 126.176C42.2364 125.971 42.0533 125.723 41.8558 125.526C41.8558 125.526 41.8415 125.515 41.8415 125.479V125.468C41.5902 125.192 41.346 124.833 41.0696 124.51C40.8111 124.172 40.5454 123.803 40.269 123.415C38.6247 121.038 36.9337 118.037 35.5156 114.346Z" fill="#FDD5B0"/>
<path opacity="0.2" d="M66.786 120.209H64.7324L65.6515 112.802C66.0213 112.784 66.409 112.774 66.786 112.763V120.209Z" fill="#616161"/>
<path opacity="0.2" d="M66.7754 145.243L89.4867 141.908C85.9468 136.929 79.804 135.162 74.2931 135.162H74.2357C72.2755 132.671 69.7588 131.156 66.9944 131.156C66.919 131.156 66.8436 131.17 66.7754 131.17V145.243Z" fill="#616161"/>
<path opacity="0.2" d="M66.7754 120.209H68.829L67.9099 112.802C67.5329 112.784 67.1524 112.774 66.7754 112.763V120.209Z" fill="#616161"/>
<path opacity="0.2" d="M74.2646 113.984C84.6761 116.285 90.3377 119.789 93.2816 123.393C91.1311 126.488 89.0704 128.441 87.8964 129.443L74.2646 113.984Z" fill="#616161"/>
<path d="M66.7761 134.232C66.8443 134.232 66.9197 134.218 66.9951 134.218C68.0291 134.218 69.0199 134.433 69.9677 134.824C70.0252 134.58 70.061 134.329 70.061 134.063V132.739C69.0881 132.311 68.0542 132.085 66.9915 132.085C66.9161 132.085 66.8407 132.096 66.7725 132.096V134.232H66.7761Z" fill="#FDD5B0"/>
<path d="M66.7754 137.23C66.8041 137.23 66.8436 137.244 66.8903 137.244C68.3838 137.244 69.626 136.207 69.9671 134.821C69.0193 134.43 68.0284 134.214 66.9944 134.214C66.919 134.214 66.8436 134.228 66.7754 134.228V137.23Z" fill="#FDD5B0"/>
<path d="M48.4871 130.588L54.0159 130.663L63.4903 130.786V132.735C64.4668 132.308 65.4972 132.082 66.567 132.082C66.6352 132.082 66.6999 132.089 66.7753 132.092C66.786 132.092 66.786 132.092 66.786 132.092C66.8507 132.089 66.9189 132.082 66.9943 132.082C68.0534 132.082 69.0873 132.308 70.0638 132.735V130.786L79.549 130.663L85.0779 130.588C86.0436 128.901 85.6164 128.736 85.6164 126.793C85.6164 121.961 82.2847 117.703 77.2118 115.179C77.1831 115.161 77.1723 115.15 77.1436 115.147C76.2353 114.702 75.2696 114.307 74.2679 113.984C72.2969 113.334 70.1572 112.925 67.9133 112.81C67.7913 112.802 67.6692 112.792 67.5471 112.785C67.2994 112.774 67.0445 112.774 66.7896 112.767C66.7896 112.767 66.7896 112.767 66.7789 112.767C66.524 112.774 66.269 112.777 66.0213 112.785C65.8992 112.792 65.7772 112.799 65.6515 112.81C63.4077 112.928 61.2572 113.334 59.297 113.984C58.2846 114.307 57.3188 114.702 56.4105 115.147C56.3926 115.15 56.3818 115.158 56.3531 115.179C51.2766 117.703 47.9485 121.965 47.9485 126.793C47.9485 128.732 47.5105 128.901 48.4871 130.588Z" fill="#FDD5B0"/>
<path opacity="0.2" d="M74.2646 113.984C75.2771 114.364 76.232 114.752 77.1403 115.147C77.1691 115.15 77.1799 115.158 77.2086 115.179C82.2815 117.703 85.6131 121.965 85.6131 126.793C85.6131 128.736 86.0403 128.901 85.0746 130.588L79.5458 130.663L74.2646 113.984Z" fill="#616161"/>
<path opacity="0.2" d="M59.297 113.984C58.2738 114.364 57.3188 114.752 56.4105 115.147C56.3926 115.15 56.3818 115.158 56.3531 115.179C51.2766 117.703 47.9485 121.965 47.9485 126.793C47.9485 128.736 47.5105 128.901 48.4871 130.588L54.0159 130.663L59.297 113.984Z" fill="#616161"/>
<path d="M66.787 134.232C66.7116 134.232 66.6362 134.218 66.5679 134.218C65.5376 134.218 64.5431 134.433 63.5953 134.824C63.5271 134.58 63.4912 134.329 63.4912 134.063V132.739C64.4677 132.311 65.4981 132.085 66.5679 132.085C66.6433 132.085 66.7116 132.096 66.787 132.096V134.232Z" fill="#FDD5B0"/>
<path d="M66.7874 137.23C66.7479 137.23 66.7119 137.244 66.6724 137.244C65.1753 137.244 63.9368 136.207 63.5957 134.821C64.5435 134.43 65.538 134.214 66.5684 134.214C66.6366 134.214 66.712 134.228 66.7874 134.228V137.23Z" fill="#FDD5B0"/>
<path d="M35.5156 114.346L44.4982 111.668L45.3455 111.409L45.5932 111.352C46.2969 112.515 46.8641 113.395 47.1226 113.779C47.2052 113.901 47.2554 113.976 47.2841 113.976C47.3021 113.976 47.32 113.93 47.3308 113.915C48.0955 112.648 48.5155 111.481 48.7776 110.393L51.1723 109.668L66.7642 105.008L76.4864 102.115L79.7319 101.145C79.836 101.526 79.976 101.931 80.1484 102.377C85.7634 104.793 83.2071 108.638 85.9536 113.47C86.0362 113.65 86.151 113.811 86.2552 113.976C86.5962 113.581 92.9293 103.902 94.0279 96.873L94.8141 96.6539L101.118 94.762H101.273C101.388 108.595 97.1621 117.829 93.2919 123.408C93.0154 123.795 92.7533 124.165 92.4769 124.503C92.2112 124.826 91.9671 125.185 91.7194 125.461L91.7014 125.472C91.7014 125.508 91.7014 125.519 91.7014 125.519C91.504 125.716 91.3245 125.964 91.1234 126.169C91.0839 126.208 91.0552 126.237 91.0372 126.273C90.9798 126.334 90.9332 126.395 90.8793 126.463L83.6452 120.134L82.5178 119.15L82.1768 119.717C81.211 119.505 80.1986 119.383 79.1682 119.383C77.1541 119.383 70.0134 121.613 68.4732 122.521H64.4379C62.5817 121.401 54.687 119.416 52.7663 119.416C52.1237 119.416 51.4882 119.459 50.8743 119.534L50.1096 118.324L48.4904 120.047L42.5846 126.384C42.5667 126.352 42.5379 126.323 42.5092 126.291C42.4769 126.244 42.4625 126.23 42.4302 126.176C42.2292 125.971 42.0461 125.723 41.8487 125.526C41.8487 125.526 41.8343 125.515 41.8343 125.479V125.468C41.6978 125.311 41.5543 125.127 41.4035 124.93C41.2958 124.786 41.1845 124.65 41.0624 124.514C40.8039 124.176 40.5383 123.806 40.2618 123.418C38.6247 121.038 36.9337 118.037 35.5156 114.346Z" fill="#2C2C2C"/>
<path opacity="0.2" d="M40.2666 123.393C43.2249 119.796 48.8758 116.289 59.2872 113.984L53.6363 120.396L53.2952 120.78L48.8758 125.792L47.9495 126.851L45.6626 129.432C45.5082 129.31 45.3502 129.177 45.1779 129.019C45.0953 128.944 44.9984 128.854 44.9123 128.771C44.8118 128.696 44.7184 128.603 44.6214 128.517C44.5245 128.416 44.4276 128.319 44.3163 128.215H44.3091V128.208C44.2086 128.125 44.1152 128.028 44.0111 127.906C43.8962 127.798 43.7814 127.694 43.6808 127.576C43.4511 127.339 43.2213 127.091 42.9807 126.826C42.8228 126.657 42.6756 126.485 42.5141 126.305C42.4817 126.273 42.4458 126.23 42.4135 126.194C42.2304 125.982 42.0402 125.756 41.8499 125.512C41.8499 125.512 41.8427 125.501 41.8427 125.494H41.8283V125.479C41.5842 125.171 41.3365 124.851 41.0672 124.521C40.7944 124.151 40.5323 123.781 40.2666 123.393Z" fill="#616161"/>
<path d="M38.9248 134.153C38.9248 133.51 38.9571 132.861 39.0684 132.186C39.3664 130.046 40.1921 127.77 41.8292 125.483V125.468C43.4053 123.289 45.7066 121.103 48.9916 118.992C49.189 118.866 49.3973 118.737 49.6163 118.608C51.519 117.43 53.7629 116.278 56.3586 115.176C56.4052 115.143 56.4627 115.118 56.5093 115.093C56.556 115.075 56.6027 115.053 56.6422 115.043C56.8037 114.978 56.9545 114.913 57.1161 114.845C57.5792 114.651 58.0639 114.457 58.5557 114.267C58.7999 114.17 59.0476 114.077 59.2953 113.98L53.2244 125.702L51.1528 129.698L50.679 130.617L43.0966 145.247C43.0966 145.247 38.9248 140.472 38.9248 134.153Z" fill="#F9F9F9"/>
<path d="M74.2646 113.984C78.1456 115.445 81.3337 117.007 83.9473 118.608C84.1555 118.741 84.3637 118.873 84.5612 119.003C91.2999 123.329 93.9135 128.003 94.4915 132.189C94.5849 132.864 94.6351 133.514 94.6351 134.157C94.6244 140.472 90.4598 145.247 90.4598 145.247L74.2646 113.984Z" fill="#F9F9F9"/>
<path d="M87.886 126.65L85.9365 124.047L86.8161 127.181L87.886 126.65Z" fill="#7D8450"/>
<path d="M81.1155 120.345L79.166 117.742L80.0564 120.877L81.1155 120.345Z" fill="#7D8450"/>
<path d="M91.4449 142.166L89.4883 139.567L90.3678 142.697L91.4449 142.166Z" fill="#7D8450"/>
<path d="M88.8606 136.709L86.9111 134.117L87.7907 137.244L88.8606 136.709Z" fill="#7D8450"/>
<path d="M86.2835 131.256L84.3232 128.656L85.2136 131.787L86.2835 131.256Z" fill="#7D8450"/>
<path d="M83.6994 125.799L81.75 123.203L82.6296 126.327L83.6994 125.799Z" fill="#7D8450"/>
<path d="M83.9482 118.604C84.1565 118.737 84.3647 118.87 84.5621 118.999L85.7074 120.514L84.6304 121.045L83.9482 118.604Z" fill="#7D8450"/>
<path d="M93.0461 137.56L91.0967 134.968L91.9762 138.091L93.0461 137.56Z" fill="#7D8450"/>
<path d="M90.4592 132.11L88.5098 129.511L89.4001 132.638L90.4592 132.11Z" fill="#7D8450"/>
<path d="M93.6523 131.073L94.4924 132.186C94.5858 132.861 94.636 133.51 94.636 134.153L94.5426 134.2L93.6523 131.073Z" fill="#7D8450"/>
<path d="M91.8994 127.199L89.9463 124.607L90.8295 127.73L91.8994 127.199Z" fill="#7D8450"/>
<path d="M45.6699 126.65L47.6265 124.047L46.747 127.181L45.6699 126.65Z" fill="#7D8450"/>
<path d="M52.4326 120.345L54.3856 117.742L53.5024 120.877L52.4326 120.345Z" fill="#7D8450"/>
<path d="M42.1113 142.166L44.068 139.567L43.1812 142.697L42.1113 142.166Z" fill="#7D8450"/>
<path d="M44.6914 136.709L46.6516 134.117L45.7612 137.244L44.6914 136.709Z" fill="#7D8450"/>
<path d="M47.2754 131.256L49.2285 128.656L48.3453 131.787L47.2754 131.256Z" fill="#7D8450"/>
<path d="M49.8594 125.799L51.8088 123.203L50.9185 126.327L49.8594 125.799Z" fill="#7D8450"/>
<path d="M49.8592 119.821C49.6402 119.954 48.0605 121.372 48.0605 121.372L49.1304 121.907L49.8592 119.821Z" fill="#7D8450"/>
<path d="M40.5117 137.56L42.4612 134.968L41.578 138.091L40.5117 137.56Z" fill="#7D8450"/>
<path d="M43.0889 132.11L45.0419 129.511L44.1623 132.638L43.0889 132.11Z" fill="#7D8450"/>
<path d="M38.9248 134.153C38.9248 133.51 38.9571 132.861 39.0684 132.186L39.8977 131.073L39.011 134.196L38.9248 134.153Z" fill="#7D8450"/>
<path d="M41.6514 127.199L43.608 124.607L42.7284 127.73L41.6514 127.199Z" fill="#7D8450"/>
<path d="M68.9531 141.481L70.3174 139.222C73.1177 139.222 75.6092 139.222 77.0597 139.237C74.0834 139.237 71.3011 140.023 68.9531 141.481Z" fill="#2C2C2C"/>
<path d="M56.9668 139.19C58.4244 139.19 60.7041 139.19 63.2424 139.208L64.6712 141.47C62.431 140.113 59.7994 139.265 56.9668 139.19Z" fill="#2C2C2C"/>
<path d="M56.5788 139.176C56.6434 139.176 56.7188 139.176 56.7799 139.19C55.0458 139.176 54.5899 139.176 56.5788 139.176Z" fill="#2C2C2C"/>
<path d="M38.2901 151.698C38.2757 143.699 44.7703 137.204 52.7691 137.222C54.6899 137.222 62.5846 139.211 64.4407 140.331H68.476C70.0198 139.423 77.157 137.197 79.171 137.197C86.7247 137.208 92.8387 143.322 92.8603 150.869C92.8423 158.056 87.2956 163.958 80.2517 164.5C80.819 166.026 81.1241 167.652 81.1241 169.394C81.1241 170.072 81.0882 170.747 80.9733 171.408V171.426C80.88 172.212 80.6969 172.98 80.4707 173.716V173.727C78.6038 179.575 73.1432 183.826 66.6486 183.837C60.3228 183.851 54.9196 179.791 52.9702 174.133C52.6938 173.364 52.4963 172.578 52.3742 171.76C52.2306 170.995 52.1767 170.194 52.1767 169.394C52.1588 168.274 52.3096 167.215 52.5465 166.163C44.641 166.023 38.2901 159.611 38.2901 151.698Z" fill="#2C2C2C"/>
<path opacity="0.2" d="M76.4912 102.114L79.7475 101.149C79.8624 101.526 79.9952 101.942 80.1532 102.369C85.9764 104.864 83.0396 108.889 86.2708 113.973C86.6226 113.578 92.952 103.881 94.0506 96.8764L94.8261 96.6394C96.4919 103.949 85.4379 116.195 85.4379 116.195C85.4379 116.195 80.4978 103.974 76.4912 102.114Z" fill="#616161"/>
<path opacity="0.2" d="M44.5195 111.664L45.3524 111.409L45.6145 111.338C46.3182 112.512 46.8819 113.384 47.1368 113.764C47.2229 113.883 47.2696 113.958 47.2983 113.98C48.0953 112.705 48.5297 111.503 48.7954 110.383L51.19 109.665C49.4021 113.025 48.124 116.195 48.124 116.195C48.124 116.195 46.4654 114.346 44.5195 111.664Z" fill="#616161"/>
<path opacity="0.2" d="M60.5771 134.925L63.4924 132.738C64.4689 132.308 65.4993 132.074 66.562 132.074C66.6373 132.074 66.7128 132.092 66.781 132.092C66.8564 132.092 66.9317 132.074 66.9892 132.074C68.0591 132.074 69.0822 132.308 70.0659 132.738L72.9452 134.907L72.0441 136.404C70.2526 135.51 67.718 134.218 66.9892 134.218C66.9317 134.218 66.8563 134.232 66.7917 134.232C66.7917 134.232 66.7917 134.232 66.781 134.232C66.7056 134.232 66.6373 134.218 66.562 134.218C65.8978 134.218 63.6072 135.729 61.8086 136.914L60.5771 134.925Z" fill="#616161"/>
<path d="M62.9268 166.597C64.6213 166.418 66.0502 165.376 66.779 163.908C67.5078 165.376 68.9367 166.418 70.642 166.597C74.8461 164.199 77.8259 158.103 77.8259 150.958C77.8259 145.882 76.3216 141.34 73.9449 138.274C73.927 138.256 73.9162 138.235 73.9054 138.217C73.9054 138.217 73.9054 138.217 73.8947 138.206C72.674 136.652 71.2236 135.471 69.6368 134.817C68.7285 134.444 67.7699 134.239 66.7862 134.221V134.218C66.7862 134.218 66.7862 134.218 66.7754 134.218V134.221C65.7809 134.239 64.826 134.447 63.9177 134.817C62.3272 135.471 60.8804 136.652 59.6562 138.206C59.6562 138.217 59.6562 138.217 59.649 138.217C59.6382 138.231 59.631 138.253 59.6202 138.274C57.2436 141.34 55.7285 145.882 55.7285 150.958C55.7321 158.103 58.7227 164.199 62.9268 166.597Z" fill="#FDD5B0"/>
<path d="M59.041 167.796C59.0338 169.588 66.8496 177.271 66.8496 177.271C66.8496 177.271 74.4715 169.347 74.4715 167.818C74.4823 165.24 72.3892 163.136 69.8043 163.136C68.9247 163.133 68.0989 163.373 67.4025 163.804L66.1316 163.8C65.4315 163.373 64.6093 163.129 63.7261 163.122C61.1448 163.118 59.041 165.204 59.041 167.796Z" fill="#2C2C2C"/>
<path d="M75.0502 151.92C75.0969 151.802 75.1328 151.676 75.1328 151.536C75.1328 150.682 74.0737 149.981 72.7777 149.981C71.4816 149.981 70.4189 150.678 70.4189 151.536C70.4189 151.676 70.4477 151.802 70.4943 151.92H75.0502Z" fill="#2C2C2C"/>
<path d="M58.5139 151.92C58.4565 151.802 58.4277 151.676 58.4277 151.536C58.4277 150.682 59.4796 149.981 60.7865 149.981C62.0825 149.981 63.1452 150.678 63.1452 151.536C63.1452 151.676 63.1057 151.802 63.0591 151.92H58.5139Z" fill="#2C2C2C"/>
<path d="M63.7119 140.335H66.7779H66.7887H69.8547C69.2407 139.513 68.1027 138.956 66.7887 138.945C66.7887 138.945 66.7887 138.942 66.7779 138.942C65.4639 138.953 64.3258 139.513 63.7119 140.335Z" fill="#9C9C9C"/>
<path d="M66.7777 140.496C68.1779 142.13 70.1668 140.062 70.1668 140.062H66.7885H66.7777H63.3994C63.3994 140.062 65.3776 142.126 66.7777 140.496Z" fill="#2C2C2C"/>
<path opacity="0.2" d="M66.7788 149.31V149.364V149.332L66.7896 149.364V149.31L68.5559 143.659H66.7896H66.7788H64.998L66.7788 149.31Z" fill="#616161"/>
<path d="M63.3973 155.295L58.7229 155.047L58.6583 155.04L58.6188 155L56.7734 152.976L58.8198 154.803L58.7229 154.76L63.3973 154.534V155.295Z" fill="#2C2C2C"/>
<path d="M69.7598 154.534L74.4377 154.76L74.3444 154.803L76.3979 152.976L74.5418 155L74.506 155.04L74.4377 155.047L69.7598 155.295V154.534Z" fill="#2C2C2C"/>
<path opacity="0.2" d="M63.1574 182.508C63.1 182.778 63.0748 183.051 63.0928 183.341C63.1574 185.334 64.8448 186.892 66.8696 186.896C68.9339 186.899 70.6931 185.32 70.79 183.27C70.808 182.817 70.7433 182.379 70.6105 181.973C72.5887 181.794 74.294 180.132 74.4628 178.046C74.6423 175.755 72.919 173.906 70.6285 174C70.0325 174.018 67.8928 174.808 67.4476 175.098L70.352 169.81L63.4877 170.212L66.27 175.152C65.7387 174.829 63.4697 174.309 62.9169 174.33C60.6658 174.431 59.0179 176.43 59.1867 178.699C59.3554 180.843 61.1074 182.498 63.1574 182.508Z" fill="#616161"/>
<path d="M63.4529 182.387C63.3954 182.652 63.3595 182.921 63.3595 183.209C63.3487 185.237 64.9966 186.892 67.0214 186.899C69.057 186.899 70.7013 185.266 70.7121 183.234C70.7121 182.799 70.6367 182.376 70.5039 181.995C72.2918 181.862 73.7027 180.365 73.7135 178.545C73.7243 176.624 72.1697 175.066 70.249 175.052C69.7356 175.052 67.9226 175.612 67.5313 175.835L69.9079 171.81L64.1601 171.792L66.5081 175.835C66.0342 175.551 64.0273 175.03 63.5462 175.03C61.5106 175.02 59.8555 176.667 59.8448 178.692C59.8376 180.703 61.446 182.34 63.4529 182.387Z" fill="#E3B605"/>
<path opacity="0.2" d="M67.0236 175.188L65.5086 172.56L68.5674 172.567L67.0236 175.188ZM70.2512 175.823C71.7483 175.834 72.9582 177.055 72.951 178.541C72.9402 179.941 71.8416 181.119 70.4414 181.23L69.4398 181.298L69.7809 182.257C69.8958 182.573 69.9496 182.9 69.9496 183.237C69.9424 184.831 68.6356 186.134 67.0273 186.127C66.2518 186.127 65.523 185.822 64.9737 185.266C64.4244 184.713 64.13 183.987 64.13 183.212C64.13 183.004 64.1587 182.806 64.2054 182.544L64.4136 181.636L63.4766 181.618C61.8969 181.582 60.6188 180.275 60.626 178.703C60.626 177.92 60.9312 177.191 61.4769 176.649C62.0262 176.1 62.7657 175.798 63.5412 175.802C63.9182 175.806 65.7743 176.29 66.1081 176.491L66.4672 176.147L67.9248 176.498C68.2335 176.326 69.8814 175.823 70.2512 175.823Z" fill="#616161"/>
<path opacity="0.2" d="M63.5368 166.493C63.3393 166.54 63.1311 166.576 62.9229 166.597C63.1311 166.579 63.3393 166.543 63.5368 166.493Z" fill="#616161"/>
<path opacity="0.2" d="M64.6924 166.059C64.6565 166.077 64.6098 166.095 64.5703 166.116C64.6062 166.095 64.6529 166.077 64.6924 166.059Z" fill="#616161"/>
<path opacity="0.2" d="M64.1331 166.31C64.0649 166.331 64.0002 166.353 63.9248 166.371C64.0002 166.353 64.0685 166.335 64.1331 166.31Z" fill="#616161"/>
<path opacity="0.2" d="M40.2553 123.404C40.5317 123.792 40.7938 124.162 41.0559 124.499C41.2138 124.679 41.3538 124.869 41.4974 125.048C41.6051 125.188 41.7164 125.332 41.8277 125.465C41.8277 125.472 41.8277 125.476 41.8277 125.476V125.486C40.1906 127.77 39.3649 130.049 39.0669 132.189C38.9592 132.864 38.9233 133.514 38.9233 134.157C38.9233 137.696 40.2301 140.755 41.3826 142.755C39.4439 145.225 38.2807 148.323 38.2879 151.702C38.2879 159.614 44.6388 166.026 52.5407 166.163C52.3038 167.211 52.153 168.274 52.171 169.394C52.171 170.194 52.2284 170.995 52.3684 171.76C52.4941 172.582 52.6915 173.365 52.9644 174.133C54.544 178.696 58.3604 182.218 63.103 183.403C63.2071 185.366 64.8729 186.892 66.869 186.896C66.8977 186.896 66.9157 186.892 66.9444 186.892V104.954L66.7649 105.008L51.1837 109.665L48.7891 110.383C48.7891 110.383 48.7891 110.386 48.7891 110.393H48.7783C48.5413 111.381 48.1644 112.44 47.5181 113.567C47.4535 113.689 47.3853 113.818 47.3099 113.944C47.2991 113.958 47.292 113.976 47.2812 113.976C47.2812 113.976 47.2812 113.969 47.2704 113.969C47.2525 113.94 47.2022 113.883 47.1268 113.772C46.8719 113.391 46.3082 112.519 45.6046 111.345L45.4682 111.384L45.3425 111.413L44.4952 111.671L35.5127 114.35C36.9344 118.037 38.6253 121.038 40.2553 123.404Z" fill="#616161"/>
<path d="M25.5637 39.664C25.6211 39.3732 25.6606 39.0788 25.657 38.7736C25.6606 36.5764 23.8727 34.7922 21.6755 34.7993C19.4747 34.8029 17.6941 36.5729 17.6941 38.7736C17.6941 39.2511 17.7802 39.6999 17.931 40.1199C15.9887 40.2707 14.4665 41.8934 14.4629 43.8716C14.4665 45.9467 16.1539 47.6269 18.2362 47.6305C18.7855 47.6341 20.7493 47.0202 21.1765 46.7761L18.6239 51.1488L24.8384 51.1381L22.2823 46.7761C22.7921 47.0812 24.9641 47.6269 25.4918 47.6269C27.6962 47.6269 29.4805 45.839 29.4769 43.6419C29.4805 41.4626 27.7285 39.6999 25.5637 39.664Z" fill="#2C2C2C"/>
<path opacity="0.2" d="M25.5633 39.664C25.6207 39.3732 25.6602 39.0788 25.6566 38.7736C25.6602 36.5764 23.8723 34.7922 21.6751 34.7993C21.6751 34.7993 21.6644 34.7993 21.6572 34.7993V51.1416L24.838 51.1381L22.2819 46.7761C22.7917 47.0812 24.9637 47.6269 25.4915 47.6269C27.6958 47.6269 29.4801 45.839 29.4765 43.6419C29.4801 41.4626 27.7282 39.6999 25.5633 39.664Z" fill="#616161"/>
<path d="M119.335 158.796C119.277 159.087 119.231 159.381 119.241 159.693C119.234 161.887 121.022 163.668 123.216 163.661C125.42 163.657 127.201 161.887 127.201 159.693C127.201 159.212 127.118 158.76 126.964 158.344C128.903 158.193 130.428 156.57 130.428 154.595C130.428 152.517 128.745 150.837 126.662 150.833C126.113 150.833 124.142 151.443 123.718 151.695L126.275 147.322L120.056 147.325L122.613 151.695C122.103 151.382 119.934 150.844 119.403 150.837C117.199 150.837 115.418 152.624 115.418 154.822C115.414 156.997 117.166 158.767 119.335 158.796Z" fill="#2C2C2C"/>
<path opacity="0.2" d="M119.335 158.796C119.277 159.087 119.23 159.381 119.241 159.694C119.234 161.887 121.022 163.668 123.215 163.661C123.223 163.661 123.223 163.661 123.233 163.661V147.318L120.053 147.322L122.609 151.691C122.099 151.379 119.93 150.84 119.399 150.833C117.195 150.833 115.414 152.621 115.414 154.818C115.414 156.997 117.166 158.767 119.335 158.796Z" fill="#616161"/>
<path d="M14.4538 21.3867C14.4538 18.9857 15.0575 17.1129 16.2649 15.7683C17.486 14.41 19.2079 13.7308 21.4306 13.7308C23.6533 13.7308 25.3272 14.3757 26.4523 15.6654C27.591 16.9414 28.1604 18.7593 28.1604 21.1192C28.1604 25.6057 26.2121 28.0274 22.3156 28.3841V28.5282C23.0976 28.6105 23.6739 28.8232 24.0443 29.1662C24.4285 29.5092 24.7166 29.9619 24.9087 30.5245C25.1008 31.1007 25.2723 31.4918 25.4232 31.6976C25.5742 31.9034 25.8005 32.0063 26.1024 32.0063C26.6238 32.0063 26.9325 31.4575 27.0285 30.3598L27.4813 30.401C27.4538 31.3065 27.1726 31.9994 26.6375 32.4796C26.1024 32.9598 25.3546 33.1999 24.3942 33.1999C23.4475 33.1999 22.7135 32.9598 22.1921 32.4796C21.6707 32.0131 21.2728 31.3203 20.9984 30.401C20.8201 29.8385 20.6691 29.4749 20.5457 29.3102C20.4222 29.1456 20.2644 29.0633 20.0723 29.0633C19.6881 29.0633 19.1805 29.3445 18.5494 29.9071L18.2612 29.5778C18.81 29.029 19.4343 28.6928 20.134 28.5693V28.4458C18.2681 28.2538 16.8549 27.5472 15.8945 26.3261C14.9341 25.105 14.4538 23.4585 14.4538 21.3867ZM23.9209 22.0042V20.4812C23.9209 17.9704 23.7974 16.3857 23.5504 15.7271C23.276 14.9725 22.885 14.506 22.3773 14.3276C22.0892 14.2179 21.7393 14.163 21.3277 14.163C20.9161 14.163 20.5594 14.2179 20.2575 14.3276C19.9694 14.4374 19.7293 14.6295 19.5372 14.9039C19.3451 15.1783 19.1873 15.4664 19.0639 15.7683C18.9541 16.0701 18.8649 16.4955 18.7963 17.0443C18.714 17.84 18.6728 19.0131 18.6728 20.5635V22.0453C18.6728 23.7192 18.7346 24.9129 18.8581 25.6263C18.9953 26.3261 19.1599 26.8269 19.352 27.1287C19.7773 27.801 20.4359 28.1371 21.3277 28.1371C22.4116 28.1371 23.1114 27.6844 23.4269 26.7788C23.7562 25.8596 23.9209 24.268 23.9209 22.0042Z" fill="#2C2C2C"/>
<path d="M129.927 179.995C129.927 182.396 129.323 184.268 128.116 185.613C126.895 186.971 125.173 187.651 122.95 187.651C120.728 187.651 119.054 187.006 117.929 185.716C116.79 184.44 116.22 182.622 116.22 180.262C116.22 175.776 118.169 173.354 122.065 172.997L122.065 172.853C121.283 172.771 120.707 172.558 120.337 172.215C119.952 171.872 119.664 171.419 119.472 170.857C119.28 170.281 119.109 169.89 118.958 169.684C118.807 169.478 118.58 169.375 118.278 169.375C117.757 169.375 117.448 169.924 117.352 171.022L116.9 170.98C116.927 170.075 117.208 169.382 117.743 168.902C118.278 168.422 119.026 168.181 119.987 168.181C120.933 168.181 121.667 168.422 122.189 168.902C122.71 169.368 123.108 170.061 123.382 170.98C123.561 171.543 123.712 171.906 123.835 172.071C123.959 172.236 124.116 172.318 124.309 172.318C124.693 172.318 125.2 172.037 125.832 171.474L126.12 171.804C125.571 172.352 124.947 172.689 124.247 172.812L124.247 172.935C126.113 173.128 127.526 173.834 128.486 175.055C129.447 176.276 129.927 177.923 129.927 179.995ZM120.46 179.377L120.46 180.9C120.46 183.411 120.583 184.996 120.83 185.654C121.105 186.409 121.496 186.875 122.004 187.054C122.292 187.163 122.642 187.218 123.053 187.218C123.465 187.218 123.821 187.163 124.123 187.054C124.411 186.944 124.652 186.752 124.844 186.477C125.036 186.203 125.194 185.915 125.317 185.613C125.427 185.311 125.516 184.886 125.585 184.337C125.667 183.541 125.708 182.368 125.708 180.818L125.708 179.336C125.708 177.662 125.646 176.468 125.523 175.755C125.386 175.055 125.221 174.554 125.029 174.253C124.604 173.58 123.945 173.244 123.053 173.244C121.969 173.244 121.27 173.697 120.954 174.603C120.625 175.522 120.46 177.113 120.46 179.377Z" fill="#2C2C2C"/>
</svg>
