<svg width="143" height="200" viewBox="0 0 143 200" fill="none" xmlns="http://www.w3.org/2000/svg">
<path d="M15.7751 199.673C7.33471 199.691 0.452404 192.952 0.430863 184.659L3.509e-05 15.1074C-0.0179156 6.76027 6.85363 -0.0143378 15.3156 2.27887e-05L127.361 0.208246C135.797 0.219017 142.655 7.008 142.655 15.3336V184.526C142.655 192.798 135.826 199.537 127.418 199.548L15.7751 199.673Z" fill="#C9C9C9"/>
<path d="M16.4924 199.461C8.16687 199.461 1.38867 192.708 1.38867 184.412V15.2582C1.38867 6.96132 8.16687 0.208252 16.4924 0.208252H126.911C135.237 0.208252 142.011 6.96491 142.011 15.2582V184.412C142.011 192.712 135.237 199.461 126.911 199.461H16.4924Z" fill="#F1EAD8"/>
<path d="M127.557 196.08H17.1388C10.6873 196.08 5.43848 190.856 5.43848 184.426V15.2762C5.43848 9.10475 10.3462 4.06419 12.9778 3.09844L13.3619 2.95483L124.373 2.96204C135.348 3.81649 139.258 9.88382 139.258 15.2726V184.422C139.258 190.856 134.012 196.08 127.557 196.08ZM14.299 7.58254C13.1106 8.32929 10.0626 11.442 10.0626 15.2798V184.43C10.0626 188.303 13.2399 191.456 17.1388 191.456H127.557C131.46 191.456 134.637 188.303 134.637 184.43V15.2798C134.637 11.0004 130.699 8.12106 124.096 7.58254H14.299Z" fill="#2C2C2C"/>
<path d="M93.8432 56.4951L93.6314 59.5144L93.4878 61.349L92.9313 69.2042L92.7949 71.0495L92.6226 73.5591V73.5698L92.4538 75.8891L90.6588 75.9249L89.8115 75.9394L88.0559 75.9824L87.0578 76.0004L85.8444 76.0255L83.701 76.0686L81.3208 76.1188L70.1303 76.3558H70.1123L58.929 76.1188L56.5488 76.0686L54.4055 76.0255L53.192 76.0004L52.1939 75.9824L51.3179 75.9573L50.4312 75.9394L49.5839 75.9249L47.796 75.8891L47.6237 73.5698V73.5591L47.4513 71.0495L47.3113 69.2042L46.7584 61.349L46.6184 59.5144L46.3994 56.4951H93.8432Z" fill="#C9C9C9"/>
<path opacity="0.2" d="M91.6757 56.4951C88.1394 61.4926 83.1599 66.6013 77.649 66.6013H77.5844C76.3889 68.1271 74.9707 69.2976 73.4162 69.9653C72.4433 70.389 71.3985 70.608 70.3394 70.608C70.2712 70.608 70.1994 70.5972 70.1312 70.5864C70.1205 70.5864 70.1205 70.5864 70.1133 70.5864V56.4951H91.6757Z" fill="#616161"/>
<path d="M101.422 87.4492L92.4246 90.1346L91.5773 90.3787L91.3296 90.4542C90.6188 89.2658 90.0515 88.4042 89.8074 88.02C89.7141 87.8979 89.6638 87.8226 89.6387 87.8046C89.6207 87.819 89.6063 87.8477 89.592 87.8621C88.8201 89.1294 88.4036 90.3033 88.1416 91.4091L85.7362 92.1307L70.1298 96.7836L60.3897 99.6808L57.1371 100.665C57.033 100.28 56.8929 99.8639 56.7206 99.4331C51.0984 97.0133 53.6582 93.1611 50.9117 88.3108C50.822 88.1421 50.7107 87.9697 50.603 87.801C50.2619 88.2139 43.9146 97.9073 42.8231 104.93L42.0369 105.159L35.7254 107.037H35.5674C35.4597 93.1898 39.6817 83.9416 43.5663 78.3661C43.8391 77.982 44.1012 77.6086 44.3813 77.2567C44.6398 76.9336 44.8875 76.5926 45.1388 76.3018L45.1531 76.2874C45.1531 76.2695 45.1531 76.2551 45.1531 76.2551C45.3506 76.0397 45.5373 75.7956 45.7347 75.591C45.9178 75.3576 46.1081 75.1458 46.2948 74.9411C46.7723 74.4206 47.2175 73.9574 47.6196 73.5553V73.5409H47.6339C47.7416 73.4512 47.8314 73.3579 47.9427 73.2466C48.036 73.1604 48.1294 73.0635 48.2227 72.9881C48.3125 72.9127 48.4058 72.8157 48.4956 72.7404C48.6643 72.5824 48.8187 72.446 48.9731 72.3239C49.587 71.7854 49.9747 71.5376 49.9747 71.5376L51.4395 71.893L51.6836 71.9577L52.2724 72.1121L52.4232 72.1408L54.4588 72.0475L57.6038 71.9325L60.9462 71.789L70.1154 71.4192H70.1334L79.4821 71.7998L82.6451 71.929L85.7864 72.0439L87.822 72.1372L87.9872 72.1085L88.5616 71.9541L88.8237 71.8895L90.2705 71.5341C90.2705 71.5341 90.6583 71.7818 91.2722 72.3203C91.423 72.4424 91.5809 72.5788 91.764 72.7367C91.8394 72.8121 91.9328 72.9055 92.0225 72.9845C92.1159 73.0598 92.2128 73.1532 92.3026 73.243C92.4103 73.3543 92.5 73.4476 92.6113 73.5374L92.6257 73.5517C92.719 73.6307 92.8123 73.7348 92.9201 73.8425C93.0278 73.9503 93.1498 74.0615 93.2611 74.1836C93.4765 74.4133 93.7207 74.6611 93.9504 74.9339C94.1228 75.1026 94.2592 75.275 94.4279 75.4581C94.4602 75.5048 94.4746 75.5335 94.5069 75.5837C94.7044 75.7848 94.8911 76.0289 95.0885 76.2479C95.0885 76.2479 95.1029 76.2587 95.1029 76.2802V76.2946C95.3506 76.589 95.6019 76.9265 95.8747 77.2496C96.1404 77.6014 96.3989 77.9712 96.6754 78.3589C98.3125 80.7356 100.007 83.737 101.422 87.4492Z" fill="#FDD5B0"/>
<path opacity="0.2" d="M70.1172 81.5723H72.1743L71.2517 88.9895C70.8819 89.011 70.4977 89.0218 70.1172 89.029V81.5723Z" fill="#616161"/>
<path opacity="0.2" d="M70.1278 56.502H48.5654C52.1089 61.4923 57.0848 66.5974 62.5993 66.5974H62.6603C64.6098 69.0926 67.1408 70.6112 69.9089 70.6112C69.9842 70.6112 70.056 70.6004 70.1314 70.6004L70.1278 56.502Z" fill="#616161"/>
<path opacity="0.2" d="M70.1262 81.5723H68.0654L68.9845 88.9895C69.3615 89.011 69.7456 89.0218 70.1262 89.029V81.5723Z" fill="#616161"/>
<path opacity="0.2" d="M62.6294 87.8083C52.2 85.5034 46.5348 81.9922 43.5801 78.3877C45.7378 75.2858 47.8021 73.3256 48.9725 72.3347L62.6294 87.8083Z" fill="#616161"/>
<path d="M70.1275 67.5307C70.0521 67.5307 69.9767 67.5415 69.9049 67.5415C68.8709 67.5415 67.88 67.3332 66.9286 66.9419C66.8712 67.1788 66.8281 67.4373 66.8281 67.6994V69.0278C67.8118 69.4622 68.8386 69.6812 69.9049 69.6812C69.9803 69.6812 70.0521 69.6704 70.1275 69.6704V67.5307Z" fill="#FDD5B0"/>
<path d="M70.1285 64.5295C70.089 64.5223 70.0531 64.5151 70.0136 64.5151C68.5165 64.5151 67.2743 65.5455 66.9297 66.9457C67.8811 67.337 68.8756 67.5452 69.9059 67.5452C69.9777 67.5452 70.0531 67.5345 70.1285 67.5345V64.5295Z" fill="#FDD5B0"/>
<path d="M88.4435 71.1823L82.9075 71.107L73.4188 70.9813V69.0247C72.4387 69.4591 71.4011 69.6781 70.342 69.6781C70.2702 69.6781 70.2056 69.6673 70.1338 69.6673C70.1338 69.6673 70.1302 69.6673 70.123 69.6673C70.0512 69.6709 69.983 69.6781 69.9112 69.6781C68.8485 69.6781 67.8217 69.4591 66.8344 69.0247V70.9813L57.3421 71.107L51.8061 71.1823C50.8332 72.8697 51.2604 73.0313 51.2604 74.9771C51.2604 79.8167 54.6028 84.0782 59.6793 86.6128C59.708 86.6307 59.7224 86.6343 59.7475 86.6451C60.6558 87.0903 61.6216 87.4852 62.6304 87.8083C64.6014 88.4582 66.7411 88.8638 68.9921 88.9895C69.1142 89.0003 69.2399 89.0002 69.3619 89.011C69.606 89.0182 69.8645 89.0182 70.1194 89.0254C70.1266 89.0254 70.1338 89.0254 70.1338 89.0254C70.3887 89.0182 70.64 89.0182 70.8913 89.011C71.0134 89.0002 71.1355 88.9967 71.2575 88.9895C73.5085 88.8674 75.6554 88.4618 77.6228 87.8083C78.6317 87.4852 79.5974 87.0903 80.5057 86.6451C80.5344 86.6343 80.5416 86.6343 80.5667 86.6128C85.6468 84.0782 88.9928 79.8167 88.9928 74.9771C88.9892 73.0349 89.4129 72.8733 88.4435 71.1823Z" fill="#FDD5B0"/>
<path opacity="0.2" d="M62.6304 87.8081C61.6144 87.4275 60.6558 87.0398 59.7475 86.6449C59.726 86.6341 59.708 86.6341 59.6793 86.6125C54.6028 84.0779 51.2604 79.8164 51.2604 74.9769C51.2604 73.031 50.8332 72.8694 51.8061 71.1821L57.3421 71.1067L62.6304 87.8081Z" fill="#616161"/>
<path opacity="0.2" d="M77.6201 87.8081C78.6397 87.4275 79.5947 87.0398 80.503 86.6449C80.5317 86.6341 80.5389 86.6341 80.564 86.6125C85.6441 84.0779 88.9901 79.8164 88.9901 74.9769C88.9901 73.031 89.4173 72.8694 88.4444 71.1821L82.9084 71.1067L77.6201 87.8081Z" fill="#616161"/>
<path d="M70.1133 67.5307C70.1887 67.5307 70.2605 67.5415 70.3359 67.5415C71.3662 67.5415 72.3643 67.3332 73.3121 66.9419C73.3695 67.1788 73.4126 67.4373 73.4126 67.6994V69.0278C72.4325 69.4622 71.395 69.6812 70.3359 69.6812C70.2605 69.6812 70.1887 69.6704 70.1133 69.6704V67.5307Z" fill="#FDD5B0"/>
<path d="M70.1133 64.5295C70.1492 64.5223 70.1887 64.5151 70.2282 64.5151C71.7252 64.5151 72.9746 65.5455 73.3121 66.9457C72.3643 67.337 71.3662 67.5452 70.3359 67.5452C70.2605 67.5452 70.1887 67.5345 70.1133 67.5345V64.5295Z" fill="#FDD5B0"/>
<path opacity="0.2" d="M96.6802 78.3877C93.7184 81.9886 88.0567 85.507 77.6201 87.8083L83.2818 81.3891L83.63 81.0013L88.0603 75.9823L88.9937 74.9196L91.2735 72.3347C91.4242 72.4496 91.5858 72.5933 91.7581 72.7512C91.8407 72.8266 91.9412 72.9128 92.0274 72.9989C92.1207 73.0743 92.2213 73.1713 92.3182 73.2538C92.4187 73.3508 92.5121 73.4477 92.6198 73.559H92.6269V73.5698C92.7203 73.6523 92.8208 73.7529 92.9249 73.8642C93.0326 73.9755 93.1511 74.0795 93.2624 74.2016C93.485 74.4386 93.7219 74.6863 93.9589 74.9519C94.1204 75.1207 94.2641 75.293 94.4328 75.4725C94.4615 75.5084 94.4938 75.5479 94.5261 75.5838C94.7092 75.7956 94.8995 76.0218 95.0934 76.2659C95.0934 76.2659 95.1006 76.2767 95.1006 76.2911H95.1149V76.2983C95.3626 76.6034 95.6068 76.9337 95.8724 77.264C96.1417 77.623 96.4074 78 96.6802 78.3877Z" fill="#616161"/>
<path d="M98.019 67.6064C98.019 68.2527 97.9867 68.9025 97.879 69.5775C97.581 71.7244 96.7553 73.9969 95.1146 76.2946V76.3018C93.5349 78.4882 91.23 80.6746 87.9379 82.7892C87.744 82.9184 87.5322 83.0513 87.3132 83.1769C85.4068 84.3581 83.163 85.5105 80.5673 86.6163C80.517 86.6486 80.4596 86.6737 80.4058 86.6917C80.3627 86.7168 80.3196 86.7347 80.2765 86.7491C80.115 86.8137 79.9642 86.8784 79.8062 86.9466C79.3431 87.1369 78.8584 87.3271 78.3701 87.5246C78.1224 87.6179 77.8711 87.7149 77.6162 87.8118L83.6979 76.072L85.7766 72.0726L86.2505 71.1535L93.8437 56.4985C93.8437 56.4985 98.019 61.2806 98.019 67.6064Z" fill="#F9F9F9"/>
<path d="M62.6297 87.8082C58.7416 86.347 55.5427 84.7853 52.9327 83.1769C52.7209 83.0441 52.5126 82.9113 52.3116 82.7856C45.5585 78.4487 42.9521 73.7672 42.3669 69.5703C42.2664 68.9025 42.2305 68.2491 42.2305 67.6029C42.2341 61.277 46.4022 56.4985 46.4022 56.4985L62.6297 87.8082Z" fill="#F9F9F9"/>
<path d="M48.9824 75.1209L50.9426 77.7238L50.0559 74.5859L48.9824 75.1209Z" fill="#7D8450"/>
<path d="M55.7529 81.4361L57.7096 84.0425L56.8228 80.9048L55.7529 81.4361Z" fill="#7D8450"/>
<path d="M45.4238 59.5829L47.3769 62.1857L46.4937 59.0515L45.4238 59.5829Z" fill="#7D8450"/>
<path d="M48.0078 65.0505L49.9645 67.6462L49.0777 64.512L48.0078 65.0505Z" fill="#7D8450"/>
<path d="M50.5879 70.5109L52.5445 73.1102L51.6578 69.9724L50.5879 70.5109Z" fill="#7D8450"/>
<path d="M53.1758 75.9718L55.1324 78.5782L54.2421 75.4441L53.1758 75.9718Z" fill="#7D8450"/>
<path d="M52.9301 83.181C52.7182 83.0481 52.51 82.9153 52.309 82.7896L51.1709 81.271L52.2407 80.7361L52.9301 83.181Z" fill="#7D8450"/>
<path d="M43.8145 64.1928L45.7747 66.7956L44.8915 63.6614L43.8145 64.1928Z" fill="#7D8450"/>
<path d="M46.3994 69.6602L48.3597 72.2631L47.4729 69.1289L46.3994 69.6602Z" fill="#7D8450"/>
<path d="M43.207 70.6942L42.3669 69.5741C42.2664 68.9063 42.2305 68.2529 42.2305 67.6067L42.3202 67.5601L43.207 70.6942Z" fill="#7D8450"/>
<path d="M44.9648 74.5713L46.9179 77.167L46.0311 74.0364L44.9648 74.5713Z" fill="#7D8450"/>
<path d="M91.2613 75.1209L89.3047 77.7238L90.1878 74.5859L91.2613 75.1209Z" fill="#7D8450"/>
<path d="M84.4921 81.4361L82.5391 84.0425L83.4187 80.9048L84.4921 81.4361Z" fill="#7D8450"/>
<path d="M94.8241 59.5829L92.8711 62.1857L93.7543 59.0515L94.8241 59.5829Z" fill="#7D8450"/>
<path d="M92.2473 65.0505L90.2871 67.6462L91.1703 64.512L92.2473 65.0505Z" fill="#7D8450"/>
<path d="M89.6633 70.5109L87.7031 73.1102L88.5899 69.9724L89.6633 70.5109Z" fill="#7D8450"/>
<path d="M87.0764 75.9718L85.1162 78.5782L86.0066 75.4441L87.0764 75.9718Z" fill="#7D8450"/>
<path d="M87.3213 83.181C87.5331 83.0481 87.7413 82.9153 87.9388 82.7896L89.0805 81.271L88.007 80.7361L87.3213 83.181Z" fill="#7D8450"/>
<path d="M96.4296 64.1928L94.4766 66.7956L95.3597 63.6614L96.4296 64.1928Z" fill="#7D8450"/>
<path d="M93.8528 69.6602L91.8926 72.2631L92.7793 69.1289L93.8528 69.6602Z" fill="#7D8450"/>
<path d="M98.0195 67.6063C98.0195 68.2526 97.9872 68.9024 97.8795 69.5774L97.043 70.6939L97.9333 67.5669L98.0195 67.6063Z" fill="#7D8450"/>
<path d="M95.2831 74.5713L93.3301 77.167L94.2133 74.0364L95.2831 74.5713Z" fill="#7D8450"/>
<path d="M80.3311 62.5694C77.3549 62.5551 74.5797 61.7078 72.2245 60.2861L75.1074 64.8492L76.3424 66.8382L79.4802 71.8105L89.5901 87.8656C88.8182 89.1329 88.4017 90.3069 88.1396 91.4127L85.7343 92.1343L70.1279 96.7871L60.3878 99.6844L57.1352 100.668C57.031 100.284 56.891 99.8675 56.7187 99.4367C51.0965 97.0169 53.6563 93.1647 50.9098 88.3144L60.9371 71.7961L63.9421 66.8489L64.8504 65.359L67.9307 60.2682C65.572 61.7186 62.786 62.5192 59.8134 62.5012C51.1109 62.5012 44.0814 55.4287 44.0957 46.7226C44.0957 41.5815 69.7832 14.8779 69.7832 14.8779C69.7832 14.8779 96.1457 40.7773 96.1134 46.8374C96.1241 55.5436 89.0372 62.5802 80.3311 62.5694Z" fill="#2C2C2C"/>
<path opacity="0.2" d="M60.4014 99.6876L57.1379 100.661C57.0266 100.284 56.8866 99.8707 56.7286 99.4399C50.9018 96.9448 53.8386 92.913 50.611 87.815C50.2556 88.2135 43.9082 97.9177 42.8204 104.933L42.0378 105.17C40.3683 97.8531 51.4332 85.5891 51.4332 85.5891C51.4332 85.5891 56.3912 97.8315 60.4014 99.6876Z" fill="#616161"/>
<path opacity="0.2" d="M92.4176 90.127L91.5811 90.3819L91.3262 90.4537C90.6189 89.2725 90.0589 88.4109 89.804 88.0195C89.7178 87.9011 89.6675 87.8257 89.6424 87.8041C88.8382 89.0786 88.4074 90.2849 88.1417 91.4086L85.7363 92.1267C87.5314 88.7591 88.8167 85.5854 88.8167 85.5854C88.8167 85.5854 90.4789 87.4451 92.4176 90.127Z" fill="#616161"/>
<path opacity="0.2" d="M76.3388 66.838L73.4093 69.0244C72.4399 69.4516 71.4059 69.6886 70.3433 69.6886C70.2679 69.6886 70.1925 69.6742 70.1315 69.6742C70.0525 69.6742 69.9771 69.6886 69.9125 69.6886C68.8462 69.6886 67.8158 69.4552 66.8321 69.0244L63.9492 66.8488L64.8575 65.3589C66.649 66.2456 69.1873 67.5381 69.9125 67.5381C69.9735 67.5381 70.0489 67.5237 70.1099 67.5237C70.1099 67.5237 70.1099 67.5237 70.1279 67.5237C70.2033 67.5237 70.2643 67.5381 70.3397 67.5381C71.0039 67.5381 73.298 66.0338 75.1038 64.8455L76.3388 66.838Z" fill="#616161"/>
<path d="M73.9897 35.1118C72.2916 35.2985 70.8519 36.3397 70.1231 37.808C69.3943 36.3397 67.9654 35.2985 66.2673 35.1118C62.056 37.5172 59.0654 43.624 59.0654 50.7792C59.0654 55.8629 60.5769 60.4152 62.9571 63.4812C62.9715 63.4955 62.9823 63.5207 62.9966 63.535C62.9966 63.5386 62.9966 63.5386 63.0002 63.5422C64.2281 65.1039 65.6749 66.2815 67.2689 66.9421C68.1772 67.3154 69.1358 67.5201 70.1231 67.538C70.1303 67.538 70.1374 67.538 70.1374 67.538C71.1247 67.5201 72.0833 67.3118 72.9916 66.9421C74.5857 66.2815 76.0361 65.1039 77.2603 63.5422C77.2603 63.535 77.2675 63.535 77.2711 63.535C77.2782 63.5207 77.289 63.4955 77.2998 63.4812C79.6837 60.4116 81.1951 55.8629 81.1951 50.7792C81.1879 43.6205 78.1973 37.5136 73.9897 35.1118Z" fill="#FDD5B0"/>
<path d="M77.8732 33.9162C77.8804 32.1176 70.0503 24.4238 70.0503 24.4238C70.0503 24.4238 62.4212 32.3581 62.4141 33.8911C62.4105 36.476 64.5035 38.5762 67.0849 38.5762C67.9716 38.5798 68.7973 38.3393 69.4974 37.9085L70.7684 37.912C71.4684 38.3393 72.2906 38.5906 73.1773 38.5906C75.7694 38.6014 77.8732 36.5083 77.8732 33.9162Z" fill="#2C2C2C"/>
<path d="M61.8381 49.8098C61.7878 49.9319 61.7627 50.0575 61.7627 50.1975C61.7627 51.052 62.8146 51.752 64.1214 51.752C65.4211 51.752 66.4802 51.0555 66.4802 50.1975C66.4802 50.0611 66.4478 49.9319 66.4012 49.8098H61.8381Z" fill="#2C2C2C"/>
<path d="M78.409 49.8098C78.4556 49.9319 78.488 50.0575 78.488 50.1975C78.488 51.052 77.4289 51.752 76.1328 51.752C74.826 51.752 73.7705 51.0555 73.7705 50.1975C73.7705 50.0611 73.8028 49.9319 73.8495 49.8098H78.409Z" fill="#2C2C2C"/>
<path d="M73.2024 61.4165H70.1328H70.1184H67.0488C67.6627 62.2351 68.8044 62.7951 70.1184 62.8095C70.1256 62.8095 70.1328 62.8095 70.1328 62.8095C71.4468 62.7951 72.5813 62.2386 73.2024 61.4165Z" fill="#9C9C9C"/>
<path d="M70.1192 61.2549C68.7227 59.6177 66.7373 61.6893 66.7373 61.6893H70.1156H70.13H73.5119C73.5119 61.6893 71.523 59.6177 70.1192 61.2549Z" fill="#2C2C2C"/>
<path opacity="0.2" d="M70.1277 52.4233V52.373L70.117 52.4018L70.1134 52.373V52.4233L68.3398 58.085H70.1134H70.1277H71.9049L70.1277 52.4233Z" fill="#616161"/>
<path d="M73.5143 46.4314L78.1959 46.6791L78.2569 46.6863L78.2928 46.7222L80.1525 48.7506L78.0954 46.9233L78.1959 46.9627L73.5107 47.1961L73.5143 46.4314Z" fill="#2C2C2C"/>
<path d="M67.1388 47.1961L62.4573 46.9627L62.5542 46.9233L60.4971 48.7506L62.3532 46.7222L62.3927 46.6863L62.4537 46.6791L67.1352 46.4314L67.1388 47.1961Z" fill="#2C2C2C"/>
<path opacity="0.2" d="M71.6982 35.9739C71.727 35.9559 71.7485 35.9415 71.7772 35.9236C71.7485 35.9415 71.727 35.9523 71.6982 35.9739Z" fill="#616161"/>
<path opacity="0.2" d="M72.7715 35.4025C72.8397 35.3774 72.9115 35.3594 72.9761 35.3379C72.9079 35.3558 72.8361 35.3738 72.7715 35.4025Z" fill="#616161"/>
<path d="M59.343 56.6169C59.3466 55.7158 55.4082 51.842 55.4082 51.842C55.4082 51.842 51.5739 55.8307 51.5703 56.6026C51.5703 57.9022 52.6222 58.9577 53.9183 58.9577C54.367 58.9613 54.7799 58.8392 55.1353 58.6202L53.6562 61.1333L57.2392 61.1441L55.7708 58.6202C56.1262 58.8392 56.5391 58.9613 56.9807 58.9685C58.2875 58.9721 59.343 57.9202 59.343 56.6169Z" fill="#E3B605"/>
<path opacity="0.2" d="M55.0018 60.3723L55.4506 59.6076L55.8957 60.3759L55.0018 60.3723ZM54.7289 57.9669C54.492 58.1105 54.2155 58.1859 53.9319 58.1859C53.4939 58.1859 53.099 58.0243 52.801 57.7228C52.4995 57.4248 52.3379 57.0299 52.3379 56.6026C52.4743 56.2364 53.9571 54.5024 55.4182 52.9407C56.9297 54.4737 58.4447 56.2077 58.574 56.6888C58.5668 57.037 58.4052 57.4319 58.1073 57.7299C57.8093 58.0279 57.4072 58.1931 56.9835 58.1931C56.6927 58.1895 56.4091 58.1141 56.1686 57.9633L54.7289 57.9669Z" fill="#616161"/>
<path d="M89.0077 56.6169C89.0077 55.7158 85.0693 51.842 85.0693 51.842C85.0693 51.842 81.235 55.8307 81.2314 56.6026C81.2314 57.9022 82.2834 58.9577 83.583 58.9577C84.0282 58.9613 84.4446 58.8392 84.7929 58.6202L83.3173 61.1333L86.9003 61.1441L85.4319 58.6202C85.7873 58.8392 86.1966 58.9613 86.6418 58.9685C87.9486 58.9721 89.0077 57.9202 89.0077 56.6169Z" fill="#E3B605"/>
<path opacity="0.2" d="M84.6623 60.3723L85.111 59.6076L85.5562 60.3759L84.6623 60.3723ZM84.393 57.9669C84.156 58.1105 83.8796 58.1859 83.596 58.1859C83.1616 58.1859 82.7631 58.0243 82.4651 57.7228C82.1599 57.4248 82.002 57.0299 82.002 56.6026C82.1384 56.2364 83.6211 54.5024 85.0823 52.9407C86.5973 54.4737 88.1052 56.2077 88.238 56.6888C88.2309 57.037 88.0693 57.4319 87.7713 57.7299C87.4733 58.0279 87.0748 58.1931 86.6476 58.1931C86.3568 58.1895 86.0732 58.1141 85.8326 57.9633L84.393 57.9669Z" fill="#616161"/>
<path opacity="0.2" d="M96.6734 78.3767C96.3969 77.9926 96.1384 77.6192 95.8727 77.2674C95.7722 77.1525 95.6932 77.0412 95.6035 76.9263C95.4383 76.7181 95.2696 76.4991 95.1116 76.3016V76.2945C96.7523 73.9968 97.5781 71.7242 97.8761 69.5773C97.9838 68.8988 98.016 68.2525 98.016 67.6063C98.016 61.2804 93.8407 56.4948 93.8407 56.4948H92.7816C94.8639 53.8309 96.1204 50.4849 96.1204 46.8409C96.1528 40.8202 70.1314 15.2117 69.8047 14.8958V96.884L70.1314 96.7906L85.7377 92.1378L87.6693 91.5562L88.1431 91.4126C88.1755 91.2618 88.2221 91.1146 88.2688 90.971C88.3011 90.8346 88.3334 90.6945 88.3765 90.5545C88.3765 90.5509 88.3801 90.5509 88.3801 90.5474C88.6494 89.6821 89.0407 88.7666 89.6402 87.8116C89.651 87.8188 89.6582 87.8296 89.669 87.8403C89.6905 87.8691 89.7372 87.9229 89.8054 88.027C90.0603 88.4148 90.6203 89.28 91.3276 90.4612L91.3456 90.4576L91.5825 90.3894L91.9343 90.2817L92.4262 90.138L101.423 87.4526C100.005 83.7368 98.3105 80.7354 96.6734 78.3767Z" fill="#616161"/>
<path d="M43.1455 145.559L43.3645 142.543L43.5009 140.705L44.061 132.85L44.201 131.012L44.3733 128.495V128.481L44.5421 126.172L46.3336 126.129L47.1844 126.115L48.94 126.072L49.9381 126.054L51.1479 126.029L53.2948 125.982L55.6751 125.935L66.8584 125.698H66.8836L78.0669 125.935L80.44 125.982L82.5905 126.029L83.8039 126.054L84.7948 126.072L85.678 126.09L86.5576 126.115L87.4049 126.129L89.1963 126.172L89.3687 128.481V128.495L89.541 131.012L89.6774 132.85L90.2375 140.705L90.3775 142.543L90.5893 145.559H43.1455Z" fill="#C9C9C9"/>
<path opacity="0.2" d="M45.3125 145.559C48.8524 140.558 53.8283 135.453 59.3428 135.453H59.4038C60.6065 133.927 62.0211 132.753 63.5756 132.089C64.5557 131.665 65.5968 131.446 66.6559 131.446C66.717 131.446 66.7996 131.457 66.8606 131.464C66.8678 131.464 66.8678 131.464 66.8821 131.464V145.559H45.3125Z" fill="#616161"/>
<path d="M35.5723 114.598L44.5692 111.919L45.4164 111.672L45.6642 111.596C46.375 112.781 46.9423 113.643 47.1864 114.03C47.2797 114.152 47.3264 114.228 47.3587 114.246C47.3731 114.231 47.3874 114.199 47.4054 114.181C48.1773 112.921 48.5901 111.751 48.8558 110.641L51.2576 109.92L66.864 105.267L76.6005 102.37L79.8531 101.386C79.9608 101.77 80.0973 102.186 80.2696 102.617C85.8918 105.037 83.3356 108.889 86.0785 113.74C86.1718 113.908 86.2831 114.081 86.3908 114.246C86.7247 113.833 93.0721 104.139 94.1706 97.1171L94.9569 96.8873L101.268 95.0061H101.426C101.534 108.853 97.3084 118.102 93.4275 123.681C93.151 124.065 92.889 124.435 92.6125 124.786C92.354 125.117 92.1027 125.451 91.855 125.745L91.8407 125.759C91.8407 125.777 91.8407 125.792 91.8407 125.792C91.6432 126.007 91.4565 126.251 91.2555 126.456C91.0724 126.689 90.8857 126.901 90.7026 127.098C90.2251 127.626 89.7799 128.089 89.3778 128.488V128.506H89.3635C89.2557 128.592 89.166 128.689 89.0583 128.797C88.9649 128.886 88.8716 128.98 88.7783 129.055C88.6885 129.13 88.5952 129.224 88.5054 129.299C88.3367 129.45 88.1787 129.594 88.0279 129.716C87.4104 130.251 87.0263 130.502 87.0263 130.502L85.5615 130.146L85.3174 130.082L84.7286 129.927L84.5742 129.899L82.5422 129.985L79.4008 130.114L76.0548 130.247L66.8855 130.62H66.8712L57.5188 130.233L54.3631 130.114L51.2181 129.985L49.1825 129.899L49.0138 129.927L48.4465 130.082L48.188 130.146L46.7376 130.502C46.7376 130.502 46.3499 130.254 45.736 129.716C45.5816 129.594 45.4272 129.45 45.2441 129.299C45.1651 129.224 45.0754 129.13 44.9785 129.055C44.8887 128.98 44.7954 128.886 44.702 128.797C44.5943 128.685 44.5046 128.592 44.3968 128.506L44.3789 128.488C44.2892 128.412 44.1958 128.301 44.0845 128.197C43.9804 128.089 43.8583 127.978 43.747 127.856C43.5316 127.626 43.2839 127.378 43.0577 127.098C42.889 126.933 42.7454 126.765 42.5802 126.578C42.5479 126.531 42.5336 126.503 42.5013 126.456C42.3038 126.255 42.1171 126.007 41.9125 125.792C41.9125 125.792 41.8981 125.781 41.8981 125.759V125.745C41.654 125.451 41.4063 125.117 41.1334 124.786C40.8677 124.435 40.6092 124.065 40.3292 123.681C38.6813 121.318 36.9868 118.313 35.5723 114.598Z" fill="#FDD5B0"/>
<path opacity="0.2" d="M66.8765 120.482H64.8193L65.7384 113.061C66.1118 113.043 66.4959 113.032 66.8765 113.029V120.482Z" fill="#616161"/>
<path opacity="0.2" d="M66.8601 145.552H88.4225C84.879 140.562 79.9031 135.46 74.3886 135.46H74.3275C72.3745 132.965 69.8506 131.446 67.0755 131.446C67.0001 131.446 66.9282 131.457 66.8564 131.457V145.552H66.8601Z" fill="#616161"/>
<path opacity="0.2" d="M66.8604 120.482H68.9211L68.002 113.061C67.625 113.043 67.2409 113.032 66.8604 113.029V120.482Z" fill="#616161"/>
<path opacity="0.2" d="M74.3623 114.246C84.7917 116.551 90.4569 120.062 93.4116 123.67C91.2539 126.772 89.186 128.732 88.0156 129.723L74.3623 114.246Z" fill="#616161"/>
<path d="M66.8604 134.519C66.9322 134.519 67.0075 134.512 67.0829 134.512C68.1169 134.512 69.1078 134.721 70.0592 135.112C70.1166 134.871 70.1597 134.616 70.1597 134.354V133.019C69.176 132.592 68.1492 132.373 67.0793 132.373C67.0039 132.373 66.9322 132.387 66.8604 132.387V134.519Z" fill="#FDD5B0"/>
<path d="M66.8604 137.524C66.8927 137.532 66.9321 137.539 66.9752 137.539C68.4723 137.539 69.7145 136.501 70.0592 135.108C69.1078 134.717 68.1169 134.509 67.0829 134.509C67.0075 134.509 66.9322 134.516 66.8604 134.516V137.524Z" fill="#FDD5B0"/>
<path d="M48.5511 130.872L54.0835 130.947L63.5794 131.069V133.019C64.5595 132.592 65.5935 132.373 66.6562 132.373C66.728 132.373 66.7962 132.383 66.8644 132.387C66.868 132.387 66.8716 132.387 66.8752 132.387C66.947 132.383 67.0152 132.373 67.0798 132.373C68.1497 132.373 69.1765 132.595 70.1602 133.019V131.069L79.6525 130.947L85.1885 130.872C86.1579 129.185 85.727 129.016 85.727 127.074C85.727 122.238 82.3918 117.973 77.3117 115.442C77.283 115.424 77.2687 115.42 77.2435 115.409C76.3352 114.964 75.3695 114.566 74.3606 114.242C72.3896 113.589 70.2463 113.187 67.9989 113.061C67.8696 113.051 67.7476 113.051 67.6291 113.04C67.3778 113.029 67.1265 113.029 66.8716 113.025C66.868 113.025 66.868 113.025 66.8644 113.025C66.6095 113.033 66.351 113.033 66.1033 113.04C65.9812 113.047 65.8592 113.051 65.7335 113.061C63.4861 113.183 61.3392 113.589 59.3718 114.242C58.3629 114.566 57.3972 114.964 56.4853 115.409C56.4602 115.416 56.4458 115.42 56.4243 115.442C51.3442 117.973 48.0018 122.238 48.0018 127.074C48.0054 129.016 47.5745 129.185 48.5511 130.872Z" fill="#FDD5B0"/>
<path opacity="0.2" d="M74.3623 114.246C75.3783 114.623 76.3369 115.018 77.2452 115.413C77.2703 115.42 77.2847 115.423 77.3134 115.445C82.3935 117.976 85.7287 122.241 85.7287 127.077C85.7287 129.019 86.1595 129.184 85.1902 130.875L79.6542 130.951L74.3623 114.246Z" fill="#616161"/>
<path opacity="0.2" d="M59.3748 114.246C58.3552 114.623 57.4003 115.018 56.4884 115.413C56.4632 115.42 56.4488 115.423 56.4273 115.445C51.3472 117.976 48.0048 122.241 48.0048 127.077C48.0048 129.019 47.574 129.184 48.5505 130.875L54.0829 130.951L59.3748 114.246Z" fill="#616161"/>
<path d="M66.8736 134.519C66.7982 134.519 66.7299 134.512 66.651 134.512C65.6206 134.512 64.6225 134.721 63.6747 135.112C63.6173 134.871 63.5742 134.616 63.5742 134.354V133.019C64.5543 132.592 65.5883 132.373 66.651 132.373C66.7263 132.373 66.7982 132.387 66.8736 132.387V134.519Z" fill="#FDD5B0"/>
<path d="M66.8756 137.524C66.8397 137.532 66.8002 137.539 66.7643 137.539C65.2672 137.539 64.0178 136.501 63.6768 135.108C64.6246 134.717 65.6226 134.509 66.653 134.509C66.7284 134.509 66.8002 134.516 66.8756 134.516V137.524Z" fill="#FDD5B0"/>
<path opacity="0.2" d="M40.3164 123.667C43.2783 120.066 48.9399 116.547 59.3729 114.242L53.7113 120.665L53.3702 121.049L48.9399 126.068L48.0065 127.127L45.7196 129.712C45.5724 129.594 45.4144 129.454 45.2385 129.296C45.1523 129.221 45.059 129.134 44.9728 129.052C44.8723 128.976 44.779 128.879 44.682 128.797C44.5815 128.7 44.4882 128.599 44.3805 128.492H44.3733V128.481C44.2728 128.398 44.1794 128.301 44.0753 128.183C43.9676 128.079 43.8491 127.975 43.7378 127.86C43.5152 127.616 43.2783 127.372 43.0413 127.102C42.8798 126.93 42.7326 126.761 42.5674 126.582C42.5387 126.546 42.4992 126.499 42.4669 126.47C42.2874 126.259 42.0971 126.029 41.9033 125.785C41.9033 125.785 41.8961 125.778 41.8961 125.76H41.8817V125.749C41.634 125.437 41.3899 125.113 41.1242 124.783C40.8513 124.431 40.5857 124.061 40.3164 123.667Z" fill="#616161"/>
<path d="M38.9766 134.448C38.9766 133.802 39.0089 133.148 39.1202 132.47C39.4182 130.33 40.2439 128.057 41.8846 125.76V125.749C43.4607 123.562 45.7656 121.372 49.0577 119.261C49.2516 119.132 49.4634 119.007 49.6824 118.874C51.5888 117.693 53.829 116.54 56.4211 115.438C56.4785 115.398 56.5288 115.38 56.5826 115.363C56.6293 115.337 56.6724 115.316 56.7119 115.305C56.8699 115.241 57.0278 115.176 57.1858 115.115C57.6489 114.921 58.1336 114.72 58.6254 114.53C58.8696 114.433 59.1173 114.339 59.3722 114.242L53.2941 125.982L51.2118 129.989L50.7451 130.904L43.1483 145.559C43.1483 145.559 38.9766 140.774 38.9766 134.448Z" fill="#F9F9F9"/>
<path d="M74.3623 114.246C78.2468 115.707 81.4493 117.276 84.0593 118.877C84.2747 119.01 84.4758 119.143 84.6804 119.268C91.4299 123.605 94.0399 128.287 94.6251 132.48C94.7184 133.144 94.7651 133.805 94.7651 134.451C94.7543 140.773 90.5898 145.556 90.5898 145.556L74.3623 114.246Z" fill="#F9F9F9"/>
<path d="M88.0081 126.93L86.0479 124.33L86.9346 127.465L88.0081 126.93Z" fill="#7D8450"/>
<path d="M81.231 120.618L79.2744 118.012L80.1612 121.146L81.231 120.618Z" fill="#7D8450"/>
<path d="M91.5673 142.472L89.6143 139.869L90.4939 143.003L91.5673 142.472Z" fill="#7D8450"/>
<path d="M88.9833 137.004L87.0303 134.408L87.917 137.542L88.9833 137.004Z" fill="#7D8450"/>
<path d="M86.4029 131.543L84.4463 128.947L85.3331 132.071L86.4029 131.543Z" fill="#7D8450"/>
<path d="M83.815 126.079L81.8584 123.476L82.7452 126.61L83.815 126.079Z" fill="#7D8450"/>
<path d="M84.0605 118.873C84.276 119.006 84.477 119.139 84.6816 119.265L85.8197 120.787L84.7462 121.318L84.0605 118.873Z" fill="#7D8450"/>
<path d="M93.1728 137.858L91.2197 135.259L92.1029 138.393L93.1728 137.858Z" fill="#7D8450"/>
<path d="M90.5888 132.394L88.6357 129.798L89.5189 132.925L90.5888 132.394Z" fill="#7D8450"/>
<path d="M93.7822 131.36L94.6223 132.476C94.7157 133.141 94.7623 133.801 94.7623 134.447L94.669 134.49L93.7822 131.36Z" fill="#7D8450"/>
<path d="M92.0266 127.486L90.0664 124.883L90.9532 128.017L92.0266 127.486Z" fill="#7D8450"/>
<path d="M45.7334 126.93L47.6828 124.33L46.7997 127.465L45.7334 126.93Z" fill="#7D8450"/>
<path d="M52.499 120.618L54.4556 118.012L53.5761 121.146L52.499 120.618Z" fill="#7D8450"/>
<path d="M42.167 142.472L44.1236 139.869L43.2369 143.003L42.167 142.472Z" fill="#7D8450"/>
<path d="M44.751 137.004L46.7076 134.408L45.8244 137.542L44.751 137.004Z" fill="#7D8450"/>
<path d="M47.335 131.543L49.2952 128.947L48.4048 132.071L47.335 131.543Z" fill="#7D8450"/>
<path d="M49.9189 126.079L51.872 123.476L50.9852 126.61L49.9189 126.079Z" fill="#7D8450"/>
<path d="M49.6726 118.873C49.4643 119.006 49.2561 119.139 49.0587 119.265L47.917 120.787L48.9868 121.318L49.6726 118.873Z" fill="#7D8450"/>
<path d="M40.5615 137.858L42.5217 135.259L41.6314 138.393L40.5615 137.858Z" fill="#7D8450"/>
<path d="M43.1455 132.394L45.1021 129.798L44.2154 132.925L43.1455 132.394Z" fill="#7D8450"/>
<path d="M38.9766 134.447C38.9766 133.801 39.0089 133.148 39.1202 132.469L39.9531 131.36L39.0627 134.487L38.9766 134.447Z" fill="#7D8450"/>
<path d="M41.708 127.486L43.6646 124.883L42.7815 128.017L41.708 127.486Z" fill="#7D8450"/>
<path d="M56.6632 139.485C59.6358 139.499 62.411 140.346 64.7662 141.764L61.8869 137.201L60.6519 135.212L57.5069 130.233L47.4006 114.178C48.1725 112.917 48.5854 111.747 48.851 110.638L51.2529 109.916L66.8592 105.263L76.5957 102.366L79.8484 101.382C79.9561 101.766 80.0925 102.183 80.2648 102.614C85.887 105.034 83.3308 108.886 86.0737 113.736L76.0428 130.251L73.0379 135.202L72.1331 136.699L69.0492 141.782C71.4043 140.335 74.1975 139.528 77.1701 139.542C85.8726 139.542 92.9021 146.618 92.8842 155.324C92.8842 160.473 67.2039 187.176 67.2039 187.176C67.2039 187.176 40.8414 161.277 40.8701 155.22C40.8666 146.507 47.9571 139.47 56.6632 139.485Z" fill="#2C2C2C"/>
<path opacity="0.2" d="M76.5928 102.362L79.849 101.393C79.9639 101.77 80.1039 102.187 80.2655 102.614C86.0887 105.109 83.1484 109.141 86.3795 114.239C86.7313 113.837 93.0787 104.136 94.1701 97.1137L94.9528 96.8767C96.6222 104.201 85.5574 116.461 85.5574 116.461C85.5574 116.461 80.603 104.226 76.5928 102.362Z" fill="#616161"/>
<path opacity="0.2" d="M44.5723 111.926L45.4087 111.672L45.6636 111.6C46.3745 112.781 46.931 113.646 47.1859 114.034C47.272 114.152 47.3223 114.224 47.3474 114.249C48.1516 112.971 48.5788 111.772 48.8481 110.648L51.2463 109.927C49.4548 113.294 48.1696 116.468 48.1696 116.468C48.1696 116.468 46.5145 114.608 44.5723 111.926Z" fill="#616161"/>
<path opacity="0.2" d="M60.6504 135.216L63.58 133.03C64.5529 132.592 65.5832 132.362 66.6495 132.362C66.7249 132.362 66.8003 132.38 66.8614 132.38C66.9368 132.38 67.0193 132.362 67.0803 132.362C68.1394 132.362 69.1734 132.592 70.1607 133.03L73.04 135.202L72.1353 136.699C70.3438 135.805 67.8056 134.505 67.0803 134.505C67.0193 134.505 66.9367 134.519 66.8757 134.519C66.8757 134.519 66.8757 134.519 66.8614 134.519C66.786 134.519 66.7249 134.505 66.6495 134.505C65.9853 134.505 63.6841 136.017 61.8854 137.201L60.6504 135.216Z" fill="#616161"/>
<path d="M63.0036 166.942C64.7017 166.755 66.1378 165.714 66.8666 164.246C67.599 165.714 69.0314 166.755 70.7296 166.942C74.9372 164.54 77.9278 158.434 77.9278 151.275C77.9278 146.191 76.4235 141.646 74.0361 138.569C74.0289 138.555 74.0182 138.533 74.0038 138.515C74.0038 138.512 74.0038 138.512 74.0002 138.505C72.7724 136.943 71.3219 135.769 69.7315 135.108C68.8196 134.735 67.8682 134.53 66.8774 134.512C66.8738 134.512 66.8738 134.509 66.8702 134.509L66.8666 134.512C65.8721 134.53 64.9207 134.735 64.0088 135.108C62.4184 135.772 60.9716 136.943 59.7437 138.505C59.7401 138.512 59.7401 138.512 59.733 138.515C59.7186 138.53 59.7114 138.551 59.7006 138.569C57.3204 141.646 55.8125 146.191 55.8125 151.275C55.8053 158.434 58.7959 164.54 63.0036 166.942Z" fill="#FDD5B0"/>
<path d="M59.1192 168.138C59.1084 169.936 66.9421 177.63 66.9421 177.63C66.9421 177.63 74.5712 169.699 74.5747 168.163C74.5819 165.578 72.4889 163.478 69.904 163.478C69.0172 163.47 68.1915 163.714 67.4878 164.145L66.2133 164.135C65.5168 163.714 64.6947 163.463 63.8115 163.463C61.223 163.452 59.112 165.553 59.1192 168.138Z" fill="#2C2C2C"/>
<path d="M75.1486 152.244C75.2024 152.122 75.2275 151.989 75.2275 151.856C75.2275 151.001 74.172 150.305 72.8688 150.305C71.5692 150.305 70.5137 151.001 70.5137 151.856C70.5137 151.989 70.546 152.122 70.5926 152.244H75.1486Z" fill="#2C2C2C"/>
<path d="M58.5839 152.244C58.53 152.122 58.5049 151.989 58.5049 151.856C58.5049 151.001 59.5604 150.305 60.8636 150.305C62.1704 150.305 63.2259 151.001 63.2259 151.856C63.2259 151.989 63.1936 152.122 63.1469 152.244H58.5839Z" fill="#2C2C2C"/>
<path d="M63.7891 140.637H66.8587H66.873H69.9462C69.3251 139.815 68.1834 139.258 66.873 139.244V139.237C66.8694 139.237 66.8694 139.237 66.8658 139.237L66.8622 139.244C65.5447 139.258 64.403 139.815 63.7891 140.637Z" fill="#9C9C9C"/>
<path d="M66.866 140.798C68.2661 142.435 70.2551 140.364 70.2551 140.364H66.8768H66.8624H63.4805C63.4805 140.364 65.4694 142.435 66.866 140.798Z" fill="#2C2C2C"/>
<path opacity="0.2" d="M66.8595 149.623V149.68L66.8667 149.652L66.8738 149.68V149.623L68.6438 143.961H66.8738H66.8595H65.0859L66.8595 149.623Z" fill="#616161"/>
<path d="M63.478 155.622L58.7965 155.374L58.7319 155.367L58.6959 155.328L56.8398 153.296L58.897 155.13L58.7965 155.091L63.4816 154.857L63.478 155.622Z" fill="#2C2C2C"/>
<path d="M69.8545 154.857L74.536 155.091L74.4355 155.13L76.4927 153.296L74.6366 155.328L74.6007 155.367L74.536 155.374L69.8545 155.622V154.857Z" fill="#2C2C2C"/>
<path opacity="0.2" d="M63.6276 166.831C63.423 166.884 63.2147 166.917 63.0029 166.942C63.2147 166.917 63.423 166.888 63.6276 166.831Z" fill="#616161"/>
<path opacity="0.2" d="M65.2909 166.08C65.2658 166.098 65.237 166.113 65.2119 166.131C65.237 166.113 65.2658 166.102 65.2909 166.08Z" fill="#616161"/>
<path d="M77.6475 145.437C77.6439 146.338 81.5787 150.212 81.5787 150.212C81.5787 150.212 85.4165 146.223 85.4237 145.452C85.4237 144.152 84.3718 143.093 83.0722 143.093C82.627 143.093 82.2105 143.211 81.8587 143.43L83.3378 140.914L79.7549 140.903L81.2161 143.42C80.8678 143.208 80.4549 143.086 80.0098 143.078C78.7065 143.082 77.6475 144.134 77.6475 145.437Z" fill="#E3B605"/>
<path opacity="0.2" d="M81.9912 141.682L81.5424 142.45L81.0936 141.682H81.9912ZM82.2604 144.087C82.4902 143.94 82.7666 143.865 83.0574 143.865C83.4918 143.865 83.8904 144.03 84.1883 144.328C84.4863 144.622 84.6515 145.021 84.6515 145.448C84.5079 145.814 83.0251 147.545 81.5639 149.11C80.0561 147.57 78.5446 145.843 78.4082 145.362C78.419 145.014 78.5841 144.615 78.8821 144.321C79.1801 144.023 79.5786 143.858 80.0058 143.858C80.2966 143.858 80.5803 143.936 80.8208 144.084L82.2604 144.087Z" fill="#616161"/>
<path d="M47.9873 145.437C47.9801 146.338 51.9185 150.212 51.9185 150.212C51.9185 150.212 55.7564 146.223 55.7636 145.452C55.7636 144.152 54.7117 143.093 53.412 143.093C52.9669 143.093 52.5504 143.211 52.2022 143.43L53.6777 140.914L50.0947 140.903L51.5559 143.42C51.2077 143.208 50.7948 143.086 50.3496 143.078C49.0464 143.082 47.9873 144.134 47.9873 145.437Z" fill="#E3B605"/>
<path opacity="0.2" d="M52.3307 141.682L51.8783 142.45L51.4332 141.682H52.3307ZM52.6 144.087C52.8297 143.94 53.1062 143.865 53.3898 143.865C53.8278 143.865 54.2263 144.03 54.5243 144.328C54.8223 144.622 54.9874 145.021 54.9874 145.448C54.8438 145.814 53.3611 147.545 51.8999 149.11C50.392 147.57 48.8806 145.843 48.7441 145.362C48.7549 145.014 48.9201 144.615 49.2181 144.321C49.516 144.023 49.9145 143.858 50.3346 143.858C50.629 143.858 50.909 143.936 51.1567 144.084L52.6 144.087Z" fill="#616161"/>
<path opacity="0.2" d="M40.3149 123.677C40.5949 124.061 40.8534 124.431 41.1191 124.783C41.2124 124.905 41.2986 125.009 41.3883 125.12C41.5535 125.332 41.7186 125.551 41.8802 125.748V125.759C40.2359 128.057 39.4137 130.329 39.1158 132.469C39.0081 133.148 38.9722 133.801 38.9722 134.447C38.9722 140.77 43.1403 145.559 43.1403 145.559H44.2066C42.1243 148.226 40.8642 151.569 40.8642 155.213C40.8354 161.233 66.8568 186.831 67.18 187.154V105.166L66.8568 105.263L51.2505 109.916L49.319 110.497L48.8451 110.641C48.8056 110.788 48.7625 110.939 48.7194 111.083C48.6835 111.219 48.6548 111.355 48.6117 111.499C48.6117 111.499 48.6081 111.503 48.6081 111.51C48.3317 112.382 47.9439 113.291 47.3444 114.246C47.3444 114.246 47.33 114.228 47.3193 114.217C47.2977 114.181 47.2546 114.134 47.1828 114.03C46.9279 113.642 46.3679 112.777 45.6606 111.596H45.6534L45.6391 111.603L45.4021 111.671L45.0467 111.779L44.5584 111.923L35.5615 114.601C36.9868 118.313 38.6814 121.318 40.3149 123.677Z" fill="#616161"/>
<path d="M29.3889 43.1681C29.3996 41.3694 21.5659 33.6721 21.5659 33.6721C21.5659 33.6721 13.9297 41.61 13.9297 43.1394C13.9261 45.7315 16.0192 47.8317 18.6005 47.8317C19.4872 47.8317 20.3094 47.5947 21.0131 47.1603L18.0799 52.1614L25.1992 52.1758L22.2876 47.1675C22.9876 47.5947 23.8134 47.8425 24.6965 47.8425C27.2779 47.8496 29.3889 45.7566 29.3889 43.1681Z" fill="#2C2C2C"/>
<path opacity="0.2" d="M29.389 43.1681C29.3998 41.3694 21.5661 33.6721 21.5661 33.6721C21.5661 33.6721 21.5589 33.6829 21.5518 33.6901V52.1686L25.2029 52.1758L22.2913 47.1675C22.9914 47.5947 23.8171 47.8425 24.7003 47.8425C27.278 47.8496 29.389 45.7566 29.389 43.1681Z" fill="#616161"/>
<path d="M116.158 157.773C116.147 159.571 123.981 167.265 123.981 167.265C123.981 167.265 131.614 159.335 131.621 157.802C131.621 155.213 129.528 153.113 126.943 153.113C126.056 153.113 125.234 153.353 124.53 153.781L127.464 148.779L120.344 148.765L123.256 153.777C122.559 153.353 121.73 153.098 120.851 153.095C118.269 153.095 116.158 155.184 116.158 157.773Z" fill="#2C2C2C"/>
<path opacity="0.2" d="M116.158 157.773C116.147 159.571 123.981 167.265 123.981 167.265C123.981 167.265 123.988 167.254 123.996 167.251V148.772L120.344 148.761L123.256 153.773C122.559 153.35 121.73 153.095 120.851 153.091C118.269 153.095 116.158 155.184 116.158 157.773Z" fill="#616161"/>
<path d="M14.6169 21.2373C14.6169 18.8363 15.2206 16.9635 16.428 15.6189C17.6491 14.2606 19.371 13.5814 21.5937 13.5814C23.8164 13.5814 25.4903 14.2263 26.6153 15.516C27.7541 16.792 28.3235 18.6099 28.3235 20.9698C28.3235 25.4563 26.3752 27.878 22.4787 28.2347V28.3788C23.2607 28.4611 23.837 28.6737 24.2074 29.0167C24.5916 29.3598 24.8797 29.8125 25.0718 30.3751C25.2639 30.9513 25.4354 31.3423 25.5863 31.5481C25.7372 31.754 25.9636 31.8569 26.2655 31.8569C26.7868 31.8569 27.0955 31.308 27.1916 30.2104L27.6444 30.2516C27.6169 31.1571 27.3357 31.85 26.8006 32.3302C26.2655 32.8104 25.5177 33.0505 24.5573 33.0505C23.6106 33.0505 22.8766 32.8104 22.3552 32.3302C21.8338 31.8637 21.4359 31.1708 21.1615 30.2516C20.9832 29.689 20.8322 29.3255 20.7087 29.1608C20.5853 28.9962 20.4275 28.9138 20.2354 28.9138C19.8512 28.9138 19.3436 29.1951 18.7124 29.7576L18.4243 29.4284C18.9731 28.8795 19.5974 28.5434 20.2971 28.4199V28.2964C18.4312 28.1043 17.018 27.3978 16.0576 26.1766C15.0971 24.9555 14.6169 23.3091 14.6169 21.2373ZM24.0839 21.8547V20.3318C24.0839 17.821 23.9605 16.2363 23.7135 15.5777C23.4391 14.8231 23.0481 14.3566 22.5404 14.1782C22.2523 14.0685 21.9024 14.0136 21.4908 14.0136C21.0792 14.0136 20.7225 14.0685 20.4206 14.1782C20.1325 14.288 19.8924 14.4801 19.7003 14.7545C19.5082 15.0289 19.3504 15.317 19.227 15.6189C19.1172 15.9207 19.028 16.346 18.9594 16.8949C18.8771 17.6906 18.8359 18.8637 18.8359 20.4141V21.8959C18.8359 23.5698 18.8977 24.7635 19.0211 25.4769C19.1583 26.1766 19.323 26.6774 19.5151 26.9793C19.9404 27.6516 20.599 27.9877 21.4908 27.9877C22.5747 27.9877 23.2744 27.535 23.59 26.6294C23.9193 25.7102 24.0839 24.1186 24.0839 21.8547Z" fill="#2C2C2C"/>
<path d="M130.091 179.845C130.091 182.246 129.487 184.119 128.28 185.463C127.059 186.822 125.337 187.501 123.114 187.501C120.892 187.501 119.218 186.856 118.093 185.566C116.954 184.29 116.384 182.472 116.384 180.112C116.384 175.626 118.333 173.204 122.229 172.848L122.229 172.704C121.447 172.621 120.871 172.409 120.501 172.066C120.116 171.723 119.828 171.27 119.636 170.707C119.444 170.131 119.273 169.74 119.122 169.534C118.971 169.328 118.744 169.225 118.443 169.225C117.921 169.225 117.612 169.774 117.516 170.872L117.064 170.831C117.091 169.925 117.372 169.232 117.907 168.752C118.443 168.272 119.19 168.032 120.151 168.032C121.097 168.032 121.831 168.272 122.353 168.752C122.874 169.219 123.272 169.911 123.546 170.831C123.725 171.393 123.876 171.757 123.999 171.921C124.123 172.086 124.281 172.168 124.473 172.168C124.857 172.168 125.364 171.887 125.996 171.325L126.284 171.654C125.735 172.203 125.111 172.539 124.411 172.662L124.411 172.786C126.277 172.978 127.69 173.685 128.65 174.906C129.611 176.127 130.091 177.773 130.091 179.845ZM120.624 179.228L120.624 180.75C120.624 183.261 120.748 184.846 120.995 185.505C121.269 186.259 121.66 186.726 122.168 186.904C122.456 187.014 122.806 187.069 123.217 187.069C123.629 187.069 123.986 187.014 124.287 186.904C124.576 186.794 124.816 186.602 125.008 186.328C125.2 186.053 125.358 185.765 125.481 185.463C125.591 185.162 125.68 184.736 125.749 184.187C125.831 183.392 125.872 182.219 125.872 180.668L125.872 179.186C125.872 177.512 125.81 176.319 125.687 175.605C125.55 174.906 125.385 174.405 125.193 174.103C124.768 173.431 124.109 173.095 123.217 173.095C122.133 173.095 121.434 173.547 121.118 174.453C120.789 175.372 120.624 176.964 120.624 179.228Z" fill="#2C2C2C"/>
</svg>
