<svg width="143" height="200" viewBox="0 0 143 200" fill="none" xmlns="http://www.w3.org/2000/svg">
<path d="M15.7249 199.045C7.31318 199.059 0.45958 192.346 0.438039 184.077L3.51816e-05 15.0784C-0.0179156 6.76365 6.8357 0.00698729 15.269 0.024938L126.944 0.229574C135.349 0.243934 142.191 7.00779 142.191 15.3082V183.941C142.191 192.188 135.381 198.908 127.002 198.912L15.7249 199.045Z" fill="#C9C9C9"/>
<path d="M15.811 198.596C7.51772 198.596 0.764648 191.865 0.764648 183.593V14.9996C0.764648 6.72435 7.51772 0 15.811 0H125.874C134.167 0 140.92 6.72794 140.92 14.9996V183.593C140.92 191.865 134.167 198.596 125.874 198.596H15.811Z" fill="#F1EAD8"/>
<path d="M127.148 195.466H17.0885C10.655 195.466 5.42773 190.256 5.42773 183.852V15.2584C5.42773 9.10484 10.3211 4.08579 12.9383 3.12722L13.3261 2.98364L123.967 2.98723C134.906 3.84528 138.809 9.88749 138.809 15.2584V183.852C138.809 190.256 133.582 195.466 127.148 195.466ZM14.2631 7.5862C13.0712 8.32936 10.0339 11.4348 10.0339 15.2548V183.848C10.0339 187.711 13.2004 190.852 17.0885 190.852H127.148C131.033 190.852 134.203 187.711 134.203 183.848V15.2548C134.203 10.9897 130.275 8.12473 123.691 7.5862H14.2631Z" fill="#D66753"/>
<path d="M93.5413 56.3398L93.3296 59.3412L93.1931 61.1686L92.6331 69.0059L92.4966 70.8405L92.3243 73.3464V73.3572L92.1555 75.6656L90.3641 75.7051L89.524 75.7159L87.772 75.759L86.7775 75.7805L85.5712 75.8056L83.4315 75.8451L81.062 75.899L69.911 76.1288H69.8895L58.742 75.899L56.3726 75.8451L54.2328 75.8056L53.0265 75.7805L52.0321 75.759L51.1525 75.7374L50.2765 75.7159L49.4292 75.7051L47.6485 75.6656L47.4798 73.3572V73.3464L47.3038 70.8405L47.1638 69.0059L46.6109 61.1686L46.4709 59.3412L46.2627 56.3398H93.5413Z" fill="#C9C9C9"/>
<path opacity="0.2" d="M91.3872 56.3398L77.3999 66.4102H77.3389C76.1434 67.936 74.7288 69.0992 73.1815 69.767C72.2085 70.1835 71.171 70.406 70.1119 70.406C70.0473 70.406 69.9719 70.3989 69.9037 70.3881C69.8929 70.3881 69.8929 70.3881 69.8857 70.3881V56.3398H91.3872Z" fill="#616161"/>
<path d="M101.093 87.1903L92.1253 89.8613L91.2816 90.1091L91.0339 90.1844C90.3302 89.0033 89.7594 88.1417 89.5116 87.7575C89.4255 87.6319 89.3752 87.5565 89.3465 87.5385C89.3285 87.5565 89.3142 87.5852 89.2998 87.6067C89.2711 87.6498 89.2567 87.6821 89.228 87.7288C88.5028 88.9387 88.1043 90.0588 87.8566 91.1358L85.4619 91.8575L69.9094 96.4923L60.2017 99.3788L56.9598 100.363C56.8557 99.982 56.7156 99.5619 56.5505 99.1347C50.9391 96.7221 53.4917 92.8843 50.7632 88.0447C50.7344 87.9837 50.6986 87.9226 50.6339 87.8616C50.5909 87.7539 50.5155 87.6462 50.4472 87.5385C50.1134 87.955 43.7839 97.6161 42.6961 104.617L41.9135 104.843L35.6164 106.721H35.462C35.3543 92.913 39.5655 83.7006 43.4321 78.1395C43.7121 77.759 43.967 77.3856 44.2471 77.0337C44.5091 76.7178 44.7533 76.3731 45.001 76.0859L45.0153 76.068C45.0153 76.0536 45.0153 76.0357 45.0153 76.0357C45.2128 75.8203 45.3959 75.5761 45.597 75.3751C45.7801 75.1453 45.9667 74.9299 46.1498 74.7324C46.6273 74.2119 47.0689 73.7488 47.471 73.3503V73.3359H47.4854C47.5931 73.2426 47.6828 73.1528 47.7941 73.0415C47.8875 72.9482 47.9772 72.8584 48.067 72.783C48.1603 72.7076 48.2501 72.6143 48.347 72.5353C48.5193 72.3809 48.6737 72.2481 48.8245 72.1224C49.4384 71.5875 49.8226 71.3398 49.8226 71.3398L51.2802 71.6952L51.5279 71.7526L52.1095 71.907L52.2603 71.9357L54.2923 71.846L57.4265 71.7239L60.7582 71.5839L69.8987 71.2141H69.913L79.233 71.5982L82.3852 71.7203L85.5194 71.8424L87.5442 71.9321L87.7094 71.9034L88.2766 71.7491L88.5351 71.6916L89.9819 71.3362C89.9819 71.3362 90.3661 71.5839 90.9764 72.1188C91.1272 72.2409 91.2852 72.3773 91.4683 72.5317C91.5437 72.6143 91.637 72.704 91.7232 72.7794C91.8237 72.8548 91.9134 72.9445 92.0068 73.0379C92.1109 73.1492 92.2043 73.2389 92.312 73.3323L92.3263 73.3466C92.4268 73.422 92.5094 73.5298 92.6207 73.6375C92.7284 73.7452 92.8469 73.8529 92.9618 73.9785C93.1736 74.2083 93.4141 74.4524 93.6511 74.7289C93.8162 74.8976 93.9563 75.0663 94.125 75.2494C94.1537 75.2961 94.1681 75.3284 94.2076 75.3715C94.405 75.5726 94.5917 75.8167 94.7892 76.0321C94.7892 76.0321 94.8035 76.05 94.8035 76.0644V76.0824C95.0477 76.3696 95.2918 76.7106 95.5682 77.0301C95.8303 77.382 96.0924 77.7553 96.3688 78.1359C97.9952 80.4946 99.6897 83.4924 101.093 87.1903Z" fill="#FDD5B0"/>
<path opacity="0.2" d="M69.8965 81.3308H71.9465L71.0346 88.7266C70.6612 88.7481 70.277 88.7552 69.9001 88.766L69.8965 81.3308Z" fill="#616161"/>
<path opacity="0.2" d="M69.9093 56.3398H48.415L62.4023 66.4066H62.4633C62.4633 66.4066 66.9259 70.406 69.6867 70.406C69.7657 70.406 69.8374 70.3917 69.9093 70.3917V56.3398Z" fill="#616161"/>
<path opacity="0.2" d="M69.909 81.3306H67.8555L68.7746 88.7263C69.1479 88.7479 69.5321 88.755 69.909 88.7658V81.3306Z" fill="#616161"/>
<path opacity="0.2" d="M62.4251 87.5419C52.0316 85.2478 46.3879 81.7474 43.4404 78.15C45.5945 75.0625 47.6516 73.1095 48.822 72.115L62.4251 87.5419Z" fill="#616161"/>
<path d="M88.7049 74.7539C88.7049 77.3675 87.7248 79.8196 86.0015 81.927C84.5762 83.6934 82.6232 85.212 80.3039 86.3645C80.2896 86.3824 80.2752 86.3824 80.2429 86.3968C79.3382 86.8276 78.3868 87.2297 77.3708 87.5456C75.407 88.1918 73.2708 88.6047 71.027 88.7304C70.9049 88.7304 70.7864 88.7483 70.6608 88.7483C70.4167 88.7591 70.1653 88.7591 69.9104 88.7591C69.8961 88.7591 69.8961 88.7591 69.8961 88.7591C69.6448 88.7591 69.3827 88.7591 69.1422 88.7483C69.0129 88.7483 68.8909 88.7304 68.7724 88.7304C66.5285 88.6047 64.3888 88.1918 62.425 87.5456C61.4269 87.2261 60.4648 86.824 59.5529 86.3968C59.5313 86.3824 59.5313 86.3824 59.499 86.3645C57.1906 85.212 55.2267 83.6934 53.8086 81.945C52.0782 79.8376 51.0909 77.3855 51.0909 74.7539C51.0909 72.8188 50.6744 72.6645 51.6438 70.9771L57.1583 70.8981L66.6147 70.7761V68.823C67.5984 69.2574 68.6288 69.4872 69.6915 69.4872C69.7489 69.4872 69.8243 69.4728 69.8925 69.4728C69.8925 69.4728 69.8925 69.4728 69.9069 69.4728C69.9787 69.4728 70.0433 69.4872 70.1187 69.4872C71.1778 69.4872 72.2082 69.2574 73.1775 68.823V70.7761L82.6339 70.8981L88.1628 70.9771C89.1285 72.6645 88.7049 72.8188 88.7049 74.7539Z" fill="#FDD5B0"/>
<path opacity="0.2" d="M88.1448 70.9769L82.6267 70.9015L79.9987 79.2127C79.3453 79.1014 78.6775 79.0332 78.0026 79.0225C74.0606 78.9614 69.9965 82.4187 69.9965 82.4187C69.9965 82.4187 65.6992 78.9614 61.8541 78.9614C61.1433 78.9614 60.4432 79.0332 59.7575 79.1517L57.1438 70.8979L51.6294 70.9733C50.6564 72.6571 51.0801 72.8187 51.0801 74.7573C51.0801 77.3782 52.0961 79.823 53.8122 81.9268C53.805 81.9268 53.7978 81.9305 53.7978 81.9376C53.9091 82.0812 54.0527 82.2177 54.1855 82.3577C54.3794 82.5803 54.5769 82.8028 54.7923 83.0183C55.0472 83.2767 55.3308 83.5245 55.6144 83.7722C55.7939 83.9302 55.9662 84.0882 56.1529 84.2389C56.5227 84.5298 56.9141 84.8026 57.3018 85.0682C57.449 85.1616 57.5711 85.2657 57.7147 85.3591C58.2783 85.7109 58.8599 86.0483 59.4774 86.3535C59.5097 86.3715 59.5097 86.3715 59.542 86.3858C60.4467 86.8166 61.4125 87.2188 62.407 87.5347C64.3744 88.1809 66.5105 88.5937 68.7544 88.7194C68.8728 88.7194 68.9985 88.7374 69.1242 88.7374C69.3719 88.7481 69.6304 88.7482 69.8745 88.7482C69.8745 88.7482 69.8745 88.7482 69.8924 88.7482C70.1581 88.7482 70.3986 88.7481 70.6464 88.7374C70.7684 88.7374 70.8905 88.7194 71.0162 88.7194C73.2528 88.5937 75.3925 88.1809 77.3527 87.5347C78.3688 87.2152 79.3202 86.8131 80.2249 86.3858C80.2536 86.3715 80.2715 86.3715 80.2859 86.3535C80.9106 86.0448 81.503 85.7073 82.0666 85.3447C82.1815 85.2765 82.2749 85.2011 82.379 85.1257C82.8098 84.8349 83.2262 84.5441 83.6212 84.2389C83.815 84.081 83.9945 83.9158 84.1848 83.7507C84.4541 83.5137 84.7233 83.2767 84.9746 83.0254C85.2044 82.7957 85.4162 82.5515 85.6281 82.3074C85.7429 82.1746 85.8794 82.0525 85.9907 81.9161L85.9763 81.9053C87.6852 79.8087 88.6904 77.3745 88.6904 74.7537C88.6904 72.8222 89.1141 72.6607 88.1448 70.9769Z" fill="#616161"/>
<path d="M73.1771 67.5052V68.8192C72.2077 69.2536 71.1809 69.4834 70.1183 69.4834C70.0429 69.4834 69.9603 69.469 69.9064 69.469C69.8274 69.469 69.7521 69.4834 69.691 69.4834C68.6283 69.4834 67.598 69.2536 66.6143 68.8192V67.5052C66.6143 67.2432 66.6609 66.9955 66.7076 66.7513C66.7543 66.5826 66.7974 66.4174 66.8764 66.2595C67.3646 65.125 68.4847 64.3208 69.788 64.3208C69.8203 64.3208 69.8562 64.3352 69.9028 64.3352C69.9316 64.3352 69.9603 64.3208 69.9926 64.3208C71.2097 64.3208 72.2508 64.9957 72.7858 65.9974C72.9078 66.2272 73.0227 66.4892 73.0801 66.7477C73.1447 66.9954 73.1771 67.2467 73.1771 67.5052Z" fill="#FDD5B0"/>
<path opacity="0.2" d="M73.1771 67.5052V68.8192C72.2077 69.2536 71.1809 69.4834 70.1183 69.4834C70.0429 69.4834 69.9603 69.469 69.9064 69.469C69.8274 69.469 69.7521 69.4834 69.691 69.4834C68.6283 69.4834 67.598 69.2536 66.6143 68.8192V67.5052C66.6143 67.2431 66.6609 66.9954 66.7076 66.7513C66.7543 66.5825 66.7974 66.4174 66.8764 66.2594C68.097 66.8589 69.2387 67.3472 69.6874 67.3472C69.7449 67.3472 69.8203 67.3329 69.8885 67.3329C69.8885 67.3329 69.8885 67.3329 69.9028 67.3329C69.9746 67.3329 70.0393 67.3472 70.1147 67.3472C70.5275 67.3472 71.6046 66.7477 72.7858 65.9973C72.9078 66.2271 73.0227 66.4892 73.0801 66.7477C73.1447 66.9954 73.1771 67.2467 73.1771 67.5052Z" fill="#616161"/>
<path opacity="0.2" d="M96.3669 78.1537C93.4122 81.7475 87.7721 85.2515 77.375 87.5456L83.0115 81.1515L83.3562 80.7674L87.7721 75.7627L88.7019 74.7072L90.978 72.1331C91.1252 72.2479 91.2868 72.388 91.4555 72.5459C91.5381 72.6213 91.635 72.7111 91.7212 72.7937C91.8217 72.8691 91.9151 72.966 92.012 73.0486C92.1089 73.1455 92.2059 73.2388 92.3171 73.3501H92.3243V73.3609C92.4248 73.447 92.5182 73.5404 92.6223 73.6553C92.7372 73.763 92.8449 73.8707 92.9598 73.9892C93.1824 74.2261 93.4121 74.4703 93.6491 74.7359C93.8107 74.9083 93.9615 75.077 94.1158 75.2601C94.1481 75.2888 94.1805 75.3355 94.2164 75.3642C94.3995 75.576 94.5898 75.8022 94.7836 76.0463C94.7836 76.0463 94.7908 76.0571 94.7908 76.0714H94.8051V76.0858C95.0457 76.391 95.297 76.7141 95.5627 77.0444C95.8355 77.3962 96.0976 77.7696 96.3669 78.1537Z" fill="#616161"/>
<path d="M97.7054 67.4153C97.7054 68.0579 97.6659 68.7042 97.5582 69.3827C97.2638 71.5188 96.4417 73.7878 94.8046 76.0711V76.0855C93.2285 78.2575 90.9308 80.4403 87.6566 82.5513C87.4627 82.677 87.2437 82.8062 87.0319 82.9355C85.1363 84.113 82.896 85.2655 80.3111 86.3641C80.2537 86.4 80.2034 86.4215 80.1531 86.4431C80.1065 86.461 80.0598 86.4825 80.0239 86.5005C79.8588 86.5579 79.7116 86.6226 79.5464 86.6872C79.0905 86.881 78.6094 87.0785 78.1104 87.2652C77.8698 87.3657 77.6257 87.4591 77.3672 87.5488L83.4274 75.8521L85.4989 71.8635L85.9692 70.948L93.5373 56.3433C93.5373 56.3433 97.7054 61.1074 97.7054 67.4153Z" fill="#F9F9F9"/>
<path d="M62.4241 87.5417C58.5503 86.0877 55.3622 84.5296 52.7594 82.9284C52.5512 82.7991 52.3429 82.6663 52.1455 82.5407C45.414 78.2217 42.8147 73.5509 42.2403 69.372C42.1397 68.7078 42.0967 68.0508 42.0967 67.4118C42.1075 61.1075 46.2612 56.3362 46.2612 56.3362L62.4241 87.5417Z" fill="#F9F9F9"/>
<path d="M48.832 74.9007L50.7815 77.4964L49.9019 74.3694L48.832 74.9007Z" fill="#7D8450"/>
<path d="M55.5811 81.1941L57.5305 83.7933L56.6437 80.6699L55.5811 81.1941Z" fill="#7D8450"/>
<path d="M45.2812 59.4128L47.2307 62.0085L46.3511 58.885L45.2812 59.4128Z" fill="#7D8450"/>
<path d="M47.8535 64.8628L49.8066 67.4512L48.9234 64.3242L47.8535 64.8628Z" fill="#7D8450"/>
<path d="M50.4307 70.3017L52.3837 72.8973L51.4969 69.7739L50.4307 70.3017Z" fill="#7D8450"/>
<path d="M53.0117 75.7518L54.9576 78.3439L54.078 75.2205L53.0117 75.7518Z" fill="#7D8450"/>
<path d="M52.7618 82.932C52.5535 82.8028 52.3453 82.67 52.1478 82.5444L51.0098 81.0329L52.0796 80.4944L52.7618 82.932Z" fill="#7D8450"/>
<path d="M43.6855 64.0084L45.6314 66.6041L44.7482 63.4771L43.6855 64.0084Z" fill="#7D8450"/>
<path d="M46.2627 69.4545L48.2086 72.0466L47.329 68.9268L46.2627 69.4545Z" fill="#7D8450"/>
<path d="M43.0768 70.4885L42.2403 69.3756C42.1397 68.7114 42.0967 68.0544 42.0967 67.4153L42.19 67.3687L43.0768 70.4885Z" fill="#7D8450"/>
<path d="M44.8252 74.3553L46.7711 76.9402L45.8915 73.8203L44.8252 74.3553Z" fill="#7D8450"/>
<path d="M90.9716 74.9007L89.0186 77.4964L89.9017 74.3694L90.9716 74.9007Z" fill="#7D8450"/>
<path d="M84.2216 81.1941L82.2793 83.7933L83.1517 80.6699L84.2216 81.1941Z" fill="#7D8450"/>
<path d="M94.5227 59.4128L92.5732 62.0085L93.4564 58.885L94.5227 59.4128Z" fill="#7D8450"/>
<path d="M91.9491 64.8628L89.9961 67.4512L90.8792 64.3242L91.9491 64.8628Z" fill="#7D8450"/>
<path d="M89.3726 70.3017L87.416 72.8973L88.3064 69.7739L89.3726 70.3017Z" fill="#7D8450"/>
<path d="M86.7952 75.7518L84.8457 78.3439L85.7253 75.2205L86.7952 75.7518Z" fill="#7D8450"/>
<path d="M87.0439 82.932C87.2486 82.8028 87.4604 82.67 87.6579 82.5444L88.7923 81.0329L87.7225 80.4944L87.0439 82.932Z" fill="#7D8450"/>
<path d="M96.1246 64.0084L94.1787 66.6041L95.0583 63.4771L96.1246 64.0084Z" fill="#7D8450"/>
<path d="M93.5514 69.4545L91.5947 72.0466L92.4743 68.9268L93.5514 69.4545Z" fill="#7D8450"/>
<path d="M97.7073 67.4154C97.7073 68.0581 97.6678 68.7043 97.5601 69.3828L96.7344 70.4922L97.6211 67.3723L97.7073 67.4154Z" fill="#7D8450"/>
<path d="M94.9781 74.3553L93.0322 76.9402L93.9118 73.8203L94.9781 74.3553Z" fill="#7D8450"/>
<path d="M89.2278 87.7323C88.5026 88.9422 88.1042 90.0623 87.8564 91.1393L85.4618 91.8609L69.9093 96.4958L60.2015 99.3823L56.9596 100.366C56.8555 99.9854 56.7155 99.5654 56.5503 99.1382C50.9389 96.7256 53.4915 92.8877 50.763 88.0482C50.7343 87.9872 50.6984 87.9262 50.6338 87.8651C51.5708 85.8977 52.9997 84.2247 54.784 83.0148C56.7981 81.5967 59.2537 80.771 61.8817 80.771C65.716 80.771 70.017 84.2247 70.017 84.2247C70.017 84.2247 74.0667 80.771 78.0194 80.832C80.5792 80.8607 83.0241 81.6578 85.0346 82.9933C86.8332 84.1996 88.2908 85.8259 89.2278 87.7323Z" fill="#D66753"/>
<path d="M96.5216 33.32C95.8359 46.2446 69.8935 65.8935 69.8935 65.8935C69.8935 65.8935 43.2402 46.1046 43.2402 33.137C43.2402 24.2478 50.5139 17.0603 59.421 17.0603C64.4149 17.0603 70.0048 21.5552 70.0048 21.5552C70.0048 21.5552 75.2823 17.0603 80.427 17.1357C89.3557 17.247 96.9991 24.4093 96.5216 33.32Z" fill="#D66753"/>
<path opacity="0.2" d="M60.2084 99.3895L56.9557 100.359C56.848 99.9783 56.7116 99.5654 56.55 99.1417C50.7411 96.6502 53.6743 92.6328 50.4504 87.5528C50.1057 87.9549 43.7763 97.6267 42.6884 104.62L41.913 104.854C40.2436 97.5585 52.2634 84.8027 52.2634 84.8027C52.2634 84.8027 56.2161 97.5334 60.2084 99.3895Z" fill="#616161"/>
<path opacity="0.2" d="M92.1187 89.8577L91.2858 90.1126L91.0309 90.1844C90.3201 89.0069 89.7672 88.1417 89.5123 87.7575C89.4261 87.6426 89.3759 87.5636 89.3543 87.5385C88.5501 88.8166 88.1193 90.0157 87.8536 91.1358L85.459 91.8538C87.2433 88.4971 87.4156 84.4043 87.4156 84.4043C87.4156 84.4043 90.1872 87.1867 92.1187 89.8577Z" fill="#616161"/>
<path d="M73.7513 35.022C70.732 35.022 70.8397 36.3395 70.1145 37.8007C69.3857 36.3395 69.041 35.022 66.0504 35.022C63.0598 35.022 58.8701 43.509 58.8701 50.6391C58.8701 55.7084 60.3816 60.2355 62.7547 63.2979C62.7654 63.3159 62.7726 63.3338 62.787 63.3518C62.787 63.3554 62.787 63.3554 62.7942 63.359C64.0148 64.9171 65.458 66.0911 67.0485 66.7481C67.9532 67.1179 68.9046 67.3261 69.8919 67.3405C69.8919 67.3405 69.8919 67.344 69.8955 67.344H69.9062C70.8899 67.3297 71.8449 67.1214 72.7496 66.7481C74.3365 66.0911 75.7833 64.9171 77.0075 63.359C77.0075 63.3554 77.0111 63.3554 77.0111 63.3518C77.0255 63.3374 77.0362 63.3159 77.0506 63.2979C79.4237 60.2355 80.928 55.7048 80.928 50.6391C80.928 43.5055 77.3917 35.3379 73.7513 35.022Z" fill="#FDD5B0"/>
<path d="M61.6415 49.6731C61.5912 49.7952 61.5625 49.9208 61.5625 50.0572C61.5625 50.9153 62.618 51.6046 63.9105 51.6046C65.2173 51.6046 66.262 50.9153 66.262 50.0572C66.262 49.9208 66.2333 49.7952 66.183 49.6731H61.6415Z" fill="#2C2C2C"/>
<path d="M78.1557 49.6731C78.2024 49.7952 78.2347 49.9208 78.2347 50.0572C78.2347 50.9153 77.1792 51.6046 75.8831 51.6046C74.5799 51.6046 73.5352 50.9153 73.5352 50.0572C73.5352 49.9208 73.5639 49.7952 73.6142 49.6731H78.1557Z" fill="#2C2C2C"/>
<path d="M72.9712 61.2441H69.9088H69.8944H66.832C67.4459 62.0663 68.584 62.6156 69.8944 62.6264C69.8944 62.6264 69.8944 62.6299 69.898 62.6299H69.9088C71.212 62.6228 72.3501 62.0663 72.9712 61.2441Z" fill="#D66753"/>
<path d="M69.8982 61.0826C68.5052 59.4491 66.5234 61.5134 66.5234 61.5134H69.8946H69.9089H73.2837C73.2837 61.5134 71.2947 59.4491 69.8982 61.0826Z" fill="#D66753"/>
<path opacity="0.2" d="M69.9064 52.2833V52.2258L69.8956 52.2545L69.892 52.2258V52.2833L68.1221 57.9234C68.1221 57.9234 68.7647 58.4871 69.8202 58.4871C70.8757 58.4871 71.6763 57.9234 71.6763 57.9234L69.9064 52.2833Z" fill="#616161"/>
<path d="M73.2826 46.3057L77.9426 46.557L78.0072 46.5642L78.0431 46.6001L79.8956 48.6213L77.8456 46.7975L77.9426 46.8406L73.2754 47.0704L73.2826 46.3057Z" fill="#D66753"/>
<path d="M66.9243 47.0704L62.2607 46.8406L62.3504 46.7975L60.3076 48.6213L62.153 46.6001L62.196 46.5642L62.2535 46.557L66.9207 46.3057L66.9243 47.0704Z" fill="#D66753"/>
<path d="M89.2278 87.7323C88.5026 88.9422 88.1042 90.0623 87.8564 91.1393L85.4618 91.8609L69.9093 96.4958L60.2015 99.3823L56.9596 100.366C56.8555 99.9854 56.7155 99.5654 56.5503 99.1382C50.9389 96.7256 53.4915 92.8877 50.763 88.0482C50.7343 87.9872 50.6984 87.9262 50.6338 87.8651C51.5708 85.8977 52.9997 84.2247 54.784 83.0148C56.7981 81.5967 59.2537 80.771 61.8817 80.771C65.716 80.771 70.017 84.2247 70.017 84.2247C70.017 84.2247 74.0667 80.771 78.0194 80.832C80.5792 80.8607 83.0241 81.6578 85.0346 82.9933C86.8332 84.1996 88.2908 85.8259 89.2278 87.7323Z" fill="#D66753"/>
<path d="M96.5216 33.32C95.8359 46.2446 69.8935 65.8935 69.8935 65.8935C69.8935 65.8935 43.2402 46.1046 43.2402 33.137C43.2402 24.2478 50.5139 17.0603 59.421 17.0603C64.4149 17.0603 70.0048 21.5552 70.0048 21.5552C70.0048 21.5552 75.2823 17.0603 80.427 17.1357C89.3557 17.247 96.9991 24.4093 96.5216 33.32Z" fill="#D66753"/>
<path opacity="0.2" d="M60.2084 99.3895L56.9557 100.359C56.848 99.9783 56.7116 99.5654 56.55 99.1417C50.7411 96.6502 53.6743 92.6328 50.4504 87.5528C50.1057 87.9549 43.7763 97.6267 42.6884 104.62L41.913 104.854C40.2436 97.5585 52.2634 84.8027 52.2634 84.8027C52.2634 84.8027 56.2161 97.5334 60.2084 99.3895Z" fill="#616161"/>
<path opacity="0.2" d="M92.1187 89.8577L91.2858 90.1126L91.0309 90.1844C90.3201 89.0069 89.7672 88.1417 89.5123 87.7575C89.4261 87.6426 89.3759 87.5636 89.3543 87.5385C88.5501 88.8166 88.1193 90.0157 87.8536 91.1358L85.459 91.8538C87.2433 88.4971 87.4156 84.4043 87.4156 84.4043C87.4156 84.4043 90.1872 87.1867 92.1187 89.8577Z" fill="#616161"/>
<path d="M73.7513 35.022C70.732 35.022 70.8397 36.3395 70.1145 37.8007C69.3857 36.3395 69.041 35.022 66.0504 35.022C63.0598 35.022 58.8701 43.509 58.8701 50.6391C58.8701 55.7084 60.3816 60.2355 62.7547 63.2979C62.7654 63.3159 62.7726 63.3338 62.787 63.3518C62.787 63.3554 62.787 63.3554 62.7942 63.359C64.0148 64.9171 65.458 66.0911 67.0485 66.7481C67.9532 67.1179 68.9046 67.3261 69.8919 67.3405C69.8919 67.3405 69.8919 67.344 69.8955 67.344H69.9062C70.8899 67.3297 71.8449 67.1214 72.7496 66.7481C74.3365 66.0911 75.7833 64.9171 77.0075 63.359C77.0075 63.3554 77.0111 63.3554 77.0111 63.3518C77.0255 63.3374 77.0362 63.3159 77.0506 63.2979C79.4237 60.2355 80.928 55.7048 80.928 50.6391C80.928 43.5055 77.3917 35.3379 73.7513 35.022Z" fill="#FDD5B0"/>
<path d="M61.6415 49.6731C61.5912 49.7952 61.5625 49.9208 61.5625 50.0572C61.5625 50.9153 62.618 51.6046 63.9105 51.6046C65.2173 51.6046 66.262 50.9153 66.262 50.0572C66.262 49.9208 66.2333 49.7952 66.183 49.6731H61.6415Z" fill="#2C2C2C"/>
<path d="M78.1557 49.6731C78.2024 49.7952 78.2347 49.9208 78.2347 50.0572C78.2347 50.9153 77.1792 51.6046 75.8831 51.6046C74.5799 51.6046 73.5352 50.9153 73.5352 50.0572C73.5352 49.9208 73.5639 49.7952 73.6142 49.6731H78.1557Z" fill="#2C2C2C"/>
<path d="M72.9712 61.2441H69.9088H69.8944H66.832C67.4459 62.0663 68.584 62.6156 69.8944 62.6264C69.8944 62.6264 69.8944 62.6299 69.898 62.6299H69.9088C71.212 62.6228 72.3501 62.0663 72.9712 61.2441Z" fill="#D66753"/>
<path d="M69.8982 61.0826C68.5052 59.4491 66.5234 61.5134 66.5234 61.5134H69.8946H69.9089H73.2837C73.2837 61.5134 71.2947 59.4491 69.8982 61.0826Z" fill="#D66753"/>
<path opacity="0.2" d="M69.9064 52.2833V52.2258L69.8956 52.2545L69.892 52.2258V52.2833L68.1221 57.9234C68.1221 57.9234 68.7647 58.4871 69.8202 58.4871C70.8757 58.4871 71.6763 57.9234 71.6763 57.9234L69.9064 52.2833Z" fill="#616161"/>
<path d="M73.2826 46.3057L77.9426 46.557L78.0072 46.5642L78.0431 46.6001L79.8956 48.6213L77.8456 46.7975L77.9426 46.8406L73.2754 47.0704L73.2826 46.3057Z" fill="#D66753"/>
<path d="M66.9243 47.0704L62.2607 46.8406L62.3504 46.7975L60.3076 48.6213L62.153 46.6001L62.196 46.5642L62.2535 46.557L66.9207 46.3057L66.9243 47.0704Z" fill="#D66753"/>
<path opacity="0.2" d="M77.3749 26.2869C77.5796 29.8519 69.9289 35.5639 69.9289 35.5639C69.9289 35.5639 62.2927 30.0135 62.7343 25.9998C63.0143 23.4938 65.2187 21.6018 67.5917 21.6018C68.8878 21.6018 70.3131 22.7147 70.3131 22.7147C70.3131 22.7147 71.6235 21.6018 72.8836 21.6197C75.009 21.6521 77.2457 24.0287 77.3749 26.2869Z" fill="#616161"/>
<path d="M76.8266 26.5887C76.6471 29.8449 70.1202 34.7922 70.1202 34.7922C70.1202 34.7922 63.4102 29.809 63.4102 26.5456C63.4102 24.3125 65.2483 22.4995 67.4886 22.4995C68.7451 22.4995 70.1453 23.6304 70.1453 23.6304C70.1453 23.6304 71.4772 22.4995 72.7697 22.5175C75.0171 22.5462 76.945 24.3448 76.8266 26.5887Z" fill="#E3B605"/>
<path opacity="0.2" d="M70.1016 32.4368C67.5921 30.3653 65.2441 27.7552 65.2441 26.5417C65.2441 25.3247 66.2494 24.3374 67.4844 24.3374C67.8398 24.3374 68.6296 24.7754 68.9851 25.0626L70.1734 26.0176L71.3366 25.0339C71.6633 24.7574 72.3598 24.3589 72.7332 24.3589C73.3902 24.3661 74.0149 24.6426 74.4457 25.1057C74.7113 25.3821 75.0093 25.8489 74.9734 26.4951C74.916 27.7409 72.5752 30.3689 70.1016 32.4368Z" fill="#616161"/>
<path opacity="0.2" d="M96.3648 78.1467C96.0884 77.7661 95.8263 77.3928 95.5642 77.0409C95.4673 76.9296 95.3847 76.8219 95.295 76.707C95.1298 76.4988 94.9647 76.2798 94.8031 76.0859V76.0716C96.4402 73.7846 97.266 71.5193 97.5568 69.3832C97.6645 68.7046 97.704 68.0584 97.704 67.4157C97.704 61.1079 93.5394 56.3401 93.5394 56.3401H80.999C88.1326 49.5511 96.1458 40.425 96.5192 33.3201C96.9967 24.4093 89.3533 17.247 80.4282 17.1285C75.2835 17.0567 70.006 21.548 70.006 21.548C70.006 21.548 69.9773 21.5336 69.9629 21.5193V96.4815L85.458 91.861L87.3787 91.2795L87.8526 91.1394C87.867 91.0928 87.8777 91.0532 87.8849 91.0102C88.1614 89.9259 88.5742 88.7771 89.3461 87.5457C89.3497 87.5493 89.3641 87.5636 89.3712 87.5744C89.4 87.6067 89.4359 87.657 89.5077 87.7575C89.7626 88.1417 90.3155 89.0069 91.0263 90.1844L91.0478 90.1809L91.2812 90.1126L91.6294 90.0085L92.1177 89.8613L101.086 87.1903C99.6893 83.4924 97.9948 80.4946 96.3648 78.1467Z" fill="#616161"/>
<path d="M43.0049 145.06L43.2203 142.058L43.3675 140.224L43.9132 132.39L44.0568 130.556L44.2255 128.053V128.039L44.3979 125.734L46.1822 125.695L47.0259 125.68L48.7814 125.637L49.7687 125.619L50.9822 125.598L53.1219 125.551L55.4878 125.497L66.6352 125.267H66.6604L77.8078 125.497L80.1773 125.551L82.3206 125.598L83.5269 125.619L84.5178 125.637L85.3973 125.659L86.2769 125.68L87.1206 125.695L88.9049 125.734L89.0737 128.039V128.053L89.2424 130.556L89.3788 132.39L89.946 140.224L90.0753 142.058L90.2943 145.06H43.0049Z" fill="#C9C9C9"/>
<path opacity="0.2" d="M45.1689 145.06L59.1526 134.986H59.2172C60.4091 133.464 61.8272 132.297 63.3746 131.629C64.3439 131.213 65.3851 130.99 66.4406 130.99C66.5052 130.99 66.5806 130.997 66.638 131.008C66.656 131.008 66.656 131.008 66.6667 131.008V145.056H45.1689V145.06Z" fill="#616161"/>
<path d="M35.457 114.206L44.4216 111.531L45.2689 111.291L45.5166 111.216C46.2203 112.397 46.7876 113.255 47.0317 113.639C47.1286 113.761 47.1753 113.836 47.204 113.851C47.2148 113.836 47.2327 113.808 47.2471 113.793C47.2794 113.743 47.2938 113.714 47.3261 113.668C48.0441 112.454 48.4498 111.334 48.6939 110.261L51.0885 109.543L66.6411 104.897L76.3488 102.014L79.5907 101.03C79.6984 101.414 79.8348 101.831 80.0036 102.258C85.6078 104.667 83.0624 108.509 85.7909 113.348C85.8232 113.405 85.8555 113.467 85.9094 113.531C85.9632 113.639 86.0386 113.743 86.0925 113.851C86.4335 113.438 92.763 103.78 93.8544 96.7759L94.637 96.5426L100.938 94.6721H101.089C101.193 108.48 96.9886 117.696 93.1184 123.25C92.8383 123.63 92.5799 124 92.3034 124.355C92.0414 124.679 91.8008 125.016 91.5495 125.31L91.5351 125.325C91.5351 125.339 91.5351 125.357 91.5351 125.357C91.3305 125.573 91.1474 125.817 90.95 126.018C90.7633 126.247 90.5802 126.463 90.3971 126.664C89.9232 127.184 89.478 127.644 89.0759 128.043V128.06H89.0687C88.961 128.154 88.8641 128.244 88.7564 128.355C88.6666 128.441 88.5697 128.542 88.4799 128.617C88.3902 128.692 88.2968 128.782 88.2071 128.858C88.0347 129.008 87.884 129.148 87.7296 129.274C87.1157 129.809 86.7315 130.053 86.7315 130.053L85.2739 129.701L85.0262 129.64L84.4374 129.482L84.2866 129.453L82.2618 129.547L79.1348 129.669L75.8031 129.805L66.6626 130.175H66.6447L57.3246 129.791L54.1761 129.669L51.0419 129.547L49.017 129.453L48.8411 129.482L48.2811 129.64L48.0154 129.701L46.5721 130.053C46.5721 130.053 46.1916 129.809 45.5741 129.274C45.4197 129.148 45.2653 129.008 45.0822 128.858C45.0033 128.782 44.9171 128.692 44.8201 128.617C44.7304 128.542 44.6371 128.445 44.5473 128.355C44.4324 128.247 44.3463 128.157 44.235 128.06L44.2206 128.043C44.1308 127.971 44.0339 127.859 43.9298 127.752C43.8221 127.644 43.6929 127.533 43.5887 127.418C43.3769 127.185 43.1256 126.94 42.8994 126.664C42.7307 126.495 42.5943 126.323 42.4255 126.14C42.3896 126.093 42.3717 126.064 42.3465 126.018C42.1491 125.82 41.966 125.573 41.7649 125.357C41.7649 125.357 41.7506 125.339 41.7506 125.325V125.31C41.5065 125.02 41.2551 124.682 40.9859 124.355C40.7202 124.004 40.4653 123.634 40.1817 123.25C38.5589 120.898 36.8715 117.908 35.457 114.206Z" fill="#FDD5B0"/>
<path opacity="0.2" d="M66.659 120.065H64.6055L65.5282 112.673C65.8908 112.655 66.2821 112.641 66.659 112.634V120.065Z" fill="#616161"/>
<path opacity="0.2" d="M66.6426 145.053H88.1296L74.1496 134.993H74.0849C74.0849 134.993 69.626 130.994 66.8616 130.994C66.7898 130.994 66.718 131.008 66.6426 131.008V145.053Z" fill="#616161"/>
<path opacity="0.2" d="M66.6426 120.065H68.6961L67.7771 112.673C67.4037 112.655 67.0195 112.641 66.6426 112.634V120.065Z" fill="#616161"/>
<path opacity="0.2" d="M74.1182 113.851C84.5188 116.149 90.1661 119.649 93.1065 123.243C90.956 126.334 88.8988 128.287 87.7356 129.278L74.1182 113.851Z" fill="#616161"/>
<path d="M47.8485 126.642C47.8485 124.032 48.8322 121.573 50.5483 119.469C51.9772 117.703 53.923 116.181 56.2458 115.032C56.2638 115.018 56.2782 115.018 56.3069 115.003C57.2116 114.572 58.163 114.174 59.1754 113.851C61.1428 113.204 63.2789 112.795 65.5228 112.666C65.6412 112.666 65.7705 112.652 65.8854 112.652C66.1367 112.637 66.3737 112.637 66.6393 112.637C66.6573 112.637 66.6573 112.637 66.6573 112.637C66.8978 112.637 67.1635 112.637 67.4112 112.652C67.5297 112.652 67.6553 112.666 67.7738 112.666C70.0212 112.792 72.1538 113.204 74.1212 113.851C75.1156 114.177 76.0814 114.572 76.9897 115.003C77.0184 115.018 77.0184 115.018 77.0508 115.032C79.3556 116.181 81.3194 117.707 82.7304 119.455C84.468 121.559 85.4517 124.014 85.4517 126.639C85.4517 128.574 85.8646 128.725 84.8988 130.416L79.3843 130.491L69.9243 130.613V132.563C68.9442 132.135 67.9174 131.902 66.8583 131.902C66.7937 131.902 66.7147 131.916 66.6573 131.916C66.6573 131.916 66.6573 131.916 66.6393 131.916C66.5675 131.916 66.5065 131.902 66.4275 131.902C65.3684 131.902 64.3344 132.132 63.3687 132.563V130.613L53.9051 130.491L48.3762 130.416C47.4177 128.728 47.8485 128.577 47.8485 126.642Z" fill="#FDD5B0"/>
<path opacity="0.2" d="M48.4027 130.419L53.9172 130.495L56.5523 122.187C57.2057 122.298 57.8735 122.367 58.5485 122.374C62.4976 122.435 66.5473 118.981 66.5473 118.981C66.5473 118.981 70.8519 122.435 74.6862 122.435C75.4114 122.435 76.1079 122.363 76.79 122.241L79.4036 130.495L84.9217 130.419C85.891 128.739 85.4602 128.57 85.4602 126.635C85.4602 124.011 84.4478 121.566 82.7317 119.466C82.7317 119.466 82.7425 119.462 82.746 119.455C82.6276 119.311 82.484 119.171 82.3619 119.035C82.1609 118.809 81.9705 118.583 81.7515 118.367C81.4966 118.105 81.2131 117.864 80.9294 117.617C80.7499 117.459 80.5776 117.294 80.3837 117.143C80.0175 116.852 79.6334 116.583 79.2277 116.314C79.0949 116.224 78.9692 116.123 78.822 116.03C78.2655 115.674 77.6767 115.337 77.0628 115.032C77.0377 115.018 77.0377 115.018 77.0054 115.003C76.1043 114.572 75.1314 114.174 74.1297 113.851C72.1695 113.204 70.0333 112.795 67.7859 112.666C67.6674 112.666 67.549 112.652 67.4197 112.652C67.1792 112.637 66.9135 112.637 66.6658 112.637C66.6658 112.637 66.6658 112.637 66.6514 112.637C66.3893 112.637 66.1452 112.637 65.8975 112.652C65.7754 112.652 65.6569 112.666 65.5277 112.666C63.2875 112.792 61.1477 113.204 59.1875 113.851C58.1715 114.177 57.2201 114.572 56.3118 115.003C56.2831 115.018 56.2651 115.018 56.2544 115.032C55.6368 115.344 55.0373 115.685 54.4736 116.041C54.3659 116.112 54.269 116.188 54.1577 116.26C53.7305 116.543 53.3104 116.838 52.9227 117.146C52.7216 117.304 52.5493 117.473 52.3626 117.635C52.0934 117.872 51.8169 118.109 51.5656 118.356C51.3394 118.59 51.1276 118.83 50.9122 119.074C50.7937 119.211 50.6609 119.336 50.5532 119.469C50.5532 119.469 50.5568 119.476 50.5676 119.484C48.8587 121.577 47.8498 124.014 47.8498 126.635C47.8642 128.574 47.4333 128.739 48.4027 130.419Z" fill="#616161"/>
<path d="M63.3711 133.895V132.57C64.3368 132.143 65.3672 131.909 66.4299 131.909C66.5089 131.909 66.5807 131.924 66.6417 131.924C66.7171 131.924 66.7961 131.909 66.8607 131.909C67.9198 131.909 68.9466 132.139 69.9267 132.57V133.895C69.9267 134.153 69.8836 134.397 69.837 134.649C69.7903 134.817 69.7436 134.986 69.6682 135.141C69.1764 136.271 68.0527 137.072 66.7494 137.072C66.7207 137.072 66.692 137.058 66.6453 137.058C66.6166 137.058 66.5843 137.072 66.5556 137.072C65.3457 137.072 64.2974 136.394 63.7588 135.399C63.6368 135.169 63.5326 134.907 63.4716 134.649C63.3998 134.397 63.3711 134.153 63.3711 133.895Z" fill="#FDD5B0"/>
<path opacity="0.2" d="M63.375 133.894V132.569C64.3407 132.142 65.3711 131.909 66.4338 131.909C66.5128 131.909 66.5846 131.923 66.6456 131.923C66.721 131.923 66.8 131.909 66.8646 131.909C67.9237 131.909 68.9505 132.139 69.9306 132.569V133.894C69.9306 134.153 69.8875 134.397 69.8409 134.648C69.7942 134.817 69.7475 134.986 69.6721 135.14C68.4443 134.537 67.3098 134.045 66.8646 134.045C66.8 134.045 66.721 134.059 66.6636 134.059C66.6636 134.059 66.6636 134.059 66.6456 134.059C66.5738 134.059 66.5128 134.045 66.4338 134.045C66.0138 134.045 64.9439 134.645 63.7592 135.399C63.6371 135.169 63.533 134.907 63.4719 134.648C63.4037 134.397 63.375 134.153 63.375 133.894Z" fill="#616161"/>
<path opacity="0.2" d="M40.1826 123.239C43.1409 119.649 48.7846 116.148 59.1781 113.847L53.5344 120.248L53.1933 120.629L48.781 125.637L47.8476 126.692L45.575 129.267C45.4206 129.145 45.2627 129.012 45.0904 128.85C45.0006 128.775 44.9073 128.692 44.8211 128.61C44.7277 128.527 44.6272 128.437 44.5375 128.351C44.4334 128.251 44.3436 128.157 44.2359 128.053H44.2251V128.039C44.1318 127.956 44.0348 127.863 43.9271 127.744C43.8194 127.633 43.6974 127.529 43.5897 127.414C43.3671 127.177 43.1337 126.926 42.8968 126.66C42.7388 126.491 42.5952 126.319 42.4265 126.14C42.3977 126.107 42.3654 126.064 42.3295 126.032C42.15 125.82 41.9597 125.597 41.7695 125.353C41.7695 125.353 41.7587 125.339 41.7587 125.328H41.7443V125.317C41.493 125.012 41.2525 124.686 40.9868 124.355C40.7247 124 40.4626 123.626 40.1826 123.239Z" fill="#616161"/>
<path d="M38.8477 133.984C38.8477 133.338 38.8872 132.695 38.9913 132.02C39.2892 129.884 40.115 127.615 41.7521 125.328V125.317C43.321 123.142 45.6187 120.952 48.9037 118.848C49.0975 118.722 49.3058 118.593 49.5176 118.464C51.4239 117.286 53.6606 116.137 56.2455 115.032C56.2958 115.003 56.3496 114.981 56.4071 114.956C56.443 114.938 56.4896 114.917 56.5399 114.902C56.6979 114.838 56.8415 114.777 56.9994 114.712C57.4662 114.515 57.9472 114.324 58.4319 114.131C58.6832 114.037 58.9309 113.944 59.1823 113.847L53.1293 125.547L51.0506 129.536L50.5839 130.451L43.0158 145.052C43.0086 145.06 38.8477 140.288 38.8477 133.984Z" fill="#F9F9F9"/>
<path d="M74.1182 113.851C77.9955 115.308 81.18 116.867 83.7828 118.464C84.0018 118.597 84.2101 118.723 84.404 118.856C91.1391 123.171 93.7383 127.842 94.3199 132.021C94.4133 132.685 94.4599 133.338 94.4599 133.981C94.4492 140.285 90.299 145.049 90.299 145.049L74.1182 113.851Z" fill="#F9F9F9"/>
<path d="M87.7209 126.495L85.7715 123.903L86.6511 127.027L87.7209 126.495Z" fill="#7D8450"/>
<path d="M80.9719 120.202L79.0225 117.606L79.902 120.73L80.9719 120.202Z" fill="#7D8450"/>
<path d="M91.2721 141.983L89.3154 139.391L90.1986 142.515L91.2721 141.983Z" fill="#7D8450"/>
<path d="M88.6916 136.537L86.7529 133.945L87.6253 137.072L88.6916 136.537Z" fill="#7D8450"/>
<path d="M86.1184 131.091L84.1689 128.499L85.0521 131.622L86.1184 131.091Z" fill="#7D8450"/>
<path d="M83.5452 125.644L81.5957 123.052L82.4825 126.176L83.5452 125.644Z" fill="#7D8450"/>
<path d="M83.7832 118.464C84.0022 118.597 84.2104 118.723 84.4043 118.856L85.5423 120.364L84.4725 120.895L83.7832 118.464Z" fill="#7D8450"/>
<path d="M92.8716 137.388L90.9258 134.8L91.809 137.916L92.8716 137.388Z" fill="#7D8450"/>
<path d="M90.2942 131.945L88.3447 129.346L89.2243 132.47L90.2942 131.945Z" fill="#7D8450"/>
<path d="M93.4775 130.908L94.3176 132.024C94.411 132.688 94.4576 133.342 94.4576 133.984L94.3679 134.031L93.4775 130.908Z" fill="#7D8450"/>
<path d="M91.7248 127.045L89.7754 124.453L90.655 127.576L91.7248 127.045Z" fill="#7D8450"/>
<path d="M45.582 126.495L47.5351 123.903L46.6483 127.027L45.582 126.495Z" fill="#7D8450"/>
<path d="M52.3379 120.202L54.2837 117.606L53.4006 120.73L52.3379 120.202Z" fill="#7D8450"/>
<path d="M42.0381 141.983L43.9839 139.391L43.1044 142.515L42.0381 141.983Z" fill="#7D8450"/>
<path d="M44.6113 136.537L46.5608 133.945L45.6812 137.072L44.6113 136.537Z" fill="#7D8450"/>
<path d="M47.1846 131.091L49.134 128.499L48.2472 131.622L47.1846 131.091Z" fill="#7D8450"/>
<path d="M49.7578 125.644L51.7073 123.052L50.8241 126.176L49.7578 125.644Z" fill="#7D8450"/>
<path d="M49.5179 118.464C49.3061 118.597 49.0979 118.723 48.904 118.856L47.7695 120.364L48.8358 120.895L49.5179 118.464Z" fill="#7D8450"/>
<path d="M40.4355 137.388L42.3814 134.8L41.5018 137.916L40.4355 137.388Z" fill="#7D8450"/>
<path d="M43.0049 131.945L44.9579 129.346L44.0747 132.47L43.0049 131.945Z" fill="#7D8450"/>
<path d="M38.8477 133.984C38.8477 133.338 38.8872 132.696 38.9913 132.021L39.8278 130.908L38.9374 134.028L38.8477 133.984Z" fill="#7D8450"/>
<path d="M41.5752 127.045L43.5246 124.453L42.6451 127.576L41.5752 127.045Z" fill="#7D8450"/>
<path d="M47.3311 113.664C48.0491 112.451 48.4548 111.331 48.6989 110.257L51.0935 109.539L66.646 104.893L76.3538 102.011L79.5957 101.027C79.7034 101.411 79.8398 101.827 80.0086 102.255C85.6128 104.664 83.0674 108.505 85.7959 113.345C85.8282 113.402 85.8605 113.463 85.9144 113.528C84.9881 115.495 83.5556 117.168 81.7785 118.385C79.7608 119.796 77.3088 120.625 74.6844 120.625C70.8429 120.625 66.5383 117.168 66.5383 117.168C66.5383 117.168 62.4815 120.625 58.5395 120.561C55.9761 120.529 53.5348 119.732 51.5208 118.392C49.7257 117.197 48.2681 115.571 47.3311 113.664Z" fill="#D66753"/>
<path d="M40.0287 168.077C40.7252 155.148 66.664 135.503 66.664 135.503C66.664 135.503 93.3101 155.296 93.3101 168.263C93.3101 177.156 86.0257 184.34 77.1329 184.34C72.1319 184.34 66.5492 179.849 66.5492 179.849C66.5492 179.849 61.2645 184.34 56.1198 184.268C47.1983 184.153 39.5548 176.994 40.0287 168.077Z" fill="#D66753"/>
<path opacity="0.2" d="M76.3438 102.007L79.5964 101.034C79.7041 101.418 79.8478 101.831 80.0093 102.255C85.8146 104.743 82.8814 108.76 86.0982 113.844C86.4536 113.445 92.783 103.77 93.8709 96.7796L94.6463 96.5391C96.305 103.834 84.2852 116.597 84.2852 116.597C84.2852 116.597 80.3396 103.863 76.3438 102.007Z" fill="#616161"/>
<path opacity="0.2" d="M44.4326 111.535L45.2655 111.284L45.5204 111.208C46.2205 112.382 46.7842 113.248 47.0391 113.632C47.1181 113.754 47.1755 113.829 47.2006 113.851C48.0012 112.576 48.4249 111.377 48.6977 110.257L51.0924 109.539C49.3045 112.896 49.1321 116.985 49.1321 116.985C49.1321 116.985 46.3641 114.21 44.4326 111.535Z" fill="#616161"/>
<path d="M62.8043 166.371C65.8236 166.371 65.7123 165.057 66.4411 163.6C67.1663 165.061 67.511 166.371 70.5016 166.371C73.4958 166.371 77.6747 157.891 77.6747 150.758C77.6747 145.688 76.1812 141.158 73.8045 138.095C73.7902 138.081 73.7758 138.059 73.765 138.045C73.765 138.041 73.7614 138.041 73.7614 138.034C72.5336 136.476 71.094 135.302 69.5107 134.645C68.5916 134.275 67.6438 134.071 66.6601 134.053V134.045C66.6494 134.045 66.6458 134.045 66.6458 134.045V134.053C65.6585 134.067 64.7107 134.272 63.8024 134.645C62.2119 135.302 60.7687 136.476 59.5445 138.034C59.5445 138.038 59.5445 138.038 59.5337 138.045C59.5265 138.059 59.5157 138.081 59.5014 138.095C57.1283 141.158 55.624 145.688 55.624 150.758C55.6276 157.891 59.1639 166.059 62.8043 166.371Z" fill="#FDD5B0"/>
<path d="M74.9096 151.727C74.9563 151.601 74.985 151.476 74.985 151.339C74.985 150.485 73.9331 149.795 72.637 149.795C71.341 149.795 70.2891 150.485 70.2891 151.339C70.2891 151.476 70.3178 151.605 70.3609 151.727H74.9096Z" fill="#2C2C2C"/>
<path d="M58.3947 151.727C58.3445 151.601 58.3193 151.476 58.3193 151.339C58.3193 150.485 59.3712 149.795 60.6637 149.795C61.9633 149.795 63.0188 150.485 63.0188 151.339C63.0188 151.476 62.9865 151.605 62.9399 151.727H58.3947Z" fill="#2C2C2C"/>
<path d="M63.582 140.152H66.6444H66.6588H69.7212C69.1073 139.334 67.9656 138.784 66.6588 138.766C66.648 138.766 66.6444 138.766 66.6444 138.766C65.334 138.781 64.1995 139.334 63.582 140.152Z" fill="#D66753"/>
<path d="M66.6557 140.317C68.0523 141.947 70.0304 139.883 70.0304 139.883H66.6629H66.6485H63.2773C63.2773 139.883 65.2555 141.947 66.6557 140.317Z" fill="#D66753"/>
<path opacity="0.2" d="M66.645 149.109V149.167L66.6557 149.138L66.6593 149.167V149.109L68.4257 143.473C68.4257 143.473 67.7795 142.906 66.7311 142.906C65.6756 142.906 64.875 143.473 64.875 143.473L66.645 149.109Z" fill="#616161"/>
<path d="M63.2745 155.091L58.6109 154.839L58.5427 154.836L58.5104 154.8L56.665 152.771L58.7114 154.599L58.6109 154.559L63.2745 154.33V155.091Z" fill="#D66753"/>
<path d="M69.6299 154.33L74.3007 154.559L74.2001 154.599L76.2465 152.771L74.4012 154.8L74.3617 154.836L74.3007 154.839L69.6299 155.091V154.33Z" fill="#D66753"/>
<path d="M47.3311 113.664C48.0491 112.451 48.4548 111.331 48.6989 110.257L51.0935 109.539L66.646 104.893L76.3538 102.011L79.5957 101.027C79.7034 101.411 79.8398 101.827 80.0086 102.255C85.6128 104.664 83.0674 108.505 85.7959 113.345C85.8282 113.402 85.8605 113.463 85.9144 113.528C84.9881 115.495 83.5556 117.168 81.7785 118.385C79.7608 119.796 77.3088 120.625 74.6844 120.625C70.8429 120.625 66.5383 117.168 66.5383 117.168C66.5383 117.168 62.4815 120.625 58.5395 120.561C55.9761 120.529 53.5348 119.732 51.5208 118.392C49.7257 117.197 48.2681 115.571 47.3311 113.664Z" fill="#D66753"/>
<path d="M40.0287 168.077C40.7252 155.148 66.664 135.503 66.664 135.503C66.664 135.503 93.3101 155.296 93.3101 168.263C93.3101 177.156 86.0257 184.34 77.1329 184.34C72.1319 184.34 66.5492 179.849 66.5492 179.849C66.5492 179.849 61.2645 184.34 56.1198 184.268C47.1983 184.153 39.5548 176.994 40.0287 168.077Z" fill="#D66753"/>
<path opacity="0.2" d="M76.3438 102.007L79.5964 101.034C79.7041 101.418 79.8478 101.831 80.0093 102.255C85.8146 104.743 82.8814 108.76 86.0982 113.844C86.4536 113.445 92.783 103.77 93.8709 96.7796L94.6463 96.5391C96.305 103.834 84.2852 116.597 84.2852 116.597C84.2852 116.597 80.3396 103.863 76.3438 102.007Z" fill="#616161"/>
<path opacity="0.2" d="M44.4326 111.535L45.2655 111.284L45.5204 111.208C46.2205 112.382 46.7842 113.248 47.0391 113.632C47.1181 113.754 47.1755 113.829 47.2006 113.851C48.0012 112.576 48.4249 111.377 48.6977 110.257L51.0924 109.539C49.3045 112.896 49.1321 116.985 49.1321 116.985C49.1321 116.985 46.3641 114.21 44.4326 111.535Z" fill="#616161"/>
<path d="M62.8043 166.371C65.8236 166.371 65.7123 165.057 66.4411 163.6C67.1663 165.061 67.511 166.371 70.5016 166.371C73.4958 166.371 77.6747 157.891 77.6747 150.758C77.6747 145.688 76.1812 141.158 73.8045 138.095C73.7902 138.081 73.7758 138.059 73.765 138.045C73.765 138.041 73.7614 138.041 73.7614 138.034C72.5336 136.476 71.094 135.302 69.5107 134.645C68.5916 134.275 67.6438 134.071 66.6601 134.053V134.045C66.6494 134.045 66.6458 134.045 66.6458 134.045V134.053C65.6585 134.067 64.7107 134.272 63.8024 134.645C62.2119 135.302 60.7687 136.476 59.5445 138.034C59.5445 138.038 59.5445 138.038 59.5337 138.045C59.5265 138.059 59.5157 138.081 59.5014 138.095C57.1283 141.158 55.624 145.688 55.624 150.758C55.6276 157.891 59.1639 166.059 62.8043 166.371Z" fill="#FDD5B0"/>
<path d="M74.9096 151.727C74.9563 151.601 74.985 151.476 74.985 151.339C74.985 150.485 73.9331 149.795 72.637 149.795C71.341 149.795 70.2891 150.485 70.2891 151.339C70.2891 151.476 70.3178 151.605 70.3609 151.727H74.9096Z" fill="#2C2C2C"/>
<path d="M58.3947 151.727C58.3445 151.601 58.3193 151.476 58.3193 151.339C58.3193 150.485 59.3712 149.795 60.6637 149.795C61.9633 149.795 63.0188 150.485 63.0188 151.339C63.0188 151.476 62.9865 151.605 62.9399 151.727H58.3947Z" fill="#2C2C2C"/>
<path d="M63.582 140.152H66.6444H66.6588H69.7212C69.1073 139.334 67.9656 138.784 66.6588 138.766C66.648 138.766 66.6444 138.766 66.6444 138.766C65.334 138.781 64.1995 139.334 63.582 140.152Z" fill="#D66753"/>
<path d="M66.6557 140.317C68.0523 141.947 70.0304 139.883 70.0304 139.883H66.6629H66.6485H63.2773C63.2773 139.883 65.2555 141.947 66.6557 140.317Z" fill="#D66753"/>
<path opacity="0.2" d="M66.645 149.109V149.167L66.6557 149.138L66.6593 149.167V149.109L68.4257 143.473C68.4257 143.473 67.7795 142.906 66.7311 142.906C65.6756 142.906 64.875 143.473 64.875 143.473L66.645 149.109Z" fill="#616161"/>
<path d="M63.2745 155.091L58.6109 154.839L58.5427 154.836L58.5104 154.8L56.665 152.771L58.7114 154.599L58.6109 154.559L63.2745 154.33V155.091Z" fill="#D66753"/>
<path d="M69.6299 154.33L74.3007 154.559L74.2001 154.599L76.2465 152.771L74.4012 154.8L74.3617 154.836L74.3007 154.839L69.6299 155.091V154.33Z" fill="#D66753"/>
<path opacity="0.2" d="M64.5625 165.833C64.5301 165.854 64.4871 165.865 64.4512 165.89C64.4871 165.869 64.5301 165.854 64.5625 165.833Z" fill="#616161"/>
<path opacity="0.2" d="M64.0142 166.087C63.946 166.109 63.8778 166.123 63.8096 166.152C63.8778 166.123 63.9496 166.109 64.0142 166.087Z" fill="#616161"/>
<path opacity="0.2" d="M59.1784 175.117C58.9846 171.548 66.6244 165.836 66.6244 165.836C66.6244 165.836 74.2642 171.383 73.8191 175.408C73.5498 177.906 71.3383 179.798 68.9616 179.795C67.6655 179.795 66.2403 178.689 66.2403 178.689C66.2403 178.689 64.9334 179.795 63.6769 179.78C61.5443 179.748 59.3077 177.364 59.1784 175.117Z" fill="#616161"/>
<path d="M59.7337 174.808C59.9096 171.555 66.4365 166.612 66.4365 166.612C66.4365 166.612 73.1465 171.591 73.1465 174.855C73.1465 177.095 71.3155 178.901 69.0717 178.901C67.8187 178.901 66.4078 177.77 66.4078 177.77C66.4078 177.77 65.0795 178.901 63.7834 178.883C61.5396 178.854 59.6152 177.052 59.7337 174.808Z" fill="#E3B605"/>
<path opacity="0.2" d="M66.448 168.956C68.9611 171.024 71.309 173.638 71.309 174.855C71.309 176.068 70.3038 177.055 69.076 177.055C68.7062 177.055 67.9271 176.625 67.5681 176.337L66.3798 175.379L65.2201 176.37C64.8898 176.635 64.2041 177.041 63.82 177.041C63.163 177.034 62.5419 176.761 62.1003 176.294C61.8454 176.021 61.5402 175.555 61.5761 174.905C61.6443 173.659 63.9815 171.028 66.448 168.956Z" fill="#616161"/>
<path opacity="0.2" d="M40.1817 123.25C40.4653 123.63 40.7202 124 40.9859 124.356C41.0792 124.47 41.1618 124.578 41.2552 124.689C41.4167 124.905 41.5855 125.12 41.747 125.318V125.328C40.1099 127.615 39.2842 129.888 38.9862 132.02C38.8821 132.695 38.8426 133.342 38.8426 133.984C38.8426 140.289 43.0036 145.06 43.0036 145.06H55.5403C48.4067 151.849 40.4043 160.975 40.0201 168.076C39.5462 176.991 47.1897 184.153 56.1112 184.268C61.2559 184.34 66.5406 179.848 66.5406 179.848C66.5406 179.848 66.5657 179.863 66.5729 179.877V104.918L51.0814 109.543L49.1535 110.117L48.6868 110.261C48.6724 110.3 48.658 110.343 48.6473 110.386C48.3816 111.47 47.9616 112.626 47.1897 113.851C47.1789 113.84 47.1717 113.833 47.1645 113.822C47.143 113.793 47.0963 113.739 47.0281 113.632C46.7732 113.248 46.2096 112.382 45.5095 111.208L45.5059 111.212H45.4951L45.2546 111.284L44.9027 111.391L44.4109 111.531L35.4463 114.206C36.8716 117.908 38.5589 120.898 40.1817 123.25Z" fill="#616161"/>
<path d="M31.066 40.1951C30.8255 44.7941 21.588 51.7841 21.588 51.7841C21.588 51.7841 12.1064 44.7439 12.1064 40.1269C12.1064 36.9676 14.7021 34.4114 17.8651 34.4114C19.635 34.4114 21.6275 36.0054 21.6275 36.0054C21.6275 36.0054 23.5052 34.4114 25.3433 34.433C28.5134 34.4796 31.2383 37.025 31.066 40.1951Z" fill="#D66753"/>
<path opacity="0.2" d="M25.3498 34.4331C23.5116 34.4115 21.634 36.0055 21.634 36.0055C21.634 36.0055 21.6052 35.9912 21.5693 35.9625V51.7699C21.5837 51.7771 21.5909 51.7842 21.5909 51.7842C21.5909 51.7842 30.8247 44.7942 31.0689 40.1952C31.2376 37.0251 28.5127 34.4797 25.3498 34.4331Z" fill="#616161"/>
<path d="M113.476 159.643C113.724 155.044 122.954 148.051 122.954 148.051C122.954 148.051 132.439 155.091 132.439 159.704C132.439 162.867 129.84 165.427 126.68 165.427C124.9 165.427 122.918 163.826 122.918 163.826C122.918 163.826 121.033 165.427 119.202 165.398C116.021 165.355 113.311 162.806 113.476 159.643Z" fill="#D66753"/>
<path opacity="0.2" d="M119.199 165.398C121.03 165.427 122.914 163.826 122.914 163.826C122.914 163.826 122.936 163.844 122.975 163.876V148.069C122.957 148.058 122.954 148.051 122.954 148.051C122.954 148.051 113.724 155.041 113.476 159.643C113.311 162.806 116.021 165.355 119.199 165.398Z" fill="#616161"/>
<path d="M14.7419 21.4842C14.7419 19.0831 15.3456 17.2103 16.553 15.8657C17.7741 14.5074 19.496 13.8282 21.7187 13.8282C23.9414 13.8282 25.6153 14.4731 26.7403 15.7628C27.8791 17.0388 28.4485 18.8567 28.4485 21.2166C28.4485 25.7032 26.5002 28.1248 22.6037 28.4815V28.6256C23.3857 28.7079 23.962 28.9206 24.3324 29.2636C24.7166 29.6066 25.0047 30.0594 25.1968 30.6219C25.3889 31.1981 25.5604 31.5892 25.7113 31.795C25.8622 32.0008 26.0886 32.1037 26.3905 32.1037C26.9118 32.1037 27.2205 31.5549 27.3166 30.4572L27.7694 30.4984C27.7419 31.4039 27.4607 32.0968 26.9256 32.577C26.3905 33.0572 25.6427 33.2973 24.6823 33.2973C23.7356 33.2973 23.0016 33.0572 22.4802 32.577C21.9588 32.1105 21.5609 31.4177 21.2865 30.4984C21.1082 29.9359 20.9572 29.5723 20.8337 29.4076C20.7103 29.243 20.5525 29.1607 20.3604 29.1607C19.9762 29.1607 19.4686 29.4419 18.8374 30.0045L18.5493 29.6752C19.0981 29.1264 19.7224 28.7902 20.4221 28.6667V28.5433C18.5562 28.3512 17.143 27.6446 16.1826 26.4235C15.2221 25.2024 14.7419 23.5559 14.7419 21.4842ZM24.2089 22.1016V20.5786C24.2089 18.0678 24.0855 16.4831 23.8385 15.8245C23.5641 15.0699 23.1731 14.6034 22.6654 14.4251C22.3773 14.3153 22.0274 14.2604 21.6158 14.2604C21.2042 14.2604 20.8475 14.3153 20.5456 14.4251C20.2575 14.5348 20.0174 14.7269 19.8253 15.0013C19.6332 15.2757 19.4754 15.5638 19.352 15.8657C19.2422 16.1675 19.153 16.5929 19.0844 17.1417C19.0021 17.9375 18.9609 19.1105 18.9609 20.6609V22.1427C18.9609 23.8166 19.0227 25.0103 19.1461 25.7237C19.2833 26.4235 19.448 26.9243 19.6401 27.2261C20.0654 27.8984 20.724 28.2346 21.6158 28.2346C22.6997 28.2346 23.3994 27.7818 23.715 26.8762C24.0443 25.957 24.2089 24.3654 24.2089 22.1016Z" fill="#D66753"/>
<path d="M130.216 180.092C130.216 182.493 129.612 184.366 128.405 185.71C127.184 187.069 125.462 187.748 123.239 187.748C121.017 187.748 119.343 187.103 118.218 185.813C117.079 184.537 116.509 182.719 116.509 180.36C116.509 175.873 118.458 173.451 122.354 173.095L122.354 172.951C121.572 172.868 120.996 172.656 120.626 172.313C120.241 171.97 119.953 171.517 119.761 170.954C119.569 170.378 119.398 169.987 119.247 169.781C119.096 169.575 118.869 169.472 118.568 169.472C118.046 169.472 117.737 170.021 117.641 171.119L117.189 171.078C117.216 170.172 117.497 169.479 118.032 168.999C118.568 168.519 119.315 168.279 120.276 168.279C121.222 168.279 121.956 168.519 122.478 168.999C122.999 169.466 123.397 170.159 123.671 171.078C123.85 171.64 124.001 172.004 124.124 172.169C124.248 172.333 124.406 172.415 124.598 172.415C124.982 172.415 125.489 172.134 126.121 171.572L126.409 171.901C125.86 172.45 125.236 172.786 124.536 172.909L124.536 173.033C126.402 173.225 127.815 173.932 128.775 175.153C129.736 176.374 130.216 178.02 130.216 180.092ZM120.749 179.475L120.749 180.998C120.749 183.508 120.873 185.093 121.12 185.752C121.394 186.506 121.785 186.973 122.293 187.151C122.581 187.261 122.931 187.316 123.342 187.316C123.754 187.316 124.111 187.261 124.412 187.151C124.701 187.041 124.941 186.849 125.133 186.575C125.325 186.3 125.483 186.012 125.606 185.71C125.716 185.409 125.805 184.983 125.874 184.434C125.956 183.639 125.997 182.466 125.997 180.915L125.997 179.433C125.997 177.76 125.935 176.566 125.812 175.852C125.675 175.153 125.51 174.652 125.318 174.35C124.893 173.678 124.234 173.342 123.342 173.342C122.258 173.342 121.559 173.794 121.243 174.7C120.914 175.619 120.749 177.211 120.749 179.475Z" fill="#D66753"/>
</svg>
